<svg width="134" height="76" viewBox="0 0 134 76" fill="none" xmlns="http://www.w3.org/2000/svg">
<path d="M57.3486 59.1326C76.4485 59.1326 86.8935 43.2026 86.8935 29.3887C86.8935 28.9363 86.8843 28.4859 86.8641 28.0374C88.8963 26.557 90.6503 24.724 92.0438 22.6242C90.1832 23.4569 88.181 24.0173 86.0808 24.27C88.2245 22.9757 89.8704 20.9286 90.6469 18.488C88.6084 19.7054 86.3784 20.5636 84.0531 21.0255C82.1582 18.9936 79.4607 17.7227 76.4734 17.7227C70.7391 17.7227 66.0889 22.4043 66.0889 28.1751C66.0889 28.9954 66.1801 29.7934 66.3583 30.5587C57.728 30.1215 50.0753 25.9617 44.9537 19.6364C44.0313 21.2317 43.5461 23.0449 43.5476 24.8907C43.5476 28.5176 45.3809 31.7193 48.1686 33.5924C46.5196 33.5418 44.9068 33.0934 43.4658 32.285C43.4643 32.3289 43.4643 32.3716 43.4643 32.4185C43.4643 37.4812 47.0436 41.7082 51.7949 42.6661C50.9025 42.9108 49.9817 43.0345 49.0568 43.034C48.4018 43.0336 47.7483 42.9704 47.1052 42.8454C48.4272 46.9991 52.2606 50.0217 56.8055 50.1061C53.2515 52.9106 48.7744 54.5809 43.9085 54.5809C43.0714 54.5809 42.2445 54.533 41.4316 54.4362C46.0273 57.4017 51.4841 59.1321 57.3491 59.1321" fill="#E5E4D1"/>
</svg>
