<svg width="134" height="76" viewBox="0 0 134 76" fill="none" xmlns="http://www.w3.org/2000/svg">
<path d="M58.6515 39.1664C58.6515 44.381 54.5722 48.2235 49.5659 48.2235C44.5596 48.2235 40.4802 44.381 40.4802 39.1664C40.4802 33.9151 44.5596 30.1094 49.5659 30.1094C54.5722 30.1094 58.6515 33.9151 58.6515 39.1664ZM54.6742 39.1664C54.6742 35.9079 52.3099 33.6783 49.5659 33.6783C46.8218 33.6783 44.4575 35.9079 44.4575 39.1664C44.4575 42.3924 46.8218 44.6546 49.5659 44.6546C52.3099 44.6546 54.6742 42.3883 54.6742 39.1664Z" fill="#E5E4D1"/>
<path d="M78.2526 39.1664C78.2526 44.381 74.1732 48.2235 69.1669 48.2235C64.1607 48.2235 60.0813 44.381 60.0813 39.1664C60.0813 33.9192 64.1607 30.1094 69.1669 30.1094C74.1732 30.1094 78.2526 33.9151 78.2526 39.1664ZM74.2753 39.1664C74.2753 35.9079 71.911 33.6783 69.1669 33.6783C66.4229 33.6783 64.0586 35.9079 64.0586 39.1664C64.0586 42.3924 66.4229 44.6546 69.1669 44.6546C71.911 44.6546 74.2753 42.3883 74.2753 39.1664Z" fill="#E5E4D1"/>
<path d="M97.0386 30.6566V46.9168C97.0386 53.6055 93.094 56.3373 88.4307 56.3373C84.041 56.3373 81.399 53.4013 80.4026 51.0002L83.8654 49.5588C84.482 51.0329 85.9929 52.7724 88.4266 52.7724C91.4116 52.7724 93.2614 50.9308 93.2614 47.464V46.1614H93.1225C92.2324 47.2598 90.5173 48.2194 88.3531 48.2194C83.8246 48.2194 79.6758 44.2748 79.6758 39.1991C79.6758 34.0866 83.8246 30.1094 88.3531 30.1094C90.5132 30.1094 92.2283 31.069 93.1225 32.1348H93.2614V30.6606H97.0386V30.6566ZM93.5431 39.1991C93.5431 36.0099 91.4157 33.6783 88.7083 33.6783C85.9643 33.6783 83.6653 36.0099 83.6653 39.1991C83.6653 42.3556 85.9643 44.6546 88.7083 44.6546C91.4157 44.6546 93.5431 42.3556 93.5431 39.1991Z" fill="#E5E4D1"/>
<path d="M103.263 21.125V47.6673H99.3838V21.125H103.263Z" fill="#E5E4D1"/>
<path d="M118.38 42.1514L121.467 44.2095C120.47 45.6836 118.069 48.2235 113.921 48.2235C108.775 48.2235 104.933 44.2462 104.933 39.1664C104.933 33.7804 108.808 30.1094 113.475 30.1094C118.175 30.1094 120.474 33.8498 121.226 35.8711L121.638 36.9001L109.531 41.9146C110.458 43.7317 111.899 44.6587 113.921 44.6587C115.946 44.6587 117.351 43.6623 118.38 42.1514ZM108.877 38.8928L116.971 35.5322C116.526 34.4011 115.186 33.613 113.61 33.613C111.589 33.613 108.775 35.3974 108.877 38.8928Z" fill="#E5E4D1"/>
<path d="M25.7971 36.8113V32.9688H38.7457C38.8723 33.6385 38.9376 34.4307 38.9376 35.2882C38.9376 38.1711 38.1495 41.736 35.6096 44.2759C33.1392 46.8484 29.9827 48.2205 25.8012 48.2205C18.0509 48.2205 11.5337 41.9075 11.5337 34.1571C11.5337 26.4067 18.0509 20.0938 25.8012 20.0938C30.0888 20.0938 33.1432 21.7761 35.4381 23.9689L32.7267 26.6803C31.0811 25.1368 28.8515 23.9363 25.7971 23.9363C20.1375 23.9363 15.711 28.4975 15.711 34.1571C15.711 39.8167 20.1375 44.3779 25.7971 44.3779C29.4681 44.3779 31.5589 42.9038 32.8982 41.5645C33.9844 40.4783 34.699 38.9266 34.9808 36.8073L25.7971 36.8113Z" fill="#E5E4D1"/>
</svg>
