<svg width="134" height="76" viewBox="0 0 134 76" fill="none" xmlns="http://www.w3.org/2000/svg">
<path fill-rule="evenodd" clip-rule="evenodd" d="M93.1809 12.1875H40.6855V64.6758H93.1809V12.1875ZM80.0782 47.3376H53.815V51.5989H80.0782V47.3376ZM71.2745 25.3596H66.837V45.0456H69.7592V30.2273L72.1374 45.0746H74.6646L77.1295 30.2273V45.0746H80.0543V25.3596H75.6653L73.4456 39.7889L71.2745 25.3596ZM63.7542 31.6196H60.7553V30.2271C60.7553 29.472 60.7553 27.654 58.7857 27.654C56.8402 27.654 56.8402 29.443 56.8402 30.2271V39.8849C56.8402 41.3976 57.309 42.5446 58.7857 42.5446C60.26 42.5446 60.7553 41.4675 60.7553 39.8851V36.7635H59.0359V34.3922H63.7542V45.0744L60.854 45.0456V43.9995C60.6062 44.3987 59.4375 45.4474 57.7613 45.4448C54.9259 45.4257 53.8319 43.4657 53.8319 40.4741V30.2271C53.8319 29.4191 53.8319 24.9508 58.7376 24.9508C63.7542 24.9508 63.7542 28.8635 63.7542 30.2271V31.6196Z" fill="#E5E4D1"/>
</svg>
