<svg width="135" height="76" viewBox="0 0 135 76" fill="none" xmlns="http://www.w3.org/2000/svg">
<path fill-rule="evenodd" clip-rule="evenodd" d="M62.7381 13.821L60.4454 12.1813L59.5459 14.999L57.1416 13.2878L56.6641 16.0655L53.9335 14.7922L53.7425 17.5698L50.9485 16.8855L51.1871 19.6314L48.2257 19.0343L48.7991 21.8999L45.9251 21.7883L46.8487 24.5503L44.1102 24.7333L45.0815 27.3441L42.2712 27.8852L44.0544 30.5835L41.2604 31.3794L42.9875 33.5761L40.6393 34.7224L42.6853 36.9192L40.3208 38.4715L42.2897 39.7448L42.0711 38.8624L43.8541 38.4562L49.0684 45.8508L50.2306 36.9202L52.0138 36.4986L54.3702 46.0019L53.176 46.2884L51.2736 38.6634L51.1859 38.3051H51.1461L49.9839 47.0526L48.8693 47.3071L43.6948 40.0799L43.6472 40.0962L43.7745 40.4463L45.6772 48.0713L44.4272 48.3735L43.9757 46.551L42.3987 48.8662L45.3122 49.3916L44.1102 51.9544L46.7769 52.2729L45.9333 54.9474L48.9264 54.8596L48.3451 57.5422L51.2031 57.1758L51.0758 59.8901L53.9096 59.0782L54.0529 61.8163L56.6482 60.8374L57.1257 63.4081L59.9121 61.8401L60.6922 64.634L62.9529 62.9068L64.0357 65.1832L66.209 63.1216L67.5464 65.6051L69.4884 63.0103L71.2481 65.2468L72.6567 62.8432L74.5516 64.5224L75.7539 61.7207L77.951 63.5275L78.699 60.5505L81.167 61.8163L81.5413 58.9904L83.9927 59.8343L84.0331 56.9053L86.8745 57.5422L86.4926 54.5969L89.0797 54.812L88.3078 51.8989L91.0222 51.835L90.0033 49.153L92.7095 48.6753L91.2689 46.1363L93.8404 45.4438L91.8502 42.9205L94.3739 41.8221L92.4157 39.7607L94.6837 38.3439L92.6247 36.8819L86.7724 38.2637L84.4082 28.7839L85.6582 28.4815L87.7675 36.9901L92.7028 35.8199L92.7903 36.1814L94.5248 34.8337L92.0568 33.441L93.8404 31.3794L90.8789 30.3766L92.5825 27.9491L89.9713 27.3203L91.0222 24.8528L88.2442 24.5581L89.1433 21.836L86.2615 22.0112L86.7475 19.2653L84.0246 19.8223L84.0331 16.8933L81.4457 17.6415L81.167 14.9116L78.572 16.1291L77.9431 13.3672L75.5228 14.999L74.5516 12.3008L72.4501 13.9245L71.1286 11.4729L69.0984 13.6856L67.5464 11.2422L65.978 13.7493L64.0119 11.5923L62.7381 13.821ZM40.5597 41.9575L42.4625 40.4422L43.9482 46.4399L41.2604 45.4438L43.0276 43.3427L40.5597 41.9575ZM55.8747 38.4245L56.2409 35.5115L57.4351 35.225L59.656 38.4245L60.1974 39.2044L63.4056 43.8289L62.124 44.1555L60.5953 41.8949L56.5673 42.85L56.2409 45.5483L54.9514 45.8664L55.7791 39.2044L55.8747 38.4245ZM58.3107 38.4245L57.1404 36.6575L56.9733 38.4245L56.9018 39.2044L56.6629 41.7516L60.0143 40.9955L58.8283 39.2044L58.3107 38.4245ZM64.138 34.636L60.9458 35.3999L60.7147 34.4288L68.092 32.6731L68.0887 32.6599L75.5873 30.8773L75.8343 31.8643L72.7221 32.5963L74.8392 41.1131L73.6451 41.3836L71.5198 32.875L68.3354 33.647L68.3344 33.643L65.3478 34.3495L67.4653 42.8819L66.2554 43.1685L64.138 34.636ZM83.954 33.2887L78.8114 34.5304L78.0236 31.3308L83.6918 29.9698L83.4608 29.0147L76.5347 30.6462L78.8995 40.142L85.9764 38.4543L85.7375 37.4835L79.9024 38.8605L79.0585 35.5175L84.1932 34.268L83.954 33.2887Z" fill="#E5E4D1"/>
</svg>
