<svg width="134" height="76" viewBox="0 0 134 76" fill="none" xmlns="http://www.w3.org/2000/svg">
<path d="M30.8072 54.6611C28.0556 54.5518 25.8043 53.7989 24.044 52.4004C23.7081 52.1333 22.9076 51.3323 22.639 50.9945C21.9252 50.0969 21.4399 49.2233 21.1162 48.2541C20.1201 45.2707 20.6328 41.3558 22.5825 37.0592C24.2518 33.3807 26.8277 29.7325 31.3217 24.6797C31.9837 23.9362 33.9551 21.7617 33.9678 21.7617C33.9725 21.7617 33.8651 21.9478 33.7298 22.1745C32.5613 24.1317 31.5615 26.4371 31.0168 28.433C30.1419 31.6355 30.2474 34.3839 31.3259 36.515C32.0699 37.9831 33.3454 39.2548 34.7796 39.9578C37.2905 41.188 40.9665 41.2898 45.4558 40.2556C45.7649 40.184 61.0807 36.1182 79.4912 31.2204C97.9016 26.3222 112.967 22.3177 112.97 22.321C112.975 22.3252 70.1969 40.6302 47.9902 50.1266C44.4734 51.6301 43.533 52.0098 41.8797 52.5903C37.6533 54.0745 33.8674 54.7827 30.8072 54.6611Z" fill="#E5E4D1"/>
</svg>
