<svg width="134" height="76" viewBox="0 0 134 76" fill="none" xmlns="http://www.w3.org/2000/svg">
<path d="M58.069 31.1441C56.0889 31.1441 53.8369 32.062 52.4609 33.8999L52.4618 33.8961L52.4609 33.897L52.4618 31.4328H47.739V48.6318H52.4609V38.8452C52.4609 37.0839 53.8267 35.2117 56.3552 35.2117C58.3092 35.2117 60.3314 36.5708 60.3314 38.8452V48.6318H65.0543V37.9701C65.0543 34.0144 62.2241 31.1441 58.069 31.1441ZM98.6207 31.4335L94.3512 43.149L90.0816 31.4335H84.6866L91.7631 48.6269H96.9383L104.015 31.4335H98.6207ZM33.6396 36.6147C34.4438 35.5347 35.725 34.9008 37.2723 34.9008C38.9741 34.9008 40.2653 35.8727 40.933 37.3072L32.6817 40.7305C32.4564 38.9737 32.9059 37.5997 33.6396 36.6147ZM42.7129 43.3438C40.7252 44.8148 39.5896 45.1657 37.7769 45.1657C36.1457 45.1657 34.8685 44.6593 33.9682 43.7711L46.0422 38.7625C45.7786 36.8958 45.0701 35.2285 43.9801 33.9604C42.3936 32.118 40.0455 31.1433 37.1867 31.1433C31.9938 31.1433 28.0778 34.9744 28.0778 40.0342C28.0778 45.2253 32.0029 48.9242 37.7071 48.9242C40.9031 48.9242 44.1708 47.4095 45.6995 45.6396L42.7129 43.3438ZM27.6277 44.2951H16.8937V26.2891H12.1064V48.6315H27.6277V44.2951ZM112.495 35.1904C109.858 35.1904 107.943 37.1891 107.943 40.0324C107.943 42.7472 109.971 44.8744 112.559 44.8744C115.197 44.8744 117.111 42.8207 117.111 40.0324C117.111 37.3176 115.083 35.1904 112.495 35.1904ZM112.495 48.9215C107.33 48.9215 103.283 45.0736 103.283 40.0324C103.283 35.0479 107.358 31.1435 112.559 31.1435C117.724 31.1435 121.77 34.9912 121.77 40.0324C121.77 45.016 117.695 48.9215 112.495 48.9215ZM76.1338 35.1904C73.4963 35.1904 71.5822 37.1891 71.5822 40.0324C71.5822 42.7472 73.61 44.8744 76.198 44.8744C78.8355 44.8744 80.7496 42.8207 80.7496 40.0324C80.7496 37.3176 78.7218 35.1904 76.1338 35.1904ZM76.1338 48.9215C70.9688 48.9215 66.9227 45.0736 66.9227 40.0324C66.9227 35.0479 70.9967 31.1435 76.198 31.1435C81.3622 31.1435 85.4091 34.9912 85.4091 40.0324C85.4091 45.016 81.3343 48.9215 76.1338 48.9215Z" fill="#E5E4D1"/>
</svg>
