<svg version="1.1" id="Layer_1" xmlns="http://www.w3.org/2000/svg" xmlns:xlink="http://www.w3.org/1999/xlink" x="0px" y="0px" width="100%" viewBox="0 0 679 119" enable-background="new 0 0 679 119" xml:space="preserve">
	<path opacity="1.000000" stroke="none" d="
M498.000000,120.000000 
	C333.500000,120.000000 169.499985,119.985085 5.500062,120.093864 
	C1.750664,120.096352 0.885289,119.251686 0.901773,115.499565 
	C1.064314,78.500282 1.044642,41.499844 0.915873,4.500293 
	C0.905489,1.516634 1.518338,0.918138 4.500032,0.919312 
	C228.500000,1.007537 452.500000,1.007537 676.499939,0.919312 
	C679.481689,0.918138 680.094360,1.516657 680.084106,4.500289 
	C679.955688,41.833179 679.955750,79.166817 680.084106,116.499710 
	C680.094360,119.483345 679.482483,120.088264 676.499817,120.082695 
	C617.166748,119.971863 557.833313,120.000000 498.000000,120.000000 
z" />
	<path fill="#ED1A46" opacity="1.000000" stroke="none" d="
M138.996201,66.017624 
	C135.089050,71.943199 131.868988,77.796143 131.035416,84.626610 
	C130.627136,87.972244 130.903854,90.109390 135.553391,88.274521 
	C140.990784,86.128738 146.136154,83.748032 150.028915,79.372978 
	C152.338165,76.777611 155.898422,75.603989 158.382019,71.245598 
	C152.302032,74.175545 146.476822,74.916420 142.476837,79.248268 
	C141.119827,80.717857 140.310394,83.286110 138.107056,81.350876 
	C136.214417,79.688538 134.635330,77.134468 137.088928,74.430672 
	C137.312332,74.184486 137.529083,73.920280 137.793732,73.725235 
	C149.269714,65.267578 161.514999,58.648285 176.178131,58.027245 
	C180.168991,57.858212 181.769409,61.024139 183.361145,63.891476 
	C184.475342,65.898628 184.562485,68.015251 182.709412,69.783295 
	C181.544846,70.894417 180.508362,72.707077 178.575867,71.775452 
	C176.511871,70.780457 176.620026,68.855080 177.490280,67.055275 
	C177.818054,66.377380 177.939850,65.874641 177.383423,64.977158 
	C172.773026,67.316139 170.714783,71.934380 167.807541,75.722366 
	C161.236069,84.284653 154.660400,92.898888 150.210220,102.788536 
	C148.999130,105.479973 145.706985,109.015923 150.380264,111.997192 
	C151.207779,112.525093 151.007919,113.425728 150.319534,114.122978 
	C149.193634,115.263390 148.099228,115.182648 146.788315,114.300613 
	C143.357529,111.992249 141.655151,105.665321 143.395477,100.197296 
	C144.322296,97.285233 145.750397,94.532715 147.025757,91.535393 
	C145.060257,90.758919 143.856293,92.112213 142.530273,92.808418 
	C138.276703,95.041695 134.010849,96.541588 129.671906,93.108902 
	C124.361671,88.907799 121.815430,83.912354 123.527344,76.753738 
	C125.763359,67.403534 130.914673,59.607079 136.523819,52.351936 
	C144.755966,41.704033 154.030640,31.837442 165.326401,24.195223 
	C166.943512,23.101162 168.710388,22.228855 170.405197,21.249165 
	C174.736191,18.745630 178.172607,19.848551 181.183167,23.650923 
	C184.102493,27.338047 182.103394,30.487497 180.048080,33.290848 
	C177.328232,37.000610 173.946869,40.218777 171.097702,43.843098 
	C169.654678,45.678715 168.281372,45.271442 166.912964,44.293396 
	C165.605408,43.358833 164.619141,42.526276 165.969513,40.299126 
	C167.917542,37.086300 171.701859,35.282852 172.936905,29.945791 
	C158.379959,39.846390 148.499542,52.529945 138.996201,66.017624 
z" />
	<path fill="#ED1A46" opacity="1.000000" stroke="none" d="
M207.114197,87.197876 
	C206.612793,81.593826 207.092545,76.495918 208.935928,71.494141 
	C204.699326,75.610481 201.476807,80.416924 195.578888,82.188187 
	C192.061264,83.244598 188.910492,83.919243 186.168823,80.672195 
	C183.511292,77.524788 183.330978,74.233391 185.125061,70.614876 
	C187.882645,65.053078 191.027512,59.741993 195.414444,54.673038 
	C191.818665,53.293148 189.987976,56.147568 187.554764,56.779465 
	C186.323959,57.099098 184.871796,59.144608 183.751007,57.030949 
	C183.052979,55.714615 183.952057,54.146618 185.223175,53.405289 
	C189.005600,51.199337 193.014679,49.862629 197.364929,48.767178 
	C207.636932,46.180546 218.462738,44.157726 226.629379,36.652813 
	C230.054764,33.504993 232.268280,29.065096 235.220047,25.361908 
	C236.366623,23.923464 237.626892,21.924841 240.137573,23.631605 
	C242.702209,25.375038 241.556808,27.165632 240.462677,29.071697 
	C239.086655,31.468803 237.774918,33.902817 236.153625,36.829670 
	C240.205017,36.752193 243.758591,35.765659 247.404404,35.899677 
	C249.951767,35.993320 251.794144,36.704819 251.836334,39.200012 
	C251.881027,41.843353 249.429352,41.930618 247.486725,41.968849 
	C242.834961,42.060406 238.694519,44.604565 233.993149,44.586823 
	C232.016602,44.579365 230.287018,45.726425 229.118393,47.536747 
	C222.537292,57.731571 217.207809,68.603966 213.592804,80.120338 
	C211.073196,88.147079 211.434586,90.538231 219.979935,91.448730 
	C218.556412,95.602600 215.846161,95.765221 212.706696,93.843216 
	C210.292419,92.365166 208.440079,90.213921 207.114197,87.197876 
z" />
	<path fill="#ED1A46" opacity="1.000000" stroke="none" d="
M449.840271,77.217499 
	C447.832184,75.406769 446.777893,77.419434 445.356659,78.132843 
	C441.959351,79.838249 438.787476,83.077499 434.696533,79.394623 
	C433.683868,78.482964 432.574310,79.337227 431.477478,79.746521 
	C426.369751,81.652466 421.452698,82.049538 417.665009,77.111046 
	C413.994049,72.324837 416.549744,67.906952 419.144196,63.982552 
	C420.971039,61.219219 422.928589,58.380562 425.905487,56.383904 
	C427.909363,55.039860 429.247498,54.452427 430.960419,56.465218 
	C432.534454,58.314854 432.482971,60.076210 430.768555,61.711033 
	C427.117737,65.192268 425.123077,69.658981 423.027710,74.126427 
	C428.602722,75.687241 430.740540,74.326118 433.352448,69.426353 
	C437.210297,62.189201 442.508301,56.299072 450.715759,53.609001 
	C452.217590,53.116764 453.852112,52.588844 455.024841,53.106560 
	C459.515594,55.089024 460.972412,52.452148 462.531525,49.039902 
	C465.326752,42.922394 469.297699,37.501141 473.419250,32.222164 
	C474.972992,30.232130 477.059174,29.617287 479.437225,31.092638 
	C481.882324,32.609577 480.795654,34.413960 479.949158,36.236217 
	C475.933990,44.879543 469.614471,52.076557 464.889404,60.286293 
	C459.194580,70.180962 453.567352,80.047058 452.495697,91.772461 
	C446.945526,88.686356 446.528595,86.409294 449.840271,77.217499 
z" />
	<path fill="#ED1A46" opacity="1.000000" stroke="none" d="
M489.250122,75.858398 
	C484.216064,80.398842 478.610962,82.510490 472.140747,81.973145 
	C468.471222,81.668396 464.147186,76.122330 464.098328,71.396637 
	C466.035950,65.023750 470.322540,60.700424 474.238342,55.833076 
	C474.169617,55.495628 474.249542,55.249622 474.372528,55.209663 
	C477.332550,55.000530 479.472443,53.460396 481.731628,51.396622 
	C489.734955,50.828896 493.123505,55.985706 489.653229,62.813282 
	C486.283539,69.442986 481.286713,71.890236 474.455383,70.940842 
	C470.870331,70.442612 471.091248,73.319382 471.683075,75.976593 
	C474.981842,78.243629 477.926422,76.167068 480.355652,75.326149 
	C486.282196,73.274536 492.410706,70.920609 495.136169,63.972851 
	C495.100220,63.428616 495.075378,63.246250 495.109131,62.794090 
	C496.321747,62.884640 496.783722,62.573147 497.901123,60.314415 
	C497.871246,58.796864 498.430908,57.927952 499.590698,57.086964 
	C503.545715,55.086143 507.309448,53.387741 510.723114,50.403709 
	C512.976501,50.101830 515.089966,49.290485 516.871216,51.549706 
	C517.731384,52.915173 518.631775,53.087238 519.954651,52.353367 
	C522.268677,51.812008 522.740601,53.386810 523.692383,54.974258 
	C524.183350,55.278889 524.343140,55.391117 524.668091,55.745148 
	C525.819031,60.222660 523.337708,63.623100 521.856750,67.155083 
	C520.531433,70.315987 519.275635,73.458466 518.718628,76.970261 
	C519.949951,78.133636 520.198853,79.228584 519.282104,80.797760 
	C515.231995,81.279541 514.087036,78.559128 512.946411,75.411652 
	C512.949890,74.471298 512.852112,73.931458 512.334106,73.226822 
	C508.154266,73.243629 506.828857,77.278824 503.722046,78.985344 
	C498.493042,81.857552 496.507355,81.998230 492.109924,77.433670 
	C491.384979,76.179909 490.914062,75.077202 489.250122,75.858398 
z" />
	<path fill="#ED1A46" opacity="1.000000" stroke="none" d="
M407.292877,44.297676 
	C398.844238,56.590420 390.988922,68.757439 386.004883,82.590843 
	C384.899811,85.658028 385.553558,88.752228 384.524323,92.184067 
	C376.852783,87.855942 380.772888,81.790718 381.881348,76.060928 
	C378.310577,76.544289 376.212982,79.126854 373.405884,80.302849 
	C370.497742,81.521164 368.470947,80.860146 366.196533,79.086510 
	C363.872223,77.273987 363.447998,74.923203 364.276245,72.538628 
	C367.595215,62.983341 374.150818,56.524040 383.708710,53.189396 
	C384.609894,52.874977 385.856689,52.689140 386.649231,53.064278 
	C392.045929,55.618622 393.267059,51.601917 395.016113,48.065998 
	C397.850037,42.336845 401.502563,37.107521 405.491180,32.135239 
	C407.076416,30.159046 409.179749,29.635551 411.529358,31.159876 
	C413.992340,32.757740 412.773895,34.620903 411.885406,36.329163 
	C410.528778,38.937481 408.975891,41.443699 407.292877,44.297676 
z" />
	<path fill="#ED1A46" opacity="1.000000" stroke="none" d="
M593.341431,60.247894 
	C595.038086,55.041317 596.302979,50.143749 596.010498,44.971458 
	C595.706055,39.586979 593.688843,37.670464 588.664307,39.338680 
	C585.627747,40.346874 583.813965,39.437397 583.224243,37.122124 
	C582.411255,33.930122 585.613342,33.494267 587.661072,33.097301 
	C595.856079,31.508640 602.775146,38.447155 602.934509,48.236172 
	C603.182739,63.481155 597.618347,76.670303 587.516663,87.939835 
	C581.772522,94.348038 575.321472,99.944565 566.887756,102.566734 
	C559.344666,104.911987 551.286072,98.443901 552.583618,91.233521 
	C553.823669,90.895309 554.620239,91.814201 554.992249,92.586418 
	C557.369507,97.521233 560.762939,96.549873 564.291992,94.242371 
	C577.161194,85.827789 588.226562,75.843292 593.341431,60.247894 
z" />
	<path fill="#ED1A46" opacity="1.000000" stroke="none" d="
M355.640259,63.821148 
	C359.664673,53.570759 363.919342,43.876953 369.990936,35.087254 
	C370.640411,34.147064 371.425323,33.301552 372.101807,32.378685 
	C373.748322,30.132582 375.620361,31.171333 377.346771,32.115891 
	C379.426361,33.253689 379.061829,34.741890 378.122162,36.706448 
	C372.352966,48.768101 366.340393,60.722916 361.396057,73.162537 
	C360.295013,75.932671 359.823608,78.811028 359.963013,81.833092 
	C360.097504,84.748215 360.388519,87.000839 364.249298,85.368248 
	C365.825623,84.701675 367.623322,85.837013 367.691498,86.992050 
	C367.795837,88.760109 366.660797,90.083015 364.249451,90.070290 
	C359.087189,90.043030 355.140503,85.917160 353.611633,78.392166 
	C350.959412,80.108223 348.139465,81.158440 344.915894,81.013145 
	C338.156097,80.708466 334.191376,74.201988 336.984711,68.000839 
	C339.094696,63.316654 342.178253,59.466442 346.172394,56.226479 
	C347.955658,54.779919 349.263062,54.600147 350.831909,56.327686 
	C352.439117,58.097500 352.605499,59.872829 350.889130,61.558247 
	C348.754517,63.654346 347.095612,66.064308 345.731476,68.694511 
	C344.768890,70.550446 343.874146,72.441589 342.908234,74.399895 
	C350.875000,75.723289 353.716980,73.307755 355.640259,63.821148 
z" />
	<path fill="#ED1A46" opacity="1.000000" stroke="none" d="
M120.463028,29.210876 
	C125.173859,33.700832 123.928200,37.822350 117.336868,40.667759 
	C116.653152,38.956390 118.787048,37.917259 118.245316,35.822521 
	C112.093384,40.344677 107.722458,46.225895 103.462318,52.112797 
	C95.900192,62.562572 88.868301,73.348114 85.470993,86.026100 
	C84.827187,88.428642 84.113853,91.159462 85.859070,93.122932 
	C87.987183,95.517197 90.463966,93.098640 92.711243,92.596535 
	C94.765060,92.137665 97.251900,89.280663 98.542831,92.477837 
	C99.446419,94.715714 96.377159,95.919922 94.460983,97.185532 
	C89.965965,100.154396 86.092766,98.794075 82.380157,95.845177 
	C77.411804,91.898857 77.092621,86.493835 78.533165,81.034081 
	C82.051796,67.698227 89.536758,56.456192 97.805977,45.643784 
	C102.662994,39.293007 108.260452,33.883045 115.437225,30.251225 
	C116.880402,29.520903 118.331398,28.592993 120.463028,29.210876 
z" />
	<path fill="#ED1A46" opacity="1.000000" stroke="none" d="
M302.395782,70.533630 
	C306.279205,67.295868 309.957489,64.004539 312.226044,59.451515 
	C313.037781,57.822357 313.808167,54.928772 316.294617,56.295601 
	C318.461182,57.486584 320.059601,59.909988 318.603607,62.852539 
	C316.784363,66.529228 315.483276,70.364075 314.790802,74.413994 
	C314.646362,75.258614 313.353119,76.141838 314.835419,76.837791 
	C315.588409,77.191315 316.401642,76.907967 317.140900,76.354889 
	C324.276947,71.016197 329.443817,64.224205 331.896301,55.626057 
	C332.899200,52.109985 331.374481,49.876293 327.362244,49.989475 
	C326.056580,50.026302 324.378815,50.012100 324.539185,48.277691 
	C324.657013,47.003132 326.239746,47.050873 327.437225,46.984829 
	C332.453705,46.708172 337.984039,53.706009 336.924652,59.077152 
	C335.023315,68.717079 329.449646,75.963142 321.737946,81.626877 
	C316.978149,85.122643 311.496948,82.366325 308.126221,75.048775 
	C305.982574,75.810196 305.014160,77.964615 303.274902,79.157059 
	C301.387604,80.451027 299.277039,82.119003 297.021393,80.376083 
	C294.532806,78.453178 292.302551,76.104927 293.259033,72.416145 
	C295.017670,65.633690 298.583832,59.814251 303.196259,54.674873 
	C304.350647,53.388622 306.156525,52.075100 308.389191,53.837242 
	C310.869263,55.794682 309.184082,56.973618 308.130157,58.681286 
	C306.000488,62.132034 303.338257,65.289780 301.960388,69.567688 
	C301.713806,70.135239 301.612732,70.238213 301.612732,70.238213 
	C301.532013,70.392075 301.697418,70.440269 302.395782,70.533630 
z" />
	<path fill="#ED1A46" opacity="1.000000" stroke="none" d="
M270.259644,71.390869 
	C269.467743,73.985405 266.779510,76.934700 272.053436,77.134857 
	C273.112427,77.175049 274.530396,78.271034 273.630035,79.536530 
	C272.544342,81.062485 271.078552,82.602638 268.706207,81.310356 
	C265.399780,79.509285 262.794678,77.229752 262.638702,73.160812 
	C258.189545,73.507996 256.504730,77.588081 253.290527,79.509201 
	C250.195908,81.358849 247.307602,81.832390 244.657959,79.942589 
	C241.574387,77.743286 240.091461,74.771645 241.741714,70.489807 
	C245.198425,61.520874 250.481018,54.394222 259.647308,50.838573 
	C264.149384,49.092186 271.863525,51.712826 274.869873,55.288483 
	C275.948547,56.571419 275.743164,57.385372 275.169739,58.747379 
	C273.467499,62.790619 272.010437,66.937080 270.259644,71.390869 
z" />
	<path fill="#ED1A46" opacity="1.000000" stroke="none" d="
M531.668945,45.706589 
	C530.264099,46.073502 529.620361,46.794579 529.117004,47.695461 
	C528.545593,48.718086 531.690308,50.442013 528.477356,50.980858 
	C526.251648,51.354130 525.221252,49.698662 523.967896,48.425671 
	C522.601624,47.037941 522.656860,45.488052 523.621277,43.918774 
	C526.919067,38.552692 531.768311,35.478603 537.992126,35.087799 
	C541.304138,34.879826 544.679443,34.328316 547.870483,36.853096 
	C552.329224,40.380951 553.553223,45.143684 550.423401,50.049870 
	C547.450562,54.709938 543.195557,58.189934 539.387695,62.076103 
	C536.849487,64.666481 534.788452,67.587547 532.719055,70.539749 
	C531.995361,71.572166 531.985107,74.245422 530.203735,73.325218 
	C528.461121,72.425034 525.709351,71.850517 525.954163,68.596809 
	C526.447144,62.044838 530.779114,57.662258 534.557190,53.046528 
	C537.643616,49.275753 541.838196,46.415489 544.147156,41.295582 
	C539.132690,40.698650 535.539795,43.045502 531.668945,45.706589 
z" />
	<path fill="#ED1A46" opacity="1.000000" stroke="none" d="
M519.120361,81.409225 
	C518.972656,80.064316 518.984680,79.010620 518.998169,77.561798 
	C522.442322,76.388489 525.599304,79.815834 529.491272,77.359856 
	C531.029785,76.389008 533.130615,81.510391 532.273499,84.393784 
	C531.341858,87.527969 526.981934,90.304253 531.315857,94.277321 
	C532.260010,95.142891 529.959412,96.369347 528.831238,95.847984 
	C526.033325,94.555084 522.935364,93.281059 523.010254,89.349075 
	C523.065979,86.420334 522.569214,83.441078 523.842773,80.629074 
	C522.069214,80.244675 521.019409,82.369843 519.120361,81.409225 
z" />
	<path fill="#ED1A46" opacity="1.000000" stroke="none" d="
M436.051697,52.197411 
	C435.878723,54.007404 438.521301,55.847172 436.063660,56.685020 
	C434.445221,57.236794 433.020355,55.358616 432.265503,53.615459 
	C429.847168,48.030594 434.646179,38.530689 440.572906,37.174335 
	C441.864441,36.878765 442.585449,37.128166 443.240479,38.482033 
	C443.966888,39.983467 444.164642,41.007286 443.074860,42.478634 
	C440.759644,45.604515 437.719482,48.192368 436.051697,52.197411 
z" />
	<path fill="#ED1A46" opacity="1.000000" stroke="none" d="
M357.328369,39.180336 
	C359.373840,38.505966 360.750732,35.439644 362.962036,38.022594 
	C365.034912,40.443840 362.914490,41.859982 361.839386,43.914036 
	C359.911987,47.596581 353.867432,49.697865 356.912811,55.523338 
	C357.146118,55.969627 356.822906,57.079987 355.954590,56.807236 
	C354.925568,56.484013 353.795349,55.944775 353.114044,55.151352 
	C350.820923,52.481060 351.306549,45.822422 353.942993,42.623272 
	C354.884857,41.480404 356.011719,40.490028 357.328369,39.180336 
z" />
	<path fill="#ED1A46" opacity="1.000000" stroke="none" d="
M494.860199,63.788631 
	C497.442841,66.215858 495.248901,68.086517 493.701416,69.431854 
	C488.309753,74.119164 481.998016,77.100594 474.927887,78.382591 
	C473.550415,78.632362 472.770447,77.910530 472.117188,76.467789 
	C480.865967,74.570824 488.884003,71.404594 494.860199,63.788631 
z" />
	<path fill="#ED1A46" opacity="1.000000" stroke="none" d="
M473.892975,55.679169 
	C474.500854,56.629871 474.828522,58.092438 473.876434,58.743870 
	C469.453156,61.770329 468.099670,67.050804 464.440277,70.904457 
	C464.463409,64.173157 468.953003,59.963707 473.892975,55.679169 
z" />
	<path fill="#ED1A46" opacity="1.000000" stroke="none" d="
M510.637512,50.106995 
	C509.329987,55.115185 505.153778,56.257465 500.285828,56.957436 
	C502.458221,53.315567 506.404816,51.739063 510.637512,50.106995 
z" />
	<path fill="#ED1A46" opacity="1.000000" stroke="none" d="
M481.645691,51.106529 
	C481.058746,54.631458 478.967407,56.280315 474.890778,55.293945 
	C476.171448,52.824116 478.840912,52.115952 481.645691,51.106529 
z" />
	<path fill="#ED1A46" opacity="1.000000" stroke="none" d="
M497.592255,60.084831 
	C498.595856,60.346149 499.325104,60.861485 498.829620,61.734589 
	C498.195892,62.851311 497.000031,62.713539 495.535339,62.580849 
	C495.879028,61.752747 496.590393,60.981220 497.592255,60.084831 
z" />
	<path fill="#ED1A46" opacity="1.000000" stroke="none" d="
M489.364105,76.074036 
	C490.309937,73.885086 491.212402,74.317337 491.915833,76.809158 
	C491.200470,76.754059 490.443329,76.393578 489.364105,76.074036 
z" />
	<path fill="#ED1A46" opacity="1.000000" stroke="none" d="
M519.889771,52.098190 
	C519.320618,53.176899 518.410583,53.833374 517.182312,52.148834 
	C517.887573,51.933086 518.733337,51.981396 519.889771,52.098190 
z" />
	<path fill="#ED1A46" opacity="1.000000" stroke="none" d="
M512.103455,73.302490 
	C512.870789,73.334801 513.459045,73.734619 512.997681,74.857254 
	C512.199036,74.809593 512.028625,74.261002 512.103455,73.302490 
z" />
	<path fill="#ED1A46" opacity="1.000000" stroke="none" d="
M524.856323,55.736313 
	C524.636047,55.822418 524.450134,55.645878 524.149658,55.311996 
	C524.308838,55.272999 524.594116,55.379337 524.856323,55.736313 
z" />
	<path opacity="1.000000" stroke="none" d="
M198.002228,61.970337 
	C199.698654,59.845947 199.789673,57.237522 202.242340,55.728283 
	C204.491714,54.344143 204.725632,54.480133 205.021667,56.869843 
	C205.854584,63.593349 199.563385,73.965256 193.345688,75.820648 
	C192.784149,75.988220 191.982422,75.909492 191.488617,75.615395 
	C190.732941,75.165337 191.242294,74.498718 191.556458,73.926834 
	C193.678894,70.063278 195.070221,65.798218 198.002228,61.970337 
z" />
	<path fill="#000000" opacity="1.000000" stroke="none" d="
M211.177856,51.035179 
	C213.701126,50.287643 215.838989,49.577896 219.082703,48.501019 
	C216.397079,54.146725 214.136307,58.899303 211.278824,64.906303 
	C211.080780,60.613056 210.630676,57.694756 208.996567,55.299103 
	C207.194550,52.657318 208.985168,51.959583 211.177856,51.035179 
z" />
	<path fill="#000000" opacity="1.000000" stroke="none" d="
M454.771790,61.725296 
	C449.574249,65.210663 446.125488,70.431671 440.371033,72.652794 
	C443.378906,66.752106 447.290283,61.804131 453.391510,58.882732 
	C454.460388,58.370911 455.679535,57.380402 456.495270,58.390285 
	C457.731201,59.920429 455.597717,60.448555 454.771790,61.725296 
z" />
	<path fill="#000000" opacity="1.000000" stroke="none" d="
M512.404297,56.260445 
	C513.661011,56.081242 514.598877,56.081242 515.791748,56.081242 
	C512.151184,61.271122 508.135681,65.584427 503.854889,69.667641 
	C502.863037,70.613724 501.672852,71.744621 500.481720,70.578499 
	C499.241302,69.364128 501.097656,68.708267 501.611969,67.833794 
	C504.284698,63.289268 507.997711,59.689701 512.404297,56.260445 
z" />
	<path fill="#000000" opacity="1.000000" stroke="none" d="
M477.497314,64.708603 
	C476.874390,63.311054 477.746124,62.653961 478.473053,62.064308 
	C479.921234,60.889603 480.723938,58.580631 483.199554,59.152073 
	C483.496246,59.220547 483.935638,59.988560 483.835114,60.250557 
	C483.065094,62.257347 482.003387,64.068382 479.713684,64.661583 
	C479.100220,64.820518 478.447632,64.828613 477.497314,64.708603 
z" />
	<path fill="#000000" opacity="1.000000" stroke="none" d="
M382.285583,65.219315 
	C379.184326,68.316437 376.513275,71.391495 372.399017,73.103050 
	C374.594940,65.660194 382.879700,58.436867 389.103607,58.515053 
	C387.699799,61.613655 385.148254,63.318493 382.285583,65.219315 
z" />
	<path fill="#000000" opacity="1.000000" stroke="none" d="
M302.491638,70.494911 
	C302.234283,71.009804 302.044983,71.919426 301.278961,71.453430 
	C301.114655,71.353500 301.340759,70.611778 301.651459,70.047501 
	C302.044159,70.054657 302.172424,70.180016 302.491638,70.494911 
z" />
	<path fill="#000000" opacity="1.000000" stroke="none" d="
M264.673889,57.817249 
	C260.306824,63.502937 255.822830,68.540291 248.950256,73.106216 
	C252.040955,65.887802 256.578430,61.705120 261.064911,57.538071 
	C262.985931,55.753841 264.305756,55.980934 264.673889,57.817249 
z" />
</svg>
