<svg version="1.1" id="Layer_1" xmlns="http://www.w3.org/2000/svg" xmlns:xlink="http://www.w3.org/1999/xlink" x="0px" y="0px" width="100%" viewBox="0 0 679 119" enable-background="new 0 0 679 119" xml:space="preserve">
	<path fill="none" opacity="1.000000" stroke="none" d="
M501.000000,120.000000 
	C335.500000,120.000000 170.499985,119.985176 5.500062,120.093857 
	C1.750667,120.096329 0.885289,119.251686 0.901773,115.499565 
	C1.064314,78.500282 1.044642,41.499844 0.915873,4.500293 
	C0.905489,1.516634 1.518338,0.918138 4.500032,0.919312 
	C228.500000,1.007537 452.500000,1.007537 676.499939,0.919312 
	C679.481689,0.918138 680.094360,1.516657 680.084106,4.500289 
	C679.955688,41.833179 679.955750,79.166817 680.084106,116.499710 
	C680.094360,119.483345 679.482544,120.088425 676.499817,120.082733 
	C618.166748,119.971382 559.833313,120.000000 501.000000,120.000000 
z" />
	<path fill="#ED1A46" opacity="1.000000" stroke="none" d="
M267.998688,57.000214 
	C273.072723,52.749340 278.020142,49.018467 284.734253,49.015415 
	C287.576141,49.014122 297.069336,55.340382 297.861328,57.817989 
	C298.934601,61.175484 296.716003,63.933769 295.562927,66.661743 
	C289.904846,80.047905 283.797516,93.280106 274.598785,104.680267 
	C269.575378,110.905899 263.066559,115.579071 254.561508,113.823738 
	C247.097061,112.283180 241.239014,107.924026 238.667526,100.209450 
	C238.412628,99.444771 237.963242,98.620872 238.065140,97.888603 
	C238.246231,96.587280 237.025452,94.650490 239.188171,94.115082 
	C240.938385,93.681801 241.803940,95.258545 242.707245,96.403252 
	C243.204285,97.033119 243.525970,97.823730 243.828842,98.581017 
	C247.253662,107.144180 253.455154,108.486443 260.286987,102.231911 
	C266.143402,96.870331 271.090729,90.820473 275.015900,83.636559 
	C273.130157,82.551620 272.003632,84.168106 270.706604,84.726570 
	C267.764008,85.993584 264.817719,87.263077 262.052948,84.540001 
	C258.953125,81.486900 256.023834,78.214668 257.327332,73.349861 
	C259.061676,66.877167 262.720612,61.560535 267.998688,57.000214 
z" />
	<path fill="#ED1A46" opacity="1.000000" stroke="none" d="
M366.024719,79.444901 
	C366.193634,67.891571 373.066132,60.610092 380.865845,54.119926 
	C385.395630,50.350670 391.167633,46.395477 396.827728,48.334446 
	C404.185730,50.855061 404.659363,45.920437 407.064178,41.998203 
	C412.015167,33.923218 416.494476,25.543697 423.490479,18.822777 
	C426.367493,16.058908 428.017487,17.640701 430.223175,19.041157 
	C432.607635,20.555103 432.341003,22.337561 431.127380,24.529833 
	C425.827789,34.103027 419.608734,43.066223 413.518555,52.141685 
	C405.038666,64.778236 398.515594,78.488213 394.153534,93.113014 
	C393.471680,95.399117 394.058167,98.063522 394.058167,100.647324 
	C389.144623,99.020203 386.255005,94.860245 387.118011,90.737816 
	C387.988831,86.578125 389.029785,82.454063 390.139069,77.702278 
	C372.470154,89.391792 373.368408,87.053482 366.024719,79.444901 
z" />
	<path fill="#ED1A46" opacity="1.000000" stroke="none" d="
M628.940308,20.017210 
	C643.229309,23.691561 647.138245,35.665989 645.893494,48.094456 
	C644.833557,58.677593 642.263733,69.052078 636.848145,78.318184 
	C627.595032,94.150406 616.102844,107.968269 598.118835,114.247993 
	C588.195496,117.713020 580.981323,112.139206 577.297729,103.481087 
	C576.743713,102.178932 576.016174,100.031540 578.040161,99.168427 
	C579.720703,98.451767 580.760986,100.091286 581.612000,101.261932 
	C585.926880,107.197723 586.540588,107.727783 592.824585,103.948967 
	C614.727539,90.777718 630.858643,72.970154 635.752258,47.034695 
	C636.674133,42.149101 636.695923,36.837135 635.344604,31.756327 
	C634.586304,28.905285 633.480103,27.473967 630.222656,28.791744 
	C628.300476,29.569357 626.087097,29.646160 623.995789,29.982473 
	C620.952576,30.471855 619.135071,28.402380 618.213440,26.202356 
	C617.124146,23.602451 619.931519,22.963697 621.591492,22.230179 
	C623.799927,21.254309 626.209839,20.734354 628.940308,20.017210 
z" />
	<path fill="#ED1A46" opacity="1.000000" stroke="none" d="
M534.769836,80.511345 
	C537.135559,76.588120 536.008240,72.371964 537.643555,68.475510 
	C540.713806,61.159996 544.879150,54.627491 549.398254,48.249802 
	C551.494446,45.291462 553.909729,43.440739 557.535400,46.735870 
	C560.893250,49.787601 558.725464,52.801376 557.123657,54.790417 
	C551.645874,61.592339 548.260864,69.362061 544.389587,78.461388 
	C552.373840,75.098839 557.819641,70.320602 562.494202,64.805527 
	C566.171082,60.467487 569.084900,55.503029 571.430481,50.232368 
	C572.308838,48.258755 572.685608,44.848248 576.319580,46.231049 
	C579.597595,47.478397 581.662720,52.051678 580.464172,55.038982 
	C576.267639,65.498024 571.538635,75.653038 565.517639,85.261093 
	C561.762024,91.254112 557.770264,97.085770 553.044067,102.187363 
	C546.919556,108.798317 540.325806,109.133972 531.910767,103.137985 
	C528.499939,100.707664 524.943665,97.739929 523.278381,93.139038 
	C526.398560,92.868233 527.941284,94.874092 529.906860,96.325455 
	C536.852783,101.454185 539.258179,100.601837 543.426270,96.165031 
	C546.228271,93.182365 548.806335,90.105553 551.032349,86.098213 
	C545.483337,89.018715 541.734741,85.799080 537.487244,83.031319 
	C535.211731,83.534325 534.638306,82.472672 534.769836,80.511345 
z" />
	<path fill="#ED1A46" opacity="1.000000" stroke="none" d="
M316.705566,42.412827 
	C319.193573,42.182507 321.386932,42.198349 323.811035,42.549503 
	C327.356262,45.553143 330.822571,46.012409 334.743164,43.384781 
	C336.990997,43.111107 338.981659,43.012943 340.972565,43.007675 
	C348.066162,42.988895 349.124176,43.876625 350.673401,50.963131 
	C354.666443,52.671448 358.718964,51.001507 362.747009,52.754501 
	C368.906128,57.976303 369.802063,62.056259 365.864044,68.259560 
	C360.289642,77.040512 352.572998,82.809181 341.522583,84.024918 
	C340.909790,84.165352 340.705017,84.288368 340.193054,84.227028 
	C338.462006,83.803589 336.843201,84.498459 335.312866,82.995728 
	C334.816620,82.721092 334.656830,82.608841 334.331848,82.254684 
	C332.377747,79.919441 331.121552,77.516090 330.122681,74.597702 
	C332.710846,70.398430 332.725159,65.617180 335.064087,61.345097 
	C335.266357,60.781406 335.382111,60.569252 335.743988,60.093590 
	C338.013977,56.880131 341.940826,55.569214 342.750366,51.509132 
	C339.089355,49.596737 337.126221,51.127373 336.594299,54.474777 
	C336.100220,57.583870 334.919159,60.376652 333.533386,63.504272 
	C332.923889,65.941132 330.558380,66.084732 329.261597,67.842972 
	C324.348358,76.756615 317.213623,82.756462 308.369293,86.719872 
	C306.717468,87.460114 304.468536,87.605705 302.334961,86.013100 
	C301.816620,85.721092 301.656830,85.608841 301.331848,85.254684 
	C299.971710,83.000427 297.204834,81.775391 298.098541,78.375542 
	C301.775421,70.529541 305.293335,63.020901 310.181610,56.239746 
	C311.266144,54.735222 311.823364,52.614830 308.311768,52.654991 
	C307.546631,53.170567 307.093414,53.507801 306.372864,53.947742 
	C304.485718,54.629158 303.040771,53.903034 301.222992,53.241837 
	C299.761078,52.557159 300.071777,51.553581 300.098999,50.338768 
	C305.421082,47.198795 310.993347,45.100048 316.705566,42.412827 
z" />
	<path fill="#ED1A46" opacity="1.000000" stroke="none" d="
M55.675323,100.710991 
	C58.353634,100.184494 61.613556,97.905670 62.694195,101.142929 
	C63.671696,104.071220 60.590321,105.697266 57.965481,107.073380 
	C52.109638,110.143356 46.636387,109.885162 41.421246,105.880280 
	C35.168316,101.078415 33.774338,94.408913 35.415260,87.248383 
	C39.398975,69.864578 48.836697,55.187946 59.376293,41.180450 
	C66.604424,31.574009 74.530815,22.642658 85.576591,17.129955 
	C87.426498,16.206707 89.313065,15.660882 91.282272,16.060768 
	C93.561485,16.523598 95.767845,17.763363 96.753654,19.765705 
	C97.772591,21.835329 96.554482,24.143900 94.871407,25.484194 
	C92.496872,27.375122 91.998009,31.133802 88.507256,31.970428 
	C87.042580,29.320663 89.990356,27.710545 89.804199,23.700399 
	C85.293076,28.214819 81.339409,31.549541 78.133911,35.492508 
	C67.293106,48.827396 57.517921,62.887669 50.140091,78.506233 
	C47.410976,84.283661 45.569527,90.333961 44.217915,96.524437 
	C43.160797,101.366104 46.332771,103.892906 51.201008,102.366280 
	C52.595337,101.929031 53.963528,101.408440 55.675323,100.710991 
z" />
	<path fill="#ED1A46" opacity="1.000000" stroke="none" d="
M461.815369,86.317276 
	C460.497894,84.991760 458.916473,84.124344 458.458160,82.852272 
	C456.206207,76.602097 453.907684,78.410233 450.230621,81.926384 
	C447.966461,84.091469 445.080322,87.719894 440.873688,85.272224 
	C436.630859,82.803505 434.324493,75.480186 436.318359,70.323433 
	C439.164978,62.961090 442.862579,56.074757 448.822754,50.622322 
	C450.996552,48.633728 452.770996,46.558495 455.911682,49.302975 
	C459.250610,52.220692 456.447815,54.461048 455.042145,56.277470 
	C451.014191,61.482353 448.020630,67.229233 444.853790,73.118980 
	C447.953094,72.517906 451.338074,70.152206 454.244263,66.175400 
	C457.027252,62.367130 459.614288,58.406933 462.118134,54.407509 
	C463.160431,52.742603 465.408844,50.874393 466.014862,52.293240 
	C467.067291,54.757278 471.811279,54.219585 470.361115,58.283932 
	C468.398163,63.785419 465.635162,68.985725 464.490631,74.813812 
	C464.094849,76.829262 463.997070,78.688713 464.252106,80.669868 
	C474.259521,76.883255 486.832428,59.378933 487.086670,49.528049 
	C487.193329,45.396126 485.698547,43.801189 481.726257,43.968861 
	C480.000458,44.041710 477.331299,44.549324 477.310455,42.123936 
	C477.285767,39.249832 480.134644,40.043579 481.971985,40.025536 
	C489.907990,39.947598 495.787964,48.676353 493.788391,57.436218 
	C490.873901,70.204132 483.578125,79.861397 472.637573,86.783508 
	C469.269958,88.914215 465.522064,90.149727 461.815369,86.317276 
z" />
	<path fill="#ED1A46" opacity="1.000000" stroke="none" d="
M194.458679,85.971146 
	C186.746475,80.365807 184.757217,78.733528 188.201706,69.635284 
	C192.417099,58.500740 199.837860,49.543797 211.381866,44.890499 
	C215.265701,43.324963 219.020309,43.364845 222.541977,46.022720 
	C224.827225,47.747475 227.983292,46.056252 230.570969,49.336876 
	C232.831116,52.202251 233.421188,54.254795 232.419312,57.025829 
	C230.041855,63.601536 227.510788,70.134018 224.709259,76.538498 
	C223.453766,79.408676 224.176544,80.154129 226.962616,80.002899 
	C229.162308,79.883507 231.029190,80.212196 230.983078,83.072800 
	C230.936188,85.980309 228.935623,85.960419 226.819580,86.018944 
	C221.068649,86.177994 217.425919,83.950378 216.202576,77.944611 
	C215.177811,72.913742 213.788147,74.996765 211.593506,76.869026 
	C208.480286,79.524940 205.210754,82.001083 201.958160,84.488884 
	C199.859207,86.094299 197.375565,86.175072 194.458679,85.971146 
z" />
	<path fill="#ED1A46" opacity="1.000000" stroke="none" d="
M534.669250,80.100769 
	C535.538635,81.006424 536.076721,81.846184 536.860596,82.867828 
	C535.575317,85.980301 530.521851,87.407227 527.916992,85.222145 
	C525.261719,82.994789 522.172607,80.820366 522.099487,76.371208 
	C523.059570,74.118401 522.649109,73.196480 520.227844,73.866287 
	C516.716553,78.711227 512.035889,81.785049 507.399841,84.748955 
	C500.935425,88.881798 493.265106,83.434143 493.098389,74.400497 
	C495.416718,69.548737 497.527374,65.026672 499.911316,60.308907 
	C501.126221,56.013729 504.882202,54.196583 507.583252,51.093483 
	C511.682983,48.758469 515.895569,47.319569 519.718384,44.408588 
	C521.865723,44.185444 523.731201,44.204224 525.819275,44.553925 
	C526.634155,45.820709 527.641907,46.157867 528.825562,46.784679 
	C529.094788,46.939762 529.031616,46.963081 529.043640,46.931633 
	C530.438599,48.925098 532.822510,47.694839 534.831909,48.772537 
	C535.451599,48.985546 535.714417,49.144768 535.970764,49.658516 
	C536.606323,50.763035 537.531921,51.141460 538.619141,51.796700 
	C539.802673,57.754253 535.979187,62.108532 534.428345,67.127220 
	C533.121216,71.357330 530.016479,75.008034 530.675903,79.966370 
	C531.458496,80.539757 531.957153,80.721466 532.771362,80.329063 
	C533.446106,80.122726 533.892090,80.078796 534.669250,80.100769 
z" />
	<path fill="#ED1A46" opacity="1.000000" stroke="none" d="
M117.555557,55.300133 
	C117.436241,59.726357 113.512993,61.320236 111.887268,64.497612 
	C109.636658,68.896286 106.120338,72.658195 105.691666,77.984917 
	C112.228134,79.776871 119.507195,77.170982 122.633369,71.948128 
	C127.059479,64.553497 132.003937,57.454395 135.637192,49.602016 
	C136.437317,47.872738 137.433838,46.830734 139.789215,47.756840 
	C144.126251,50.376526 140.477676,52.736935 140.082199,55.535458 
	C142.543243,57.293159 143.986237,55.807610 145.261795,53.798012 
	C145.171387,53.492996 145.250610,53.248379 145.373016,53.209068 
	C146.964035,52.937290 148.279022,52.465984 149.517715,51.529438 
	C152.432999,49.325256 155.480942,48.878822 158.830994,51.732910 
	C160.743240,56.542187 157.305222,59.773338 156.001892,63.506889 
	C154.365265,68.195175 152.058426,72.649498 150.072815,77.576813 
	C154.672928,79.696632 159.009201,77.950409 163.758743,72.214264 
	C163.939514,71.905350 163.969589,71.969826 163.937363,71.954765 
	C165.839981,71.052872 167.767349,70.094582 170.377716,71.752022 
	C166.750549,77.521614 161.782547,81.927483 155.425827,84.063301 
	C147.609772,86.689438 145.430267,85.125061 142.124191,76.602982 
	C143.917969,73.758148 144.100159,70.745193 145.024216,68.007637 
	C145.683609,66.054176 144.886230,64.756897 142.259857,65.852158 
	C136.319031,71.384148 130.318420,76.381454 125.421631,82.901901 
	C124.100082,83.666275 123.042809,83.962097 121.524330,83.231598 
	C119.785500,80.782715 118.271812,82.770752 117.436462,83.300972 
	C115.040230,84.821892 112.559044,85.163773 109.464073,85.063171 
	C108.584518,85.065613 108.119171,85.047348 107.304451,85.084465 
	C100.829781,84.836861 96.838760,80.695740 96.098465,73.388077 
	C98.092804,69.218346 100.146278,65.501541 101.914566,61.307816 
	C103.324158,56.686752 107.061569,54.279457 110.201370,51.630791 
	C112.190956,49.952427 115.248070,50.329002 116.682892,53.975109 
	C117.151108,54.409050 117.294914,54.651440 117.555557,55.300133 
z" />
	<path fill="#ED1A46" opacity="1.000000" stroke="none" d="
M124.761429,51.517540 
	C121.614784,53.349812 118.161972,51.251114 117.105568,47.131004 
	C115.253357,39.907143 121.824471,28.852301 128.932632,26.432085 
	C132.101089,25.353273 131.741364,28.471790 133.271957,29.292397 
	C134.771545,30.096382 134.232529,32.134125 132.953751,33.545055 
	C130.193008,36.591091 127.257401,39.518272 124.834747,42.818146 
	C122.997459,45.320686 120.910576,48.309742 124.761429,51.517540 
z" />
	<path fill="#ED1A46" opacity="1.000000" stroke="none" d="
M139.965256,47.644623 
	C138.569366,48.111599 137.374039,48.480904 136.644867,50.219391 
	C132.957367,59.011284 127.275322,66.684380 122.503777,74.869087 
	C120.130539,78.939941 111.792633,80.760536 106.204010,78.447754 
	C110.236160,77.780205 114.237053,76.485985 118.199089,75.029503 
	C121.314186,73.884361 121.695549,70.650116 123.185349,68.330284 
	C127.298347,61.925743 131.046295,55.287773 135.088608,48.836105 
	C136.089691,47.238361 137.188904,44.472012 139.965256,47.644623 
z" />
	<path fill="#ED1A46" opacity="1.000000" stroke="none" d="
M308.351379,52.913296 
	C310.168915,50.286236 311.344727,51.219955 311.818420,54.000507 
	C312.050293,55.361626 311.482117,56.629044 310.749237,57.772839 
	C306.971954,63.667862 303.359894,69.649574 300.575775,76.101189 
	C300.282043,76.781876 299.399902,77.208649 298.478729,77.876633 
	C298.876770,70.184441 303.890045,64.387581 307.359100,57.835823 
	C308.014435,56.598125 311.693207,55.442879 308.351379,52.913296 
z" />
	<path fill="#ED1A46" opacity="1.000000" stroke="none" d="
M335.810516,61.474392 
	C336.693359,66.663254 333.524475,70.133415 330.506683,74.011368 
	C328.594604,72.245811 332.999847,69.902023 329.407166,68.080971 
	C329.161469,66.233551 329.448578,64.429253 331.539551,63.159721 
	C333.350403,63.126484 333.972595,61.253025 335.810516,61.474392 
z" />
	<path fill="#ED1A46" opacity="1.000000" stroke="none" d="
M316.611267,42.110748 
	C312.625092,46.770870 307.122894,49.063019 300.560547,49.994614 
	C303.033264,45.483536 308.083435,44.808369 312.498169,43.039433 
	C313.681122,42.565434 314.977783,42.375286 316.611267,42.110748 
z" />
	<path fill="#ED1A46" opacity="1.000000" stroke="none" d="
M163.620789,72.052979 
	C162.585693,78.315987 155.199112,81.801262 150.050812,78.216446 
	C155.459930,78.227776 159.068527,74.496811 163.620789,72.052979 
z" />
	<path fill="#ED1A46" opacity="1.000000" stroke="none" d="
M142.425720,66.086235 
	C142.582550,64.342712 143.272476,62.142292 145.491043,62.833500 
	C147.715973,63.526691 147.112000,65.952515 146.488510,67.536911 
	C145.376999,70.361435 145.427643,73.741165 142.471909,76.043182 
	C141.607025,73.501930 143.159958,71.225357 143.692551,68.743629 
	C143.932449,67.625687 144.510406,66.495560 142.425720,66.086235 
z" />
	<path fill="#ED1A46" opacity="1.000000" stroke="none" d="
M499.570740,60.106392 
	C500.673737,60.324348 501.556122,61.028111 501.066528,61.778744 
	C498.512360,65.695000 497.239197,70.390793 493.478394,73.876869 
	C493.191284,68.528641 496.329865,64.437195 499.570740,60.106392 
z" />
	<path fill="#ED1A46" opacity="1.000000" stroke="none" d="
M159.090240,51.648376 
	C154.553467,49.516068 150.667725,53.770077 145.887726,53.287403 
	C146.296753,51.848438 147.836853,51.431648 148.873596,50.480759 
	C152.645523,47.021194 155.982712,46.572552 159.090240,51.648376 
z" />
	<path fill="#ED1A46" opacity="1.000000" stroke="none" d="
M101.569992,61.107182 
	C102.690216,61.330448 103.563965,62.041710 103.057281,62.814705 
	C100.908752,66.092430 99.964844,70.135338 96.477432,72.877533 
	C96.003853,68.278824 98.667198,64.782486 101.569992,61.107182 
z" />
	<path fill="#ED1A46" opacity="1.000000" stroke="none" d="
M519.626587,44.107666 
	C517.979004,49.344322 513.238464,49.992069 508.286926,50.957352 
	C510.699371,47.050053 514.925842,45.466675 519.626587,44.107666 
z" />
	<path fill="#ED1A46" opacity="1.000000" stroke="none" d="
M362.942261,52.620487 
	C359.229767,52.545143 355.137848,54.139404 351.228638,51.460037 
	C355.020691,50.515385 359.083618,49.415951 362.942261,52.620487 
z" />
	<path fill="#ED1A46" opacity="1.000000" stroke="none" d="
M334.598267,43.113503 
	C331.864471,46.945087 328.444763,47.068199 324.191345,43.217613 
	C327.419739,43.342823 330.775024,45.109596 334.598267,43.113503 
z" />
	<path fill="#ED1A46" opacity="1.000000" stroke="none" d="
M170.947617,71.868958 
	C168.907181,72.122368 166.981033,72.051010 164.480011,71.959679 
	C164.796524,70.294617 166.247055,69.336082 167.880432,68.524559 
	C168.926071,68.005043 169.580002,66.227631 171.123672,67.697884 
	C172.497482,69.006371 172.184555,70.279839 170.947617,71.868958 
z" />
	<path fill="#ED1A46" opacity="1.000000" stroke="none" d="
M535.055908,48.595184 
	C532.820862,49.910439 530.721191,50.097012 529.181274,47.208458 
	C530.897583,47.967449 533.873901,43.985722 535.055908,48.595184 
z" />
	<path fill="#ED1A46" opacity="1.000000" stroke="none" d="
M144.904541,53.671967 
	C145.366776,57.923973 143.080475,57.917938 140.029694,56.179832 
	C142.178452,56.465317 142.768570,53.776344 144.904541,53.671967 
z" />
	<path fill="#ED1A46" opacity="1.000000" stroke="none" d="
M520.387634,74.078285 
	C520.472412,73.147087 521.068970,72.195595 522.246033,72.867111 
	C523.421448,73.537689 523.786499,74.596046 522.390991,75.855896 
	C521.916870,75.179947 522.122314,74.027130 520.387634,74.078285 
z" />
	<path fill="#ED1A46" opacity="1.000000" stroke="none" d="
M301.020325,53.339432 
	C302.388885,53.284584 303.892212,53.526653 305.750549,53.909584 
	C304.163757,57.398880 302.720398,54.788891 301.020325,53.339432 
z" />
	<path fill="#ED1A46" opacity="1.000000" stroke="none" d="
M121.195694,83.325172 
	C122.219460,83.008827 123.272247,83.018394 124.719803,83.035172 
	C124.073479,84.878189 122.892647,85.820999 121.195694,83.325172 
z" />
	<path fill="#ED1A46" opacity="1.000000" stroke="none" d="
M538.805969,51.676704 
	C537.768738,51.842728 536.818298,51.497601 536.168213,50.168701 
	C537.220703,49.877071 538.100220,50.427345 538.805969,51.676704 
z" />
	<path fill="#ED1A46" opacity="1.000000" stroke="none" d="
M528.960083,46.640854 
	C527.969177,46.834625 526.940247,46.547653 526.187012,45.177357 
	C527.234802,44.864128 528.101379,45.466896 528.960083,46.640854 
z" />
	<path fill="#ED1A46" opacity="1.000000" stroke="none" d="
M532.669006,80.100761 
	C532.545715,80.997810 532.033569,81.551628 531.098022,80.354492 
	C531.446045,80.122719 531.891968,80.078789 532.669006,80.100761 
z" />
	<path fill="#ED1A46" opacity="1.000000" stroke="none" d="
M107.077286,85.378700 
	C107.522781,85.033066 108.089493,84.953323 108.852615,84.990356 
	C108.654152,86.050560 108.000031,86.101334 107.077286,85.378700 
z" />
	<path fill="#ED1A46" opacity="1.000000" stroke="none" d="
M117.798424,55.451126 
	C117.557472,55.451557 117.442558,55.196690 117.167473,54.554241 
	C117.765106,54.106838 117.937531,54.568676 117.798424,55.451126 
z" />
	<path fill="#ED1A46" opacity="1.000000" stroke="none" d="
M334.143616,82.263474 
	C334.363953,82.177383 334.549835,82.353973 334.850342,82.687950 
	C334.691132,82.726944 334.405884,82.620552 334.143616,82.263474 
z" />
	<path fill="#ED1A46" opacity="1.000000" stroke="none" d="
M339.985352,84.283524 
	C340.090607,84.038933 340.295380,84.035194 340.807343,84.036896 
	C340.894470,84.466057 340.762146,85.077225 339.985352,84.283524 
z" />
	<path fill="#ED1A46" opacity="1.000000" stroke="none" d="
M301.143616,85.263466 
	C301.363953,85.177383 301.549835,85.353973 301.850342,85.687943 
	C301.691132,85.726936 301.405884,85.620544 301.143616,85.263466 
z" />
	<path opacity="1.000000" stroke="none" d="
M278.230682,66.270401 
	C274.828674,68.145233 273.715637,72.565033 269.053894,73.176399 
	C272.598602,67.973969 276.204315,63.767242 281.604706,60.701740 
	C282.093750,63.764904 279.501953,64.423843 278.230682,66.270401 
z" />
	<path opacity="1.000000" stroke="none" d="
M386.343048,68.276482 
	C383.288635,71.153717 380.753540,74.163589 376.388916,75.281059 
	C380.264038,65.322754 391.926514,54.317123 401.401520,54.243046 
	C396.016815,59.015934 392.104309,64.320969 386.343048,68.276482 
z" />
	<path opacity="1.000000" stroke="none" d="
M337.353729,77.385956 
	C334.777832,75.809708 337.106018,74.650330 337.247589,73.423691 
	C337.350830,72.529289 338.134766,71.718430 338.595123,70.859535 
	C345.105438,58.712318 346.918610,57.302933 361.917664,58.644218 
	C362.537323,62.696339 360.928772,65.178864 357.208893,66.761742 
	C355.985931,67.747108 355.086304,68.536728 354.071716,69.606339 
	C349.833557,75.181534 344.688385,78.325508 337.353729,77.385956 
z" />
	<path opacity="1.000000" stroke="none" d="
M308.709137,71.691177 
	C311.334320,65.622154 315.148621,60.685215 318.294128,55.358192 
	C318.623810,54.799797 319.098236,54.224297 319.650391,53.917603 
	C322.038635,52.591042 324.750031,49.709457 327.125183,51.367077 
	C329.672760,53.145031 327.021606,56.109688 326.130432,58.387699 
	C323.054016,66.251488 316.233093,71.023842 310.519867,76.672951 
	C309.690857,77.492676 307.553772,79.036591 306.642059,77.593964 
	C305.375031,75.589203 308.023712,73.966965 308.709137,71.691177 
z" />
	
	<path fill="#ED1A46" opacity="1.000000" stroke="none" d="
M337.216034,77.452629 
	C343.271210,76.784615 348.265839,73.418083 353.637390,70.036209 
	C352.556213,76.484825 343.958527,80.570320 337.216034,77.452629 
z" />
	<path fill="#ED1A46" opacity="1.000000" stroke="none" d="
M336.548218,60.558830 
	C339.064941,56.873775 341.961090,53.248974 345.011963,49.312706 
	C345.906189,49.424614 346.559326,49.983761 346.469543,50.895027 
	C346.225494,53.371330 339.727539,59.940445 336.548218,60.558830 
z" />
	<path fill="#ED1A46" opacity="1.000000" stroke="none" d="
M357.267761,66.947823 
	C358.993958,64.823158 360.446198,62.243504 362.011108,59.318012 
	C364.315186,62.964890 362.804779,65.619011 357.267761,66.947823 
z" />
	<path opacity="1.000000" stroke="none" d="
M198.653427,74.694550 
	C197.608994,74.879707 196.759430,74.469604 197.170837,73.806496 
	C202.579742,65.088402 208.190979,56.527985 217.762619,51.680542 
	C218.323669,51.396408 218.945724,51.200905 219.561935,51.071602 
	C219.848755,51.011414 220.189590,51.208759 220.793579,51.362656 
	C214.546448,60.168530 207.425644,67.958801 198.653427,74.694550 
z" />
	<path opacity="1.000000" stroke="none" d="
M520.733521,59.639877 
	C515.414612,64.728157 511.117676,70.450745 504.767914,74.187668 
	C504.878235,67.176765 518.499451,52.798222 526.389160,51.157532 
	C525.809753,54.775993 522.224121,56.310371 520.733521,59.639877 
z" />
</svg>
