<svg version="1.1" id="Layer_1" xmlns="http://www.w3.org/2000/svg" xmlns:xlink="http://www.w3.org/1999/xlink" x="0px" y="0px"
	 width="100%" viewBox="0 0 679 119" enable-background="new 0 0 679 119" xml:space="preserve">
<path fill="#000000" opacity="1.000000" stroke="none" 
	d="
M497.000000,120.000000 
	C332.833344,120.000000 169.166656,119.985054 5.500062,120.093872 
	C1.750663,120.096359 0.885289,119.251686 0.901773,115.499565 
	C1.064314,78.500282 1.044642,41.499844 0.915873,4.500293 
	C0.905489,1.516634 1.518338,0.918138 4.500032,0.919312 
	C228.500000,1.007537 452.500000,1.007537 676.499939,0.919312 
	C679.481689,0.918138 680.094360,1.516657 680.084106,4.500289 
	C679.955688,41.833179 679.955750,79.166817 680.084106,116.499710 
	C680.094360,119.483345 679.482483,120.088203 676.499817,120.082672 
	C616.833374,119.972015 557.166687,120.000000 497.000000,120.000000 
z"/>
<path fill="#ED1A46" opacity="1.000000" stroke="none" 
	d="
M190.001740,90.938560 
	C190.152817,92.465111 189.472275,93.941002 190.523529,94.609131 
	C191.844025,95.448395 192.388412,93.706039 193.333359,93.199677 
	C194.891922,92.364502 196.282394,89.813789 198.317596,91.970947 
	C200.160873,93.924690 198.255341,95.755211 197.168732,97.189751 
	C195.587479,99.277313 193.514938,101.568085 190.621460,100.737320 
	C186.893372,99.666924 184.486008,96.589622 184.113907,92.862007 
	C183.467560,86.387123 183.577927,79.875343 185.904282,73.582428 
	C186.246338,72.657150 187.624786,71.476212 186.565582,70.489510 
	C185.546799,69.540459 184.170959,70.060013 182.842789,70.531822 
	C180.093689,71.508392 177.056931,71.829735 174.489914,73.119843 
	C172.021683,74.360306 168.520569,75.276550 169.791016,79.693596 
	C170.282745,81.403259 160.791153,91.525223 158.845917,91.952942 
	C156.046326,92.568520 152.703735,89.331871 153.063065,86.104057 
	C153.238937,84.524185 153.999786,83.009430 154.532532,81.351021 
	C153.181747,79.770813 149.582199,84.102005 148.984985,79.469765 
	C148.518188,75.848953 150.710129,73.977531 153.473770,73.301819 
	C166.427383,70.134636 172.194641,58.800735 180.409378,50.209351 
	C186.624161,43.709606 193.096161,37.456127 199.425293,31.064943 
	C200.193787,30.288914 201.134781,29.653425 202.061981,30.057949 
	C206.791336,32.121296 208.400986,27.991741 210.604111,25.582100 
	C211.663284,24.423634 212.423080,22.760628 213.746445,21.864107 
	C215.107254,20.942223 215.624603,17.664633 218.377563,19.880146 
	C220.694366,21.744642 220.227966,23.833458 218.988953,26.039530 
	C215.389587,32.448318 211.778763,38.850887 208.220947,45.282726 
	C206.242416,48.859562 204.311508,52.464733 202.446854,56.102104 
	C199.734955,61.392231 199.759293,61.423336 204.258301,64.497734 
	C205.687698,65.474510 206.487228,64.966652 207.280273,63.441200 
	C208.708389,60.694225 210.242935,57.952011 212.130417,55.515690 
	C213.078247,54.292282 212.865463,51.207886 216.161224,52.540997 
	C219.188904,53.765663 217.499619,55.957714 217.675171,57.832344 
	C220.762589,58.406940 221.773956,55.354420 223.905228,54.317310 
	C225.827301,53.382000 227.283371,52.340904 229.256638,53.780449 
	C231.358109,55.313511 231.506104,57.500988 230.675644,59.587841 
	C228.576645,64.862511 226.239578,70.042435 223.745895,75.846909 
	C227.075546,75.175690 229.127457,74.434921 230.528107,71.202827 
	C234.099106,62.962452 239.696304,56.513737 248.695358,53.621422 
	C250.194916,53.139454 251.829666,52.586555 252.999481,53.108940 
	C256.911743,54.855972 258.205414,52.677662 259.820923,49.702354 
	C263.168304,43.537411 266.766998,37.490875 271.372162,32.129066 
	C273.094177,30.124119 274.436371,29.517296 277.172760,31.359108 
	C280.169098,33.375881 278.644379,34.984310 277.683655,36.606068 
	C274.440857,42.080128 271.297150,47.657375 267.541199,52.773506 
	C260.197388,62.776787 255.196167,73.881462 250.980469,85.432968 
	C250.244644,87.449280 249.598755,89.369232 251.239624,91.511833 
	C246.318741,90.643692 245.461319,89.060013 246.033249,82.419891 
	C246.128479,81.314110 246.885757,80.225273 246.825302,79.157578 
	C246.766556,78.120079 248.313599,76.991722 246.908615,76.170509 
	C245.941406,75.605179 245.134552,76.520241 244.318375,77.146561 
	C240.640213,79.969185 237.013702,83.145111 232.125214,79.141327 
	C231.366974,78.520317 230.299484,79.523972 229.369537,79.817497 
	C221.958389,82.156761 217.441711,77.902328 218.873947,70.301888 
	C219.119980,68.996368 220.381348,67.697517 219.162033,65.367523 
	C214.860153,69.658615 210.860840,73.776512 206.686234,77.708260 
	C205.804993,78.538223 205.182190,81.177055 202.996841,79.037636 
	C201.473969,77.546768 198.687607,76.523178 201.077194,73.754097 
	C202.680099,71.896683 200.469528,69.815277 201.716888,67.838287 
	C202.176285,67.110191 200.568451,67.148758 199.831696,67.012291 
	C198.112396,66.693802 197.148376,67.430557 196.448822,69.039459 
	C193.444351,75.949432 191.519455,83.170578 190.001740,90.938560 
z"/>
<path fill="#ED1A46" opacity="1.000000" stroke="none" 
	d="
M456.205658,59.299980 
	C458.893341,57.086205 460.649323,54.474442 463.467682,52.806206 
	C469.443085,49.269268 475.019836,48.974052 480.287384,52.914852 
	C482.775299,54.776127 485.156342,56.776829 483.066437,60.729008 
	C481.022003,64.595291 479.636169,68.815269 478.044800,72.912445 
	C477.560547,74.159164 475.852295,75.825844 477.796326,76.752609 
	C479.638458,77.630791 480.395630,76.032043 481.109589,74.211258 
	C485.699432,62.505318 490.841736,51.037659 496.585419,39.843468 
	C498.161713,36.771271 499.823822,33.790524 502.208710,31.248993 
	C503.643707,29.719799 504.445374,26.901567 507.421448,28.944206 
	C510.168823,30.829906 509.758545,32.675758 508.186127,35.466724 
	C500.286407,49.488335 495.173462,64.729370 488.384857,80.748390 
	C494.304077,77.560059 496.719299,72.901955 499.861115,69.142998 
	C507.676697,59.792198 512.714539,48.727119 518.078613,37.878712 
	C520.244019,33.499439 522.761963,29.259800 525.513184,25.225109 
	C526.388000,23.942230 527.422729,21.097696 529.989929,22.644028 
	C532.311157,24.042271 532.403564,26.029890 531.149963,28.621561 
	C526.457520,38.322353 521.970703,48.125359 517.558472,57.958088 
	C514.094238,65.678307 510.519684,73.445107 509.241730,81.857201 
	C508.613922,85.989983 507.698792,90.768410 512.290222,93.896011 
	C513.171631,94.496414 513.309814,95.662750 512.587219,96.541855 
	C511.989471,97.269066 511.089386,97.032059 510.308624,96.684486 
	C507.483551,95.426865 505.308014,93.437851 504.264343,90.521591 
	C502.745300,86.276955 502.595886,81.809898 502.564453,76.025314 
	C499.596649,79.660103 497.091217,82.458717 494.890198,85.479164 
	C489.958008,92.247452 483.300781,91.705727 479.564026,84.188400 
	C479.174164,83.404091 479.049408,82.379463 477.867218,81.939117 
	C473.761475,80.409821 471.460205,77.188805 470.404480,72.675262 
	C468.076233,74.415169 466.051941,75.775345 464.201385,77.340851 
	C459.583649,81.247353 455.058105,82.260040 452.365387,79.852005 
	C448.968872,76.814583 448.562042,70.603661 451.525116,66.019485 
	C452.941742,63.827835 454.477325,61.713074 456.205658,59.299980 
z"/>
<path fill="#ED1A46" opacity="1.000000" stroke="none" 
	d="
M344.460938,57.711773 
	C345.927124,70.933990 336.075409,82.020203 323.052856,81.952080 
	C320.567322,81.939079 318.535522,83.368103 316.448792,83.708961 
	C311.213684,84.564056 304.795502,79.403198 302.914246,73.948616 
	C302.816162,73.664291 302.576447,73.428810 302.220886,72.900459 
	C299.296143,74.405487 297.405701,77.230331 294.669525,79.010941 
	C291.610443,81.001648 288.061218,82.242081 285.453979,80.427986 
	C281.979004,78.010147 280.528381,73.432373 282.378296,69.381821 
	C286.026550,61.393635 290.791962,54.162987 299.624695,50.792042 
	C304.021423,49.114063 313.390289,51.635452 315.627563,55.455238 
	C316.393341,56.762627 316.201080,58.360245 315.628632,59.794609 
	C314.461182,62.719807 313.251221,65.628036 311.881042,68.977730 
	C315.291107,68.524582 315.996918,66.126060 316.917084,64.200378 
	C321.501007,54.607468 326.719147,45.392269 333.065918,36.857334 
	C335.329010,33.813938 338.002045,31.122841 341.168335,28.919931 
	C343.819550,27.075367 345.728088,28.318790 347.350403,30.205853 
	C349.147095,32.295815 347.060516,33.525013 345.813965,34.627766 
	C339.581085,40.141769 334.962097,46.834160 330.729462,54.933804 
	C335.750549,54.525517 340.898346,52.689224 344.460938,57.711773 
z"/>
<path fill="#ED1A46" opacity="1.000000" stroke="none" 
	d="
M370.496521,76.251450 
	C369.931488,75.059624 369.974579,73.583252 369.405151,73.287880 
	C368.081451,72.601288 368.098846,74.279999 367.531708,74.947701 
	C365.045868,77.874283 361.965637,80.066055 358.563080,81.721390 
	C355.220032,83.347794 351.904480,84.195358 348.569214,81.158302 
	C344.970215,77.881081 345.310486,74.133133 346.957123,70.410095 
	C348.930328,65.948624 351.469360,61.725403 354.616272,57.961765 
	C355.576355,56.813557 356.093353,55.633354 356.797424,54.046345 
	C352.292938,54.090870 349.583893,57.985413 345.123474,57.851471 
	C344.710236,57.748062 344.792816,57.821175 344.827026,57.852089 
	C345.951324,53.409569 351.110168,49.646873 357.028503,49.008606 
	C365.982483,48.042953 371.827393,53.219345 372.031830,62.206055 
	C372.059052,63.402573 371.416748,64.843422 373.051819,66.023712 
	C375.484161,62.389446 377.874023,58.818657 380.574646,55.102753 
	C384.470795,53.896576 384.965576,56.280304 383.819733,58.407284 
	C380.676178,64.242477 377.362335,69.999268 373.951813,75.690369 
	C373.301422,76.775726 372.054565,76.937088 370.496521,76.251450 
z"/>
<path fill="#ED1A46" opacity="1.000000" stroke="none" 
	d="
M423.499390,51.027214 
	C431.182343,56.500359 429.905304,65.207588 420.943817,69.933846 
	C418.654480,71.141220 416.219421,72.916718 413.174042,71.177536 
	C412.307953,70.682915 410.590668,70.404915 409.894318,72.286827 
	C409.498444,73.356728 408.444672,74.469543 409.352875,75.433258 
	C410.331268,76.471466 411.716461,75.806129 413.043304,75.542625 
	C418.598511,74.439369 423.466919,72.040718 427.979156,68.662956 
	C429.056061,67.856789 430.505554,66.046440 432.233246,67.817871 
	C433.852936,69.478607 432.631409,70.724030 431.513397,72.068459 
	C425.846954,78.882309 418.724609,82.585548 409.769348,81.923370 
	C405.725372,81.624344 401.600037,75.093750 402.005310,70.322189 
	C402.744965,61.613918 414.272125,51.055531 423.499390,51.027214 
z"/>
<path fill="#ED1A46" opacity="1.000000" stroke="none" 
	d="
M370.098389,76.376541 
	C371.514343,75.575829 372.454132,74.718979 372.985016,73.400475 
	C375.101562,68.144180 377.984253,63.317322 381.181366,58.657345 
	C381.889160,57.625679 382.960846,56.454906 381.133148,55.088219 
	C381.778198,51.593391 384.518127,49.897923 387.496399,48.117477 
	C388.684509,49.156246 388.801819,50.496822 389.732391,51.941551 
	C385.967346,59.711594 382.060242,67.033012 377.993256,74.677872 
	C377.536896,76.598480 378.418793,76.683113 379.780396,76.132507 
	C382.399689,73.332550 384.841461,70.779968 387.584351,68.092499 
	C389.617218,66.844421 392.328461,66.661263 391.949249,63.283783 
	C391.930298,62.522377 391.978241,62.084427 392.096436,61.323257 
	C394.081879,58.501740 394.699280,55.417542 395.916412,52.289635 
	C397.111176,48.910259 398.608734,45.874081 402.630402,47.363934 
	C406.553253,48.817169 407.952332,52.950146 405.660339,56.630531 
	C399.302460,66.839836 391.843567,76.196236 382.016144,83.291420 
	C379.021973,85.453163 375.301208,86.243950 372.303040,81.992615 
	C371.816620,81.721092 371.656830,81.608841 371.331848,81.254684 
	C370.132416,79.767944 369.799347,78.336021 370.098389,76.376541 
z"/>
<path fill="#ED1A46" opacity="1.000000" stroke="none" 
	d="
M395.562836,52.114426 
	C398.351044,56.124207 394.852600,58.188080 392.476532,60.878075 
	C392.000397,57.669777 393.293121,54.853577 395.562836,52.114426 
z"/>
<path fill="#ED1A46" opacity="1.000000" stroke="none" 
	d="
M391.591125,63.114124 
	C393.745789,66.278542 393.405029,66.801155 388.260468,67.948807 
	C388.729645,66.180351 390.922119,65.384758 391.591125,63.114124 
z"/>
<path fill="#ED1A46" opacity="1.000000" stroke="none" 
	d="
M379.638336,75.925545 
	C379.711456,77.180344 379.569550,78.783875 377.637634,77.954231 
	C376.337158,77.395752 376.171692,76.313850 377.597473,75.145569 
	C378.103302,75.669632 378.607269,75.977585 379.638336,75.925545 
z"/>
<path fill="#ED1A46" opacity="1.000000" stroke="none" 
	d="
M390.121735,52.219475 
	C389.272919,51.293972 388.671356,50.197769 387.976562,48.634117 
	C388.507080,49.591831 391.731781,49.351604 390.121735,52.219475 
z"/>
<path fill="#ED1A46" opacity="1.000000" stroke="none" 
	d="
M371.143616,81.263474 
	C371.363953,81.177383 371.549835,81.353973 371.850342,81.687958 
	C371.691132,81.726952 371.405884,81.620560 371.143616,81.263474 
z"/>
<path fill="#000000" opacity="1.000000" stroke="none" 
	d="
M183.949554,63.531151 
	C182.761520,63.891331 181.509506,63.531605 182.270569,62.665123 
	C186.726181,57.592365 191.401016,52.712158 196.607346,48.320499 
	C192.866089,53.657215 194.342682,63.241886 183.949554,63.531151 
z"/>
<path fill="#000000" opacity="1.000000" stroke="none" 
	d="
M254.258362,58.188278 
	C251.881943,62.322094 247.979782,65.198822 244.767670,68.726463 
	C243.847946,69.736526 242.643967,70.719673 241.415192,69.514565 
	C240.454941,68.572807 241.251236,67.507263 241.973404,66.488815 
	C244.978821,62.250450 248.880417,59.360012 254.258362,58.188278 
z"/>
<path fill="#000000" opacity="1.000000" stroke="none" 
	d="
M460.742065,66.752945 
	C464.201752,62.003338 467.567413,57.701691 473.339844,56.201283 
	C469.866577,62.745579 463.992798,67.006981 458.704163,72.889580 
	C457.881653,69.718742 459.190765,68.366089 460.742065,66.752945 
z"/>
<path fill="#000000" opacity="1.000000" stroke="none" 
	d="
M330.695862,72.796066 
	C327.899200,74.397408 325.678131,76.669701 321.855927,75.627357 
	C325.822388,69.075981 330.638702,63.835857 337.254456,60.343121 
	C338.032104,59.932579 338.908478,59.774944 339.559479,60.398125 
	C340.394318,61.197308 339.429382,61.823090 339.143860,62.524918 
	C337.443329,66.704689 334.995544,70.262833 330.695862,72.796066 
z"/>
<path fill="#000000" opacity="1.000000" stroke="none" 
	d="
M291.721863,68.656754 
	C294.782867,63.724030 298.146210,59.580502 302.837952,56.646114 
	C303.770630,56.062782 304.658569,55.738556 305.555969,56.363934 
	C306.243347,56.842968 305.901001,57.615646 305.401276,58.032124 
	C300.742035,61.915173 298.269165,67.961327 292.643524,70.896225 
	C291.837280,71.316841 291.077911,72.638763 290.264191,71.361023 
	C289.621521,70.351898 290.945465,69.703369 291.721863,68.656754 
z"/>
<path fill="#000000" opacity="1.000000" stroke="none" 
	d="
M309.607117,76.736710 
	C309.771667,74.272171 310.030945,71.873032 311.907990,70.049896 
	C313.912689,74.949913 313.521545,76.270988 309.607117,76.736710 
z"/>
<path fill="#000000" opacity="1.000000" stroke="none" 
	d="
M357.257019,66.229248 
	C359.321655,62.690098 361.258698,59.484299 362.860077,56.118771 
	C363.364349,55.058903 363.249786,53.783188 364.890961,54.084190 
	C366.448669,54.369888 366.891602,55.483555 367.010437,56.954060 
	C367.515411,63.204803 364.834320,68.109428 360.339325,72.039139 
	C358.070435,74.022720 355.295380,75.427399 351.969604,77.604057 
	C353.026520,72.944008 355.118774,69.767532 357.257019,66.229248 
z"/>
<path fill="#000000" opacity="1.000000" stroke="none" 
	d="
M415.146515,64.142326 
	C415.850220,62.902256 416.534302,61.976357 417.349609,61.185757 
	C418.368042,60.198231 419.151123,58.670399 420.959595,59.114559 
	C421.315247,59.201908 421.884552,59.833733 421.817871,60.004417 
	C421.239502,61.484398 420.925812,63.245750 419.230774,63.908844 
	C417.960571,64.405746 416.740082,65.748108 415.146515,64.142326 
z"/>
</svg>