<svg version="1.1" id="Layer_1" xmlns="http://www.w3.org/2000/svg" xmlns:xlink="http://www.w3.org/1999/xlink" x="0px" y="0px"
	 width="100%" viewBox="0 0 679 119" enable-background="new 0 0 679 119" xml:space="preserve">
<path fill="none" opacity="1.000000" stroke="none" 
	d="
M499.000000,120.000000 
	C334.166656,120.000000 169.833313,119.985115 5.500062,120.093864 
	C1.750665,120.096344 0.885289,119.251686 0.901773,115.499565 
	C1.064314,78.500282 1.044642,41.499844 0.915873,4.500293 
	C0.905489,1.516634 1.518338,0.918138 4.500032,0.919312 
	C228.500000,1.007537 452.500000,1.007537 676.499939,0.919312 
	C679.481689,0.918138 680.094360,1.516657 680.084106,4.500289 
	C679.955688,41.833179 679.955750,79.166817 680.084106,116.499710 
	C680.094360,119.483345 679.482483,120.088310 676.499817,120.082703 
	C617.500061,119.971703 558.500000,120.000000 499.000000,120.000000 
z"/>
<path fill="#ED1A46" opacity="1.000000" stroke="none" 
	d="
M547.395874,73.533440 
	C553.502625,68.571442 559.328369,63.465031 565.137756,58.340050 
	C566.287170,57.326061 567.796326,55.955654 568.798706,57.787666 
	C570.110901,60.185780 574.554321,61.032917 572.336304,65.338943 
	C569.194885,71.437408 566.476624,77.753159 563.526672,83.951866 
	C563.219360,84.597664 562.926575,85.096581 563.905334,86.194542 
	C566.685486,82.847755 571.136169,82.146767 572.604492,76.442459 
	C575.250977,66.160683 582.022095,58.182293 591.676208,53.154942 
	C596.608215,50.586582 601.091797,51.692238 605.051514,55.472023 
	C608.029175,58.314407 607.481628,61.742283 606.592285,64.706657 
	C603.767639,74.121964 596.357666,78.456322 586.374451,77.097137 
	C584.833679,76.887360 583.722046,77.362587 583.095032,78.720619 
	C582.419312,80.184288 581.280457,81.747940 582.317078,83.358025 
	C583.293030,84.873863 584.326843,83.108574 585.350952,82.981300 
	C596.688538,81.572357 605.563843,76.528015 612.729370,67.159065 
	C618.868408,59.132118 626.819336,52.487041 638.497314,55.864697 
	C640.587280,56.469166 641.036194,54.914791 641.733582,53.686028 
	C646.244202,45.738125 650.509705,37.589813 656.350586,30.547880 
	C658.308289,28.187582 659.710327,23.451845 665.205139,26.395132 
	C669.192627,28.531027 667.981934,31.173180 666.757935,33.227303 
	C661.996826,41.217083 657.009338,49.095192 651.685486,56.721134 
	C643.099487,69.019684 636.926392,82.434464 632.235168,96.596176 
	C631.932678,97.509384 632.216614,98.607109 631.966431,99.549652 
	C631.568420,101.049049 633.265869,103.857971 630.368774,103.775955 
	C628.045593,103.710182 626.225098,101.669464 626.057495,99.102959 
	C625.788879,94.987793 625.891663,90.864922 627.087952,86.848366 
	C627.340271,86.001167 628.634644,85.058449 627.390564,84.265549 
	C626.291992,83.565338 625.164185,84.179993 624.343079,85.169212 
	C622.690063,87.160660 620.239868,87.884926 618.047852,88.941071 
	C614.369751,90.713257 610.761963,91.002258 607.831665,87.349678 
	C606.065063,85.147659 604.665649,84.738907 601.658020,86.442719 
	C595.678833,89.829926 589.466309,93.508034 581.854126,91.110283 
	C578.552185,90.070206 577.310486,86.858505 574.599915,85.397980 
	C571.139954,89.791664 568.202454,95.363632 561.537231,94.634468 
	C557.364014,94.177933 554.342285,87.036156 554.613098,79.691368 
	C550.619019,82.726974 546.762878,85.362007 543.273621,88.416183 
	C541.037048,90.373833 538.085876,90.943077 536.527710,89.458015 
	C534.428223,87.457062 531.392761,84.909523 533.497559,80.919861 
	C534.382385,79.242805 534.825500,77.332710 535.687378,74.917625 
	C532.339294,76.335953 530.120850,78.690125 528.676392,81.083488 
	C526.409485,84.839699 522.419067,86.955063 520.420593,90.890923 
	C519.546570,92.612297 517.452637,92.487160 516.035583,91.404778 
	C514.222961,90.020233 512.023743,88.376198 513.217651,85.655571 
	C514.521851,82.683556 517.549255,79.888214 517.480408,77.073250 
	C517.423401,74.744469 512.468628,74.210152 511.311920,70.905037 
	C509.421814,65.504494 506.996918,67.068069 504.054779,70.347389 
	C498.411285,76.637657 492.444794,82.636971 486.705627,88.843307 
	C484.794647,90.909828 482.220642,92.291771 480.329895,90.291061 
	C478.523590,88.379707 475.699860,86.334465 477.812347,82.223549 
	C482.533600,73.035736 488.239685,64.487732 493.815765,55.853363 
	C494.871368,54.218788 496.395111,51.491997 498.692657,52.218605 
	C501.420349,53.081223 502.106995,56.136150 502.372131,59.012196 
	C504.290863,58.436638 505.722626,57.772251 506.942810,56.593342 
	C508.322876,55.259998 510.046844,53.337624 511.887756,54.642460 
	C513.886414,56.059086 516.390686,57.599213 516.045349,60.926559 
	C515.805725,63.234707 516.120300,65.595573 515.975037,67.919624 
	C515.820923,70.385902 517.707275,70.991486 519.297424,71.643791 
	C521.351746,72.486496 521.565247,70.475990 522.318542,69.296371 
	C524.517944,65.852242 526.433411,62.223888 529.229858,59.166668 
	C530.203247,58.102512 530.661987,56.565956 532.585022,57.026508 
	C534.397949,57.460667 534.798340,59.054977 534.904541,60.386284 
	C535.245300,64.657059 537.010742,63.247360 538.942688,61.568157 
	C539.444214,61.132214 539.871033,60.611511 540.355896,60.154930 
	C542.542419,58.095783 544.850342,55.663338 548.065491,57.713322 
	C551.179504,59.698788 550.241150,63.016602 549.539001,65.867210 
	C549.002563,68.045647 547.875488,70.078613 546.963501,72.552780 
	C546.713806,73.135254 546.612732,73.238228 546.612732,73.238228 
	C546.531921,73.392075 546.697388,73.440178 547.395874,73.533440 
z"/>
<path fill="#ED1A46" opacity="1.000000" stroke="none" 
	d="
M159.395813,61.533478 
	C162.666351,59.709526 165.744003,57.859493 168.598206,55.712410 
	C170.277740,54.448959 172.318100,52.789650 173.694717,54.682243 
	C175.134766,56.662052 178.338257,58.290169 176.622742,61.906235 
	C174.179382,67.056526 171.993820,72.332985 169.828522,77.609047 
	C169.154053,79.252472 167.195267,81.987785 168.868973,82.547256 
	C170.666931,83.148270 173.945343,82.905991 175.094482,79.438469 
	C176.583862,74.944290 178.707718,70.646980 181.990082,67.109070 
	C188.906174,59.654530 195.999725,52.556210 207.665100,55.850403 
	C209.728378,56.433052 210.452652,54.955849 211.310974,53.378483 
	C215.920227,44.907845 220.490005,36.385986 227.000427,29.159012 
	C228.979950,26.961620 230.435776,23.730341 234.727264,26.706373 
	C238.016220,28.987175 237.067474,30.962278 235.868118,33.335598 
	C230.692703,43.576813 223.342697,52.438080 217.409744,62.186287 
	C210.700653,73.209755 205.079163,84.814430 201.378311,97.250206 
	C201.102036,98.178543 201.309280,99.266655 200.967499,100.155846 
	C200.470322,101.449249 203.434235,103.115364 200.892792,103.766029 
	C199.036011,104.241409 197.096115,103.065826 196.037048,101.130310 
	C194.332016,98.014252 194.847046,94.689857 195.312302,91.445297 
	C195.631104,89.221962 196.427979,87.067169 197.047607,84.476227 
	C197.286179,83.864738 197.387222,83.761742 197.387222,83.761742 
	C197.468048,83.607880 197.302628,83.559753 196.604187,83.466484 
	C193.787994,85.108109 191.312714,86.985336 188.702972,88.652031 
	C187.636200,89.333321 186.166885,90.117149 185.071762,89.898285 
	C179.394180,88.763496 173.946579,88.438492 168.083893,89.733269 
	C163.996567,90.635956 159.837769,83.228661 160.586777,78.637955 
	C160.929657,76.536415 163.417801,73.584702 161.238190,72.476006 
	C159.199112,71.438782 157.030426,74.347839 155.370041,76.154167 
	C152.018143,79.800713 148.484085,83.275879 145.160080,86.955330 
	C142.286545,90.136154 137.331039,92.191811 133.140091,90.684593 
	C129.311569,89.307701 125.956894,85.948662 125.991623,80.920540 
	C125.996895,80.157127 125.895042,79.392967 125.803505,78.056198 
	C120.939911,81.991653 117.519089,86.769714 112.247650,89.410439 
	C109.213661,90.930305 105.995056,92.166412 103.603317,89.646820 
	C101.033615,86.939743 97.253288,84.298943 98.790916,79.382324 
	C99.474831,77.195473 99.186111,75.265854 96.715416,74.085457 
	C95.732857,73.616020 94.938568,72.561478 94.290710,71.614487 
	C90.874908,66.621552 90.834854,66.540527 86.502686,71.033340 
	C81.215363,76.516724 76.098396,82.164330 70.812950,87.649582 
	C68.772591,89.767075 66.155968,92.593819 63.280418,90.285423 
	C60.620728,88.150291 59.007557,85.171799 61.371502,80.850395 
	C65.851562,72.660652 70.737198,64.770935 75.999748,57.091209 
	C77.432625,55.000198 78.874641,51.775669 81.611382,52.527386 
	C84.314781,53.269955 85.716316,56.231407 84.916229,59.835415 
	C86.910431,58.503109 88.572838,57.510384 90.098068,56.339027 
	C91.513153,55.252262 93.121803,53.421700 94.703850,54.526394 
	C96.719856,55.934101 99.299446,57.412422 99.020935,60.702499 
	C98.825066,63.016422 99.404945,65.565636 98.611084,67.611053 
	C97.835358,69.609711 98.784111,69.703369 99.903160,70.459068 
	C101.618645,71.617546 101.731049,70.165962 102.343201,69.273460 
	C106.163002,63.704277 109.985657,58.133652 115.928085,54.510330 
	C121.429947,51.155636 126.704010,48.891857 133.150162,53.181232 
	C134.985901,54.402760 137.989075,53.795330 140.050537,56.312790 
	C142.169174,58.900074 142.422150,61.220364 141.478912,64.034813 
	C139.148270,70.989098 135.217957,77.309372 133.444153,84.549400 
	C136.098740,86.065437 136.900299,84.060898 138.003006,82.151062 
	C142.979645,73.531799 147.998657,64.935364 153.152435,56.421528 
	C154.091293,54.870575 154.671036,51.633289 157.673126,53.554344 
	C160.095581,55.104492 160.820358,57.500778 158.965210,60.545090 
	C158.449005,61.405144 158.905685,60.639435 158.612091,61.237968 
	C158.535568,61.393944 158.697372,61.440250 159.395813,61.533478 
z"/>
<path fill="#ED1A46" opacity="1.000000" stroke="none" 
	d="
M377.564453,56.724533 
	C378.034515,58.204124 378.242920,59.409477 376.993805,60.676727 
	C376.848206,63.489697 377.980621,63.189659 379.311157,61.770458 
	C379.172791,61.490932 379.251251,61.247616 379.373047,61.208878 
	C381.123260,61.148117 382.510590,60.671535 383.253357,58.813347 
	C383.171448,58.492912 383.250641,58.248337 383.373047,58.209053 
	C386.552185,58.289150 388.954803,54.896919 392.693970,56.734970 
	C393.094238,56.939114 393.030884,56.964005 393.043579,56.932411 
	C393.475525,57.446796 393.948578,57.947163 394.612152,58.736816 
	C395.510834,62.264950 393.823059,64.957520 392.643250,67.743591 
	C390.585571,72.602646 388.413635,77.413300 386.197174,82.596535 
	C388.712769,84.962105 390.974274,83.762955 393.268463,82.254715 
	C394.694489,81.317238 396.143799,80.403625 397.610046,79.532326 
	C399.799805,78.231056 401.358490,78.494469 401.247498,81.797585 
	C398.722168,85.430565 395.187347,87.300430 391.739960,88.865158 
	C384.506409,92.148399 379.005035,88.043449 379.098389,79.409363 
	C380.414520,77.416267 381.371765,75.732101 380.957397,73.280197 
	C380.913544,72.533661 380.944824,72.106880 380.931030,71.361488 
	C380.489746,70.495461 379.972076,70.387062 379.200958,70.867821 
	C373.726501,76.546219 368.580353,82.157600 363.051453,87.362389 
	C356.450317,93.576561 348.987793,91.953018 344.946228,83.408821 
	C344.884766,81.332191 345.351685,79.279259 342.249481,79.858505 
	C338.610107,83.841583 334.627869,86.888199 330.203552,89.308479 
	C324.086914,92.654526 317.159760,88.416611 317.004211,81.323227 
	C316.986084,80.496880 317.020111,79.669380 317.098297,78.421082 
	C317.539734,77.541473 317.721527,77.042900 317.329041,76.228745 
	C315.257263,74.971291 314.241730,73.138000 312.928101,71.529251 
	C311.588989,69.889343 311.520660,67.472511 309.488800,66.216858 
	C301.668152,72.912369 295.812500,81.468941 288.207733,88.339485 
	C286.600128,89.791870 285.267822,91.546928 282.358154,90.901474 
	C281.816620,90.721092 281.656830,90.608841 281.331848,90.254684 
	C280.442963,88.914070 279.719238,87.815353 278.943634,86.382309 
	C281.633636,78.180077 286.790741,71.652626 290.884155,64.537239 
	C292.204712,62.241772 294.179321,60.328693 294.909485,57.325523 
	C295.652863,54.300232 297.171783,51.702343 300.068573,52.257240 
	C303.550842,52.924286 303.048401,56.343128 303.067352,59.525196 
	C304.328339,61.766071 304.978210,60.692844 305.778259,59.178299 
	C305.987457,58.545444 306.146210,58.283298 306.659607,58.028366 
	C309.267700,56.988632 311.496063,55.214569 314.715332,56.747574 
	C317.945618,58.281311 316.729584,60.868290 317.001770,62.993084 
	C317.306366,65.371078 316.286499,67.870743 317.850922,70.517334 
	C322.276337,73.290344 321.966583,69.220512 323.142609,66.951920 
	C323.100220,66.428635 323.075378,66.246262 323.109131,65.794098 
	C324.321747,65.884651 324.783722,65.573158 325.901123,63.314419 
	C325.871246,61.796864 326.430908,60.927952 327.590698,60.086964 
	C329.267853,58.861023 331.472626,59.066471 332.253479,56.819752 
	C332.171722,56.492508 332.250885,56.248108 332.373199,56.208908 
	C335.980347,55.644638 338.908203,54.019402 341.726135,51.401066 
	C345.458130,50.841709 348.989777,50.257713 351.670349,53.996021 
	C353.499512,54.679100 355.173126,54.634911 356.822662,55.775444 
	C361.258209,57.276279 361.655975,59.855423 360.037445,63.559662 
	C357.382385,69.636208 355.056305,75.855835 352.481323,81.968712 
	C352.055023,82.980652 351.965637,83.812019 352.675781,84.966301 
	C353.799683,85.870995 354.641724,86.219315 355.749634,85.217285 
	C355.932678,84.519958 355.979462,84.082733 356.096436,83.322952 
	C359.241882,80.988098 360.042480,77.401672 361.935699,74.576866 
	C365.522552,69.225090 368.851959,63.691765 371.558990,57.842796 
	C373.033600,54.656643 374.766205,54.377911 377.564453,56.724533 
z"/>
<path fill="#ED1A46" opacity="1.000000" stroke="none" 
	d="
M414.706177,86.743286 
	C421.128693,85.602425 421.792633,79.978828 423.934723,75.655731 
	C427.851349,67.751328 431.352081,59.635654 437.453156,53.036884 
	C439.729004,50.575401 442.095886,50.014866 444.777740,52.272095 
	C447.110077,54.235146 449.284821,53.988354 451.963531,52.622795 
	C456.901855,50.105339 462.157806,48.212189 467.820343,50.020134 
	C476.282043,52.721798 481.941986,60.312016 479.754578,69.338142 
	C477.201813,79.871796 470.406677,87.228119 460.864929,91.975281 
	C456.522064,94.135918 452.642609,93.445534 448.898529,89.621002 
	C445.211395,85.854713 445.246216,82.109619 447.049286,77.950806 
	C450.366394,70.299835 455.094879,63.460159 460.228729,56.664074 
	C454.693665,56.261620 449.477814,59.212677 448.022583,63.498447 
	C446.313629,68.531670 443.105103,72.692024 440.328491,77.100639 
	C439.329407,78.686958 437.140381,80.290039 435.896729,79.721062 
	C431.899261,77.892197 432.330536,81.079742 431.570221,82.945824 
	C430.166901,86.389946 433.432068,85.513878 434.815704,86.376518 
	C436.615662,87.498711 438.476196,88.536140 440.196228,89.769608 
	C441.256897,90.530243 442.497467,91.574692 441.836090,93.066833 
	C441.138428,94.640808 439.637817,93.946114 438.398712,93.720688 
	C438.244171,93.692574 438.117706,93.529747 437.962158,93.484688 
	C426.985138,90.304062 426.865692,90.262878 423.123199,100.985390 
	C421.842957,104.653381 419.457886,108.060669 420.822693,112.548820 
	C421.481293,114.714584 420.439178,117.817795 417.187469,117.897064 
	C414.153900,117.971024 412.226807,115.852486 412.082306,112.937943 
	C411.855469,108.361809 411.624573,103.781998 413.790009,99.363419 
	C415.284515,96.313820 415.270966,92.939598 412.429993,90.090195 
	C410.784424,87.658630 411.924133,86.705566 414.706177,86.743286 
z"/>
<path fill="#ED1A46" opacity="1.000000" stroke="none" 
	d="
M55.912701,56.486351 
	C63.575439,63.045582 64.641922,64.833862 57.895145,76.753822 
	C52.987640,85.424225 45.782108,91.737068 34.894611,92.033798 
	C31.860008,92.116501 28.608284,89.666481 25.811775,93.759453 
	C24.491253,95.692162 22.781246,92.288803 21.177338,91.482605 
	C19.788729,90.784630 18.224014,89.348984 19.282917,87.448952 
	C20.726044,84.859497 20.667521,82.300209 20.029379,79.571770 
	C19.756678,78.405815 20.209135,77.321846 20.901833,76.325905 
	C28.909552,64.812645 33.754986,51.444729 42.026237,40.104164 
	C46.248199,34.315506 49.879509,27.931198 56.355804,24.117950 
	C58.752789,22.706604 60.815075,21.983021 63.239754,24.408779 
	C66.251099,27.421457 64.540329,29.246685 62.225414,31.289192 
	C53.955696,38.585766 48.644382,48.015213 42.628708,58.451466 
	C47.472301,56.856586 51.402348,55.168007 55.912701,56.486351 
z"/>
<path fill="#ED1A46" opacity="1.000000" stroke="none" 
	d="
M265.749634,44.675465 
	C266.861816,44.241558 267.645264,43.951298 268.451630,43.856579 
	C283.720612,42.062935 291.061493,30.403437 298.856354,19.360500 
	C300.202911,17.452866 301.150330,14.715268 304.016113,16.676622 
	C306.541931,18.405293 308.327515,20.457291 305.699677,24.083315 
	C303.652283,26.908409 301.396790,29.879419 300.393585,34.159103 
	C304.880096,33.505730 309.131470,33.004566 313.334869,32.239643 
	C317.163177,31.542965 319.881317,33.532494 320.013702,37.299015 
	C320.077026,39.100067 319.675995,40.112209 317.580627,40.020550 
	C313.403564,39.837826 309.544922,41.257603 305.699402,42.665173 
	C304.632141,43.055824 303.478729,43.858330 302.485168,43.702885 
	C292.589844,42.154747 289.544220,49.661568 286.003998,56.228916 
	C280.035431,67.301071 274.735443,78.684952 270.925568,90.723320 
	C270.262787,92.817711 270.115265,94.861168 269.955566,96.992058 
	C269.694153,100.480385 270.654938,102.390678 274.614685,102.072586 
	C276.504150,101.920792 279.270447,102.267761 278.768219,104.867310 
	C278.234100,107.632042 275.272675,108.532150 272.822479,107.810013 
	C267.786041,106.325623 263.921112,102.902214 263.197784,97.638718 
	C262.604919,93.324715 262.398010,88.782700 263.982391,84.401009 
	C268.130890,72.928154 270.984070,60.948105 277.337036,49.973606 
	C270.825104,52.760944 262.750214,51.542427 257.835449,58.298912 
	C256.979889,59.475117 255.283340,59.295582 254.935883,58.226135 
	C254.371811,56.490028 251.962051,55.387386 253.474380,52.791958 
	C256.216736,48.085548 260.936890,46.751781 265.749634,44.675465 
z"/>
<path fill="#ED1A46" opacity="1.000000" stroke="none" 
	d="
M216.900879,94.349442 
	C213.205414,90.613037 214.533997,88.619370 218.555725,87.062164 
	C221.416214,85.954567 224.091705,84.369209 227.054352,82.895294 
	C224.503281,79.812675 222.521942,76.882240 220.858246,73.677315 
	C218.317322,68.782509 218.533356,64.318489 222.000153,60.081009 
	C225.348343,55.988514 228.903763,52.037159 234.771744,52.057327 
	C236.541931,52.063416 236.893433,50.948154 237.649887,49.916237 
	C238.907288,48.201008 240.069229,46.310604 241.677979,44.988873 
	C243.173798,43.759930 245.155777,41.664055 247.220947,43.890858 
	C249.021164,45.832001 250.826004,48.014084 248.489014,51.061928 
	C244.904419,55.736851 241.912689,60.736465 240.599731,66.652016 
	C240.190903,68.493919 239.713120,70.179161 240.460831,71.913658 
	C240.947388,73.042336 241.519394,74.160599 240.127167,74.830917 
	C238.894760,75.424301 237.834579,74.584938 237.145859,73.605965 
	C235.243805,70.902390 233.416992,68.139801 234.121658,64.123039 
	C230.792206,65.983002 229.749924,69.044830 227.900940,71.420471 
	C226.168671,73.646187 228.070068,75.034691 229.098175,76.535706 
	C230.298798,78.288536 231.860031,79.799919 233.010803,81.580246 
	C235.823471,85.931610 234.924850,89.346779 230.183838,91.270470 
	C226.030289,92.955780 221.854965,94.866989 216.900879,94.349442 
z"/>
<path fill="#ED1A46" opacity="1.000000" stroke="none" 
	d="
M415.066345,86.583618 
	C413.745178,87.328835 412.664368,88.031319 412.133362,89.795685 
	C408.715607,92.564796 405.064575,94.073380 400.458557,94.062958 
	C398.501404,93.750183 396.492188,93.797607 396.499542,91.564217 
	C396.505585,89.740982 398.157837,89.377151 399.599823,88.751144 
	C401.827454,87.784027 404.397186,87.157677 405.757141,84.243713 
	C407.380554,81.313988 405.333191,80.791267 403.361572,80.075722 
	C400.168060,78.941772 402.224762,76.438766 401.369080,74.332710 
	C399.303650,71.847954 400.190765,69.259544 400.098267,66.418747 
	C402.179138,63.050598 403.798828,59.827488 406.229675,56.853531 
	C406.169586,56.495667 406.248932,56.250134 406.371643,56.210304 
	C408.470245,56.181755 409.891174,55.353165 410.781311,53.170025 
	C411.766693,51.454056 413.136688,52.195675 414.636414,52.098366 
	C415.900665,52.871284 416.775482,53.135769 417.350098,51.808113 
	C417.103912,51.416756 417.077667,51.234779 417.109589,50.783211 
	C418.948120,50.822365 419.756287,49.825489 420.142609,47.948177 
	C420.100311,47.424324 420.075531,47.237808 420.109741,46.775299 
	C423.052948,47.210751 424.399963,42.563972 427.858154,44.664631 
	C431.507935,46.930149 429.504120,49.101135 428.279022,51.141777 
	C424.521210,57.401150 420.635834,63.595428 420.069885,71.554214 
	C419.420563,72.701149 418.583649,72.804550 417.271240,72.270584 
	C415.119019,71.255104 414.819061,69.455734 414.118805,67.594490 
	C415.221344,65.281265 414.713562,64.365685 412.244568,64.860123 
	C405.944153,71.377953 408.559753,76.797867 413.511383,82.174713 
	C414.400879,83.140587 415.244232,84.595695 415.066345,86.583618 
z"/>
<path fill="#ED1A46" opacity="1.000000" stroke="none" 
	d="
M377.890259,56.643845 
	C374.922882,55.929489 373.585693,56.467964 372.026184,59.782711 
	C368.606628,67.050995 364.088318,73.802521 360.014832,80.762802 
	C359.305695,81.974548 358.246643,82.685631 356.511688,82.949898 
	C360.665100,73.106369 366.553955,64.016357 372.557312,55.011333 
	C375.094818,51.205029 376.432587,54.619987 377.890259,56.643845 
z"/>
<path fill="#ED1A46" opacity="1.000000" stroke="none" 
	d="
M294.572327,57.104858 
	C296.619965,57.734631 296.305847,58.909885 295.507294,60.175129 
	C290.152069,68.660194 284.795776,77.144569 279.165771,85.838577 
	C276.720825,84.266777 278.650452,82.653923 279.360687,81.326439 
	C283.818939,72.993500 288.784973,64.959808 294.572327,57.104858 
z"/>
<path fill="#ED1A46" opacity="1.000000" stroke="none" 
	d="
M401.089478,74.355103 
	C403.246979,75.266579 402.925446,77.370590 403.031921,79.722870 
	C402.554047,80.708931 402.068451,81.300224 401.313110,82.002487 
	C398.781372,78.712616 397.103180,81.856186 395.472229,82.785843 
	C392.346008,84.567802 389.404114,86.474663 386.050720,83.215965 
	C392.443665,82.681183 396.863068,78.940201 401.089478,74.355103 
z"/>
<path fill="#ED1A46" opacity="1.000000" stroke="none" 
	d="
M405.631897,84.040695 
	C406.233185,87.679611 403.546661,88.865807 400.681091,89.951019 
	C398.699860,90.701317 396.545837,91.504509 399.828186,93.919678 
	C397.039764,95.836540 396.138275,93.343735 395.280823,91.475861 
	C394.405731,89.569534 395.652924,88.567993 397.439117,87.849182 
	C400.117767,86.771217 402.689240,85.426872 405.631897,84.040695 
z"/>
<path fill="#ED1A46" opacity="1.000000" stroke="none" 
	d="
M305.666290,59.012512 
	C305.941833,60.413292 305.795166,61.932869 304.444550,62.912914 
	C303.052307,63.923187 302.078827,65.942184 299.821136,65.070641 
	C298.970154,64.742134 298.484894,64.006653 298.555908,63.122375 
	C298.741760,60.808193 300.412689,60.208504 302.743591,59.985703 
	C304.007629,60.070885 304.799561,59.904217 305.666290,59.012512 
z"/>
<path fill="#ED1A46" opacity="1.000000" stroke="none" 
	d="
M405.890717,56.680428 
	C406.700134,60.935310 403.616974,63.277554 400.477417,65.883743 
	C400.153809,61.865482 402.329163,59.035316 405.890717,56.680428 
z"/>
<path fill="#ED1A46" opacity="1.000000" stroke="none" 
	d="
M341.637207,51.106987 
	C340.655212,55.494972 337.645111,57.064587 332.896790,56.294434 
	C334.780212,53.362801 338.203217,52.506756 341.637207,51.106987 
z"/>
<path fill="#ED1A46" opacity="1.000000" stroke="none" 
	d="
M392.939758,56.612808 
	C390.095245,57.005772 387.493195,59.424286 383.904541,58.295410 
	C384.721039,56.225899 386.982819,55.840782 388.700592,54.654568 
	C391.137756,52.971546 391.819000,54.778111 392.939758,56.612808 
z"/>
<path fill="#ED1A46" opacity="1.000000" stroke="none" 
	d="
M322.863342,66.786240 
	C325.118286,68.592957 323.666992,70.155708 322.373718,71.556992 
	C321.114838,72.920959 319.639771,73.211456 318.190063,71.170944 
	C321.202332,71.483780 320.691559,67.815788 322.863342,66.786240 
z"/>
<path fill="#ED1A46" opacity="1.000000" stroke="none" 
	d="
M314.967896,56.646835 
	C312.651398,57.291805 310.188416,57.626118 307.305420,57.959015 
	C309.113861,55.376614 311.165283,51.929493 314.967896,56.646835 
z"/>
<path fill="#ED1A46" opacity="1.000000" stroke="none" 
	d="
M428.052368,44.580994 
	C425.432739,44.250721 423.735657,47.727837 420.565979,46.575104 
	C422.395996,44.445812 424.310486,41.328655 428.052368,44.580994 
z"/>
<path fill="#ED1A46" opacity="1.000000" stroke="none" 
	d="
M380.568542,73.152634 
	C383.863434,75.536362 381.838043,77.154831 379.469360,78.882782 
	C378.420593,76.901604 380.267639,75.302162 380.568542,73.152634 
z"/>
<path fill="#ED1A46" opacity="1.000000" stroke="none" 
	d="
M378.929932,61.654083 
	C379.473358,62.973587 379.748383,64.653824 377.457642,64.289803 
	C375.871796,64.037804 374.809723,63.005611 376.593201,61.152878 
	C377.168579,61.915623 377.830841,62.086830 378.929932,61.654083 
z"/>
<path fill="#ED1A46" opacity="1.000000" stroke="none" 
	d="
M355.523804,84.975243 
	C356.730164,85.428329 357.895233,86.186218 356.960938,87.040489 
	C355.316223,88.544327 354.117523,87.295319 353.119659,85.467087 
	C353.720551,85.108879 354.441132,85.051086 355.523804,84.975243 
z"/>
<path fill="#ED1A46" opacity="1.000000" stroke="none" 
	d="
M356.963196,55.636909 
	C355.452759,55.902809 353.693787,56.221474 352.203979,54.448341 
	C354.140137,52.309898 355.723877,52.776138 356.963196,55.636909 
z"/>
<path fill="#ED1A46" opacity="1.000000" stroke="none" 
	d="
M342.390137,80.078674 
	C342.459686,79.204712 343.054504,78.259300 344.147736,78.835945 
	C345.618561,79.611710 345.870331,80.985374 345.052734,82.777039 
	C343.282104,82.686737 344.852875,80.044014 342.390137,80.078674 
z"/>
<path fill="#ED1A46" opacity="1.000000" stroke="none" 
	d="
M410.663452,53.015240 
	C410.876801,55.266834 410.218475,57.039726 406.878723,56.281914 
	C407.316315,54.560345 409.087341,54.165737 410.663452,53.015240 
z"/>
<path fill="#ED1A46" opacity="1.000000" stroke="none" 
	d="
M331.911621,56.667801 
	C332.867584,59.517090 330.941956,59.900860 328.285950,59.954956 
	C328.840485,58.556282 329.796265,57.155842 331.911621,56.667801 
z"/>
<path fill="#ED1A46" opacity="1.000000" stroke="none" 
	d="
M382.927704,58.659012 
	C383.653778,60.915165 382.644684,61.840313 379.879608,61.279564 
	C380.357483,60.115913 381.144043,58.958244 382.927704,58.659012 
z"/>
<path fill="#ED1A46" opacity="1.000000" stroke="none" 
	d="
M416.942322,72.406898 
	C417.693420,72.021736 418.501648,72.001305 419.713989,71.970818 
	C421.280334,72.956406 421.564972,74.245842 420.059448,74.832542 
	C418.536041,75.426201 417.372345,74.435547 416.942322,72.406898 
z"/>
<path fill="#ED1A46" opacity="1.000000" stroke="none" 
	d="
M379.347229,71.068329 
	C379.566010,69.802643 379.851074,67.916687 381.889435,68.921730 
	C382.820923,69.381035 382.104858,70.292732 381.135925,70.916801 
	C380.474762,71.035843 380.063568,71.028809 379.347229,71.068329 
z"/>
<path fill="#ED1A46" opacity="1.000000" stroke="none" 
	d="
M412.350250,65.074066 
	C412.474518,64.170647 413.066620,63.245708 414.221436,63.887325 
	C415.470459,64.581268 415.434540,65.694824 414.387634,67.008560 
	C413.844788,66.368629 414.325653,64.961212 412.350250,65.074066 
z"/>
<path fill="#ED1A46" opacity="1.000000" stroke="none" 
	d="
M325.592255,63.084839 
	C326.595886,63.346149 327.325043,63.861599 326.829620,64.734619 
	C326.195892,65.851334 325.000000,65.713547 323.535339,65.580856 
	C323.879028,64.752762 324.590393,63.981228 325.592255,63.084839 
z"/>
<path fill="#ED1A46" opacity="1.000000" stroke="none" 
	d="
M419.877411,47.775227 
	C422.061859,50.552940 419.900330,50.517014 417.551666,50.568851 
	C417.988403,49.655636 418.809052,48.797626 419.877411,47.775227 
z"/>
<path fill="#ED1A46" opacity="1.000000" stroke="none" 
	d="
M416.885803,51.732964 
	C417.555420,52.055019 418.134583,52.646496 417.601654,53.177586 
	C416.708496,54.067577 415.946930,53.388630 415.151611,52.408150 
	C415.547333,52.066845 416.094391,51.967022 416.885803,51.732964 
z"/>
<path fill="#ED1A46" opacity="1.000000" stroke="none" 
	d="
M317.100769,76.331039 
	C317.997955,76.454285 318.551514,76.966492 317.354492,77.901924 
	C317.122711,77.553894 317.078766,77.108040 317.100769,76.331039 
z"/>
<path fill="#ED1A46" opacity="1.000000" stroke="none" 
	d="
M394.892395,58.659607 
	C394.306122,58.479343 393.778931,57.958591 393.153992,57.169327 
	C393.931274,57.048470 395.002777,56.933617 394.892395,58.659607 
z"/>
<path fill="#ED1A46" opacity="1.000000" stroke="none" 
	d="
M281.143616,90.263474 
	C281.363953,90.177383 281.549835,90.353973 281.850342,90.687950 
	C281.691132,90.726944 281.405884,90.620552 281.143616,90.263474 
z"/>

<path fill="#000000" opacity="1.000000" stroke="none" 
	d="
M598.942688,62.870197 
	C597.087769,65.915741 595.425415,68.720024 592.317932,70.229034 
	C591.561279,70.596443 590.890381,71.301262 590.217224,70.483612 
	C589.754089,69.921089 589.236633,68.637444 589.485352,68.372581 
	C592.125305,65.560532 594.183105,61.957565 598.454468,61.224247 
	C598.549622,61.207901 598.793030,62.054737 598.942688,62.870197 
z"/>
<path fill="#000000" opacity="1.000000" stroke="none" 
	d="
M547.491699,73.494843 
	C547.234314,74.009727 547.045105,74.919395 546.278992,74.453407 
	C546.114746,74.353462 546.340759,73.611763 546.651489,73.047485 
	C547.044250,73.054626 547.172546,73.179977 547.491699,73.494843 
z"/>
<path fill="#000000" opacity="1.000000" stroke="none" 
	d="
M108.784920,79.445679 
	C113.732506,69.995628 119.199677,61.713097 129.546600,58.293541 
	C124.334816,66.435257 117.995705,73.513145 109.937622,79.460571 
	C109.339699,79.776962 108.996803,79.869514 108.784920,79.445679 
z"/>
<path fill="#000000" opacity="1.000000" stroke="none" 
	d="
M201.371307,62.258812 
	C203.196655,61.499409 204.611191,60.440964 206.998642,61.522156 
	C200.894806,67.250732 195.873749,73.786034 188.074570,78.380775 
	C189.092773,69.678894 195.233826,66.198471 201.371307,62.258812 
z"/>
<path fill="#000000" opacity="1.000000" stroke="none" 
	d="
M109.491653,79.494888 
	C109.234306,80.009804 109.045044,80.919434 108.278954,80.453423 
	C108.114655,80.353493 108.340759,79.611771 108.651474,79.047501 
	C109.044189,79.054657 109.172455,79.180008 109.491653,79.494888 
z"/>
<path fill="#000000" opacity="1.000000" stroke="none" 
	d="
M159.491669,61.494873 
	C159.234329,62.009800 159.045074,62.919399 158.278976,62.453430 
	C158.114685,62.353500 158.340759,61.611778 158.651459,61.047501 
	C159.044189,61.054649 159.172455,61.180000 159.491669,61.494873 
z"/>
<path fill="#000000" opacity="1.000000" stroke="none" 
	d="
M196.508331,83.505127 
	C196.765686,82.990211 196.954926,82.080574 197.721039,82.546577 
	C197.885330,82.646515 197.659241,83.388229 197.348511,83.952507 
	C196.955795,83.945351 196.827530,83.820000 196.508331,83.505127 
z"/>
<path fill="#000000" opacity="1.000000" stroke="none" 
	d="
M347.491150,58.030174 
	C346.948059,59.811802 346.386780,61.895130 345.083374,63.279922 
	C340.314667,68.346436 335.290955,73.172546 330.383972,78.109749 
	C329.600067,78.898499 328.757233,79.163864 327.713104,78.799240 
	C330.111908,71.275955 340.035492,60.652710 347.491150,58.030174 
z"/>
<path fill="#000000" opacity="1.000000" stroke="none" 
	d="
M458.706177,74.698395 
	C461.102905,70.594933 463.462891,66.889832 465.399811,62.975380 
	C466.540741,60.669575 469.158295,58.606747 467.385162,55.457504 
	C473.531189,55.860218 473.425049,56.313866 472.884308,64.138771 
	C472.300903,72.580811 463.267609,82.126259 453.693604,84.825378 
	C455.435120,81.262299 456.963379,78.135536 458.706177,74.698395 
z"/>
<path fill="#000000" opacity="1.000000" stroke="none" 
	d="
M32.172775,83.816582 
	C36.996368,75.375778 43.311268,69.090569 51.205833,64.443253 
	C52.158993,63.882153 53.480522,62.306110 54.579903,63.518692 
	C55.601856,64.645874 54.981777,66.231697 54.113674,67.603851 
	C49.200104,75.370415 43.352394,81.940262 33.458374,84.046371 
	C32.717323,84.167488 32.361130,84.253799 32.172775,83.816582 
z"/>
<path fill="#000000" opacity="1.000000" stroke="none" 
	d="
M32.890953,83.883560 
	C32.806133,84.835571 32.212364,85.177963 31.574707,84.748909 
	C30.984556,84.351814 31.648241,83.996559 32.123413,83.481323 
	C32.463207,83.424034 32.585800,83.554977 32.890953,83.883560 
z"/>
</svg>