<svg xmlns="http://www.w3.org/2000/svg" viewBox="34.5 102.78 352.23 50.17"><path d="M36.68 140.39c.03-.06.06-.15.09-.26.03-.12.07-.25.13-.39-.41-.09-.74-.33-1.01-.74s-.46-.83-.61-1.26c-.06.06-.06.12-.02.17s.05.15.02.26c-.11-.06-.22-.1-.3-.11s-.16-.05-.22-.11c-.09-.29-.14-.6-.15-.92s-.05-.64-.11-.96c.06 0 .09-.01.09-.05 0-.03.01-.04.04-.04.03-.52.07-1.05.13-1.59s.17-1.01.35-1.42c.06-1.02.23-1.95.52-2.79s.55-1.75.79-2.71c.15-.17.23-.37.26-.59.03-.22.07-.46.13-.72.12-.26.23-.59.35-.98.12-.39.25-.75.39-1.07.06-.12.09-.22.11-.31.01-.09.05-.2.11-.35.03-.06.05-.12.06-.18.02-.06.04-.11.07-.17.09-.17.16-.36.22-.54.06-.19.12-.37.17-.55.03-.03.06-.11.09-.24s.07-.25.13-.37c.03-.06.07-.1.13-.13s.07-.12.04-.26h.09c.11-.38.26-.72.41-1.05.16-.32.33-.61.5-.87 0-.41.09-.74.28-.98.18-.25.31-.5.37-.76.17-.58.38-1.07.63-1.46.25-.39.48-.84.67-1.33h.09c.4-.76.78-1.46 1.13-2.12.35-.66.73-1.37 1.14-2.16.09 0 .16-.1.22-.31.23-.29.43-.59.61-.9.17-.31.38-.58.61-.81.17-.4.36-.75.55-1.02.18-.28.38-.58.58-.9.06-.23.16-.42.31-.55.15-.13.25-.31.31-.55-.06-.14-.15-.2-.26-.17 0-.2.03-.36.09-.48s.14-.21.26-.28c.11-.07.23-.14.35-.2s.22-.16.31-.31c.06.12.16.17.31.17.29-.23.6-.45.92-.65s.65-.33 1-.39c.06.06.09.11.09.15s.03.1.09.15c-.12.06-.23.08-.33.07-.11-.01-.18 0-.24.06.03.23.11.35.26.35s.29.02.43.05c.03-.12.06-.21.09-.26.03-.06.11-.07.26-.04 0 .06 0 .09.03.11.01.02 0 .05-.03.11.03.03.08.05.13.06.06.02.04.08-.04.2.06 0 .1-.01.13-.05.03-.03.06-.01.09.05.06.03.07.06.03.09-.05.03-.04.07.02.13.17.06.26 0 .26-.17.15 0 .25.06.31.17-.09.15-.11.28-.06.42s.04.27-.02.42c.06.03.1.02.13-.02.03-.05.07-.04.13.02-.06.2-.06.36 0 .48s.13.17.22.17c-.09.06-.11.15-.06.26.04.12.04.2-.03.26.04.06.09.09.18.09 0 .09 0 .17-.02.26-.01.09 0 .16.06.22.06.03.09.02.09-.02s.04-.04.09.02c0 .23 0 .45.02.66.01.2.04.39.06.56-.06.32-.13.73-.22 1.22.03.03.01.05-.04.05.03.17-.02.38-.15.61a4.1 4.1 0 0 0-.28.56c-.12.12-.21.28-.26.48-.06.2-.13.38-.22.52-.06.12-.12.23-.19.33-.08.1-.14.2-.2.28-.12.2-.21.42-.26.65-.06.23-.15.47-.26.7-.06.12-.16.25-.31.39-.14.17-.26.37-.33.59-.07.22-.17.43-.28.64h-.13c-.06.09-.11.2-.16.33s-.11.26-.19.37c-.04.09-.06.14-.09.15s-.06.05-.09.11c-.09.15-.18.3-.28.46s-.18.33-.24.5c-.09.09-.16.19-.24.31-.07.12-.12.25-.15.39-.4.58-.81 1.22-1.2 1.92-.39.7-.75 1.42-1.07 2.18h-.13c-.06.15-.11.25-.15.31-.05.06-.07.2-.07.44-.35.26-.52.61-.52 1.05-.04-.03-.05-.06-.05-.09s-.03-.06-.09-.09c-.09.11-.15.25-.19.41-.05.16-.13.3-.24.42.35-.03.7-.11 1.07-.24.36-.13.71-.21 1.03-.24.11-.06.23-.08.37-.06.13.01.23-.04.28-.15.2.09.47.08.8-.02.33-.1.62-.17.85-.2.26-.03.57 0 .92.09.23-.06.47-.07.7-.05.23.03.45-.04.65-.22.32.06.69.1 1.11.13.43.03.81.1 1.16.22.21 0 .42 0 .63.02.22.02.42.11.59.28.53.09.94.28 1.24.57s.68.51 1.12.65c.06.15.14.22.26.22.17.23.3.48.37.74s.23.47.46.61c.03.23.09.43.19.59.11.16.2.31.28.46.09.15.17.31.24.5s.09.42.06.67c0 .06.02.09.06.09.05 0 .07.03.07.09-.06.32-.08.62-.04.89.03.28.04.53.04.76-.06.23-.14.5-.24.79-.11.29-.18.58-.24.87-.06.03-.11.06-.15.09-.05.03-.07.12-.07.26-.09-.03-.13 0-.15.09-.01.09-.02.15-.02.17-.06.09-.16.16-.31.22-.29.64-.63 1.18-1.03 1.62-.39.43-.77.9-1.15 1.4-.06 0-.09-.01-.07-.05.01-.03 0-.04-.06-.04a.87.87 0 0 1-.33.33c-.13.07-.27.14-.41.2-.06-.15-.01-.26.13-.33.15-.07.26-.13.35-.2.03-.06.02-.1-.02-.13s-.05-.07-.02-.13c.09 0 .13-.04.13-.13-.12-.09-.21-.08-.28.02-.08.1-.16.2-.24.28-.23.29-.49.52-.77.7s-.56.37-.85.57c-.18.09-.35.2-.5.35-.16.15-.33.26-.5.35h-.17c-.26.2-.54.36-.83.48-.29.11-.55.31-.79.56-.14-.11-.28-.12-.39-.02-.11.1-.23.18-.35.24-.41.15-.82.3-1.22.46-.41.16-.79.37-1.14.63-.03-.03-.09-.04-.18-.04-.35.23-.76.35-1.24.35s-.9.03-1.24.09c-.06 0-.09-.02-.11-.05s-.05-.07-.11-.13c-.15.2-.28.25-.4.15a.578.578 0 0 0-.39-.15c-.06 0-.09-.02-.11-.07s-.04-.08-.07-.11c-.14-.06-.26-.05-.35.02-.09.07-.2.11-.35.11 0-.06.02-.1.06-.13s.09-.07.11-.13a.801.801 0 0 0-.42-.39c-.18-.09-.4-.12-.63-.09-.03-.09-.04-.14-.02-.15s.02-.06.02-.15c-.06-.03-.09-.02-.11.02-.01.05-.05.04-.11-.02 0-.06 0-.09.03-.11.01-.02.02-.05.02-.11-.12-.06-.19-.17-.22-.35-.03-.18-.13-.29-.31-.35 0-.03-.01-.06-.04-.11s-.01-.08.04-.11c-.09-.03-.17-.03-.24 0s-.16.03-.28 0c0-.15.04-.21.11-.2a.4.4 0 0 0 .19-.02c-.09-.14-.22-.16-.39-.04-.06-.12-.06-.22 0-.31s.1-.17.13-.26c-.03-.03-.07-.03-.13 0s-.11.02-.13-.04c-.06-.06-.06-.09-.02-.09.05 0 .05-.03.02-.09-.03-.09-.06-.13-.11-.13s-.08.03-.11.09c-.06-.09-.06-.17 0-.24.06-.07.09-.15.09-.24-.03-.09-.09-.11-.2-.06-.1.04-.18.06-.23.06.03-.23.08-.38.15-.46.07-.07.12-.22.16-.46-.04-.06-.07-.09-.11-.11s-.05-.04-.02-.07c-.06-.06-.07-.11-.04-.15.03-.04.03-.09 0-.15-.06 0-.09.04-.09.11s-.04.1-.13.06c-.09.35-.18.69-.28 1.01-.1.32-.23.63-.41.92a.274.274 0 0 0-.13-.13c-.06-.03-.09-.07-.09-.13-.14.26-.29.58-.43.96-.15.38-.32.72-.53 1.05 0 .06.01.11.04.15.03.04.01.09-.04.15-.06-.06-.14-.05-.24.02-.1.07-.18.17-.24.28-.03.03-.07.03-.11 0-.04-.03-.08-.03-.11 0-.09.15-.15.27-.18.39s-.07.22-.13.31Zm3.32-6.15c.32.23.64.32.96.26.32-.06.58-.19.79-.39.14.12.28.14.41.06.13-.07.27-.12.41-.15.06 0 .08.02.06.07-.01.04 0 .08.07.11.23-.15.46-.27.7-.39s.42-.28.57-.48c.09.03.14.03.17 0s.05-.07.05-.13.03-.1.09-.13c.32-.12.58-.29.78-.53.23-.17.48-.35.75-.52s.53-.32.78-.44c.06-.03.11-.04.16-.04s.09-.01.15-.05c.15-.11.28-.23.4-.35.11-.11.26-.23.43-.35.06-.06.13-.1.2-.11s.13-.05.2-.11c.14 0 .28-.07.41-.22.13-.15.27-.26.41-.35.03-.12.06-.22.11-.31.04-.09.05-.22.02-.39-.03 0-.03-.01 0-.04.03-.12.09-.2.17-.24.09-.04.18-.09.26-.15-.43-.06-.85-.06-1.22-.02s-.75.12-1.12.24c-.36.11-.72.24-1.07.37s-.7.26-1.05.37c-.17.26-.42.43-.74.52-.03-.09-.04-.13-.02-.13s.02-.01.02-.04c-.76.26-1.49.56-2.2.9-.72.33-1.29.97-1.73 1.9-.06.03-.06.06-.02.09s.06.09.06.17c-.09.15-.17.28-.26.42-.09.13-.14.33-.17.59Zm2.18.22c-.03-.06-.13-.07-.31-.04s-.29.13-.35.31c.26-.12.48-.2.65-.26ZM58.76 137.29s-.06 0-.09-.09-.05-.2-.05-.33v-.39c0-.13.02-.24.05-.33.06-.2.14-.35.24-.44.1-.09.18-.19.24-.31.03-.09.06-.2.09-.35.03-.15.02-.22-.04-.22.15-.23.28-.5.39-.79.12-.29.22-.48.31-.56.29-.61.58-1.36.85-2.25.28-.89.56-1.62.85-2.21.23-.47.45-.94.65-1.42.21-.48.38-.98.53-1.51.15-.06.25-.26.31-.61s.2-.61.44-.78c.32-1.1.68-2.15 1.09-3.12.41-.97.73-1.99.96-3.03.15 0 .25.05.31.13 0-.17.08-.28.24-.31s.28-.01.37.04c.12.12.1.18-.04.18 0 .06.04.08.11.06.07-.01.09.04.06.15.06-.03.12-.05.17-.06.06-.01.09-.07.09-.15.09.15.19.2.31.17s.2.04.26.22c.06-.03.06-.05.02-.06-.05-.01-.05-.05-.02-.11.17.06.36.16.54.31s.4.25.63.31c.21.32.33.63.39.94.06.31.19.58.39.81-.06.29-.12.59-.2.89-.07.31-.15.62-.24.94.03.11.06.1.11-.05.05-.15.08-.16.11-.04.17-.23.39-.43.65-.59.26-.16.54-.36.83-.59-.06-.11.01-.23.22-.35.21-.12.33-.23.39-.35.17-.23.35-.5.52-.81.18-.31.35-.57.53-.81l.39-.39c.12-.11.22-.23.31-.35.14-.12.27-.26.37-.42s.22-.24.37-.24c-.06-.15 0-.28.15-.39.16-.11.3-.22.42-.31.03.09.03.14 0 .15s-.04.08-.04.2c.03.06.08.05.15-.02s.11-.13.11-.2c.09.12.17.17.26.17s.12.12.09.35c.12.03.2.01.26-.05.06-.06.04-.03-.05.09.06 0 .12-.03.2-.09.07-.06.11-.01.11.13.06-.03.1-.03.13 0s.07.01.13-.04c.06.23.17.36.35.39.18.03.26.12.26.26.15-.03.23-.05.26-.06s.07 0 .13.06c-.03.12.01.23.13.33.11.1.09.14-.09.11.06.06.1.1.13.11s.01.05-.04.11c.03-.06.07-.08.13-.06.06.01.1 0 .13-.06.03.06.08.09.15.11.07.02.12.05.15.11-.06.29.06.47.35.52 0 .09-.05.17-.13.24-.09.07-.09.15 0 .24.03-.03.05-.07.06-.11s.04-.08.07-.11c.03 0 .04.12.02.37-.01.25-.07.44-.15.59.06 0 .09.05.11.15.01.1 0 .18-.06.24.06 0 .1-.01.13-.04 0 .15-.1.4-.28.76s-.31.67-.37.94c-.12.12-.23.3-.35.55-.12.25-.16.44-.13.59-.03 0-.04-.01-.04-.05-.17.35-.32.74-.44 1.16s-.29.79-.52 1.11c-.03.03-.05-.01-.05-.13-.09.03-.11.1-.06.2.04.1.08.15.11.15-.06.06-.08.15-.07.28.01.13-.04.17-.15.11.09.15.09.26 0 .33s-.1.17-.04.28c-.06-.06-.11-.06-.15 0-.04.06-.08.07-.11.05-.17.32-.23.71-.17 1.18-.12-.06-.19-.06-.22 0s-.09.06-.17 0c.06.12.06.18 0 .2-.06.01-.12 0-.18-.02 0 .03.01.04.05.04.03.09 0 .1-.07.04-.07-.06-.12-.04-.15.04v-.13a.52.52 0 0 1-.56-.07c-.18-.13-.28-.12-.31.02-.06-.11-.09-.31-.09-.57-.15.18-.24.21-.28.09s-.14-.15-.28-.09c-.06-.11-.12-.21-.17-.28l-.17-.2c0 .09-.04.13-.13.13-.09-.29-.18-.47-.28-.52-.1-.06-.22-.25-.37-.57-.29.2-.55.44-.78.72-.23.28-.51.52-.83.72v-.09c-.06.03-.06.06 0 .11.06.04.06.11 0 .2-.06 0-.12.04-.17.13-.06.09-.12.17-.17.24a.86.86 0 0 1-.2.18c-.07.04-.14.04-.2-.02-.03.03-.01.07.04.13-.26.32-.52.66-.78 1.03s-.51.65-.74.85c-.06 0-.07 0-.04.02s.04.05.04.11c-.32.41-.65.93-1 1.55-.35.63-.64 1.14-.87 1.55-.03 0-.07.08-.13.24s-.12.27-.17.33c-.06.03-.07.03-.04 0 .03-.03.01.03-.05.17-.09.15-.21.33-.37.57-.16.23-.31.42-.46.56-.15.17-.29.33-.44.46s-.29.28-.44.46c-.09.21-.18.42-.28.66-.1.23-.24.45-.41.65-.09.15-.22.35-.39.61s-.23.54-.17.83c-.23-.03-.5-.06-.78-.09-.29-.03-.54 0-.74.09-.03-.06-.06-.15-.09-.28s-.07-.27-.13-.42c-.06.03-.1.07-.13.13s-.07.07-.13.04c0-.15-.06-.22-.18-.22s-.13-.06-.04-.18c-.15.03-.25-.02-.31-.15s-.13-.17-.22-.11c-.06-.15-.1-.25-.11-.31-.01-.06-.02-.15-.02-.26-.09-.06-.15-.07-.17-.04s-.1.04-.22.04c0-.23-.04-.36-.11-.39-.07-.03-.13-.1-.2-.22v.17c-.11-.06-.19-.16-.22-.31s0-.26.09-.35ZM78.84 127.36c.17-.16.29-.4.35-.72h.13c.03-.09 0-.12-.09-.09s-.12 0-.09-.09c.32-.38.69-.72 1.09-1.05.41-.32.76-.71 1.05-1.18.06-.03.09-.02.09.02s.01.04.04-.02c.17-.21.37-.37.59-.5.22-.13.4-.36.55-.67h.26c.21-.23.42-.41.66-.53.23-.11.44-.26.61-.43.32-.03.59-.16.81-.39.22-.23.52-.35.9-.35.06.03.09.02.09-.02 0-.05.01-.08.04-.11.32-.06.7-.11 1.13-.15s.89-.12 1.35-.24h.15s.07.01.15.05h.74c.23 0 .47.06.72.17.25.11.47.17.67.17.06 0 .1-.02.11-.07.01-.04.04-.06.06-.06.26.06.5.2.7.44.2.23.44.33.7.31.23-.58.46-1.16.67-1.73.22-.56.49-1.07.81-1.5h.17c.06-.09.11-.16.15-.22.04-.06.08-.13.11-.22.23-.06.46-.22.68-.48.22-.26.47-.36.76-.31 0 .06-.02.09-.07.09-.04 0-.08.03-.11.09.11.11.25.13.39.04.12.06.26.14.42.24.16.1.33.1.5-.02 0 .09.01.15.05.2.03.04.07.09.13.15.14-.09.27-.06.39.09s.26.13.44-.04c.12.12.22.23.33.35.1.12.23.19.37.22.17.44.38.85.61 1.24.23.39.39.87.48 1.42.03.21.02.39-.02.55-.05.16-.05.34-.02.54 0 .09-.02.15-.05.18l-.09.09c.06.17.04.36-.05.55-.09.19-.13.4-.13.63-.15.32-.28.67-.39 1.07s-.22.81-.31 1.24c0 .06-.04.09-.13.09-.17.84-.39 1.68-.63 2.51-.25.83-.52 1.64-.81 2.42-.03.06-.07.15-.11.26s-.07.2-.07.26c-.03.09-.04.17-.02.26.01.09 0 .15-.02.17-.06.17-.14.34-.24.5-.1.16-.14.37-.11.63-.29.82-.53 1.66-.7 2.53s-.38 1.76-.61 2.66c-.12.29-.25.58-.39.85-.15.28-.28.55-.39.81-.23.09-.39.23-.48.42-.09.19-.25.33-.48.42.06-.15.02-.22-.11-.22s-.26-.01-.37-.04c.21 0 .28-.13.22-.39a.887.887 0 0 1-.24-.46c-.04-.19-.14-.21-.28-.07-.06.03-.09.02-.11-.02a.413.413 0 0 0-.07-.11c-.06.03-.06.07-.02.11s.04.09-.02.15c-.2-.09-.39-.28-.57-.57s-.39-.42-.65-.39c-.03 0-.04-.03-.02-.09s0-.09-.02-.09c-.06.06-.07.09-.02.09.04 0 .04.03-.02.09-.09.06-.14.02-.15-.11s-.04-.26-.06-.37c-.06-.06-.09-.06-.09 0s-.01.06-.04 0c-.15-.84-.28-1.68-.42-2.51-.13-.83-.17-1.72-.11-2.69-.06-.09-.1-.1-.13-.04-.03.06-.07.13-.13.22-.21.21-.48.41-.83.61-.35.21-.63.42-.83.66-.06.09-.14.19-.24.31-.1.12-.22.2-.37.26-.03.06-.04.11-.04.15 0 .05-.02.08-.05.11-.84.44-1.63.96-2.35 1.57-.73.61-1.56 1.08-2.49 1.4-.03.06-.05.11-.06.17-.01.06-.04.13-.07.22-.23-.03-.5 0-.81.07-.31.07-.58.14-.81.2.06.06.16.09.31.09.03.23-.03.35-.17.35s-.25.07-.31.22c-.21-.09-.38-.15-.53-.17a2.5 2.5 0 0 0-.57-.63c-.2-.16-.4-.31-.61-.44-.2-.13-.41-.26-.63-.39-.22-.13-.43-.3-.63-.5v-.22c-.03-.06-.09-.06-.17 0-.38-.61-.72-1.32-1.03-2.14-.31-.82-.5-1.69-.59-2.62-.03-.11-.03-.18 0-.2l.09-.06c-.06-.44-.07-.81-.02-1.12.04-.31.12-.63.24-.98.03-.09.08-.17.15-.26.07-.09.14-.17.2-.26.03-.14.09-.27.17-.39.06-.15.11-.23.15-.26.04-.03.09-.06.15-.09.17-.23.33-.48.48-.72.15-.25.31-.44.48-.59h.17c.12-.2.26-.39.44-.55Zm2.31 6.4c-.06.03-.11.07-.15.13-.04.06-.04.09.02.09 0-.06.03-.08.09-.07.06.02.07-.04.04-.15Zm.57-.48c.09.06.15.07.17.05.12-.09.24-.17.37-.24.13-.07.3-.14.5-.2.15-.23.33-.4.57-.5.23-.1.44-.24.61-.41.52-.26 1.02-.54 1.48-.83.47-.29.92-.58 1.37-.87.45-.29.9-.56 1.35-.83s.92-.49 1.42-.7c.09-.2.21-.34.37-.41.16-.07.36-.17.59-.28.09-.49.18-.98.28-1.44s.18-.92.24-1.35c-.17.06-.33.13-.48.22-.15.09-.29.19-.44.31-.03 0-.04.02-.02.06.01.04 0 .08-.02.11-.35.09-.67.28-.98.57s-.62.48-.94.56c-.17.15-.34.29-.5.44s-.36.26-.59.35c-.15.2-.29.38-.44.52s-.34.25-.57.31c-.76.61-1.47 1.3-2.14 2.05-.67.76-1.35 1.45-2.05 2.09-.06.18-.15.31-.28.39-.13.09-.24.2-.33.35.12-.06.2-.09.26-.11.06-.01.12-.08.17-.2ZM98.3 134.24c.23-.79.47-1.56.7-2.32s.45-1.56.65-2.4c.09-.18.15-.39.2-.64.04-.25.13-.44.28-.59 0-.09 0-.17.02-.24.01-.07 0-.15-.02-.24.23-.23.4-.53.5-.9.1-.36.2-.75.28-1.15.2-.26.36-.58.46-.94.1-.37.21-.74.33-1.12.15-.23.25-.47.31-.72s.15-.5.26-.76c.03-.06.05-.14.06-.26s.05-.21.11-.26c.15-.32.32-.62.52-.9s.31-.62.31-1.03c.12-.03.19-.11.22-.26.03-.15.07-.25.13-.31-.03-.03-.05-.06-.05-.09s0-.06-.02-.09c-.01-.03 0-.07.02-.13.12.06.23.1.33.13s.23-.01.37-.13c.03.11.11.17.26.17a2.6 2.6 0 0 1 1 .02c.35.07.61.26.78.54.06 0 .09-.03.09-.09.06.03.08.07.06.13-.01.06 0 .1.02.13 0 .15.05.26.15.35.1.09.18.22.24.39.03.18.06.4.09.68s.07.55.13.81c0 .06.03.12.09.17.03.12.03.26 0 .44s-.01.29.04.35c0 .23-.03.51-.09.83-.06.32-.03.54.09.65-.11.29-.21.55-.28.76-.07.22-.14.46-.2.72.23-.15.43-.36.59-.63s.36-.53.59-.76c.06-.06.15-.14.28-.24.13-.1.22-.22.28-.37.17-.17.33-.37.48-.59.15-.22.29-.4.44-.55.03-.06.06-.09.11-.09.04 0 .06-.01.06-.04.26-.26.49-.58.67-.96.19-.38.44-.64.76-.78l.09-.09c.03-.03.03-.09 0-.18.2-.09.39-.22.55-.39s.32-.37.48-.57.32-.38.48-.55c.16-.16.36-.27.59-.33.17-.06.33-.09.46-.09s.3-.03.5-.09c.2.15.42.2.66.15.23-.04.42.05.56.28.06.06.1.05.11-.02.01-.07.05-.08.11-.02.17.09.33.2.48.35s.32.29.52.44c.09-.06.23-.06.44 0 .15.32.33.58.57.76.23.19.39.49.48.9.06.06.1.14.11.24.01.1.05.17.11.2.03.06.02.09-.02.09s-.06.03-.06.09c.15.41.2.79.17 1.15-.03.37-.1.75-.22 1.16l.13.13c.03.03.04.09.04.17-.03.03-.1.04-.22.04-.06.58-.16 1.07-.31 1.46s-.25.87-.31 1.42c-.06.06-.1.16-.13.31a.95.95 0 0 1-.13.35c-.03.06-.03.09 0 .09s.04.05.04.13c-.12.15-.19.38-.22.7-.03.32-.1.6-.22.83-.09.61-.22 1.21-.42 1.81-.19.6-.36 1.2-.5 1.81v.53c0 .17-.03.35-.09.52-.03.15-.07.27-.13.37-.06.1-.1.22-.13.37-.06.15-.09.26-.09.33s-.01.13-.04.17c-.03.05-.07.1-.11.17-.04.07-.11.18-.2.33.03.09.04.15.02.2s-.02.11-.02.2c-.09 0-.15-.06-.17-.17-.06.06-.07.16-.05.31s.05.25.05.31c-.09.15-.16.15-.22.02s-.15-.15-.26-.06c-.09.06-.15.17-.18.33s-.09.24-.17.24c0 .35-.06.63-.2.85-.13.22-.21.53-.24.94-.17.03-.41 0-.72-.11-.31-.1-.55-.08-.72.06-.23-.58-.43-1.08-.59-1.51s-.28-1.01-.37-1.77c-.03-.29-.02-.63.02-1 .04-.38.1-.76.17-1.16.07-.39.13-.78.17-1.18.04-.39.06-.76.06-1.11-.09-.38-.13-.8-.13-1.26s-.05-.93-.13-1.4c-.09 0-.23 0-.42.02s-.3.05-.33.11c-.17.21-.34.39-.5.55s-.31.34-.46.55c-.06.11-.11.17-.17.17l-.26.26c-.09.09-.18.15-.26.18-.35.49-.68.94-.98 1.33-.31.39-.66.8-1.07 1.2-.17.09-.33.23-.48.42s-.29.41-.44.65c-.15.25-.28.49-.42.72-.13.23-.28.41-.46.53-.11.09-.23.18-.35.28-.12.1-.2.24-.26.42-.06 0-.09.01-.11.04-.02.03-.05.02-.11-.04-.17.32-.49.64-.94.96-.45.32-.78.64-.98.96-.09 0-.16-.01-.22-.04-.06.03-.12.16-.17.39-.06.23-.12.38-.17.44-.15-.12-.24-.12-.28-.02-.05.1-.14.12-.28.06a.613.613 0 0 0-.48.02c-.15.07-.29.08-.44.02-.15.03-.24.09-.28.2s-.07.22-.07.37c-.15.03-.28.07-.41.13-.13.06-.23.19-.28.39-.21 0-.33-.16-.39-.48.12.17.17.16.17-.05 0-.06-.03-.11-.09-.17-.15.06-.2.2-.15.42s0 .37-.15.46c-.06-.12-.09-.29-.09-.52-.15.03-.31.13-.48.31-.17 0-.28-.05-.33-.15-.04-.1-.12-.15-.24-.15-.06-.12-.09-.27-.09-.46s0-.39.02-.61c.01-.22.02-.43.02-.65s-.01-.42-.04-.59c.09-.55.17-1.17.26-1.85.09-.68.2-1.27.35-1.77.03.03.06.05.09.05ZM119.08 128.87a.6.6 0 0 0 .42-.15l.37-.37c.18-.17.32-.31.44-.39.26-.23.54-.49.83-.76.29-.28.6-.53.92-.76.15-.12.3-.22.46-.33s.31-.22.46-.37c.15-.11.29-.21.44-.28.15-.07.27-.17.39-.28.06-.06.12-.12.17-.2.06-.07.13-.13.22-.2.2-.11.38-.22.54-.33s.34-.22.55-.37c.2-.09.4-.19.59-.31.19-.12.36-.28.5-.48.32-.03.62-.15.9-.35s.56-.38.85-.52c.09-.06.17-.1.26-.11.09-.01.16-.05.22-.11.26-.15.55-.27.85-.37s.62-.23.94-.37c.11.03.25.02.41-.02s.3-.09.42-.15c.85-.17 1.75-.32 2.71-.44.96-.11 1.82-.2 2.58-.26.03 0 .04.03.04.09s.03.07.09.04c.06 0 .06-.02 0-.06-.06-.04-.06-.08 0-.11.09 0 .15-.01.17-.04.15.09.26.2.35.35.09.15.21.25.35.31.06.06.06.09 0 .09s-.09.01-.09.04c.06.06.12.07.2.04.07-.03.14-.06.2-.11s.11-.08.17-.11c.06-.03.12-.01.17.04.17-.15.26-.37.26-.67s.07-.56.22-.76c-.03-.23 0-.42.07-.57.07-.15.09-.31.06-.48.03 0 .04 0 .04-.02s.03-.02.09-.02c.15-.53.27-1.05.37-1.59.1-.54.26-1.04.46-1.51 0-.12-.01-.19-.04-.22.06.03.09.01.09-.05 0-.06.03-.09.09-.09 0-.12.04-.26.11-.44.07-.17.15-.32.24-.44v-.22c.32-.64.59-1.31.81-2.01.22-.7.5-1.35.85-1.96.35-.93.79-1.78 1.33-2.55.54-.77 1.05-1.58 1.55-2.42.11-.06.2-.13.26-.22a.71.71 0 0 1 .26-.22c0-.06 0-.09-.02-.09s0-.03.02-.09c.17-.18.36-.34.57-.5.2-.16.38-.34.52-.54.17-.09.34-.19.5-.31.16-.12.31-.25.46-.39.11.06.27.09.46.09s.28.1.28.31c.09 0 .16-.03.22-.09s.11-.1.17-.13c.06 0 .12.02.17.07.06.04.12.04.17-.02.12.06.18.23.2.53.01.29-.1.44-.33.44 0 .12-.01.19-.04.22s-.04.1-.04.22c.11 0 .18-.02.2-.07.01-.04.08-.05.2-.02.06-.17.13-.22.22-.13 0 .09-.01.15-.04.2-.03.04-.07.09-.13.15.06.2.11.42.17.65.06.23.12.45.17.65-.03.03-.01.15.04.35h-.09c.06.15.06.28.02.42s-.07.26-.07.37c-.06.44-.11.89-.15 1.35-.04.47-.14.9-.28 1.31a7.41 7.41 0 0 1-.64 1.66c-.28.53-.5 1.08-.67 1.66-.17.29-.31.6-.39.92-.09.32-.19.64-.31.96-.17.41-.36.8-.54 1.16-.19.37-.31.78-.37 1.24-.12.06-.18.15-.2.28s-.05.27-.11.42c-.2.38-.36.74-.48 1.09-.03.09-.04.17-.02.26.01.09 0 .17-.02.26-.06.17-.15.35-.26.52s-.19.35-.22.52c-.12.15-.21.34-.26.57-.06.23-.12.47-.17.7-.03.06-.06.13-.09.22s-.06.16-.09.22c-.03.09-.05.17-.05.26s-.01.18-.04.26c-.03.23-.07.45-.13.66-.06.2-.1.4-.13.61v.31c0 .09-.04.16-.13.22-.03.47-.13.85-.31 1.16-.17.31-.33.65-.48 1.02-.06 0-.09.02-.09.05s-.03.04-.09.04c-.06.09-.1.19-.11.31s-.04.23-.06.35c-.12.32-.23.65-.35.98-.12.33-.21.67-.26 1.03-.03.29-.04.57-.04.85s-.05.53-.13.76c-.06-.03-.09-.04-.09-.02s-.03.04-.09.06c-.03.03-.05.06-.05.09s-.03.04-.09.04c-.06.41-.13.8-.22 1.18-.09.38-.16.77-.22 1.18 0 .06-.02.09-.07.09-.04 0-.06.03-.06.09-.06.44-.14.85-.24 1.22-.1.38-.18.73-.24 1.05 0 .06-.03.12-.09.17-.09.21-.15.42-.17.63-.03.22-.07.44-.13.68 0 .15-.03.26-.09.35-.06.09-.12.19-.17.31-.03.09-.03.19 0 .31s-.03.17-.18.17h-.09c-.03-.12-.04-.22-.04-.33s-.05-.18-.13-.24c-.09.09-.11.2-.07.33.05.13.05.27.02.41-.03.09-.05.2-.06.33-.01.13 0 .27.06.41-.15.15-.22.32-.24.53-.01.2 0 .39.06.57-.12.03-.18.12-.2.28s-.03.33-.04.5c-.02.17-.04.33-.07.48s-.13.22-.31.22c.12-.15.12-.31 0-.48-.09.06-.11.16-.06.31.04.15.05.29.02.44-.06.03-.11.03-.15 0s-.1-.04-.15-.04c-.03-.15-.03-.29 0-.44s.03-.31 0-.48c-.06.03-.09.09-.09.17s-.06.13-.17.13c-.03-.35 0-.71.09-1.07.09-.37.11-.71.09-1.03-.15.03-.23.07-.26.13s-.09.11-.18.17c-.06.58-.06 1.12 0 1.62.06.49.05 1.03-.04 1.61-.15.09-.28.07-.39-.04-.12-.12-.23-.2-.35-.26-.09.09-.15.21-.2.37s-.07.32-.09.48-.04.31-.09.44c-.05.13-.12.21-.24.24.03-.06.06-.1.09-.13s.03-.07 0-.13-.06-.09-.09-.09-.04-.01-.04-.04c0-.55 0-1.05-.02-1.48s-.07-.92-.15-1.44c-.06-.17-.08-.39-.07-.65s-.02-.48-.11-.65c0-.76.04-1.46.13-2.12.09-.65.12-1.32.09-1.99-.09.09-.16.07-.22-.05-.06.5-.1.95-.11 1.35-.01.41-.08.8-.2 1.18-.12.03-.16-.01-.13-.13.03-.11-.03-.15-.17-.09-.03-.29-.02-.57.04-.83s.12-.51.17-.74c0-.11 0-.22-.02-.33-.01-.1 0-.18.02-.24.06-.23.13-.47.22-.72a.9.9 0 0 0-.04-.72c.15-.35.2-.7.15-1.07-.04-.36 0-.74.11-1.11-.06 0-.13.03-.22.09s-.15.13-.17.22c0-.03-.04-.05-.13-.05-.32.23-.62.46-.89.68-.28.22-.58.43-.9.63v.17c-.23.15-.44.31-.61.48s-.38.29-.61.35c-.06 0-.07.02-.05.06s.01.08-.04.11c-.35.12-.69.26-1.03.42s-.67.33-1.03.5c-.78.41-1.54.76-2.27 1.05-.15.09-.31.16-.48.22-.17.06-.35.13-.52.22v.04l-.04.04s-.1-.03-.22-.09c-.06 0-.09.01-.09.04s-.02.04-.05.04c-.32.06-.68.12-1.09.17-.41.06-.78.12-1.13.18-.41-.03-.83-.06-1.27-.09s-.81-.12-1.13-.26c-.55-.26-1.02-.62-1.4-1.07-.38-.45-.77-.91-1.18-1.37a.76.76 0 0 1-.35.09c-.15-.38-.25-.76-.31-1.14-.06-.38-.03-.78.09-1.22-.03-.03-.06-.04-.11-.02-.04.01-.08.02-.11.02.09-.12.1-.25.04-.39s-.12-.25-.17-.31c.38-.96.65-2.04.83-3.23Zm8.6 2.88c.06-.06.12-.11.17-.17.06-.06.1-.03.13.09.26-.12.52-.23.78-.33s.53-.18.78-.24c.15-.17.31-.27.5-.28.19-.01.37-.05.54-.11.09 0 .17-.03.26-.09s.17-.1.26-.13c.06-.06.11-.08.15-.07.04.02.09.01.15-.02.03-.03.04-.05.04-.06s.03-.04.09-.07c.14-.06.27-.09.37-.11s.21-.07.33-.15c.06.03.07.02.04-.02-.03-.05-.01-.07.05-.07.35-.03.65-.1.9-.22s.49-.25.72-.39c.15-.06.27-.1.37-.13.1-.03.24-.06.42-.09.09-.03.15-.06.2-.09s.09-.07.15-.13c.23-.15.43-.24.59-.28.16-.04.34-.12.54-.24.03-.15.05-.33.05-.57s.07-.38.22-.44c0-.47.09-.93.26-1.4s.19-.89.04-1.26c-.09-.03-.14-.02-.15.02-.01.04-.06.06-.15.06-.03 0-.03-.01 0-.04s.01-.03-.04 0c-.23.09-.45.14-.66.15-.2.01-.38.12-.52.33-.03 0-.05 0-.06-.02a.145.145 0 0 0-.07-.02c-.06.06-.14.11-.24.15-.1.04-.18.09-.24.15-.81.38-1.59.79-2.31 1.24-.73.45-1.48.88-2.27 1.29 0 .06-.09.15-.26.26-.06.12-.15.21-.28.28a.87.87 0 0 0-.33.33c-.06 0-.1.01-.13.05-.03.03-.07.04-.13.04-.12.12-.19.22-.22.31-.06 0-.1 0-.11.02s-.05.02-.11.02c-.32.32-.63.63-.94.92s-.62.58-.94.87c-.06.23-.2.42-.42.55-.22.13-.38.3-.5.5v.04c.32-.03.63-.09.94-.2s.65-.18 1.03-.24Zm9.08-4.54c-.03.17-.04.3-.02.37.01.07 0 .18-.02.33.09-.06.15-.17.2-.33s0-.28-.15-.37Zm.13-.13c0-.06.01-.1.04-.13s0-.05-.09-.05c0 .12.01.17.05.17Zm.13-.74c.03.06.01.11-.05.15-.06.04-.09.11-.09.2.09.03.15-.01.17-.13s.01-.19-.04-.22Zm1.44 13.79c.06-.06.07-.1.04-.13-.03-.03-.03-.05 0-.05-.06 0-.09.03-.09.09s.01.09.04.09ZM157.14 115.12c.06.06.1.05.13-.02s.09-.09.17-.06c0 .03-.01.07-.04.13.06 0 .1-.01.13-.05.03-.03.07-.06.13-.09.06.06.06.1 0 .13s-.06.07 0 .13c0 .06-.04.09-.11.09s-.08.03-.02.09c.06.03.11 0 .17-.09.06-.09.12-.11.17-.09 0 .11-.01.2-.04.26.17-.06.29-.16.35-.31s.16-.22.31-.22c.03.06.06.11.09.15.03.04.07.1.13.15.03-.03.08-.04.15-.04s.15-.01.24-.05c.12.06.2.05.24-.04.04-.09.11-.13.2-.13.06.03.04.12-.04.26.06.03.11.02.15-.02.04-.04.08-.1.11-.15.09.15.22.27.39.37.17.1.33.23.48.37.03 0 .04-.02.02-.07-.01-.04 0-.06.07-.06.06.23.11.36.17.39.09.32.19.58.31.79.12.2.17.43.17.7-.03.12-.05.23-.06.35-.02.11-.04.2-.07.26-.09.35-.16.67-.22.96-.06.29-.04.56.04.83.12.38.16.77.13 1.18-.06 0-.09 0-.09.02s-.01.02-.04.02c0 .38-.06.73-.2 1.05s-.27.64-.42.96c-.15.38-.26.75-.33 1.12-.07.36-.2.72-.37 1.07 0 .06 0 .09-.02.09s0 .03.02.09c-.09.06-.13.15-.13.28s-.05.22-.13.28c-.06 0-.12-.03-.17-.09-.23.06-.41.19-.53.39-.12.2-.29.33-.52.39.03-.09.02-.11-.02-.06-.05.04-.07.04-.07-.02-.06-.03-.09-.02-.09.02s-.01.06-.04.06c-.12 0-.17-.06-.17-.17-.06.06-.09.07-.09.02 0-.04-.03-.04-.09.02-.06.03-.08.02-.07-.04.02-.06 0-.1-.06-.13-.15.06-.27.03-.37-.09a.463.463 0 0 0-.37-.17c-.12-.15-.28-.23-.48-.26s-.37-.13-.48-.31c-.06-.15-.12-.26-.2-.33-.07-.07-.14-.15-.2-.24-.03-.23-.09-.38-.17-.44-.09-.06-.13-.17-.13-.35-.15-.09-.24-.18-.28-.28l-.15-.37c.06-.09.07-.21.05-.35-.03-.15-.07-.25-.13-.31.09-.17.11-.35.09-.52-.2.06-.4.12-.59.2-.19.07-.4.14-.63.2-.44.32-.87.61-1.31.87-.44.26-.82.6-1.14 1.01-.03 0-.04 0-.04-.02s-.01-.02-.04-.02c-.29.32-.56.64-.81.94-.25.31-.52.59-.81.85.03.09.03.15 0 .17.49.38 1.24.61 2.23.7.06.03.12.04.2.02.07-.01.15-.02.24-.02.12.03.27.06.46.11.19.04.39.06.59.06.29.03.59.05.9.07s.6.05.9.11c.32.06.66.11 1.03.15l1.07.15c.06 0 .1-.02.13-.06s.06-.07.09-.07l.18.09c.06.03.11.04.17.04.15.06.31.07.48.05s.33-.07.48-.13c.49-.06.81.03.96.26.21-.03.41-.03.61 0l.61.09c.06.03.12.03.2 0 .07-.03.14-.03.2 0 .09.03.16.08.22.15.06.07.14.12.26.15.03.03.06.04.09.02s.04 0 .04.02c.23.12.43.22.59.31.16.09.31.19.46.31.06.18.15.28.26.33.11.04.19.12.22.24 0 .03 0 .02.02-.02s.04-.04.07.02c-.12.26-.1.61.04 1.05.03.06.07.12.13.17v.17c0 .09.03.15.09.17-.03.23-.08.44-.15.61-.07.17-.13.36-.2.56-.09 0-.16.01-.22.05-.06.03-.15.04-.26.04-.2.26-.45.45-.74.57-.29.11-.55.29-.78.52-.35.12-.58.2-.7.26-.78.26-1.56.54-2.33.83s-1.58.54-2.42.74c-.06 0-.08.03-.06.09.01.06-.01.09-.07.09-.09 0-.13-.03-.13-.09a5.1 5.1 0 0 1-1.29.48c-.42.09-.87.22-1.33.39-.03 0-.04.03-.04.09-.99.26-1.95.6-2.88 1.01-.32.12-.6.23-.85.35s-.53.17-.85.17c0 .03 0 .05-.02.07s-.02.05-.02.11c-.15 0-.25-.01-.31-.04-.32.06-.62.12-.9.2a6.2 6.2 0 0 0-.76.24c-.09.03-.17.06-.26.11-.09.04-.17.09-.26.15-.23.06-.46.08-.68.06a.818.818 0 0 0-.59.2c-.32-.03-.64 0-.96.07-.32.07-.68.09-1.09.06 0-.15.03-.24.09-.28.06-.04.09-.09.09-.15.06.06.13.08.22.07.09-.01.15-.05.18-.11.06-.06.07-.11.04-.15s-.04-.1-.04-.15c-.09 0-.19 0-.31.02-.12.01-.21.05-.26.11-.06.03-.12.08-.17.15-.06.07-.13.09-.22.06 0-.06.02-.12.07-.2.04-.07.09-.14.15-.2h-.05v-.09c-.06.03-.1.03-.13 0s-.06-.01-.09.04c-.06-.03-.07-.06-.04-.11.03-.05.03-.08 0-.11-.09.03-.12.06-.09.11.03.04.04.09.04.15-.15.06-.23.05-.26-.02s-.07-.08-.13-.02c-.06-.11-.04-.22.06-.33.1-.1.11-.21.02-.33-.06.03-.11.06-.15.09-.04.03-.09.03-.15 0a.672.672 0 0 1 .02-.37c.05-.13.04-.25-.02-.37.06-.06.12-.12.17-.2.06-.07.12-.11.18-.11-.03-.2.02-.33.15-.39s.18-.16.15-.31c.15-.06.25-.11.33-.15.07-.04.18-.05.33-.02.44-.23.84-.39 1.22-.48.38-.09.77-.23 1.18-.44-.03-.09-.06-.1-.09-.04-.03.06-.06.07-.09.04.47-.32.99-.58 1.57-.78s1.09-.47 1.53-.78c.06.03.1.03.11 0s.04-.01.06.04c.26-.15.55-.26.85-.35.31-.09.54-.25.72-.48.06 0 .12-.02.2-.06.07-.04.14-.06.2-.06.38-.26.79-.5 1.24-.7s.88-.44 1.29-.7c-.06-.06-.12-.09-.17-.09-.03 0-.06 0-.09.02s-.06.02-.09.02c-.12-.06-.26-.08-.42-.06s-.31.02-.46.02c-.15-.03-.3-.07-.46-.11s-.31-.09-.46-.15c-.15-.06-.28-.08-.42-.06s-.27 0-.42-.07c-.15-.11-.32-.19-.52-.22-.21-.03-.38-.07-.53-.13-.2-.35-.47-.58-.81-.7a1.16 1.16 0 0 1-.72-.7c-.44-.15-.7-.39-.81-.74-.1-.35-.26-.69-.46-1.01-.06 0-.07.04-.04.11.03.07.01.12-.05.15-.11-.23-.15-.54-.09-.92s.1-.69.13-.92c.06-.15.09-.28.09-.42s.06-.26.17-.37c-.15-.15-.25-.23-.31-.26-.03-.15-.01-.25.05-.31.06-.06.15-.13.26-.22.15-.2.25-.47.31-.78.21-.15.37-.33.48-.54.11-.22.25-.42.39-.59 0 .03.01.04.04.04.29-.23.59-.48.9-.74s.6-.52.9-.78c.21-.06.39-.17.57-.35.32-.23.61-.49.87-.76s.55-.5.87-.68c.03-.06.08-.09.15-.11.07-.01.11-.08.11-.2.29-.06.56-.19.81-.39.25-.21.56-.35.94-.44.03 0 .09-.07.17-.22.41-.06.81-.2 1.2-.42.39-.22.79-.25 1.2-.11.03-.15.04-.26.02-.33-.01-.07-.02-.2-.02-.37.06-.06.11-.06.17 0 .12-.17.26-.33.42-.46s.28-.33.37-.59c.12 0 .19-.04.22-.13s.09-.16.17-.22l-.09.09Zm-15.28 22.56c.03-.09.02-.13-.04-.13s-.09.03-.09.09c.03.03.07.04.13.04Zm3.32-2.66c-.12 0-.17.06-.17.17.12 0 .17-.06.17-.17ZM175.9 139.43c-.06.03-.06.05-.02.06.05.01.05.05.02.11-.23-.03-.39-.12-.48-.28-.09-.16-.2-.3-.35-.42-.03-.38-.1-.67-.22-.87 0-.06.03-.09.09-.09a.122.122 0 0 0-.09-.04c-.03 0-.06-.01-.09-.04-.06-.58-.12-1.07-.2-1.46-.07-.39-.1-.9-.07-1.51 0-.03.03-.07.09-.13-.03-.49.01-.96.13-1.4.11-.44.2-.86.26-1.26.12-.18.21-.39.26-.66s.09-.51.09-.74h.04c.09-.47.21-.88.37-1.24s.31-.72.46-1.07c0-.06-.02-.09-.06-.09s-.05-.04-.02-.13c.17-.35.32-.7.44-1.05.11-.35.25-.69.39-1.01-.17-.03-.3-.05-.37-.06-.07-.01-.2 0-.37.02-.15-.09-.35-.11-.61-.07-.26.05-.47.07-.61.07-.32.03-.63-.03-.92-.17s-.6-.28-.92-.39c0-.06 0-.09.02-.11.02-.01.02-.05.02-.11a.353.353 0 0 0-.18-.11c-.06-.01-.1-.05-.13-.11.06-.17.03-.29-.09-.35s-.2-.16-.26-.31c-.06 0-.1.01-.13.04s-.07.03-.13 0c.06-.15.03-.22-.09-.24s-.22-.04-.31-.07c-.06-.06-.07-.1-.02-.13.04-.03.06-.06.06-.09-.09-.06-.17-.06-.24 0-.07.06-.18.09-.33.09.03-.06.07-.09.11-.11.04-.02.08-.05.11-.11-.09-.09-.17-.12-.26-.09-.06-.23-.06-.39 0-.48.15 0 .22.01.22.04.06-.09.08-.16.06-.22s-.02-.15-.02-.26c.15.09.31.15.5.17.19.03.33-.06.42-.26.15.09.26.09.33.02.07-.07.18-.11.33-.11.06 0 .09-.01.09-.04s.01-.07.04-.13c.32-.06.6-.11.83-.15.23-.04.49-.12.78-.24.23 0 .44-.02.61-.06s.35-.1.52-.17c.17-.07.35-.13.53-.17.17-.05.38-.05.61-.02.23-.26.47-.4.72-.41.25-.01.52-.07.81-.15.2-.44.39-.9.57-1.37.17-.48.38-.92.61-1.33-.03-.06-.03-.11 0-.15.03-.04.04-.1.04-.15.23-.32.42-.66.57-1.03.15-.36.33-.72.56-1.07.06-.09.1-.18.13-.28s.07-.21.13-.33c.06-.09.13-.17.22-.24.09-.07.16-.18.22-.33.09-.15.16-.31.22-.5s.13-.36.22-.5c0-.03.01-.04.04-.02s.04.01.04-.02c.03-.03.04-.06.02-.09s-.01-.07.02-.13.07-.11.13-.15c.06-.04.1-.11.13-.2.06-.09.1-.18.11-.26.01-.09.05-.17.11-.26.06-.12.15-.26.26-.44.06-.15.11-.29.15-.44.04-.15.11-.25.2-.31.03-.2.09-.36.17-.46.09-.1.15-.25.17-.46.09-.09.17-.2.26-.35s.17-.29.26-.44c.17-.44.39-.87.65-1.31.12-.2.21-.42.28-.65.07-.23.18-.44.33-.61-.03-.12-.03-.2 0-.26s.07-.11.13-.17v-.26c.2-.23.44-.39.7-.48l.24-.24c.07-.07.18-.14.33-.2.03.12.03.18 0 .2s-.06.05-.09.11c.09.06.15.1.2.11s.12 0 .24-.02c.06-.09.12-.15.2-.2.07-.05.12-.11.15-.2.06 0 .12.04.17.11.06.07.06.14 0 .2.06.06.1.07.11.02.01-.05.05-.07.11-.07s.1.03.11.09c.01.06.05.09.11.09.15 0 .26-.03.33-.09s.17-.09.28-.09a.772.772 0 0 1-.06-.15c-.02-.04 0-.09.06-.15.23.06.44.18.63.37s.4.28.63.28c.12.21.26.37.44.48.17.11.35.23.53.35 0 .35.11.6.35.74-.03.23-.02.4.02.5.04.1.02.23-.06.37.03.06.05.11.06.17.01.06.02.13.02.22-.15.44-.29.89-.44 1.35s-.36.86-.65 1.18c0 .23-.04.44-.13.61-.09.17-.2.33-.33.48s-.26.31-.37.48c-.12.17-.19.38-.22.61-.17.32-.38.66-.61 1.01.03.2-.02.36-.15.48s-.21.29-.24.53c-.03 0-.04 0-.04.02s-.03.02-.09.02c-.26.61-.58 1.17-.94 1.66s-.66 1.05-.89 1.66c-.06.06-.11.12-.15.17-.05.06-.08.16-.11.31.38.06.72.07 1.03.04s.57-.07.81-.13c.15-.03.29-.04.44-.02s.29.02.44.02c.67-.06 1.45-.1 2.33-.13.89-.03 1.8-.04 2.73-.04.03.03.04.07.02.13-.01.06 0 .12.07.17.06 0 .1-.03.13-.09s.07-.06.13 0c.06.23.02.4-.11.5s-.26.21-.37.33c.17.06.29.1.35.13 0 .06.02.09.05.09s.03.03 0 .09c-.06.06-.1.07-.13.04-.03-.03-.07-.04-.13-.04-.09.29-.26.46-.52.5-.26.05-.51.11-.74.2.03-.06-.02-.09-.13-.09-.09 0-.15.04-.17.13-.03.09-.1.13-.22.13 0 .09 0 .14-.02.15s0 .04.07.06c.06-.03.11-.07.15-.13.04-.06.11-.09.2-.09 0 .09-.02.13-.07.13-.04 0-.06.03-.06.09s.03.08.09.07c.06-.01.11-.02.17-.02-.03.06-.05.11-.07.15-.01.04-.04.08-.06.11-.17.09-.34.16-.5.22-.16.06-.3.16-.42.31-.21.06-.39.1-.57.13s-.33.09-.48.17c-.15-.06-.3-.02-.46.11-.16.13-.34.23-.55.28-.06 0-.11 0-.15-.02-.04-.01-.09 0-.15.02-.26.06-.54.15-.85.28s-.62.18-.94.15c-.03 0-.04.01-.02.05.01.03 0 .06-.02.09-.67-.03-1.32.05-1.96.24-.64.19-1.26.36-1.88.5-.15.32-.29.59-.44.81-.15.22-.25.49-.31.81-.12.2-.23.41-.33.63-.1.22-.18.43-.24.63-.12.26-.26.51-.42.74s-.27.54-.33.92a3.6 3.6 0 0 0-.7 1.31c-.15.49-.32.97-.53 1.44-.03.23-.09.51-.17.83s-.19.61-.31.87c-.12.53-.26 1.05-.44 1.59s-.29 1.05-.35 1.55c-.06.26-.1.5-.13.72-.03.22-.07.44-.13.67 0 .09-.04.15-.13.17-.03.06-.02.09.02.09.05 0 .07.03.07.09-.38.49-.67 1.04-.87 1.66-.03.03-.09.04-.17.04-.06.06-.07.11-.04.17.03.06.01.13-.05.22-.11 0-.19-.04-.22-.13a.537.537 0 0 0-.13-.22c-.09.17-.06.29.09.35-.12.03-.21.03-.26 0 0 .06.01.11.04.15.03.05.01.08-.04.11-.09 0-.13-.05-.13-.15v-.28c-.06.12-.1.19-.13.22-.12 0-.15-.09-.09-.26-.15 0-.22.03-.22.09a.821.821 0 0 1-.22-.33c-.03-.1-.07-.24-.13-.41l-.04-.05s-.05.01-.05.05c-.03-.06-.05-.1-.06-.13s-.04-.07-.07-.13Zm-3.49-15.41c-.09 0-.13.05-.13.13.09 0 .13-.04.13-.13Zm.79.88c0-.06-.06-.12-.18-.17 0 .06.06.12.18.17Zm1.27.96c0-.06-.03-.09-.09-.11-.06-.01-.1 0-.13.06.03.03.07.05.13.06.06.02.09.01.09-.02ZM188.56 137.29s-.06 0-.09-.09-.05-.2-.05-.33v-.39c0-.13.02-.24.05-.33.06-.2.14-.35.24-.44.1-.09.18-.19.24-.31.03-.09.06-.2.09-.35.03-.15.02-.22-.04-.22.15-.23.28-.5.39-.79.12-.29.22-.48.31-.56.29-.61.58-1.36.85-2.25.28-.89.56-1.62.85-2.21.23-.47.45-.94.65-1.42.21-.48.38-.98.53-1.51.15-.06.25-.26.31-.61s.2-.61.44-.78c.32-1.1.68-2.15 1.09-3.12.41-.97.73-1.99.96-3.03.15 0 .25.05.31.13 0-.17.08-.28.24-.31s.28-.01.37.04c.12.12.1.18-.04.18 0 .06.04.08.11.06.07-.01.09.04.06.15.06-.03.12-.05.17-.06.06-.01.09-.07.09-.15.09.15.19.2.31.17s.2.04.26.22c.06-.03.06-.05.02-.06-.05-.01-.05-.05-.02-.11.17.06.36.16.54.31s.4.25.63.31c.21.32.33.63.39.94.06.31.19.58.39.81-.06.29-.12.59-.2.89-.07.31-.15.62-.24.94.03.11.06.1.11-.05.05-.15.08-.16.11-.04.17-.23.39-.43.65-.59.26-.16.54-.36.83-.59-.06-.11.01-.23.22-.35.21-.12.33-.23.39-.35.17-.23.35-.5.52-.81.18-.31.35-.57.53-.81l.39-.39c.12-.11.22-.23.31-.35.14-.12.27-.26.37-.42s.22-.24.37-.24c-.06-.15 0-.28.15-.39.16-.11.3-.22.42-.31.03.09.03.14 0 .15s-.04.08-.04.2c.03.06.08.05.15-.02s.11-.13.11-.2c.09.12.17.17.26.17s.12.12.09.35c.12.03.2.01.26-.05.06-.06.04-.03-.05.09.06 0 .12-.03.2-.09.07-.06.11-.01.11.13.06-.03.1-.03.13 0s.07.01.13-.04c.06.23.17.36.35.39.18.03.26.12.26.26.15-.03.23-.05.26-.06s.07 0 .13.06c-.03.12.01.23.13.33.11.1.09.14-.09.11.06.06.1.1.13.11s.01.05-.04.11c.03-.06.07-.08.13-.06.06.01.1 0 .13-.06.03.06.08.09.15.11.07.02.12.05.15.11-.06.29.06.47.35.52 0 .09-.05.17-.13.24-.09.07-.09.15 0 .24.03-.03.05-.07.06-.11s.04-.08.07-.11c.03 0 .04.12.02.37-.01.25-.07.44-.15.59.06 0 .09.05.11.15.01.1 0 .18-.06.24.06 0 .1-.01.13-.04 0 .15-.1.4-.28.76s-.31.67-.37.94c-.12.12-.23.3-.35.55-.12.25-.16.44-.13.59-.03 0-.04-.01-.04-.05-.17.35-.32.74-.44 1.16s-.29.79-.52 1.11c-.03.03-.05-.01-.05-.13-.09.03-.11.1-.06.2.04.1.08.15.11.15-.06.06-.08.15-.07.28.01.13-.04.17-.15.11.09.15.09.26 0 .33s-.1.17-.04.28c-.06-.06-.11-.06-.15 0-.04.06-.08.07-.11.05-.17.32-.23.71-.17 1.18-.12-.06-.19-.06-.22 0s-.09.06-.17 0c.06.12.06.18 0 .2-.06.01-.12 0-.18-.02 0 .03.01.04.05.04.03.09 0 .1-.07.04-.07-.06-.12-.04-.15.04v-.13a.52.52 0 0 1-.56-.07c-.18-.13-.28-.12-.31.02-.06-.11-.09-.31-.09-.57-.15.18-.24.21-.28.09s-.14-.15-.28-.09c-.06-.11-.12-.21-.17-.28l-.17-.2c0 .09-.04.13-.13.13-.09-.29-.18-.47-.28-.52-.1-.06-.22-.25-.37-.57-.29.2-.55.44-.78.72-.23.28-.51.52-.83.72v-.09c-.06.03-.06.06 0 .11.06.04.06.11 0 .2-.06 0-.12.04-.17.13-.06.09-.12.17-.17.24a.86.86 0 0 1-.2.18c-.07.04-.14.04-.2-.02-.03.03-.01.07.04.13-.26.32-.52.66-.78 1.03s-.51.65-.74.85c-.06 0-.07 0-.04.02s.04.05.04.11c-.32.41-.65.93-1 1.55-.35.63-.64 1.14-.87 1.55-.03 0-.07.08-.13.24s-.12.27-.17.33c-.06.03-.07.03-.04 0 .03-.03.01.03-.05.17-.09.15-.21.33-.37.57-.16.23-.31.42-.46.56-.15.17-.29.33-.44.46s-.29.28-.44.46c-.09.21-.18.42-.28.66-.1.23-.24.45-.41.65-.09.15-.22.35-.39.61s-.23.54-.17.83c-.23-.03-.5-.06-.78-.09-.29-.03-.54 0-.74.09-.03-.06-.06-.15-.09-.28s-.07-.27-.13-.42c-.06.03-.1.07-.13.13s-.07.07-.13.04c0-.15-.06-.22-.18-.22s-.13-.06-.04-.18c-.15.03-.25-.02-.31-.15s-.13-.17-.22-.11c-.06-.15-.1-.25-.11-.31-.01-.06-.02-.15-.02-.26-.09-.06-.15-.07-.17-.04s-.1.04-.22.04c0-.23-.04-.36-.11-.39-.07-.03-.13-.1-.2-.22v.17c-.11-.06-.19-.16-.22-.31s0-.26.09-.35ZM208.64 127.36c.17-.16.29-.4.35-.72h.13c.03-.09 0-.12-.09-.09s-.12 0-.09-.09c.32-.38.69-.72 1.09-1.05.41-.32.76-.71 1.05-1.18.06-.03.09-.02.09.02s.01.04.04-.02c.17-.21.37-.37.59-.5.22-.13.4-.36.55-.67h.26c.21-.23.42-.41.66-.53.23-.11.44-.26.61-.43.32-.03.59-.16.81-.39.22-.23.52-.35.9-.35.06.03.09.02.09-.02 0-.05.01-.08.04-.11.32-.06.7-.11 1.13-.15s.89-.12 1.35-.24h.15s.07.01.15.05h.74c.23 0 .47.06.72.17.25.11.47.17.67.17.06 0 .1-.02.11-.07.01-.04.04-.06.06-.06.26.06.5.2.7.44.2.23.44.33.7.31.23-.58.46-1.16.67-1.73.22-.56.49-1.07.81-1.5h.17c.06-.09.11-.16.15-.22.04-.06.08-.13.11-.22.23-.06.46-.22.68-.48.22-.26.47-.36.76-.31 0 .06-.02.09-.07.09-.04 0-.08.03-.11.09.11.11.25.13.39.04.12.06.26.14.42.24.16.1.33.1.5-.02 0 .09.01.15.05.2.03.04.07.09.13.15.14-.09.27-.06.39.09s.26.13.44-.04c.12.12.22.23.33.35.1.12.23.19.37.22.17.44.38.85.61 1.24.23.39.39.87.48 1.42.03.21.02.39-.02.55-.05.16-.05.34-.02.54 0 .09-.02.15-.05.18l-.09.09c.06.17.04.36-.05.55-.09.19-.13.4-.13.63-.15.32-.28.67-.39 1.07s-.22.81-.31 1.24c0 .06-.04.09-.13.09-.17.84-.39 1.68-.63 2.51-.25.83-.52 1.64-.81 2.42-.03.06-.07.15-.11.26s-.07.2-.07.26c-.03.09-.04.17-.02.26.01.09 0 .15-.02.17-.06.17-.14.34-.24.5-.1.16-.14.37-.11.63-.29.82-.53 1.66-.7 2.53s-.38 1.76-.61 2.66c-.12.29-.25.58-.39.85-.15.28-.28.55-.39.81-.23.09-.39.23-.48.42-.09.19-.25.33-.48.42.06-.15.02-.22-.11-.22s-.26-.01-.37-.04c.21 0 .28-.13.22-.39a.887.887 0 0 1-.24-.46c-.04-.19-.14-.21-.28-.07-.06.03-.09.02-.11-.02a.413.413 0 0 0-.07-.11c-.06.03-.06.07-.02.11s.04.09-.02.15c-.2-.09-.39-.28-.57-.57s-.39-.42-.65-.39c-.03 0-.04-.03-.02-.09s0-.09-.02-.09c-.06.06-.07.09-.02.09.04 0 .04.03-.02.09-.09.06-.14.02-.15-.11s-.04-.26-.06-.37c-.06-.06-.09-.06-.09 0s-.01.06-.04 0c-.15-.84-.28-1.68-.42-2.51-.13-.83-.17-1.72-.11-2.69-.06-.09-.1-.1-.13-.04-.03.06-.07.13-.13.22-.21.21-.48.41-.83.61-.35.21-.63.42-.83.66-.06.09-.14.19-.24.31-.1.12-.22.2-.37.26-.03.06-.04.11-.04.15 0 .05-.02.08-.05.11-.84.44-1.63.96-2.35 1.57-.73.61-1.56 1.08-2.49 1.4-.03.06-.05.11-.06.17-.01.06-.04.13-.07.22-.23-.03-.5 0-.81.07-.31.07-.58.14-.81.2.06.06.16.09.31.09.03.23-.03.35-.17.35s-.25.07-.31.22c-.21-.09-.38-.15-.53-.17a2.5 2.5 0 0 0-.57-.63c-.2-.16-.4-.31-.61-.44-.2-.13-.41-.26-.63-.39-.22-.13-.43-.3-.63-.5v-.22c-.03-.06-.09-.06-.17 0-.38-.61-.72-1.32-1.03-2.14-.31-.82-.5-1.69-.59-2.62-.03-.11-.03-.18 0-.2l.09-.06c-.06-.44-.07-.81-.02-1.12.04-.31.12-.63.24-.98.03-.09.08-.17.15-.26.07-.09.14-.17.2-.26.03-.14.09-.27.17-.39.06-.15.11-.23.15-.26.04-.03.09-.06.15-.09.17-.23.33-.48.48-.72.15-.25.31-.44.48-.59h.17c.12-.2.26-.39.44-.55Zm2.31 6.4c-.06.03-.11.07-.15.13-.04.06-.04.09.02.09 0-.06.03-.08.09-.07.06.02.07-.04.04-.15Zm.57-.48c.09.06.15.07.17.05.12-.09.24-.17.37-.24.13-.07.3-.14.5-.2.15-.23.33-.4.57-.5.23-.1.44-.24.61-.41.52-.26 1.02-.54 1.48-.83.47-.29.92-.58 1.37-.87.45-.29.9-.56 1.35-.83s.92-.49 1.42-.7c.09-.2.21-.34.37-.41.16-.07.36-.17.59-.28.09-.49.18-.98.28-1.44s.18-.92.24-1.35c-.17.06-.33.13-.48.22-.15.09-.29.19-.44.31-.03 0-.04.02-.02.06.01.04 0 .08-.02.11-.35.09-.67.28-.98.57s-.62.48-.94.56c-.17.15-.34.29-.5.44s-.36.26-.59.35c-.15.2-.29.38-.44.52s-.34.25-.57.31c-.76.61-1.47 1.3-2.14 2.05-.67.76-1.35 1.45-2.05 2.09-.06.18-.15.31-.28.39-.13.09-.24.2-.33.35.12-.06.2-.09.26-.11.06-.01.12-.08.17-.2ZM228.1 134.24c.23-.79.47-1.56.7-2.32s.45-1.56.65-2.4c.09-.18.15-.39.2-.64.04-.25.13-.44.28-.59 0-.09 0-.17.02-.24.01-.07 0-.15-.02-.24.23-.23.4-.53.5-.9.1-.36.2-.75.28-1.15.2-.26.36-.58.46-.94.1-.37.21-.74.33-1.12.15-.23.25-.47.31-.72s.15-.5.26-.76c.03-.06.05-.14.06-.26s.05-.21.11-.26c.15-.32.32-.62.52-.9s.31-.62.31-1.03c.12-.03.19-.11.22-.26.03-.15.07-.25.13-.31-.03-.03-.05-.06-.05-.09s0-.06-.02-.09c-.01-.03 0-.07.02-.13.12.06.23.1.33.13s.23-.01.37-.13c.03.11.11.17.26.17a2.6 2.6 0 0 1 1 .02c.35.07.61.26.78.54.06 0 .09-.03.09-.09.06.03.08.07.06.13-.01.06 0 .1.02.13 0 .15.05.26.15.35.1.09.18.22.24.39.03.18.06.4.09.68s.07.55.13.81c0 .06.03.12.09.17.03.12.03.26 0 .44s-.01.29.04.35c0 .23-.03.51-.09.83-.06.32-.03.54.09.65-.11.29-.21.55-.28.76-.07.22-.14.46-.2.72.23-.15.43-.36.59-.63s.36-.53.59-.76c.06-.06.15-.14.28-.24.13-.1.22-.22.28-.37.17-.17.33-.37.48-.59.15-.22.29-.4.44-.55.03-.06.06-.09.11-.09.04 0 .06-.01.06-.04.26-.26.49-.58.67-.96.19-.38.44-.64.76-.78l.09-.09c.03-.03.03-.09 0-.18.2-.09.39-.22.55-.39s.32-.37.48-.57.32-.38.48-.55c.16-.16.36-.27.59-.33.17-.06.33-.09.46-.09s.3-.03.5-.09c.2.15.42.2.66.15.23-.04.42.05.56.28.06.06.1.05.11-.02.01-.07.05-.08.11-.02.17.09.33.2.48.35s.32.29.52.44c.09-.06.23-.06.44 0 .15.32.33.58.57.76.23.19.39.49.48.9.06.06.1.14.11.24.01.1.05.17.11.2.03.06.02.09-.02.09s-.06.03-.06.09c.15.41.2.79.17 1.15-.03.37-.1.75-.22 1.16l.13.13c.03.03.04.09.04.17-.03.03-.1.04-.22.04-.06.58-.16 1.07-.31 1.46s-.25.87-.31 1.42c-.06.06-.1.16-.13.31a.95.95 0 0 1-.13.35c-.03.06-.03.09 0 .09s.04.05.04.13c-.12.15-.19.38-.22.7-.03.32-.1.6-.22.83-.09.61-.22 1.21-.42 1.81-.19.6-.36 1.2-.5 1.81v.53c0 .17-.03.35-.09.52-.03.15-.07.27-.13.37-.06.1-.1.22-.13.37-.06.15-.09.26-.09.33s-.01.13-.04.17c-.03.05-.07.1-.11.17-.04.07-.11.18-.2.33.03.09.04.15.02.2s-.02.11-.02.2c-.09 0-.15-.06-.17-.17-.06.06-.07.16-.05.31s.05.25.05.31c-.09.15-.16.15-.22.02s-.15-.15-.26-.06c-.09.06-.15.17-.18.33s-.09.24-.17.24c0 .35-.06.63-.2.85-.13.22-.21.53-.24.94-.17.03-.41 0-.72-.11-.31-.1-.55-.08-.72.06-.23-.58-.43-1.08-.59-1.51s-.28-1.01-.37-1.77c-.03-.29-.02-.63.02-1 .04-.38.1-.76.17-1.16.07-.39.13-.78.17-1.18.04-.39.06-.76.06-1.11-.09-.38-.13-.8-.13-1.26s-.05-.93-.13-1.4c-.09 0-.23 0-.42.02s-.3.05-.33.11c-.17.21-.34.39-.5.55s-.31.34-.46.55c-.06.11-.11.17-.17.17l-.26.26c-.09.09-.18.15-.26.18-.35.49-.68.94-.98 1.33-.31.39-.66.8-1.07 1.2-.17.09-.33.23-.48.42s-.29.41-.44.65c-.15.25-.28.49-.42.72-.13.23-.28.41-.46.53-.11.09-.23.18-.35.28-.12.1-.2.24-.26.42-.06 0-.09.01-.11.04-.02.03-.05.02-.11-.04-.17.32-.49.64-.94.96-.45.32-.78.64-.98.96-.09 0-.16-.01-.22-.04-.06.03-.12.16-.17.39-.06.23-.12.38-.17.44-.15-.12-.24-.12-.28-.02-.05.1-.14.12-.28.06a.613.613 0 0 0-.48.02c-.15.07-.29.08-.44.02-.15.03-.24.09-.28.2s-.07.22-.07.37c-.15.03-.28.07-.41.13-.13.06-.23.19-.28.39-.21 0-.33-.16-.39-.48.12.17.17.16.17-.05 0-.06-.03-.11-.09-.17-.15.06-.2.2-.15.42s0 .37-.15.46c-.06-.12-.09-.29-.09-.52-.15.03-.31.13-.48.31-.17 0-.28-.05-.33-.15-.04-.1-.12-.15-.24-.15-.06-.12-.09-.27-.09-.46s0-.39.02-.61c.01-.22.02-.43.02-.65s-.01-.42-.04-.59c.09-.55.17-1.17.26-1.85.09-.68.2-1.27.35-1.77.03.03.06.05.09.05ZM262.37 115.12c.06.06.1.05.13-.02s.09-.09.17-.06c0 .03-.01.07-.04.13.06 0 .1-.01.13-.05.03-.03.07-.06.13-.09.06.06.06.1 0 .13s-.06.07 0 .13c0 .06-.04.09-.11.09s-.08.03-.02.09c.06.03.11 0 .17-.09.06-.09.12-.11.17-.09 0 .11-.01.2-.04.26.17-.06.29-.16.35-.31s.16-.22.31-.22c.03.06.06.11.09.15.03.04.07.1.13.15.03-.03.08-.04.15-.04s.15-.01.24-.05c.12.06.2.05.24-.04.04-.09.11-.13.2-.13.06.03.04.12-.04.26.06.03.11.02.15-.02.04-.04.08-.1.11-.15.09.15.22.27.39.37.17.1.33.23.48.37.03 0 .04-.02.02-.07-.01-.04 0-.06.07-.06.06.23.11.36.17.39.09.32.19.58.31.79.12.2.17.43.17.7-.03.12-.05.23-.06.35-.02.11-.04.2-.07.26-.09.35-.16.67-.22.96-.06.29-.04.56.04.83.12.38.16.77.13 1.18-.06 0-.09 0-.09.02s-.01.02-.04.02c0 .38-.06.73-.2 1.05s-.27.64-.42.96c-.15.38-.26.75-.33 1.12-.07.36-.2.72-.37 1.07 0 .06 0 .09-.02.09s0 .03.02.09c-.09.06-.13.15-.13.28s-.05.22-.13.28c-.06 0-.12-.03-.17-.09-.23.06-.41.19-.53.39-.12.2-.29.33-.52.39.03-.09.02-.11-.02-.06-.05.04-.07.04-.07-.02-.06-.03-.09-.02-.09.02s-.01.06-.04.06c-.12 0-.17-.06-.17-.17-.06.06-.09.07-.09.02 0-.04-.03-.04-.09.02-.06.03-.08.02-.07-.04.02-.06 0-.1-.06-.13-.15.06-.27.03-.37-.09a.463.463 0 0 0-.37-.17c-.12-.15-.28-.23-.48-.26s-.37-.13-.48-.31c-.06-.15-.12-.26-.2-.33-.07-.07-.14-.15-.2-.24-.03-.23-.09-.38-.17-.44-.09-.06-.13-.17-.13-.35-.15-.09-.24-.18-.28-.28l-.15-.37c.06-.09.07-.21.05-.35-.03-.15-.07-.25-.13-.31.09-.17.11-.35.09-.52-.2.06-.4.12-.59.2-.19.07-.4.14-.63.2-.44.32-.87.61-1.31.87-.44.26-.82.6-1.14 1.01-.03 0-.04 0-.04-.02s-.01-.02-.04-.02c-.29.32-.56.64-.81.94-.25.31-.52.59-.81.85.03.09.03.15 0 .17.49.38 1.24.61 2.23.7.06.03.12.04.2.02.07-.01.15-.02.24-.02.12.03.27.06.46.11.19.04.39.06.59.06.29.03.59.05.9.07s.6.05.9.11c.32.06.66.11 1.03.15l1.07.15c.06 0 .1-.02.13-.06s.06-.07.09-.07l.18.09c.06.03.11.04.17.04.15.06.31.07.48.05s.33-.07.48-.13c.49-.06.81.03.96.26.21-.03.41-.03.61 0l.61.09c.06.03.12.03.2 0 .07-.03.14-.03.2 0 .09.03.16.08.22.15.06.07.14.12.26.15.03.03.06.04.09.02s.04 0 .04.02c.23.12.43.22.59.31.16.09.31.19.46.31.06.18.15.28.26.33.11.04.19.12.22.24 0 .03 0 .02.02-.02s.04-.04.07.02c-.12.26-.1.61.04 1.05.03.06.07.12.13.17v.17c0 .09.03.15.09.17-.03.23-.08.44-.15.61-.07.17-.13.36-.2.56-.09 0-.16.01-.22.05-.06.03-.15.04-.26.04-.2.26-.45.45-.74.57-.29.11-.55.29-.78.52-.35.12-.58.2-.7.26-.78.26-1.56.54-2.33.83s-1.58.54-2.42.74c-.06 0-.08.03-.06.09.01.06-.01.09-.07.09-.09 0-.13-.03-.13-.09a5.1 5.1 0 0 1-1.29.48c-.42.09-.87.22-1.33.39-.03 0-.04.03-.04.09-.99.26-1.95.6-2.88 1.01-.32.12-.6.23-.85.35s-.53.17-.85.17c0 .03 0 .05-.02.07s-.02.05-.02.11c-.15 0-.25-.01-.31-.04-.32.06-.62.12-.9.2a6.2 6.2 0 0 0-.76.24c-.09.03-.17.06-.26.11-.09.04-.17.09-.26.15-.23.06-.46.08-.68.06a.818.818 0 0 0-.59.2c-.32-.03-.64 0-.96.07-.32.07-.68.09-1.09.06 0-.15.03-.24.09-.28.06-.04.09-.09.09-.15.06.06.13.08.22.07.09-.01.15-.05.18-.11.06-.06.07-.11.04-.15s-.04-.1-.04-.15c-.09 0-.19 0-.31.02-.12.01-.21.05-.26.11-.06.03-.12.08-.17.15-.06.07-.13.09-.22.06 0-.06.02-.12.07-.2.04-.07.09-.14.15-.2h-.05v-.09c-.06.03-.1.03-.13 0s-.06-.01-.09.04c-.06-.03-.07-.06-.04-.11.03-.05.03-.08 0-.11-.09.03-.12.06-.09.11.03.04.04.09.04.15-.15.06-.23.05-.26-.02s-.07-.08-.13-.02c-.06-.11-.04-.22.06-.33.1-.1.11-.21.02-.33-.06.03-.11.06-.15.09-.04.03-.09.03-.15 0a.672.672 0 0 1 .02-.37c.05-.13.04-.25-.02-.37.06-.06.12-.12.17-.2.06-.07.12-.11.18-.11-.03-.2.02-.33.15-.39s.18-.16.15-.31c.15-.06.25-.11.33-.15.07-.04.18-.05.33-.02.44-.23.84-.39 1.22-.48.38-.09.77-.23 1.18-.44-.03-.09-.06-.1-.09-.04-.03.06-.06.07-.09.04.47-.32.99-.58 1.57-.78s1.09-.47 1.53-.78c.06.03.1.03.11 0s.04-.01.06.04c.26-.15.55-.26.85-.35.31-.09.54-.25.72-.48.06 0 .12-.02.2-.06.07-.04.14-.06.2-.06.38-.26.79-.5 1.24-.7s.88-.44 1.29-.7c-.06-.06-.12-.09-.17-.09-.03 0-.06 0-.09.02s-.06.02-.09.02c-.12-.06-.26-.08-.42-.06s-.31.02-.46.02c-.15-.03-.3-.07-.46-.11s-.31-.09-.46-.15c-.15-.06-.28-.08-.42-.06s-.27 0-.42-.07c-.15-.11-.32-.19-.52-.22-.21-.03-.38-.07-.53-.13-.2-.35-.47-.58-.81-.7a1.16 1.16 0 0 1-.72-.7c-.44-.15-.7-.39-.81-.74-.1-.35-.26-.69-.46-1.01-.06 0-.07.04-.04.11.03.07.01.12-.05.15-.11-.23-.15-.54-.09-.92s.1-.69.13-.92c.06-.15.09-.28.09-.42s.06-.26.17-.37c-.15-.15-.25-.23-.31-.26-.03-.15-.01-.25.05-.31.06-.06.15-.13.26-.22.15-.2.25-.47.31-.78.21-.15.37-.33.48-.54.11-.22.25-.42.39-.59 0 .03.01.04.04.04.29-.23.59-.48.9-.74s.6-.52.9-.78c.21-.06.39-.17.57-.35.32-.23.61-.49.87-.76s.55-.5.87-.68c.03-.06.08-.09.15-.11.07-.01.11-.08.11-.2.29-.06.56-.19.81-.39.25-.21.56-.35.94-.44.03 0 .09-.07.17-.22.41-.06.81-.2 1.2-.42.39-.22.79-.25 1.2-.11.03-.15.04-.26.02-.33-.01-.07-.02-.2-.02-.37.06-.06.11-.06.17 0 .12-.17.26-.33.42-.46s.28-.33.37-.59c.12 0 .19-.04.22-.13s.09-.16.17-.22l-.09.09Zm-15.28 22.56c.03-.09.02-.13-.04-.13s-.09.03-.09.09c.03.03.07.04.13.04Zm3.32-2.66c-.12 0-.17.06-.17.17.12 0 .17-.06.17-.17Z" style="fill:#fb0742"></path><path d="M260.1 151.48c.06-.15.1-.27.13-.37s.09-.26.17-.46h.09c.03-.2.08-.38.15-.53.07-.15.15-.29.24-.43-.03-.21-.02-.36.02-.46.05-.1.1-.23.15-.37.12-.29.18-.55.18-.78.15-.17.26-.37.35-.57.09-.2.16-.39.22-.57.06-.17.12-.35.17-.52.06-.17.13-.37.22-.57.12-.09.17-.1.17-.04a.7.7 0 0 0 .06-.24c.02-.1.04-.15.07-.15-.03-.23.04-.52.22-.87h-.04l.17-.39c.06-.06.1-.09.11-.09s.04-.03.06-.09v-.17a.583.583 0 0 1-.15-.11c-.04-.04-.09-.1-.15-.15.38-.12.57-.23.57-.35l.04-.13c.15-.26.24-.5.28-.7s.14-.48.28-.83c.17-.5.37-1 .57-1.51.2-.51.38-.84.52-.98 0-.2.05-.39.13-.56h-.04l.22-.57v.04c.06-.15.12-.31.17-.48.06-.17.12-.33.18-.48l1.09-2.23s0-.05-.02-.06-.02-.04-.02-.07c.06-.09.11-.2.17-.33.06-.13.11-.28.17-.46l.04-.17.26-.57h-.04c.06-.11.11-.25.17-.39.06-.15.09-.25.09-.31l.22-.35c.11-.17.16-.35.13-.52-.06 0-.12.03-.18.09-.14.12-.28.2-.41.24s-.3-.04-.5-.24v-.09c-.15.03-.27.04-.37.02s-.2-.02-.28-.02c-.17 0-.33 0-.46.02s-.21 0-.24-.02c-.03.03-.06.03-.09 0-.12 0-.22-.01-.31-.05a.972.972 0 0 0-.31-.04c-.38-.06-.73-.11-1.05-.17-.32-.06-.54-.16-.65-.31-.23-.29-.37-.52-.42-.67s-.1-.33-.15-.5c-.03-.15-.01-.31.04-.5.06-.19.17-.28.35-.28l.09-.04h-.09s.05-.04.07-.02.02-.05.02-.2c.26-.03.49-.08.67-.15.19-.07.4-.15.64-.24l.78-.22c.17-.06.29-.09.35-.09.09 0 .21-.07.35-.22l-.22-.22c.41-.23.78-.41 1.11-.53.34-.11.68-.25 1.03-.39.17-.06.42-.15.72-.26s.44-.16.42-.13l.48-.22.37-.15c.1-.05.18-.11.24-.2l.13-.04s.06-.01.09-.04.06-.04.09-.04v-.05c.09-.09.16-.13.22-.15.06-.01.1-.02.13-.02l.57-1.13c.06-.06.09-.12.11-.17.01-.06.04-.12.06-.18v.05c0-.06 0-.1.02-.11s.02-.04.02-.06c0-.21.03-.34.09-.39v.09c.12-.23.22-.39.31-.48.06-.09.12-.17.17-.26.06-.09.1-.21.13-.35.09-.03.13-.1.13-.22l.31-.61c.11-.17.22-.4.33-.68.1-.27.21-.56.33-.85s.22-.56.31-.81.16-.41.22-.5l.13-.09c.06-.18.13-.35.22-.53.23-.47.42-.96.57-1.48v.05c0-.06.01-.1.04-.13s.04-.06.04-.09c.15-.17.23-.36.26-.57.15-.17.29-.43.44-.78.15-.35.28-.65.39-.92l.22-.44c.06-.15.13-.29.22-.44.09-.14.21-.33.35-.56.11-.17.22-.35.31-.53.09-.17.17-.35.26-.52.17-.23.33-.45.46-.66.13-.2.26-.4.37-.61.11-.29.22-.51.31-.65.09-.15.17-.29.26-.44l-.05.09.09-.17c.06-.06.12-.12.2-.18.07-.06.08-.14.02-.26.17-.2.37-.44.57-.72s.42-.58.65-.9v.04l.26-.39.35-.44c.06-.12.11-.22.15-.33.05-.1.12-.18.24-.24 0-.15.06-.31.17-.48l.09.09v-.18c.23 0 .36-.01.39-.04.06-.03.1-.06.13-.11.03-.04.12-.04.26.02l-.09-.05s.05 0 .05-.02.01-.02.04-.02c.06 0 .14-.01.24-.04.1-.03.18-.07.24-.13.17-.03.41.01.7.13.09 0 .16-.01.22-.05.06 0 .11 0 .15-.02s.1-.02.15-.02.13.02.22.07c.09.04.16.08.22.11.03.03.02.05-.02.07s.09.02.42.02l.13.17.39.13c-.12 0-.09-.06.09-.17.11.17.19.26.22.26v-.04c.09.03.19.1.31.22 0-.12.03-.23.09-.35.11.41.22.63.31.66l.39.39c.06.06.12.14.17.24.06.1.07.18.05.24.09-.09.16-.13.22-.13v.94c0 .22-.01.4-.04.54-.17.38-.27.63-.28.76s-.05.28-.11.46l-.35 1.18.04.09-.26.26-.09.18s0 .06.02.11c.01.05.02.1.02.15-.15.21-.29.51-.44.92v-.04c-.06.15-.11.3-.15.46-.04.16-.11.31-.2.46 0 .12-.06.29-.17.53h.04c-.03.06-.05.12-.06.2s-.02.18-.02.33h-.22c-.06.29-.15.52-.26.67-.11.16-.25.32-.39.46s-.28.26-.39.35c-.12.09-.2.2-.26.35a.66.66 0 0 0-.48 0c-.17-.23-.31-.35-.39-.35-.17-.12-.34-.23-.48-.35a1.01 1.01 0 0 1-.31-.39l-.09.04h.09c-.06.06-.13.09-.22.09l-.61.96v-.04l-.57 1.09.05-.04c-.03.15-.1.31-.2.48-.1.17-.18.33-.24.48l-.66 1.31h.05c-.58 1.1-.9 1.9-.96 2.4h-.09l-.09.04c-.03.06-.04.08-.02.06.01-.01 0 0-.06.07-.21.41-.37.76-.5 1.07-.13.31-.21.53-.24.67v.05s-.03.04-.09.04l-.39.78h.04s-.04.06-.04.09-.02.07-.05.13l.35-.17c0 .21-.02.35-.05.44.03 0 .13-.03.31-.09s.37-.09.57-.09c.06 0 .1 0 .13-.02s.07-.02.13-.02c.32-.06.65-.1 1-.13s.69-.04 1.01-.04c.15 0 .28 0 .42-.02.13-.01.28-.04.46-.06.06.03.13.04.22.02.09-.01.2-.09.35-.24.11.32.22.47.33.43.1-.03.21-.03.33 0l.04.39s-.04 0-.04.02-.01.02-.04.02h.04l-.09.09s-.05.06-.06.11c-.01.04-.04.08-.07.11.06.12.1.2.11.24s.02.08.02.11 0 .07.02.13.02.1.02.13l-.13.09c-.09.06-.17.12-.26.2-.09.07-.13.14-.13.2-.03.03-.04.06-.04.09s-.03.04-.09.04v.05l-.24.24c-.07.07-.12.15-.15.24-.15.15-.26.23-.35.26-.09.03-.19.06-.31.09-.03 0-.06 0-.09.02s-.06.02-.09.02l-.13.09.13-.04c-.12.06-.22.12-.31.17-.09.06-.22.1-.39.13-.06-.06-.15-.06-.26 0l-.13.04c-.23.12-.41.17-.52.17v.17s-.07 0-.13.02-.12.02-.17.02h.04-.07s0 .03.07.09c-.41.06-.76.13-1.05.22-.29.09-.58.17-.87.26-.41.18-.97.31-1.7.39-.06.03-.14.06-.24.09-.1.03-.17.06-.2.09l-.22.13c0 .06 0 .11-.02.15-.01.04-.02.08-.02.11l-.13.17c0 .09-.07.16-.22.22h.04l-.17.44.04-.04c-.06.26-.11.44-.17.52v-.09l-.13.31-.17.35h.05c-.06.06-.12.15-.18.28-.06.13-.13.26-.22.37v-.04l-.35.61-.31.57-.22.44c0 .2-.07.38-.22.52v-.09l-.05.09c0 .09-.06.26-.2.5-.13.25-.27.52-.42.83s-.3.58-.46.83c-.16.25-.27.42-.33.5.03-.03.07-.07.13-.11s.12-.05.17-.02c-.17.29-.38.76-.63 1.4s-.5 1.34-.76 2.1c-.35.9-.67 1.78-.98 2.64-.31.86-.68 1.57-1.12 2.12a.122.122 0 0 1-.04-.09c-.23.38-.47.68-.7.92v.35c-.06.06-.13.12-.24.2-.1.07-.28.15-.55.24.09-.64.16-1.02.22-1.13l-.05.04-.2.2c-.07.07-.14.17-.2.28 0 .03 0 .04-.02.04s-.02.01-.02.05l-.09.17c-.03.09-.06.17-.09.26s-.07.13-.13.13c-.06.15-.12.21-.2.2a.443.443 0 0 1-.2-.11c-.03 0-.04.01-.04.04 0 .12-.09.29-.26.53-.06.06-.07.1-.04.13-.06.03-.08.06-.07.09s0 .07-.06.13c-.03.2-.16.39-.39.57l.04.04-.39.26c-.06.06-.15.12-.26.2-.12.07-.26.14-.44.2-.11.12-.17.22-.17.31v.35s-.12.07-.26.13v.05c0 .06-.01.1-.04.13-.03.23-.09.4-.17.52-.09.12-.19.25-.31.39-.09.11-.18.25-.28.39s-.17.29-.2.44c-.09.06-.12.11-.11.15s0 .1-.02.15c-.06.09-.15.18-.26.28s-.29.18-.52.24v-.13c-.21 0-.33-.01-.39-.05l-.17-.09c-.06-.23-.06-.44 0-.63s.13-.36.22-.5h-.04Z" style="fill:#fb0742"></path><path d="M281.36 127.21c.06-.06.15-.15.26-.28.11-.13.22-.27.33-.41.1-.15.2-.27.28-.37.09-.1.15-.15.17-.15.35-.49.71-.95 1.09-1.37.38-.42.73-.88 1.05-1.37.44-.32.77-.75 1.01-1.29.23-.54.47-.92.7-1.16 0-.06-.02-.1-.06-.11-.05-.01-.08-.04-.11-.06.06-.15.1-.26.13-.33s.12-.11.26-.11h.09c.32-.44.74-.68 1.27-.74a5.21 5.21 0 0 0 1.48-.39c.03 0 .07.06.13.18.44 0 .9.08 1.37.24s.88.36 1.2.59h.04c.06 0 .07-.03.05-.09-.03-.06-.01-.09.04-.09.15.15.41.3.78.46.38.16.63.24.74.24h.31c.06 0 .24.07.55.22s.52.28.63.39c.09 0 .13-.02.13-.05.06.21.23.31.52.31.09 0 .15-.01.17-.04 0 .12.12.3.37.55s.52.49.81.74c.29.25.69.55 1.18.9.55.5 1.03 1.05 1.42 1.66.39.61.59 1.3.59 2.05 0 .12-.01.22-.04.33s-.04.2-.04.28v.35c0 .76-.17 1.41-.5 1.94-.33.54-.72 1.01-1.15 1.42-.06.21-.17.34-.33.39-.16.06-.27.17-.33.35l-.04-.04c-.09 0-.28.14-.59.42s-.62.56-.94.87-.6.59-.83.85c-.23.26-.32.37-.26.31-.12.17-.31.37-.57.57s-.56.41-.9.61-.68.4-1.05.59c-.36.19-.72.34-1.07.46-.64.32-1.29.69-1.94 1.11-.65.42-1.21.63-1.68.63-.12 0-.2-.01-.26-.04-.03.06-.07.1-.11.13s-.08.07-.11.13c-.06-.03-.1-.05-.11-.07s-.05-.02-.11-.02c-.55.2-1.17.31-1.83.31-.41 0-.79-.04-1.14-.13-.35-.09-.63-.23-.83-.44h-.18c-.29 0-.54-.08-.76-.24-.22-.16-.41-.34-.59-.55-.18-.2-.36-.41-.55-.63-.19-.22-.4-.4-.63-.55-.15-.32-.26-.59-.33-.81-.07-.22-.23-.49-.46-.81v-.17c0-.15-.01-.3-.05-.46-.03-.16-.04-.31-.04-.46.06-.12.1-.21.13-.28.03-.07.04-.18.04-.33v-1.18c0-.15 0-.3-.02-.46s-.02-.31-.02-.46c0-.26.03-.47.09-.61v-.17c0-.5.14-1.01.42-1.55l.76-1.46c0-.03 0-.05-.02-.07a.107.107 0 0 1-.02-.06v-.09Zm5.76 5.2c.35-.15.67-.28.98-.42s.59-.33.85-.59l.09.04c.14 0 .25-.06.33-.2.07-.13.18-.2.33-.2h.09c.06-.12.26-.29.59-.53.33-.23.7-.48 1.09-.74.39-.26.77-.52 1.13-.78s.62-.48.76-.65c.03-.03.12-.1.28-.22.16-.11.33-.26.5-.44.17-.17.33-.38.48-.61.15-.23.22-.49.22-.78 0-.26-.08-.49-.24-.7-.16-.21-.35-.39-.56-.57-.22-.17-.44-.34-.68-.5s-.41-.33-.52-.5c-.55.58-1.1 1.18-1.64 1.79-.54.61-1.19 1.37-1.94 2.27-.55.67-1.07 1.34-1.55 2.01-.48.67-.88 1.32-1.2 1.96h.13c.15 0 .23.05.26.13.03.09.1.16.22.22ZM297.63 137.29s-.06 0-.09-.09-.05-.2-.05-.33v-.39c0-.13.02-.24.05-.33.06-.2.14-.35.24-.44.1-.09.18-.19.24-.31.03-.09.06-.2.09-.35.03-.15.02-.22-.04-.22.15-.23.28-.5.39-.79.12-.29.22-.48.31-.56.29-.61.58-1.36.85-2.25.28-.89.56-1.62.85-2.21.23-.47.45-.94.65-1.42.21-.48.38-.98.53-1.51.15-.06.25-.26.31-.61s.2-.61.44-.78c.32-1.1.68-2.15 1.09-3.12.41-.97.73-1.99.96-3.03.15 0 .25.05.31.13 0-.17.08-.28.24-.31s.28-.01.37.04c.12.12.1.18-.04.18 0 .06.04.08.11.06.07-.01.09.04.06.15.06-.03.12-.05.17-.06.06-.01.09-.07.09-.15.09.15.19.2.31.17s.2.04.26.22c.06-.03.06-.05.02-.06-.05-.01-.05-.05-.02-.11.17.06.36.16.54.31s.4.25.63.31c.21.32.33.63.39.94.06.31.19.58.39.81-.06.29-.12.59-.2.89-.07.31-.15.62-.24.94.03.11.06.1.11-.05.05-.15.08-.16.11-.04.17-.23.39-.43.65-.59.26-.16.54-.36.83-.59-.06-.11.01-.23.22-.35.21-.12.33-.23.39-.35.17-.23.35-.5.52-.81.18-.31.35-.57.53-.81l.39-.39c.12-.11.22-.23.31-.35.14-.12.27-.26.37-.42s.22-.24.37-.24c-.06-.15 0-.28.15-.39.16-.11.3-.22.42-.31.03.09.03.14 0 .15s-.04.08-.04.2c.03.06.08.05.15-.02s.11-.13.11-.2c.09.12.17.17.26.17s.12.12.09.35c.12.03.2.01.26-.05.06-.06.04-.03-.05.09.06 0 .12-.03.2-.09.07-.06.11-.01.11.13.06-.03.1-.03.13 0s.07.01.13-.04c.06.23.17.36.35.39.18.03.26.12.26.26.15-.03.23-.05.26-.06s.07 0 .13.06c-.03.12.01.23.13.33.11.1.09.14-.09.11.06.06.1.1.13.11s.01.05-.04.11c.03-.06.07-.08.13-.06.06.01.1 0 .13-.06.03.06.08.09.15.11.07.02.12.05.15.11-.06.29.06.47.35.52 0 .09-.05.17-.13.24-.09.07-.09.15 0 .24.03-.03.05-.07.06-.11s.04-.08.07-.11c.03 0 .04.12.02.37-.01.25-.07.44-.15.59.06 0 .09.05.11.15.01.1 0 .18-.06.24.06 0 .1-.01.13-.04 0 .15-.1.4-.28.76s-.31.67-.37.94c-.12.12-.23.3-.35.55-.12.25-.16.44-.13.59-.03 0-.04-.01-.04-.05-.17.35-.32.74-.44 1.16s-.29.79-.52 1.11c-.03.03-.05-.01-.05-.13-.09.03-.11.1-.06.2.04.1.08.15.11.15-.06.06-.08.15-.07.28.01.13-.04.17-.15.11.09.15.09.26 0 .33s-.1.17-.04.28c-.06-.06-.11-.06-.15 0-.04.06-.08.07-.11.05-.17.32-.23.71-.17 1.18-.12-.06-.19-.06-.22 0s-.09.06-.17 0c.06.12.06.18 0 .2-.06.01-.12 0-.18-.02 0 .03.01.04.05.04.03.09 0 .1-.07.04-.07-.06-.12-.04-.15.04v-.13a.52.52 0 0 1-.56-.07c-.18-.13-.28-.12-.31.02-.06-.11-.09-.31-.09-.57-.15.18-.24.21-.28.09s-.14-.15-.28-.09c-.06-.11-.12-.21-.17-.28l-.17-.2c0 .09-.04.13-.13.13-.09-.29-.18-.47-.28-.52-.1-.06-.22-.25-.37-.57-.29.2-.55.44-.78.72-.23.28-.51.52-.83.72v-.09c-.06.03-.06.06 0 .11.06.04.06.11 0 .2-.06 0-.12.04-.17.13-.06.09-.12.17-.17.24a.86.86 0 0 1-.2.18c-.07.04-.14.04-.2-.02-.03.03-.01.07.04.13-.26.32-.52.66-.78 1.03s-.51.65-.74.85c-.06 0-.07 0-.04.02s.04.05.04.11c-.32.41-.65.93-1 1.55-.35.63-.64 1.14-.87 1.55-.03 0-.07.08-.13.24s-.12.27-.17.33c-.06.03-.07.03-.04 0 .03-.03.01.03-.05.17-.09.15-.21.33-.37.57-.16.23-.31.42-.46.56-.15.17-.29.33-.44.46s-.29.28-.44.46c-.09.21-.18.42-.28.66-.1.23-.24.45-.41.65-.09.15-.22.35-.39.61s-.23.54-.17.83c-.23-.03-.5-.06-.78-.09-.29-.03-.54 0-.74.09-.03-.06-.06-.15-.09-.28s-.07-.27-.13-.42c-.06.03-.1.07-.13.13s-.07.07-.13.04c0-.15-.06-.22-.18-.22s-.13-.06-.04-.18c-.15.03-.25-.02-.31-.15s-.13-.17-.22-.11c-.06-.15-.1-.25-.11-.31-.01-.06-.02-.15-.02-.26-.09-.06-.15-.07-.17-.04s-.1.04-.22.04c0-.23-.04-.36-.11-.39-.07-.03-.13-.1-.2-.22v.17c-.11-.06-.19-.16-.22-.31s0-.26.09-.35Z" style="fill:#fb0742"></path><path d="M338.49 118.92c.06.06.1.06.11 0 .01-.06.05-.06.11 0 .06.17.09.29.09.35.09.15.17.31.24.48.07.17.11.37.11.57 0 .12-.03.23-.09.35s-.07.22-.04.31c0 .06.02.11.06.15.05.04.05.08.02.11 0 .12-.02.27-.06.46s-.08.36-.11.5c-.06.15-.12.33-.2.55-.07.22-.14.44-.2.67 0 .32-.07.64-.22.96l-.44.96c-.06.12-.09.24-.11.37-.02.13-.04.26-.07.37-.06.12-.12.21-.17.28-.06.07-.1.15-.13.24-.03.12-.05.24-.06.37-.02.13-.08.22-.2.28 0 .26-.06.47-.2.61s-.24.33-.33.56c-.03.03-.03.07 0 .11s.03.08 0 .11c-.03.06-.05.09-.06.11-.02.02-.04.05-.07.11-.06.09-.09.17-.09.26s-.02.16-.05.22c-.06.12-.13.22-.22.31s-.15.21-.17.35c-.06.29-.13.52-.22.7-.09.17-.16.41-.22.7-.06.03-.09.08-.09.15s-.03.11-.09.11c.03.17.01.3-.05.37-.06.07-.1.17-.13.28.06.17.06.31 0 .39-.06.09-.11.2-.17.35-.06.15-.08.32-.06.52.01.21 0 .41-.07.61-.03.15-.07.29-.13.44-.06.15-.05.28.04.39-.03.06-.04.11-.04.15s-.02.1-.05.15c-.03.15-.06.33-.09.54-.03.22-.1.37-.22.46.03-.14.05-.25.05-.33v-.33c-.09.23-.17.45-.24.65-.07.21-.1.44-.06.7-.03.06-.05.11-.05.15s-.03.08-.09.11c.09.32.04.71-.13 1.15-.17.45-.23.84-.17 1.16.03.15.09.28.17.39.09.11.1.27.04.48a.47.47 0 0 0-.2.31c-.01.11-.04.26-.07.44-.09-.03-.16-.02-.22.04s-.15.09-.26.09c-.2-.15-.36-.34-.46-.57-.1-.23-.26-.41-.46-.53-.03-.2-.1-.34-.22-.41a.613.613 0 0 1-.26-.37c-.03-.06-.04-.11-.02-.15s0-.09-.02-.15c-.06-.09-.12-.16-.17-.22-.06-.06-.12-.12-.18-.17-.11-.23-.2-.48-.24-.74-.04-.26-.11-.55-.2-.87 0-.06-.01-.09-.02-.09s-.04-.03-.06-.09c-.06-.32-.14-.72-.24-1.2-.1-.48-.12-.9-.06-1.24a.537.537 0 0 0-.13-.22c.15-.64.2-1.33.17-2.07-.03-.74.04-1.45.22-2.12.06-.15.11-.26.15-.35.04-.09.09-.2.15-.35 0-.06 0-.14-.02-.24a.52.52 0 0 1 .02-.28c.03-.23.06-.42.11-.57.05-.15.08-.29.11-.44-.29.2-.58.44-.85.72-.27.28-.57.54-.89.81-.15.15-.26.28-.35.39-.09.11-.2.22-.35.31-.12.11-.23.2-.33.26s-.21.15-.33.26c-.41.41-.84.8-1.29 1.18-.45.38-.88.77-1.29 1.18-.15.09-.28.2-.39.33s-.26.21-.44.24c-.15.09-.3.17-.46.26s-.31.19-.46.31c-.06-.12-.16-.17-.31-.15s-.25-.02-.31-.11c-.15.03-.33.08-.54.15-.22.07-.33.02-.33-.15-.29.12-.52.09-.7-.09s-.37-.32-.57-.44c-.06-.17-.1-.33-.13-.48s-.04-.29-.04-.44c0-.06 0-.08.02-.07.01.02.04 0 .06-.06a.608.608 0 0 1-.11-.42c.01-.16.04-.33.06-.52s.05-.37.07-.55a.812.812 0 0 0-.11-.48c-.32.38-.65.73-1.01 1.05-.35.32-.68.67-1 1.05-.06.06-.11.13-.15.22-.05.09-.11.16-.2.22-.06.06-.12.11-.17.15-.06.04-.12.09-.17.15-.32.29-.65.61-.98.96-.34.35-.71.64-1.12.87-.06 0-.09 0-.09-.02s-.03-.02-.09-.02c-.09.15-.23.27-.44.39 0 .06-.01.1-.04.11s-.03.06 0 .15c-.23.23-.47.5-.7.81-.23.31-.47.62-.7.94-.06.06-.11.1-.15.13a.58.58 0 0 0-.15.13c-.12.21-.24.43-.37.68-.13.25-.34.27-.63.06-.06-.03-.12-.01-.17.04-.06.06-.12.06-.17 0 .15-.09.28-.16.41-.22.13-.06.27-.13.42-.22-.09-.14-.23-.2-.44-.15-.2.05-.35.08-.44.11 0-.06.01-.08.02-.06s.05 0 .11-.02c0-.06-.02-.12-.06-.18-.04-.06-.05-.11-.02-.17-.21-.06-.41-.17-.61-.33-.21-.16-.38-.31-.53-.46-.06 0-.07.02-.04.06.03.05 0 .07-.09.07s-.11-.04-.06-.13.05-.17.02-.26c-.15-.06-.24-.2-.28-.41-.04-.22-.09-.42-.15-.59-.03-.06-.06-.12-.09-.17-.03-.06-.07-.07-.13-.05-.06.17-.07.34-.02.48.04.15.05.29.02.44a.26.26 0 0 1-.13-.24v-.33c.03-.06.01-.07-.04-.05-.06.03-.09 0-.09-.09-.12-.32-.14-.69-.06-1.09.07-.41.12-.76.15-1.05 0-.03.06-.05.17-.05.23-.52.52-.96.87-1.31s.7-.73 1.05-1.14c-.03-.11-.02-.18.02-.2.04-.01.05-.08.02-.2.15-.06.25-.13.33-.22.07-.09.18-.16.33-.22h.09c.11-.12.21-.28.28-.48.07-.21.14-.42.2-.66.06-.23.11-.47.17-.7.06-.23.16-.42.31-.57.09 0 .15-.06.2-.17s.11-.15.2-.09c.17-.17.33-.36.48-.57.15-.2.31-.4.48-.61.03-.06.06-.09.11-.09.04 0 .08-.01.11-.05.06-.06.1-.11.11-.17.01-.06.04-.11.06-.17.12-.06.19-.11.22-.17.06-.09.11-.15.15-.2.04-.05.11-.1.2-.15.15-.12.26-.23.33-.35.07-.11.17-.23.28-.35.06-.09.12-.15.2-.2.07-.04.13-.1.2-.15.29-.32.6-.63.94-.94s.66-.59.98-.85c.23-.15.44-.31.61-.48.17-.17.38-.33.61-.48.06-.03.11-.07.15-.13.04-.06.09-.1.15-.13.11-.09.26-.15.43-.17.18-.03.34-.07.48-.13.17-.06.33-.13.48-.22.15-.09.29-.13.44-.13.06-.03.11-.07.15-.11.04-.04.09-.08.15-.11.11 0 .25 0 .41.02.16.02.27.08.33.2.58.09 1.01.31 1.29.65s.6.65.98.92c.06.29.11.58.17.85.06.28.04.53-.05.76.06.06.09.1.09.13-.06.23-.1.47-.11.7-.01.23 0 .48.07.74.61-.49 1.13-1.02 1.57-1.57.44-.55.99-1.03 1.66-1.44 0-.06.01-.1.04-.13s.05-.09.05-.17c.14-.12.31-.23.5-.35s.36-.26.5-.44c.2-.06.39-.16.55-.31s.33-.26.5-.35c.17-.15.34-.3.5-.46s.31-.33.46-.5c.58-.4 1.12-.81 1.62-1.22.49-.4 1.1-.67 1.83-.78.06.03.1.06.13.11.03.04.06.08.09.11.2 0 .36-.01.48-.04.06.06.07.09.04.09s-.04.03-.04.09c.17.09.35.18.52.28.17.1.38.12.61.07.06.06.12.13.17.22.06.09.12.13.18.13-.03.09 0 .16.09.22s.15.12.17.18ZM358.78 128.26s-.05-.04-.06-.04c-.02 0-.04-.01-.07-.04.12.17.28.19.5.04.22-.15.41-.22.59-.22 0 .06-.01.1-.04.11s-.04.04-.04.07c.06.09.11.1.15.04s.09-.06.15 0c.03.09 0 .15-.07.17-.07.03-.11.01-.11-.04-.06.03-.09.06-.09.11s-.03.07-.09.07c.03.12.03.23 0 .35.11 0 .23-.01.35-.04-.03.12-.04.26-.04.44-.15.09-.26.18-.33.28-.07.1-.18.21-.33.33-.06.03-.09.02-.09-.02 0-.05-.03-.07-.09-.07v.17c-.15-.03-.22 0-.24.07-.02.07-.05.15-.11.24.09 0 .15-.02.17-.06s.09-.09.17-.15c0 .06.03.1.09.11.06.01.09.05.09.11-.09 0-.15.02-.17.05s-.09.04-.17.04c0 .03 0 .05-.02.06-.01.02-.02.05-.02.11-.09-.03-.13 0-.13.07s-.01.14-.05.2c-.23 0-.41.06-.54.17s-.3.16-.5.13c-.06.12-.15.17-.28.17s-.23.07-.28.22c-.06.03-.1.03-.11 0-.01-.03-.04-.04-.06-.04-.09.15-.21.23-.35.26s-.26.09-.35.17h.04c-.06.17-.15.31-.26.39-.12.09-.22.09-.31 0-.06.12-.14.21-.24.28-.1.07-.18.15-.24.24.06.03.14 0 .24-.09.1-.09.18-.07.24.04-.15.15-.32.26-.53.35-.2.09-.41.16-.61.22 0 .11.01.15.04.11.03-.04.05-.04.05.02-.06.06-.12.1-.17.11-.06.01-.09.1-.09.24-.29-.06-.42.06-.39.35-.06.03-.1 0-.13-.09-.41.32-.85.6-1.33.83s-.94.49-1.37.78c-.32 0-.61.16-.87.48-.44.15-.85.33-1.24.55-.39.22-.78.44-1.16.67 0 .06.01.07.04.05s.06-.05.09-.05c-.32.26-.68.47-1.07.61-.39.15-.75.35-1.07.61-.38.03-.73.12-1.05.26s-.64.25-.96.31c-.06.03-.14.04-.24.02s-.21 0-.33.02c-.23.06-.56.07-.98.05-.42-.03-.78-.07-1.07-.13-.06-.03-.12-.07-.2-.11-.07-.04-.15-.1-.24-.15-.03 0-.06.01-.11.04s-.08.01-.11-.04a.459.459 0 0 1-.17-.17.71.71 0 0 0-.26-.22c-.15-.09-.29-.18-.44-.28s-.29-.18-.44-.24c0-.06-.01-.09-.04-.11-.03-.01-.04-.05-.04-.11-.09 0-.13-.01-.13-.05-.03-.06-.04-.1-.02-.13.01-.03.02-.06.02-.09-.06-.03-.08-.02-.07.02s0 .05-.02.02a6.21 6.21 0 0 1-.61-1.03 4.23 4.23 0 0 0-.61-.94c-.06-.44-.2-.77-.44-1-.03 0-.02.02.02.06.04.04.04.07-.02.07-.29-.44-.43-1.01-.41-1.73.01-.71.14-1.36.37-1.94.09-.11.16-.25.22-.39.06-.15.16-.25.31-.31.32-.82.72-1.51 1.22-2.07.49-.57.97-1.11 1.44-1.64.09-.11.18-.22.28-.31.1-.09.21-.2.33-.35.09-.12.22-.25.39-.39.15-.15.3-.29.46-.44.16-.14.33-.29.5-.43.29-.23.53-.47.72-.72.19-.25.43-.44.72-.59 0-.06 0-.09.02-.09.01 0 .02-.03.02-.09.2-.09.38-.2.54-.33.16-.13.31-.31.46-.55.23.03.4-.04.5-.22.1-.18.22-.31.37-.39.12-.06.23-.1.33-.13s.2-.09.28-.17c.12-.12.22-.2.31-.26.44-.29.87-.56 1.31-.81s.9-.49 1.4-.72c.32-.15.65-.32 1.01-.52.35-.21.72-.37 1.13-.48.09 0 .13-.03.13-.09.06.03.12.02.2-.02.07-.04.14-.08.2-.11.23-.09.47-.17.72-.24.25-.07.49-.14.72-.2.23 0 .5 0 .81.02.31.02.57.1.81.24.03.09.03.13 0 .13h-.09c.12.09.25.17.39.26.15.09.25.23.31.43.06.06.15.12.26.18.09.26.2.4.35.43-.06.03-.07.05-.04.07.03.01.04.04.04.06.12.09.19.18.22.28.03.1.07.23.13.37a1 1 0 0 0 .22.35 1 1 0 0 1 .22.35c.06.09.09.18.09.28s.03.18.09.24c0 .15-.01.25-.04.31.12.06.18.14.2.24.01.1 0 .21-.02.31-.03.1-.05.21-.06.33-.02.12 0 .23.06.35 0 .06-.02.11-.06.15-.05.04-.05.11-.02.2-.23.23-.44.5-.61.81-.18.31-.37.58-.57.81-.06.03-.1.06-.11.09-.01.03-.05.06-.11.09-.11.15-.22.28-.33.39-.1.12-.22.23-.37.35-.06.06-.12.1-.2.13-.07.03-.14.1-.2.22-.06.06-.13.12-.22.2-.09.07-.16.14-.22.2-.15.06-.31.12-.5.2-.19.07-.33.18-.42.33-.47.26-.92.54-1.35.83s-.9.55-1.4.78c-.15.06-.28.09-.39.11-.11.01-.22.08-.31.2-.15 0-.27.05-.39.15s-.26.17-.44.2c-.09 0-.15.04-.17.13l-.13-.04c-.29.2-.59.36-.9.46s-.62.2-.94.28c-.12.03-.17.01-.17-.05-.15.03-.26.07-.33.13s-.18.07-.33.04c-.06.06-.11.1-.17.13-.23 0-.45.03-.65.09s-.42.06-.65 0c-.06 0-.09.01-.09.04s-.03.06-.09.09c-.15-.06-.29-.09-.43-.09s-.25-.07-.31-.22c-.06 0-.12 0-.18.02-.06.01-.13 0-.22-.07-.23.23-.47.48-.7.74-.23.26-.44.57-.61.92-.03 0-.04 0-.04-.02s-.01-.02-.04-.02c-.03.12-.08.2-.15.24-.07.04-.11.17-.11.37-.17.09-.28.25-.31.48-.03.23-.12.42-.26.57.32 0 .66-.04 1.03-.13.36-.09.71-.15 1.03-.17.06-.03.09-.06.09-.11 0-.04.03-.08.09-.11.2.03.36 0 .48-.07s.26-.11.44-.11c.03 0 .07-.06.13-.17.15.03.32 0 .52-.09.21-.09.38-.17.53-.26.32 0 .63-.08.94-.24.31-.16.62-.27.94-.33.15-.17.34-.26.59-.26s.42-.1.5-.31c.23-.06.45-.11.66-.15.2-.04.4-.13.61-.28.03 0 .04.01.04.04s.03.03.09 0v-.09c.17-.11.38-.19.61-.22.23-.03.42-.15.56-.35.41 0 .77-.1 1.09-.31h.04s.04 0 .04.02.01.02.04.02.05-.01.07-.04.05-.06.11-.09c.4-.12.81-.27 1.22-.46.4-.19.86-.42 1.35-.67.06.06.11.06.17.02.06-.05.13-.04.22.02.23-.15.47-.23.7-.26.23-.03.48-.09.74-.17.17-.06.35-.13.52-.22.17-.09.36-.13.57-.13.23 0 .45-.07.65-.22s.42-.25.66-.31c.11 0 .24 0 .37-.02s.24-.02.33-.02c0 .09-.04.13-.11.13s-.11.04-.11.13a.386.386 0 0 0-.44.11c-.12.13-.26.17-.44.11-.03.06-.06.09-.09.09s-.04.03-.04.09Zm-11.52-1.75c.09-.15.2-.17.35-.07.15.1.26.1.35-.02-.03.12-.03.17 0 .17s.06-.02.11-.06c.05-.04.09-.09.13-.13.05-.04.08-.06.11-.06.03-.03.06-.04.11-.02.04.02.08.02.11.02.18.03.31-.06.39-.26s.2-.29.35-.26c.12-.15.24-.22.37-.22s.24-.09.33-.26c.17 0 .39-.06.65-.17s.6-.35 1.01-.7c.06-.12.17-.33.35-.65s.31-.51.39-.57c-.06-.06-.14-.07-.24-.04s-.2.07-.31.13c-.1.06-.2.11-.31.15-.1.04-.17.05-.2.02-.06.06-.19.17-.39.33s-.33.24-.39.24c-.21.03-.37.14-.5.33s-.28.26-.46.2c-.06.12-.13.22-.22.31s-.19.1-.31.04l-.17.17c-.06.06-.15.09-.26.09-.03 0-.04.02-.02.06.01.05 0 .07-.02.07-.09-.03-.15 0-.2.06-.04.07-.09.11-.15.11 0-.03-.01-.04-.04-.04v.09c-.17.15-.36.27-.55.37-.19.1-.36.27-.5.5h-.09v.13c.06 0 .09-.01.11-.04s.05-.03.11 0Z" style="fill:#fb0742"></path><path d="M356.38 128.87a.6.6 0 0 0 .42-.15l.37-.37c.18-.17.32-.31.44-.39.26-.23.54-.49.83-.76.29-.28.6-.53.92-.76.15-.12.3-.22.46-.33s.31-.22.46-.37c.15-.11.29-.21.44-.28.15-.07.27-.17.39-.28.06-.06.12-.12.17-.2.06-.07.13-.13.22-.2.2-.11.38-.22.54-.33s.34-.22.55-.37c.2-.09.4-.19.59-.31.19-.12.36-.28.5-.48.32-.03.62-.15.9-.35s.56-.38.85-.52c.09-.06.17-.1.26-.11.09-.01.16-.05.22-.11.26-.15.55-.27.85-.37s.62-.23.94-.37c.11.03.25.02.41-.02s.3-.09.42-.15c.85-.17 1.75-.32 2.71-.44.96-.11 1.82-.2 2.58-.26.03 0 .04.03.04.09s.03.07.09.04c.06 0 .06-.02 0-.06-.06-.04-.06-.08 0-.11.09 0 .15-.01.17-.04.15.09.26.2.35.35.09.15.21.25.35.31.06.06.06.09 0 .09s-.09.01-.09.04c.06.06.12.07.2.04.07-.03.14-.06.2-.11s.11-.08.17-.11c.06-.03.12-.01.17.04.17-.15.26-.37.26-.67s.07-.56.22-.76c-.03-.23 0-.42.07-.57.07-.15.09-.31.06-.48.03 0 .04 0 .04-.02s.03-.02.09-.02c.15-.53.27-1.05.37-1.59.1-.54.26-1.04.46-1.51 0-.12-.01-.19-.04-.22.06.03.09.01.09-.05 0-.06.03-.09.09-.09 0-.12.04-.26.11-.44.07-.17.15-.32.24-.44v-.22c.32-.64.59-1.31.81-2.01.22-.7.5-1.35.85-1.96.35-.93.79-1.78 1.33-2.55.54-.77 1.05-1.58 1.55-2.42.11-.06.2-.13.26-.22a.71.71 0 0 1 .26-.22c0-.06 0-.09-.02-.09s0-.03.02-.09c.17-.18.36-.34.57-.5.2-.16.38-.34.52-.54.17-.09.34-.19.5-.31.16-.12.31-.25.46-.39.11.06.27.09.46.09s.28.1.28.31c.09 0 .16-.03.22-.09s.11-.1.17-.13c.06 0 .12.02.17.07.06.04.12.04.17-.02.12.06.18.23.2.53.01.29-.1.44-.33.44 0 .12-.01.19-.04.22s-.04.1-.04.22c.11 0 .18-.02.2-.07.01-.04.08-.05.2-.02.06-.17.13-.22.22-.13 0 .09-.01.15-.04.2-.03.04-.07.09-.13.15.06.2.11.42.17.65.06.23.12.45.17.65-.03.03-.01.15.04.35h-.09c.06.15.06.28.02.42s-.07.26-.07.37c-.06.44-.11.89-.15 1.35-.04.47-.14.9-.28 1.31a7.41 7.41 0 0 1-.64 1.66c-.28.53-.5 1.08-.67 1.66-.17.29-.31.6-.39.92-.09.32-.19.64-.31.96-.17.41-.36.8-.54 1.16-.19.37-.31.78-.37 1.24-.12.06-.18.15-.2.28s-.05.27-.11.42c-.2.38-.36.74-.48 1.09-.03.09-.04.17-.02.26.01.09 0 .17-.02.26-.06.17-.15.35-.26.52s-.19.35-.22.52c-.12.15-.21.34-.26.57-.06.23-.12.47-.17.7-.03.06-.06.13-.09.22s-.06.16-.09.22c-.03.09-.05.17-.05.26s-.01.18-.04.26c-.03.23-.07.45-.13.66-.06.2-.1.4-.13.61v.31c0 .09-.04.16-.13.22-.03.47-.13.85-.31 1.16-.17.31-.33.65-.48 1.02-.06 0-.09.02-.09.05s-.03.04-.09.04c-.06.09-.1.19-.11.31s-.04.23-.06.35c-.12.32-.23.65-.35.98-.12.33-.21.67-.26 1.03-.03.29-.04.57-.04.85s-.05.53-.13.76c-.06-.03-.09-.04-.09-.02s-.03.04-.09.06c-.03.03-.05.06-.05.09s-.03.04-.09.04c-.06.41-.13.8-.22 1.18-.09.38-.16.77-.22 1.18 0 .06-.02.09-.07.09-.04 0-.06.03-.06.09-.06.44-.14.85-.24 1.22-.1.38-.18.73-.24 1.05 0 .06-.03.12-.09.17-.09.21-.15.42-.17.63-.03.22-.07.44-.13.68 0 .15-.03.26-.09.35-.06.09-.12.19-.17.31-.03.09-.03.19 0 .31s-.03.17-.18.17h-.09c-.03-.12-.04-.22-.04-.33s-.05-.18-.13-.24c-.09.09-.11.2-.07.33.05.13.05.27.02.41-.03.09-.05.2-.06.33-.01.13 0 .27.06.41-.15.15-.22.32-.24.53-.01.2 0 .39.06.57-.12.03-.18.12-.2.28s-.03.33-.04.5c-.02.17-.04.33-.07.48s-.13.22-.31.22c.12-.15.12-.31 0-.48-.09.06-.11.16-.06.31.04.15.05.29.02.44-.06.03-.11.03-.15 0s-.1-.04-.15-.04c-.03-.15-.03-.29 0-.44s.03-.31 0-.48c-.06.03-.09.09-.09.17s-.06.13-.17.13c-.03-.35 0-.71.09-1.07.09-.37.11-.71.09-1.03-.15.03-.23.07-.26.13s-.09.11-.18.17c-.06.58-.06 1.12 0 1.62.06.49.05 1.03-.04 1.61-.15.09-.28.07-.39-.04-.12-.12-.23-.2-.35-.26-.09.09-.15.21-.2.37s-.07.32-.09.48-.04.31-.09.44c-.05.13-.12.21-.24.24.03-.06.06-.1.09-.13s.03-.07 0-.13-.06-.09-.09-.09-.04-.01-.04-.04c0-.55 0-1.05-.02-1.48s-.07-.92-.15-1.44c-.06-.17-.08-.39-.07-.65s-.02-.48-.11-.65c0-.76.04-1.46.13-2.12.09-.65.12-1.32.09-1.99-.09.09-.16.07-.22-.05-.06.5-.1.95-.11 1.35-.01.41-.08.8-.2 1.18-.12.03-.16-.01-.13-.13.03-.11-.03-.15-.17-.09-.03-.29-.02-.57.04-.83s.12-.51.17-.74c0-.11 0-.22-.02-.33-.01-.1 0-.18.02-.24.06-.23.13-.47.22-.72a.9.9 0 0 0-.04-.72c.15-.35.2-.7.15-1.07-.04-.36 0-.74.11-1.11-.06 0-.13.03-.22.09s-.15.13-.17.22c0-.03-.04-.05-.13-.05-.32.23-.62.46-.89.68-.28.22-.58.43-.9.63v.17c-.23.15-.44.31-.61.48s-.38.29-.61.35c-.06 0-.07.02-.05.06s.01.08-.04.11c-.35.12-.69.26-1.03.42s-.67.33-1.03.5c-.78.41-1.54.76-2.27 1.05-.15.09-.31.16-.48.22-.17.06-.35.13-.52.22v.04l-.04.04s-.1-.03-.22-.09c-.06 0-.09.01-.09.04s-.02.04-.05.04c-.32.06-.68.12-1.09.17-.41.06-.78.12-1.13.18-.41-.03-.83-.06-1.27-.09s-.81-.12-1.13-.26c-.55-.26-1.02-.62-1.4-1.07-.38-.45-.77-.91-1.18-1.37a.76.76 0 0 1-.35.09c-.15-.38-.25-.76-.31-1.14-.06-.38-.03-.78.09-1.22-.03-.03-.06-.04-.11-.02-.04.01-.08.02-.11.02.09-.12.1-.25.04-.39s-.12-.25-.17-.31c.38-.96.65-2.04.83-3.23Zm8.6 2.88c.06-.06.12-.11.17-.17.06-.06.1-.03.13.09.26-.12.52-.23.78-.33s.53-.18.78-.24c.15-.17.31-.27.5-.28.19-.01.37-.05.54-.11.09 0 .17-.03.26-.09s.17-.1.26-.13c.06-.06.11-.08.15-.07.04.02.09.01.15-.02.03-.03.04-.05.04-.06s.03-.04.09-.07c.14-.06.27-.09.37-.11s.21-.07.33-.15c.06.03.07.02.04-.02-.03-.05-.01-.07.05-.07.35-.03.65-.1.9-.22s.49-.25.72-.39c.15-.06.27-.1.37-.13.1-.03.24-.06.42-.09.09-.03.15-.06.2-.09s.09-.07.15-.13c.23-.15.43-.24.59-.28.16-.04.34-.12.54-.24.03-.15.05-.33.05-.57s.07-.38.22-.44c0-.47.09-.93.26-1.4s.19-.89.04-1.26c-.09-.03-.14-.02-.15.02-.01.04-.06.06-.15.06-.03 0-.03-.01 0-.04s.01-.03-.04 0c-.23.09-.45.14-.66.15-.2.01-.38.12-.52.33-.03 0-.05 0-.06-.02a.145.145 0 0 0-.07-.02c-.06.06-.14.11-.24.15-.1.04-.18.09-.24.15-.81.38-1.59.79-2.31 1.24-.73.45-1.48.88-2.27 1.29 0 .06-.09.15-.26.26-.06.12-.15.21-.28.28a.87.87 0 0 0-.33.33c-.06 0-.1.01-.13.05-.03.03-.07.04-.13.04-.12.12-.19.22-.22.31-.06 0-.1 0-.11.02s-.05.02-.11.02c-.32.32-.63.63-.94.92s-.62.58-.94.87c-.06.23-.2.42-.42.55-.22.13-.38.3-.5.5v.04c.32-.03.63-.09.94-.2s.65-.18 1.03-.24Zm9.08-4.54c-.03.17-.04.3-.02.37.01.07 0 .18-.02.33.09-.06.15-.17.2-.33s0-.28-.15-.37Zm.13-.13c0-.06.01-.1.04-.13s0-.05-.09-.05c0 .12.01.17.05.17Zm.13-.74c.03.06.01.11-.05.15-.06.04-.09.11-.09.2.09.03.15-.01.17-.13s.01-.19-.04-.22Zm1.44 13.79c.06-.06.07-.1.04-.13-.03-.03-.03-.05 0-.05-.06 0-.09.03-.09.09s.01.09.04.09Z" style="fill:#fb0742"></path></svg>