<svg version="1.1" id="Layer_1" xmlns="http://www.w3.org/2000/svg" xmlns:xlink="http://www.w3.org/1999/xlink" x="0px" y="0px"
	 width="100%" viewBox="0 0 679 119" enable-background="new 0 0 679 119" xml:space="preserve">
<path fill="none" opacity="1.000000" stroke="none" 
	d="
M648.000000,120.000000 
	C433.500000,120.000000 219.500000,119.988548 5.500046,120.093513 
	C1.750776,120.095352 0.885289,119.251686 0.901773,115.499565 
	C1.064314,78.500282 1.044642,41.499844 0.915873,4.500293 
	C0.905489,1.516634 1.518338,0.918138 4.500032,0.919312 
	C228.500000,1.007537 452.500000,1.007537 676.499939,0.919312 
	C679.481689,0.918138 680.094360,1.516657 680.084106,4.500289 
	C679.955688,41.833179 679.955750,79.166817 680.084106,116.499710 
	C680.094360,119.483345 679.494019,120.167557 676.497681,120.089287 
	C667.170715,119.845619 657.833313,120.000000 648.000000,120.000000 
z"/>
<path fill="#ED1A46" opacity="1.000000" stroke="none" 
	d="
M607.604126,70.466568 
	C604.473694,73.116264 601.613892,75.900803 598.794006,78.725220 
	C597.621765,79.899315 596.510498,80.480347 594.885010,79.397331 
	C593.056824,78.179283 593.658081,76.913818 594.165100,75.265495 
	C594.442200,74.364586 597.788330,72.612686 594.003906,72.015190 
	C591.439026,71.610237 591.813843,63.645245 586.612366,69.603096 
	C583.211243,73.498833 580.197937,77.909393 575.730469,80.926010 
	C574.014832,82.084473 572.873352,82.037430 572.116394,80.512466 
	C570.566895,77.390869 569.157837,78.871407 566.970947,79.894638 
	C560.008118,83.152603 556.759888,83.015556 552.839355,78.508614 
	C550.881958,76.258446 550.377075,73.915680 551.266052,71.705826 
	C553.634827,65.817665 557.409302,60.935535 563.434326,58.252552 
	C569.629761,55.493649 572.807007,60.036587 572.019775,65.034813 
	C571.142700,70.603058 564.928284,74.595909 559.419189,72.911621 
	C558.868652,72.743324 558.428162,72.005554 558.016052,73.036781 
	C557.599792,74.078743 556.556335,75.023338 557.195190,76.228935 
	C557.417358,76.648293 558.331909,77.043564 558.802551,76.928307 
	C560.681519,76.468071 562.539612,75.880829 564.352173,75.199036 
	C571.283630,72.591789 576.746765,68.347496 580.101135,61.519169 
	C580.784607,60.127857 581.196106,57.784283 583.736511,58.044785 
	C586.561584,58.334469 585.580566,60.997700 586.382263,62.491829 
	C588.836304,62.026428 589.640259,57.467449 592.503540,59.535198 
	C594.605530,61.053181 596.153198,63.752094 594.148193,66.898628 
	C593.385803,68.095078 594.688843,68.740479 595.753967,69.397461 
	C597.280334,70.338943 597.637329,69.611427 598.270691,68.411736 
	C599.336731,66.392357 600.800659,64.575615 601.790283,62.525497 
	C602.689819,60.662010 603.976929,58.379055 605.707031,58.613289 
	C607.890991,58.908966 606.568726,61.765057 607.236328,63.428219 
	C609.079163,63.437840 609.583130,61.394779 611.194580,60.877205 
	C612.887024,60.333630 613.944336,57.855194 616.338196,59.784626 
	C618.610657,61.616215 617.880615,63.389832 616.908691,65.455360 
	C615.207336,69.071419 613.645935,72.753372 611.665649,77.220474 
	C615.136536,76.073250 617.509583,75.304001 618.054993,71.893944 
	C618.556885,68.756203 620.249695,66.156593 622.553772,63.906982 
	C628.127747,58.464806 634.183350,53.585938 641.951843,52.062885 
	C649.655579,50.552528 652.938721,44.535614 656.957397,39.109825 
	C658.195496,37.438225 658.955627,34.906071 661.760681,36.959599 
	C664.372681,38.871880 662.660522,40.459599 661.418152,42.245144 
	C660.503296,43.559986 660.010986,45.168812 659.073730,47.203869 
	C662.337891,45.913628 665.264282,45.899269 668.196106,46.010895 
	C669.450745,46.058659 670.990234,45.665226 670.986694,47.802654 
	C670.983887,49.518101 670.415771,51.068218 668.587036,50.887627 
	C664.484680,50.482506 661.101501,53.422607 657.037231,53.036514 
	C654.898376,52.833336 653.955750,54.468616 652.959595,56.065826 
	C648.275024,63.576828 644.233154,71.434517 641.745361,79.912468 
	C640.893372,82.815804 638.019653,87.567230 644.739014,88.402390 
	C645.438965,88.489388 646.396912,89.599434 645.571167,90.797714 
	C644.517456,92.326904 642.747131,92.513336 641.596985,91.708588 
	C638.909546,89.828033 636.317932,87.632179 636.026733,83.962631 
	C635.909729,82.488625 636.007446,80.997589 636.007446,79.025612 
	C633.533081,79.845528 631.376770,80.353394 629.423706,81.286743 
	C628.298584,81.824455 627.137756,82.303436 626.112000,81.942749 
	C621.405518,80.287758 616.923523,79.941788 611.746887,80.542496 
	C607.567261,81.027512 608.004639,75.472565 608.049561,71.495590 
	C608.551025,70.594917 608.094238,71.360580 608.387878,70.762062 
	C608.464355,70.606094 608.302612,70.559822 607.604126,70.466568 
z"/>
<path fill="#ED1A46" opacity="1.000000" stroke="none" 
	d="
M119.990616,69.707977 
	C118.299347,70.996735 118.165680,72.984070 117.161507,74.409790 
	C112.863152,80.512581 106.744064,80.991753 100.384514,79.566391 
	C97.944351,79.019478 97.207787,79.083778 96.757362,81.484390 
	C96.066689,85.165482 93.077324,88.424545 94.831612,92.568298 
	C95.097290,93.195869 94.667152,93.798355 93.844284,93.925148 
	C92.710579,94.099831 91.944740,93.558899 91.333679,92.708153 
	C89.130325,89.640526 90.455215,85.997482 89.789062,82.656342 
	C84.020935,85.242325 81.461418,83.258499 80.833382,75.675056 
	C78.613426,75.463097 77.465691,77.096413 76.119972,78.381561 
	C74.559212,79.872078 72.789482,81.525566 70.567612,80.720947 
	C68.012390,79.795624 67.717728,77.336014 68.049553,74.472626 
	C68.551018,73.594879 68.094315,74.360634 68.387878,73.762085 
	C68.464378,73.606110 68.302605,73.559715 67.604202,73.466408 
	C65.181175,74.721115 64.189568,77.097618 62.554516,78.925316 
	C58.430107,83.535690 53.031425,83.142281 50.030918,77.702652 
	C48.515659,74.955635 47.280548,75.273659 45.470066,77.027344 
	C44.991814,77.490585 44.523071,77.964424 44.065575,78.448166 
	C41.960144,80.674393 39.196175,81.759613 36.433762,80.830841 
	C33.842609,79.959633 32.927738,77.283997 32.783817,74.230179 
	C29.267221,76.889938 25.823673,79.295967 21.960054,81.031723 
	C19.579693,82.101120 17.483858,82.668137 15.120191,80.715050 
	C12.802030,78.799561 12.307112,76.260826 13.167644,74.003273 
	C15.519373,67.833664 19.202061,62.355404 23.930332,57.743031 
	C25.479933,56.231419 27.872036,54.828922 30.140263,56.765274 
	C31.541494,57.961487 33.743347,59.049801 32.737339,61.586559 
	C31.619049,64.406456 31.216263,68.042053 27.540537,68.718475 
	C22.238691,69.694130 21.656956,69.981003 19.026415,76.949028 
	C26.486557,73.069397 34.054909,70.762108 38.609917,63.168514 
	C42.139771,57.283947 49.776070,55.660496 55.890491,58.648026 
	C58.591255,59.967632 59.725765,62.483921 58.696388,65.778664 
	C57.433277,69.821510 54.519718,73.313431 55.171055,78.146614 
	C58.123142,73.390358 61.071365,68.631691 64.029922,63.879463 
	C64.813728,62.620464 65.603035,61.026127 67.259605,61.193333 
	C69.044838,61.373524 68.811127,63.408642 69.439880,64.665894 
	C71.782684,63.285152 73.639725,59.835339 76.631683,61.481628 
	C79.957191,63.311455 77.044281,66.520691 77.019379,69.591942 
	C80.508797,67.661484 83.310051,65.439148 85.764862,62.742195 
	C87.073494,61.304478 88.409081,60.107841 90.374222,61.869087 
	C91.933182,63.266296 92.330956,64.505592 91.189323,66.603195 
	C89.289017,70.094765 87.915764,73.873177 85.788483,78.750793 
	C89.635696,76.122223 92.818344,74.774292 92.033844,70.425224 
	C91.863525,69.481003 91.803177,67.961823 92.870491,67.792007 
	C98.364189,66.917999 98.560013,61.177631 101.762711,58.177261 
	C103.397682,56.645580 104.815681,54.995701 106.905304,55.192513 
	C108.648407,55.356689 110.944740,56.133804 109.604942,59.110737 
	C109.173630,60.069088 110.225174,59.688885 110.788422,59.673973 
	C117.841583,59.487236 119.997185,61.770981 119.990616,69.707977 
z"/>
<path fill="#ED1A46" opacity="1.000000" stroke="none" 
	d="
M533.395752,62.533699 
	C534.226318,54.377117 541.136902,52.959766 546.959778,51.767250 
	C554.941711,50.132553 557.573120,43.540588 561.768982,38.339699 
	C562.902344,36.934879 563.651550,35.358601 565.527222,36.308842 
	C567.546204,37.331635 567.200562,39.184578 566.490479,41.074284 
	C565.734009,43.087185 563.541504,44.294044 563.578186,46.927120 
	C566.350891,46.188602 569.217590,45.765278 572.130493,46.007809 
	C573.351379,46.109455 574.948242,45.570877 574.983093,47.734650 
	C575.010498,49.436676 574.517639,50.899559 572.647827,50.890961 
	C570.761108,50.882282 569.129639,51.661316 567.365295,51.970287 
	C562.575256,52.809113 557.792603,53.298878 555.525879,58.823681 
	C553.756165,63.136761 549.852539,66.557083 550.023438,71.692451 
	C550.073669,73.202194 549.307007,74.118416 548.408936,75.143784 
	C545.921021,77.984200 545.037659,81.387955 544.963623,85.121071 
	C544.922913,87.175514 545.411804,88.255020 547.710693,88.035736 
	C548.963623,87.916229 550.833618,87.954979 550.314026,89.811066 
	C549.881348,91.356522 548.390625,92.586456 546.372314,91.720634 
	C543.345215,90.422028 540.845886,88.275505 540.230347,85.097633 
	C539.757507,82.655960 539.497742,81.570412 536.661377,80.547714 
	C532.217163,78.945213 532.121216,74.678398 534.064636,70.457291 
	C533.672607,70.174164 533.280579,69.891045 532.888489,69.607918 
	C530.024475,72.506569 527.102234,75.350609 524.314575,78.320938 
	C522.030640,80.754608 511.837677,81.939568 509.376251,79.843971 
	C506.680542,77.548943 505.297333,74.972260 506.957001,71.231018 
	C508.388611,68.003799 510.559753,65.355095 512.855591,62.872581 
	C513.918945,61.722736 515.884216,59.711716 517.876587,61.813732 
	C519.526611,63.554600 518.785889,65.615921 517.351196,67.033920 
	C514.909180,69.447594 513.764343,72.486938 512.318970,75.763298 
	C516.664612,76.285118 519.957825,75.532623 522.019409,71.263771 
	C523.713989,67.754768 526.101562,64.586990 527.936340,61.137299 
	C529.836365,57.564835 531.370605,57.609200 532.942383,61.589417 
	C532.449036,62.405106 532.905884,61.639336 532.612244,62.237843 
	C532.535645,62.393864 532.697327,62.440327 533.395752,62.533699 
z"/>
<path fill="#ED1A46" opacity="1.000000" stroke="none" 
	d="
M442.279968,57.324425 
	C439.289551,58.917023 435.876312,58.516548 433.773376,61.332771 
	C432.651855,62.834694 431.693573,61.288513 431.158020,60.453831 
	C430.338409,59.176422 430.065948,57.671898 431.776062,56.786976 
	C434.958496,55.140141 438.046509,52.832302 441.440643,52.172737 
	C448.460938,50.808521 452.706970,46.551716 456.096832,40.784515 
	C456.917297,39.388634 458.327484,38.348736 459.402649,37.090591 
	C460.562714,35.733036 461.545624,35.939331 462.685425,37.156746 
	C463.676300,38.215031 464.329498,38.961288 463.124481,40.480606 
	C461.643768,42.347553 460.604462,44.564629 459.289062,46.773579 
	C461.590271,47.257610 463.334961,46.115105 465.027618,45.354450 
	C468.489044,43.798946 470.467957,44.786976 471.309692,48.555557 
	C471.524200,49.515911 471.540161,50.443668 470.844513,50.529205 
	C463.975769,51.373775 463.941498,58.453632 459.960602,62.203823 
	C462.749908,61.771614 465.312805,59.861496 467.744629,63.079639 
	C470.092285,66.186409 468.263245,68.474449 467.502472,71.292793 
	C466.983002,73.217247 462.900574,76.562141 468.732971,77.730934 
	C469.458984,77.876427 468.731110,79.744293 467.855896,80.662949 
	C466.374725,82.217537 464.607574,82.674080 462.998505,81.362213 
	C460.908295,79.658089 459.260345,77.383217 460.316437,74.488266 
	C460.794067,73.178978 461.107056,72.022919 460.766724,70.429550 
	C456.271210,72.726395 454.672668,77.718201 450.925018,80.529694 
	C449.773254,81.393761 449.205688,83.884888 447.025116,82.417183 
	C444.992401,81.048988 444.617676,79.291336 445.529297,76.821167 
	C448.381866,69.091347 452.627045,62.157799 457.135498,55.345917 
	C457.475616,54.832047 457.747314,54.272896 458.208069,53.456032 
	C455.823181,52.993912 454.747833,53.980003 453.706146,55.632957 
	C448.455780,63.964279 444.383453,72.845840 441.442322,82.210884 
	C440.634277,84.783768 439.349884,88.469147 444.715668,88.069008 
	C445.674713,87.997475 446.916168,88.636215 446.360687,89.813438 
	C445.643921,91.332466 444.443695,92.421310 442.359741,91.757729 
	C438.729126,90.601662 435.994690,85.781464 436.716949,81.634773 
	C438.013733,74.189438 440.421143,67.137245 443.823608,60.386169 
	C444.361725,59.318432 446.802155,56.751934 442.279968,57.324425 
z"/>
<path fill="#ED1A46" opacity="1.000000" stroke="none" 
	d="
M263.377625,76.760406 
	C264.598145,79.661766 263.220490,81.627792 260.280914,81.889229 
	C257.210968,82.162270 255.936951,80.070213 255.995071,77.116234 
	C256.030182,75.331223 256.001526,73.544960 256.001526,70.533165 
	C252.249863,74.317833 249.112366,77.187813 246.364853,80.392174 
	C245.177444,81.777039 244.491425,84.051826 242.407776,82.449753 
	C240.824646,81.232544 239.179031,79.742020 240.536102,76.758408 
	C244.254089,68.584251 248.537079,60.773476 253.763138,53.381958 
	C250.760193,52.228165 249.464020,54.640682 248.496063,56.201878 
	C243.240616,64.678246 239.161636,73.730728 236.331009,83.315430 
	C235.643066,85.644859 235.709137,87.696899 238.846786,87.983521 
	C240.416779,88.126945 242.346298,88.480713 241.601547,90.342934 
	C241.142593,91.490585 239.190125,92.554405 237.308365,91.693115 
	C234.057465,90.205154 232.191025,87.932625 231.949722,84.146751 
	C231.412186,75.713753 235.916641,68.774345 238.334793,61.215256 
	C238.747116,59.926357 240.658859,58.787132 239.422485,57.377579 
	C238.326340,56.127895 236.993973,57.650066 235.806396,57.999493 
	C233.494247,58.679813 230.824249,58.875221 229.177322,60.756756 
	C228.097122,61.990837 227.610428,62.574696 226.990860,60.736473 
	C226.664795,59.769085 224.406540,59.425873 226.593842,57.456852 
	C229.390793,54.939022 232.518433,53.330650 235.901917,52.678516 
	C243.434830,51.226601 248.028824,46.289059 251.837067,40.323364 
	C252.661942,39.031197 253.706436,38.050995 254.611847,36.897198 
	C255.868225,35.296116 256.984131,36.543335 258.069946,37.062408 
	C259.551300,37.770561 258.962036,38.895317 258.522156,39.998039 
	C257.621429,42.256111 255.364075,43.802864 255.127350,46.442192 
	C257.165192,47.815147 258.808319,46.363369 260.007233,45.334511 
	C263.284698,42.521885 264.574799,44.767555 266.055420,47.221535 
	C268.042297,50.514656 265.383942,50.048927 263.533875,51.192116 
	C259.393372,53.750614 257.909424,58.602215 254.829468,62.944847 
	C257.850403,62.783447 259.784851,59.656521 262.467957,62.763752 
	C265.380341,66.136543 263.057587,68.877968 262.612305,71.948631 
	C262.375458,73.581856 258.371796,75.749809 263.377625,76.760406 
z"/>
<path fill="#ED1A46" opacity="1.000000" stroke="none" 
	d="
M263.778534,76.691132 
	C265.671021,68.551300 269.402649,61.455349 277.394165,58.068367 
	C281.809631,56.197002 286.171570,53.771164 290.821259,52.779919 
	C299.238983,50.985394 304.382599,45.543560 308.595154,38.757198 
	C309.600922,37.136868 310.369110,35.121620 312.563873,36.351944 
	C315.092834,37.769600 313.985077,39.981518 313.013580,41.975979 
	C312.231476,43.581642 310.524994,44.689327 310.532776,46.975243 
	C313.341003,46.079914 316.228973,45.811195 319.148865,46.009571 
	C320.374725,46.092854 321.956390,45.591541 321.983978,47.745811 
	C322.005737,49.446236 321.517578,50.818871 319.642426,50.912090 
	C317.968628,50.995296 316.363373,51.852871 314.873840,51.831116 
	C306.927917,51.715065 303.030426,56.648663 299.999451,62.961655 
	C297.112518,68.974525 294.184204,75.003693 292.412018,81.422264 
	C291.693237,84.025658 289.803619,88.445190 295.910492,88.100876 
	C296.854004,88.047668 297.967926,88.808075 297.303711,89.995872 
	C296.570801,91.306557 295.363129,92.533966 293.652985,91.845131 
	C290.824249,90.705750 288.242554,88.850227 287.517609,85.858177 
	C286.857910,83.135544 285.981445,81.109367 283.374176,79.768051 
	C281.414734,78.760048 280.748291,76.662735 280.833893,74.268814 
	C269.910736,82.961975 268.414062,83.197815 264.031372,76.813599 
	C263.677032,76.574669 263.739624,76.657059 263.778534,76.691132 
z"/>
<path fill="#ED1A46" opacity="1.000000" stroke="none" 
	d="
M144.123703,67.287109 
	C147.199722,67.718262 147.318085,65.563866 148.335800,64.373810 
	C149.999588,62.428307 152.132462,59.667530 154.753616,61.783463 
	C157.121399,63.694870 155.255386,66.182381 153.466080,68.045494 
	C151.482132,70.111290 150.659500,72.812691 149.226837,75.885368 
	C153.134598,76.151054 156.202469,76.024300 157.699982,71.801155 
	C159.572037,66.521736 163.825485,63.489746 168.477692,60.838055 
	C172.673691,58.446396 175.723953,60.814404 178.633621,63.213799 
	C181.239166,65.362396 179.927246,67.971809 178.858688,70.422211 
	C175.127701,78.978088 171.666855,87.629868 164.446838,94.148636 
	C160.739166,97.496185 156.769928,97.947868 152.664062,96.108376 
	C148.401886,94.198860 145.446609,90.943466 146.113297,85.565773 
	C147.886032,85.819511 148.389069,87.084549 149.124100,88.385071 
	C152.412308,94.203079 152.475250,94.217323 158.989548,90.329041 
	C161.924210,88.577385 163.794495,85.443474 165.450989,81.978882 
	C165.410141,81.457321 165.297516,81.185875 165.320648,80.892502 
	C165.344635,80.588432 165.389618,80.436363 165.191437,80.677582 
	C162.824020,80.937263 160.646805,81.532394 158.926392,79.543144 
	C158.260147,78.772781 157.167007,78.877556 156.181427,79.388435 
	C152.877792,81.100891 149.543594,82.267426 146.092865,79.692940 
	C145.101166,78.953072 144.649734,79.981346 144.072937,80.428917 
	C141.831375,82.168358 139.928436,81.549416 138.034149,79.354065 
	C137.951904,78.325020 137.960617,77.594650 138.354874,76.579468 
	C140.250580,74.845230 141.190445,73.074173 141.002716,70.425453 
	C141.142563,69.846596 141.228500,69.620903 141.504303,69.082672 
	C142.137009,68.157150 142.723282,67.736862 144.123703,67.287109 
z"/>
<path fill="#ED1A46" opacity="1.000000" stroke="none" 
	d="
M193.395813,62.533470 
	C194.774200,61.978287 195.791916,61.086380 196.976944,60.615234 
	C198.323318,60.079937 199.443146,58.159935 201.303680,59.790295 
	C203.036713,61.308956 203.144089,62.866001 202.561356,65.081230 
	C201.527466,69.011490 198.530533,72.136826 197.916199,76.913727 
	C200.496811,75.689217 202.682831,74.830383 204.670593,73.640381 
	C205.823181,72.950371 206.671112,72.128113 206.189133,70.113815 
	C204.811142,64.354919 206.504807,61.275429 212.014633,58.520840 
	C214.587265,57.234673 217.287720,56.309555 218.938843,53.646748 
	C219.713974,52.396671 220.899399,51.260693 222.522522,52.984852 
	C223.762802,54.302319 224.561905,55.414505 223.281952,57.279339 
	C221.906174,59.283821 221.005508,61.608814 219.697739,63.667004 
	C218.120392,66.149445 217.174545,68.607010 219.483154,71.869888 
	C215.276093,71.490562 215.031464,68.249054 213.487442,66.344742 
	C210.437332,68.701393 210.121628,71.235283 212.704498,74.243614 
	C214.546280,76.388786 216.550812,78.773460 213.142166,81.312889 
	C209.642380,83.920242 204.476898,84.079826 202.299057,81.609390 
	C201.696335,80.925674 201.670898,80.112747 200.216415,80.257843 
	C194.223557,80.855682 191.920486,78.075020 193.352997,72.225548 
	C193.499847,71.625908 194.049988,71.134575 193.119675,69.373497 
	C190.021942,72.523293 186.819382,75.220436 184.365875,78.481209 
	C182.860168,80.482368 182.008530,79.899757 180.380081,79.143410 
	C178.199753,78.130722 179.025299,76.963348 179.792816,75.592926 
	C182.657043,70.478668 185.328659,65.247925 188.391342,60.256508 
	C190.389359,57.000256 191.918869,58.675880 192.942413,61.589439 
	C192.449005,62.405144 192.905685,61.639435 192.612076,62.237968 
	C192.535568,62.393944 192.697372,62.440250 193.395813,62.533470 
z"/>
<path fill="#ED1A46" opacity="1.000000" stroke="none" 
	d="
M380.983856,71.729767 
	C377.811279,75.895187 374.964447,80.003563 370.053467,82.033890 
	C365.055664,84.100136 360.197723,81.569618 361.237823,76.461624 
	C362.266785,71.408394 356.718231,70.441673 356.712463,66.334602 
	C351.650696,69.525017 349.036835,74.920792 344.776062,78.694328 
	C343.181335,80.106697 341.574219,82.913742 339.237488,81.208771 
	C336.904633,79.506607 336.480530,76.779877 338.477356,73.902008 
	C341.355225,69.754272 343.731110,65.260086 346.563354,61.077744 
	C347.413452,59.822411 348.472137,57.873127 350.319611,58.222836 
	C352.398621,58.616383 351.857178,60.844273 352.148499,62.224812 
	C358.246857,59.220772 364.922943,57.833031 371.382141,56.224194 
	C377.175659,54.781166 382.561188,61.593651 381.286530,67.434082 
	C381.007141,68.714310 381.068085,70.068825 380.983856,71.729767 
z"/>
<path fill="#ED1A46" opacity="1.000000" stroke="none" 
	d="
M313.000854,75.132339 
	C315.481812,69.841370 317.798248,64.867134 320.483551,60.100723 
	C323.924652,53.992805 327.437836,47.884556 332.582153,42.973049 
	C333.628021,41.974506 334.894562,41.179264 336.140808,40.424873 
	C338.052673,39.267555 339.198730,40.624950 340.336243,41.873585 
	C341.789185,43.468479 340.242981,44.296963 339.370270,45.086422 
	C334.584656,49.415627 330.861755,54.500134 327.688751,60.534092 
	C330.544556,61.064404 332.980072,58.818218 335.445251,60.886749 
	C338.805664,63.706520 339.919220,67.944420 336.868011,72.058472 
	C332.739471,77.625175 328.019470,83.433022 319.991180,81.696480 
	C317.628052,81.185326 317.882507,85.662727 314.658752,82.871002 
	C311.610352,80.231117 313.702454,77.878418 313.000854,75.132339 
z"/>
<path fill="#ED1A46" opacity="1.000000" stroke="none" 
	d="
M402.078674,78.287460 
	C402.227386,79.747444 403.225647,80.914474 400.823486,81.103531 
	C396.087952,81.476219 392.128693,79.459290 388.233917,77.525291 
	C385.532196,76.183723 384.341187,76.701508 384.093018,79.357124 
	C383.862122,81.827835 382.144653,83.961914 383.562134,87.624802 
	C377.894470,82.500237 380.728577,77.537064 380.998474,72.477081 
	C380.995422,72.070412 380.918579,72.146904 380.881927,72.196289 
	C386.064087,63.270218 390.756470,53.987560 396.741974,45.456062 
	C397.769958,43.990803 398.660645,42.155464 400.359375,43.374218 
	C401.812103,44.416500 402.605255,46.291599 401.162964,48.571457 
	C397.908997,53.715096 395.038239,59.101177 391.747070,64.850716 
	C394.521606,64.878006 395.202179,62.848698 396.590240,61.935257 
	C397.554993,61.300407 398.195831,59.188946 399.662323,60.570873 
	C400.776459,61.620804 401.242584,63.169392 400.074829,64.944244 
	C398.396606,67.494904 396.116364,69.417175 393.958588,71.436882 
	C391.664185,73.584473 392.483337,74.415123 394.861786,75.444588 
	C397.088562,76.408394 399.690887,76.404671 401.881012,78.402496 
	C402.078461,78.433327 402.012177,78.160744 402.078674,78.287460 
z"/>
<path fill="#ED1A46" opacity="1.000000" stroke="none" 
	d="
M140.408875,77.752823 
	C139.558990,78.230316 139.003265,78.502876 138.169708,78.911797 
	C135.758804,78.204803 135.969635,76.236259 135.923065,74.065346 
	C131.421585,77.132675 128.329407,83.374863 122.077637,80.301376 
	C118.355232,78.471367 118.548256,74.470520 120.003571,70.435745 
	C120.006691,70.053307 119.930519,70.129311 119.894257,70.177475 
	C123.422966,65.849075 126.169243,60.690598 131.621429,58.131416 
	C135.728516,56.203609 143.139938,57.772274 145.543304,61.233326 
	C146.783463,63.019268 145.519592,64.662689 144.902191,66.710793 
	C144.817535,67.096024 144.913742,67.005188 144.959473,66.957382 
	C144.269699,67.663155 144.622314,68.678780 144.153503,69.822189 
	C143.937393,70.095749 144.000961,70.002411 144.032806,69.955772 
	C142.367722,72.201736 142.888596,75.470329 140.408875,77.752823 
z"/>
<path fill="#ED1A46" opacity="1.000000" stroke="none" 
	d="
M402.143005,78.649765 
	C401.072296,68.984039 406.159576,62.828144 414.092651,58.497025 
	C416.332214,57.274319 418.798248,56.675175 421.269745,58.710060 
	C423.682556,60.696629 423.263458,63.279507 422.880890,65.582512 
	C421.983368,70.985321 415.756287,74.478294 410.379974,72.870148 
	C409.781158,72.691025 409.381500,72.089607 408.990875,73.081520 
	C408.578827,74.127914 407.599396,75.056511 408.171478,76.294571 
	C408.601105,77.224457 409.618408,77.109138 410.353546,76.949753 
	C414.218567,76.111763 417.677277,74.265869 421.095947,72.363472 
	C422.492310,71.586449 423.814087,70.675331 425.226196,69.789841 
	C426.521820,71.994041 426.027191,73.466293 424.605591,74.952728 
	C421.354218,78.352402 417.400940,80.498322 412.985748,81.953186 
	C408.178406,83.537262 405.668701,79.335243 402.165894,78.219154 
	C402.211426,78.686760 402.141296,78.593620 402.143005,78.649765 
z"/>
<path fill="#ED1A46" opacity="1.000000" stroke="none" 
	d="
M474.181274,81.030907 
	C468.577515,75.488586 468.610382,70.103302 474.029541,64.521927 
	C476.317444,62.165585 478.344360,59.440506 481.563538,58.184124 
	C484.294678,57.118217 486.633301,57.256618 489.063477,59.430752 
	C491.657440,61.751362 491.025330,63.957767 490.004364,66.527817 
	C488.124115,71.260742 483.482849,74.007515 478.543793,73.210709 
	C477.586609,73.056290 476.515564,72.658203 476.101715,73.993095 
	C475.832306,74.862152 475.753235,75.790237 475.588928,76.691887 
	C476.559387,76.732635 477.624237,77.054817 478.484283,76.766388 
	C482.648071,75.370026 486.811737,73.971542 490.419067,71.278618 
	C491.042633,70.813103 492.183929,69.643738 493.407898,70.927902 
	C494.645447,72.226311 493.409729,73.123108 492.954407,73.997787 
	C490.391296,78.922112 480.186066,82.831223 474.181274,81.030907 
z"/>
<path fill="#ED1A46" opacity="1.000000" stroke="none" 
	d="
M160.243042,56.415424 
	C159.776276,57.323769 159.600830,58.006897 159.186798,58.482231 
	C158.294205,59.506989 161.998718,62.074825 158.189804,61.855709 
	C155.788925,61.717594 154.981201,59.061211 155.184265,57.396416 
	C155.671448,53.402706 157.711823,49.963348 161.050262,47.505203 
	C162.326660,46.565365 163.383148,47.145813 164.604050,48.023029 
	C166.227631,49.189571 165.504364,50.480934 164.850128,51.363277 
	C163.572220,53.086727 161.922180,54.534245 160.243042,56.415424 
z"/>
<path fill="#ED1A46" opacity="1.000000" stroke="none" 
	d="
M526.737610,52.758560 
	C524.791504,55.303326 521.163757,56.640488 522.800232,60.581371 
	C523.101868,61.307701 522.688232,61.802052 521.900269,61.924896 
	C521.027039,62.061028 520.310242,61.805729 519.690125,61.156281 
	C517.375061,58.731541 518.232361,56.099918 519.233582,53.512268 
	C519.947388,51.667427 521.175293,50.157578 522.651245,48.817623 
	C524.007507,47.586323 525.137512,46.094997 527.221741,47.727505 
	C529.495972,49.508781 528.249695,50.973919 526.737610,52.758560 
z"/>
<path fill="#000000" opacity="1.000000" stroke="none" 
	d="
M634.562195,73.758469 
	C631.639648,74.906616 629.085388,75.957664 626.459290,76.779404 
	C625.591248,77.051041 624.538147,76.731377 623.569702,76.682037 
	C623.741211,75.779404 623.825806,74.848854 624.104553,73.980637 
	C624.527771,72.662704 625.591064,73.056511 626.547974,73.212479 
	C632.320679,74.153427 638.744568,69.038483 638.982178,63.315628 
	C638.995850,62.984398 639.009033,62.645603 638.958191,62.320374 
	C638.244934,57.756153 638.694336,57.338406 644.986023,57.262836 
	C640.993225,62.553894 641.205261,69.965385 634.562195,73.758469 
z"/>
<path fill="#000000" opacity="1.000000" stroke="none" 
	d="
M631.334106,67.161911 
	C630.371155,67.803421 630.057739,69.339607 628.790466,68.202034 
	C627.745544,67.264008 628.802307,66.782204 629.262634,66.248520 
	C630.423523,64.902870 631.728760,63.738583 633.679382,63.449337 
	C634.245544,65.399223 632.218811,65.762482 631.334106,67.161911 
z"/>
<path fill="#000000" opacity="1.000000" stroke="none" 
	d="
M566.215088,64.554306 
	C565.981384,67.330124 564.401062,68.180298 562.358337,69.361710 
	C561.814209,66.592552 563.894226,65.999504 565.067749,64.535156 
	C565.660278,64.223061 566.003174,64.130463 566.215088,64.554306 
z"/>
<path fill="#000000" opacity="1.000000" stroke="none" 
	d="
M607.508301,70.505157 
	C607.765686,69.990273 607.954895,69.080612 608.720947,69.546616 
	C608.885254,69.646538 608.659180,70.388237 608.348511,70.952515 
	C607.955750,70.945374 607.827454,70.820023 607.508301,70.505157 
z"/>
<path fill="#000000" opacity="1.000000" stroke="none" 
	d="
M565.508301,64.505157 
	C565.765686,63.990303 565.954895,63.080566 566.721008,63.546581 
	C566.885315,63.646549 566.659302,64.388245 566.348511,64.952522 
	C565.955750,64.945374 565.827454,64.820023 565.508301,64.505157 
z"/>
<path fill="#000000" opacity="1.000000" stroke="none" 
	d="
M102.312157,70.303345 
	C105.301857,68.308731 108.032448,66.589806 110.669014,64.737053 
	C111.888908,63.879814 113.286827,63.592377 114.343704,64.313675 
	C115.828598,65.327065 114.579155,66.580574 114.066940,67.730873 
	C111.254494,74.046890 107.172256,76.327805 99.546608,75.753059 
	C99.950935,73.802910 100.741631,72.052460 102.312157,70.303345 
z"/>
<path fill="#000000" opacity="1.000000" stroke="none" 
	d="
M39.784920,73.445709 
	C42.584141,67.275024 44.168255,65.634392 50.333904,62.139645 
	C50.693218,62.442822 51.052532,62.745995 51.411846,63.049171 
	C48.001289,66.448662 44.590733,69.848152 40.931389,73.466019 
	C40.339706,73.776955 39.996815,73.869545 39.784920,73.445709 
z"/>
<path fill="#000000" opacity="1.000000" stroke="none" 
	d="
M40.491661,73.494881 
	C40.234322,74.009796 40.045055,74.919418 39.278965,74.453438 
	C39.114674,74.353508 39.340759,73.611778 39.651466,73.047501 
	C40.044189,73.054657 40.172455,73.180008 40.491661,73.494881 
z"/>
<path fill="#000000" opacity="1.000000" stroke="none" 
	d="
M67.508347,73.505112 
	C67.765694,72.990196 67.954956,72.080566 68.721046,72.546570 
	C68.885338,72.646507 68.659241,73.388229 68.348526,73.952499 
	C67.955811,73.945343 67.827545,73.819992 67.508347,73.505112 
z"/>
<path fill="#000000" opacity="1.000000" stroke="none" 
	d="
M542.301514,65.319077 
	C542.669189,64.360535 543.148804,63.583824 542.937439,63.126099 
	C539.918640,56.586693 545.844482,58.517200 548.513428,57.276192 
	C544.132202,63.206619 545.212036,71.941254 538.080505,77.694016 
	C538.097595,72.365372 541.782288,69.592796 542.301514,65.319077 
z"/>
<path fill="#000000" opacity="1.000000" stroke="none" 
	d="
M533.491638,62.494888 
	C533.234253,63.009750 533.045044,63.919525 532.278931,63.453430 
	C532.114624,63.353439 532.340759,62.611744 532.651489,62.047470 
	C533.044189,62.054630 533.172485,62.179989 533.491638,62.494888 
z"/>
<path fill="#000000" opacity="1.000000" stroke="none" 
	d="
M286.075226,76.824707 
	C287.501617,72.660835 288.998474,68.897255 290.410004,65.101952 
	C290.741791,64.209869 291.251740,62.950459 290.889374,62.300919 
	C287.292206,55.852722 293.687408,58.716381 295.385742,57.181625 
	C292.726624,63.139648 290.580505,69.176460 288.721222,75.336105 
	C288.531433,75.964806 288.598541,78.931961 286.075226,76.824707 
z"/>
<path fill="#000000" opacity="1.000000" stroke="none" 
	d="
M281.827209,63.183441 
	C279.406067,68.040253 275.508209,70.797386 271.805878,73.790886 
	C273.302155,69.174942 276.042572,65.535538 280.578522,62.960960 
	C281.282654,62.832520 281.638885,62.746235 281.827209,63.183441 
z"/>
<path fill="#000000" opacity="1.000000" stroke="none" 
	d="
M281.109009,63.116478 
	C281.193848,62.164455 281.787628,61.822041 282.425293,62.251133 
	C283.015503,62.648270 282.351685,63.003456 281.876526,63.518715 
	C281.536713,63.576008 281.414124,63.445065 281.109009,63.116478 
z"/>
<path fill="#000000" opacity="1.000000" stroke="none" 
	d="
M140.503922,77.974762 
	C141.209961,75.369522 142.305206,72.781296 143.732544,70.051102 
	C144.608398,72.179405 142.259125,74.080353 143.669617,76.767227 
	C144.498825,78.346794 141.942078,77.681358 140.503922,77.974762 
z"/>
<path fill="#000000" opacity="1.000000" stroke="none" 
	d="
M144.310928,69.897964 
	C144.076294,69.143295 144.215195,68.190834 144.679642,67.073975 
	C146.409012,68.013405 144.608368,68.748955 144.310928,69.897964 
z"/>
<path fill="#000000" opacity="1.000000" stroke="none" 
	d="
M165.109039,81.116440 
	C165.193863,80.164444 165.787582,79.822029 166.425262,80.251091 
	C167.015442,80.648186 166.351761,81.003426 165.876587,81.518661 
	C165.536789,81.575958 165.414200,81.445023 165.109039,81.116440 
z"/>
<path fill="#000000" opacity="1.000000" stroke="none" 
	d="
M208.186447,76.587509 
	C207.043427,78.031982 205.996750,78.956474 204.377975,78.786133 
	C204.593689,77.231461 205.797440,77.098053 207.058807,76.517197 
	C207.642563,76.243851 207.969086,76.170731 208.186447,76.587509 
z"/>
<path fill="#000000" opacity="1.000000" stroke="none" 
	d="
M207.506042,76.507385 
	C207.925705,75.621773 208.536346,74.707260 209.411469,75.991013 
	C210.029755,76.898010 209.215897,76.884117 208.371033,77.039154 
	C207.950211,76.950874 207.823135,76.824333 207.506042,76.507385 
z"/>
<path fill="#000000" opacity="1.000000" stroke="none" 
	d="
M193.491669,62.494873 
	C193.234329,63.009800 193.045074,63.919407 192.278976,63.453430 
	C192.114685,63.353504 192.340759,62.611778 192.651459,62.047501 
	C193.044189,62.054649 193.172455,62.180000 193.491669,62.494873 
z"/>
<path fill="#000000" opacity="1.000000" stroke="none" 
	d="
M372.010742,65.924286 
	C372.365479,65.141815 372.596680,64.687408 372.927948,64.324242 
	C374.047241,63.097095 373.342010,59.839363 375.443970,60.369297 
	C378.010437,61.016338 377.300873,64.153763 376.887268,66.033691 
	C375.624542,71.773743 371.284760,74.963280 365.407867,78.395584 
	C367.832092,73.538162 369.233002,69.588371 372.010742,65.924286 
z"/>
<path fill="#000000" opacity="1.000000" stroke="none" 
	d="
M368.827209,61.183441 
	C367.452728,63.414021 366.089142,65.035301 365.093292,66.857536 
	C364.399414,68.127159 363.727112,69.078781 362.196686,68.927116 
	C360.760620,68.784805 360.918976,67.559074 361.052582,66.689598 
	C361.247314,65.422211 360.098328,63.694263 362.287537,62.995438 
	C363.956055,62.462807 365.545563,61.682629 367.548340,60.965706 
	C368.282654,60.832520 368.638885,60.746235 368.827209,61.183441 
z"/>
<path fill="#000000" opacity="1.000000" stroke="none" 
	d="
M368.109009,61.116478 
	C368.193848,60.164455 368.787628,59.822041 369.425293,60.251133 
	C370.015503,60.648273 369.351685,61.003456 368.876526,61.518715 
	C368.536713,61.576008 368.414124,61.445065 368.109009,61.116478 
z"/>
<path fill="#000000" opacity="1.000000" stroke="none" 
	d="
M328.629425,73.731544 
	C325.937134,74.640060 323.624878,78.537567 321.670868,76.422508 
	C319.876434,74.480171 323.912598,72.736282 325.218445,70.965668 
	C327.173737,68.314415 329.924988,65.890770 334.161072,64.939026 
	C332.971527,68.655701 331.215485,71.243904 328.629425,73.731544 
z"/>
<path fill="#000000" opacity="1.000000" stroke="none" 
	d="
M137.827209,62.183411 
	C134.160477,66.575500 131.705246,71.548332 125.604103,73.971786 
	C128.508957,68.647583 131.851822,64.875114 136.579315,61.960884 
	C137.282669,61.832504 137.638855,61.746212 137.827209,62.183411 
z"/>
<path fill="#000000" opacity="1.000000" stroke="none" 
	d="
M137.109039,62.116447 
	C137.193878,61.164452 137.787613,60.822044 138.425278,61.251091 
	C139.015472,61.648201 138.351746,62.003422 137.876587,62.518669 
	C137.536789,62.575966 137.414200,62.445030 137.109039,62.116447 
z"/>
<path fill="#000000" opacity="1.000000" stroke="none" 
	d="
M417.215088,64.554321 
	C416.921844,67.273323 415.534210,68.307289 413.310425,69.117905 
	C412.814178,66.592499 414.894257,65.999474 416.067810,64.535088 
	C416.660339,64.223022 417.003204,64.130493 417.215088,64.554321 
z"/>
<path fill="#000000" opacity="1.000000" stroke="none" 
	d="
M416.508453,64.504990 
	C416.765503,63.989799 416.955688,63.081158 417.721405,63.547318 
	C417.885590,63.647274 417.659149,64.388847 417.348358,64.952774 
	C416.955841,64.945267 416.827637,64.819839 416.508453,64.504990 
z"/>
<path fill="#000000" opacity="1.000000" stroke="none" 
	d="
M483.334106,67.161911 
	C482.371155,67.803513 482.057617,69.339523 480.790436,68.202019 
	C479.745453,67.263947 480.802399,66.782227 481.262756,66.248573 
	C482.423553,64.902832 483.728882,63.738625 485.679474,63.449322 
	C486.245483,65.399162 484.218842,65.762489 483.334106,67.161911 
z"/>
</svg>