<svg xmlns="http://www.w3.org/2000/svg" viewBox="103.93 93.21 233.59 49.3"><path d="M122.32 100.45c.29.07.61.08.94.03s.63-.06.93-.03c.11 0 .2-.07.25-.22s.1-.28.13-.38c.11 0 .2-.04.25-.11.05-.07.06-.12.03-.17.18-.22.37-.48.54-.79.19-.31.37-.56.55-.74.18-.07.37-.14.57-.19.21-.05.39-.12.58-.19.07 0 .11.03.11.08s.02.08.05.08c.11-.29.27-.38.46-.27.21.11.37.11.53 0 .11.18.28.28.52.3s.45.07.63.14c.11-.04.19-.09.24-.17.06-.07.2-.07.42 0 .07.08.13.14.19.19s.13.08.25.08c.07.07.09.12.05.13s-.04.07 0 .14c.07.07.15.14.24.19.1.05.2.08.3.08.07.15.21.28.38.38.19.11.37.22.55.33.07.26.14.5.21.71s.13.47.17.77c.04.11.09.17.16.17-.07.07-.11.15-.11.22s-.05.15-.17.22c.04.18.02.41-.05.69-.07.27-.11.48-.11.63-.14.18-.25.39-.3.63-.05.24-.12.43-.19.58-.19.7-.41 1.36-.69 2s-.5 1.27-.69 1.89c-.14.18-.21.37-.21.58s-.12.39-.33.58c.04.04.03.09-.03.17-.06.07-.12.11-.2.11-.14.44-.36.83-.63 1.18s-.54.69-.79 1.02H128s-.02.05-.05.05c0 .11-.03.19-.08.25s-.1.12-.13.19c-.19-.07-.34-.09-.47-.05-.12.04-.28.04-.46 0-.26.04-.48.03-.69-.03-.2-.05-.39-.12-.57-.19a.64.64 0 0 0-.38-.36.53.53 0 0 1-.38-.36c-.04 0-.1-.02-.17-.05s-.11-.04-.11 0c-.11-.25-.28-.49-.49-.69-.22-.2-.37-.45-.44-.74-.26-.07-.38-.25-.38-.54.04-.11.06-.18.08-.22.02-.04.03-.14.03-.33-.19.07-.34.16-.46.25-.13.09-.29.14-.47.14-.14.14-.35.25-.6.33a99.38 99.38 0 0 1-3.48 2.27 19.12 19.12 0 0 0-3.27 2.61c-.04.04-.07.05-.11.05-.19.18-.38.37-.61.58-.21.2-.45.39-.71.58-.07.15-.15.3-.24.47-.1.17-.23.28-.41.36-.33.58-.7 1.12-1.12 1.59-.42.48-.78.97-1.07 1.48 0 .07.07.1.21.08.15-.02.24-.08.28-.19.19.08.38.1.61.08.21-.02.38-.07.49-.14.4-.04.82-.08 1.26-.14.45-.05.85-.13 1.21-.25.51 0 1-.08 1.47-.25.48-.17.95-.3 1.43-.41.04 0 .06-.02.08-.05s.06-.04.14 0c.8-.18 1.61-.4 2.41-.66s1.57-.53 2.3-.83c.26.04.46.01.63-.08.16-.09.34-.12.52-.08.07-.08.12-.11.17-.11.04 0 .07-.04.11-.11.18.04.35.03.49-.03.14-.05.28-.12.38-.19.4-.18.82-.33 1.26-.46.45-.13.87-.3 1.27-.52.25-.07.52-.14.79-.19s.54-.12.79-.19l.22-.22s.09 0 .16.03.16 0 .28-.03c.18-.07.38-.16.6-.25.22-.09.38-.03.5.19.14-.11.29-.18.44-.22.14-.04.3-.11.49-.22.07.22.2.37.36.47.16.09.25.25.25.46-.26.11-.49.21-.69.3-.21.09-.46.17-.79.25 0 .08 0 .13-.03.17s0 .09.03.17c.33.07.57.02.74-.17.16-.18.37-.22.62-.11-.14.11-.29.18-.44.22-.14.04-.31.11-.49.22-.04.07-.04.11-.03.11s0 .04-.03.11c-.08 0-.13 0-.17.03s-.09.03-.16.03c0 .08-.02.12-.05.14s-.05.06-.05.14c-.29.07-.54.2-.71.38-.19.18-.42.33-.71.44-.19.04-.35.06-.49.08-.15.02-.28.1-.38.25-.62.11-1.13.27-1.54.49-.4.22-.82.44-1.26.66.04.04.06.04.08 0s.06-.04.14 0c0 .07-.03.1-.08.08-.06-.02-.11 0-.14.08.19.07.34.05.46-.06.13-.11.29-.17.47-.17.04.26-.07.41-.3.44-.24.04-.37.11-.41.22-.12 0-.22.04-.33.11-.11.08-.22.09-.33.06-.07.07-.15.12-.25.17-.09.04-.15.07-.19.11-.22.15-.42.29-.61.44-.18.15-.37.26-.54.33-.07.08-.16.12-.25.14s-.15.08-.19.19c-.29.11-.59.25-.88.44-.29.18-.56.33-.82.44-.65.29-1.26.57-1.81.83-.4.33-.84.58-1.31.77s-.95.38-1.43.6c-.07.04-.12.07-.13.11-.02.04-.06.09-.13.16-.45.04-.87.15-1.27.33s-.86.31-1.36.38c-.15.04-.28.04-.38 0a.469.469 0 0 0-.33 0c-.33 0-.7.04-1.12.14-.42.09-.79.17-1.12.25-.11 0-.22 0-.33-.03s-.21-.08-.28-.19c-.29-.04-.57-.05-.85-.05s-.5-.08-.69-.22c-.37.14-.66.11-.87-.11-.22-.22-.49-.35-.82-.38 0-.07-.02-.12-.05-.14-.04-.02-.06-.06-.06-.13-.51.07-.88-.06-1.1-.38-.22-.33-.49-.58-.82-.77-.33-.51-.62-1.06-.88-1.65-.26-.58-.38-1.22-.38-1.92-.07-.15-.11-.24-.11-.28.15-.33.17-.69.06-1.09s-.04-.73.22-.99c-.11-.07-.16-.18-.16-.33.14-.29.29-.58.44-.85.15-.27.29-.59.44-.96h.11c.04-.14.09-.2.17-.17-.04-.11-.04-.18 0-.22s.04-.09 0-.17c.18-.18.31-.36.38-.52.07-.17.2-.36.38-.58.07-.08.16-.13.25-.17.09-.04.15-.09.19-.17.19-.22.37-.45.58-.69.2-.24.39-.45.57-.63.04-.07.06-.13.06-.17s.04-.09.11-.17c.07-.04.14-.08.21-.14.08-.05.15-.1.22-.13.11-.22.29-.46.55-.71.29-.29.61-.58.96-.85.35-.28.69-.56 1.02-.85v-.17c.29-.18.57-.37.85-.55s.54-.4.79-.66c.07-.04.14-.08.21-.14.08-.05.15-.1.22-.14.73-.66 1.53-1.21 2.38-1.67.87-.46 1.68-.99 2.44-1.62.37-.11.66-.3.9-.58.24-.27.52-.48.85-.63 0-.08 0-.11.03-.11s.04-.04.09-.11v-.06c.07 0 .13-.02.19-.05s.12-.05.2-.05c.4-.25.85-.45 1.34-.58s.88-.37 1.18-.74Z" style="fill:#fb0742"></path><path d="M131.81 109.85c.22-.2.37-.5.44-.9h.17c.04-.11 0-.15-.11-.11-.11.04-.15 0-.11-.11.4-.47.86-.91 1.37-1.32.51-.4.95-.89 1.32-1.48.08-.04.11-.03.11.03s.02.04.05-.03c.22-.26.47-.47.74-.63.27-.16.5-.45.69-.85h.33c.26-.29.53-.51.83-.66.29-.14.55-.33.77-.54.4-.04.74-.2 1.01-.5.27-.29.65-.44 1.12-.44.07.04.11.03.11-.03s.02-.1.05-.14c.4-.08.87-.14 1.42-.19s1.12-.16 1.7-.3h.19s.08.02.19.06h.93c.29 0 .59.07.91.22.31.14.59.22.85.22.08 0 .12-.03.14-.08.02-.05.04-.08.08-.08.33.07.62.25.88.55.25.29.55.42.88.38.29-.73.58-1.45.85-2.17.28-.71.61-1.34 1.02-1.89h.22c.07-.11.13-.2.19-.28.05-.07.1-.17.13-.27.29-.08.58-.28.85-.61.27-.33.59-.45.96-.38 0 .08-.03.11-.08.11s-.1.04-.13.11c.14.14.31.16.49.05.15.07.32.17.52.3.2.13.41.12.63-.03 0 .11.02.19.06.25.04.05.09.12.17.19.18-.11.34-.08.49.11s.33.17.55-.05c.15.15.28.29.41.44.13.15.29.24.47.28.22.55.47 1.07.77 1.56.29.49.49 1.09.6 1.78.04.26.03.49-.03.69-.06.2-.07.43-.03.68 0 .11-.02.19-.06.22l-.11.11c.07.22.05.45-.06.69-.11.24-.16.5-.16.79-.19.4-.35.85-.5 1.34s-.28 1.01-.38 1.56c0 .08-.05.11-.17.11-.22 1.06-.49 2.11-.79 3.15-.31 1.04-.65 2.06-1.01 3.04-.04.08-.08.18-.14.33s-.08.25-.08.33c-.04.11-.04.22-.03.33.02.11 0 .18-.03.22-.07.22-.17.43-.3.63-.13.2-.17.46-.14.79-.37 1.03-.66 2.08-.88 3.18s-.47 2.21-.77 3.34c-.15.37-.31.72-.49 1.07-.19.35-.35.69-.5 1.01-.29.11-.5.29-.6.52-.11.24-.31.41-.6.52.07-.18.03-.28-.14-.28s-.32-.02-.47-.05c.26 0 .35-.17.28-.49-.15-.15-.25-.34-.3-.58-.05-.24-.17-.27-.36-.08-.07.04-.12.03-.13-.03a.638.638 0 0 0-.08-.14c-.07.04-.08.08-.03.14s.04.12-.03.19c-.25-.11-.5-.35-.71-.71s-.49-.53-.82-.49c-.04 0-.04-.04-.03-.11s0-.11-.03-.11c-.08.08-.08.11-.03.11s.04.04-.03.11c-.11.07-.17.03-.19-.14s-.04-.32-.08-.47c-.08-.07-.11-.07-.11 0 0 .08-.02.08-.05 0-.18-1.06-.36-2.11-.52-3.15-.17-1.04-.21-2.16-.13-3.37-.08-.11-.13-.12-.17-.05-.04.07-.09.17-.17.27-.26.26-.6.51-1.04.77-.44.26-.79.53-1.04.83-.08.11-.17.24-.3.38-.12.15-.28.25-.46.33-.04.08-.05.14-.05.19 0 .06-.02.1-.06.14-1.06.55-2.05 1.2-2.96 1.98-.91.77-1.96 1.35-3.13 1.75-.04.07-.06.14-.08.22-.02.07-.04.17-.08.27-.29-.04-.63 0-1.01.08-.38.09-.72.17-1.01.25.07.07.2.11.38.11.04.29-.04.44-.22.44s-.31.09-.38.27c-.26-.11-.48-.18-.66-.22-.22-.33-.45-.59-.71-.79-.25-.2-.51-.38-.77-.55-.25-.17-.52-.33-.79-.49a4.12 4.12 0 0 1-.79-.63v-.27c-.04-.08-.11-.08-.22 0-.48-.77-.91-1.66-1.29-2.69s-.63-2.12-.74-3.29c-.04-.14-.04-.23 0-.25s.08-.04.11-.08c-.08-.55-.08-1.02-.03-1.4.05-.38.15-.79.3-1.23.04-.11.1-.22.19-.33.09-.11.17-.22.25-.33.04-.18.11-.34.22-.49.07-.18.13-.29.19-.33.05-.04.12-.07.19-.11.22-.29.42-.6.6-.91.18-.31.38-.56.6-.74h.22c.15-.25.33-.49.55-.69Zm2.9 8.02c-.07.04-.13.09-.19.17-.05.08-.04.11.03.11 0-.07.04-.1.11-.08.07.02.09-.04.05-.19Zm.72-.6c.11.08.18.09.22.06.15-.11.3-.21.47-.3.17-.09.37-.17.63-.25.18-.29.42-.5.71-.63.29-.12.55-.3.77-.52.66-.33 1.28-.68 1.86-1.04.58-.37 1.16-.73 1.73-1.1.57-.36 1.13-.71 1.7-1.04s1.16-.62 1.78-.88c.11-.25.26-.43.46-.52.2-.09.45-.21.74-.36.11-.62.23-1.23.36-1.81s.23-1.15.3-1.7c-.22.08-.42.17-.6.28-.18.11-.37.24-.55.38-.04 0-.05.03-.03.08.02.05 0 .1-.03.14-.44.11-.85.35-1.23.71s-.78.6-1.18.71c-.22.18-.43.37-.63.55s-.45.33-.74.44c-.19.25-.37.47-.55.66s-.42.31-.71.38c-.95.77-1.85 1.63-2.69 2.58-.84.95-1.7 1.82-2.58 2.63-.07.22-.19.38-.36.5-.16.11-.3.25-.41.44.15-.07.25-.12.33-.13.07-.02.15-.1.22-.25ZM190.13 99.24c.08.07.12.07.14 0 .02-.08.06-.08.14 0 .07.22.11.37.11.44.11.18.21.38.3.6.09.22.14.46.14.71 0 .15-.04.29-.11.44s-.09.28-.05.38c0 .08.03.14.08.19.06.05.06.1.03.14 0 .15-.03.34-.08.58s-.1.45-.14.63c-.07.18-.16.41-.25.69-.09.27-.17.56-.25.85 0 .4-.09.81-.28 1.21l-.55 1.2c-.07.15-.12.3-.13.46-.02.17-.05.32-.08.47-.07.15-.15.26-.22.36-.08.09-.13.19-.17.3-.04.15-.06.3-.08.47-.02.17-.1.28-.25.36 0 .33-.08.58-.25.77s-.3.42-.41.71c-.04.04-.04.08 0 .14s.04.1 0 .14c-.04.07-.06.12-.08.13-.02.02-.05.07-.08.14-.07.11-.11.22-.11.33s-.02.2-.06.27c-.07.15-.17.28-.27.38s-.18.26-.22.44c-.08.37-.17.66-.28.87-.11.22-.2.51-.27.88-.08.04-.11.1-.11.19s-.04.14-.11.14c.04.22.02.37-.06.46-.07.09-.12.21-.17.36.08.22.08.38 0 .5-.07.11-.14.25-.22.44-.07.18-.1.4-.08.66.02.26 0 .51-.08.77-.04.18-.09.37-.16.55-.08.18-.06.35.05.5-.04.07-.05.14-.05.19s-.02.12-.06.19c-.04.18-.07.41-.11.68-.04.28-.13.47-.28.58.04-.18.06-.32.06-.41v-.41c-.11.29-.21.57-.3.82-.09.26-.12.55-.08.88-.04.08-.06.14-.06.19s-.04.1-.11.14c.11.4.05.89-.17 1.45-.22.57-.29 1.05-.22 1.45.04.18.11.35.22.5.11.14.12.34.05.6-.15.11-.23.24-.25.38-.02.14-.05.33-.08.55-.11-.04-.2-.02-.27.05-.08.07-.18.11-.33.11-.25-.19-.45-.42-.58-.71a1.39 1.39 0 0 0-.58-.66c-.04-.25-.13-.43-.27-.52-.15-.09-.26-.25-.33-.47-.04-.07-.04-.14-.03-.19s0-.12-.03-.19c-.08-.11-.15-.2-.22-.27l-.22-.22c-.14-.29-.25-.61-.3-.93-.05-.33-.14-.7-.25-1.1 0-.07-.01-.11-.03-.11s-.04-.04-.08-.11c-.08-.4-.17-.91-.3-1.51-.12-.6-.16-1.12-.08-1.56a.728.728 0 0 0-.17-.28c.18-.8.25-1.67.22-2.6-.04-.93.05-1.82.28-2.66.07-.18.13-.33.19-.44.05-.11.12-.25.19-.44 0-.07 0-.17-.03-.3a.68.68 0 0 1 .03-.35c.04-.29.08-.53.13-.71.06-.18.1-.37.14-.55-.37.25-.72.56-1.07.91-.34.35-.72.68-1.12 1.01-.19.18-.33.35-.44.5-.11.14-.25.27-.44.38-.15.14-.29.25-.41.33-.13.08-.27.18-.41.33-.51.51-1.05 1-1.62 1.48-.57.47-1.11.97-1.61 1.48-.18.11-.35.25-.5.41s-.33.26-.55.3c-.18.11-.37.22-.58.33s-.39.24-.58.38c-.07-.15-.2-.21-.38-.19s-.31-.03-.38-.14c-.18.04-.41.1-.68.19-.28.09-.41.03-.41-.19-.37.15-.66.11-.87-.11s-.46-.4-.71-.55c-.08-.22-.13-.42-.17-.6s-.05-.37-.05-.55c0-.07 0-.1.03-.08.02.02.04 0 .08-.08a.675.675 0 0 1-.13-.52c.02-.2.04-.42.08-.66s.06-.47.08-.69a.958.958 0 0 0-.14-.6c-.4.48-.82.91-1.26 1.32-.44.4-.86.84-1.26 1.32-.08.07-.14.17-.19.27a.83.83 0 0 1-.25.28c-.07.07-.15.13-.22.19-.07.05-.15.12-.22.19-.4.37-.81.77-1.23 1.2-.42.44-.89.8-1.4 1.1-.07 0-.11 0-.11-.03s-.04-.03-.11-.03c-.11.18-.29.34-.55.49 0 .08-.02.12-.05.14s-.04.08 0 .19c-.29.29-.58.63-.88 1.01-.29.38-.58.78-.87 1.18-.08.08-.14.13-.19.17-.06.04-.12.09-.19.17-.15.26-.3.54-.47.85-.17.31-.43.33-.79.08-.07-.04-.15-.02-.22.05-.07.08-.15.08-.22 0 .18-.11.36-.2.52-.27.17-.07.34-.17.52-.28-.11-.18-.29-.25-.55-.19-.25.06-.44.1-.55.14 0-.07.01-.1.03-.08s.06 0 .13-.03c0-.08-.03-.15-.08-.22a.219.219 0 0 1-.03-.22c-.26-.07-.51-.21-.77-.41-.26-.2-.48-.39-.66-.58-.07 0-.09.03-.05.08.04.06 0 .08-.11.08s-.13-.05-.08-.17.06-.22.03-.33c-.18-.07-.3-.25-.36-.52-.05-.28-.12-.52-.19-.74-.04-.08-.07-.15-.11-.22-.04-.08-.09-.09-.17-.06-.08.22-.08.42-.03.6.05.19.06.37.03.55a.34.34 0 0 1-.17-.3v-.41c.04-.08.02-.09-.05-.06-.08.04-.11 0-.11-.11-.15-.4-.17-.86-.08-1.37.09-.51.16-.95.19-1.32 0-.04.07-.06.22-.06.29-.66.66-1.2 1.09-1.64s.88-.91 1.32-1.43c-.04-.14-.03-.23.03-.25.05-.02.06-.1.03-.25.18-.08.32-.17.41-.28.09-.11.23-.2.41-.27h.11c.14-.15.26-.35.35-.6.09-.26.17-.53.25-.83.07-.29.14-.58.22-.87.07-.29.2-.53.38-.71.11 0 .19-.07.25-.22s.14-.18.25-.11c.22-.22.42-.45.6-.71.18-.25.38-.51.6-.77.04-.07.08-.11.14-.11.05 0 .1-.02.13-.06.08-.07.12-.14.14-.22.02-.07.04-.14.08-.22.15-.07.24-.14.28-.22.07-.11.14-.19.19-.25.05-.06.14-.12.25-.19.18-.15.32-.29.41-.44.09-.14.21-.29.36-.44.08-.11.16-.19.25-.25.09-.05.17-.12.25-.19.37-.4.76-.79 1.18-1.18s.83-.74 1.23-1.07c.29-.18.55-.38.77-.6.22-.22.47-.42.77-.6.07-.04.13-.09.19-.17a.51.51 0 0 1 .19-.17c.14-.11.33-.18.54-.22.22-.04.42-.09.61-.17.22-.07.42-.17.6-.28.18-.11.37-.16.55-.16.07-.04.13-.08.19-.14.05-.05.12-.1.19-.14.14 0 .32 0 .52.03.2.02.34.1.41.25.73.11 1.27.38 1.61.82s.76.82 1.24 1.15c.07.37.14.72.22 1.07.07.35.05.66-.06.96.08.07.11.12.11.17-.08.29-.12.58-.14.87-.02.29 0 .6.08.93.77-.62 1.42-1.28 1.97-1.97.55-.7 1.24-1.3 2.08-1.81 0-.07.02-.12.05-.17.04-.04.06-.11.06-.22.18-.15.39-.29.63-.44s.45-.33.63-.55c.25-.07.49-.2.69-.38s.41-.33.63-.44c.22-.18.43-.37.63-.58s.39-.41.58-.63c.73-.51 1.41-1.02 2.03-1.53.62-.51 1.39-.84 2.3-.99.08.04.13.08.17.14.04.05.07.1.11.13.25 0 .45-.02.6-.05.07.08.09.11.05.11s-.05.04-.05.11c.22.11.44.23.66.36.22.13.48.16.77.08.08.07.15.17.22.27.08.11.15.17.22.17-.04.11 0 .2.11.27.11.08.18.15.22.22ZM184.98 134.87c.08-.15.11-.26.11-.33 0-.22 0-.37.03-.44.02-.08.04-.13.08-.17s.08-.08.11-.14.09-.19.17-.41c0-.08-.03-.11-.08-.11s-.08-.02-.08-.05c.15-.62.26-1.08.36-1.37.09-.29.19-.55.3-.77.11-.22.24-.46.38-.71.15-.25.33-.66.55-1.2.04-.08.03-.11-.03-.11s-.08-.04-.08-.11c.33-.81.65-1.58.96-2.33.31-.75.58-1.58.79-2.49.07-.07.12-.15.14-.22.02-.07.06-.15.13-.22 0-.44.1-.82.3-1.15s.34-.68.41-1.04c.25-.33.45-.73.58-1.2.13-.47.34-.87.63-1.2-.04-.08-.04-.14 0-.19s.06-.14.06-.25c.11-.11.22-.24.33-.39.11-.14.17-.34.17-.6.29-.29.5-.64.6-1.04.11-.4.31-.75.61-1.04 0-.07.02-.12.05-.13s.04-.07 0-.14c.62-.77 1.13-1.62 1.53-2.58.4-.95.86-1.88 1.37-2.79-.18-.08-.34-.08-.46 0-.13.07-.25.05-.36-.06-.51.19-.94.22-1.29.11s-.7-.2-1.07-.27c0-.18-.09-.31-.27-.38-.18-.08-.29-.2-.33-.38-.11-.04-.18-.03-.22.03-.04.05-.09.06-.17.03-.04-.08-.04-.14-.03-.19s.03-.12.03-.19a1.93 1.93 0 0 1-.44-.88c-.08-.33-.11-.69-.11-1.1.15-.07.22-.14.22-.22-.07-.04-.17 0-.3.08-.13.09-.23.21-.3.36-.07-.18-.02-.31.17-.38.18-.08.25-.2.22-.38.26-.08.45-.19.58-.36.13-.17.32-.27.58-.3.08-.07.14-.13.19-.17.06-.04.12-.09.19-.17.77-.25 1.53-.55 2.27-.9s1.51-.69 2.27-1.02c.37-.04.68-.12.93-.25s.53-.23.83-.3c-.04-.18.03-.3.19-.35.16-.06.21-.17.13-.36.25-.04.38-.2.38-.5.29-.15.51-.24.66-.27v-.38c.11-.08.18-.07.22.03.04.09.09.17.17.25.29-.07.61-.05.96.05.35.11.66.13.96.06.07.04.12.04.14 0 .02-.04.06-.08.13-.11.04 0 .08 0 .11.03s.07.03.11.03c.11 0 .47-.05 1.07-.17.6-.11 1.27-.21 2-.3s1.44-.17 2.14-.25c.69-.08 1.19-.09 1.48-.06.36.15.69.18.99.11.29-.07.62-.07.99 0 .51.07.94.17 1.29.3.34.13.78.23 1.28.3.44.04.79.17 1.04.38.25.22.6.35 1.04.38.22.18.46.36.71.52s.5.3.71.41c.11.15.21.27.3.36.09.09.23.17.41.25.29.4.55.77.79 1.1.24.33.46.7.68 1.1.15.62.17 1.2.08 1.73-.09.53-.21 1.01-.36 1.45-.11.11-.17.18-.17.22-.04.07-.04.12-.03.16.02.04.03.09.03.17-.44.4-.83.84-1.18 1.32-.35.48-.76.9-1.24 1.26 0 .07-.02.12-.05.14-.04.02-.04.08 0 .19-.15 0-.22.04-.22.11 0 .08-.04.11-.11.11-.04.04-.05.07-.05.11 0 .04-.02.08-.05.11-.4.33-.89.8-1.45 1.42-.57.62-1.03 1.1-1.4 1.43-.22.18-.38.32-.5.41-.11.09-.2.18-.27.27-.08.09-.16.19-.25.3-.09.11-.25.24-.47.38-1.17.62-2.25 1.3-3.23 2.03s-2.07 1.39-3.23 1.97c-.22.18-.28.32-.19.41.09.09.21.17.36.25.15.08.26.16.36.25s.03.23-.19.41c-.33.15-.64.3-.93.46-.29.17-.58.34-.88.52H204s-.05-.02-.05-.05c-.08.07-.16.13-.25.17-.09.04-.16.11-.19.22a.566.566 0 0 0-.6.14c-.18.16-.4.21-.66.13 0-.07.04-.12.14-.13.09-.02.15-.07.19-.14-.33-.04-.63-.03-.91.03-.28.05-.56.12-.85.19 0 .07-.03.17-.08.27-.05.11-.17.17-.36.17-.08-.04-.1-.09-.08-.17.02-.07-.03-.14-.14-.22-.11-.04-.25 0-.41.08-.17.09-.29.08-.36-.03-.08-.08-.1-.07-.08.03.02.09 0 .12-.03.08-.07 0-.15 0-.22-.03s-.13-.06-.17-.14c-.25.15-.53.15-.82 0-.29-.14-.58-.17-.88-.05.11-.18.13-.32.06-.41-.08-.09-.11-.21-.11-.36-.07-.04-.13-.04-.17-.03s-.09.03-.17.03c.11-.29.22-.56.33-.79s.25-.49.44-.74c.4-.91 1.03-1.67 1.86-2.27s1.63-1.2 2.36-1.78c.44-.37.87-.7 1.29-1.02.42-.31.81-.63 1.18-.96.18-.07.38-.17.61-.27.4-.4.82-.91 1.26-1.53.44-.62.88-1.26 1.32-1.92.44-.66.88-1.29 1.32-1.89s.86-1.07 1.26-1.4c.18-.36.4-.65.66-.85s.51-.45.77-.74c-.29-.18-.61-.25-.96-.19s-.72.06-1.12.03c-.29 0-.57-.04-.82-.11a.913.913 0 0 0-.71.05c-.07.04-.11.03-.11-.03s-.04-.06-.11-.03c-.51.18-1.14.28-1.89.3s-1.41.17-2 .47c-.95 1.68-1.8 3.37-2.55 5.07s-1.51 3.46-2.27 5.29c0 .08 0 .14-.03.19s0 .12.03.19c0-.04-.05-.04-.17 0-.07.08-.11.18-.11.33-.04.07 0 .09.08.05.09-.04.14-.02.14.05 0 .18-.06.31-.19.38a.44.44 0 0 1-.36.06c-.4.87-.79 1.74-1.18 2.57-.38.84-.78 1.68-1.18 2.52 0 .08.03.12.08.14s.1.06.14.14c-.08.07-.16.12-.25.17-.09.04-.17.09-.25.17a5.12 5.12 0 0 1-.77 2.08c-.4.62-.7 1.33-.87 2.14-.15.22-.27.45-.36.71-.09.25-.19.51-.3.77-.07.11-.16.22-.25.33-.09.11-.16.22-.19.33-.08.15-.09.24-.05.27.04.04.06.07.08.08s0 .04-.03.05-.13.08-.28.19c.04-.11.05-.14.03-.08-.02.05-.05.12-.08.22-.04.09-.06.16-.08.19-.02.04 0 0 .03-.11-.26.11-.35.26-.28.44.08.18-.04.34-.33.49.07.08.08.1.03.08-.05-.02-.1 0-.14.08-.15.44-.26.71-.36.82-.09.11-.17.18-.22.22-.05.04-.11.11-.17.22-.05.11-.12.4-.19.87-.07 0-.11 0-.11-.03s-.02-.03-.06-.03c-.15.29-.23.45-.25.46-.02.02-.02 0 0-.03s.02-.04 0-.03-.1.16-.25.41c.04.11 0 .31-.08.61-.09.29-.21.4-.36.33-.04-.04-.07 0-.11.14s-.08.26-.14.41-.1.28-.14.41c-.04.13-.07.17-.11.14-.18.04-.28.17-.28.41s-.09.39-.27.47c-.04.18-.05.33-.05.46v.47c-.15 0-.21.15-.19.46.02.31.03.48.03.52-.33.04-.48.11-.44.22.04.11.06.25.06.44-.11-.04-.17-.11-.17-.22s-.07-.2-.22-.27c-.08.07-.12.17-.14.3s-.06.19-.14.19c-.14 0-.22-.04-.22-.14s-.04-.17-.11-.25c-.08 0-.17-.03-.28-.08-.11-.06-.18-.07-.22-.03-.07-.08-.11-.15-.11-.22s-.04-.16-.11-.27c-.15-.04-.29-.06-.44-.08-.15-.02-.28-.12-.38-.3-.18-.25-.27-.62-.25-1.1.02-.47-.03-.93-.13-1.37 0-.11-.04-.22-.11-.33a.618.618 0 0 1-.11-.33c-.04-.37-.04-.7 0-1.02.04-.31.02-.59-.05-.85Zm22.69-15.68s-.04.07-.13.08c-.09.02-.1.06-.03.14.04-.08.09-.11.17-.11.08 0 .08-.04 0-.11ZM220.55 109.85c.22-.2.37-.5.44-.9h.17c.04-.11 0-.15-.11-.11-.11.04-.15 0-.11-.11.4-.47.86-.91 1.37-1.32.51-.4.95-.89 1.32-1.48.08-.04.11-.03.11.03s.02.04.05-.03c.22-.26.47-.47.74-.63.27-.16.5-.45.69-.85h.33c.26-.29.53-.51.83-.66.29-.14.55-.33.77-.54.4-.04.74-.2 1.01-.5.27-.29.65-.44 1.12-.44.07.04.11.03.11-.03s.02-.1.05-.14c.4-.08.87-.14 1.42-.19s1.12-.16 1.7-.3h.19s.08.02.19.06h.93c.29 0 .59.07.91.22.31.14.59.22.85.22.08 0 .12-.03.14-.08.02-.05.04-.08.08-.08.33.07.62.25.88.55.25.29.55.42.88.38.29-.73.58-1.45.85-2.17.28-.71.61-1.34 1.02-1.89h.22c.07-.11.13-.2.19-.28.05-.07.1-.17.13-.27.29-.08.58-.28.85-.61.27-.33.59-.45.96-.38 0 .08-.03.11-.08.11s-.1.04-.13.11c.14.14.31.16.49.05.15.07.32.17.52.3.2.13.41.12.63-.03 0 .11.02.19.06.25.04.05.09.12.17.19.18-.11.34-.08.49.11s.33.17.55-.05c.15.15.28.29.41.44.13.15.29.24.47.28.22.55.47 1.07.77 1.56.29.49.49 1.09.6 1.78.04.26.03.49-.03.69-.06.2-.07.43-.03.68 0 .11-.02.19-.06.22l-.11.11c.07.22.05.45-.06.69-.11.24-.16.5-.16.79-.19.4-.35.85-.5 1.34s-.28 1.01-.38 1.56c0 .08-.05.11-.17.11-.22 1.06-.49 2.11-.79 3.15-.31 1.04-.65 2.06-1.01 3.04-.04.08-.08.18-.14.33s-.08.25-.08.33c-.04.11-.04.22-.03.33.02.11 0 .18-.03.22-.07.22-.17.43-.3.63-.13.2-.17.46-.14.79-.37 1.03-.66 2.08-.88 3.18s-.47 2.21-.77 3.34c-.15.37-.31.72-.49 1.07-.19.35-.35.69-.5 1.01-.29.11-.5.29-.6.52-.11.24-.31.41-.6.52.07-.18.03-.28-.14-.28s-.32-.02-.47-.05c.26 0 .35-.17.28-.49-.15-.15-.25-.34-.3-.58-.05-.24-.17-.27-.36-.08-.07.04-.12.03-.13-.03a.638.638 0 0 0-.08-.14c-.07.04-.08.08-.03.14s.04.12-.03.19c-.25-.11-.5-.35-.71-.71s-.49-.53-.82-.49c-.04 0-.04-.04-.03-.11s0-.11-.03-.11c-.08.08-.08.11-.03.11s.04.04-.03.11c-.11.07-.17.03-.19-.14s-.04-.32-.08-.47c-.08-.07-.11-.07-.11 0 0 .08-.02.08-.05 0-.18-1.06-.36-2.11-.52-3.15-.17-1.04-.21-2.16-.13-3.37-.08-.11-.13-.12-.17-.05-.04.07-.09.17-.17.27-.26.26-.6.51-1.04.77-.44.26-.79.53-1.04.83-.08.11-.17.24-.3.38-.12.15-.28.25-.46.33-.04.08-.05.14-.05.19 0 .06-.02.1-.06.14-1.06.55-2.05 1.2-2.96 1.98-.91.77-1.96 1.35-3.13 1.75-.04.07-.06.14-.08.22-.02.07-.04.17-.08.27-.29-.04-.63 0-1.01.08-.38.09-.72.17-1.01.25.07.07.2.11.38.11.04.29-.04.44-.22.44s-.31.09-.38.27c-.26-.11-.48-.18-.66-.22-.22-.33-.45-.59-.71-.79-.25-.2-.51-.38-.77-.55-.25-.17-.52-.33-.79-.49a4.12 4.12 0 0 1-.79-.63v-.27c-.04-.08-.11-.08-.22 0-.48-.77-.91-1.66-1.29-2.69s-.63-2.12-.74-3.29c-.04-.14-.04-.23 0-.25s.08-.04.11-.08c-.08-.55-.08-1.02-.03-1.4.05-.38.15-.79.3-1.23.04-.11.1-.22.19-.33.09-.11.17-.22.25-.33.04-.18.11-.34.22-.49.07-.18.13-.29.19-.33.05-.04.12-.07.19-.11.22-.29.42-.6.6-.91.18-.31.38-.56.6-.74h.22c.15-.25.33-.49.55-.69Zm2.9 8.02c-.07.04-.13.09-.19.17-.05.08-.04.11.03.11 0-.07.04-.1.11-.08.07.02.09-.04.05-.19Zm.72-.6c.11.08.18.09.22.06.15-.11.3-.21.47-.3.17-.09.37-.17.63-.25.18-.29.42-.5.71-.63.29-.12.55-.3.77-.52.66-.33 1.28-.68 1.86-1.04.58-.37 1.16-.73 1.73-1.1.57-.36 1.13-.71 1.7-1.04s1.16-.62 1.78-.88c.11-.25.26-.43.46-.52.2-.09.45-.21.74-.36.11-.62.23-1.23.36-1.81s.23-1.15.3-1.7c-.22.08-.42.17-.6.28-.18.11-.37.24-.55.38-.04 0-.05.03-.03.08.02.05 0 .1-.03.14-.44.11-.85.35-1.23.71s-.78.6-1.18.71c-.22.18-.43.37-.63.55s-.45.33-.74.44c-.19.25-.37.47-.55.66s-.42.31-.71.38c-.95.77-1.85 1.63-2.69 2.58-.84.95-1.7 1.82-2.58 2.63-.07.22-.19.38-.36.5-.16.11-.3.25-.41.44.15-.07.25-.12.33-.13.07-.02.15-.1.22-.25ZM246.42 123.47c-.04.07-.02.18.05.33-.22 0-.35.05-.38.16-.04.11-.07.18-.11.22-.04.22-.11.44-.22.66-.11.22-.21.37-.3.44-.09.08-.16.04-.19-.11-.04-.15 0-.44.11-.88-.07-.07-.12-.08-.16-.03-.04.05-.06.06-.06.03.11.15.06.25-.17.33.04.51 0 .84-.08.99-.09.15-.18.17-.27.08-.09-.09-.16-.27-.19-.52-.04-.26.02-.53.16-.83-.07 0-.1 0-.08.03.02.02 0 .04-.03.08a.16.16 0 0 1-.11-.05c-.04-.04-.02-.09.06-.17-.11.18-.31.4-.61.66-.29.26-.4.42-.33.5 0 .07-.04.1-.14.08-.09-.02-.16-.04-.19-.08 0 .44-.02.66-.05.69-.04.02-.08-.03-.14-.14-.05-.11-.12-.2-.19-.28-.07-.07-.13 0-.17.22a.572.572 0 0 1-.14-.25c-.02-.09-.1-.13-.25-.13.18.07.17.22-.05.44.07-.4.06-.68-.03-.83-.09-.14.03-.33.35-.54a.316.316 0 0 1-.08-.28c.02-.11.04-.2.08-.27 0-.22.04-.42.11-.6.08-.18.13-.38.17-.61 0-.36.11-.77.33-1.2.04-.37.1-.72.19-1.07.09-.34.21-.66.36-.96-.18-.11-.13-.2.16-.27-.11-.07-.13-.14-.08-.19s.03-.08-.08-.08c.22-.15.31-.31.27-.5.07 0 .11-.04.11-.11s-.04-.14-.11-.22c.33-.11.37-.29.11-.55.22-.07.32-.18.3-.33-.02-.15 0-.26.08-.33.07-.22.17-.5.3-.82.13-.33.19-.64.19-.93.07-.08.1-.14.08-.19-.02-.06 0-.14.08-.25-.07-.25 0-.52.22-.79s.25-.5.11-.68c.11-.11.22-.18.33-.22-.22-.07-.26-.14-.13-.22.12-.07.19-.17.19-.27 0-.07 0-.15-.03-.22-.02-.08 0-.15.03-.22l.22-.25c.07-.09.09-.17.05-.25.08-.04.12-.07.14-.11.02-.04.04-.05.08-.05a.48.48 0 0 1 .08-.5c.12-.14.16-.27.08-.38.04-.11.09-.2.17-.27.07-.07.09-.15.05-.22l-.16-.11s.04-.06.11-.08.15-.04.22-.08c.04-.07.04-.15 0-.25-.04-.09-.04-.21 0-.36.08-.25.17-.42.28-.49 0-.08-.04-.11-.11-.11.18-.22.3-.5.36-.85s.17-.67.36-.96c-.15-.15-.14-.29.03-.44.17-.14.25-.31.25-.49.08-.08.12-.14.14-.19.02-.06.04-.1.08-.14.11-.22.21-.43.3-.63s.17-.39.25-.58c.08-.08.08-.09 0-.06-.07.04-.11.02-.11-.05.29-.15.47-.3.55-.46.07-.17.18-.29.33-.36.22-.04.37-.1.47-.19.09-.09.21-.17.36-.25.4-.11.79-.17 1.18-.19.38-.02.7-.12.96-.3.8-.07 1.45-.15 1.94-.22.5-.08 1.12-.11 1.89-.11.11 0 .18.04.22.11.15-.04.29-.06.44-.06.14.04.26.1.35.19.09.09.19.12.3.08.22.25.31.5.27.74s-.11.48-.22.74c-.15.4-.3.81-.46 1.23s-.41.83-.74 1.24c-.08.22-.14.44-.19.66s-.23.44-.52.66c.08.04.1.06.08.06-.02 0 .03.04.13.11-.29.41-.51.85-.66 1.34-.15.5-.4.94-.77 1.34v.17c-.22.37-.42.82-.6 1.34-.18.53-.37 1.07-.58 1.62s-.41 1.08-.61 1.59-.43.95-.68 1.32c.04.08.03.13-.03.17-.06.04-.05.11.03.22-.51.8-1.01 1.59-1.51 2.36s-.81 1.57-.96 2.41c-.18.08-.3.17-.36.28-.05.11-.21.2-.46.27a.817.817 0 0 0-.17-.22c-.48.07-.71.25-.71.52s-.04.52-.11.74c-.11 0-.14.04-.11.11.04.08 0 .08-.11 0 .15.11.2.21.17.3-.04.09-.1.17-.19.22s-.17.1-.25.14c-.08.04-.08.09 0 .16-.11.08-.18.04-.22-.11-.04-.15-.11-.2-.22-.17.04-.04.04-.08.03-.14-.02-.05 0-.08.08-.08a.448.448 0 0 1-.25-.22c-.05-.11-.17-.17-.36-.17Zm-.88.38c-.07 0-.14.04-.22.11-.07.08-.02.11.17.11.04-.04.05-.11.05-.22Zm.94-.66c-.07 0-.09.02-.05.06s.04.07 0 .11c.18 0 .2-.05.05-.17Zm.33.11s-.02-.05-.05-.05l-.22.22.33-.11s-.05-.02-.05-.05Zm5.97-28.77c-.04-.08-.09-.11-.17-.11-.07 0-.07-.04 0-.11a.82.82 0 0 1 .39-.03c.14.02.25 0 .33-.08.18 0 .29-.04.33-.14.04-.09.09-.17.17-.25.14 0 .29-.04.44-.11.15-.14.37-.27.66-.38.29-.11.59-.13.9-.08.31.05.69.08 1.12.08.18.08.35.12.5.14.14.02.37.05.66.08.11.14.29.25.52.3s.43.17.58.36h.11l.11-.11c0 .11.02.21.05.28.33.15.58.37.74.69.17.31.39.54.69.68.04.33.08.7.14 1.1.05.4-.21.75-.79 1.04-.11.04-.19.11-.22.22-.51.04-.86.12-1.04.27-.91 0-1.28.22-1.1.66-.18.11-.32.24-.41.38-.09.15-.17.31-.25.5-.18.04-.35.1-.5.19-.15.09-.37.17-.66.25-.08 0-.1-.02-.08-.05s-.03-.07-.14-.11c-.91.19-1.8.26-2.65.22-.86-.04-1.57-.17-2.11-.38l-.16-.17c-.08-.08-.15-.09-.22-.06-.07.04-.14.02-.22-.05 0-.11-.04-.23-.13-.36-.09-.12-.12-.25-.08-.36 0-.11.02-.2.05-.27s.06-.17.06-.27c-.08-.18-.06-.45.05-.8.11-.34.24-.61.38-.79.04-.04.07-.11.11-.22.04-.11.09-.2.16-.27.22-.33.45-.64.69-.93.24-.29.49-.58.74-.88.04 0 .07 0 .11-.03.04-.02.09-.03.17-.03ZM261.28 110.1c.51-.11.94-.35 1.29-.71s.72-.68 1.12-.93c.15-.04.27-.06.38-.08.11-.02.17-.12.17-.3.77-.4 1.45-.79 2.06-1.18.6-.38 1.27-.78 2-1.18.11-.11.2-.22.28-.33.22.07.45 0 .71-.22.26-.22.48-.35.66-.38.4-.29.77-.55 1.1-.77.33-.22.67-.46 1.04-.71.25-.22.48-.44.69-.66.2-.22.43-.36.68-.44.11-.04.28-.05.5-.05.04-.08.09-.13.17-.17.07-.04.11-.11.11-.22.08-.04.16-.08.25-.11.09-.04.17-.09.25-.17.07.08.19.08.36 0 .17-.07.28-.2.36-.38.18-.07.35-.12.52-.17.17-.04.39-.04.69 0 .37.08.75.13 1.15.17.4.04.8.06 1.2.06.29.44.56.89.79 1.37.24.47.52.9.85 1.26-.08 0-.1.03-.08.08.02.05-.01.08-.08.08.07.18.13.37.17.58s.11.37.22.52c.47-.66.95-1.32 1.43-1.97.47-.66.86-1.46 1.15-2.41.11-.07.2-.2.27-.38s.15-.31.22-.38c.04-.07.04-.12 0-.14-.04-.02-.02-.08.06-.19.14.15.26.17.35.06.09-.11.17-.15.25-.11.07.18.04.29-.11.33s-.22.15-.22.33c.18-.11.45-.17.82-.19.37-.02.64-.12.83-.3.11 0 .12.11.05.33.07.18.17.31.27.38.11.07.22.2.33.38.07 0 .1-.04.08-.11-.02-.07 0-.11.08-.11.07.04.13.15.17.33.18 0 .33.05.46.17s.25.24.36.38c.11.15.21.29.3.44.09.15.23.24.41.28-.08.37-.09.71-.05 1.04.04.33.07.66.11.99.07.04.13.01.17-.08.04-.09.11-.12.22-.08.04.18.02.37-.05.54-.08.19-.08.35 0 .5-.18.29-.31.58-.38.85-.08.27-.15.54-.22.79-.08.44-.21.84-.41 1.2-.21.37-.4.71-.58 1.04-.19.47-.33.96-.44 1.45-.11.5-.31.89-.6 1.18 0 .22-.02.38-.05.5-.22.25-.39.61-.52 1.07-.13.45-.29.83-.46 1.12-.08.41-.21.74-.41 1.02-.2.27-.39.56-.58.85-.04.04-.03.07.03.08.05.02.06.08.03.19-.11.07-.2.19-.28.36-.07.16-.17.3-.27.41-.04.07-.04.11 0 .11s.04.04 0 .11c-.15.18-.24.29-.28.33-.18.8-.45 1.53-.82 2.16s-.64 1.34-.82 2.11l-.11.11-.11.11c0 .29-.08.44-.22.44-.29.87-.59 1.73-.9 2.55-.31.82-.63 1.63-.96 2.44-.08.22-.12.34-.14.38-.02.04-.04.05-.08.05s-.06.03-.08.08c-.02.06-.06.19-.14.41-.11.29-.24.55-.38.79-.15.24-.25.52-.33.85-.04.15-.1.29-.19.44-.09.14-.16.31-.19.49-.11.18-.17.32-.19.41-.02.09-.03.17-.03.22v.19c0 .08-.04.18-.11.33-.08.33-.14.51-.19.55s-.11.04-.17 0-.1-.05-.14-.05-.09.14-.17.44c0 .4-.03.63-.08.69-.05.05-.17.25-.36.58.04.22-.04.41-.25.58s-.32.39-.36.68c0 .33-.02.57-.05.71-.04.15-.09.32-.17.52-.08.2-.15.39-.22.58-.11.4-.21.82-.3 1.26-.09.44-.27.81-.52 1.1-.4.11-.73.3-.99.58-.25.28-.53.47-.82.58h-.17c-.11 0-.14.04-.08.14.06.09.03.14-.08.14-.84.18-1.64.41-2.38.68-.75.28-1.57.41-2.44.41-.04.04-.06.04-.06 0v-.22c-.69.15-1.38.19-2.05.14-.68-.05-1.31-.08-1.89-.08 0-.11-.02-.17-.06-.17.18-.04.36-.05.52-.03.17.02.34 0 .52-.03-.29-.04-.59-.09-.91-.16-.31-.08-.65-.08-1.01 0 0-.22-.04-.33-.11-.33l-.25.25c-.09.09-.21.12-.36.08-.07-.08-.08-.15-.03-.22s.04-.12-.03-.16c-.15 0-.35.05-.6.16-.26.11-.48.08-.66-.11 0-.08.03-.14.08-.19.05-.05.08-.14.08-.25-.18 0-.35.04-.5.11-.14.07-.25.13-.33.17-.04-.11-.08-.21-.14-.3-.05-.09-.03-.23.08-.41-.11-.25-.1-.34.03-.25.12.09.08.14-.14.14-.08 0-.14-.04-.19-.11-.06-.07-.1-.11-.14-.11-.18-.08-.31-.02-.38.16s-.24.24-.5.17c0-.04-.02-.07-.05-.11-.04-.04-.02-.06.05-.06-.14 0-.32-.02-.52-.05s-.37-.04-.52 0c.11-.15.25-.2.44-.17s.33.04.44 0v-.11l.11-.11a.89.89 0 0 0-.38.11c-.15.07-.27.07-.38 0l.11-.11c.07-.07.09-.14.05-.19s-.04-.12 0-.19c.25-.18.36-.36.3-.52-.06-.17.06-.28.35-.36.18-.04.26-.15.22-.35-.04-.21.07-.23.33-.08.08-.07.12-.06.14.03.02.09.04.1.08.03.11-.04.16-.06.14-.08s-.05-.04-.11-.08-.09-.08-.11-.14.03-.14.14-.25c-.11-.15-.13-.21-.06-.19.08.02.16.04.25.08s.17.07.22.11c.05.04.03.02-.08-.06a.43.43 0 0 0-.03-.17c-.02-.04 0-.09.03-.16.04-.08.06-.11.08-.11s.04-.05.08-.17c.58-.15 1.18-.4 1.78-.77s1.16-.64 1.67-.82c.22-.11.45-.23.71-.36s.48-.21.66-.25c.51-.26.99-.5 1.45-.74.46-.24.96-.36 1.51-.36 0-.08 0-.15-.03-.22a.892.892 0 0 1-.03-.22c.33-.08.59-.16.79-.25.2-.09.45-.17.74-.25.15-.4.26-.58.36-.55.09.04.17.1.25.19.08.09.14.12.19.08.06-.04.12-.31.19-.83.08-.07.12-.14.14-.19s.06-.12.14-.19c0-.07.02-.15.05-.22s.02-.11-.05-.11c.33-.91.61-1.7.85-2.36.24-.66.47-1.28.71-1.86.24-.58.48-1.2.74-1.86.25-.66.53-1.46.82-2.41.04-.51.14-.94.3-1.29s.28-.7.36-1.07c-.62.08-1.23.25-1.81.52-.58.28-1.13.56-1.65.85-.07.07-.08.12-.03.13.06.02.06.07.03.14-.84.44-1.7.87-2.57 1.29-.88.42-1.74.88-2.58 1.4-.07-.11-.13-.13-.19-.05-.05.07-.12.09-.19.05-.15.15-.29.23-.44.25-.15.02-.31.07-.5.14-.29.15-.63.33-1.01.55s-.78.37-1.18.44c-.26.08-.51.16-.77.25s-.55.12-.88.08c-.22-.11-.4-.23-.55-.36-.14-.13-.33-.28-.55-.46-.07.07-.14.14-.22.19-.07.05-.12.04-.17-.03 0-.15-.09-.31-.27-.5-.29.11-.54.02-.74-.27-.2-.29-.41-.48-.63-.55-.33-.37-.57-.8-.71-1.32s-.29-1.08-.44-1.7c-.08-.22-.15-.35-.22-.38.07-.51.05-.93-.06-1.26-.11-.33-.09-.66.06-.99-.04-.37 0-.64.11-.82-.11-.33-.09-.59.05-.79.15-.2.26-.43.33-.69.04-.18.05-.32.03-.41-.02-.09-.03-.21-.03-.36.58-1.32 1.28-2.35 2.08-3.1s1.7-1.49 2.69-2.22v-.27Zm-4.11 13.32c0-.11-.04-.22-.11-.33-.07-.11-.13-.24-.17-.38-.07.4.02.64.28.71Zm3.17 2.46c-.07 0-.13-.06-.19-.17-.05-.11-.12-.09-.19.05.08 0 .14.04.19.11.06.07.12.07.19 0Zm4.77-8.55c.51.14.91.09 1.21-.17.29-.25.64-.44 1.04-.55.48-.18.98-.33 1.51-.44.53-.11.99-.37 1.4-.77.4-.11.75-.2 1.07-.28.31-.07.63-.2.96-.38.11-.04.16-.04.14 0s0 .08.08.11c.26-.29.54-.51.85-.66.31-.14.62-.27.93-.38.31-.11.62-.23.93-.36.31-.12.59-.33.85-.63.29 0 .58-.11.85-.33.27-.22.55-.37.85-.44.37-.84.72-1.65 1.07-2.44.34-.79.68-1.54 1.01-2.27a8 8 0 0 0-.82.47c-.26.16-.51.32-.77.46-.33.08-.71.23-1.15.47-.44.24-.81.56-1.1.96-1.5.62-2.88 1.44-4.14 2.47a44.995 44.995 0 0 1-4.03 2.9c-.08.07-.09.12-.05.14.04.02.02.06-.06.13-.33.22-.65.4-.96.55-.31.15-.58.38-.79.71-.22-.04-.45.04-.71.22-.25.18-.45.37-.6.55.07.15.15.18.22.11.08-.07.15-.12.22-.16Zm2.31 24.78c0-.08-.06-.1-.17-.08-.11.02-.17.05-.17.08h.33Zm13.26-36.51s-.05 0-.05-.03-.04 0-.11.03c0 .15 0 .25-.03.33-.02.07-.03.18-.03.33.04-.14.07-.25.11-.33.04-.08.07-.18.11-.33Zm.99-1.37c-.04.07-.09.16-.16.25-.08.09-.08.17 0 .25 0-.11.04-.19.11-.25s.09-.14.05-.25Zm6.63 1.48c-.07 0-.11.09-.11.27.04 0 .05-.04.05-.11s.02-.12.05-.16ZM286.38 118.48c.29-.99.59-1.96.88-2.91s.57-1.95.82-3.01c.11-.22.19-.49.25-.8.05-.31.17-.55.35-.74 0-.11 0-.21.03-.3.02-.09 0-.19-.03-.3.29-.29.5-.66.63-1.12.12-.45.25-.94.36-1.45.25-.33.45-.72.58-1.18.12-.46.26-.92.41-1.4.18-.29.31-.59.38-.91.07-.31.18-.63.33-.96.04-.07.06-.18.08-.33s.06-.26.14-.33c.18-.4.4-.78.66-1.12s.38-.78.38-1.29c.15-.04.24-.14.28-.33.04-.18.09-.31.17-.38-.04-.04-.06-.08-.06-.11s0-.07-.03-.11c-.02-.04 0-.09.03-.16.15.07.29.12.41.16.13.04.29-.02.47-.16.04.14.14.22.33.22.4-.08.82-.07 1.26.03.44.09.77.32.99.68.08 0 .11-.04.11-.11.07.04.1.09.08.17-.02.07 0 .13.03.17 0 .18.06.33.19.44.12.11.23.27.3.49.04.22.07.5.11.85.04.35.09.69.17 1.01 0 .08.04.15.11.22.04.15.04.33 0 .55s-.02.37.05.44c0 .29-.04.64-.11 1.04-.08.4-.04.68.11.82-.14.37-.26.69-.35.96-.09.28-.17.58-.25.91.29-.18.54-.45.74-.79s.45-.66.74-.96c.07-.07.19-.17.36-.3.17-.12.28-.28.36-.46.22-.22.42-.46.6-.74.18-.27.37-.5.55-.69.04-.07.08-.11.14-.11.05 0 .08-.02.08-.05.33-.33.61-.73.85-1.21.24-.47.56-.8.96-.99.04-.04.08-.07.11-.11.04-.04.04-.11 0-.22.25-.11.49-.27.69-.49s.4-.46.6-.71.4-.48.6-.69c.2-.2.45-.33.74-.41.22-.07.41-.11.58-.11s.37-.04.63-.11c.25.18.53.25.83.19.29-.05.53.07.71.36.08.08.12.06.14-.03.02-.09.06-.1.14-.03.22.11.42.25.6.44s.4.37.66.55c.11-.07.29-.07.55 0 .18.4.42.72.71.96s.5.61.6 1.12c.07.07.12.17.14.3.02.13.06.21.14.25.04.07.03.11-.03.11-.05 0-.08.04-.08.11.18.51.25.99.22 1.45-.04.46-.13.95-.27 1.45.07.08.12.13.17.17.04.04.05.11.05.22-.04.04-.13.05-.28.05-.07.73-.2 1.34-.38 1.84s-.31 1.09-.38 1.78c-.07.08-.12.21-.16.38-.04.19-.09.33-.17.44-.04.07-.04.11 0 .11s.05.06.05.17c-.15.18-.24.48-.27.88-.04.4-.13.75-.28 1.04-.11.77-.28 1.53-.52 2.27-.24.75-.45 1.51-.63 2.27v.66c0 .22-.04.44-.11.66-.04.18-.09.34-.16.47-.08.12-.13.28-.17.46-.08.18-.11.32-.11.41 0 .09-.02.17-.05.22-.04.06-.08.13-.14.22-.05.09-.14.23-.25.41.04.11.04.19.03.25s-.03.14-.03.25c-.11 0-.18-.07-.22-.22-.08.08-.09.2-.06.38s.06.31.06.38c-.11.18-.2.19-.28.03-.07-.17-.18-.19-.33-.08-.11.07-.19.21-.22.41s-.11.3-.22.3c0 .44-.08.79-.25 1.07-.17.28-.27.67-.3 1.18-.22.04-.52 0-.9-.13s-.69-.1-.91.08c-.29-.73-.54-1.36-.74-1.89s-.36-1.27-.46-2.22c-.04-.36-.03-.79.03-1.26.05-.48.12-.96.22-1.45.09-.49.17-.99.22-1.48.05-.49.08-.96.08-1.4-.11-.47-.16-1-.16-1.59s-.06-1.17-.17-1.75c-.11 0-.29 0-.52.03s-.37.06-.41.13c-.22.26-.43.49-.63.69s-.39.43-.58.69c-.07.14-.14.22-.22.22l-.33.33c-.11.11-.22.19-.33.22-.44.62-.85 1.18-1.24 1.67-.38.5-.83 1-1.34 1.51-.22.11-.42.29-.6.52s-.37.51-.55.82c-.18.31-.36.62-.52.91-.16.29-.35.51-.58.66-.14.11-.29.23-.44.35-.15.13-.25.3-.33.52-.07 0-.12.02-.13.05-.02.04-.07.02-.14-.05-.22.4-.61.8-1.18 1.21-.57.4-.98.8-1.24 1.2-.11 0-.2-.02-.27-.05-.08.04-.15.2-.22.49-.08.29-.15.48-.22.55-.19-.15-.3-.16-.36-.03s-.17.16-.36.08a.773.773 0 0 0-.6.03c-.18.09-.37.1-.55.03-.18.04-.3.12-.36.25s-.08.28-.08.46c-.18.04-.35.09-.52.17-.17.08-.29.24-.36.5-.26 0-.42-.2-.5-.6.15.22.22.2.22-.06 0-.07-.04-.14-.11-.22-.18.08-.25.25-.19.52s0 .46-.19.58c-.07-.15-.11-.37-.11-.66-.18.04-.38.16-.6.38-.22 0-.36-.07-.41-.19-.05-.13-.16-.19-.3-.19-.07-.15-.11-.34-.11-.58s0-.49.03-.77c.02-.27.03-.54.03-.82s-.02-.52-.05-.74c.11-.69.22-1.47.33-2.33.11-.86.25-1.6.44-2.22.04.04.07.06.11.06ZM329.41 94.47c.07.08.13.07.17-.03.04-.09.11-.12.22-.08 0 .04-.02.09-.05.17.07 0 .12-.02.17-.06.04-.04.09-.07.17-.11.07.07.07.13 0 .17-.08.04-.08.09 0 .17 0 .07-.05.11-.14.11-.09 0-.1.04-.03.11.07.04.14 0 .22-.11.07-.11.15-.14.22-.11 0 .14-.02.25-.05.33.22-.07.37-.2.44-.38s.2-.27.38-.27c.04.07.07.14.11.19.04.05.09.12.17.19.04-.04.1-.05.19-.05s.19-.02.3-.06c.15.08.25.06.3-.05.05-.11.13-.17.25-.17.07.04.05.15-.05.33.07.04.13.03.19-.03.05-.05.1-.12.13-.19.11.18.28.34.5.46.22.13.42.29.6.47.04 0 .04-.03.03-.08-.02-.05 0-.08.08-.08.07.29.14.45.22.49.11.41.24.73.38.99.15.25.22.54.22.87-.04.15-.06.29-.08.44-.02.14-.05.25-.08.33-.11.44-.2.84-.27 1.21-.08.37-.05.71.05 1.04.15.48.2.97.17 1.48-.08 0-.11 0-.11.03s-.02.03-.05.03c0 .48-.08.91-.25 1.32s-.34.8-.52 1.2c-.18.48-.32.94-.41 1.4-.09.45-.25.9-.47 1.34 0 .07 0 .11-.03.11s0 .04.03.11c-.11.07-.16.19-.16.36s-.06.28-.17.36c-.08 0-.15-.04-.22-.11-.29.08-.51.24-.66.5-.15.25-.37.42-.66.49.04-.11.03-.13-.03-.08s-.08.04-.08-.03c-.07-.04-.11-.03-.11.03s-.02.08-.05.08c-.15 0-.22-.07-.22-.22-.07.08-.11.08-.11.03s-.04-.04-.11.03c-.08.04-.1.02-.08-.05.02-.07 0-.13-.08-.17-.18.08-.34.04-.46-.11a.6.6 0 0 0-.47-.22c-.15-.18-.35-.29-.6-.33s-.46-.17-.6-.38a1.38 1.38 0 0 0-.25-.41c-.09-.09-.17-.19-.25-.3-.04-.29-.11-.47-.22-.55-.11-.07-.17-.22-.17-.44-.18-.11-.3-.23-.36-.36-.05-.13-.12-.28-.19-.46.08-.11.09-.26.06-.44-.04-.18-.09-.31-.17-.38.11-.22.14-.44.11-.66-.25.07-.5.16-.74.25s-.5.17-.79.25c-.55.41-1.1.77-1.64 1.1-.55.33-1.03.75-1.43 1.26-.04 0-.05 0-.05-.03s-.02-.03-.05-.03c-.37.41-.7.8-1.02 1.18-.31.38-.65.74-1.01 1.07.04.11.04.18 0 .22.62.48 1.55.77 2.8.88.07.04.15.04.25.03.09-.02.19-.03.3-.03.15.04.34.08.58.14.24.05.49.08.74.08.37.04.74.07 1.12.08s.76.06 1.12.13c.4.08.83.14 1.29.19.45.06.91.12 1.34.19.07 0 .13-.03.17-.08s.07-.08.11-.08c.08.04.15.08.22.11.07.04.14.05.22.05.18.08.38.09.6.06s.42-.09.6-.17c.62-.08 1.02.04 1.2.33.26-.04.51-.04.77 0s.51.08.77.11c.08.04.16.04.25 0s.17-.04.25 0c.11.04.2.1.28.19.07.09.18.16.33.19.04.04.08.04.11.03s.05 0 .05.03c.29.15.54.28.74.38.2.11.39.24.58.38.07.22.18.36.33.41.14.05.24.15.27.3 0 .04 0 .03.03-.03s.05-.04.08.03c-.15.33-.13.77.05 1.32.04.08.09.15.17.22v.22c0 .11.04.18.11.22-.04.29-.1.55-.19.77-.09.22-.17.45-.25.71-.11 0-.2.02-.27.06-.08.04-.18.05-.33.05-.25.33-.57.57-.93.71-.37.14-.7.37-.99.66-.44.15-.73.25-.88.33-.99.33-1.96.67-2.93 1.04s-1.99.68-3.04.93c-.08 0-.1.04-.08.11.02.07-.01.11-.08.11-.11 0-.17-.04-.17-.11-.55.29-1.09.49-1.61.6-.53.11-1.09.27-1.67.49-.04 0-.05.04-.05.11-1.24.33-2.45.75-3.62 1.26-.41.15-.76.29-1.07.44s-.67.22-1.07.22c0 .04 0 .07-.03.08s-.03.06-.03.13c-.18 0-.31-.02-.38-.05-.4.07-.78.16-1.12.25-.35.09-.66.19-.96.3-.11.04-.22.08-.33.14-.11.05-.22.12-.33.19-.29.07-.58.1-.85.08a.986.986 0 0 0-.74.25c-.4-.04-.8 0-1.2.08-.4.09-.86.12-1.37.08 0-.18.04-.3.11-.36.08-.05.11-.12.11-.19.07.08.17.1.27.08.11-.02.18-.07.22-.14.07-.07.09-.14.05-.19s-.05-.12-.05-.19c-.11 0-.24 0-.38.03-.15.02-.26.06-.33.14a.64.64 0 0 0-.22.19c-.08.09-.17.12-.28.08 0-.07.03-.16.08-.25s.12-.17.19-.25h-.06v-.11c-.07.04-.12.04-.16 0-.04-.04-.08-.02-.11.05-.07-.04-.09-.08-.05-.13.04-.06.04-.1 0-.14-.11.04-.15.08-.11.14.04.05.05.12.05.19-.18.07-.29.06-.33-.03-.04-.09-.09-.1-.17-.03-.08-.14-.04-.28.08-.41.13-.12.14-.26.03-.41-.07.04-.13.08-.19.11-.05.04-.12.04-.19 0-.04-.15-.03-.3.03-.47.06-.17.05-.32-.03-.46.08-.08.15-.16.22-.25.08-.09.15-.14.22-.14-.04-.25.03-.42.19-.5.17-.07.23-.2.19-.38.18-.07.32-.14.41-.19.09-.05.23-.06.41-.03.55-.29 1.06-.5 1.53-.6.47-.11.97-.29 1.48-.55-.04-.11-.08-.13-.11-.05-.04.07-.07.09-.11.05.58-.4 1.24-.73 1.97-.99s1.37-.58 1.92-.99c.07.04.12.04.14 0s.04-.02.08.05c.33-.18.69-.33 1.07-.44.38-.11.68-.31.91-.61.07 0 .15-.03.25-.08.09-.05.17-.08.25-.08.48-.33.99-.62 1.56-.88s1.11-.55 1.62-.88c-.08-.07-.15-.11-.22-.11-.04 0-.08 0-.11.03s-.07.03-.11.03c-.15-.07-.32-.1-.52-.08s-.39.03-.58.03c-.18-.04-.37-.08-.58-.14s-.39-.12-.58-.19c-.18-.07-.36-.1-.52-.08s-.34 0-.52-.08c-.18-.14-.4-.24-.66-.27-.26-.04-.48-.09-.66-.17-.25-.44-.59-.73-1.01-.88-.42-.14-.72-.44-.91-.87-.55-.18-.88-.5-1.01-.93-.13-.44-.32-.86-.58-1.26-.08 0-.09.05-.05.14.04.09.02.16-.06.19-.14-.29-.18-.68-.11-1.15.07-.48.12-.86.17-1.15.07-.18.11-.36.11-.52s.08-.32.22-.46c-.18-.18-.31-.29-.38-.33-.04-.18-.02-.31.06-.38.07-.07.18-.17.33-.28.18-.25.31-.58.38-.99.26-.18.46-.41.61-.68.14-.28.31-.52.49-.74 0 .04.02.05.05.05.37-.29.74-.6 1.12-.93s.76-.66 1.12-.99c.26-.07.5-.22.71-.44.4-.29.77-.61 1.1-.96s.69-.63 1.1-.85c.04-.07.1-.12.19-.14.09-.02.13-.1.13-.25.37-.07.7-.24 1.02-.49.31-.26.7-.44 1.18-.55.04 0 .11-.09.22-.28.51-.07 1.01-.25 1.51-.52.49-.27.99-.32 1.51-.13.04-.18.04-.32.03-.41-.02-.09-.03-.25-.03-.47.07-.07.14-.07.22 0 .15-.22.32-.41.52-.58s.36-.41.46-.74c.15 0 .24-.05.28-.17.04-.11.11-.2.22-.27l-.11.11Zm-19.18 28.34c.04-.11.02-.16-.05-.16s-.11.04-.11.11c.04.04.09.05.17.05Zm4.16-3.34c-.15 0-.22.07-.22.22.15 0 .22-.07.22-.22Z" style="fill:#fb0742"></path></svg>