<svg xmlns="http://www.w3.org/2000/svg" viewBox="131.93 100.2 177.5 35.28"><path d="M146.64 114.54c.23.06.48.06.75.02s.5-.05.74-.02c.09 0 .16-.06.2-.17s.08-.22.11-.31c.09 0 .16-.03.2-.09.04-.06.05-.1.02-.13.14-.17.29-.38.43-.63.15-.25.29-.44.44-.59.14-.06.3-.11.45-.15.16-.04.31-.09.46-.15.06 0 .09.02.09.07 0 .04.01.06.04.06.09-.23.21-.31.37-.22s.3.09.42 0c.09.15.22.22.41.24s.36.05.5.11c.09-.03.15-.07.19-.13.05-.06.16-.06.33 0l.15.15c.04.04.11.07.2.07.06.06.07.09.04.11s-.03.05 0 .11c.06.06.12.11.19.15.08.04.16.06.24.06.06.12.16.22.31.31s.29.18.44.26c.06.21.11.39.17.57s.11.38.13.61c.03.09.07.13.13.13-.06.06-.09.12-.09.17s-.04.12-.13.17c.03.15.01.33-.04.55-.06.22-.09.38-.09.5-.11.15-.2.31-.24.5-.04.19-.09.34-.15.46-.15.55-.33 1.09-.55 1.59s-.4 1.01-.55 1.51c-.11.15-.17.3-.17.46s-.09.31-.26.46c.03.03.02.07-.02.13-.05.06-.1.09-.16.09-.11.35-.28.66-.5.94-.21.28-.43.55-.63.81h-.04s-.01.04-.04.04c0 .09-.02.15-.06.2-.04.05-.08.1-.11.15a.581.581 0 0 0-.38-.04c-.1.03-.22.03-.37 0-.21.03-.38.02-.55-.02-.16-.04-.31-.1-.45-.15a.436.436 0 0 0-.31-.28.458.458 0 0 1-.31-.28c-.03 0-.08-.01-.13-.04s-.09-.03-.09 0c-.09-.2-.22-.39-.39-.55-.18-.16-.29-.36-.35-.59-.21-.06-.31-.2-.31-.43l.06-.18c.01-.03.02-.11.02-.26-.15.06-.27.12-.37.2a.68.68 0 0 1-.38.11c-.11.11-.28.2-.48.26a94.5 94.5 0 0 1-2.77 1.81c-.94.6-1.81 1.29-2.6 2.07-.03.03-.06.04-.09.04-.15.15-.31.3-.48.46-.17.16-.36.31-.57.46-.06.12-.12.24-.19.37-.08.13-.18.22-.33.28-.26.47-.56.89-.9 1.26-.33.38-.62.77-.85 1.18 0 .06.06.08.17.06.12-.01.19-.06.22-.15.15.06.31.08.48.07.17-.01.31-.05.39-.11.32-.03.65-.06 1-.11.36-.04.67-.11.97-.2.4 0 .8-.07 1.17-.2.38-.13.76-.24 1.14-.33.03 0 .05-.01.06-.04s.05-.03.11 0c.64-.15 1.28-.32 1.92-.52s1.25-.42 1.83-.66c.21.03.37.01.5-.06.13-.07.27-.1.41-.06.06-.06.1-.09.13-.09s.06-.03.09-.09c.14.03.28.02.39-.02.11-.04.22-.09.31-.15.32-.15.65-.27 1-.37.36-.1.69-.24 1.01-.42.2-.06.41-.11.63-.15s.43-.09.63-.15l.18-.17s.07 0 .13.02.13 0 .22-.02c.14-.06.31-.12.48-.2.18-.07.31-.02.4.15.11-.09.23-.15.35-.18.11-.03.24-.09.39-.17.06.17.16.3.28.37.13.07.2.2.2.37-.21.09-.39.17-.55.24-.16.07-.37.14-.63.2 0 .06 0 .1-.02.13s0 .07.02.13c.26.06.45.01.59-.13.13-.15.3-.17.5-.09-.11.09-.23.15-.35.18-.11.03-.25.09-.39.17-.03.06-.04.09-.02.09s0 .03-.02.09c-.06 0-.11 0-.13.02s-.07.02-.13.02c0 .06-.01.1-.04.11s-.04.05-.04.11c-.23.06-.43.16-.57.31-.15.15-.33.26-.57.35-.15.03-.28.05-.39.06a.47.47 0 0 0-.31.2c-.5.09-.9.22-1.23.39-.32.17-.65.35-1 .53.03.03.05.03.06 0s.05-.03.11 0c0 .06-.02.08-.06.06-.05-.01-.09 0-.11.07.15.06.27.04.37-.05.11-.09.23-.13.38-.13.03.21-.06.32-.24.35-.19.03-.3.09-.33.17-.09 0-.18.03-.26.09-.09.06-.18.07-.26.05-.06.06-.12.1-.2.13-.07.03-.12.06-.15.09-.18.12-.33.23-.48.35-.14.12-.29.21-.43.26-.06.06-.13.1-.2.11s-.12.06-.15.15c-.23.09-.47.2-.7.35-.23.15-.45.26-.65.35-.52.23-1 .45-1.44.66-.32.26-.67.47-1.04.61s-.76.31-1.14.48c-.06.03-.09.06-.11.09-.01.03-.05.07-.11.13-.36.03-.69.12-1.01.26s-.68.25-1.09.31c-.12.03-.22.03-.31 0a.387.387 0 0 0-.26 0c-.26 0-.56.04-.9.11-.33.07-.63.14-.9.2-.09 0-.18 0-.26-.02s-.16-.06-.22-.15c-.23-.03-.45-.04-.67-.04s-.4-.06-.55-.17c-.29.11-.52.09-.7-.09-.18-.17-.39-.28-.65-.31 0-.06-.01-.1-.04-.11-.03-.01-.05-.05-.05-.11-.41.06-.7-.05-.87-.31-.17-.26-.39-.47-.65-.61-.26-.41-.5-.85-.7-1.31-.2-.47-.31-.97-.31-1.53-.06-.12-.09-.19-.09-.22.12-.26.13-.55.04-.87s-.03-.58.17-.79c-.09-.06-.13-.14-.13-.26.12-.23.23-.46.35-.68.12-.22.23-.47.35-.76h.09c.03-.11.07-.16.13-.13-.03-.09-.03-.15 0-.17s.03-.07 0-.13c.15-.15.25-.28.31-.41.06-.13.16-.28.3-.46.06-.06.12-.1.2-.13.07-.03.12-.07.15-.13.15-.17.3-.36.46-.55.16-.19.31-.36.45-.5.03-.06.05-.1.05-.13s.03-.07.09-.13c.06-.03.11-.06.17-.11.06-.04.12-.08.18-.11.09-.17.23-.37.44-.57.23-.23.49-.46.76-.67.28-.22.55-.44.81-.68v-.13c.23-.15.45-.29.67-.44s.43-.32.63-.52c.06-.03.11-.07.17-.11.06-.04.12-.08.18-.11.58-.52 1.21-.97 1.9-1.33.69-.37 1.34-.79 1.95-1.29.29-.09.53-.24.72-.46.19-.22.41-.38.67-.5 0-.06 0-.09.02-.09s.04-.03.07-.09v-.05c.06 0 .11-.01.15-.04s.09-.04.16-.04c.32-.2.67-.36 1.07-.46s.7-.3.94-.59Z" style="fill:#fb0742"></path><path d="M152.49 121.87c.06-.06.15-.15.26-.28.11-.13.22-.27.33-.41.1-.15.2-.27.28-.37.09-.1.15-.15.17-.15.35-.49.71-.95 1.09-1.37.38-.42.73-.88 1.05-1.37.44-.32.77-.75 1.01-1.29.23-.54.47-.92.7-1.16 0-.06-.02-.1-.06-.11-.05-.01-.08-.04-.11-.06.06-.15.1-.26.13-.33s.12-.11.26-.11h.09c.32-.44.74-.68 1.27-.74a5.21 5.21 0 0 0 1.48-.39c.03 0 .07.06.13.18.44 0 .9.08 1.37.24s.88.36 1.2.59h.04c.06 0 .07-.03.05-.09-.03-.06-.01-.09.04-.09.15.15.41.3.78.46.38.16.63.24.74.24h.31c.06 0 .24.07.55.22s.52.28.63.39c.09 0 .13-.02.13-.05.06.21.23.31.52.31.09 0 .15-.01.17-.04 0 .12.12.3.37.55s.52.49.81.74c.29.25.69.55 1.18.9.55.5 1.03 1.05 1.42 1.66.39.61.59 1.3.59 2.05 0 .12-.01.22-.04.33s-.04.2-.04.28v.35c0 .76-.17 1.41-.5 1.94-.33.54-.72 1.01-1.15 1.42-.06.21-.17.34-.33.39-.16.06-.27.17-.33.35l-.04-.04c-.09 0-.28.14-.59.42s-.62.56-.94.87-.6.59-.83.85c-.23.26-.32.37-.26.31-.12.17-.31.37-.57.57s-.56.41-.9.61-.68.4-1.05.59c-.36.19-.72.34-1.07.46-.64.32-1.29.69-1.94 1.11-.65.42-1.21.63-1.68.63-.12 0-.2-.01-.26-.04-.03.06-.07.1-.11.13s-.08.07-.11.13c-.06-.03-.1-.05-.11-.07s-.05-.02-.11-.02c-.55.2-1.17.31-1.83.31-.41 0-.79-.04-1.14-.13-.35-.09-.63-.23-.83-.44h-.18c-.29 0-.54-.08-.76-.24-.22-.16-.41-.34-.59-.55-.18-.2-.36-.41-.55-.63-.19-.22-.4-.4-.63-.55-.15-.32-.26-.59-.33-.81-.07-.22-.23-.49-.46-.81v-.17c0-.15-.01-.3-.05-.46-.03-.16-.04-.31-.04-.46.06-.12.1-.21.13-.28.03-.07.04-.18.04-.33v-1.18c0-.15 0-.3-.02-.46s-.02-.31-.02-.46c0-.26.03-.47.09-.61v-.17c0-.5.14-1.01.42-1.55l.76-1.46c0-.03 0-.05-.02-.07a.107.107 0 0 1-.02-.06v-.09Zm5.76 5.2c.35-.15.67-.28.98-.42s.59-.33.85-.59l.09.04c.14 0 .25-.06.33-.2.07-.13.18-.2.33-.2h.09c.06-.12.26-.29.59-.53.33-.23.7-.48 1.09-.74.39-.26.77-.52 1.13-.78s.62-.48.76-.65c.03-.03.12-.1.28-.22.16-.11.33-.26.5-.44.17-.17.33-.38.48-.61.15-.23.22-.49.22-.78 0-.26-.08-.49-.24-.7-.16-.21-.35-.39-.56-.57-.22-.17-.44-.34-.68-.5s-.41-.33-.52-.5c-.55.58-1.1 1.18-1.64 1.79-.54.61-1.19 1.37-1.94 2.27-.55.67-1.07 1.34-1.55 2.01-.48.67-.88 1.32-1.2 1.96h.13c.15 0 .23.05.26.13.03.09.1.16.22.22ZM169.99 128.9c.23-.79.47-1.56.7-2.32s.45-1.56.65-2.4c.09-.18.15-.39.2-.64.04-.25.13-.44.28-.59 0-.09 0-.17.02-.24.01-.07 0-.15-.02-.24.23-.23.4-.53.5-.9.1-.36.2-.75.28-1.15.2-.26.36-.58.46-.94.1-.37.21-.74.33-1.12.15-.23.25-.47.31-.72s.15-.5.26-.76c.03-.06.05-.14.06-.26s.05-.21.11-.26c.15-.32.32-.62.52-.9s.31-.62.31-1.03c.12-.03.19-.11.22-.26.03-.15.07-.25.13-.31-.03-.03-.05-.06-.05-.09s0-.06-.02-.09c-.01-.03 0-.07.02-.13.12.06.23.1.33.13s.23-.01.37-.13c.03.11.11.17.26.17a2.6 2.6 0 0 1 1 .02c.35.07.61.26.78.54.06 0 .09-.03.09-.09.06.03.08.07.06.13-.01.06 0 .1.02.13 0 .15.05.26.15.35.1.09.18.22.24.39.03.18.06.4.09.68s.07.55.13.81c0 .06.03.12.09.17.03.12.03.26 0 .44s-.01.29.04.35c0 .23-.03.51-.09.83-.06.32-.03.54.09.65-.11.29-.21.55-.28.76-.07.22-.14.46-.2.72.23-.15.43-.36.59-.63s.36-.53.59-.76c.06-.06.15-.14.28-.24.13-.1.22-.22.28-.37.17-.17.33-.37.48-.59.15-.22.29-.4.44-.55.03-.06.06-.09.11-.09.04 0 .06-.01.06-.04.26-.26.49-.58.67-.96.19-.38.44-.64.76-.78l.09-.09c.03-.03.03-.09 0-.18.2-.09.39-.22.55-.39s.32-.37.48-.57.32-.38.48-.55c.16-.16.36-.27.59-.33.17-.06.33-.09.46-.09s.3-.03.5-.09c.2.15.42.2.66.15.23-.04.42.05.56.28.06.06.1.05.11-.02.01-.07.05-.08.11-.02.17.09.33.2.48.35s.32.29.52.44c.09-.06.23-.06.44 0 .15.32.33.58.57.76.23.19.39.49.48.9.06.06.1.14.11.24.01.1.05.17.11.2.03.06.02.09-.02.09s-.06.03-.06.09c.15.41.2.79.17 1.15-.03.37-.1.75-.22 1.16l.13.13c.03.03.04.09.04.17-.03.03-.1.04-.22.04-.06.58-.16 1.07-.31 1.46s-.25.87-.31 1.42c-.06.06-.1.16-.13.31a.95.95 0 0 1-.13.35c-.03.06-.03.09 0 .09s.04.05.04.13c-.12.15-.19.38-.22.7-.03.32-.1.6-.22.83-.09.61-.22 1.21-.42 1.81-.19.6-.36 1.2-.5 1.81v.53c0 .17-.03.35-.09.52-.03.15-.07.27-.13.37-.06.1-.1.22-.13.37-.06.15-.09.26-.09.33s-.01.13-.04.17c-.03.05-.07.1-.11.17-.04.07-.11.18-.2.33.03.09.04.15.02.2s-.02.11-.02.2c-.09 0-.15-.06-.17-.17-.06.06-.07.16-.05.31s.05.25.05.31c-.09.15-.16.15-.22.02s-.15-.15-.26-.06c-.09.06-.15.17-.18.33s-.09.24-.17.24c0 .35-.06.63-.2.85-.13.22-.21.53-.24.94-.17.03-.41 0-.72-.11-.31-.1-.55-.08-.72.06-.23-.58-.43-1.08-.59-1.51s-.28-1.01-.37-1.77c-.03-.29-.02-.63.02-1 .04-.38.1-.76.17-1.16.07-.39.13-.78.17-1.18.04-.39.06-.76.06-1.11-.09-.38-.13-.8-.13-1.26s-.05-.93-.13-1.4c-.09 0-.23 0-.42.02s-.3.05-.33.11c-.17.21-.34.39-.5.55s-.31.34-.46.55c-.06.11-.11.17-.17.17l-.26.26c-.09.09-.18.15-.26.18-.35.49-.68.94-.98 1.33-.31.39-.66.8-1.07 1.2-.17.09-.33.23-.48.42s-.29.41-.44.65c-.15.25-.28.49-.42.72-.13.23-.28.41-.46.53-.11.09-.23.18-.35.28-.12.1-.2.24-.26.42-.06 0-.09.01-.11.04-.02.03-.05.02-.11-.04-.17.32-.49.64-.94.96-.45.32-.78.64-.98.96-.09 0-.16-.01-.22-.04-.06.03-.12.16-.17.39-.06.23-.12.38-.17.44-.15-.12-.24-.12-.28-.02-.05.1-.14.12-.28.06a.613.613 0 0 0-.48.02c-.15.07-.29.08-.44.02-.15.03-.24.09-.28.2s-.07.22-.07.37c-.15.03-.28.07-.41.13-.13.06-.23.19-.28.39-.21 0-.33-.16-.39-.48.12.17.17.16.17-.05 0-.06-.03-.11-.09-.17-.15.06-.2.2-.15.42s0 .37-.15.46c-.06-.12-.09-.29-.09-.52-.15.03-.31.13-.48.31-.17 0-.28-.05-.33-.15-.04-.1-.12-.15-.24-.15-.06-.12-.09-.27-.09-.46s0-.39.02-.61c.01-.22.02-.43.02-.65s-.01-.42-.04-.59c.09-.55.17-1.17.26-1.85.09-.68.2-1.27.35-1.77.03.03.06.05.09.05Z" style="fill:#fb0742"></path><path d="M192.47 134.1c-.06.03-.06.05-.02.06.05.01.05.05.02.11-.23-.03-.39-.12-.48-.28-.09-.16-.2-.3-.35-.42-.03-.38-.1-.67-.22-.87 0-.06.03-.09.09-.09a.122.122 0 0 0-.09-.04c-.03 0-.06-.01-.09-.04-.06-.58-.12-1.07-.2-1.46-.07-.39-.1-.9-.07-1.51 0-.03.03-.07.09-.13-.03-.49.01-.96.13-1.4.11-.44.2-.86.26-1.26.12-.18.21-.39.26-.66s.09-.51.09-.74h.04c.09-.47.21-.88.37-1.24s.31-.72.46-1.07c0-.06-.02-.09-.06-.09s-.05-.04-.02-.13c.17-.35.32-.7.44-1.05.11-.35.25-.69.39-1.01-.17-.03-.3-.05-.37-.06-.07-.01-.2 0-.37.02-.15-.09-.35-.11-.61-.07-.26.05-.47.07-.61.07-.32.03-.63-.03-.92-.17s-.6-.28-.92-.39c0-.06 0-.09.02-.11.02-.01.02-.05.02-.11a.353.353 0 0 0-.18-.11c-.06-.01-.1-.05-.13-.11.06-.17.03-.29-.09-.35s-.2-.16-.26-.31c-.06 0-.1.01-.13.04s-.07.03-.13 0c.06-.15.03-.22-.09-.24s-.22-.04-.31-.07c-.06-.06-.07-.1-.02-.13.04-.03.06-.06.06-.09-.09-.06-.17-.06-.24 0-.07.06-.18.09-.33.09.03-.06.07-.09.11-.11.04-.02.08-.05.11-.11-.09-.09-.17-.12-.26-.09-.06-.23-.06-.39 0-.48.15 0 .22.01.22.04.06-.09.08-.16.06-.22s-.02-.15-.02-.26c.15.09.31.15.5.17.19.03.33-.06.42-.26.15.09.26.09.33.02.07-.07.18-.11.33-.11.06 0 .09-.01.09-.04s.01-.07.04-.13c.32-.06.6-.11.83-.15.23-.04.49-.12.78-.24.23 0 .44-.02.61-.06s.35-.1.52-.17c.17-.07.35-.13.53-.17.17-.05.38-.05.61-.02.23-.26.47-.4.72-.41.25-.01.52-.07.81-.15.2-.44.39-.9.57-1.37.17-.48.38-.92.61-1.33-.03-.06-.03-.11 0-.15.03-.04.04-.1.04-.15.23-.32.42-.66.57-1.03.15-.36.33-.72.56-1.07.06-.09.1-.18.13-.28s.07-.21.13-.33c.06-.09.13-.17.22-.24.09-.07.16-.18.22-.33.09-.15.16-.31.22-.5s.13-.36.22-.5c0-.03.01-.04.04-.02s.04.01.04-.02c.03-.03.04-.06.02-.09s-.01-.07.02-.13.07-.11.13-.15c.06-.04.1-.11.13-.2.06-.09.1-.18.11-.26.01-.09.05-.17.11-.26.06-.12.15-.26.26-.44.06-.15.11-.29.15-.44.04-.15.11-.25.2-.31.03-.2.09-.36.17-.46.09-.1.15-.25.17-.46.09-.09.17-.2.26-.35s.17-.29.26-.44c.17-.44.39-.87.65-1.31.12-.2.21-.42.28-.65.07-.23.18-.44.33-.61-.03-.12-.03-.2 0-.26s.07-.11.13-.17v-.26c.2-.23.44-.39.7-.48l.24-.24c.07-.07.18-.14.33-.2.03.12.03.18 0 .2s-.06.05-.09.11c.09.06.15.1.2.11s.12 0 .24-.02c.06-.09.12-.15.2-.2.07-.05.12-.11.15-.2.06 0 .12.04.17.11.06.07.06.14 0 .2.06.06.1.07.11.02.01-.05.05-.07.11-.07s.1.03.11.09c.01.06.05.09.11.09.15 0 .26-.03.33-.09s.17-.09.28-.09a.772.772 0 0 1-.06-.15c-.02-.04 0-.09.06-.15.23.06.44.18.63.37s.4.28.63.28c.12.21.26.37.44.48.17.11.35.23.53.35 0 .35.11.6.35.74-.03.23-.02.4.02.5.04.1.02.23-.06.37.03.06.05.11.06.17.01.06.02.13.02.22-.15.44-.29.89-.44 1.35s-.36.86-.65 1.18c0 .23-.04.44-.13.61-.09.17-.2.33-.33.48s-.26.31-.37.48c-.12.17-.19.38-.22.61-.17.32-.38.66-.61 1.01.03.2-.02.36-.15.48s-.21.29-.24.53c-.03 0-.04 0-.04.02s-.03.02-.09.02c-.26.61-.58 1.17-.94 1.66s-.66 1.05-.89 1.66c-.06.06-.11.12-.15.17-.05.06-.08.16-.11.31.38.06.72.07 1.03.04s.57-.07.81-.13c.15-.03.29-.04.44-.02s.29.02.44.02c.67-.06 1.45-.1 2.33-.13.89-.03 1.8-.04 2.73-.04.03.03.04.07.02.13-.01.06 0 .12.07.17.06 0 .1-.03.13-.09s.07-.06.13 0c.06.23.02.4-.11.5s-.26.21-.37.33c.17.06.29.1.35.13 0 .06.02.09.05.09s.03.03 0 .09c-.06.06-.1.07-.13.04-.03-.03-.07-.04-.13-.04-.09.29-.26.46-.52.5-.26.05-.51.11-.74.2.03-.06-.02-.09-.13-.09-.09 0-.15.04-.17.13-.03.09-.1.13-.22.13 0 .09 0 .14-.02.15s0 .04.07.06c.06-.03.11-.07.15-.13.04-.06.11-.09.2-.09 0 .09-.02.13-.07.13-.04 0-.06.03-.06.09s.03.08.09.07c.06-.01.11-.02.17-.02-.03.06-.05.11-.07.15-.01.04-.04.08-.06.11-.17.09-.34.16-.5.22-.16.06-.3.16-.42.31-.21.06-.39.1-.57.13s-.33.09-.48.17c-.15-.06-.3-.02-.46.11-.16.13-.34.23-.55.28-.06 0-.11 0-.15-.02-.04-.01-.09 0-.15.02-.26.06-.54.15-.85.28s-.62.18-.94.15c-.03 0-.04.01-.02.05.01.03 0 .06-.02.09-.67-.03-1.32.05-1.96.24-.64.19-1.26.36-1.88.5-.15.32-.29.59-.44.81-.15.22-.25.49-.31.81-.12.2-.23.41-.33.63-.1.22-.18.43-.24.63-.12.26-.26.51-.42.74s-.27.54-.33.92a3.6 3.6 0 0 0-.7 1.31c-.15.49-.32.97-.53 1.44-.03.23-.09.51-.17.83s-.19.61-.31.87c-.12.53-.26 1.05-.44 1.59s-.29 1.05-.35 1.55c-.06.26-.1.5-.13.72-.03.22-.07.44-.13.67 0 .09-.04.15-.13.17-.03.06-.02.09.02.09.05 0 .07.03.07.09-.38.49-.67 1.04-.87 1.66-.03.03-.09.04-.17.04-.06.06-.07.11-.04.17.03.06.01.13-.05.22-.11 0-.19-.04-.22-.13a.537.537 0 0 0-.13-.22c-.09.17-.06.29.09.35-.12.03-.21.03-.26 0 0 .06.01.11.04.15.03.05.01.08-.04.11-.09 0-.13-.05-.13-.15v-.28c-.06.12-.1.19-.13.22-.12 0-.15-.09-.09-.26-.15 0-.22.03-.22.09a.821.821 0 0 1-.22-.33c-.03-.1-.07-.24-.13-.41l-.04-.05s-.05.01-.05.05c-.03-.06-.05-.1-.06-.13s-.04-.07-.07-.13Zm-3.49-15.41c-.09 0-.13.05-.13.13.09 0 .13-.04.13-.13Zm.79.87c0-.06-.06-.12-.18-.17 0 .06.06.12.18.17Zm1.26.96c0-.06-.03-.09-.09-.11-.06-.01-.1 0-.13.06.03.03.07.05.13.06.06.02.09.01.09-.02ZM208.1 132.87c-.03.06-.01.15.04.26-.17 0-.28.04-.31.13-.03.09-.06.15-.09.18-.03.17-.09.35-.18.52-.09.17-.17.29-.24.35-.07.06-.12.03-.15-.09s0-.35.09-.7c-.06-.06-.1-.06-.13-.02-.03.04-.05.05-.05.02.09.12.05.2-.13.26.03.41 0 .67-.06.78-.07.12-.15.14-.22.07s-.12-.21-.15-.42.01-.42.13-.66c-.06 0-.08 0-.06.02.01.01 0 .04-.02.06-.03 0-.06-.01-.09-.04s-.01-.07.05-.13c-.09.15-.25.32-.48.52-.23.21-.32.33-.26.39 0 .06-.04.08-.11.06a.356.356 0 0 1-.15-.06c0 .35-.01.53-.04.55-.03.01-.07-.02-.11-.11-.04-.09-.1-.16-.15-.22-.06-.06-.1 0-.13.18a.397.397 0 0 1-.11-.2c-.01-.07-.08-.11-.2-.11.15.06.13.17-.04.35.06-.32.05-.54-.02-.66-.07-.11.02-.26.28-.43-.06-.06-.08-.13-.06-.22.01-.09.04-.16.06-.22 0-.17.03-.33.09-.48.06-.15.1-.31.13-.48 0-.29.09-.61.26-.96.03-.29.08-.58.15-.85.07-.27.17-.53.28-.76-.15-.09-.1-.16.13-.22-.09-.06-.11-.11-.06-.15s.02-.06-.06-.06c.17-.12.25-.25.22-.39.06 0 .09-.03.09-.09s-.03-.11-.09-.17c.26-.09.29-.23.09-.44.17-.06.25-.15.24-.26-.01-.12 0-.21.07-.26.06-.17.13-.39.24-.65.1-.26.15-.51.15-.74.06-.06.08-.11.07-.15-.02-.05 0-.11.06-.2-.06-.2 0-.41.17-.63.17-.22.2-.4.09-.54a.68.68 0 0 1 .26-.18c-.17-.06-.21-.11-.11-.17.1-.06.15-.13.15-.22 0-.06 0-.12-.02-.17-.02-.06 0-.12.02-.17.06-.06.11-.12.17-.2.06-.07.07-.14.04-.2.06-.03.1-.06.11-.09.01-.03.04-.04.06-.04-.06-.15-.04-.28.07-.39.1-.11.12-.22.06-.31.03-.09.07-.16.13-.22s.07-.12.04-.17l-.13-.09s.03-.05.09-.06.12-.04.17-.07c.03-.06.03-.12 0-.2a.442.442 0 0 1 0-.28c.06-.2.13-.33.22-.39 0-.06-.03-.09-.09-.09.15-.17.24-.4.28-.67s.14-.53.28-.76c-.12-.12-.11-.23.02-.35.13-.11.2-.25.2-.39.06-.06.1-.11.11-.15.01-.05.04-.08.06-.11.09-.17.17-.34.24-.5.07-.16.14-.31.2-.46.06-.06.06-.07 0-.05-.06.03-.09.02-.09-.04.23-.12.38-.24.44-.37a.55.55 0 0 1 .26-.28c.18-.03.3-.08.37-.15.07-.07.17-.14.28-.2.32-.09.63-.13.94-.15.31-.01.56-.09.76-.24.64-.06 1.16-.12 1.55-.17.39-.06.9-.09 1.51-.09.09 0 .15.03.17.09.12-.03.23-.05.35-.05.11.03.21.08.28.15.07.07.15.1.24.07.17.2.25.4.22.59s-.09.38-.17.59c-.12.32-.24.65-.37.98s-.33.66-.59.98c-.06.17-.11.35-.15.52s-.18.35-.42.52c.06.03.08.05.07.05-.02 0 .02.03.11.09-.23.32-.4.68-.52 1.07s-.32.75-.61 1.07v.13c-.17.29-.33.65-.48 1.07-.15.42-.3.85-.46 1.29s-.32.86-.48 1.26c-.16.41-.34.76-.54 1.05.03.06.02.1-.02.13-.05.03-.04.09.02.17-.41.64-.81 1.27-1.2 1.88s-.65 1.25-.76 1.92c-.15.06-.24.13-.28.22-.04.09-.17.16-.37.22a.515.515 0 0 0-.13-.17c-.38.06-.57.2-.57.42s-.03.41-.09.59c-.09 0-.11.03-.09.09.03.06 0 .06-.09 0 .12.09.16.17.13.24-.03.07-.08.13-.15.17s-.14.08-.2.11-.06.07 0 .13c-.09.06-.15.03-.17-.09-.03-.12-.09-.16-.17-.13.03-.03.04-.06.02-.11-.02-.04 0-.06.06-.06a.37.37 0 0 1-.2-.17c-.04-.09-.14-.13-.28-.13Zm-.7.31c-.06 0-.11.03-.17.09-.06.06-.01.09.13.09.03-.03.04-.09.04-.17Zm.74-.53c-.06 0-.07.02-.04.05s.03.06 0 .09c.15 0 .16-.04.04-.13Zm.26.09s-.01-.04-.04-.04l-.17.17.26-.09s-.04-.01-.04-.04Zm4.76-22.91c-.03-.06-.07-.09-.13-.09s-.06-.03 0-.09c.09-.03.19-.04.31-.02.11.02.2 0 .26-.06.15 0 .23-.04.26-.11s.07-.13.13-.2c.11 0 .23-.03.35-.09.12-.11.29-.22.53-.31.23-.09.47-.11.72-.06.25.04.55.06.9.06.15.06.28.1.39.11.11.01.29.04.52.07.09.11.23.2.42.24s.34.14.46.28h.09l.09-.09c0 .09.01.16.04.22.26.12.46.3.59.55.13.25.31.43.55.54.03.26.06.55.11.87.04.32-.17.6-.63.83a.27.27 0 0 0-.18.18c-.4.03-.68.1-.83.22-.73 0-1.02.17-.87.52-.15.09-.26.19-.33.31s-.14.25-.2.39c-.15.03-.28.08-.39.15-.12.07-.29.14-.52.2-.06 0-.08-.01-.07-.04s-.02-.06-.11-.09c-.72.15-1.43.21-2.11.18-.69-.03-1.25-.13-1.68-.31l-.13-.13c-.06-.06-.12-.07-.18-.05-.06.03-.11.02-.17-.04 0-.09-.04-.18-.11-.28-.07-.1-.1-.2-.07-.28 0-.09.01-.16.04-.22s.05-.13.05-.22c-.06-.15-.05-.36.04-.64.09-.27.19-.49.31-.63.03-.03.06-.09.09-.17.03-.09.07-.16.13-.22.18-.26.36-.51.55-.74.19-.23.39-.47.59-.7.03 0 .06 0 .09-.02.03-.01.07-.02.13-.02ZM214.82 128.9c.23-.79.47-1.56.7-2.32s.45-1.56.65-2.4c.09-.18.15-.39.2-.64.04-.25.13-.44.28-.59 0-.09 0-.17.02-.24.01-.07 0-.15-.02-.24.23-.23.4-.53.5-.9.1-.36.2-.75.28-1.15.2-.26.36-.58.46-.94.1-.37.21-.74.33-1.12.15-.23.25-.47.31-.72s.15-.5.26-.76c.03-.06.05-.14.06-.26s.05-.21.11-.26c.15-.32.32-.62.52-.9s.31-.62.31-1.03c.12-.03.19-.11.22-.26.03-.15.07-.25.13-.31-.03-.03-.05-.06-.05-.09s0-.06-.02-.09c-.01-.03 0-.07.02-.13.12.06.23.1.33.13s.23-.01.37-.13c.03.11.11.17.26.17a2.6 2.6 0 0 1 1 .02c.35.07.61.26.78.54.06 0 .09-.03.09-.09.06.03.08.07.06.13-.01.06 0 .1.02.13 0 .15.05.26.15.35.1.09.18.22.24.39.03.18.06.4.09.68s.07.55.13.81c0 .06.03.12.09.17.03.12.03.26 0 .44s-.01.29.04.35c0 .23-.03.51-.09.83-.06.32-.03.54.09.65-.11.29-.21.55-.28.76-.07.22-.14.46-.2.72.23-.15.43-.36.59-.63s.36-.53.59-.76c.06-.06.15-.14.28-.24.13-.1.22-.22.28-.37.17-.17.33-.37.48-.59.15-.22.29-.4.44-.55.03-.06.06-.09.11-.09.04 0 .06-.01.06-.04.26-.26.49-.58.67-.96.19-.38.44-.64.76-.78l.09-.09c.03-.03.03-.09 0-.18.2-.09.39-.22.55-.39s.32-.37.48-.57.32-.38.48-.55c.16-.16.36-.27.59-.33.17-.06.33-.09.46-.09s.3-.03.5-.09c.2.15.42.2.66.15.23-.04.42.05.56.28.06.06.1.05.11-.02.01-.07.05-.08.11-.02.17.09.33.2.48.35s.32.29.52.44c.09-.06.23-.06.44 0 .15.32.33.58.57.76.23.19.39.49.48.9.06.06.1.14.11.24.01.1.05.17.11.2.03.06.02.09-.02.09s-.06.03-.06.09c.15.41.2.79.17 1.15-.03.37-.1.75-.22 1.16l.13.13c.03.03.04.09.04.17-.03.03-.1.04-.22.04-.06.58-.16 1.07-.31 1.46s-.25.87-.31 1.42c-.06.06-.1.16-.13.31a.95.95 0 0 1-.13.35c-.03.06-.03.09 0 .09s.04.05.04.13c-.12.15-.19.38-.22.7-.03.32-.1.6-.22.83-.09.61-.22 1.21-.42 1.81-.19.6-.36 1.2-.5 1.81v.53c0 .17-.03.35-.09.52-.03.15-.07.27-.13.37-.06.1-.1.22-.13.37-.06.15-.09.26-.09.33s-.01.13-.04.17c-.03.05-.07.1-.11.17-.04.07-.11.18-.2.33.03.09.04.15.02.2s-.02.11-.02.2c-.09 0-.15-.06-.17-.17-.06.06-.07.16-.05.31s.05.25.05.31c-.09.15-.16.15-.22.02s-.15-.15-.26-.06c-.09.06-.15.17-.18.33s-.09.24-.17.24c0 .35-.06.63-.2.85-.13.22-.21.53-.24.94-.17.03-.41 0-.72-.11-.31-.1-.55-.08-.72.06-.23-.58-.43-1.08-.59-1.51s-.28-1.01-.37-1.77c-.03-.29-.02-.63.02-1 .04-.38.1-.76.17-1.16.07-.39.13-.78.17-1.18.04-.39.06-.76.06-1.11-.09-.38-.13-.8-.13-1.26s-.05-.93-.13-1.4c-.09 0-.23 0-.42.02s-.3.05-.33.11c-.17.21-.34.39-.5.55s-.31.34-.46.55c-.06.11-.11.17-.17.17l-.26.26c-.09.09-.18.15-.26.18-.35.49-.68.94-.98 1.33-.31.39-.66.8-1.07 1.2-.17.09-.33.23-.48.42s-.29.41-.44.65c-.15.25-.28.49-.42.72-.13.23-.28.41-.46.53-.11.09-.23.18-.35.28-.12.1-.2.24-.26.42-.06 0-.09.01-.11.04-.02.03-.05.02-.11-.04-.17.32-.49.64-.94.96-.45.32-.78.64-.98.96-.09 0-.16-.01-.22-.04-.06.03-.12.16-.17.39-.06.23-.12.38-.17.44-.15-.12-.24-.12-.28-.02-.05.1-.14.12-.28.06a.613.613 0 0 0-.48.02c-.15.07-.29.08-.44.02-.15.03-.24.09-.28.2s-.07.22-.07.37c-.15.03-.28.07-.41.13-.13.06-.23.19-.28.39-.21 0-.33-.16-.39-.48.12.17.17.16.17-.05 0-.06-.03-.11-.09-.17-.15.06-.2.2-.15.42s0 .37-.15.46c-.06-.12-.09-.29-.09-.52-.15.03-.31.13-.48.31-.17 0-.28-.05-.33-.15-.04-.1-.12-.15-.24-.15-.06-.12-.09-.27-.09-.46s0-.39.02-.61c.01-.22.02-.43.02-.65s-.01-.42-.04-.59c.09-.55.17-1.17.26-1.85.09-.68.2-1.27.35-1.77.03.03.06.05.09.05ZM255.58 122.92s-.05-.04-.06-.04c-.02 0-.04-.01-.07-.04.12.17.28.19.5.04.22-.15.41-.22.59-.22 0 .06-.01.1-.04.11s-.04.04-.04.07c.06.09.11.1.15.04s.09-.06.15 0c.03.09 0 .15-.07.17-.07.03-.11.01-.11-.04-.06.03-.09.06-.09.11s-.03.07-.09.07c.03.12.03.23 0 .35.11 0 .23-.01.35-.04-.03.12-.04.26-.04.44-.15.09-.26.18-.33.28-.07.1-.18.21-.33.33-.06.03-.09.02-.09-.02 0-.05-.03-.07-.09-.07v.17c-.15-.03-.22 0-.24.07-.02.07-.05.15-.11.24.09 0 .15-.02.17-.06s.09-.09.17-.15c0 .06.03.1.09.11.06.01.09.05.09.11-.09 0-.15.02-.17.05s-.09.04-.17.04c0 .03 0 .05-.02.06-.01.02-.02.05-.02.11-.09-.03-.13 0-.13.07s-.01.14-.05.2c-.23 0-.41.06-.54.17s-.3.16-.5.13c-.06.12-.15.17-.28.17s-.23.07-.28.22c-.06.03-.1.03-.11 0-.01-.03-.04-.04-.06-.04-.09.15-.21.23-.35.26s-.26.09-.35.17h.04c-.06.17-.15.31-.26.39-.12.09-.22.09-.31 0-.06.12-.14.21-.24.28-.1.07-.18.15-.24.24.06.03.14 0 .24-.09.1-.09.18-.07.24.04-.15.15-.32.26-.53.35-.2.09-.41.16-.61.22 0 .11.01.15.04.11.03-.04.05-.04.05.02-.06.06-.12.1-.17.11-.06.01-.09.1-.09.24-.29-.06-.42.06-.39.35-.06.03-.1 0-.13-.09-.41.32-.85.6-1.33.83s-.94.49-1.37.78c-.32 0-.61.16-.87.48-.44.15-.85.33-1.24.55-.39.22-.78.44-1.16.67 0 .06.01.07.04.05s.06-.05.09-.05c-.32.26-.68.47-1.07.61-.39.15-.75.35-1.07.61-.38.03-.73.12-1.05.26s-.64.25-.96.31c-.06.03-.14.04-.24.02s-.21 0-.33.02c-.23.06-.56.07-.98.05-.42-.03-.78-.07-1.07-.13-.06-.03-.12-.07-.2-.11-.07-.04-.15-.1-.24-.15-.03 0-.06.01-.11.04s-.08.01-.11-.04a.459.459 0 0 1-.17-.17.71.71 0 0 0-.26-.22c-.15-.09-.29-.18-.44-.28s-.29-.18-.44-.24c0-.06-.01-.09-.04-.11-.03-.01-.04-.05-.04-.11-.09 0-.13-.01-.13-.05-.03-.06-.04-.1-.02-.13.01-.03.02-.06.02-.09-.06-.03-.08-.02-.07.02s0 .05-.02.02a6.21 6.21 0 0 1-.61-1.03 4.23 4.23 0 0 0-.61-.94c-.06-.44-.2-.77-.44-1-.03 0-.02.02.02.06.04.04.04.07-.02.07-.29-.44-.43-1.01-.41-1.73.01-.71.14-1.36.37-1.94.09-.11.16-.25.22-.39.06-.15.16-.25.31-.31.32-.82.72-1.51 1.22-2.07.49-.57.97-1.11 1.44-1.64.09-.11.18-.22.28-.31.1-.09.21-.2.33-.35.09-.12.22-.25.39-.39.15-.15.3-.29.46-.44.16-.14.33-.29.5-.43.29-.23.53-.47.72-.72.19-.25.43-.44.72-.59 0-.06 0-.09.02-.09.01 0 .02-.03.02-.09.2-.09.38-.2.54-.33.16-.13.31-.31.46-.55.23.03.4-.04.5-.22.1-.18.22-.31.37-.39.12-.06.23-.1.33-.13s.2-.09.28-.17c.12-.12.22-.2.31-.26.44-.29.87-.56 1.31-.81s.9-.49 1.4-.72c.32-.15.65-.32 1.01-.52.35-.21.72-.37 1.13-.48.09 0 .13-.03.13-.09.06.03.12.02.2-.02.07-.04.14-.08.2-.11.23-.09.47-.17.72-.24.25-.07.49-.14.72-.2.23 0 .5 0 .81.02.31.02.57.1.81.24.03.09.03.13 0 .13h-.09c.12.09.25.17.39.26.15.09.25.23.31.43.06.06.15.12.26.18.09.26.2.4.35.43-.06.03-.07.05-.04.07.03.01.04.04.04.06.12.09.19.18.22.28.03.1.07.23.13.37a1 1 0 0 0 .22.35 1 1 0 0 1 .22.35c.06.09.09.18.09.28s.03.18.09.24c0 .15-.01.25-.04.31.12.06.18.14.2.24.01.1 0 .21-.02.31-.03.1-.05.21-.06.33-.02.12 0 .23.06.35 0 .06-.02.11-.06.15-.05.04-.05.11-.02.2-.23.23-.44.5-.61.81-.18.31-.37.58-.57.81-.06.03-.1.06-.11.09-.01.03-.05.06-.11.09-.11.15-.22.28-.33.39-.1.12-.22.23-.37.35-.06.06-.12.1-.2.13-.07.03-.14.1-.2.22-.06.06-.13.12-.22.2-.09.07-.16.14-.22.2-.15.06-.31.12-.5.2-.19.07-.33.18-.42.33-.47.26-.92.54-1.35.83s-.9.55-1.4.78c-.15.06-.28.09-.39.11-.11.01-.22.08-.31.2-.15 0-.27.05-.39.15s-.26.17-.44.2c-.09 0-.15.04-.17.13l-.13-.04c-.29.2-.59.36-.9.46s-.62.2-.94.28c-.12.03-.17.01-.17-.05-.15.03-.26.07-.33.13s-.18.07-.33.04c-.06.06-.11.1-.17.13-.23 0-.45.03-.65.09s-.42.06-.65 0c-.06 0-.09.01-.09.04s-.03.06-.09.09c-.15-.06-.29-.09-.43-.09s-.25-.07-.31-.22c-.06 0-.12 0-.18.02-.06.01-.13 0-.22-.07-.23.23-.47.48-.7.74-.23.26-.44.57-.61.92-.03 0-.04 0-.04-.02s-.01-.02-.04-.02c-.03.12-.08.2-.15.24-.07.04-.11.17-.11.37-.17.09-.28.25-.31.48-.03.23-.12.42-.26.57.32 0 .66-.04 1.03-.13.36-.09.71-.15 1.03-.17.06-.03.09-.06.09-.11 0-.04.03-.08.09-.11.2.03.36 0 .48-.07s.26-.11.44-.11c.03 0 .07-.06.13-.17.15.03.32 0 .52-.09.21-.09.38-.17.53-.26.32 0 .63-.08.94-.24.31-.16.62-.27.94-.33.15-.17.34-.26.59-.26s.42-.1.5-.31c.23-.06.45-.11.66-.15.2-.04.4-.13.61-.28.03 0 .04.01.04.04s.03.03.09 0v-.09c.17-.11.38-.19.61-.22.23-.03.42-.15.56-.35.41 0 .77-.1 1.09-.31h.04s.04 0 .04.02.01.02.04.02.05-.01.07-.04.05-.06.11-.09c.4-.12.81-.27 1.22-.46.4-.19.86-.42 1.35-.67.06.06.11.06.17.02.06-.05.13-.04.22.02.23-.15.47-.23.7-.26.23-.03.48-.09.74-.17.17-.06.35-.13.52-.22.17-.09.36-.13.57-.13.23 0 .45-.07.65-.22s.42-.25.66-.31c.11 0 .24 0 .37-.02s.24-.02.33-.02c0 .09-.04.13-.11.13s-.11.04-.11.13a.386.386 0 0 0-.44.11c-.12.13-.26.17-.44.11-.03.06-.06.09-.09.09s-.04.03-.04.09Zm-11.52-1.74c.09-.15.2-.17.35-.07.15.1.26.1.35-.02-.03.12-.03.17 0 .17s.06-.02.11-.06c.05-.04.09-.09.13-.13.05-.04.08-.06.11-.06.03-.03.06-.04.11-.02.04.02.08.02.11.02.18.03.31-.06.39-.26s.2-.29.35-.26c.12-.15.24-.22.37-.22s.24-.09.33-.26c.17 0 .39-.06.65-.17s.6-.35 1.01-.7c.06-.12.17-.33.35-.65s.31-.51.39-.57c-.06-.06-.14-.07-.24-.04s-.2.07-.31.13c-.1.06-.2.11-.31.15-.1.04-.17.05-.2.02-.06.06-.19.17-.39.33s-.33.24-.39.24c-.21.03-.37.14-.5.33s-.28.26-.46.2c-.06.12-.13.22-.22.31s-.19.1-.31.04l-.17.17c-.06.06-.15.09-.26.09-.03 0-.04.02-.02.06.01.05 0 .07-.02.07-.09-.03-.15 0-.2.06-.04.07-.09.11-.15.11 0-.03-.01-.04-.04-.04v.09c-.17.15-.36.27-.55.37-.19.1-.36.27-.5.5h-.09v.13c.06 0 .09-.01.11-.04s.05-.03.11 0Z" style="fill:#fb0742"></path><path d="M254.71 128.9c.23-.79.47-1.56.7-2.32s.45-1.56.65-2.4c.09-.18.15-.39.2-.64.04-.25.13-.44.28-.59 0-.09 0-.17.02-.24.01-.07 0-.15-.02-.24.23-.23.4-.53.5-.9.1-.36.2-.75.28-1.15.2-.26.36-.58.46-.94.1-.37.21-.74.33-1.12.15-.23.25-.47.31-.72s.15-.5.26-.76c.03-.06.05-.14.06-.26s.05-.21.11-.26c.15-.32.32-.62.52-.9s.31-.62.31-1.03c.12-.03.19-.11.22-.26.03-.15.07-.25.13-.31-.03-.03-.05-.06-.05-.09s0-.06-.02-.09c-.01-.03 0-.07.02-.13.12.06.23.1.33.13s.23-.01.37-.13c.03.11.11.17.26.17a2.6 2.6 0 0 1 1 .02c.35.07.61.26.78.54.06 0 .09-.03.09-.09.06.03.08.07.06.13-.01.06 0 .1.02.13 0 .15.05.26.15.35.1.09.18.22.24.39.03.18.06.4.09.68s.07.55.13.81c0 .06.03.12.09.17.03.12.03.26 0 .44s-.01.29.04.35c0 .23-.03.51-.09.83-.06.32-.03.54.09.65-.11.29-.21.55-.28.76-.07.22-.14.46-.2.72.23-.15.43-.36.59-.63s.36-.53.59-.76c.06-.06.15-.14.28-.24.13-.1.22-.22.28-.37.17-.17.33-.37.48-.59.15-.22.29-.4.44-.55.03-.06.06-.09.11-.09.04 0 .06-.01.06-.04.26-.26.49-.58.67-.96.19-.38.44-.64.76-.78l.09-.09c.03-.03.03-.09 0-.18.2-.09.39-.22.55-.39s.32-.37.48-.57.32-.38.48-.55c.16-.16.36-.27.59-.33.17-.06.33-.09.46-.09s.3-.03.5-.09c.2.15.42.2.66.15.23-.04.42.05.56.28.06.06.1.05.11-.02.01-.07.05-.08.11-.02.17.09.33.2.48.35s.32.29.52.44c.09-.06.23-.06.44 0 .15.32.33.58.57.76.23.19.39.49.48.9.06.06.1.14.11.24.01.1.05.17.11.2.03.06.02.09-.02.09s-.06.03-.06.09c.15.41.2.79.17 1.15-.03.37-.1.75-.22 1.16l.13.13c.03.03.04.09.04.17-.03.03-.1.04-.22.04-.06.58-.16 1.07-.31 1.46s-.25.87-.31 1.42c-.06.06-.1.16-.13.31a.95.95 0 0 1-.13.35c-.03.06-.03.09 0 .09s.04.05.04.13c-.12.15-.19.38-.22.7-.03.32-.1.6-.22.83-.09.61-.22 1.21-.42 1.81-.19.6-.36 1.2-.5 1.81v.53c0 .17-.03.35-.09.52-.03.15-.07.27-.13.37-.06.1-.1.22-.13.37-.06.15-.09.26-.09.33s-.01.13-.04.17c-.03.05-.07.1-.11.17-.04.07-.11.18-.2.33.03.09.04.15.02.2s-.02.11-.02.2c-.09 0-.15-.06-.17-.17-.06.06-.07.16-.05.31s.05.25.05.31c-.09.15-.16.15-.22.02s-.15-.15-.26-.06c-.09.06-.15.17-.18.33s-.09.24-.17.24c0 .35-.06.63-.2.85-.13.22-.21.53-.24.94-.17.03-.41 0-.72-.11-.31-.1-.55-.08-.72.06-.23-.58-.43-1.08-.59-1.51s-.28-1.01-.37-1.77c-.03-.29-.02-.63.02-1 .04-.38.1-.76.17-1.16.07-.39.13-.78.17-1.18.04-.39.06-.76.06-1.11-.09-.38-.13-.8-.13-1.26s-.05-.93-.13-1.4c-.09 0-.23 0-.42.02s-.3.05-.33.11c-.17.21-.34.39-.5.55s-.31.34-.46.55c-.06.11-.11.17-.17.17l-.26.26c-.09.09-.18.15-.26.18-.35.49-.68.94-.98 1.33-.31.39-.66.8-1.07 1.2-.17.09-.33.23-.48.42s-.29.41-.44.65c-.15.25-.28.49-.42.72-.13.23-.28.41-.46.53-.11.09-.23.18-.35.28-.12.1-.2.24-.26.42-.06 0-.09.01-.11.04-.02.03-.05.02-.11-.04-.17.32-.49.64-.94.96-.45.32-.78.64-.98.96-.09 0-.16-.01-.22-.04-.06.03-.12.16-.17.39-.06.23-.12.38-.17.44-.15-.12-.24-.12-.28-.02-.05.1-.14.12-.28.06a.613.613 0 0 0-.48.02c-.15.07-.29.08-.44.02-.15.03-.24.09-.28.2s-.07.22-.07.37c-.15.03-.28.07-.41.13-.13.06-.23.19-.28.39-.21 0-.33-.16-.39-.48.12.17.17.16.17-.05 0-.06-.03-.11-.09-.17-.15.06-.2.2-.15.42s0 .37-.15.46c-.06-.12-.09-.29-.09-.52-.15.03-.31.13-.48.31-.17 0-.28-.05-.33-.15-.04-.1-.12-.15-.24-.15-.06-.12-.09-.27-.09-.46s0-.39.02-.61c.01-.22.02-.43.02-.65s-.01-.42-.04-.59c.09-.55.17-1.17.26-1.85.09-.68.2-1.27.35-1.77.03.03.06.05.09.05Z" style="fill:#fb0742"></path><path d="M277.19 134.1c-.06.03-.06.05-.02.06.05.01.05.05.02.11-.23-.03-.39-.12-.48-.28-.09-.16-.2-.3-.35-.42-.03-.38-.1-.67-.22-.87 0-.06.03-.09.09-.09a.122.122 0 0 0-.09-.04c-.03 0-.06-.01-.09-.04-.06-.58-.12-1.07-.2-1.46-.07-.39-.1-.9-.07-1.51 0-.03.03-.07.09-.13-.03-.49.01-.96.13-1.4.11-.44.2-.86.26-1.26.12-.18.21-.39.26-.66s.09-.51.09-.74h.04c.09-.47.21-.88.37-1.24s.31-.72.46-1.07c0-.06-.02-.09-.06-.09s-.05-.04-.02-.13c.17-.35.32-.7.44-1.05.11-.35.25-.69.39-1.01-.17-.03-.3-.05-.37-.06-.07-.01-.2 0-.37.02-.15-.09-.35-.11-.61-.07-.26.05-.47.07-.61.07-.32.03-.63-.03-.92-.17s-.6-.28-.92-.39c0-.06 0-.09.02-.11.02-.01.02-.05.02-.11a.353.353 0 0 0-.18-.11c-.06-.01-.1-.05-.13-.11.06-.17.03-.29-.09-.35s-.2-.16-.26-.31c-.06 0-.1.01-.13.04s-.07.03-.13 0c.06-.15.03-.22-.09-.24s-.22-.04-.31-.07c-.06-.06-.07-.1-.02-.13.04-.03.06-.06.06-.09-.09-.06-.17-.06-.24 0-.07.06-.18.09-.33.09.03-.06.07-.09.11-.11.04-.02.08-.05.11-.11-.09-.09-.17-.12-.26-.09-.06-.23-.06-.39 0-.48.15 0 .22.01.22.04.06-.09.08-.16.06-.22s-.02-.15-.02-.26c.15.09.31.15.5.17.19.03.33-.06.42-.26.15.09.26.09.33.02.07-.07.18-.11.33-.11.06 0 .09-.01.09-.04s.01-.07.04-.13c.32-.06.6-.11.83-.15.23-.04.49-.12.78-.24.23 0 .44-.02.61-.06s.35-.1.52-.17c.17-.07.35-.13.53-.17.17-.05.38-.05.61-.02.23-.26.47-.4.72-.41.25-.01.52-.07.81-.15.2-.44.39-.9.57-1.37.17-.48.38-.92.61-1.33-.03-.06-.03-.11 0-.15.03-.04.04-.1.04-.15.23-.32.42-.66.57-1.03.15-.36.33-.72.56-1.07.06-.09.1-.18.13-.28s.07-.21.13-.33c.06-.09.13-.17.22-.24.09-.07.16-.18.22-.33.09-.15.16-.31.22-.5s.13-.36.22-.5c0-.03.01-.04.04-.02s.04.01.04-.02c.03-.03.04-.06.02-.09s-.01-.07.02-.13.07-.11.13-.15c.06-.04.1-.11.13-.2.06-.09.1-.18.11-.26.01-.09.05-.17.11-.26.06-.12.15-.26.26-.44.06-.15.11-.29.15-.44.04-.15.11-.25.2-.31.03-.2.09-.36.17-.46.09-.1.15-.25.17-.46.09-.09.17-.2.26-.35s.17-.29.26-.44c.17-.44.39-.87.65-1.31.12-.2.21-.42.28-.65.07-.23.18-.44.33-.61-.03-.12-.03-.2 0-.26s.07-.11.13-.17v-.26c.2-.23.44-.39.7-.48l.24-.24c.07-.07.18-.14.33-.2.03.12.03.18 0 .2s-.06.05-.09.11c.09.06.15.1.2.11s.12 0 .24-.02c.06-.09.12-.15.2-.2.07-.05.12-.11.15-.2.06 0 .12.04.17.11.06.07.06.14 0 .2.06.06.1.07.11.02.01-.05.05-.07.11-.07s.1.03.11.09c.01.06.05.09.11.09.15 0 .26-.03.33-.09s.17-.09.28-.09a.772.772 0 0 1-.06-.15c-.02-.04 0-.09.06-.15.23.06.44.18.63.37s.4.28.63.28c.12.21.26.37.44.48.17.11.35.23.53.35 0 .35.11.6.35.74-.03.23-.02.4.02.5.04.1.02.23-.06.37.03.06.05.11.06.17.01.06.02.13.02.22-.15.44-.29.89-.44 1.35s-.36.86-.65 1.18c0 .23-.04.44-.13.61-.09.17-.2.33-.33.48s-.26.31-.37.48c-.12.17-.19.38-.22.61-.17.32-.38.66-.61 1.01.03.2-.02.36-.15.48s-.21.29-.24.53c-.03 0-.04 0-.04.02s-.03.02-.09.02c-.26.61-.58 1.17-.94 1.66s-.66 1.05-.89 1.66c-.06.06-.11.12-.15.17-.05.06-.08.16-.11.31.38.06.72.07 1.03.04s.57-.07.81-.13c.15-.03.29-.04.44-.02s.29.02.44.02c.67-.06 1.45-.1 2.33-.13.89-.03 1.8-.04 2.73-.04.03.03.04.07.02.13-.01.06 0 .12.07.17.06 0 .1-.03.13-.09s.07-.06.13 0c.06.23.02.4-.11.5s-.26.21-.37.33c.17.06.29.1.35.13 0 .06.02.09.05.09s.03.03 0 .09c-.06.06-.1.07-.13.04-.03-.03-.07-.04-.13-.04-.09.29-.26.46-.52.5-.26.05-.51.11-.74.2.03-.06-.02-.09-.13-.09-.09 0-.15.04-.17.13-.03.09-.1.13-.22.13 0 .09 0 .14-.02.15s0 .04.07.06c.06-.03.11-.07.15-.13.04-.06.11-.09.2-.09 0 .09-.02.13-.07.13-.04 0-.06.03-.06.09s.03.08.09.07c.06-.01.11-.02.17-.02-.03.06-.05.11-.07.15-.01.04-.04.08-.06.11-.17.09-.34.16-.5.22-.16.06-.3.16-.42.31-.21.06-.39.1-.57.13s-.33.09-.48.17c-.15-.06-.3-.02-.46.11-.16.13-.34.23-.55.28-.06 0-.11 0-.15-.02-.04-.01-.09 0-.15.02-.26.06-.54.15-.85.28s-.62.18-.94.15c-.03 0-.04.01-.02.05.01.03 0 .06-.02.09-.67-.03-1.32.05-1.96.24-.64.19-1.26.36-1.88.5-.15.32-.29.59-.44.81-.15.22-.25.49-.31.81-.12.2-.23.41-.33.63-.1.22-.18.43-.24.63-.12.26-.26.51-.42.74s-.27.54-.33.92a3.6 3.6 0 0 0-.7 1.31c-.15.49-.32.97-.53 1.44-.03.23-.09.51-.17.83s-.19.61-.31.87c-.12.53-.26 1.05-.44 1.59s-.29 1.05-.35 1.55c-.06.26-.1.5-.13.72-.03.22-.07.44-.13.67 0 .09-.04.15-.13.17-.03.06-.02.09.02.09.05 0 .07.03.07.09-.38.49-.67 1.04-.87 1.66-.03.03-.09.04-.17.04-.06.06-.07.11-.04.17.03.06.01.13-.05.22-.11 0-.19-.04-.22-.13a.537.537 0 0 0-.13-.22c-.09.17-.06.29.09.35-.12.03-.21.03-.26 0 0 .06.01.11.04.15.03.05.01.08-.04.11-.09 0-.13-.05-.13-.15v-.28c-.06.12-.1.19-.13.22-.12 0-.15-.09-.09-.26-.15 0-.22.03-.22.09a.821.821 0 0 1-.22-.33c-.03-.1-.07-.24-.13-.41l-.04-.05s-.05.01-.05.05c-.03-.06-.05-.1-.06-.13s-.04-.07-.07-.13Zm-3.49-15.41c-.09 0-.13.05-.13.13.09 0 .13-.04.13-.13Zm.78.87c0-.06-.06-.12-.18-.17 0 .06.06.12.18.17Zm1.27.96c0-.06-.03-.09-.09-.11-.06-.01-.1 0-.13.06.03.03.07.05.13.06.06.02.09.01.09-.02Z" style="fill:#fb0742"></path><path d="M302.98 109.78c.06.06.1.05.13-.02s.09-.09.17-.06c0 .03-.01.07-.04.13.06 0 .1-.01.13-.05.03-.03.07-.06.13-.09.06.06.06.1 0 .13s-.06.07 0 .13c0 .06-.04.09-.11.09s-.08.03-.02.09c.06.03.11 0 .17-.09.06-.09.12-.11.17-.09 0 .11-.01.2-.04.26.17-.06.29-.16.35-.31s.16-.22.31-.22c.03.06.06.11.09.15.03.04.07.1.13.15.03-.03.08-.04.15-.04s.15-.01.24-.05c.12.06.2.05.24-.04.04-.09.11-.13.2-.13.06.03.04.12-.04.26.06.03.11.02.15-.02.04-.04.08-.1.11-.15.09.15.22.27.39.37.17.1.33.23.48.37.03 0 .04-.02.02-.07-.01-.04 0-.06.07-.06.06.23.11.36.17.39.09.32.19.58.31.79.12.2.17.43.17.7-.03.12-.05.23-.06.35-.02.11-.04.2-.07.26-.09.35-.16.67-.22.96-.06.29-.04.56.04.83.12.38.16.77.13 1.18-.06 0-.09 0-.09.02s-.01.02-.04.02c0 .38-.06.73-.2 1.05s-.27.64-.42.96c-.15.38-.26.75-.33 1.12-.07.36-.2.72-.37 1.07 0 .06 0 .09-.02.09s0 .03.02.09c-.09.06-.13.15-.13.28s-.05.22-.13.28c-.06 0-.12-.03-.17-.09-.23.06-.41.19-.53.39-.12.2-.29.33-.52.39.03-.09.02-.11-.02-.06-.05.04-.07.04-.07-.02-.06-.03-.09-.02-.09.02s-.01.06-.04.06c-.12 0-.17-.06-.17-.17-.06.06-.09.07-.09.02 0-.04-.03-.04-.09.02-.06.03-.08.02-.07-.04.02-.06 0-.1-.06-.13-.15.06-.27.03-.37-.09a.463.463 0 0 0-.37-.17c-.12-.15-.28-.23-.48-.26s-.37-.13-.48-.31c-.06-.15-.12-.26-.2-.33-.07-.07-.14-.15-.2-.24-.03-.23-.09-.38-.17-.44-.09-.06-.13-.17-.13-.35-.15-.09-.24-.18-.28-.28l-.15-.37c.06-.09.07-.21.05-.35-.03-.15-.07-.25-.13-.31.09-.17.11-.35.09-.52-.2.06-.4.12-.59.2-.19.07-.4.14-.63.2-.44.32-.87.61-1.31.87-.44.26-.82.6-1.14 1.01-.03 0-.04 0-.04-.02s-.01-.02-.04-.02c-.29.32-.56.64-.81.94-.25.31-.52.59-.81.85.03.09.03.15 0 .17.49.38 1.24.61 2.23.7.06.03.12.04.2.02.07-.01.15-.02.24-.02.12.03.27.06.46.11.19.04.39.06.59.06.29.03.59.05.9.07s.6.05.9.11c.32.06.66.11 1.03.15l1.07.15c.06 0 .1-.02.13-.06s.06-.07.09-.07l.18.09c.06.03.11.04.17.04.15.06.31.07.48.05s.33-.07.48-.13c.49-.06.81.03.96.26.21-.03.41-.03.61 0l.61.09c.06.03.12.03.2 0 .07-.03.14-.03.2 0 .09.03.16.08.22.15.06.07.14.12.26.15.03.03.06.04.09.02s.04 0 .04.02c.23.12.43.22.59.31.16.09.31.19.46.31.06.18.15.28.26.33.11.04.19.12.22.24 0 .03 0 .02.02-.02s.04-.04.07.02c-.12.26-.1.61.04 1.05.03.06.07.12.13.17v.17c0 .09.03.15.09.17-.03.23-.08.44-.15.61-.07.17-.13.36-.2.56-.09 0-.16.01-.22.05-.06.03-.15.04-.26.04-.2.26-.45.45-.74.57-.29.11-.55.29-.78.52-.35.12-.58.2-.7.26-.78.26-1.56.54-2.33.83s-1.58.54-2.42.74c-.06 0-.08.03-.06.09.01.06-.01.09-.07.09-.09 0-.13-.03-.13-.09a5.1 5.1 0 0 1-1.29.48c-.42.09-.87.22-1.33.39-.03 0-.04.03-.04.09-.99.26-1.95.6-2.88 1.01-.32.12-.6.23-.85.35s-.53.17-.85.17c0 .03 0 .05-.02.07s-.02.05-.02.11c-.15 0-.25-.01-.31-.04-.32.06-.62.12-.9.2a6.2 6.2 0 0 0-.76.24c-.09.03-.17.06-.26.11-.09.04-.17.09-.26.15-.23.06-.46.08-.68.06a.818.818 0 0 0-.59.2c-.32-.03-.64 0-.96.07-.32.07-.68.09-1.09.06 0-.15.03-.24.09-.28.06-.04.09-.09.09-.15.06.06.13.08.22.07.09-.01.15-.05.18-.11.06-.06.07-.11.04-.15s-.04-.1-.04-.15c-.09 0-.19 0-.31.02-.12.01-.21.05-.26.11-.06.03-.12.08-.17.15-.06.07-.13.09-.22.06 0-.06.02-.12.07-.2.04-.07.09-.14.15-.2h-.05v-.09c-.06.03-.1.03-.13 0s-.06-.01-.09.04c-.06-.03-.07-.06-.04-.11.03-.05.03-.08 0-.11-.09.03-.12.06-.09.11.03.04.04.09.04.15-.15.06-.23.05-.26-.02s-.07-.08-.13-.02c-.06-.11-.04-.22.06-.33.1-.1.11-.21.02-.33-.06.03-.11.06-.15.09-.04.03-.09.03-.15 0a.672.672 0 0 1 .02-.37c.05-.13.04-.25-.02-.37.06-.06.12-.12.17-.2.06-.07.12-.11.18-.11-.03-.2.02-.33.15-.39s.18-.16.15-.31c.15-.06.25-.11.33-.15.07-.04.18-.05.33-.02.44-.23.84-.39 1.22-.48.38-.09.77-.23 1.18-.44-.03-.09-.06-.1-.09-.04-.03.06-.06.07-.09.04.47-.32.99-.58 1.57-.78s1.09-.47 1.53-.78c.06.03.1.03.11 0s.04-.01.06.04c.26-.15.55-.26.85-.35.31-.09.54-.25.72-.48.06 0 .12-.02.2-.06.07-.04.14-.06.2-.06.38-.26.79-.5 1.24-.7s.88-.44 1.29-.7c-.06-.06-.12-.09-.17-.09-.03 0-.06 0-.09.02s-.06.02-.09.02c-.12-.06-.26-.08-.42-.06s-.31.02-.46.02c-.15-.03-.3-.07-.46-.11s-.31-.09-.46-.15c-.15-.06-.28-.08-.42-.06s-.27 0-.42-.07c-.15-.11-.32-.19-.52-.22-.21-.03-.38-.07-.53-.13-.2-.35-.47-.58-.81-.7a1.16 1.16 0 0 1-.72-.7c-.44-.15-.7-.39-.81-.74-.1-.35-.26-.69-.46-1.01-.06 0-.07.04-.04.11.03.07.01.12-.05.15-.11-.23-.15-.54-.09-.92s.1-.69.13-.92c.06-.15.09-.28.09-.42s.06-.26.17-.37c-.15-.15-.25-.23-.31-.26-.03-.15-.01-.25.05-.31.06-.06.15-.13.26-.22.15-.2.25-.47.31-.78.21-.15.37-.33.48-.54.11-.22.25-.42.39-.59 0 .03.01.04.04.04.29-.23.59-.48.9-.74s.6-.52.9-.78c.21-.06.39-.17.57-.35.32-.23.61-.49.87-.76s.55-.5.87-.68c.03-.06.08-.09.15-.11.07-.01.11-.08.11-.2.29-.06.56-.19.81-.39.25-.21.56-.35.94-.44.03 0 .09-.07.17-.22.41-.06.81-.2 1.2-.42.39-.22.79-.25 1.2-.11.03-.15.04-.26.02-.33-.01-.07-.02-.2-.02-.37.06-.06.11-.06.17 0 .12-.17.26-.33.42-.46s.28-.33.37-.59c.12 0 .19-.04.22-.13s.09-.16.17-.22l-.09.09Zm-15.27 22.57c.03-.09.02-.13-.04-.13s-.09.03-.09.09c.03.03.07.04.13.04Zm3.31-2.66c-.12 0-.17.06-.17.17.12 0 .17-.06.17-.17Z" style="fill:#fb0742"></path></svg>