<svg version="1.1" id="Layer_1" xmlns="http://www.w3.org/2000/svg" xmlns:xlink="http://www.w3.org/1999/xlink" x="0px" y="0px"
	 width="100%" viewBox="0 0 679 119" enable-background="new 0 0 679 119" xml:space="preserve">
<path fill="#000000" opacity="1.000000" stroke="none" 
	d="
M503.000000,120.000000 
	C336.833344,120.000000 171.166656,119.985237 5.500062,120.093849 
	C1.750669,120.096313 0.885289,119.251686 0.901773,115.499565 
	C1.064314,78.500282 1.044642,41.499844 0.915873,4.500293 
	C0.905489,1.516634 1.518338,0.918138 4.500032,0.919312 
	C228.500000,1.007537 452.500000,1.007537 676.499939,0.919312 
	C679.481689,0.918138 680.094360,1.516657 680.084106,4.500289 
	C679.955688,41.833179 679.955750,79.166817 680.084106,116.499710 
	C680.094360,119.483345 679.482544,120.088539 676.499817,120.082764 
	C618.833374,119.971062 561.166687,120.000000 503.000000,120.000000 
z"/>
<path fill="#ED1A46" opacity="1.000000" stroke="none" 
	d="
M266.992004,63.061234 
	C269.692932,58.552845 272.327911,54.417397 274.937164,50.265820 
	C276.096283,48.421562 277.232849,45.543194 279.682312,46.749718 
	C281.870087,47.827335 283.150177,50.487629 281.309570,53.343338 
	C280.938293,53.919350 281.182434,54.892014 281.082520,56.885414 
	C284.337189,53.705143 288.953186,52.689384 285.103577,47.316181 
	C284.147522,45.981758 286.377686,44.115677 287.972656,42.990139 
	C294.208923,38.589317 301.250854,35.895168 308.530609,34.103939 
	C315.829651,32.307961 321.291931,28.441561 325.254303,22.220680 
	C328.076630,17.789682 331.346802,13.708629 334.575806,9.573985 
	C336.157745,7.548337 337.491302,6.073425 339.656830,7.498389 
	C341.940887,9.001340 343.447235,11.423244 341.842804,14.367024 
	C340.671875,16.515432 339.192291,18.493261 337.929749,20.594856 
	C337.012207,22.122240 336.224487,23.727608 335.077759,25.857569 
	C340.299072,26.251215 344.821991,25.031883 349.345001,24.240387 
	C353.897797,23.443672 356.418579,25.419449 356.043091,29.672813 
	C355.896027,31.338835 355.407898,31.930033 353.707916,32.047771 
	C346.849426,32.522774 340.652039,36.044720 333.610626,36.132900 
	C326.555023,36.221260 324.288483,42.498089 321.334045,47.397568 
	C318.053589,52.837708 314.982605,58.406822 312.777985,64.442070 
	C311.657288,67.510216 313.974274,71.243080 310.657013,73.776436 
	C306.282196,77.117401 305.425598,82.274986 303.920563,87.103371 
	C301.395111,95.205399 302.396423,97.118256 310.452118,98.997826 
	C311.690735,99.286819 312.889740,99.691002 312.792297,101.030258 
	C312.692535,102.401825 311.505676,103.561020 310.256500,103.783043 
	C307.128876,104.338951 304.042358,104.298531 301.407532,101.924530 
	C297.298584,98.222336 294.939636,93.762344 295.009216,88.160950 
	C295.031250,86.387001 295.034729,85.150490 292.527618,84.921013 
	C284.780640,84.211906 281.287354,78.594788 283.397736,71.046471 
	C283.922333,69.170006 285.729736,67.431007 284.299255,64.683594 
	C277.588684,71.907295 271.080902,78.912704 264.155121,86.368057 
	C260.585236,80.243225 257.549164,79.241280 252.687698,82.490898 
	C248.406021,85.352928 243.366165,87.030701 237.897614,87.086876 
	C234.118118,87.125710 231.063828,86.183876 228.736465,83.223663 
	C226.847626,80.821220 225.321121,80.757904 222.548050,82.583725 
	C216.553497,86.530602 211.315720,86.232918 207.734772,81.200127 
	C205.423660,77.952003 205.666672,74.482483 206.561996,70.825439 
	C207.006805,69.008560 208.721237,67.372925 207.596985,65.214905 
	C205.521484,64.950134 204.801422,66.785477 203.695831,67.863167 
	C198.684601,72.747940 193.790512,77.752708 188.797836,82.656853 
	C188.044312,83.397026 186.754593,85.180641 186.295105,84.446060 
	C183.394394,79.808701 180.581558,83.920959 178.129074,84.573341 
	C167.968384,87.276169 162.238174,83.790314 159.511780,75.154106 
	C159.056641,73.712387 159.343384,72.765144 159.766800,71.454247 
	C162.305344,63.594563 166.961685,57.297123 173.331284,52.153297 
	C175.214371,50.632591 177.339569,50.022495 178.875427,52.046165 
	C180.242081,53.846878 183.356781,55.124142 180.057693,58.789528 
	C175.183090,64.205360 171.005798,70.392548 168.503067,77.459358 
	C175.901810,78.597778 183.125000,74.998489 186.656326,68.851814 
	C190.232758,62.626648 194.147415,56.596565 197.857559,50.447033 
	C199.020187,48.519997 200.262527,45.565239 202.570282,46.605705 
	C205.033661,47.716328 206.192108,50.618580 204.157761,53.588776 
	C203.855240,54.030472 204.115692,54.857754 204.115692,56.250492 
	C207.789871,53.708645 211.026138,51.490955 214.237808,49.238190 
	C215.662292,48.239014 217.201294,46.357838 218.864136,47.594707 
	C221.004288,49.186600 223.505814,50.864956 223.054337,54.389004 
	C222.712875,57.054413 221.679260,59.411808 220.623520,61.782639 
	C218.170044,67.292244 215.628143,72.762474 213.055161,78.395164 
	C220.679337,77.597740 221.884262,75.954628 224.106842,69.309601 
	C227.862732,58.080322 235.465439,49.784676 246.468140,45.373058 
	C252.651367,42.893852 261.030182,47.455215 260.138672,55.445915 
	C259.327545,62.716095 251.039993,72.355659 243.791153,72.964127 
	C242.318481,73.087738 240.720047,73.121750 239.343079,72.683441 
	C236.488785,71.774879 233.253601,73.638290 233.172165,76.635544 
	C233.118286,78.618561 234.562897,79.254799 236.203201,78.876472 
	C242.231705,77.486015 248.265762,75.969574 253.590607,72.689575 
	C257.057251,70.554192 260.116333,67.771194 264.273621,66.862495 
	C265.955353,66.494904 265.903992,64.483025 266.992004,63.061234 
z"/>
<path fill="#ED1A46" opacity="1.000000" stroke="none" 
	d="
M510.306763,72.307617 
	C513.981201,70.491699 517.189270,68.512970 520.346130,66.625992 
	C524.295471,64.265305 525.462830,59.219559 528.125977,55.532288 
	C529.848816,53.146870 531.454224,50.675259 533.216003,48.319798 
	C534.460876,46.655468 536.103882,45.263119 538.300232,46.185909 
	C540.265991,47.011860 541.314514,48.692547 541.022705,51.010242 
	C540.926208,51.776279 541.094055,52.575600 541.147095,53.460758 
	C543.321045,53.019211 544.003357,50.993301 545.591736,50.135109 
	C547.716492,48.987129 550.095276,46.585354 552.223633,48.380177 
	C554.246460,50.086056 556.814209,52.269978 556.042175,55.862019 
	C555.635864,57.752068 556.303528,59.742748 555.203003,61.663998 
	C554.462952,62.955948 555.314392,64.321320 556.723511,64.859215 
	C558.029480,65.357742 558.590088,64.468628 559.339050,63.384792 
	C563.635681,57.167301 567.995056,50.990055 575.023743,47.400013 
	C581.516052,44.083920 585.910522,43.059071 591.399902,49.852703 
	C594.008545,53.081120 593.292236,59.091423 589.715698,63.839264 
	C586.591675,67.986389 582.844788,71.180832 577.807495,72.615906 
	C575.743591,73.203888 573.590576,73.552368 571.604370,72.171844 
	C569.230957,70.522141 567.924683,71.535446 567.043152,73.935242 
	C565.323914,78.615211 565.424316,78.409134 570.582031,78.106392 
	C579.752014,77.568146 586.820374,72.425537 594.046875,67.796410 
	C596.299927,66.353180 597.208130,62.957825 599.096497,60.770870 
	C605.028625,53.900757 611.940002,48.599068 621.487366,48.003162 
	C621.819275,47.982445 622.212891,47.885502 622.478333,48.020088 
	C628.716370,51.182739 630.173279,46.703377 632.389648,42.347218 
	C636.624634,34.023834 641.509460,26.053112 648.147522,19.323790 
	C649.995483,17.450434 651.727051,15.789571 654.484375,17.973156 
	C657.107056,20.050150 657.597412,22.285007 655.966919,25.283897 
	C650.413025,35.498966 643.269226,44.690796 637.205139,54.544102 
	C629.870300,66.462204 623.313477,78.901199 619.617981,92.607414 
	C619.121704,94.447929 619.106995,96.169365 619.051392,97.963898 
	C619.024719,98.822693 620.297119,99.998901 618.758972,100.420952 
	C618.022583,100.622993 616.913757,100.074562 616.176819,99.569572 
	C611.118103,96.103096 613.060669,90.967484 613.380798,86.390144 
	C613.566528,83.734993 614.775696,81.151436 615.639526,78.132980 
	C611.425720,78.075768 609.617676,81.882401 606.547241,83.376289 
	C599.430420,86.838890 597.608521,87.275558 592.476746,81.655014 
	C590.675354,79.682060 590.043518,80.084770 588.203430,81.176117 
	C582.546631,84.531044 576.666138,87.318466 569.772705,87.032341 
	C563.700317,86.780289 556.287720,79.801712 556.012634,73.754272 
	C555.923218,71.788933 555.735657,70.356422 553.892517,68.709778 
	C551.367249,66.453773 548.455627,63.751225 549.001038,58.997391 
	C540.900208,65.409157 535.538086,73.715736 528.364685,80.232437 
	C526.329407,82.081390 524.544006,84.217491 522.434448,85.969589 
	C519.810913,88.148491 517.187317,86.817726 515.148438,82.322128 
	C514.765198,81.477142 514.899780,80.397293 514.788879,79.364548 
	C508.506104,83.143761 502.427856,86.731834 494.851776,87.086494 
	C484.740906,87.559799 475.841400,75.039474 481.882599,65.228470 
	C486.266510,58.108871 491.460022,51.819626 498.484467,47.267212 
	C504.734497,43.216686 509.800171,44.197224 515.114319,49.513885 
	C516.916199,51.316692 517.418396,53.242561 516.929077,55.338589 
	C515.064026,63.328815 510.489044,69.066055 502.676819,72.164345 
	C500.013794,73.220474 497.551819,73.515091 495.170227,72.003815 
	C493.017914,70.638054 491.990814,71.424118 491.221039,73.448761 
	C490.644440,74.965347 489.292908,76.498161 490.187347,78.099342 
	C491.462402,80.381889 493.081055,78.123459 494.519989,77.976562 
	C500.096985,77.407249 505.345581,75.776840 510.306763,72.307617 
z"/>
<path fill="#ED1A46" opacity="1.000000" stroke="none" 
	d="
M127.395828,55.533485 
	C130.481506,53.555614 134.436813,52.029392 130.405502,47.301479 
	C129.802368,46.594131 132.667953,43.376762 134.671082,42.130924 
	C141.491470,37.889030 149.005127,35.029724 156.712143,33.145885 
	C162.442734,31.745144 166.292847,28.704548 169.446808,24.074709 
	C172.660431,19.357264 175.953751,14.679922 179.487717,10.202504 
	C180.744614,8.610086 182.064255,5.642848 185.006927,7.613680 
	C187.726151,9.434842 189.079559,11.876143 186.977356,15.161679 
	C184.887390,18.428076 182.919968,21.772881 180.298111,26.067160 
	C185.858459,25.473879 190.484421,25.205034 195.024261,24.431017 
	C199.335022,23.696053 202.181168,25.734001 201.973938,29.969692 
	C201.935181,30.762047 202.065262,31.625900 200.942169,31.921267 
	C194.470276,33.623322 191.496292,39.141129 188.072739,44.046513 
	C186.817383,45.845207 184.818924,48.065739 187.678894,50.433552 
	C188.240921,50.898865 188.301743,52.170502 187.486847,52.621773 
	C186.290588,53.284241 184.906021,53.322823 183.815689,52.258949 
	C181.357712,49.860626 179.844940,46.754776 180.390137,43.511848 
	C180.677139,41.804607 180.427139,39.833889 181.359970,38.255672 
	C182.600708,36.156487 181.226089,35.766220 179.795624,36.079861 
	C176.354233,36.834415 173.119247,37.506622 170.836731,41.113831 
	C166.111816,48.580959 162.217010,56.445076 158.269791,64.305466 
	C157.588867,65.661453 157.521088,66.935280 157.915344,68.445869 
	C158.395950,70.287277 157.756088,71.866486 156.253204,73.314392 
	C150.979004,78.395622 149.872681,85.135803 148.935623,92.012894 
	C148.273087,96.875076 150.743134,98.540985 154.882309,98.969627 
	C156.501205,99.137283 158.821472,98.768097 158.713943,100.958656 
	C158.610275,103.070679 156.655899,103.937164 154.362549,104.045547 
	C148.237015,104.335022 141.051712,97.629913 141.089020,90.948486 
	C141.110992,87.017235 141.120865,84.573563 135.808014,84.782646 
	C130.989273,84.972282 127.556496,76.770775 129.246414,70.467552 
	C129.695938,68.790878 130.385376,67.178528 130.963943,65.538704 
	C128.955399,64.576996 128.376434,66.201042 127.562454,66.998978 
	C122.450874,72.009773 117.425049,77.107910 112.337746,82.143700 
	C111.035896,83.432358 109.312164,85.990646 107.744759,83.729164 
	C106.404205,81.794983 102.456619,80.458412 104.639427,76.809921 
	C110.496223,67.020477 116.345543,57.226509 122.234329,47.456341 
	C122.724403,46.643250 123.550034,45.505310 124.571251,46.333221 
	C126.043671,47.526928 128.136612,48.497437 127.907997,50.907246 
	C127.803154,52.012505 127.306740,53.080616 126.951912,54.547440 
	C126.448997,55.405144 126.905678,54.639435 126.612091,55.237972 
	C126.535576,55.393944 126.697380,55.440254 127.395828,55.533485 
z"/>
<path fill="#ED1A46" opacity="1.000000" stroke="none" 
	d="
M437.233551,77.497849 
	C441.659912,64.393127 448.457367,53.152500 457.368683,43.167835 
	C458.659424,41.721653 460.009888,39.808598 462.296661,41.825500 
	C464.366119,43.650734 466.078674,45.383675 464.148315,48.563568 
	C460.003815,55.390827 456.298859,62.487011 452.086670,69.269882 
	C450.670380,71.550552 450.097687,74.067856 448.903229,76.368065 
	C448.487518,77.168640 447.365875,78.091049 448.751892,78.823563 
	C449.643707,79.294891 450.641266,78.908997 451.423828,78.064888 
	C456.371002,72.728600 461.375305,67.445000 466.289429,62.078709 
	C466.771606,61.552143 466.983124,60.577496 466.961639,59.821026 
	C466.755585,52.566673 470.889557,47.198196 474.802673,41.768909 
	C476.694733,39.143734 479.806091,39.136417 481.877838,40.684113 
	C484.598572,42.716640 488.126251,44.820721 486.818115,49.500107 
	C485.501312,54.210377 482.632812,58.043713 479.633118,61.590153 
	C471.985260,70.631989 464.883026,80.225143 455.193329,87.368874 
	C451.910248,89.789314 448.153687,92.661858 444.487274,90.527939 
	C440.101654,87.975418 435.854492,84.232826 437.233551,77.497849 
z"/>
<path fill="#ED1A46" opacity="1.000000" stroke="none" 
	d="
M69.671280,48.812469 
	C71.991692,49.368683 73.039612,48.018818 74.458939,47.167393 
	C85.061607,40.807102 97.140648,39.475288 104.447983,50.968006 
	C107.729965,56.129784 107.156364,61.725990 105.404816,66.965797 
	C101.628860,78.261688 93.563210,85.490517 82.202835,88.856789 
	C77.555717,90.233795 71.505592,84.810959 70.942177,79.461662 
	C70.718315,77.336174 72.259079,74.849739 69.457619,73.098679 
	C67.192390,71.219467 68.393509,69.799667 70.051346,68.154953 
	C72.082733,65.731728 73.800644,63.527241 75.133820,61.065392 
	C76.444534,58.645023 78.150597,56.482059 79.788948,53.919708 
	C75.278465,56.007904 71.094101,59.120998 66.297874,54.531685 
	C65.785820,51.551952 66.022606,49.271378 69.671280,48.812469 
z"/>
<path fill="#ED1A46" opacity="1.000000" stroke="none" 
	d="
M403.671997,48.812088 
	C408.196747,48.233616 411.221924,45.283436 415.044098,43.850750 
	C424.309479,40.377735 434.118805,42.985306 438.726624,51.673534 
	C442.214264,58.249699 440.843964,65.470985 437.526550,71.659485 
	C433.095306,79.925781 426.161377,85.825859 416.923370,88.568970 
	C411.772736,90.098389 405.350006,85.343895 404.945496,79.943001 
	C404.774017,77.653580 406.121674,75.062065 403.460144,73.099533 
	C401.193481,71.223984 402.388916,69.804329 404.044922,68.162689 
	C407.760498,63.913094 410.140381,59.219784 413.480652,54.077995 
	C408.761597,56.262798 404.632843,59.005623 400.278839,54.516090 
	C399.795441,51.545425 400.024597,49.259293 403.671997,48.812088 
z"/>
<path fill="#ED1A46" opacity="1.000000" stroke="none" 
	d="
M341.979553,67.861252 
	C340.580475,72.210945 338.900635,69.577263 337.855194,68.218124 
	C336.377167,66.296646 335.295776,64.074554 334.748199,61.606903 
	C334.598236,60.931110 334.176300,59.199802 333.277130,59.628235 
	C330.641113,60.884212 329.444977,63.625080 328.138245,66.035881 
	C327.473755,67.261871 327.056458,68.814667 328.719574,70.354553 
	C332.359467,73.724815 336.597748,77.769859 334.672882,82.980453 
	C332.742554,88.205963 326.337036,87.999992 321.765411,89.871254 
	C320.481293,90.396873 318.789093,90.076881 317.305573,89.929161 
	C315.009949,89.700584 314.731537,87.564949 314.125275,85.974686 
	C313.426514,84.141739 315.313080,83.850243 316.358551,83.317505 
	C318.671906,82.138687 321.030029,80.983711 323.484680,80.161972 
	C326.717987,79.079567 327.116028,77.480301 325.005829,74.948936 
	C324.275970,74.073418 323.659088,73.099075 323.034302,72.141350 
	C315.219666,60.162361 321.330719,46.959061 335.669403,45.070160 
	C337.278839,44.858143 338.029572,44.251553 338.517609,42.955387 
	C339.436249,40.515831 341.532532,39.058826 343.229126,37.278969 
	C344.970642,35.451981 347.374054,35.250065 349.008026,36.763786 
	C350.743195,38.371265 351.875275,40.570755 350.194336,43.368004 
	C346.938080,48.786743 343.172455,53.902225 341.696960,60.352867 
	C341.094299,62.987614 341.180298,65.108231 341.979553,67.861252 
z"/>
<path fill="#ED1A46" opacity="1.000000" stroke="none" 
	d="
M406.299927,68.525673 
	C404.751190,69.802010 403.628998,70.846283 403.121918,72.793137 
	C396.819153,80.530266 388.223816,84.149117 379.611603,87.706688 
	C376.054810,89.175949 374.729767,85.868362 372.682526,84.178757 
	C370.999908,82.790092 369.777679,81.063004 369.122070,78.595016 
	C371.823700,71.745522 375.163818,65.609123 378.140167,58.958939 
	C378.100220,58.428616 378.075378,58.246250 378.109131,57.794090 
	C379.952271,58.192108 380.264587,56.676479 380.901123,55.314415 
	C382.733246,50.259922 387.283936,47.924847 390.583344,44.093422 
	C394.139282,42.304245 397.285675,42.418869 400.712555,44.743965 
	C402.367950,45.821449 403.680023,46.634811 404.058746,48.627739 
	C402.228821,50.287048 401.979980,52.249523 402.040527,54.721931 
	C404.189667,59.976688 401.471252,64.126976 395.149658,64.979752 
	C392.931610,64.447906 392.556824,63.023781 392.236023,61.460941 
	C392.010437,61.503529 391.693115,61.757919 391.512878,61.918816 
	C388.045685,66.539581 385.346191,71.347183 383.072449,76.585831 
	C383.733032,77.538536 384.392548,78.349525 385.221619,77.900093 
	C390.849884,74.849197 398.104950,73.839073 400.479584,65.950592 
	C403.472778,64.651604 405.637268,64.821350 406.299927,68.525673 
z"/>
<path fill="#ED1A46" opacity="1.000000" stroke="none" 
	d="
M72.299820,68.524986 
	C70.751198,69.802002 69.628952,70.846222 69.121918,72.793137 
	C62.819149,80.530258 54.223820,84.149117 45.611591,87.706673 
	C42.054787,89.175934 40.729805,85.868324 38.682541,84.178741 
	C36.999905,82.790085 35.777721,81.062958 35.122055,78.595001 
	C37.847866,71.758873 41.447617,65.749779 44.154526,58.971504 
	C44.099239,58.431221 44.074764,58.248291 44.108994,57.794823 
	C45.927902,58.155987 46.279713,56.698921 46.901093,55.314423 
	C48.126205,51.013721 51.882225,49.196606 54.583237,46.093498 
	C58.032200,44.875198 60.747379,42.538956 64.717743,42.831161 
	C66.961273,44.525772 69.071182,45.859303 70.057770,48.614861 
	C68.228897,50.287025 67.979866,52.249386 68.040596,54.721802 
	C70.463554,59.524250 67.616982,64.161263 61.047958,65.775345 
	C57.881733,64.949692 59.129341,62.039158 57.828346,60.509392 
	C57.812710,60.491001 57.555904,60.641930 57.446186,60.749146 
	C57.330887,60.861813 57.257164,61.017025 56.999550,61.432899 
	C54.786861,66.817856 51.298069,71.156906 49.249878,76.490494 
	C50.023232,78.164139 51.116238,78.246620 52.257618,77.579536 
	C57.482819,74.525642 64.331718,73.439713 66.473404,65.954636 
	C69.465881,64.651917 71.631210,64.820930 72.299820,68.524986 
z"/>
<path fill="#ED1A46" opacity="1.000000" stroke="none" 
	d="
M43.856857,58.799194 
	C44.847988,59.335949 45.624454,60.287209 45.055794,61.200848 
	C41.703232,66.587234 40.097271,72.939484 35.505402,78.012512 
	C35.711452,70.807632 40.180443,65.128059 43.856857,58.799194 
z"/>
<path fill="#ED1A46" opacity="1.000000" stroke="none" 
	d="
M377.857117,58.790993 
	C378.703613,59.212772 379.451874,59.985558 379.014191,60.742069 
	C375.774536,66.341339 373.825714,72.633987 369.501221,78.015991 
	C369.740997,70.817062 373.799438,64.952850 377.857117,58.790993 
z"/>
<path fill="#ED1A46" opacity="1.000000" stroke="none" 
	d="
M64.950951,42.629883 
	C62.115810,44.400391 59.246578,46.239182 55.293156,45.959572 
	C57.699322,43.416256 59.974060,39.412388 64.950951,42.629883 
z"/>
<path fill="#ED1A46" opacity="1.000000" stroke="none" 
	d="
M400.964355,44.642845 
	C397.998077,44.629333 394.881744,44.301182 391.325439,43.965324 
	C394.346161,40.032322 397.634094,40.736450 400.964355,44.642845 
z"/>
<path fill="#ED1A46" opacity="1.000000" stroke="none" 
	d="
M380.592285,55.084846 
	C381.595856,55.346149 382.325073,55.861469 381.829620,56.734589 
	C381.195862,57.851311 380.000031,57.713539 378.535370,57.580856 
	C378.879059,56.752769 379.590424,55.981243 380.592285,55.084846 
z"/>
<path fill="#ED1A46" opacity="1.000000" stroke="none" 
	d="
M46.592262,55.084846 
	C47.595890,55.346146 48.325066,55.861538 47.829617,56.734615 
	C47.195889,57.851368 46.000004,57.713535 44.535366,57.580845 
	C44.879059,56.752758 45.590420,55.981236 46.592262,55.084846 
z"/>
<path fill="#000000" opacity="1.000000" stroke="none" 
	d="
M305.258240,55.384659 
	C303.241547,60.762840 301.108307,65.719482 299.687744,70.872581 
	C298.348022,75.732315 295.546265,78.243439 290.525085,78.707527 
	C291.900482,71.670494 295.751282,65.745384 298.463562,59.404030 
	C300.523773,54.587296 300.673889,50.959263 295.865723,47.460430 
	C301.043121,45.566998 305.564331,43.326271 311.451080,42.979111 
	C309.210388,47.487968 307.331665,51.268448 305.258240,55.384659 
z"/>
<path fill="#000000" opacity="1.000000" stroke="none" 
	d="
M244.991257,63.997719 
	C243.843842,64.518509 242.930679,65.623154 242.201538,64.358757 
	C241.836517,63.725773 240.691986,62.776257 241.772415,61.801174 
	C244.427750,59.404747 246.366165,56.210499 249.777771,54.645718 
	C250.365295,54.376244 250.949432,53.813675 251.516296,54.318031 
	C252.195969,54.922745 252.201950,55.891739 251.707703,56.573071 
	C249.800262,59.202515 248.125641,62.048706 244.991257,63.997719 
z"/>
<path fill="#000000" opacity="1.000000" stroke="none" 
	d="
M623.775757,54.094078 
	C624.768555,54.185410 626.126221,53.782108 625.174255,55.231213 
	C622.649536,59.074200 607.881348,71.906715 602.663879,74.850395 
	C603.179565,68.566109 613.893494,57.882465 623.775757,54.094078 
z"/>
<path fill="#000000" opacity="1.000000" stroke="none" 
	d="
M578.055054,63.988480 
	C576.808105,64.734215 575.908264,65.409233 574.875244,66.184120 
	C574.799622,60.607265 578.825256,55.888302 584.863220,54.383358 
	C583.972229,58.528324 581.500916,61.429493 578.055054,63.988480 
z"/>
<path fill="#000000" opacity="1.000000" stroke="none" 
	d="
M502.274231,58.225819 
	C504.185120,55.937832 506.402283,54.659805 509.186279,53.114487 
	C508.100311,58.499557 505.098450,61.819798 501.052124,64.426682 
	C500.281372,64.923218 499.483917,65.294304 499.118958,64.191856 
	C498.861481,63.414055 497.731659,62.637039 498.878754,61.620682 
	C499.987244,60.638561 500.979614,59.525433 502.274231,58.225819 
z"/>
<path fill="#000000" opacity="1.000000" stroke="none" 
	d="
M150.035156,57.178604 
	C148.511490,61.689892 146.713058,65.729607 145.623688,69.952248 
	C144.358841,74.855011 141.884399,78.044739 136.290909,78.370644 
	C137.181473,72.918549 140.679550,68.325378 142.482147,63.094288 
	C143.378418,60.493362 144.887100,58.095951 145.701263,55.476707 
	C146.319443,53.488079 146.643326,51.317223 144.059952,49.914745 
	C142.958649,49.316853 140.832306,47.761967 143.851166,46.689560 
	C147.924225,45.242676 151.877625,43.272686 156.987701,42.915741 
	C154.516357,47.874359 152.295135,52.331135 150.035156,57.178604 
z"/>
<path fill="#000000" opacity="1.000000" stroke="none" 
	d="
M127.491669,55.494877 
	C127.234329,56.009808 127.045044,56.919415 126.278961,56.453442 
	C126.114670,56.353519 126.340759,55.611778 126.651466,55.047501 
	C127.044189,55.054653 127.172455,55.180004 127.491669,55.494877 
z"/>
<path fill="#000000" opacity="1.000000" stroke="none" 
	d="
M72.473732,68.959671 
	C71.453682,65.964760 70.012672,65.007133 67.170822,67.514328 
	C62.155628,73.842484 55.453640,76.604767 48.454082,78.833633 
	C47.459991,79.150185 46.502277,78.770775 45.852669,77.419952 
	C48.753216,71.881905 51.042633,66.394386 54.897530,61.426022 
	C57.823166,59.055725 58.552734,61.408535 59.770538,63.519890 
	C65.344528,63.853722 66.286293,59.461510 68.024231,55.480827 
	C74.779182,55.129848 79.830368,49.949677 86.471878,49.109722 
	C80.993484,55.216740 77.664825,62.601784 72.473732,68.959671 
z"/>
<path fill="#000000" opacity="1.000000" stroke="none" 
	d="
M90.716370,57.681587 
	C94.403618,51.860260 94.403618,51.860260 92.405724,48.378769 
	C98.911469,48.843060 100.327927,51.304237 99.164726,57.822506 
	C97.119247,69.284912 89.407272,75.390106 78.594955,80.748276 
	C81.943054,71.896782 86.440567,65.051895 90.716370,57.681587 
z"/>
<path fill="#000000" opacity="1.000000" stroke="none" 
	d="
M379.395996,78.260262 
	C382.552643,71.481087 385.714539,64.835655 390.896210,59.582027 
	C392.709412,60.473488 392.908936,62.137711 393.666901,63.507469 
	C398.973846,63.994160 400.227875,59.650375 402.013275,55.477280 
	C407.815857,54.973045 412.309326,51.467804 417.310059,49.299461 
	C418.130066,48.943897 418.998474,48.822483 419.631012,49.416523 
	C420.174622,49.927021 419.845795,50.643955 419.332428,51.122665 
	C413.902924,56.185665 411.553894,63.404812 406.473572,68.959648 
	C405.453613,65.964516 404.012482,65.007294 401.170807,67.514336 
	C395.221100,74.147438 388.338287,78.123558 379.395996,78.260262 
z"/>
<path fill="#000000" opacity="1.000000" stroke="none" 
	d="
M427.554260,48.784939 
	C433.065155,49.863777 433.862976,51.443363 433.343018,56.383186 
	C432.044800,68.717163 423.708649,74.938469 412.821899,79.457886 
	C415.184357,74.837906 417.634216,70.260033 419.885895,65.586670 
	C422.379913,60.410210 427.127014,56.391453 427.534119,49.972542 
	C427.223114,49.339760 427.130402,48.996861 427.554260,48.784939 
z"/>
<path fill="#000000" opacity="1.000000" stroke="none" 
	d="
M427.505188,49.491722 
	C426.990265,49.234386 426.080658,49.045166 426.546570,48.279018 
	C426.646454,48.114746 427.388214,48.340771 427.952515,48.651474 
	C427.945374,49.044212 427.820007,49.172485 427.505188,49.491722 
z"/>
<path fill="#ED1A46" opacity="1.000000" stroke="none" 
	d="
M379.055725,78.220505 
	C386.166901,77.446999 391.450012,72.843552 397.482117,69.974625 
	C398.484436,69.497917 399.375824,68.787918 400.637634,68.036026 
	C400.776184,68.850777 400.941376,70.208153 400.361267,70.718719 
	C394.723663,75.680443 388.587585,79.708366 380.706329,79.872955 
	C379.889771,79.889999 379.051849,79.583984 379.055725,78.220505 
z"/>
<path fill="#ED1A46" opacity="1.000000" stroke="none" 
	d="
M393.608459,63.392960 
	C392.514740,62.859772 391.090424,62.246616 391.107422,60.245995 
	C391.170929,59.898926 391.078461,59.990139 391.034424,60.037849 
	C391.400726,59.641529 391.516418,59.115894 391.231110,58.323586 
	C391.356537,57.181606 391.564178,56.191830 392.014069,55.328281 
	C392.555725,54.288757 393.348938,53.253136 394.730042,53.865845 
	C396.022583,54.439243 396.054108,55.782379 395.764557,56.880123 
	C395.220184,58.943600 394.426697,60.941360 393.608459,63.392960 
z"/>
<path fill="#000000" opacity="1.000000" stroke="none" 
	d="
M390.861511,58.497097 
	C392.213776,58.407570 392.050659,59.091034 391.273315,59.978569 
	C390.302887,59.832901 390.197357,59.431278 390.861511,58.497097 
z"/>
<path fill="#ED1A46" opacity="1.000000" stroke="none" 
	d="
M45.595047,77.163147 
	C49.749649,79.265312 52.457108,75.769310 55.455860,74.613098 
	C59.327339,73.120377 62.719887,70.385490 66.637749,68.035934 
	C66.839615,68.700104 66.926201,69.618332 66.571480,70.310341 
	C64.569992,74.214966 51.648899,80.602516 47.221622,79.909119 
	C45.829136,79.691025 43.787136,79.760559 45.595047,77.163147 
z"/>
<path fill="#ED1A46" opacity="1.000000" stroke="none" 
	d="
M60.021160,63.450466 
	C58.100281,63.621735 57.696308,61.115513 55.376183,61.075012 
	C55.006794,58.606236 56.575962,56.878567 58.005436,55.097118 
	C58.723831,54.201832 59.534248,53.178886 60.852367,53.918087 
	C62.034096,54.580799 62.031410,55.869099 61.773064,56.979073 
	C61.295300,59.031715 60.629211,61.040527 60.021160,63.450466 
z"/>
</svg>