<svg xmlns="http://www.w3.org/2000/svg" viewBox="153.03 96.98 135.28 41.76"><path d="M167.74 114.08c.23.06.48.06.75.02s.5-.05.74-.02c.09 0 .16-.06.2-.17s.08-.22.11-.31c.09 0 .16-.03.2-.09.04-.06.05-.1.02-.13.14-.17.29-.38.43-.63.15-.25.29-.44.44-.59.14-.06.3-.11.45-.15.16-.04.31-.09.46-.15.06 0 .09.02.09.07 0 .04.01.06.04.06.09-.23.21-.31.37-.22s.3.09.42 0c.09.15.22.22.41.24s.36.05.5.11c.09-.03.15-.07.19-.13.05-.06.16-.06.33 0l.15.15c.04.04.11.07.2.07.06.06.07.09.04.11s-.03.05 0 .11c.06.06.12.11.19.15.08.04.16.06.24.06.06.12.16.22.31.31s.29.18.44.26c.06.21.11.39.17.57s.11.38.13.61c.03.09.07.13.13.13-.06.06-.09.12-.09.17s-.04.12-.13.17c.03.15.01.33-.04.55-.06.22-.09.38-.09.5-.11.15-.2.31-.24.5-.04.19-.09.34-.15.46-.15.55-.33 1.09-.55 1.59s-.4 1.01-.55 1.51c-.11.15-.17.3-.17.46s-.09.31-.26.46c.03.03.02.07-.02.13-.05.06-.1.09-.16.09-.11.35-.28.66-.5.94-.21.28-.43.55-.63.81h-.04s-.01.04-.04.04c0 .09-.02.15-.06.2-.04.05-.08.1-.11.15a.581.581 0 0 0-.38-.04c-.1.03-.22.03-.37 0-.21.03-.38.02-.55-.02-.16-.04-.31-.1-.45-.15a.436.436 0 0 0-.31-.28.458.458 0 0 1-.31-.28c-.03 0-.08-.01-.13-.04s-.09-.03-.09 0c-.09-.2-.22-.39-.39-.55-.18-.16-.29-.36-.35-.59-.21-.06-.31-.2-.31-.43l.06-.18c.01-.03.02-.11.02-.26-.15.06-.27.12-.37.2a.68.68 0 0 1-.38.11c-.11.11-.28.2-.48.26a94.5 94.5 0 0 1-2.77 1.81c-.94.6-1.81 1.29-2.6 2.07-.03.03-.06.04-.09.04-.15.15-.31.3-.48.46-.17.16-.36.31-.57.46-.06.12-.12.24-.19.37-.08.13-.18.22-.33.28-.26.47-.56.89-.9 1.26-.33.38-.62.77-.85 1.18 0 .06.06.08.17.06.12-.01.19-.06.22-.15.15.06.31.08.48.07.17-.01.31-.05.39-.11.32-.03.65-.06 1-.11.36-.04.67-.11.97-.2.4 0 .8-.07 1.17-.2.38-.13.76-.24 1.14-.33.03 0 .05-.01.06-.04s.05-.03.11 0c.64-.15 1.28-.32 1.92-.52s1.25-.42 1.83-.66c.21.03.37.01.5-.06.13-.07.27-.1.41-.06.06-.06.1-.09.13-.09s.06-.03.09-.09c.14.03.28.02.39-.02.11-.04.22-.09.31-.15.32-.15.65-.27 1-.37.36-.1.69-.24 1.01-.42.2-.06.41-.11.63-.15s.43-.09.63-.15l.18-.17s.07 0 .13.02.13 0 .22-.02c.14-.06.31-.12.48-.2.18-.07.31-.02.4.15.11-.09.23-.15.35-.18.11-.03.24-.09.39-.17.06.17.16.3.28.37.13.07.2.2.2.37-.21.09-.39.17-.55.24-.16.07-.37.14-.63.2 0 .06 0 .1-.02.13s0 .07.02.13c.26.06.45.01.59-.13.13-.15.3-.17.5-.09-.11.09-.23.15-.35.18-.11.03-.25.09-.39.17-.03.06-.04.09-.02.09s0 .03-.02.09c-.06 0-.11 0-.13.02s-.07.02-.13.02c0 .06-.01.1-.04.11s-.04.05-.04.11c-.23.06-.43.16-.57.31-.15.15-.33.26-.57.35-.15.03-.28.05-.39.06a.47.47 0 0 0-.31.2c-.5.09-.9.22-1.23.39-.32.17-.65.35-1 .53.03.03.05.03.06 0s.05-.03.11 0c0 .06-.02.08-.06.06-.05-.01-.09 0-.11.07.15.06.27.04.37-.05.11-.09.23-.13.38-.13.03.21-.06.32-.24.35-.19.03-.3.09-.33.17-.09 0-.18.03-.26.09-.09.06-.18.07-.26.05-.06.06-.12.1-.2.13-.07.03-.12.06-.15.09-.18.12-.33.23-.48.35-.14.12-.29.21-.43.26-.06.06-.13.1-.2.11s-.12.06-.15.15c-.23.09-.47.2-.7.35-.23.15-.45.26-.65.35-.52.23-1 .45-1.44.66-.32.26-.67.47-1.04.61s-.76.31-1.14.48c-.06.03-.09.06-.11.09-.01.03-.05.07-.11.13-.36.03-.69.12-1.01.26s-.68.25-1.09.31c-.12.03-.22.03-.31 0a.387.387 0 0 0-.26 0c-.26 0-.56.04-.9.11-.33.07-.63.14-.9.2-.09 0-.18 0-.26-.02s-.16-.06-.22-.15c-.23-.03-.45-.04-.67-.04s-.4-.06-.55-.17c-.29.11-.52.09-.7-.09-.18-.17-.39-.28-.65-.31 0-.06-.01-.1-.04-.11-.03-.01-.05-.05-.05-.11-.41.06-.7-.05-.87-.31-.17-.26-.39-.47-.65-.61-.26-.41-.5-.85-.7-1.31-.2-.47-.31-.97-.31-1.53-.06-.12-.09-.19-.09-.22.12-.26.13-.55.04-.87s-.03-.58.17-.79c-.09-.06-.13-.14-.13-.26.12-.23.23-.46.35-.68.12-.22.23-.47.35-.76h.09c.03-.11.07-.16.13-.13-.03-.09-.03-.15 0-.17s.03-.07 0-.13c.15-.15.25-.28.31-.41.06-.13.16-.28.3-.46.06-.06.12-.1.2-.13.07-.03.12-.07.15-.13.15-.17.3-.36.46-.55.16-.19.31-.36.45-.5.03-.06.05-.1.05-.13s.03-.07.09-.13c.06-.03.11-.06.17-.11.06-.04.12-.08.18-.11.09-.17.23-.37.44-.57.23-.23.49-.46.76-.67.28-.22.55-.44.81-.68v-.13c.23-.15.45-.29.67-.44s.43-.32.63-.52c.06-.03.11-.07.17-.11.06-.04.12-.08.18-.11.58-.52 1.21-.97 1.9-1.33.69-.37 1.34-.79 1.95-1.29.29-.09.53-.24.72-.46.19-.22.41-.38.67-.5 0-.06 0-.09.02-.09s.04-.03.07-.09v-.05c.06 0 .11-.01.15-.04s.09-.04.16-.04c.32-.2.67-.36 1.07-.46s.7-.3.94-.59Z" style="fill:#fb0742"></path><path d="M173.59 121.42c.06-.06.15-.15.26-.28.11-.13.22-.27.33-.41.1-.15.2-.27.28-.37.09-.1.15-.15.17-.15.35-.49.71-.95 1.09-1.37.38-.42.73-.88 1.05-1.37.44-.32.77-.75 1.01-1.29.23-.54.47-.92.7-1.16 0-.06-.02-.1-.06-.11-.05-.01-.08-.04-.11-.06.06-.15.1-.26.13-.33s.12-.11.26-.11h.09c.32-.44.74-.68 1.27-.74a5.21 5.21 0 0 0 1.48-.39c.03 0 .07.06.13.18.44 0 .9.08 1.37.24s.88.36 1.2.59h.04c.06 0 .07-.03.05-.09-.03-.06-.01-.09.04-.09.15.15.41.3.78.46.38.16.63.24.74.24h.31c.06 0 .24.07.55.22s.52.28.63.39c.09 0 .13-.02.13-.05.06.21.23.31.52.31.09 0 .15-.01.17-.04 0 .12.12.3.37.55s.52.49.81.74c.29.25.69.55 1.18.9.55.5 1.03 1.05 1.42 1.66.39.61.59 1.3.59 2.05 0 .12-.01.22-.04.33s-.04.2-.04.28v.35c0 .76-.17 1.41-.5 1.94-.33.54-.72 1.01-1.15 1.42-.06.21-.17.34-.33.39-.16.06-.27.17-.33.35l-.04-.04c-.09 0-.28.14-.59.42s-.62.56-.94.87-.6.59-.83.85c-.23.26-.32.37-.26.31-.12.17-.31.37-.57.57s-.56.41-.9.61-.68.4-1.05.59c-.36.19-.72.34-1.07.46-.64.32-1.29.69-1.94 1.11-.65.42-1.21.63-1.68.63-.12 0-.2-.01-.26-.04-.03.06-.07.1-.11.13s-.08.07-.11.13c-.06-.03-.1-.05-.11-.07s-.05-.02-.11-.02c-.55.2-1.17.31-1.83.31-.41 0-.79-.04-1.14-.13-.35-.09-.63-.23-.83-.44h-.18c-.29 0-.54-.08-.76-.24-.22-.16-.41-.34-.59-.55-.18-.2-.36-.41-.55-.63-.19-.22-.4-.4-.63-.55-.15-.32-.26-.59-.33-.81-.07-.22-.23-.49-.46-.81v-.17c0-.15-.01-.3-.05-.46-.03-.16-.04-.31-.04-.46.06-.12.1-.21.13-.28.03-.07.04-.18.04-.33v-1.18c0-.15 0-.3-.02-.46s-.02-.31-.02-.46c0-.26.03-.47.09-.61v-.17c0-.5.14-1.01.42-1.55l.76-1.46c0-.03 0-.05-.02-.07a.107.107 0 0 1-.02-.06v-.09Zm5.77 5.19c.35-.15.67-.28.98-.42s.59-.33.85-.59l.09.04c.14 0 .25-.06.33-.2.07-.13.18-.2.33-.2h.09c.06-.12.26-.29.59-.53.33-.23.7-.48 1.09-.74.39-.26.77-.52 1.13-.78s.62-.48.76-.65c.03-.03.12-.1.28-.22.16-.11.33-.26.5-.44.17-.17.33-.38.48-.61.15-.23.22-.49.22-.78 0-.26-.08-.49-.24-.7-.16-.21-.35-.39-.56-.57-.22-.17-.44-.34-.68-.5s-.41-.33-.52-.5c-.55.58-1.1 1.18-1.64 1.79-.54.61-1.19 1.37-1.94 2.27-.55.67-1.07 1.34-1.55 2.01-.48.67-.88 1.32-1.2 1.96h.13c.15 0 .23.05.26.13.03.09.1.16.22.22ZM214.8 111.9c.06.06.1.06.13 0s.07-.07.13-.04c.06 0 .09.02.11.07.01.04 0 .08-.02.11.06 0 .1 0 .13-.02s.07 0 .13.02c0 .15-.03.24-.09.28-.06.05-.12.1-.17.15.03.06.05.05.07-.02.01-.07.05-.08.11-.02.03.06.02.11-.02.15s-.11.05-.2.02c-.06.06-.1.1-.11.13s-.06.06-.15.09c-.23.55-.59.99-1.07 1.33-.48.34-.87.76-1.16 1.29-.03-.06-.05-.07-.06-.02-.01.04-.05.06-.11.06-.29.44-.6.84-.94 1.2-.33.37-.67.75-1.03 1.16-.12.15-.23.27-.35.37s-.22.24-.31.42c-.12.06-.2.15-.26.26-.06.11-.16.2-.31.26-.15.15-.28.31-.39.48-.12.18-.28.32-.48.44-.35.32-.67.66-.98 1.03-.31.37-.63.71-.98 1.03-.03.09-.06.13-.09.13s-.01.03.04.09c-.06-.03-.1-.02-.13.02-.03.05-.07.08-.13.11-.11.23-.27.42-.46.57-.19.15-.33.33-.41.57-.23.15-.42.33-.55.56-.13.23-.33.42-.59.57-.32.5-.67.98-1.07 1.44-.39.47-.78.92-1.15 1.35v.17c-.76.67-1.45 1.4-2.07 2.2-.63.8-1.21 1.64-1.77 2.51-.23.15-.38.34-.46.59a.99.99 0 0 1-.46.59c0 .06-.02.09-.06.11-.05.01-.07.05-.07.11-.15.06-.31.06-.48 0s-.29 0-.35.17c-.06.06-.15.03-.26-.09-.06.06-.1.09-.13.09a3.7 3.7 0 0 0-.37-.2.47.47 0 0 0-.46.02.912.912 0 0 0-.24-.24.303.303 0 0 0-.33-.02c-.15-.17-.31-.31-.48-.39-.17-.09-.29-.25-.35-.48-.18.03-.28-.03-.31-.18-.03-.14-.07-.26-.13-.35-.06-.03-.09-.02-.09.02 0 .05-.03.07-.09.07-.09-.21-.2-.29-.35-.26 0-.06 0-.09.02-.09s.02-.01.02-.04c-.2-.06-.35-.2-.43-.42-.09-.22-.21-.41-.35-.59h.13c0-.06-.02-.09-.06-.09-.05 0-.08-.03-.11-.09v-.17c.09-.06.12-.15.11-.26-.02-.11-.05-.2-.11-.26a15 15 0 0 1 .13-1.33c.06-.39.1-.79.13-1.2.03-.06.03-.12 0-.2a.604.604 0 0 1-.05-.24c.03-.06.06-.1.09-.13s.04-.07.04-.13c.03-.14.05-.32.05-.52s.03-.41.09-.61c.06-.29.06-.53 0-.7.15-.67.27-1.4.37-2.18.1-.78.22-1.57.37-2.36.06-.23.1-.47.13-.7.03-.23.07-.47.13-.7.06-.11.09-.19.09-.22v-.26c.03-.23.08-.46.15-.67.07-.22.14-.44.2-.68 0-.06-.02-.12-.05-.17s0-.12.09-.17c0-.06 0-.1-.02-.11s-.02-.05-.02-.11c.09-.06.13-.11.13-.15v-.24c.14-.03.26-.15.35-.35.03 0 .06 0 .11-.02.04-.01.08 0 .11.02.03-.06.03-.09 0-.09s-.03-.03 0-.09c.09.06.18.07.28.02.1-.04.2-.04.28.02a.55.55 0 0 1 .09-.07c.03-.01.07-.05.13-.11.15.12.32.18.53.18s.35.07.44.22c.11-.06.19-.09.22-.09.06.06.13.11.22.15.09.05.17.1.26.15.53.03.93.21 1.22.55s.58.66.87.98c-.06.06-.06.15 0 .26.06.12.1.23.13.35 0 .09-.02.2-.06.35a.54.54 0 0 0-.02.35c0 .06.01.1.04.11s.04.04.04.06c-.06.12-.12.23-.17.33-.06.1-.12.23-.17.37 0 .52-.04.94-.11 1.26s-.17.71-.28 1.18c.12.12.15.23.09.35.15 0 .25-.1.31-.31.06-.2.19-.27.39-.22.38-.32.71-.65 1.01-1.01.29-.35.64-.65 1.05-.92.03-.06.04-.09.04-.11 0-.01.01-.05.04-.11.26-.15.47-.37.61-.66.14-.29.38-.51.7-.65.03-.12.15-.22.35-.31v-.09c.23-.18.47-.35.7-.53s.42-.39.57-.65c.15-.09.28-.17.42-.24.13-.07.22-.21.28-.42.12 0 .18-.06.18-.17.11 0 .17.02.17.05.06-.06.08-.12.06-.2-.01-.07.02-.09.11-.06.09.06.1.16.04.31s-.13.25-.22.31c.17.12.32.11.44-.02.11-.13.25-.23.39-.28-.09 0-.13-.06-.13-.17.09-.26.25-.44.48-.55.23-.1.42-.27.57-.5.03 0 .04 0 .02.02s0 .02.07.02c.32-.15.61-.33.87-.55.26-.22.52-.43.78-.63v-.13c.15.06.29-.02.44-.24.15-.22.29-.37.44-.46.03-.03.09-.04.17-.04.15-.06.26-.15.35-.26s.2-.19.35-.22c.15-.26.35-.43.61-.52.26-.09.48-.25.66-.48.15.06.25.02.31-.11s.17-.17.35-.11c-.06.12-.13.2-.22.24-.09.04-.16.11-.22.2.15.03.29 0 .44-.09.15-.09.26-.19.35-.31.03 0 .05.03.05.09.11-.06.19-.09.22-.09.03-.06.03-.1 0-.13s-.03-.06 0-.09c.15-.03.24-.05.28-.06s.09-.05.15-.11c0 .09.04.12.11.11.07-.01.13.02.2.11-.15.03-.24.09-.28.18-.04.09-.09.18-.13.28-.04.1-.1.2-.15.28-.06.09-.15.13-.26.13.03.15.03.26 0 .33s-.06.14-.09.2c.23-.03.44-.12.61-.28s.39-.27.65-.33c.03-.06.02-.1-.02-.11s-.06-.05-.06-.11c.06-.03.11-.04.17-.02.06.01.11 0 .17-.02.03.06.02.09-.02.09-.05 0-.05.03-.02.09.11-.06.21-.12.28-.17.07-.06.17-.1.28-.13l.13.13c-.06.06-.13.09-.22.09Zm-16.42 10.91v-.17c-.09 0-.13.05-.13.13 0 .03.01.04.04.04h.09Z" style="fill:#fb0742"></path><path d="M226.49 122.46s-.05-.04-.06-.04c-.02 0-.04-.01-.07-.04.12.17.28.19.5.04.22-.15.41-.22.59-.22 0 .06-.01.1-.04.11s-.04.04-.04.07c.06.09.11.1.15.04s.09-.06.15 0c.03.09 0 .15-.07.17-.07.03-.11.01-.11-.04-.06.03-.09.06-.09.11s-.03.07-.09.07c.03.12.03.23 0 .35.11 0 .23-.01.35-.04-.03.12-.04.26-.04.44-.15.09-.26.18-.33.28-.07.1-.18.21-.33.33-.06.03-.09.02-.09-.02 0-.05-.03-.07-.09-.07v.17c-.15-.03-.22 0-.24.07-.02.07-.05.15-.11.24.09 0 .15-.02.17-.06s.09-.09.17-.15c0 .06.03.1.09.11.06.01.09.05.09.11-.09 0-.15.02-.17.05s-.09.04-.17.04c0 .03 0 .05-.02.06-.01.02-.02.05-.02.11-.09-.03-.13 0-.13.07s-.01.14-.05.2c-.23 0-.41.06-.54.17s-.3.16-.5.13c-.06.12-.15.17-.28.17s-.23.07-.28.22c-.06.03-.1.03-.11 0-.01-.03-.04-.04-.06-.04-.09.15-.21.23-.35.26s-.26.09-.35.17h.04c-.06.17-.15.31-.26.39-.12.09-.22.09-.31 0-.06.12-.14.21-.24.28-.1.07-.18.15-.24.24.06.03.14 0 .24-.09.1-.09.18-.07.24.04-.15.15-.32.26-.53.35-.2.09-.41.16-.61.22 0 .11.01.15.04.11.03-.04.05-.04.05.02-.06.06-.12.1-.17.11-.06.01-.09.1-.09.24-.29-.06-.42.06-.39.35-.06.03-.1 0-.13-.09-.41.32-.85.6-1.33.83s-.94.49-1.37.78c-.32 0-.61.16-.87.48-.44.15-.85.33-1.24.55-.39.22-.78.44-1.16.67 0 .06.01.07.04.05s.06-.05.09-.05c-.32.26-.68.47-1.07.61-.39.15-.75.35-1.07.61-.38.03-.73.12-1.05.26s-.64.25-.96.31c-.06.03-.14.04-.24.02s-.21 0-.33.02c-.23.06-.56.07-.98.05-.42-.03-.78-.07-1.07-.13-.06-.03-.12-.07-.2-.11-.07-.04-.15-.1-.24-.15-.03 0-.06.01-.11.04s-.08.01-.11-.04a.459.459 0 0 1-.17-.17.71.71 0 0 0-.26-.22c-.15-.09-.29-.18-.44-.28s-.29-.18-.44-.24c0-.06-.01-.09-.04-.11-.03-.01-.04-.05-.04-.11-.09 0-.13-.01-.13-.05-.03-.06-.04-.1-.02-.13.01-.03.02-.06.02-.09-.06-.03-.08-.02-.07.02s0 .05-.02.02a6.21 6.21 0 0 1-.61-1.03 4.23 4.23 0 0 0-.61-.94c-.06-.44-.2-.77-.44-1-.03 0-.02.02.02.06.04.04.04.07-.02.07-.29-.44-.43-1.01-.41-1.73.01-.71.14-1.36.37-1.94.09-.11.16-.25.22-.39.06-.15.16-.25.31-.31.32-.82.72-1.51 1.22-2.07.49-.57.97-1.11 1.44-1.64.09-.11.18-.22.28-.31.1-.09.21-.2.33-.35.09-.12.22-.25.39-.39.15-.15.3-.29.46-.44.16-.14.33-.29.5-.43.29-.23.53-.47.72-.72.19-.25.43-.44.72-.59 0-.06 0-.09.02-.09.01 0 .02-.03.02-.09.2-.09.38-.2.54-.33.16-.13.31-.31.46-.55.23.03.4-.04.5-.22.1-.18.22-.31.37-.39.12-.06.23-.1.33-.13s.2-.09.28-.17c.12-.12.22-.2.31-.26.44-.29.87-.56 1.31-.81s.9-.49 1.4-.72c.32-.15.65-.32 1.01-.52.35-.21.72-.37 1.13-.48.09 0 .13-.03.13-.09.06.03.12.02.2-.02.07-.04.14-.08.2-.11.23-.09.47-.17.72-.24.25-.07.49-.14.72-.2.23 0 .5 0 .81.02.31.02.57.1.81.24.03.09.03.13 0 .13h-.09c.12.09.25.17.39.26.15.09.25.23.31.43.06.06.15.12.26.18.09.26.2.4.35.43-.06.03-.07.05-.04.07.03.01.04.04.04.06.12.09.19.18.22.28.03.1.07.23.13.37a1 1 0 0 0 .22.35 1 1 0 0 1 .22.35c.06.09.09.18.09.28s.03.18.09.24c0 .15-.01.25-.04.31.12.06.18.14.2.24.01.1 0 .21-.02.31-.03.1-.05.21-.06.33-.02.12 0 .23.06.35 0 .06-.02.11-.06.15-.05.04-.05.11-.02.2-.23.23-.44.5-.61.81-.18.31-.37.58-.57.81-.06.03-.1.06-.11.09-.01.03-.05.06-.11.09-.11.15-.22.28-.33.39-.1.12-.22.23-.37.35-.06.06-.12.1-.2.13-.07.03-.14.1-.2.22-.06.06-.13.12-.22.2-.09.07-.16.14-.22.2-.15.06-.31.12-.5.2-.19.07-.33.18-.42.33-.47.26-.92.54-1.35.83s-.9.55-1.4.78c-.15.06-.28.09-.39.11-.11.01-.22.08-.31.2-.15 0-.27.05-.39.15s-.26.17-.44.2c-.09 0-.15.04-.17.13l-.13-.04c-.29.2-.59.36-.9.46s-.62.2-.94.28c-.12.03-.17.01-.17-.05-.15.03-.26.07-.33.13s-.18.07-.33.04c-.06.06-.11.1-.17.13-.23 0-.45.03-.65.09s-.42.06-.65 0c-.06 0-.09.01-.09.04s-.03.06-.09.09c-.15-.06-.29-.09-.43-.09s-.25-.07-.31-.22c-.06 0-.12 0-.18.02-.06.01-.13 0-.22-.07-.23.23-.47.48-.7.74-.23.26-.44.57-.61.92-.03 0-.04 0-.04-.02s-.01-.02-.04-.02c-.03.12-.08.2-.15.24-.07.04-.11.17-.11.37-.17.09-.28.25-.31.48-.03.23-.12.42-.26.57.32 0 .66-.04 1.03-.13.36-.09.71-.15 1.03-.17.06-.03.09-.06.09-.11 0-.04.03-.08.09-.11.2.03.36 0 .48-.07s.26-.11.44-.11c.03 0 .07-.06.13-.17.15.03.32 0 .52-.09.21-.09.38-.17.53-.26.32 0 .63-.08.94-.24.31-.16.62-.27.94-.33.15-.17.34-.26.59-.26s.42-.1.5-.31c.23-.06.45-.11.66-.15.2-.04.4-.13.61-.28.03 0 .04.01.04.04s.03.03.09 0v-.09c.17-.11.38-.19.61-.22.23-.03.42-.15.56-.35.41 0 .77-.1 1.09-.31h.04s.04 0 .04.02.01.02.04.02.05-.01.07-.04.05-.06.11-.09c.4-.12.81-.27 1.22-.46.4-.19.86-.42 1.35-.67.06.06.11.06.17.02.06-.05.13-.04.22.02.23-.15.47-.23.7-.26.23-.03.48-.09.74-.17.17-.06.35-.13.52-.22.17-.09.36-.13.57-.13.23 0 .45-.07.65-.22s.42-.25.66-.31c.11 0 .24 0 .37-.02s.24-.02.33-.02c0 .09-.04.13-.11.13s-.11.04-.11.13a.386.386 0 0 0-.44.11c-.12.13-.26.17-.44.11-.03.06-.06.09-.09.09s-.04.03-.04.09Zm-11.52-1.74c.09-.15.2-.17.35-.07.15.1.26.1.35-.02-.03.12-.03.17 0 .17s.06-.02.11-.06c.05-.04.09-.09.13-.13.05-.04.08-.06.11-.06.03-.03.06-.04.11-.02.04.02.08.02.11.02.18.03.31-.06.39-.26s.2-.29.35-.26c.12-.15.24-.22.37-.22s.24-.09.33-.26c.17 0 .39-.06.65-.17s.6-.35 1.01-.7c.06-.12.17-.33.35-.65s.31-.51.39-.57c-.06-.06-.14-.07-.24-.04s-.2.07-.31.13c-.1.06-.2.11-.31.15-.1.04-.17.05-.2.02-.06.06-.19.17-.39.33s-.33.24-.39.24c-.21.03-.37.14-.5.33s-.28.26-.46.2c-.06.12-.13.22-.22.31s-.19.1-.31.04l-.17.17c-.06.06-.15.09-.26.09-.03 0-.04.02-.02.06.01.05 0 .07-.02.07-.09-.03-.15 0-.2.06-.04.07-.09.11-.15.11 0-.03-.01-.04-.04-.04v.09c-.17.15-.36.27-.55.37-.19.1-.36.27-.5.5h-.09v.13c.06 0 .09-.01.11-.04s.05-.03.11 0Z" style="fill:#fb0742"></path><path d="M224.4 131.5s-.06 0-.09-.09-.05-.2-.05-.33v-.39c0-.13.02-.24.05-.33.06-.2.14-.35.24-.44.1-.09.18-.19.24-.31.03-.09.06-.2.09-.35.03-.15.02-.22-.04-.22.15-.23.28-.5.39-.79.12-.29.22-.48.31-.56.29-.61.58-1.36.85-2.25.28-.89.56-1.62.85-2.21.23-.47.45-.94.65-1.42.21-.48.38-.98.53-1.51.15-.06.25-.26.31-.61s.2-.61.44-.78c.32-1.1.68-2.15 1.09-3.12.41-.97.73-1.99.96-3.03.15 0 .25.05.31.13 0-.17.08-.28.24-.31s.28-.01.37.04c.12.12.1.18-.04.18 0 .06.04.08.11.06.07-.01.09.04.06.15.06-.03.12-.05.17-.06.06-.01.09-.07.09-.15.09.15.19.2.31.17s.2.04.26.22c.06-.03.06-.05.02-.06-.05-.01-.05-.05-.02-.11.17.06.36.16.54.31s.4.25.63.31c.21.32.33.63.39.94.06.31.19.58.39.81-.06.29-.12.59-.2.89-.07.31-.15.62-.24.94.03.11.06.1.11-.05.05-.15.08-.16.11-.04.17-.23.39-.43.65-.59.26-.16.54-.36.83-.59-.06-.11.01-.23.22-.35.21-.12.33-.23.39-.35.17-.23.35-.5.52-.81.18-.31.35-.57.53-.81l.39-.39c.12-.11.22-.23.31-.35.14-.12.27-.26.37-.42s.22-.24.37-.24c-.06-.15 0-.28.15-.39.16-.11.3-.22.42-.31.03.09.03.14 0 .15s-.04.08-.04.2c.03.06.08.05.15-.02s.11-.13.11-.2c.09.12.17.17.26.17s.12.12.09.35c.12.03.2.01.26-.05.06-.06.04-.03-.05.09.06 0 .12-.03.2-.09.07-.06.11-.01.11.13.06-.03.1-.03.13 0s.07.01.13-.04c.06.23.17.36.35.39.18.03.26.12.26.26.15-.03.23-.05.26-.06s.07 0 .13.06c-.03.12.01.23.13.33.11.1.09.14-.09.11.06.06.1.1.13.11s.01.05-.04.11c.03-.06.07-.08.13-.06.06.01.1 0 .13-.06.03.06.08.09.15.11.07.02.12.05.15.11-.06.29.06.47.35.52 0 .09-.05.17-.13.24-.09.07-.09.15 0 .24.03-.03.05-.07.06-.11s.04-.08.07-.11c.03 0 .04.12.02.37-.01.25-.07.44-.15.59.06 0 .09.05.11.15.01.1 0 .18-.06.24.06 0 .1-.01.13-.04 0 .15-.1.4-.28.76s-.31.67-.37.94c-.12.12-.23.3-.35.55-.12.25-.16.44-.13.59-.03 0-.04-.01-.04-.05-.17.35-.32.74-.44 1.16s-.29.79-.52 1.11c-.03.03-.05-.01-.05-.13-.09.03-.11.1-.06.2.04.1.08.15.11.15-.06.06-.08.15-.07.28.01.13-.04.17-.15.11.09.15.09.26 0 .33s-.1.17-.04.28c-.06-.06-.11-.06-.15 0-.04.06-.08.07-.11.05-.17.32-.23.71-.17 1.18-.12-.06-.19-.06-.22 0s-.09.06-.17 0c.06.12.06.18 0 .2-.06.01-.12 0-.18-.02 0 .03.01.04.05.04.03.09 0 .1-.07.04-.07-.06-.12-.04-.15.04v-.13a.52.52 0 0 1-.56-.07c-.18-.13-.28-.12-.31.02-.06-.11-.09-.31-.09-.57-.15.18-.24.21-.28.09s-.14-.15-.28-.09c-.06-.11-.12-.21-.17-.28l-.17-.2c0 .09-.04.13-.13.13-.09-.29-.18-.47-.28-.52-.1-.06-.22-.25-.37-.57-.29.2-.55.44-.78.72-.23.28-.51.52-.83.72v-.09c-.06.03-.06.06 0 .11.06.04.06.11 0 .2-.06 0-.12.04-.17.13-.06.09-.12.17-.17.24a.86.86 0 0 1-.2.18c-.07.04-.14.04-.2-.02-.03.03-.01.07.04.13-.26.32-.52.66-.78 1.03s-.51.65-.74.85c-.06 0-.07 0-.04.02s.04.05.04.11c-.32.41-.65.93-1 1.55-.35.63-.64 1.14-.87 1.55-.03 0-.07.08-.13.24s-.12.27-.17.33c-.06.03-.07.03-.04 0 .03-.03.01.03-.05.17-.09.15-.21.33-.37.57-.16.23-.31.42-.46.56-.15.17-.29.33-.44.46s-.29.28-.44.46c-.09.21-.18.42-.28.66-.1.23-.24.45-.41.65-.09.15-.22.35-.39.61s-.23.54-.17.83c-.23-.03-.5-.06-.78-.09-.29-.03-.54 0-.74.09-.03-.06-.06-.15-.09-.28s-.07-.27-.13-.42c-.06.03-.1.07-.13.13s-.07.07-.13.04c0-.15-.06-.22-.18-.22s-.13-.06-.04-.18c-.15.03-.25-.02-.31-.15s-.13-.17-.22-.11c-.06-.15-.1-.25-.11-.31-.01-.06-.02-.15-.02-.26-.09-.06-.15-.07-.17-.04s-.1.04-.22.04c0-.23-.04-.36-.11-.39-.07-.03-.13-.1-.2-.22v.17c-.11-.06-.19-.16-.22-.31s0-.26.09-.35Z" style="fill:#fb0742"></path><path d="M260.36 122.46s-.05-.04-.06-.04c-.02 0-.04-.01-.07-.04.12.17.28.19.5.04.22-.15.41-.22.59-.22 0 .06-.01.1-.04.11s-.04.04-.04.07c.06.09.11.1.15.04s.09-.06.15 0c.03.09 0 .15-.07.17-.07.03-.11.01-.11-.04-.06.03-.09.06-.09.11s-.03.07-.09.07c.03.12.03.23 0 .35.11 0 .23-.01.35-.04-.03.12-.04.26-.04.44-.15.09-.26.18-.33.28-.07.1-.18.21-.33.33-.06.03-.09.02-.09-.02 0-.05-.03-.07-.09-.07v.17c-.15-.03-.22 0-.24.07-.02.07-.05.15-.11.24.09 0 .15-.02.17-.06s.09-.09.17-.15c0 .06.03.1.09.11.06.01.09.05.09.11-.09 0-.15.02-.17.05s-.09.04-.17.04c0 .03 0 .05-.02.06-.01.02-.02.05-.02.11-.09-.03-.13 0-.13.07s-.01.14-.05.2c-.23 0-.41.06-.54.17s-.3.16-.5.13c-.06.12-.15.17-.28.17s-.23.07-.28.22c-.06.03-.1.03-.11 0-.01-.03-.04-.04-.06-.04-.09.15-.21.23-.35.26s-.26.09-.35.17h.04c-.06.17-.15.31-.26.39-.12.09-.22.09-.31 0-.06.12-.14.21-.24.28-.1.07-.18.15-.24.24.06.03.14 0 .24-.09.1-.09.18-.07.24.04-.15.15-.32.26-.53.35-.2.09-.41.16-.61.22 0 .11.01.15.04.11.03-.04.05-.04.05.02-.06.06-.12.1-.17.11-.06.01-.09.1-.09.24-.29-.06-.42.06-.39.35-.06.03-.1 0-.13-.09-.41.32-.85.6-1.33.83s-.94.49-1.37.78c-.32 0-.61.16-.87.48-.44.15-.85.33-1.24.55-.39.22-.78.44-1.16.67 0 .06.01.07.04.05s.06-.05.09-.05c-.32.26-.68.47-1.07.61-.39.15-.75.35-1.07.61-.38.03-.73.12-1.05.26s-.64.25-.96.31c-.06.03-.14.04-.24.02s-.21 0-.33.02c-.23.06-.56.07-.98.05-.42-.03-.78-.07-1.07-.13-.06-.03-.12-.07-.2-.11-.07-.04-.15-.1-.24-.15-.03 0-.06.01-.11.04s-.08.01-.11-.04a.459.459 0 0 1-.17-.17.71.71 0 0 0-.26-.22c-.15-.09-.29-.18-.44-.28s-.29-.18-.44-.24c0-.06-.01-.09-.04-.11-.03-.01-.04-.05-.04-.11-.09 0-.13-.01-.13-.05-.03-.06-.04-.1-.02-.13.01-.03.02-.06.02-.09-.06-.03-.08-.02-.07.02s0 .05-.02.02a6.21 6.21 0 0 1-.61-1.03 4.23 4.23 0 0 0-.61-.94c-.06-.44-.2-.77-.44-1-.03 0-.02.02.02.06.04.04.04.07-.02.07-.29-.44-.43-1.01-.41-1.73.01-.71.14-1.36.37-1.94.09-.11.16-.25.22-.39.06-.15.16-.25.31-.31.32-.82.72-1.51 1.22-2.07.49-.57.97-1.11 1.44-1.64.09-.11.18-.22.28-.31.1-.09.21-.2.33-.35.09-.12.22-.25.39-.39.15-.15.3-.29.46-.44.16-.14.33-.29.5-.43.29-.23.53-.47.72-.72.19-.25.43-.44.72-.59 0-.06 0-.09.02-.09.01 0 .02-.03.02-.09.2-.09.38-.2.54-.33.16-.13.31-.31.46-.55.23.03.4-.04.5-.22.1-.18.22-.31.37-.39.12-.06.23-.1.33-.13s.2-.09.28-.17c.12-.12.22-.2.31-.26.44-.29.87-.56 1.31-.81s.9-.49 1.4-.72c.32-.15.65-.32 1.01-.52.35-.21.72-.37 1.13-.48.09 0 .13-.03.13-.09.06.03.12.02.2-.02.07-.04.14-.08.2-.11.23-.09.47-.17.72-.24.25-.07.49-.14.72-.2.23 0 .5 0 .81.02.31.02.57.1.81.24.03.09.03.13 0 .13h-.09c.12.09.25.17.39.26.15.09.25.23.31.43.06.06.15.12.26.18.09.26.2.4.35.43-.06.03-.07.05-.04.07.03.01.04.04.04.06.12.09.19.18.22.28.03.1.07.23.13.37a1 1 0 0 0 .22.35 1 1 0 0 1 .22.35c.06.09.09.18.09.28s.03.18.09.24c0 .15-.01.25-.04.31.12.06.18.14.2.24.01.1 0 .21-.02.31-.03.1-.05.21-.06.33-.02.12 0 .23.06.35 0 .06-.02.11-.06.15-.05.04-.05.11-.02.2-.23.23-.44.5-.61.81-.18.31-.37.58-.57.81-.06.03-.1.06-.11.09-.01.03-.05.06-.11.09-.11.15-.22.28-.33.39-.1.12-.22.23-.37.35-.06.06-.12.1-.2.13-.07.03-.14.1-.2.22-.06.06-.13.12-.22.2-.09.07-.16.14-.22.2-.15.06-.31.12-.5.2-.19.07-.33.18-.42.33-.47.26-.92.54-1.35.83s-.9.55-1.4.78c-.15.06-.28.09-.39.11-.11.01-.22.08-.31.2-.15 0-.27.05-.39.15s-.26.17-.44.2c-.09 0-.15.04-.17.13l-.13-.04c-.29.2-.59.36-.9.46s-.62.2-.94.28c-.12.03-.17.01-.17-.05-.15.03-.26.07-.33.13s-.18.07-.33.04c-.06.06-.11.1-.17.13-.23 0-.45.03-.65.09s-.42.06-.65 0c-.06 0-.09.01-.09.04s-.03.06-.09.09c-.15-.06-.29-.09-.43-.09s-.25-.07-.31-.22c-.06 0-.12 0-.18.02-.06.01-.13 0-.22-.07-.23.23-.47.48-.7.74-.23.26-.44.57-.61.92-.03 0-.04 0-.04-.02s-.01-.02-.04-.02c-.03.12-.08.2-.15.24-.07.04-.11.17-.11.37-.17.09-.28.25-.31.48-.03.23-.12.42-.26.57.32 0 .66-.04 1.03-.13.36-.09.71-.15 1.03-.17.06-.03.09-.06.09-.11 0-.04.03-.08.09-.11.2.03.36 0 .48-.07s.26-.11.44-.11c.03 0 .07-.06.13-.17.15.03.32 0 .52-.09.21-.09.38-.17.53-.26.32 0 .63-.08.94-.24.31-.16.62-.27.94-.33.15-.17.34-.26.59-.26s.42-.1.5-.31c.23-.06.45-.11.66-.15.2-.04.4-.13.61-.28.03 0 .04.01.04.04s.03.03.09 0v-.09c.17-.11.38-.19.61-.22.23-.03.42-.15.56-.35.41 0 .77-.1 1.09-.31h.04s.04 0 .04.02.01.02.04.02.05-.01.07-.04.05-.06.11-.09c.4-.12.81-.27 1.22-.46.4-.19.86-.42 1.35-.67.06.06.11.06.17.02.06-.05.13-.04.22.02.23-.15.47-.23.7-.26.23-.03.48-.09.74-.17.17-.06.35-.13.52-.22.17-.09.36-.13.57-.13.23 0 .45-.07.65-.22s.42-.25.66-.31c.11 0 .24 0 .37-.02s.24-.02.33-.02c0 .09-.04.13-.11.13s-.11.04-.11.13a.386.386 0 0 0-.44.11c-.12.13-.26.17-.44.11-.03.06-.06.09-.09.09s-.04.03-.04.09Zm-11.52-1.74c.09-.15.2-.17.35-.07.15.1.26.1.35-.02-.03.12-.03.17 0 .17s.06-.02.11-.06c.05-.04.09-.09.13-.13.05-.04.08-.06.11-.06.03-.03.06-.04.11-.02.04.02.08.02.11.02.18.03.31-.06.39-.26s.2-.29.35-.26c.12-.15.24-.22.37-.22s.24-.09.33-.26c.17 0 .39-.06.65-.17s.6-.35 1.01-.7c.06-.12.17-.33.35-.65s.31-.51.39-.57c-.06-.06-.14-.07-.24-.04s-.2.07-.31.13c-.1.06-.2.11-.31.15-.1.04-.17.05-.2.02-.06.06-.19.17-.39.33s-.33.24-.39.24c-.21.03-.37.14-.5.33s-.28.26-.46.2c-.06.12-.13.22-.22.31s-.19.1-.31.04l-.17.17c-.06.06-.15.09-.26.09-.03 0-.04.02-.02.06.01.05 0 .07-.02.07-.09-.03-.15 0-.2.06-.04.07-.09.11-.15.11 0-.03-.01-.04-.04-.04v.09c-.17.15-.36.27-.55.37-.19.1-.36.27-.5.5h-.09v.13c.06 0 .09-.01.11-.04s.05-.03.11 0Z" style="fill:#fb0742"></path><path d="M257.96 123.07a.6.6 0 0 0 .42-.15l.37-.37c.18-.17.32-.31.44-.39.26-.23.54-.49.83-.76.29-.28.6-.53.92-.76.15-.12.3-.22.46-.33s.31-.22.46-.37c.15-.11.29-.21.44-.28.15-.07.27-.17.39-.28.06-.06.12-.12.17-.2.06-.07.13-.13.22-.2.2-.11.38-.22.54-.33s.34-.22.55-.37c.2-.09.4-.19.59-.31.19-.12.36-.28.5-.48.32-.03.62-.15.9-.35s.56-.38.85-.52c.09-.06.17-.1.26-.11.09-.01.16-.05.22-.11.26-.15.55-.27.85-.37s.62-.23.94-.37c.11.03.25.02.41-.02s.3-.09.42-.15c.85-.17 1.75-.32 2.71-.44.96-.11 1.82-.2 2.58-.26.03 0 .04.03.04.09s.03.07.09.04c.06 0 .06-.02 0-.06-.06-.04-.06-.08 0-.11.09 0 .15-.01.17-.04.15.09.26.2.35.35.09.15.21.25.35.31.06.06.06.09 0 .09s-.09.01-.09.04c.06.06.12.07.2.04.07-.03.14-.06.2-.11s.11-.08.17-.11c.06-.03.12-.01.17.04.17-.15.26-.37.26-.67s.07-.56.22-.76c-.03-.23 0-.42.07-.57.07-.15.09-.31.06-.48.03 0 .04 0 .04-.02s.03-.02.09-.02c.15-.53.27-1.05.37-1.59.1-.54.26-1.04.46-1.51 0-.12-.01-.19-.04-.22.06.03.09.01.09-.05 0-.06.03-.09.09-.09 0-.12.04-.26.11-.44.07-.17.15-.32.24-.44v-.22c.32-.64.59-1.31.81-2.01.22-.7.5-1.35.85-1.96.35-.93.79-1.78 1.33-2.55.54-.77 1.05-1.58 1.55-2.42.11-.06.2-.13.26-.22a.71.71 0 0 1 .26-.22c0-.06 0-.09-.02-.09s0-.03.02-.09c.17-.18.36-.34.57-.5.2-.16.38-.34.52-.54.17-.09.34-.19.5-.31.16-.12.31-.25.46-.39.11.06.27.09.46.09s.28.1.28.31c.09 0 .16-.03.22-.09s.11-.1.17-.13c.06 0 .12.02.17.07.06.04.12.04.17-.02.12.06.18.23.2.53.01.29-.1.44-.33.44 0 .12-.01.19-.04.22s-.04.1-.04.22c.11 0 .18-.02.2-.07.01-.04.08-.05.2-.02.06-.17.13-.22.22-.13 0 .09-.01.15-.04.2-.03.04-.07.09-.13.15.06.2.11.42.17.65.06.23.12.45.17.65-.03.03-.01.15.04.35h-.09c.06.15.06.28.02.42s-.07.26-.07.37c-.06.44-.11.89-.15 1.35-.04.47-.14.9-.28 1.31a7.41 7.41 0 0 1-.64 1.66c-.28.53-.5 1.08-.67 1.66-.17.29-.31.6-.39.92-.09.32-.19.64-.31.96-.17.41-.36.8-.54 1.16-.19.37-.31.78-.37 1.24-.12.06-.18.15-.2.28s-.05.27-.11.42c-.2.38-.36.74-.48 1.09-.03.09-.04.17-.02.26.01.09 0 .17-.02.26-.06.17-.15.35-.26.52s-.19.35-.22.52c-.12.15-.21.34-.26.57-.06.23-.12.47-.17.7-.03.06-.06.13-.09.22s-.06.16-.09.22c-.03.09-.05.17-.05.26s-.01.18-.04.26c-.03.23-.07.45-.13.66-.06.2-.1.4-.13.61v.31c0 .09-.04.16-.13.22-.03.47-.13.85-.31 1.16-.17.31-.33.65-.48 1.02-.06 0-.09.02-.09.05s-.03.04-.09.04c-.06.09-.1.19-.11.31s-.04.23-.06.35c-.12.32-.23.65-.35.98-.12.33-.21.67-.26 1.03-.03.29-.04.57-.04.85s-.05.53-.13.76c-.06-.03-.09-.04-.09-.02s-.03.04-.09.06c-.03.03-.05.06-.05.09s-.03.04-.09.04c-.06.41-.13.8-.22 1.18-.09.38-.16.77-.22 1.18 0 .06-.02.09-.07.09-.04 0-.06.03-.06.09-.06.44-.14.85-.24 1.22-.1.38-.18.73-.24 1.05 0 .06-.03.12-.09.17-.09.21-.15.42-.17.63-.03.22-.07.44-.13.68 0 .15-.03.26-.09.35-.06.09-.12.19-.17.31-.03.09-.03.19 0 .31s-.03.17-.18.17h-.09c-.03-.12-.04-.22-.04-.33s-.05-.18-.13-.24c-.09.09-.11.2-.07.33.05.13.05.27.02.41-.03.09-.05.2-.06.33-.01.13 0 .27.06.41-.15.15-.22.32-.24.53-.01.2 0 .39.06.57-.12.03-.18.12-.2.28s-.03.33-.04.5c-.02.17-.04.33-.07.48s-.13.22-.31.22c.12-.15.12-.31 0-.48-.09.06-.11.16-.06.31.04.15.05.29.02.44-.06.03-.11.03-.15 0s-.1-.04-.15-.04c-.03-.15-.03-.29 0-.44s.03-.31 0-.48c-.06.03-.09.09-.09.17s-.06.13-.17.13c-.03-.35 0-.71.09-1.07.09-.37.11-.71.09-1.03-.15.03-.23.07-.26.13s-.09.11-.18.17c-.06.58-.06 1.12 0 1.62.06.49.05 1.03-.04 1.61-.15.09-.28.07-.39-.04-.12-.12-.23-.2-.35-.26-.09.09-.15.21-.2.37s-.07.32-.09.48-.04.31-.09.44c-.05.13-.12.21-.24.24.03-.06.06-.1.09-.13s.03-.07 0-.13-.06-.09-.09-.09-.04-.01-.04-.04c0-.55 0-1.05-.02-1.48s-.07-.92-.15-1.44c-.06-.17-.08-.39-.07-.65s-.02-.48-.11-.65c0-.76.04-1.46.13-2.12.09-.65.12-1.32.09-1.99-.09.09-.16.07-.22-.05-.06.5-.1.95-.11 1.35-.01.41-.08.8-.2 1.18-.12.03-.16-.01-.13-.13.03-.11-.03-.15-.17-.09-.03-.29-.02-.57.04-.83s.12-.51.17-.74c0-.11 0-.22-.02-.33-.01-.1 0-.18.02-.24.06-.23.13-.47.22-.72a.9.9 0 0 0-.04-.72c.15-.35.2-.7.15-1.07-.04-.36 0-.74.11-1.11-.06 0-.13.03-.22.09s-.15.13-.17.22c0-.03-.04-.05-.13-.05-.32.23-.62.46-.89.68-.28.22-.58.43-.9.63v.17c-.23.15-.44.31-.61.48s-.38.29-.61.35c-.06 0-.07.02-.05.06s.01.08-.04.11c-.35.12-.69.26-1.03.42s-.67.33-1.03.5c-.78.41-1.54.76-2.27 1.05-.15.09-.31.16-.48.22-.17.06-.35.13-.52.22v.04l-.04.04s-.1-.03-.22-.09c-.06 0-.09.01-.09.04s-.02.04-.05.04c-.32.06-.68.12-1.09.17-.41.06-.78.12-1.13.18-.41-.03-.83-.06-1.27-.09s-.81-.12-1.13-.26c-.55-.26-1.02-.62-1.4-1.07-.38-.45-.77-.91-1.18-1.37a.76.76 0 0 1-.35.09c-.15-.38-.25-.76-.31-1.14-.06-.38-.03-.78.09-1.22-.03-.03-.06-.04-.11-.02-.04.01-.08.02-.11.02.09-.12.1-.25.04-.39s-.12-.25-.17-.31c.38-.96.65-2.04.83-3.23Zm8.6 2.88c.06-.06.12-.11.17-.17.06-.06.1-.03.13.09.26-.12.52-.23.78-.33s.53-.18.78-.24c.15-.17.31-.27.5-.28.19-.01.37-.05.54-.11.09 0 .17-.03.26-.09s.17-.1.26-.13c.06-.06.11-.08.15-.07.04.02.09.01.15-.02.03-.03.04-.05.04-.06s.03-.04.09-.07c.14-.06.27-.09.37-.11s.21-.07.33-.15c.06.03.07.02.04-.02-.03-.05-.01-.07.05-.07.35-.03.65-.1.9-.22s.49-.25.72-.39c.15-.06.27-.1.37-.13.1-.03.24-.06.42-.09.09-.03.15-.06.2-.09s.09-.07.15-.13c.23-.15.43-.24.59-.28.16-.04.34-.12.54-.24.03-.15.05-.33.05-.57s.07-.38.22-.44c0-.47.09-.93.26-1.4s.19-.89.04-1.26c-.09-.03-.14-.02-.15.02-.01.04-.06.06-.15.06-.03 0-.03-.01 0-.04s.01-.03-.04 0c-.23.09-.45.14-.66.15-.2.01-.38.12-.52.33-.03 0-.05 0-.06-.02a.145.145 0 0 0-.07-.02c-.06.06-.14.11-.24.15-.1.04-.18.09-.24.15-.81.38-1.59.79-2.31 1.24-.73.45-1.48.88-2.27 1.29 0 .06-.09.15-.26.26-.06.12-.15.21-.28.28a.87.87 0 0 0-.33.33c-.06 0-.1.01-.13.05-.03.03-.07.04-.13.04-.12.12-.19.22-.22.31-.06 0-.1 0-.11.02s-.05.02-.11.02c-.32.32-.63.63-.94.92s-.62.58-.94.87c-.06.23-.2.42-.42.55-.22.13-.38.3-.5.5v.04c.32-.03.63-.09.94-.2s.65-.18 1.03-.24Zm9.08-4.53c-.03.17-.04.3-.02.37.01.07 0 .18-.02.33.09-.06.15-.17.2-.33s0-.28-.15-.37Zm.13-.14c0-.06.01-.1.04-.13s0-.05-.09-.05c0 .12.01.17.05.17Zm.13-.74c.03.06.01.11-.05.15-.06.04-.09.11-.09.2.09.03.15-.01.17-.13s.01-.19-.04-.22Zm1.44 13.8c.06-.06.07-.1.04-.13-.03-.03-.03-.05 0-.05-.06 0-.09.03-.09.09s.01.09.04.09Z" style="fill:#fb0742"></path></svg>