<svg version="1.1" id="Layer_1" xmlns="http://www.w3.org/2000/svg" xmlns:xlink="http://www.w3.org/1999/xlink" x="0px" y="0px"
	 width="100%" viewBox="0 0 679 119" enable-background="new 0 0 679 119" xml:space="preserve">
<path fill="none" opacity="1.000000" stroke="none" 
	d="
M501.000000,120.000000 
	C335.500000,120.000000 170.499985,119.985176 5.500062,120.093857 
	C1.750667,120.096329 0.885289,119.251686 0.901773,115.499565 
	C1.064314,78.500282 1.044642,41.499844 0.915873,4.500293 
	C0.905489,1.516634 1.518338,0.918138 4.500032,0.919312 
	C228.500000,1.007537 452.500000,1.007537 676.499939,0.919312 
	C679.481689,0.918138 680.094360,1.516657 680.084106,4.500289 
	C679.955688,41.833179 679.955750,79.166817 680.084106,116.499710 
	C680.094360,119.483345 679.482544,120.088425 676.499817,120.082733 
	C618.166748,119.971382 559.833313,120.000000 501.000000,120.000000 
z"/>
<path fill="#ED1A46" opacity="1.000000" stroke="none" 
	d="
M180.505127,72.973969 
	C178.596710,72.985077 178.075623,70.241379 176.331696,71.399498 
	C174.475464,72.632210 173.835388,74.908180 173.246887,76.860809 
	C172.819809,78.277908 174.441818,79.260696 175.898499,78.906769 
	C187.188400,76.163513 198.110367,72.852776 204.993607,62.244080 
	C209.958710,54.591679 215.696304,47.482265 224.864243,44.668297 
	C237.285843,40.855675 248.699753,34.492767 261.201691,30.815159 
	C265.496185,29.551880 267.352142,24.430206 270.012939,20.822401 
	C273.134521,16.589821 275.946411,12.119265 279.913940,8.572834 
	C281.129181,7.486558 282.348450,5.865392 283.932861,7.917995 
	C285.131500,9.470814 288.135773,9.885116 286.428375,13.325764 
	C284.327850,17.558573 280.615082,20.887535 279.416382,26.202192 
	C284.171326,25.585396 288.710602,25.223246 293.152710,24.360703 
	C298.250092,23.370914 300.232941,24.817343 300.401825,29.820234 
	C300.447662,31.178452 299.960480,31.680113 299.053619,31.903908 
	C291.440552,33.782623 289.102814,40.829155 285.118713,46.209877 
	C284.552094,46.975117 283.729431,48.797779 285.788513,49.782791 
	C286.132507,49.947346 287.810120,51.612186 286.458984,52.629406 
	C285.420044,53.411583 283.996368,53.199665 282.777618,52.272831 
	C278.774872,49.228855 278.491699,45.054573 279.221375,40.629314 
	C279.456390,39.203880 280.163116,37.856220 280.784119,36.106518 
	C275.818420,35.864704 271.781464,36.967678 269.038391,41.429047 
	C259.861694,56.354218 252.331085,72.020622 247.551224,88.922455 
	C245.667633,95.582893 247.122437,97.830605 253.889191,98.967033 
	C255.289948,99.202271 256.896301,99.396042 256.754364,100.961647 
	C256.602142,102.640388 255.207031,103.680580 253.351837,104.001793 
	C247.283188,105.052544 240.344025,99.122040 240.040802,92.351517 
	C239.890305,88.991135 240.600662,86.437172 235.398560,85.279800 
	C231.491638,84.410583 228.193680,79.627899 228.971191,73.082397 
	C224.244461,76.860657 220.811584,80.573479 216.513657,83.213844 
	C209.704285,87.397072 206.828461,87.544273 202.257889,81.511696 
	C199.717712,78.158997 198.113907,79.267319 195.537949,80.894371 
	C189.814957,84.509178 183.779190,87.298515 176.720673,87.025719 
	C170.829254,86.798027 162.922745,79.600906 163.184631,73.686020 
	C163.305038,70.966202 162.346390,69.630211 160.669571,68.154953 
	C159.921066,67.496422 159.219727,66.774391 158.563095,66.023399 
	C157.140594,64.396523 157.410416,60.836151 154.436279,61.174053 
	C151.528763,61.504395 150.067032,64.495773 148.186157,66.523438 
	C142.722305,72.413689 138.227051,79.231056 131.652084,84.052132 
	C127.059502,87.419632 124.618858,87.136223 122.235741,82.043388 
	C120.911842,79.214157 120.185997,79.916039 118.398247,81.058403 
	C115.649017,82.815132 112.888954,84.642761 109.913803,85.934151 
	C106.740364,87.311592 103.465736,89.024239 99.865417,86.407516 
	C95.624718,83.325356 93.552132,79.111519 95.164795,74.364738 
	C99.464493,61.708878 106.641289,50.869949 117.598175,42.870678 
	C119.405540,41.551178 121.648720,39.772144 123.738190,42.037773 
	C125.862999,44.341736 129.825623,45.422050 129.053375,49.910172 
	C128.286545,54.366737 126.902275,58.395382 123.763336,61.776463 
	C121.466476,64.250504 119.254120,65.180023 116.723328,62.215923 
	C115.396141,60.661507 114.177986,60.780285 113.200676,62.492687 
	C110.390907,67.415871 107.000412,72.033020 104.900795,77.599571 
	C107.807991,78.363396 109.897781,76.840164 112.077728,75.955734 
	C123.078415,71.492577 131.389923,64.036400 136.872925,53.464184 
	C137.395432,52.456688 138.184875,51.590252 138.741302,50.597191 
	C140.146194,48.089821 141.600845,45.343067 145.034561,46.150513 
	C148.332535,46.926029 147.989365,50.097103 148.188644,52.850498 
	C150.517685,52.766247 151.989822,51.185986 153.286285,50.011608 
	C155.081390,48.385529 157.321060,47.008389 158.958664,48.266815 
	C160.798141,49.680359 163.158203,51.473316 163.017487,54.553818 
	C162.911133,56.881634 162.901260,59.224285 163.042267,61.548573 
	C163.112823,62.711460 162.221130,64.464584 164.142868,64.880692 
	C165.985458,65.279663 166.503082,63.719879 167.303345,62.398464 
	C171.540649,55.401436 177.001450,49.668526 184.562683,46.158726 
	C189.546463,43.845345 193.938583,44.496574 197.694565,48.182632 
	C201.585403,52.001076 200.688919,56.439976 198.703903,60.474438 
	C195.123398,67.751671 189.769089,72.990120 180.505127,72.973969 
z"/>
<path fill="#ED1A46" opacity="1.000000" stroke="none" 
	d="
M414.230988,84.325348 
	C411.886108,85.603271 409.896210,87.055023 407.855194,84.401443 
	C406.032654,82.031883 402.868073,80.331459 404.789154,76.447701 
	C405.699493,74.607292 406.192474,72.560425 406.881256,70.587906 
	C405.302612,69.448441 404.633972,70.839104 403.987305,71.561157 
	C399.922943,76.099312 395.937195,80.707993 391.936249,85.302750 
	C390.493927,86.959091 387.677795,89.002090 386.802643,87.519783 
	C385.597900,85.479210 381.929443,84.228058 383.825470,80.296455 
	C388.601624,70.392654 394.623840,61.269459 400.546356,52.073750 
	C401.384155,50.772915 402.832886,48.952023 404.544678,50.493874 
	C405.800751,51.625263 408.404968,52.894966 406.186737,55.614899 
	C405.700714,56.210873 404.429077,57.371281 405.755737,59.127254 
	C408.610870,56.814899 411.406433,54.448090 414.317841,52.233555 
	C415.919250,51.015469 417.551147,48.980675 419.863708,50.704357 
	C422.294708,52.516365 424.097748,54.612267 422.509003,58.114162 
	C421.133270,61.146511 420.217194,64.387383 419.769592,68.130630 
	C423.188171,65.246704 426.636719,62.397366 430.015045,59.467041 
	C432.376434,57.418831 434.291138,54.925014 437.075104,53.270721 
	C438.976074,52.141125 440.523376,49.388618 442.841339,51.854321 
	C445.021851,54.173828 448.555603,55.967434 445.312988,60.686604 
	C442.031799,65.462044 440.274719,71.276154 437.753845,76.589661 
	C437.231995,77.689613 436.447449,78.818466 437.572266,79.685829 
	C438.607269,80.483955 439.637329,79.693123 440.629456,78.916031 
	C443.134888,76.953674 445.255554,75.306610 446.002869,71.539871 
	C447.618164,63.398411 453.214355,57.473595 459.346863,52.158577 
	C461.175568,50.573650 463.337006,50.021481 464.881866,52.052784 
	C466.257446,53.861500 469.332489,55.134403 466.052856,58.797993 
	C461.194519,64.225128 456.992920,70.397766 454.496490,77.470612 
	C461.934540,78.583908 469.127472,74.993004 472.664062,68.840553 
	C476.242279,62.615711 480.160950,56.587414 483.863892,50.432961 
	C485.026642,48.500500 486.293671,45.577873 488.577240,46.619770 
	C491.025574,47.736832 492.203735,50.636127 490.155182,53.605473 
	C489.852264,54.044552 490.113068,54.872528 490.113068,56.427025 
	C493.850220,53.775955 497.054474,51.505630 500.255585,49.230904 
	C501.667542,48.227573 503.204987,46.343872 504.881622,47.602276 
	C507.017578,49.205395 509.521240,50.887207 509.051697,54.408741 
	C508.697174,57.067448 507.673950,59.428326 506.616730,61.801876 
	C504.689636,66.128197 502.724030,70.438866 500.672272,74.706947 
	C500.217682,75.652618 499.642365,76.644104 500.326660,77.438522 
	C501.162262,78.408638 502.466217,78.105446 503.582977,77.727684 
	C506.160706,76.855713 507.050201,74.750046 508.100952,72.383026 
	C513.068604,61.192280 520.499084,52.467365 532.715515,48.619560 
	C535.235596,47.825809 538.029724,47.345036 539.974548,48.253880 
	C544.283936,50.267708 545.588928,47.615723 547.010132,44.812531 
	C549.972351,38.970013 553.448486,33.447178 556.971191,27.936049 
	C559.130066,24.558540 561.781189,21.680597 564.592041,18.874472 
	C566.301392,17.168013 568.024902,16.047674 570.179626,17.769823 
	C572.297668,19.462664 573.888306,21.141104 572.246826,24.484295 
	C568.263306,32.597980 563.254395,40.060661 558.031128,47.337311 
	C548.315979,60.871685 541.230408,75.634972 535.824341,91.312218 
	C535.322388,92.767830 535.204102,94.154686 534.944824,95.592613 
	C534.673706,97.096298 536.258301,99.915222 533.329102,99.773689 
	C531.040955,99.663132 529.150574,97.661797 529.056458,95.062050 
	C528.884155,90.306412 528.506653,85.492386 530.898621,81.029854 
	C531.305420,80.270912 531.617981,78.771317 531.230591,78.409195 
	C530.165100,77.413139 529.178162,78.362572 528.299866,79.192108 
	C525.644165,81.700409 522.395569,83.293350 519.195190,84.943604 
	C516.520874,86.322563 513.928772,86.863991 511.608856,84.159554 
	C510.173920,82.486702 508.498413,82.845589 506.655579,83.668869 
	C502.956085,85.321548 499.247803,86.309448 495.660400,83.173660 
	C491.633392,79.653580 491.223053,75.491608 492.674561,70.619545 
	C493.157104,68.999779 494.553711,67.416588 493.727844,65.438126 
	C491.988831,64.539146 491.402130,66.178284 490.585876,66.978851 
	C485.351227,72.112816 480.221008,77.353607 474.966034,82.466324 
	C473.852936,83.549301 472.625519,86.553696 470.855042,82.769119 
	C470.013214,80.969627 468.871826,82.752998 467.979706,83.049850 
	C461.842712,85.091942 455.776764,87.842178 449.810242,82.478691 
	C448.412018,81.221779 446.820862,82.125504 446.155029,83.642151 
	C445.654633,84.781761 444.976471,85.687645 444.070038,86.356590 
	C440.793671,88.774605 437.491669,91.770088 433.033813,89.399330 
	C428.464813,86.969475 426.349609,80.635391 427.864105,73.197212 
	C422.913757,77.141907 419.318970,81.425232 414.230988,84.325348 
z"/>
<path fill="#ED1A46" opacity="1.000000" stroke="none" 
	d="
M309.781921,75.713593 
	C305.294403,80.155418 301.243011,84.530556 296.410126,88.092339 
	C291.088623,92.014229 287.145325,92.251762 282.953552,87.309090 
	C279.581512,83.333008 275.872040,84.660164 272.130829,85.118156 
	C268.321381,85.584496 264.888977,85.704536 262.066376,82.440643 
	C258.060425,77.808388 256.390045,72.741470 259.492340,67.144608 
	C262.441650,61.823730 265.980103,56.891258 270.630920,52.784882 
	C273.014923,50.679943 275.153351,50.112953 277.567810,52.205063 
	C280.105011,54.403507 280.607819,56.822781 278.006042,59.500534 
	C273.033905,64.617813 269.841736,70.838150 266.985718,77.350624 
	C274.461273,78.749458 279.278351,75.769241 282.096680,69.484489 
	C286.459473,59.755699 292.059326,50.713982 299.552429,42.995396 
	C300.819672,41.690025 301.782074,39.866940 304.208557,42.207951 
	C306.306091,44.231617 308.013611,45.338730 306.014587,48.593498 
	C301.317688,56.240837 296.952942,64.095673 292.590668,71.942657 
	C291.455017,73.985474 290.822418,76.307945 289.707245,79.140968 
	C295.191162,77.761086 297.709534,73.866432 300.535828,70.652061 
	C301.920502,69.077217 303.148163,67.252762 304.724487,65.839020 
	C307.542297,63.311817 308.829651,60.577454 309.255310,56.535477 
	C309.891998,50.489655 313.374084,45.199051 317.786530,40.916111 
	C319.457916,39.293804 321.969421,39.220650 323.965881,40.986610 
	C326.710846,43.414684 330.360992,45.439396 328.391632,50.178875 
	C325.331055,57.544529 320.178406,63.461166 315.065948,69.392662 
	C313.348633,71.385094 311.202057,73.011971 309.781921,75.713593 
z"/>
<path fill="#ED1A46" opacity="1.000000" stroke="none" 
	d="
M322.176758,69.639954 
	C326.375824,59.133755 333.140015,51.284561 342.739410,46.222095 
	C346.709747,44.128254 351.185944,43.604702 354.982330,47.431084 
	C359.695312,52.181293 360.505432,56.348450 356.491058,61.843735 
	C351.451355,68.742676 346.254272,76.163681 335.691589,71.299271 
	C334.219666,70.621414 334.123199,71.978577 333.703125,72.744766 
	C332.762238,74.460884 331.316040,76.210907 332.223877,78.237869 
	C332.798401,79.520638 334.107239,78.603600 335.236816,78.433632 
	C343.684113,77.162567 351.041565,73.527802 357.944794,68.672752 
	C359.393463,67.653908 361.256470,65.778107 363.178192,67.817879 
	C364.857819,69.600655 363.980255,71.330467 362.546844,73.058517 
	C354.920380,82.252739 345.435852,87.515106 333.251434,86.954903 
	C329.011230,86.759956 322.183105,79.313324 322.014679,75.034882 
	C321.949280,73.373825 322.036285,71.706779 322.176758,69.639954 
z"/>
<path fill="#ED1A46" opacity="1.000000" stroke="none" 
	d="
M574.980713,41.101986 
	C576.339844,38.982658 577.795654,37.495758 579.846863,36.576687 
	C581.718140,35.738235 583.524658,35.488350 584.671021,37.345680 
	C585.652527,38.935863 587.273682,40.405869 585.700867,42.866459 
	C581.950256,48.734142 577.998718,54.525826 576.617065,61.614372 
	C576.290649,63.289215 575.826782,64.672005 576.634644,66.319267 
	C577.185730,67.443024 577.627014,69.173363 576.151001,69.684944 
	C575.161011,70.028076 573.879944,69.041916 572.966431,67.972748 
	C570.784973,65.419510 569.830017,62.428734 569.676270,58.996227 
	C562.698059,63.264740 561.794067,67.199287 566.119690,72.671104 
	C567.225952,74.070488 568.195251,75.608200 569.029175,77.187088 
	C571.323181,81.530472 570.431641,84.080666 566.093872,86.463272 
	C562.620361,88.371208 558.938660,89.432083 555.028870,90.060371 
	C551.620605,90.608078 549.898376,88.522484 549.232117,86.105278 
	C548.478760,83.372314 551.351440,83.470100 553.122681,82.932312 
	C553.278931,82.884865 553.431580,82.819351 553.577759,82.745987 
	C556.349487,81.355026 560.096680,80.640793 561.652649,78.403175 
	C563.774414,75.351906 559.064758,74.142426 557.805481,71.783432 
	C551.225464,59.456596 557.068909,46.822632 570.706726,45.093353 
	C573.305237,44.763866 573.358582,42.480186 574.980713,41.101986 
z"/>
<path fill="#ED1A46" opacity="1.000000" stroke="none" 
	d="
M483.299866,29.827959 
	C484.159912,33.004719 482.036865,34.528385 480.306427,36.155945 
	C477.280701,39.001774 474.789032,42.215603 473.022644,45.970509 
	C472.505188,47.070568 471.392822,48.170090 472.904419,49.447945 
	C473.987396,50.363476 474.775452,51.852276 473.275452,52.712364 
	C471.782928,53.568180 470.236694,52.962437 469.033478,51.339149 
	C465.476898,46.540813 466.050262,37.936592 470.470398,33.031849 
	C471.580872,31.799595 472.880280,30.736265 473.976227,29.492502 
	C477.059998,25.992764 480.060455,25.365372 483.299866,29.827959 
z"/>
<path fill="#000000" opacity="1.000000" stroke="none" 
	d="
M241.272888,67.383377 
	C242.411575,64.794975 243.480225,62.589954 244.285980,60.292725 
	C246.867661,52.932144 246.830124,52.918976 241.794556,46.760929 
	C245.181671,45.507778 248.400299,44.227905 251.688080,43.161121 
	C252.545441,42.882927 253.885757,42.924702 254.531662,43.427113 
	C255.598694,44.257076 254.366913,45.258331 253.953171,45.968548 
	C248.238403,55.778271 245.535126,66.790863 241.397018,77.226143 
	C240.787537,78.763084 240.614243,80.693733 238.296982,79.900787 
	C235.462265,78.930786 237.583481,77.214073 237.997925,75.937187 
	C238.899765,73.158630 240.039841,70.457397 241.272888,67.383377 
z"/>
<path fill="#000000" opacity="1.000000" stroke="none" 
	d="
M222.753769,64.745895 
	C218.932434,68.011337 216.514236,72.448875 211.229126,74.153854 
	C211.453537,70.322525 214.039841,68.191963 215.755905,65.648087 
	C219.185196,60.564560 223.635742,56.495979 228.566986,52.896111 
	C229.784927,52.007004 230.945953,51.476086 232.036087,52.670067 
	C233.510727,54.285191 231.465363,54.844685 230.790375,55.651714 
	C228.271286,58.663624 225.610703,61.557186 222.753769,64.745895 
z"/>
<path fill="#000000" opacity="1.000000" stroke="none" 
	d="
M191.930344,55.127480 
	C190.305634,59.071720 188.232666,62.289623 184.550293,64.128281 
	C183.864624,64.470642 183.214096,65.408615 182.417496,64.629166 
	C181.879883,64.103111 181.345108,63.242836 181.361389,62.544956 
	C181.407776,60.557281 189.323700,54.822010 191.930344,55.127480 
z"/>
<path fill="#000000" opacity="1.000000" stroke="none" 
	d="
M536.246094,60.253769 
	C531.182678,64.977867 527.197754,70.504021 520.142700,73.449188 
	C527.436279,60.116459 532.307007,55.780060 541.316650,54.200905 
	C541.715576,54.583591 542.114441,54.966274 542.513367,55.348961 
	C540.507141,56.900616 538.500977,58.452274 536.246094,60.253769 
z"/>
<path fill="#000000" opacity="1.000000" stroke="none" 
	d="
M346.742859,55.751686 
	C347.933136,54.527550 348.851257,53.515949 350.646576,54.392204 
	C349.040253,58.237736 347.251068,61.868183 343.428162,64.122681 
	C342.514557,64.661453 341.875000,65.274452 340.865417,64.345337 
	C339.670380,63.245544 340.327454,62.520336 340.991486,61.410149 
	C342.377319,59.093258 344.109894,57.255238 346.742859,55.751686 
z"/>
</svg>