<svg version="1.1" id="Layer_1" xmlns="http://www.w3.org/2000/svg" xmlns:xlink="http://www.w3.org/1999/xlink" x="0px" y="0px"
	 width="100%" viewBox="0 0 679 119" enable-background="new 0 0 679 119" xml:space="preserve">
<path fill="none" opacity="1.000000" stroke="none" 
	d="
M654.000000,120.000000 
	C436.000000,120.000000 218.500000,120.000000 1.000000,120.000000 
	C1.000000,80.333336 1.000000,40.666668 1.000000,1.000000 
	C227.333328,1.000000 453.666656,1.000000 680.000000,1.000000 
	C680.000000,40.666668 680.000000,80.333336 680.000000,120.000000 
	C671.500000,120.000000 663.000000,120.000000 654.000000,120.000000 
M290.970856,63.273846 
	C291.018890,62.529919 291.066925,61.785988 291.588928,60.882095 
	C291.761169,60.604843 291.933441,60.327591 292.715027,59.773922 
	C296.809967,56.460392 300.904907,53.146866 305.729187,49.969925 
	C306.835876,49.682232 307.942596,49.394535 309.714325,49.004875 
	C310.823608,48.374866 311.932861,47.744854 313.686279,47.004913 
	C313.826569,46.320278 313.966858,45.635643 313.998505,44.221096 
	C312.665741,43.536289 311.333008,42.851482 309.334686,42.031094 
	C308.261444,41.701416 307.188171,41.371738 306.739502,40.750774 
	C312.414520,36.496841 318.479980,33.357189 326.190765,34.688530 
	C326.516052,35.792263 326.841370,36.895996 327.029846,38.875694 
	C326.980652,41.237274 326.931458,43.598850 326.249054,46.354527 
	C322.555481,53.737274 318.861938,61.120018 315.050690,69.052986 
	C315.075531,69.238892 315.100372,69.424805 314.638092,69.932930 
	C313.720551,70.941154 312.803009,71.949379 311.290039,73.220993 
	C309.512543,75.109192 307.735016,76.997391 305.369385,79.144913 
	C304.077728,80.153427 302.786041,81.161949 301.249634,82.249344 
	C301.249634,82.249344 301.170685,82.494049 300.608215,82.867119 
	C299.776550,83.359245 299.001984,84.038292 298.103790,84.312439 
	C293.127991,85.831139 288.498413,90.720955 283.019958,85.120659 
	C283.379608,82.870445 286.965820,80.614075 283.409241,78.551727 
	C282.773407,78.183037 280.436737,80.747520 278.260742,82.338524 
	C278.225372,87.522614 281.035583,90.745659 286.016724,93.433578 
	C290.667389,93.134460 295.927826,94.143944 299.863281,92.310036 
	C317.037445,84.306915 326.066711,69.195694 331.733093,52.012165 
	C333.490082,46.683887 334.753693,40.499550 330.963898,34.513607 
	C330.607635,34.227859 330.251343,33.942112 329.944641,32.984390 
	C329.241180,32.158413 328.537720,31.332436 327.413574,29.970337 
	C326.622986,29.608498 325.832428,29.246658 324.567413,28.207401 
	C322.045013,28.193823 319.522644,28.180244 316.248962,28.049381 
	C311.127808,31.018787 306.006622,33.988194 300.276855,37.233288 
	C297.693878,40.512177 292.601746,42.367107 294.015900,48.668575 
	C292.972412,50.098251 291.928955,51.527924 290.285217,53.225437 
	C289.484253,54.470394 288.683289,55.715355 287.284363,57.289936 
	C287.152527,58.875103 287.020691,60.460274 286.997131,62.737499 
	C287.762604,63.382469 288.528107,64.027435 289.804169,64.924461 
	C290.147217,64.618744 290.490295,64.313026 290.970856,63.273846 
M394.392059,49.835312 
	C392.284668,49.365849 390.177277,48.896385 387.967529,48.404125 
	C390.432495,44.096287 392.913147,40.245029 394.830261,36.131180 
	C395.447479,34.806698 394.580414,32.790501 394.392365,31.090744 
	C392.383514,31.469074 389.436371,31.140890 388.527740,32.347645 
	C384.521576,37.668007 380.844940,43.285328 377.572510,49.090233 
	C375.740784,52.339600 374.494507,55.071255 370.010101,53.117149 
	C368.884613,52.626709 367.104736,53.259945 365.750519,53.733784 
	C356.869690,56.841175 350.671204,62.836349 347.834229,71.791046 
	C347.179352,73.858246 347.727661,77.058823 349.001617,78.803925 
	C350.792511,81.257133 353.840515,81.954369 356.914978,80.048607 
	C359.319397,78.558174 361.860352,77.288040 364.725159,75.707962 
	C362.034393,88.763687 362.112976,89.166367 367.565857,91.663979 
	C369.351166,78.616051 374.091858,68.104820 377.810455,68.949478 
	C374.737122,72.393547 375.496979,76.130226 377.364227,79.659340 
	C379.311279,83.339142 383.151154,84.180969 386.363617,82.619774 
	C390.518738,80.600464 394.940643,78.016380 397.706604,74.472656 
	C404.503906,65.763977 405.605988,55.112320 394.392059,49.835312 
z"/>
<path fill="#ED1A46" opacity="1.000000" stroke="none" 
	d="
M394.769684,49.935043 
	C405.605988,55.112320 404.503906,65.763977 397.706604,74.472656 
	C394.940643,78.016380 390.518738,80.600464 386.363617,82.619774 
	C383.151154,84.180969 379.311279,83.339142 377.364227,79.659340 
	C375.496979,76.130226 374.737122,72.393547 377.810425,68.949478 
	C374.091858,68.104820 369.351166,78.616051 367.565857,91.663979 
	C362.112976,89.166367 362.034393,88.763687 364.725159,75.707962 
	C361.860352,77.288040 359.319397,78.558174 356.914978,80.048607 
	C353.840515,81.954369 350.792511,81.257133 349.001617,78.803925 
	C347.727661,77.058823 347.179352,73.858246 347.834229,71.791046 
	C350.671204,62.836349 356.869690,56.841175 365.750519,53.733784 
	C367.104736,53.259945 368.884613,52.626709 370.010101,53.117149 
	C374.494507,55.071255 375.740784,52.339600 377.572510,49.090233 
	C380.844940,43.285328 384.521576,37.668007 388.527740,32.347645 
	C389.436371,31.140890 392.383514,31.469074 394.392365,31.090744 
	C394.580414,32.790501 395.447479,34.806698 394.830261,36.131180 
	C392.913147,40.245029 390.432495,44.096287 387.967529,48.404125 
	C390.177277,48.896385 392.284668,49.365849 394.769684,49.935043 
M384.922089,71.376106 
	C384.262756,72.734970 383.603424,74.093834 382.944092,75.452690 
	C385.255676,75.491127 386.874420,74.920631 388.160187,73.921577 
	C393.495728,69.775719 397.714569,64.906532 396.919067,57.526234 
	C396.789185,56.321308 395.641998,55.226036 394.965027,54.080093 
	C394.230682,54.899277 393.319336,55.618687 392.791931,56.554466 
	C390.164429,61.216511 387.637909,65.935463 384.922089,71.376106 
M361.423492,69.056976 
	C364.877014,65.919067 368.330536,62.781166 372.230438,59.237656 
	C365.954376,59.005009 359.209564,64.214249 356.123962,71.556114 
	C358.127441,70.737389 359.527954,70.165077 361.423492,69.056976 
M381.990234,56.521549 
	C380.538971,59.072735 379.087708,61.623917 377.636444,64.175102 
	C378.144745,64.511627 378.653076,64.848160 379.161377,65.184685 
	C381.841644,61.740494 384.521942,58.296307 387.202209,54.852119 
	C386.886566,54.477669 386.570923,54.103214 386.255280,53.728764 
	C385.007751,54.483131 383.760223,55.237499 381.990234,56.521549 
z"/>
<path fill="#ED1A46" opacity="1.000000" stroke="none" 
	d="
M315.125183,69.610710 
	C315.100372,69.424805 315.075531,69.238892 315.516907,68.835815 
	C317.281891,68.052010 319.274414,67.835403 319.765869,66.861435 
	C322.748718,60.949326 325.455109,54.892555 328.049652,48.797150 
	C328.330719,48.136852 327.302917,46.919426 326.882263,45.960426 
	C326.931458,43.598850 326.980652,41.237274 327.377502,38.303131 
	C328.853241,36.804718 329.981323,35.878872 331.109406,34.953026 
	C334.753693,40.499550 333.490082,46.683887 331.733093,52.012165 
	C326.066711,69.195694 317.037445,84.306915 299.863281,92.310036 
	C295.927826,94.143944 290.667389,93.134460 286.016174,92.791931 
	C288.267365,91.343750 290.531281,90.569382 292.768066,89.723404 
	C296.437531,88.335564 301.181976,88.169395 301.170685,82.494049 
	C301.170685,82.494049 301.249634,82.249344 301.756348,82.321350 
	C305.218445,83.039703 305.876801,81.266838 305.957489,78.885590 
	C307.735016,76.997391 309.512543,75.109192 311.954468,73.080811 
	C314.380585,72.527832 317.389679,73.053909 315.125183,69.610710 
z"/>
<path fill="#ED1A46" opacity="1.000000" stroke="none" 
	d="
M304.999847,49.833340 
	C300.904907,53.146866 296.809967,56.460392 292.142761,59.716270 
	C290.341095,58.759186 289.111725,57.859753 287.882355,56.960320 
	C288.683289,55.715355 289.484253,54.470394 290.976746,53.090046 
	C295.282471,52.705574 297.496368,51.750431 294.166656,47.999969 
	C292.601746,42.367107 297.693878,40.512177 300.982239,37.095253 
	C307.457642,35.186882 313.711456,34.259254 317.000244,28.166666 
	C319.522644,28.180244 322.045013,28.193823 324.985962,28.840332 
	C326.214447,29.817661 327.024353,30.162060 327.834259,30.506458 
	C328.537720,31.332436 329.241180,32.158413 329.419800,33.379616 
	C327.891846,33.864067 326.888702,33.953293 325.885590,34.042515 
	C318.479980,33.357189 312.414520,36.496841 306.065765,40.931000 
	C304.123840,42.165779 302.816040,43.180965 301.659271,44.346134 
	C301.561859,44.444244 302.477264,46.088726 302.922943,46.089092 
	C304.627106,46.090500 306.492676,46.055210 307.978333,45.355202 
	C308.939667,44.902214 309.345520,43.270298 310.000275,42.166672 
	C311.333008,42.851482 312.665741,43.536289 313.875488,44.832878 
	C313.515717,46.001385 313.278931,46.558113 313.042145,47.114845 
	C311.932861,47.744854 310.823608,48.374866 309.121460,48.888321 
	C307.352356,49.125626 306.176086,49.479485 304.999847,49.833340 
z"/>
<path fill="#ED1A46" opacity="1.000000" stroke="none" 
	d="
M300.889465,82.680588 
	C301.181976,88.169395 296.437531,88.335564 292.768066,89.723404 
	C290.531281,90.569382 288.267365,91.343750 285.754456,92.491806 
	C281.035583,90.745659 278.225372,87.522614 278.822418,82.272240 
	C280.533844,83.470757 281.683594,84.735558 282.833344,86.000366 
	C288.498413,90.720955 293.127991,85.831139 298.103790,84.312439 
	C299.001984,84.038292 299.776550,83.359245 300.889465,82.680588 
z"/>
<path fill="#ED1A46" opacity="1.000000" stroke="none" 
	d="
M326.565674,46.157471 
	C327.302917,46.919426 328.330719,48.136852 328.049652,48.797150 
	C325.455109,54.892555 322.748718,60.949326 319.765869,66.861435 
	C319.274414,67.835403 317.281891,68.052010 315.575745,68.560699 
	C318.861938,61.120018 322.555481,53.737274 326.565674,46.157471 
z"/>
<path fill="#ED1A46" opacity="1.000000" stroke="none" 
	d="
M316.624603,28.108025 
	C313.711456,34.259254 307.457642,35.186882 301.286530,36.957413 
	C306.006622,33.988194 311.127808,31.018787 316.624603,28.108025 
z"/>
<path fill="#ED1A46" opacity="1.000000" stroke="none" 
	d="
M309.667480,42.098877 
	C309.345520,43.270298 308.939667,44.902214 307.978333,45.355202 
	C306.492676,46.055210 304.627106,46.090500 302.922943,46.089092 
	C302.477264,46.088726 301.561859,44.444244 301.659271,44.346134 
	C302.816040,43.180965 304.123840,42.165779 305.753479,41.076641 
	C307.188171,41.371738 308.261444,41.701416 309.667480,42.098877 
z"/>
<path fill="#ED1A46" opacity="1.000000" stroke="none" 
	d="
M282.926636,85.560516 
	C281.683594,84.735558 280.533844,83.470757 279.134766,82.081802 
	C280.436737,80.747520 282.773407,78.183037 283.409241,78.551727 
	C286.965820,80.614075 283.379608,82.870445 282.926636,85.560516 
z"/>
<path fill="#ED1A46" opacity="1.000000" stroke="none" 
	d="
M287.583374,57.125130 
	C289.111725,57.859753 290.341095,58.759186 291.838074,59.854481 
	C291.933441,60.327591 291.761169,60.604843 290.988342,60.988651 
	C289.221497,61.411953 288.055176,61.728699 286.888885,62.045441 
	C287.020691,60.460274 287.152527,58.875103 287.583374,57.125130 
z"/>
<path fill="#ED1A46" opacity="1.000000" stroke="none" 
	d="
M294.091278,48.334274 
	C297.496368,51.750431 295.282471,52.705574 291.276886,52.956123 
	C291.928955,51.527924 292.972412,50.098251 294.091278,48.334274 
z"/>
<path fill="#ED1A46" opacity="1.000000" stroke="none" 
	d="
M326.038177,34.365524 
	C326.888702,33.953293 327.891846,33.864067 329.395020,33.715603 
	C330.251343,33.942112 330.607635,34.227859 331.036652,34.733315 
	C329.981323,35.878872 328.853241,36.804718 327.445923,37.865150 
	C326.841370,36.895996 326.516052,35.792263 326.038177,34.365524 
z"/>
<path fill="#ED1A46" opacity="1.000000" stroke="none" 
	d="
M305.663452,79.015244 
	C305.876801,81.266838 305.218445,83.039703 301.878723,82.281921 
	C302.786041,81.161949 304.077728,80.153427 305.663452,79.015244 
z"/>
<path fill="#ED1A46" opacity="1.000000" stroke="none" 
	d="
M286.942993,62.391472 
	C288.055176,61.728699 289.221497,61.411953 290.751343,61.068634 
	C291.066925,61.785988 291.018890,62.529919 290.514526,63.800735 
	C289.803314,64.442551 289.548431,64.557480 289.293579,64.672409 
	C288.528107,64.027435 287.762604,63.382469 286.942993,62.391472 
z"/>
<path fill="#ED1A46" opacity="1.000000" stroke="none" 
	d="
M314.881653,69.771820 
	C317.389679,73.053909 314.380585,72.527832 312.252167,72.949112 
	C312.803009,71.949379 313.720551,70.941154 314.881653,69.771820 
z"/>
<path fill="#ED1A46" opacity="1.000000" stroke="none" 
	d="
M305.364502,49.901634 
	C306.176086,49.479485 307.352356,49.125626 308.788940,48.939304 
	C307.942596,49.394535 306.835876,49.682232 305.364502,49.901634 
z"/>
<path fill="#ED1A46" opacity="1.000000" stroke="none" 
	d="
M313.364197,47.059875 
	C313.278931,46.558113 313.515717,46.001385 313.929810,45.197834 
	C313.966858,45.635643 313.826569,46.320278 313.364197,47.059875 
z"/>
<path fill="#ED1A46" opacity="1.000000" stroke="none" 
	d="
M327.623901,30.238400 
	C327.024353,30.162060 326.214447,29.817661 325.223206,29.179039 
	C325.832428,29.246658 326.622986,29.608498 327.623901,30.238400 
z"/>
<path fill="#ED1A46" opacity="1.000000" stroke="none" 
	d="
M289.548889,64.798431 
	C289.548431,64.557480 289.803314,64.442551 290.445770,64.167465 
	C290.490295,64.313026 290.147217,64.618744 289.548889,64.798431 
z"/>
<path fill="#000000" opacity="1.000000" stroke="none" 
	d="
M384.998962,71.005241 
	C387.637909,65.935463 390.164429,61.216511 392.791931,56.554466 
	C393.319336,55.618687 394.230682,54.899277 394.965027,54.080090 
	C395.641998,55.226036 396.789185,56.321308 396.919067,57.526234 
	C397.714569,64.906532 393.495728,69.775719 388.160187,73.921577 
	C386.874420,74.920631 385.255676,75.491127 382.944092,75.452690 
	C383.603424,74.093834 384.262756,72.734970 384.998962,71.005241 
z"/>
<path fill="#000000" opacity="1.000000" stroke="none" 
	d="
M361.175964,69.324875 
	C359.527954,70.165077 358.127441,70.737389 356.123962,71.556114 
	C359.209564,64.214249 365.954376,59.005009 372.230438,59.237656 
	C368.330536,62.781166 364.877014,65.919067 361.175964,69.324875 
z"/>
<path fill="#000000" opacity="1.000000" stroke="none" 
	d="
M382.251465,56.256706 
	C383.760223,55.237499 385.007751,54.483131 386.255280,53.728764 
	C386.570923,54.103214 386.886566,54.477669 387.202209,54.852119 
	C384.521942,58.296307 381.841644,61.740494 379.161377,65.184685 
	C378.653076,64.848160 378.144745,64.511627 377.636444,64.175102 
	C379.087708,61.623917 380.538971,59.072735 382.251465,56.256706 
z"/>
</svg>