<svg version="1.1" id="Layer_1" xmlns="http://www.w3.org/2000/svg" xmlns:xlink="http://www.w3.org/1999/xlink" x="0px" y="0px"
	 width="100%" viewBox="0 0 679 119" enable-background="new 0 0 679 119" xml:space="preserve">
<path fill="none" opacity="1.000000" stroke="none" 
	d="
M508.000000,120.000000 
	C340.166656,120.000000 172.833313,119.985382 5.500061,120.093842 
	C1.750674,120.096268 0.885289,119.251686 0.901773,115.499565 
	C1.064314,78.500282 1.044642,41.499844 0.915873,4.500293 
	C0.905489,1.516634 1.518338,0.918138 4.500032,0.919312 
	C228.500000,1.007537 452.500000,1.007537 676.499939,0.919312 
	C679.481689,0.918138 680.094360,1.516657 680.084106,4.500289 
	C679.955688,41.833179 679.955750,79.166817 680.084106,116.499710 
	C680.094360,119.483345 679.482544,120.088829 676.499817,120.082840 
	C620.500061,119.970207 564.500000,120.000000 508.000000,120.000000 
z"/>
<path fill="#ED1A46" opacity="1.000000" stroke="none" 
	d="
M364.741089,87.971405 
	C359.393616,90.946678 356.479248,87.069458 353.158478,84.634148 
	C349.809082,82.177849 350.321259,78.411636 351.367157,75.529655 
	C356.645905,60.983887 366.000458,50.168499 381.210480,45.387600 
	C384.235657,44.436722 388.052704,43.964989 390.492584,45.437725 
	C394.647186,47.945461 395.348267,45.437176 396.673431,42.767906 
	C401.698059,32.646610 407.964813,23.285320 414.497772,14.103975 
	C415.735657,12.364266 417.495636,10.988738 419.053986,9.485868 
	C422.099548,6.548671 424.128510,9.437336 426.471863,10.769852 
	C429.145447,12.290140 428.119873,14.294221 427.283630,16.245949 
	C424.504669,22.731691 420.519257,28.542488 416.892639,34.549637 
	C416.282196,35.560791 415.701660,36.480419 415.679016,37.903141 
	C421.474762,37.873573 426.799225,38.439575 431.548706,42.812977 
	C438.416992,49.137486 440.519623,56.417126 437.869720,64.969696 
	C434.016846,77.404884 425.962036,86.314972 413.727173,91.036171 
	C409.725647,92.580284 405.834839,92.973305 401.842712,89.596878 
	C396.934845,85.445930 395.745789,80.617516 397.548279,75.059982 
	C400.506042,65.940437 406.263641,58.330296 411.855804,50.692608 
	C412.822937,49.371708 414.366882,48.455231 414.337433,45.930885 
	C411.238190,46.256016 407.995544,46.448879 406.189392,49.538044 
	C397.034943,65.195274 388.173920,81.000351 383.578888,98.766953 
	C383.328430,99.735367 382.805847,100.605606 383.273529,101.577110 
	C383.998566,103.083252 384.983521,104.821548 382.993042,105.816315 
	C381.350555,106.637161 380.426392,104.782104 379.340179,103.831772 
	C373.482361,98.706863 376.621094,92.658936 377.600037,86.835640 
	C377.967804,84.648033 379.782318,82.676727 378.432159,79.894119 
	C373.589447,81.925194 370.061157,86.152222 364.741089,87.971405 
z"/>
<path fill="#ED1A46" opacity="1.000000" stroke="none" 
	d="
M288.289978,39.066483 
	C283.453888,38.605854 280.829071,42.203461 277.696838,44.259441 
	C272.916626,47.397118 268.684998,51.399765 264.376587,55.211605 
	C262.802216,56.604515 261.502655,58.393581 262.327881,60.877907 
	C262.765320,62.194748 262.247192,63.469414 260.911896,63.875938 
	C259.634308,64.264893 258.403015,63.982346 257.347626,62.784676 
	C253.613083,58.546669 254.146042,53.159313 259.168915,47.383068 
	C260.914368,45.375820 262.713104,43.310398 264.848541,41.773048 
	C267.551147,39.827351 268.845184,38.490452 266.684387,34.853683 
	C264.993439,32.007725 267.922546,28.967001 269.859436,26.808622 
	C278.404724,17.286146 287.852753,8.873588 300.746216,5.730236 
	C315.065735,2.239221 325.130035,7.891943 328.004669,23.721632 
	C329.730560,33.225266 327.242554,42.197849 323.875702,50.831779 
	C317.934235,66.068092 309.688324,80.060913 297.846649,91.462601 
	C290.811615,98.236252 283.358154,104.775711 273.777039,108.065720 
	C262.109497,112.072189 250.681488,109.935066 243.967468,98.385857 
	C240.787460,92.915695 242.790726,86.609718 247.516144,84.760063 
	C249.085037,84.145958 250.146881,83.752151 251.519424,84.987556 
	C252.837082,86.173531 253.213928,87.231094 252.136780,88.800270 
	C251.607635,89.571114 251.305420,90.611168 251.228455,91.556099 
	C251.050507,93.740631 248.478699,96.189850 250.767944,97.981842 
	C252.850159,99.611778 255.727646,100.213699 258.622162,99.728996 
	C267.771851,98.196815 275.356354,93.407494 282.478455,87.924332 
	C295.603333,77.819778 305.586578,65.081467 312.432831,50.014324 
	C316.489441,41.086624 320.250854,32.004295 320.021393,21.859705 
	C319.885559,15.855696 316.379089,13.129231 310.439728,14.207948 
	C299.829407,16.135006 290.881714,21.180855 283.010284,28.268950 
	C285.687653,28.918438 285.710754,28.998537 290.916779,27.496490 
	C292.926361,26.916683 294.677704,26.755768 296.585876,27.853521 
	C298.653687,29.043060 299.454712,31.143515 299.713531,33.037067 
	C299.926971,34.598652 298.023895,35.645397 296.385101,36.224430 
	C294.858795,36.763718 293.363708,37.391426 291.484711,38.011307 
	C290.356781,38.552826 289.516479,38.852974 288.289978,39.066483 
z"/>
<path fill="#ED1A46" opacity="1.000000" stroke="none" 
	d="
M288.099976,39.394405 
	C288.783661,38.779198 289.611328,38.445698 290.776794,38.077301 
	C290.420166,39.048187 289.924957,40.403942 288.099976,39.394405 
z"/>
<path fill="#000000" opacity="1.000000" stroke="none" 
	d="
M416.239990,77.265396 
	C413.022522,79.336540 410.699402,82.584961 406.293488,81.793800 
	C410.803284,71.502983 416.193329,61.885475 422.054749,52.542252 
	C423.638306,50.018044 424.963135,47.883732 422.181976,45.216442 
	C429.992859,45.459045 431.510834,48.090080 430.352264,55.506702 
	C428.883942,64.906403 424.091888,71.759323 416.239990,77.265396 
z"/>
<path fill="#000000" opacity="1.000000" stroke="none" 
	d="
M380.898987,55.584938 
	C383.622314,55.239010 385.825409,53.653950 388.497528,54.101883 
	C382.062042,63.473915 374.449768,71.122810 362.780182,75.824585 
	C367.863739,67.189278 373.538788,60.878002 380.898987,55.584938 
z"/>
</svg>