<svg version="1.1" id="Layer_1" xmlns="http://www.w3.org/2000/svg" xmlns:xlink="http://www.w3.org/1999/xlink" x="0px" y="0px"
	 width="100%" viewBox="0 0 679 119" enable-background="new 0 0 679 119" xml:space="preserve">
<path fill="none" opacity="1.000000" stroke="none" 
	d="
M652.000000,120.000000 
	C436.166656,120.000000 220.833328,119.988625 5.500046,120.093513 
	C1.750778,120.095337 0.885289,119.251686 0.901773,115.499565 
	C1.064314,78.500282 1.044642,41.499844 0.915873,4.500293 
	C0.905489,1.516634 1.518338,0.918138 4.500032,0.919312 
	C228.500000,1.007537 452.500000,1.007537 676.499939,0.919312 
	C679.481689,0.918138 680.094360,1.516657 680.084106,4.500289 
	C679.955688,41.833179 679.955750,79.166817 680.084106,116.499710 
	C680.094360,119.483345 679.496521,120.187431 676.497070,120.089104 
	C668.505676,119.827095 660.500000,120.000000 652.000000,120.000000 
z"/>
<path fill="#ED1A46" opacity="1.000000" stroke="none" 
	d="
M215.395813,60.533478 
	C217.015488,59.746235 218.016815,58.473125 219.576630,57.693829 
	C221.157425,56.904053 222.247864,55.033234 224.271652,56.782612 
	C226.176743,58.429379 226.558640,60.151310 225.231522,62.473011 
	C224.648758,63.492523 223.509659,64.623894 224.382004,66.638512 
	C229.023560,64.891953 231.395889,60.172165 235.545212,57.891506 
	C236.858368,57.169735 237.662979,54.927757 239.545227,57.035549 
	C240.925064,58.580727 242.838791,59.612114 241.318832,62.466576 
	C239.646698,65.606781 237.519897,68.619469 236.892838,72.273483 
	C236.746231,73.127800 235.347977,73.977875 236.703232,74.778198 
	C237.606018,75.311348 238.641678,74.944000 239.379593,74.105080 
	C240.023468,73.373055 240.813995,72.806679 240.989548,71.682777 
	C241.906143,65.814758 245.714218,61.736641 249.712448,57.776768 
	C251.074997,56.427277 252.326950,55.083660 254.327896,56.829681 
	C256.122131,58.395306 256.383270,59.687992 254.798248,61.868969 
	C251.927734,65.818726 249.015717,69.823822 247.508957,74.268105 
	C256.086334,75.672501 259.442810,69.393959 262.927765,63.309681 
	C264.305634,60.904041 265.668060,58.488537 266.981628,56.047424 
	C267.702972,54.706871 268.603424,53.001797 270.071747,53.302971 
	C271.309021,53.556759 271.951843,55.318333 272.010284,56.868160 
	C272.034576,57.511940 272.192749,58.150665 272.290497,58.794804 
	C274.815033,59.084595 275.481873,56.568893 277.317383,55.781971 
	C279.242310,54.956711 280.362915,53.124046 282.873871,55.187023 
	C285.306763,57.185852 284.838562,59.227661 283.856720,61.205307 
	C281.705383,65.538597 279.649750,69.882553 277.889496,75.126968 
	C281.623474,73.933632 283.988800,72.831375 285.192535,69.063812 
	C287.368927,62.252007 292.976990,58.285583 299.200256,55.414139 
	C302.924530,53.695728 306.205414,55.837921 308.915009,58.067818 
	C311.558960,60.243702 312.297333,62.662098 310.415344,66.545677 
	C305.485016,76.719528 301.513306,87.377602 293.079895,95.397743 
	C289.152740,99.132492 282.929108,100.182518 278.968140,97.994179 
	C273.165131,94.788177 270.639191,90.418823 271.627594,85.033249 
	C273.729950,85.733749 274.472626,87.163696 275.180817,89.232170 
	C277.017212,94.595810 279.573975,95.098434 284.523834,92.161148 
	C289.859314,88.995018 292.677917,83.845100 296.484741,78.303017 
	C292.542450,79.387650 289.110870,81.704338 286.214996,77.841347 
	C285.233459,76.532005 284.224945,78.185760 283.205261,78.353775 
	C280.841675,78.743248 278.873199,81.169571 276.025879,78.690895 
	C272.910248,75.978668 272.447235,72.877701 273.322418,69.345032 
	C273.554718,68.407341 274.057190,67.578407 273.312042,64.751274 
	C269.300659,69.292137 266.021057,73.224861 262.497253,76.925072 
	C259.593170,79.974541 248.177658,80.604706 244.671280,78.150848 
	C243.821762,77.556320 243.161621,76.151222 241.985733,77.990814 
	C240.058777,81.005432 237.441605,84.101372 233.645172,82.637169 
	C229.580154,81.069405 228.164856,77.156212 229.138245,72.410385 
	C225.967087,73.407555 224.830353,76.392540 222.193420,77.504776 
	C220.067810,78.401344 218.499313,81.213852 215.739777,79.166328 
	C213.182236,77.268684 212.818604,74.686157 214.048187,71.445511 
	C214.286179,70.864738 214.387222,70.761742 214.387222,70.761742 
	C214.468048,70.607880 214.302628,70.559753 213.604187,70.466484 
	C209.923935,72.775894 208.014175,76.575508 205.075211,79.449516 
	C203.818329,80.678627 202.586624,81.789932 200.834885,80.300354 
	C199.356583,79.043320 198.438019,77.835976 199.677109,75.651421 
	C203.126526,69.569885 205.945541,63.129288 210.615952,57.778328 
	C213.351410,54.644306 214.430481,55.878380 214.948944,59.550293 
	C214.449005,60.405144 214.905685,59.639435 214.612091,60.237968 
	C214.535583,60.393944 214.697372,60.440250 215.395813,60.533478 
z"/>
<path fill="#ED1A46" opacity="1.000000" stroke="none" 
	d="
M127.047195,83.216400 
	C126.389748,88.890968 130.770691,88.449295 134.011505,89.553116 
	C132.684204,93.334465 129.469208,92.387825 127.421440,91.615509 
	C122.051727,89.590309 121.252632,84.233444 123.850517,71.747597 
	C122.848915,71.173843 122.379723,72.076881 121.966026,72.588402 
	C116.432426,79.430458 109.441200,80.466743 101.524033,77.757652 
	C100.448479,77.389626 99.624794,76.409721 98.979843,78.387367 
	C97.395226,83.246361 94.658379,87.834557 95.706154,93.245926 
	C95.852516,94.001816 95.877411,94.599869 95.186897,94.844330 
	C94.158195,95.208519 93.258461,94.811676 92.506004,94.010986 
	C89.880707,91.217422 89.341904,87.625580 90.215363,84.325150 
	C90.943710,81.572960 90.618690,78.864708 91.396454,75.928116 
	C87.577728,76.726707 84.954498,79.383194 81.442696,80.347427 
	C76.730042,81.641380 73.267166,80.805260 69.826515,77.439720 
	C66.393227,74.081383 66.193344,70.332909 68.259384,66.662674 
	C71.638687,60.659523 75.580276,55.111977 82.660126,52.628052 
	C85.881721,51.497776 87.825562,52.306362 90.108894,54.487358 
	C92.460838,56.733898 92.537910,59.284145 91.605568,61.761574 
	C89.430229,67.541908 83.999016,72.738487 77.225731,70.628830 
	C76.127800,70.286865 75.552750,69.908875 74.948654,71.196030 
	C74.452255,72.253693 73.512489,73.381218 74.277222,74.375664 
	C74.717529,74.948227 76.218605,75.198936 77.013420,74.926666 
	C83.231255,72.796715 90.553123,72.306396 93.202385,64.572571 
	C93.304359,64.274879 93.550507,63.847298 93.790146,63.802120 
	C100.720840,62.495621 101.486755,55.138889 105.957947,51.358250 
	C109.204865,48.612801 111.658905,47.706841 114.011940,51.905624 
	C114.578453,52.916519 115.117783,53.204777 115.790398,52.426338 
	C120.006966,47.546329 126.010490,46.177898 131.761505,44.778118 
	C138.370026,43.169617 141.147507,37.753334 144.919342,33.244911 
	C146.162720,31.758722 147.078720,30.002939 148.205841,28.414000 
	C149.388870,26.746262 150.713867,26.822021 152.507523,27.743359 
	C154.667297,28.852743 154.282440,30.433704 153.527084,31.849411 
	C152.164764,34.402710 150.468414,36.777790 148.252579,40.264187 
	C152.089905,38.532940 155.147324,39.325275 158.109573,38.193184 
	C159.948959,37.490219 162.526077,37.398434 163.007614,40.669296 
	C163.484955,43.911747 161.617355,43.796867 159.213181,44.109158 
	C154.509521,44.720127 150.123199,46.914379 145.260376,47.105541 
	C143.251190,47.184528 142.579803,49.210670 141.611908,50.767677 
	C135.364319,60.817944 130.810501,71.623009 127.047195,83.216400 
z"/>
<path fill="#ED1A46" opacity="1.000000" stroke="none" 
	d="
M375.292267,74.211090 
	C373.504272,75.966270 371.912079,77.330070 370.129791,78.573250 
	C367.474670,80.425301 364.993988,80.835289 362.470062,78.884392 
	C359.832886,76.845924 358.006348,73.973282 359.254913,70.670769 
	C361.741882,64.092697 365.890106,58.522301 371.507111,54.250664 
	C376.434357,50.503582 381.989044,51.667839 386.986420,53.780334 
	C389.576172,54.875072 392.015564,57.385323 389.985809,61.361805 
	C387.995636,65.260704 386.564117,69.455185 385.086273,73.591003 
	C384.914734,74.071014 383.135498,75.801025 385.664978,75.967567 
	C386.917603,76.050049 387.728699,75.940979 388.039978,74.286873 
	C389.683105,65.555748 394.997375,58.922756 400.862366,52.672752 
	C402.728699,50.683895 405.080750,48.980251 407.845184,50.506577 
	C410.274963,51.848152 411.758087,54.263008 410.941620,57.211155 
	C410.116638,60.190140 409.184235,63.244308 406.158630,64.902992 
	C405.898987,65.045334 405.373718,65.088593 405.190155,64.928139 
	C399.737305,60.161682 400.053772,67.009674 398.007874,68.688881 
	C396.368408,70.034492 395.511230,72.303268 395.057159,75.225052 
	C403.071655,71.552055 410.375824,68.688499 414.238312,60.036926 
	C417.802002,52.054665 423.331116,44.961376 427.812683,37.369175 
	C428.908813,35.512260 429.899567,34.185188 431.963379,35.574932 
	C433.705566,36.748116 434.670746,38.174576 433.161377,40.581215 
	C429.263702,46.796093 425.682098,53.208935 421.949402,59.528011 
	C421.551880,60.200966 420.684174,60.697105 421.628998,61.932205 
	C424.064880,61.284527 425.157013,58.833885 427.061340,57.485367 
	C428.191711,56.684925 428.917542,53.958370 430.764709,55.792095 
	C432.066498,57.084377 432.734375,59.130676 431.306396,61.208309 
	C428.767944,64.901611 425.793457,68.128105 421.829376,70.978767 
	C424.354004,72.890144 427.044464,74.105743 429.933167,75.114670 
	C431.651611,75.714874 434.489410,76.186028 433.802460,78.735474 
	C433.124451,81.251907 430.200439,80.251617 428.696014,79.837425 
	C424.645386,78.722237 420.748962,77.000648 416.863922,75.349052 
	C414.817932,74.479271 413.469818,73.760704 412.846527,76.976677 
	C412.287079,79.863167 410.946472,82.594666 411.792938,86.116333 
	C405.849335,83.872292 409.054810,78.828499 407.577118,75.179123 
	C403.878693,76.126190 401.186310,79.232140 397.441864,80.309692 
	C395.041473,81.000450 393.041107,81.565697 391.087128,79.624054 
	C390.309723,78.851532 390.033356,78.656502 388.583527,79.407669 
	C384.201233,81.678154 379.995636,79.714943 379.204498,74.898422 
	C378.483582,70.509178 377.315826,72.136337 375.292267,74.211090 
z"/>
<path fill="#ED1A46" opacity="1.000000" stroke="none" 
	d="
M563.395874,66.533432 
	C567.240662,63.507027 570.782043,60.310524 574.373657,57.171600 
	C574.956787,56.661930 576.217041,55.931767 576.398804,56.105297 
	C579.942505,59.489025 580.831116,55.329517 582.553833,53.936020 
	C590.647705,47.388882 602.220337,50.617523 604.602356,60.147617 
	C605.709778,64.578255 601.275879,74.405777 596.656250,77.702904 
	C595.998108,78.172653 595.233765,78.491364 594.559937,78.941757 
	C588.086304,83.268967 586.169861,83.187386 580.427734,78.288834 
	C577.716003,80.119476 576.034424,84.582436 571.842285,82.780838 
	C568.091003,81.168694 566.676697,77.565002 566.870728,73.523033 
	C564.244263,73.712860 563.163025,75.882874 561.388672,76.966949 
	C559.302246,78.241669 557.249512,81.486748 554.626709,79.560532 
	C551.919434,77.572311 550.865967,74.258224 553.033569,70.460274 
	C553.551025,69.594917 553.094177,70.360558 553.387817,69.762039 
	C553.464355,69.606087 553.302612,69.559822 552.604126,69.466560 
	C549.194824,72.899178 546.008179,76.429771 542.983276,80.093964 
	C541.867065,81.446037 540.524048,81.228081 539.495789,80.684540 
	C537.242188,79.493332 537.538452,77.109619 538.359680,75.415207 
	C540.343201,71.322487 542.736023,67.424438 545.041138,63.493225 
	C545.864929,62.088299 547.013245,60.872860 547.828064,59.463718 
	C548.721130,57.919315 549.343018,55.842064 551.557861,56.328495 
	C553.852905,56.832554 553.269836,59.205227 553.306946,60.970341 
	C555.576660,60.699387 556.399475,59.071709 557.499146,57.942169 
	C559.013184,56.386944 560.576233,55.253719 562.684509,56.394836 
	C564.734924,57.504578 563.981384,59.637482 563.923279,61.365391 
	C563.880981,62.623814 563.319092,63.864769 562.952393,65.521393 
	C562.713806,66.135254 562.612671,66.238220 562.612671,66.238220 
	C562.531921,66.392075 562.697388,66.440178 563.395874,66.533432 
z"/>
<path fill="#ED1A46" opacity="1.000000" stroke="none" 
	d="
M487.208191,77.293549 
	C484.763641,79.585899 482.173492,80.963051 479.356995,81.791740 
	C476.803680,82.542976 474.127594,81.975952 472.626160,79.880089 
	C471.156006,77.827843 469.252441,75.979866 470.624725,72.397743 
	C472.424377,67.699951 475.434692,63.913151 477.831970,59.684246 
	C478.453186,58.588341 479.103760,57.509056 479.920898,56.114986 
	C475.866455,55.989799 473.467590,57.158878 471.856781,60.805557 
	C469.751984,65.570541 468.451874,71.185730 461.722809,72.384216 
	C460.165253,72.661629 458.862152,75.589561 462.137360,77.071373 
	C464.603180,78.186996 467.128235,79.452950 467.984406,82.616478 
	C457.325378,80.781021 457.396851,80.812332 452.913574,91.045700 
	C452.132751,92.827965 452.007629,94.516174 452.007141,96.317841 
	C452.006744,97.861984 451.929108,99.857796 450.110870,99.717682 
	C448.366669,99.583290 445.981720,98.946960 446.050537,96.281685 
	C446.114014,93.821808 445.657501,91.367508 446.496521,88.886086 
	C447.292725,86.531395 449.029510,84.218964 447.264252,81.412987 
	C446.897400,80.829872 447.611603,78.918671 448.368866,78.378922 
	C454.384430,74.091362 455.366150,66.789413 458.941742,61.061226 
	C460.498657,58.567051 461.859406,55.973858 463.759552,53.688454 
	C465.125732,52.045185 467.318390,51.163761 468.567993,52.163383 
	C472.122192,55.006683 474.848694,52.116821 477.937134,51.583591 
	C482.637421,50.772091 487.376373,49.765385 491.374359,53.826038 
	C494.995941,57.504410 495.519684,61.457787 494.160919,66.403259 
	C492.956757,70.786026 490.545410,74.023697 487.208191,77.293549 
z"/>
<path fill="#ED1A46" opacity="1.000000" stroke="none" 
	d="
M176.604187,72.466484 
	C172.239761,74.702179 168.772079,78.049591 164.341248,79.883888 
	C161.541550,81.042931 158.827057,82.038651 156.079819,79.639671 
	C153.252228,77.170517 152.529755,74.317337 154.064850,70.908707 
	C157.482758,63.319374 162.049515,56.532406 168.433655,51.124451 
	C171.791016,48.280449 175.333847,50.135685 177.421158,55.635235 
	C183.730347,50.650742 192.530670,49.256954 197.032730,52.583305 
	C203.612000,57.444389 203.598389,65.706398 197.142380,74.291382 
	C195.246017,76.813087 192.741501,78.789589 190.037445,80.375549 
	C183.618484,84.140381 178.104736,81.322189 177.049698,73.458420 
	C177.286179,72.864738 177.387238,72.761749 177.387238,72.761749 
	C177.468033,72.607872 177.302628,72.559753 176.604187,72.466484 
z"/>
<path fill="#ED1A46" opacity="1.000000" stroke="none" 
	d="
M621.265625,66.235352 
	C617.560303,70.269081 614.148682,74.092026 610.637939,77.821548 
	C609.123535,79.430321 607.199280,81.850494 605.020447,80.206940 
	C602.851929,78.571198 601.468445,76.075279 603.558044,72.697159 
	C606.819946,67.423882 609.848633,62.013744 613.463501,56.953648 
	C614.690796,55.235626 615.304565,52.760571 618.011414,53.126602 
	C620.656860,53.484333 619.628906,56.312332 620.408020,57.959637 
	C628.465576,53.029037 628.465576,53.029037 630.527893,65.801476 
	C633.235901,65.715858 633.455688,63.033932 634.905212,61.669678 
	C637.904175,58.847115 640.318970,55.403740 644.079956,53.376892 
	C647.488953,51.539761 650.601074,51.396446 653.599854,54.113689 
	C656.817566,57.029305 655.862488,60.118401 654.204041,63.392262 
	C651.272644,69.179176 647.058167,71.794044 641.128174,70.521919 
	C636.725891,69.577538 638.725403,73.348289 637.047485,74.875198 
	C643.014221,75.258957 647.637207,72.872818 652.192383,70.280113 
	C653.466003,69.555183 654.651917,68.651077 655.980652,68.059364 
	C656.580750,67.792107 657.194702,66.877998 658.123108,67.680717 
	C659.020020,68.456177 659.251831,69.469261 658.831055,70.365227 
	C658.068420,71.988747 657.341431,73.730682 655.666504,74.701775 
	C652.006836,76.823586 648.479126,79.125587 644.309692,80.325424 
	C637.105103,82.398689 631.796997,79.124458 631.004761,71.771423 
	C630.591125,67.932098 626.326355,66.715797 625.136353,63.241375 
	C624.929504,62.637428 622.825745,65.066490 621.265625,66.235352 
z"/>
<path fill="#ED1A46" opacity="1.000000" stroke="none" 
	d="
M349.199890,55.916138 
	C355.793243,54.061104 360.623413,58.758362 358.807129,65.210983 
	C356.843811,72.186211 348.268341,82.568527 337.720123,81.004204 
	C336.258362,80.787415 334.870117,79.911224 333.707581,82.258522 
	C332.956360,83.775345 329.056549,80.818871 329.015869,78.248970 
	C328.939880,73.452400 330.276581,69.304451 332.787933,64.974358 
	C337.280304,57.228535 341.392944,49.284668 346.456787,41.850231 
	C348.742462,38.494549 351.751770,35.976852 354.461884,33.114258 
	C356.314514,31.157377 358.166870,30.420279 360.613922,32.956326 
	C363.272064,35.711128 360.820251,36.794369 359.412781,38.009892 
	C354.228333,42.487244 350.807800,48.301617 347.104156,53.893776 
	C346.732544,54.454842 345.336212,55.427429 346.568176,56.319809 
	C347.008850,56.639038 348.059021,56.116943 349.199890,55.916138 
z"/>
<path fill="#ED1A46" opacity="1.000000" stroke="none" 
	d="
M41.469429,83.884483 
	C39.233459,71.324623 46.022831,61.889481 51.516491,52.102680 
	C54.385300,46.991982 57.887371,42.240219 60.890415,37.199444 
	C61.886303,35.527790 62.872265,34.303684 64.693268,35.414078 
	C66.390549,36.449028 67.830223,37.814930 66.331497,40.300472 
	C62.146461,47.241100 58.127907,54.282104 53.762943,61.764652 
	C57.075974,61.746990 57.898254,58.923653 59.781796,57.740505 
	C61.062073,56.936295 61.908691,54.143650 63.525043,55.517345 
	C65.142426,56.891911 65.743095,59.195412 63.960022,61.692360 
	C61.447502,65.210793 58.484489,68.156410 54.892918,71.032822 
	C57.661808,73.135674 60.727989,74.372597 63.899952,75.496147 
	C65.368744,76.016426 67.374496,76.628807 66.874481,78.812805 
	C66.380867,80.968826 64.363899,79.993042 63.113083,79.930344 
	C58.283482,79.688286 54.130863,77.255966 49.844662,75.339188 
	C47.779873,74.415817 46.269958,73.766159 45.892334,77.004059 
	C45.636196,79.200272 44.687138,81.308327 44.292892,83.499878 
	C44.160904,84.233597 45.711369,85.328499 44.058018,85.786415 
	C42.999195,86.079674 42.451126,84.847977 41.469429,83.884483 
z"/>
<path fill="#ED1A46" opacity="1.000000" stroke="none" 
	d="
M517.342163,65.754425 
	C516.019287,61.994873 514.259399,62.764763 512.633850,64.913490 
	C508.821899,69.952301 504.258392,74.276062 499.760315,78.655060 
	C498.779999,79.609413 498.019135,82.064819 495.871674,80.297272 
	C494.084015,78.825867 492.001495,77.194702 493.266846,74.486977 
	C496.658173,67.229691 501.382416,60.752251 505.609558,53.985706 
	C506.464874,52.616573 508.013153,52.784313 509.239319,53.157890 
	C511.239899,53.767433 511.091003,55.654125 511.007355,57.341747 
	C511.467804,57.341747 511.841980,57.459644 512.006531,57.323750 
	C513.888123,55.770111 515.948853,53.044998 518.259644,54.360931 
	C520.522888,55.649727 521.768250,58.702263 520.975647,61.741894 
	C520.190674,64.752312 522.463257,66.329597 524.435913,68.049660 
	C520.786804,70.123138 519.035461,68.487030 517.342163,65.754425 
z"/>
<path fill="#ED1A46" opacity="1.000000" stroke="none" 
	d="
M263.768433,47.728943 
	C261.413391,50.414726 258.323090,52.324348 260.632874,56.482964 
	C261.625732,58.270538 259.480255,58.194885 258.632874,57.791798 
	C256.591034,56.820526 255.516144,54.842144 255.089844,52.739647 
	C254.363876,49.159187 259.373444,41.056992 262.814484,40.145073 
	C263.806915,39.882065 265.272339,39.438583 265.866852,40.815300 
	C266.271606,41.752636 267.570648,42.599907 266.568878,43.919453 
	C265.688690,45.078835 264.868835,46.283989 263.768433,47.728943 
z"/>
<path fill="#000000" opacity="1.000000" stroke="none" 
	d="
M296.885925,68.612000 
	C295.836273,69.621826 295.026978,70.358978 293.933655,71.354843 
	C294.516876,67.259575 295.113586,66.576744 299.032990,65.110542 
	C299.788208,67.011063 297.617065,67.181023 296.885925,68.612000 
z"/>
<path fill="#000000" opacity="1.000000" stroke="none" 
	d="
M215.491669,60.494873 
	C215.234329,61.009800 215.045074,61.919407 214.278976,61.453434 
	C214.114670,61.353497 214.340744,60.611774 214.651459,60.047501 
	C215.044189,60.054649 215.172455,60.180000 215.491669,60.494873 
z"/>
<path fill="#000000" opacity="1.000000" stroke="none" 
	d="
M300.980347,62.728996 
	C301.774628,62.859337 302.207520,63.370960 301.403015,63.777061 
	C300.608093,64.178329 300.424011,63.699638 300.980347,62.728996 
z"/>
<path fill="#000000" opacity="1.000000" stroke="none" 
	d="
M213.508331,70.505127 
	C213.765686,69.990211 213.954926,69.080566 214.721039,69.546570 
	C214.885330,69.646500 214.659241,70.388229 214.348511,70.952507 
	C213.955795,70.945351 213.827530,70.820000 213.508331,70.505127 
z"/>
<path fill="#000000" opacity="1.000000" stroke="none" 
	d="
M119.948463,60.303764 
	C118.962883,69.687874 112.036720,74.617317 101.699173,73.713943 
	C104.035713,66.286507 113.139748,59.385258 119.948463,60.303764 
z"/>
<path fill="#000000" opacity="1.000000" stroke="none" 
	d="
M128.302750,60.276932 
	C127.600471,61.751747 127.114479,62.929054 126.500069,64.417442 
	C125.314232,61.350315 125.652016,57.784836 122.010925,56.347267 
	C121.004768,55.950016 120.265587,54.633568 122.310272,54.019360 
	C125.656578,53.014160 128.969925,51.899288 133.117996,50.567066 
	C131.308472,54.270489 129.913742,57.124950 128.302750,60.276932 
z"/>
<path fill="#000000" opacity="1.000000" stroke="none" 
	d="
M85.634094,59.425354 
	C85.176483,62.722435 83.491707,64.824760 80.099457,65.670151 
	C80.256668,62.059322 82.637733,60.457767 85.634094,59.425354 
z"/>
<path fill="#000000" opacity="1.000000" stroke="none" 
	d="
M371.211304,64.293892 
	C374.638550,61.513092 376.542328,57.071899 382.025970,57.108341 
	C377.288422,62.512016 373.666290,68.352905 367.142029,72.029037 
	C367.410309,68.645935 369.762817,66.890472 371.211304,64.293892 
z"/>
<path fill="#000000" opacity="1.000000" stroke="none" 
	d="
M587.005188,75.867584 
	C586.909363,69.883873 591.722778,66.046188 593.686462,60.866379 
	C594.024109,59.975739 594.514465,58.779385 595.245361,58.477604 
	C596.736694,57.861855 594.881226,54.244186 597.820007,55.532658 
	C599.798950,56.400299 600.289612,58.291096 599.804504,60.572380 
	C598.259644,67.837349 593.540527,72.424240 587.005188,75.867584 
z"/>
<path fill="#000000" opacity="1.000000" stroke="none" 
	d="
M589.827148,56.183449 
	C587.683472,59.696381 585.415222,62.537067 583.801453,65.710564 
	C581.466492,70.302116 579.015747,74.624466 573.135864,77.062424 
	C575.219299,72.469048 577.725647,68.527473 578.773804,64.230225 
	C580.075134,58.894680 583.560974,57.043732 588.547058,55.953590 
	C589.282654,55.832535 589.638855,55.746227 589.827148,56.183449 
z"/>
<path fill="#000000" opacity="1.000000" stroke="none" 
	d="
M589.109009,56.116478 
	C589.193848,55.164417 589.787659,54.821983 590.425354,55.251125 
	C591.015503,55.648304 590.351562,56.003468 589.876465,56.518738 
	C589.536682,56.576019 589.414124,56.445072 589.109009,56.116478 
z"/>
<path fill="#000000" opacity="1.000000" stroke="none" 
	d="
M563.491699,66.494843 
	C563.234314,67.009727 563.045105,67.919395 562.279053,67.453384 
	C562.114685,67.353432 562.340759,66.611763 562.651489,66.047485 
	C563.044250,66.054626 563.172546,66.179977 563.491699,66.494843 
z"/>
<path fill="#000000" opacity="1.000000" stroke="none" 
	d="
M552.508301,69.505157 
	C552.765686,68.990273 552.954895,68.080597 553.720947,68.546608 
	C553.885315,68.646561 553.659241,69.388237 553.348511,69.952515 
	C552.955750,69.945374 552.827454,69.820023 552.508301,69.505157 
z"/>
<path fill="#000000" opacity="1.000000" stroke="none" 
	d="
M489.961670,57.396095 
	C490.107758,67.104713 484.506104,72.230957 476.225922,76.414520 
	C478.291595,70.085388 481.756317,65.285477 484.484894,60.134499 
	C485.005035,59.152561 485.784363,58.421368 486.068451,57.184093 
	C487.003540,53.111549 488.523621,54.975719 489.961670,57.396095 
z"/>
<path fill="#000000" opacity="1.000000" stroke="none" 
	d="
M186.827209,56.183411 
	C184.703445,59.710285 182.836975,62.777981 180.747238,65.685181 
	C179.918442,66.838150 179.415329,70.649132 176.956207,66.650970 
	C176.374313,65.704926 175.663010,67.034286 175.071289,67.441132 
	C170.640656,70.487404 166.165894,73.447166 160.385605,75.042786 
	C161.244583,71.124939 163.974487,68.489334 165.438248,65.259567 
	C166.161530,63.663635 167.692780,63.782856 169.291107,64.612198 
	C170.858276,65.425377 173.201141,65.451569 173.600403,63.646500 
	C175.038422,57.145027 181.207642,58.325916 185.551178,55.953453 
	C186.282669,55.832504 186.638855,55.746212 186.827209,56.183411 
z"/>
<path fill="#000000" opacity="1.000000" stroke="none" 
	d="
M196.961670,57.396072 
	C197.107864,67.104759 191.505966,72.230850 183.225891,76.414604 
	C185.291595,70.085419 188.756256,65.285492 191.484848,60.134533 
	C192.005005,59.152592 192.784332,58.421425 193.068390,57.184128 
	C194.003403,53.111530 195.523560,54.975636 196.961670,57.396072 
z"/>
<path fill="#000000" opacity="1.000000" stroke="none" 
	d="
M176.508331,72.505127 
	C176.765686,71.990211 176.954926,71.080566 177.721039,71.546577 
	C177.885345,71.646507 177.659241,72.388229 177.348511,72.952507 
	C176.955795,72.945351 176.827530,72.820000 176.508331,72.505127 
z"/>
<path fill="#000000" opacity="1.000000" stroke="none" 
	d="
M186.109039,56.116447 
	C186.193878,55.164452 186.787613,54.822044 187.425278,55.251095 
	C188.015472,55.648201 187.351746,56.003422 186.876587,56.518669 
	C186.536789,56.575966 186.414200,56.445030 186.109039,56.116447 
z"/>
<path fill="#000000" opacity="1.000000" stroke="none" 
	d="
M649.215088,59.554367 
	C648.363586,63.105030 646.165894,64.654053 643.000854,66.307426 
	C643.625732,62.780151 644.916443,60.690853 648.043457,59.527180 
	C648.660339,59.223053 649.003235,59.130524 649.215088,59.554367 
z"/>
<path fill="#000000" opacity="1.000000" stroke="none" 
	d="
M648.508362,59.505112 
	C648.765747,58.990250 648.954956,58.080463 649.721069,58.546585 
	C649.885376,58.646553 649.659241,59.388256 649.348511,59.952530 
	C648.955811,59.945370 648.827515,59.820011 648.508362,59.505112 
z"/>
<path fill="#000000" opacity="1.000000" stroke="none" 
	d="
M338.755127,73.607178 
	C343.166931,67.918686 347.621521,62.798454 354.882782,59.532070 
	C352.226929,68.380440 346.343140,72.790787 339.142212,75.876732 
	C338.756165,76.042175 337.356964,76.590118 337.651093,75.052078 
	C337.732117,74.628357 338.253906,74.288910 338.755127,73.607178 
z"/>
</svg>