<svg xmlns="http://www.w3.org/2000/svg" viewBox="48.35 101.42 344.66 32.77"><path d="M56.46 111.14c.05.03.09 0 .12-.08s.08-.08.16.02c.04-.02.06-.06.05-.1-.01-.04 0-.08.05-.1.07-.04.11-.05.12-.02.01.03.04.06.08.09.04 0 .06-.02.05-.07-.01-.04 0-.07.05-.07.07 0 .11.03.12.08.01.06.03.1.05.12.04-.04.07-.09.07-.15s.03-.07.11-.05c.04.04.07.11.07.2.3.11.45.33.46.64.01.31-.04.56-.16.77.02.05.04.08.07.1.02.02.03.06.03.1-.07.44-.13.87-.19 1.3s-.21.8-.46 1.1c0 .05.01.08.03.1s.02.06 0 .1c-.02.11-.05.22-.08.33-.03.1-.05.22-.05.36-.09.14-.16.28-.19.44-.03.16-.09.32-.16.48-.04.18-.11.34-.21.48-.09.14-.15.3-.17.48-.03.05-.03.09-.02.12.01.04.02.08.02.12-.05.25-.13.49-.26.72-.12.23-.16.49-.12.79.59-.73 1.23-1.4 1.92-1.99s1.27-1.3 1.75-2.13c.05 0 .07 0 .07.02s.01.02.03.02c.09-.18.18-.36.26-.53.08-.17.22-.3.43-.39.11-.18.2-.36.26-.53.06-.17.14-.35.26-.53.18-.04.31-.15.4-.33a.56.56 0 0 1 .42-.32c.39.07.76.1 1.12.1s.77.03 1.25.07c.04-.02.08-.04.11-.07l.1-.1s.06.08.11.24c.11 0 .21.02.29.05.08.03.19.04.32.02 0 .05 0 .08.02.09s.02.04.02.09c.09-.02.17-.02.24 0 .07.02.13.05.19.08.06.04.12.07.17.1.06.04.13.05.22.05.04.07.09.14.13.22.04.08.13.13.24.15.04.18.14.34.27.46.14.13.21.3.21.53.02.07 0 .1-.07.1.09.21.13.44.1.69-.02.25.04.45.17.58-.07-.02-.11-.02-.13 0s-.06.02-.11 0c.02.25 0 .48-.07.68-.07.21-.06.46.03.76.21-.21.4-.49.56-.84.17-.35.36-.67.57-.94 0-.05-.02-.07-.05-.07-.04 0-.07-.02-.09-.07 0-.07.03-.13.11-.19.07-.06.12-.05.17.02.21-.3.4-.58.57-.84.17-.26.35-.55.53-.87.07-.04.14-.11.21-.21s.09-.18.07-.27c.25-.11.41-.34.48-.69.62-.73 1.2-1.49 1.73-2.26.54-.78 1.12-1.52 1.74-2.23-.02 0-.03-.04-.03-.14.43-.64.91-1.22 1.44-1.75.52-.52 1.04-1.09 1.54-1.68.04.03.07.03.07 0 0-.02.02-.02.07 0 .13-.2.32-.41.55-.62s.45-.41.65-.62c-.02.25-.12.42-.27.51-.16.09-.26.24-.28.45.16 0 .27-.07.33-.22s.13-.27.22-.36c.11-.09.22-.16.31-.21.09-.04.2-.1.31-.17.25-.21.47-.41.65-.62s.4-.4.65-.58c.02 0 .03-.02.03-.07.18-.07.32-.17.41-.31.09-.14.24-.22.45-.24.11.18.12.34.02.46-.11.13-.2.27-.3.43 0 .09.04.13.11.12s.1.03.1.12c-.18-.02-.31.05-.39.22-.08.17-.09.35-.02.53-.05.2-.14.33-.28.38.12.02.26.03.45.03s.34.06.45.17c.12-.04.24-.09.38-.14 0 .05.02.08.05.09s.06.04.08.09c-.09.09-.15.19-.19.29-.03.1-.08.19-.15.26.02.28-.04.57-.21.88-.16.31-.25.6-.27.87-.04.02-.09.06-.12.1s-.07.08-.12.1c-.09.27-.21.52-.35.74-.13.22-.28.44-.45.67-.04.18-.11.35-.18.5-.08.15-.16.29-.24.43-.08.14-.17.28-.26.41-.09.14-.15.31-.17.51-.16.16-.29.34-.4.53-.1.19-.22.38-.36.56 0 .05.02.06.07.05s.06.02.03.08c-.09.05-.16.1-.19.17s-.09.13-.18.17c-.05.21-.14.38-.28.52-.13.14-.26.3-.37.48-.12.2-.22.41-.33.62-.1.21-.2.42-.29.65-.21.07-.33.23-.37.48-.07.03-.14.07-.21.14-.37.71-.75 1.39-1.15 2.06s-.8 1.33-1.2 1.99c-.4.66-.79 1.34-1.18 2.02-.39.68-.74 1.39-1.07 2.13-.3.39-.54.8-.72 1.22-.18.42-.4.83-.65 1.22.07.11.09.2.07.24-.04.02-.07.02-.08 0s-.06-.02-.12 0c-.16.39-.34.75-.53 1.1s-.42.68-.67.99c-.11.51-.34.96-.67 1.36-.33.4-.69.74-1.08 1.01-.39.05-.74.09-1.07.14-.32.05-.58-.06-.79-.31a1.08 1.08 0 0 0-.36 0c-.1.02-.21.04-.32.07-.13-.25-.36-.41-.69-.48-.32-.07-.55-.19-.69-.38-.32-.02-.56-.11-.74-.27-.17-.16-.31-.35-.43-.58-.04 0-.07.03-.08.09-.01.06-.05.07-.12.05-.05-.02-.06-.09-.04-.19.02-.1.02-.18 0-.22-.04-.05-.08-.08-.12-.1s-.07-.04-.12-.07c-.07-.25-.12-.58-.15-.98s-.09-.76-.16-1.08c.12-.37.14-.77.07-1.2-.07-.44-.04-.85.07-1.23-.35.27-.61.58-.79.92-.18.16-.35.32-.51.48-.16.16-.3.37-.41.62-.07 0-.11.02-.12.07-.01.05-.05.07-.12.07-.53.75-1.1 1.46-1.72 2.13-.61.66-1.23 1.34-1.85 2.02-.18.18-.34.35-.45.51-.12.16-.26.3-.45.41-.09.07-.17.14-.24.22-.07.08-.16.16-.27.22-.02.04-.02.07.02.07s.04.02.02.07c-.07 0-.12 0-.14.02s-.06 0-.1-.02c-.14.11-.31.23-.51.34-.21.11-.42.21-.64.27-.22.07-.44.1-.67.1s-.44-.06-.62-.17c0-.05.01-.08.04-.1.02-.02.03-.06.03-.1-.07-.02-.1 0-.09.07.01.07-.02.09-.09.07 0-.04 0-.06-.02-.05s-.02 0-.02-.02c-.04-.03-.06-.07-.03-.14.02-.07.08-.12.17-.14-.05-.16-.16-.25-.36-.26s-.35 0-.46.05c-.14.02-.23 0-.27-.09s-.16-.1-.34-.05c-.05-.07-.09-.14-.12-.21a.33.33 0 0 0-.16-.17c-.04.02-.04.06.02.1.06.05.06.08.02.1-.16-.02-.25-.11-.28-.26s-.12-.22-.31-.22c-.3-.27-.41-.62-.34-1.03-.07-.02-.1-.04-.1-.07s-.03-.05-.1-.07c.05-.14.06-.25.03-.34-.02-.09 0-.17.07-.24a.416.416 0 0 0-.1-.2c-.05-.05-.07-.1-.07-.17s.01-.13.03-.17c.05-.41.12-.86.21-1.34.09-.48.19-.9.31-1.27v-.22c0-.08.02-.15.07-.22.18-.52.33-1.06.43-1.61.1-.55.27-1.04.5-1.48 0-.11 0-.2.02-.26.01-.06 0-.13-.02-.22.14-.18.25-.42.32-.72.08-.3.15-.62.19-.96s.09-.69.12-1.05c.04-.35.1-.68.19-.98.14-.43.27-.88.39-1.34s.26-.89.4-1.3c-.03-.04-.06-.06-.11-.03-.04.02-.07-.01-.07-.1.18-.07.29-.22.32-.45.04-.23.08-.42.12-.58.18-.23.3-.54.36-.94.06-.4.2-.73.43-.98-.07-.07-.09-.14-.07-.21.16-.09.22-.23.19-.41-.03-.18 0-.33.12-.45 0-.07-.03-.1-.1-.1 0-.07.08-.1.24-.1.04-.07.07-.16.08-.27s.03-.23.05-.34c.18-.02.34-.05.45-.09.12-.03.26-.07.45-.12.02.14-.02.21-.12.21a.22.22 0 0 0-.22.14c.04.05.09.08.13.09s.09.04.14.09c.07-.05.13-.09.21-.14.07-.05.15-.06.24-.04-.02.07-.07.11-.12.12s-.09.04-.12.09c0 .05 0 .08.02.09s0 .04-.02.08c.07.05.11.04.13-.03.02-.07.07-.1.14-.1.09.07.16.11.22.12.06.01.14.02.26.02.04.07.06.13.03.17s-.01.09.03.14c.12-.02.2-.03.24-.03s.09-.02.14-.07c.09.05.16.07.21.07.04 0 .09.02.13.07-.02.05-.05.08-.08.09s-.04.04-.02.09c.04.02.09.01.13-.04.04-.04.12-.04.21 0 .02.05.04.08.05.1.01.03.03.06.06.1.04 0 .07-.02.07-.05 0-.04.02-.06.07-.09.07.02.13.05.17.09.04.03.11.05.21.05.02.02.03.07.02.14-.01.07-.04.11-.09.14Zm-4.97 19.7s-.06-.05-.05-.02c.01.03-.02.04-.08.02v.07s.09 0 .14-.07Zm.34.31c-.02-.11-.08-.15-.19-.1-.1.04-.18.09-.22.14.12.02.19.02.22 0 .03-.03.1-.04.19-.04Zm5.87-5.45c.09 0 .14-.03.15-.09s0-.11-.05-.15c-.14.04-.17.13-.1.24Zm3.36-11.84c0 .07-.02.14-.07.21-.04.07-.04.13 0 .17 0-.07.02-.14.07-.2.04-.07.04-.13 0-.17Zm4.36 15.64s-.03-.03-.03-.07h-.21v.1c.07 0 .11.01.14.03.02.02.06 0 .1-.07Zm.72-15.44s-.01-.08-.03-.09-.04-.04-.07-.08c0 .14.03.19.1.17Zm.89 14.89c-.07-.02-.11 0-.12.07-.01.07-.02.11-.02.14.02-.05.05-.08.09-.09.03-.01.05-.05.05-.12Zm6.35-11.08c-.09.02-.14.07-.15.14-.01.07-.04.14-.09.21.07-.04.12-.1.14-.17.02-.07.06-.13.1-.17Zm.69-9.98s-.06.08-.1.1-.07.07-.07.14c.07 0 .12-.03.17-.09.04-.06.04-.11 0-.15Zm1.06-1.69c-.09.07-.2.16-.33.27-.12.11-.17.21-.15.28.07-.09.15-.18.24-.26.09-.08.17-.18.24-.29Zm4.7-3.43s-.09.05-.13.14c.04.05.07.05.08 0 .01-.04.03-.09.05-.14ZM74.07 123.88s.07-.02.07-.05.02-.03.07.02c.09-.23.18-.45.28-.65.09-.21.19-.4.31-.58-.04-.05-.07-.06-.07-.04 0 .03-.02.03-.07 0-.02-.16 0-.3.07-.41.07-.11.09-.23.07-.34.09-.09.15-.19.17-.31.02-.11.07-.23.14-.34h.03l.07-.07s.03-.08.02-.1 0-.06.02-.1c.04-.11.1-.23.15-.34.06-.11.12-.23.19-.34.04-.11.1-.23.15-.34.06-.11.11-.23.16-.34.02-.05.06-.11.1-.19.05-.08.08-.16.1-.26.02-.02.04-.02.04 0s.01.03.03.03c.02-.14.08-.25.17-.34.09-.09.16-.19.21-.31.02-.02.03-.04.02-.07-.01-.02 0-.06.02-.1a.53.53 0 0 1 .1-.12c.04-.03.08-.08.1-.15.04-.11.09-.22.14-.31.05-.09.1-.2.17-.31.09-.11.18-.23.27-.36l.27-.39c.09-.18.17-.32.24-.41.05-.04.09-.1.14-.17.05-.07.08-.13.1-.17.09-.11.17-.26.24-.43.07-.17.16-.32.28-.43.02-.04.06-.08.1-.1.05-.02.08-.06.1-.1.11-.18.22-.37.31-.55.09-.18.21-.34.34-.48.11-.21.24-.4.38-.58.14-.18.27-.37.41-.55.14-.18.28-.37.41-.55.14-.18.28-.37.45-.55.04-.07.11-.14.19-.21.08-.07.14-.14.19-.21.04-.07.09-.14.14-.22.04-.08.1-.16.17-.22a.83.83 0 0 1 .24-.22.63.63 0 0 0 .21-.22c.04-.04.08-.09.09-.14s.03-.09.05-.14c.05-.05.09-.1.12-.16.04-.06.08-.11.12-.15v-.07c.09-.11.2-.23.33-.36l.36-.36v-.1c.04-.07.11-.13.19-.19a.38.38 0 0 0 .15-.26c.02.04.03.06.03.03s.01-.03.04-.03c.02-.04.04-.09.05-.12s.05-.06.12-.09c.04-.11.1-.21.17-.27s.14-.15.21-.24c.07-.16.15-.29.26-.39l.33-.33c.04-.18.13-.32.26-.4.13-.08.21-.2.26-.36.05 0 .07-.02.07-.07s.02-.04.07 0c.07-.16.16-.29.28-.39.11-.1.23-.22.34-.36.02.04.04.06.05.03s.04-.03.09-.03c.3-.3.65-.49 1.06-.58.09.07.22.11.39.12s.22.11.15.29c.05-.02.07-.02.07.02s.01.05.03.05c.25 0 .45-.07.58-.21.04.02.09.04.14.07.05.02.09.03.14.03.05.04.06.08.04.1-.03.02-.03.06 0 .1.07.02.11.02.12-.02.01-.03.04-.05.08-.05.11.14.21.27.28.41.07.14.07.29 0 .45.07.07.11.15.14.24.02.09.07.15.14.17-.09.09-.11.2-.07.34.05.14.03.24-.07.31 0 .11 0 .24.02.38s-.04.27-.15.38c.04.07.07.16.07.28-.04 0-.07-.01-.07-.04 0-.02-.03-.03-.07-.03-.16.09-.27.25-.34.48-.25.18-.43.41-.53.69s-.25.51-.43.72c-.09.23-.2.42-.33.58s-.25.33-.36.51c.03.05.03.08.02.09-.01.01-.02.04-.02.09-.04 0-.07.01-.07.03s-.02.02-.07 0l-.1.1c-.02.02-.03.07-.03.14-.21.27-.4.57-.6.89-.2.32-.4.62-.63.89-.28.32-.54.65-.81.98s-.53.66-.81.98c0 .05 0 .08-.02.09s-.02.04-.02.09c-.11.14-.24.26-.38.36s-.24.26-.31.46c-.32.32-.58.67-.79 1.06-.21.39-.45.78-.72 1.16.18-.04.27-.09.27-.14.02.03.06.04.1.04.25-.09.51-.17.79-.22.28-.06.54-.14.79-.26.04 0 .06-.01.05-.04s0-.04.02-.07c.04-.02.07-.02.08 0s.04.03.09.03c.32-.14.62-.25.91-.33.28-.08.61-.15.98-.22.02-.04.04-.07.05-.08s.03-.04.05-.09c.16.04.33.06.51.05.18-.01.37 0 .55.05.07 0 .14.01.2.03.07.02.14.03.21.03.21.03.42.05.63.07s.41.06.57.1c.09.02.18.07.26.14s.16.14.22.21c.02 0 .03.01.02.03s0 .03.02.03c.11.11.23.19.34.22s.22.11.31.22c.09.09.16.21.22.34.06.14.11.26.15.38l.1.1c-.02.11 0 .21.05.27.06.07.11.13.16.17.02.04.02.06-.02.05-.04-.01-.05 0-.05.05.02.25 0 .48-.05.69-.06.21-.13.41-.22.62-.05.12-.1.24-.17.36-.07.13-.13.24-.17.33-.11.16-.21.3-.27.41-.07.11-.15.22-.24.31-.05.18-.12.33-.22.43s-.19.21-.26.33c-.03.07-.03.13 0 .17-.39.37-.71.79-.96 1.27s-.46.99-.62 1.54c-.02.02-.06.03-.1.03-.14.39-.31.75-.51 1.1s-.31.74-.31 1.2v.04s-.03.03-.07.03c-.07.27-.04.51.09.7.13.19.14.42.05.67.04 0 .07.02.07.05 0 .03.02.03.07-.02-.07.14-.06.26.04.38 0 .04-.03.08-.07.1-.05.02-.06.08-.03.17-.07 0-.12-.02-.16-.07-.03-.05-.08-.06-.15-.04 0 .05.02.08.07.1.04.02.06.07.03.14a.62.62 0 0 1-.29-.1c-.13-.07-.21-.01-.26.17-.25-.09-.47-.19-.67-.29-.2-.1-.35-.26-.46-.46-.05 0-.09 0-.12.02-.03.01-.08 0-.12-.02-.23-.23-.41-.49-.55-.79-.14-.3-.27-.6-.39-.91-.13-.31-.25-.61-.36-.91-.11-.3-.27-.57-.48-.82.11-.44.15-.92.1-1.46-.05-.54-.01-.98.1-1.32-.05-.04-.09-.06-.12-.05-.04.01-.08 0-.12-.02 0-.11.06-.2.19-.24.13-.05.16-.15.12-.31-.32.09-.67.19-1.05.29-.38.1-.73.23-1.04.39-.23.04-.44.13-.62.24-.18.11-.38.21-.58.27-.12.05-.24.09-.36.12-.13.04-.25.08-.36.12-.23.11-.44.21-.65.28-.11.04-.23.07-.34.07s-.22.02-.31.07c-.09.04-.19.19-.29.43s-.18.42-.22.53c-.11.23-.25.44-.39.63-.15.2-.25.42-.29.67-.02 0-.03 0-.03.02s-.02.02-.07.02c-.09.34-.22.66-.4.94-.17.28-.35.56-.53.81-.11-.11-.11-.2 0-.26s.17-.15.17-.26c0-.04-.01-.05-.03-.02-.02.04-.06.04-.1.02-.02-.02-.03-.08-.03-.17-.11.18-.23.38-.34.58s-.17.42-.17.65c-.04.07-.1.14-.17.21l-.17.17c-.09.03-.18.01-.28-.03-.04.02-.08.06-.1.1-.02.04-.04.09-.07.14-.07 0-.13-.01-.17-.03-.04-.02-.09-.05-.14-.07-.07 0-.1.04-.1.1-.04-.02-.08-.03-.12-.02-.03.01-.04 0-.02-.05-.07 0-.09.02-.07.07.02.05 0 .09-.07.14a.79.79 0 0 1-.09-.26c-.01-.1-.03-.21-.05-.33-.04-.02-.08-.02-.1.02-.02.03-.06.03-.1-.02-.04.03-.05.05-.02.07s.03.03-.02.03a.35.35 0 0 1-.24-.03c.02-.21-.01-.38-.1-.51s-.08-.29.03-.45c0-.92.16-1.81.48-2.68.05-.09.1-.2.16-.33s.11-.25.15-.36.08-.24.09-.38c.01-.14.04-.27.08-.38.07-.14.14-.27.21-.39.07-.13.13-.26.17-.39.02-.07.01-.13-.04-.17Zm.85-1.75s-.04.1-.07.15-.03.11-.03.15c.02-.04.05-.1.08-.15.04-.06.04-.11.02-.15Zm12.67-17.09s.02-.06.05-.05.04 0 .02-.05c-.04 0-.1 0-.15-.02-.06-.01-.11 0-.15.05.04.02.08.04.12.05.03.01.07.02.12.02Z" style="fill:#fb0742"></path><path d="M106.01 121.47s-.04-.03-.05-.03c-.01 0-.03-.01-.05-.03.09.14.22.15.4.03.17-.11.32-.17.46-.17 0 .05-.01.08-.03.09s-.03.03-.03.05c.04.07.09.08.12.03s.07-.04.12 0c.02.07 0 .11-.05.14-.06.02-.08.01-.08-.03-.05.02-.07.05-.07.08 0 .04-.02.05-.07.05.02.09.02.18 0 .27.09 0 .18-.01.27-.03-.02.09-.03.21-.03.34-.12.07-.2.14-.26.22-.06.08-.14.16-.26.26-.04.02-.07.02-.07-.02s-.03-.05-.07-.05v.14c-.11-.02-.18 0-.19.05-.01.06-.04.12-.09.19.07 0 .11-.02.14-.05s.07-.07.14-.12c0 .05.02.08.07.09.04.01.07.04.07.08-.07 0-.11.01-.14.04s-.07.03-.14.03c0 .02 0 .04-.02.05-.01.01-.02.04-.02.09-.07-.02-.1 0-.1.05s-.01.11-.04.15c-.18 0-.32.04-.43.14s-.23.13-.39.1c-.05.09-.12.14-.22.14s-.18.06-.22.17c-.05.03-.08.03-.09 0a.055.055 0 0 0-.05-.03c-.07.11-.16.18-.28.21s-.2.07-.27.14h.03a.58.58 0 0 1-.2.31c-.09.07-.17.07-.24 0-.05.09-.11.16-.19.22s-.14.12-.19.19c.05.02.11 0 .19-.07s.14-.06.19.03c-.11.11-.25.21-.41.27-.16.07-.32.13-.48.17 0 .09.01.12.03.08.02-.03.04-.03.04.02-.05.05-.09.08-.14.09-.05.01-.07.08-.07.19-.23-.05-.33.04-.31.27-.04.02-.08 0-.1-.07-.32.25-.67.47-1.05.65s-.74.39-1.08.62c-.25 0-.48.13-.69.38-.34.11-.67.26-.98.43-.31.17-.61.35-.91.53 0 .05.01.06.03.04s.05-.04.07-.04c-.25.21-.53.37-.84.48-.31.11-.59.28-.84.48-.3.03-.57.09-.82.21s-.5.2-.75.24c-.05.02-.11.03-.19.02s-.17 0-.26.02c-.18.05-.44.06-.77.04a7.48 7.48 0 0 1-.84-.1c-.04-.02-.1-.05-.15-.09-.06-.03-.12-.08-.19-.12a.16.16 0 0 0-.08.03c-.04.03-.06.01-.09-.03-.05-.02-.09-.07-.14-.14a.453.453 0 0 0-.21-.17c-.11-.07-.23-.14-.34-.22s-.23-.14-.34-.19c0-.04-.01-.07-.03-.09-.02-.01-.03-.04-.03-.08-.07 0-.1-.01-.1-.04-.02-.04-.03-.08-.02-.1.01-.03.02-.05.02-.07-.05-.02-.06-.02-.05.02s0 .04-.02.02c-.18-.25-.34-.52-.48-.81-.14-.28-.3-.53-.48-.74-.04-.34-.16-.61-.34-.79-.02 0-.02.02.02.05.03.03.03.05-.02.05-.23-.34-.34-.8-.32-1.36.01-.56.11-1.07.29-1.53.07-.09.13-.19.17-.31.04-.11.13-.2.24-.24.25-.64.57-1.18.96-1.63.39-.45.77-.87 1.13-1.29.07-.09.14-.17.22-.24.08-.07.16-.16.26-.27.07-.09.17-.2.31-.31.11-.11.23-.23.36-.34.13-.11.26-.23.39-.34.23-.18.42-.37.57-.57.15-.2.34-.35.57-.46 0-.04 0-.07.02-.07.01 0 .02-.02.02-.07.16-.07.3-.16.43-.26s.25-.25.36-.43c.18.02.32-.03.4-.17.08-.14.18-.24.29-.31.09-.04.18-.08.26-.1.08-.02.16-.07.22-.14.09-.09.17-.16.24-.21.34-.23.69-.44 1.03-.63s.71-.38 1.1-.57c.25-.11.51-.25.79-.41.27-.16.57-.29.89-.38.07 0 .1-.03.1-.07.04.02.1.02.15-.02.06-.03.11-.06.16-.09.18-.07.37-.13.56-.19.2-.06.39-.11.57-.16.18 0 .4 0 .64.02.24.01.45.08.63.19.02.07.02.1 0 .1h-.07c.09.07.2.14.31.21.11.07.19.18.24.34.04.05.11.09.21.14.07.2.16.32.27.34-.05.03-.06.04-.03.05.02.01.03.03.03.05.09.07.15.15.17.22.02.08.06.18.1.29.05.11.1.2.17.27s.13.16.17.27c.04.07.07.15.07.22s.02.14.07.19c0 .11-.01.19-.03.24.09.04.14.11.15.19.01.08 0 .16-.02.24-.02.08-.04.17-.05.26-.01.09 0 .18.05.28 0 .04-.02.08-.05.12-.04.03-.04.09-.02.15-.18.18-.34.39-.48.63-.14.24-.29.45-.45.64-.05.02-.08.04-.09.07-.01.03-.04.05-.09.07-.09.11-.18.22-.26.31-.08.09-.18.18-.29.28-.05.04-.1.08-.16.1-.06.02-.11.08-.15.17-.04.05-.1.1-.17.15-.07.06-.13.11-.17.16-.11.04-.25.1-.39.15-.15.06-.26.14-.33.26-.37.21-.72.42-1.06.65s-.71.43-1.1.62c-.11.04-.22.07-.31.09-.09.01-.17.06-.24.15-.11 0-.22.04-.31.12s-.21.13-.34.15c-.07 0-.11.03-.14.1l-.1-.03c-.23.16-.46.28-.7.36s-.49.15-.74.22c-.09.02-.14.01-.14-.04a.94.94 0 0 0-.26.1c-.06.05-.15.06-.26.03-.04.05-.09.08-.14.1-.18 0-.35.03-.51.07s-.33.04-.51 0c-.05 0-.07.01-.07.03s-.02.05-.07.07c-.11-.05-.23-.07-.34-.07s-.2-.06-.24-.17c-.05 0-.09 0-.14.02-.04.01-.1 0-.17-.05-.18.18-.37.38-.55.58-.18.21-.34.45-.48.72-.02 0-.03 0-.03-.02s-.01-.02-.03-.02c-.02.09-.06.15-.12.19-.06.03-.09.13-.09.29-.14.07-.22.2-.24.38a.73.73 0 0 1-.21.45c.25 0 .52-.03.81-.1.28-.07.56-.11.81-.14.04-.02.07-.05.07-.09 0-.03.02-.06.07-.08.16.02.28 0 .38-.05.09-.06.21-.09.34-.09.02 0 .06-.04.1-.14.11.03.25 0 .41-.07.16-.07.3-.14.41-.21.25 0 .5-.06.74-.19s.49-.21.74-.26c.11-.14.27-.2.46-.2s.33-.08.39-.24c.18-.04.35-.08.52-.12.16-.03.32-.11.48-.22.02 0 .03.01.03.03s.02.02.07 0v-.07c.14-.09.3-.15.48-.17.18-.02.33-.11.44-.27.32 0 .61-.08.86-.24h.03s.03 0 .03.02.01.02.03.02c.03 0 .04-.01.05-.03s.04-.05.09-.07c.32-.09.64-.21.96-.36.32-.15.67-.33 1.06-.53.04.04.09.05.14.02.04-.04.1-.03.17.02.18-.11.37-.18.55-.21.18-.02.38-.07.58-.14.14-.04.27-.1.41-.17.14-.07.28-.1.45-.1.18 0 .35-.06.51-.17s.33-.19.52-.24c.09 0 .19 0 .29-.02s.19-.02.26-.02c0 .07-.03.1-.09.1s-.08.03-.08.1c-.14-.05-.25-.02-.34.08a.31.31 0 0 1-.34.09c-.02.05-.05.07-.07.07s-.03.02-.03.07Zm-9.06-1.37c.07-.11.16-.13.27-.05.11.08.21.08.28-.02-.03.09-.03.14 0 .14.02 0 .05-.02.08-.05.04-.03.07-.07.1-.1.04-.03.06-.05.09-.05.02-.03.05-.03.09-.02.03.01.06.02.08.02.14.02.24-.05.31-.21s.16-.23.27-.21c.09-.11.19-.17.29-.17s.19-.07.26-.21c.14 0 .31-.04.51-.14s.47-.28.79-.55c.04-.09.14-.26.27-.51s.24-.4.31-.45c-.05-.04-.11-.06-.19-.03s-.16.06-.24.1l-.24.12c-.08.03-.13.04-.15.02-.05.04-.15.13-.31.26s-.26.19-.31.19c-.16.02-.29.11-.4.26s-.22.2-.36.15c-.04.09-.1.17-.17.24-.07.07-.15.08-.24.03l-.14.14s-.11.07-.21.07c-.02 0-.03.02-.02.05.01.04 0 .05-.02.05-.07-.02-.12 0-.16.05-.03.06-.07.09-.12.09 0-.02-.01-.03-.03-.03v.07c-.14.11-.28.21-.43.29-.15.08-.28.21-.39.39h-.07v.1s.07-.01.08-.03.04-.02.09 0Z" style="fill:#fb0742"></path><path d="M104.36 128.58s-.04 0-.07-.07a.888.888 0 0 1-.04-.26v-.31c0-.1.01-.19.04-.26.04-.16.11-.27.19-.34s.15-.15.19-.24c.02-.07.04-.16.07-.27.03-.11.01-.17-.03-.17.11-.18.22-.39.31-.62.09-.23.17-.38.24-.44.23-.48.45-1.07.67-1.77.22-.7.44-1.28.67-1.73.18-.37.35-.74.51-1.11.16-.38.3-.77.41-1.18.11-.04.19-.21.24-.48.04-.27.16-.48.34-.62.25-.87.54-1.69.86-2.45a14 14 0 0 0 .75-2.38c.11 0 .2.04.24.1 0-.14.06-.22.19-.24s.22-.01.29.03c.09.09.08.14-.03.14 0 .04.03.06.09.05.06-.01.07.03.05.12.04-.02.09-.04.14-.05.05-.01.07-.05.07-.12.07.11.15.16.24.14s.16.03.21.17c.04-.02.05-.04.02-.05-.04-.01-.04-.04-.02-.09.14.04.28.13.43.24s.32.2.5.24c.16.25.26.5.31.74.04.24.15.45.31.64-.05.23-.1.46-.16.7-.06.24-.12.49-.19.74.02.09.05.08.08-.04.04-.11.06-.13.09-.03.14-.18.31-.34.51-.46.21-.13.42-.28.65-.46-.05-.09.01-.18.17-.27.16-.09.26-.18.31-.27.14-.18.27-.4.41-.64.14-.24.28-.45.41-.63l.31-.31c.09-.09.17-.18.24-.27.11-.09.21-.2.29-.33s.18-.19.29-.19c-.04-.11 0-.22.12-.31.13-.09.23-.17.33-.24.02.07.02.11 0 .12s-.03.06-.03.15c.02.05.06.04.12-.02s.09-.11.09-.15c.07.09.14.14.2.14s.09.09.07.28c.09.02.16.01.21-.04.04-.04.03-.02-.04.07.05 0 .1-.02.16-.07.06-.04.08-.01.08.1.05-.02.08-.02.1 0s.06.01.1-.03c.04.18.14.28.27.31.14.03.21.09.21.21.11-.02.18-.04.21-.05s.06 0 .1.05c-.03.09.01.18.1.26.09.08.07.11-.07.09.04.05.08.08.1.09s.01.04-.03.08c.02-.04.06-.06.1-.05.05.01.08 0 .1-.05.02.04.06.07.12.08.06.01.1.04.12.09-.04.23.05.37.28.41 0 .07-.04.13-.1.19-.07.06-.07.12 0 .19.02-.02.04-.05.05-.09s.03-.06.05-.09c.02 0 .03.1.02.29-.01.19-.05.35-.12.46.04 0 .07.04.08.12.01.08 0 .14-.05.19.04 0 .08-.01.1-.03 0 .11-.08.32-.22.6s-.25.53-.29.74c-.09.09-.18.23-.28.43-.09.19-.13.35-.1.46-.02 0-.03-.01-.03-.04-.14.28-.25.58-.34.91s-.23.62-.41.87c-.02.02-.04-.01-.04-.1-.07.03-.08.08-.05.16s.06.12.09.12c-.05.04-.06.12-.05.22.01.1-.03.13-.12.08.07.11.07.2 0 .26s-.08.13-.03.22c-.04-.04-.09-.04-.12 0-.03.05-.06.06-.09.04-.14.25-.18.56-.14.92-.09-.04-.15-.04-.17 0-.03.05-.07.05-.14 0 .04.09.04.15 0 .16a.23.23 0 0 1-.14-.02c0 .02.01.03.04.03.02.07 0 .08-.05.03-.06-.04-.1-.03-.12.03v-.1c-.16.07-.31.05-.44-.05-.14-.1-.22-.1-.24.02-.05-.09-.07-.24-.07-.45-.11.14-.19.16-.22.07s-.11-.11-.22-.07a.925.925 0 0 0-.14-.22 1.07 1.07 0 0 0-.14-.16c0 .07-.03.1-.1.1-.07-.23-.14-.37-.22-.41-.08-.05-.18-.2-.29-.45-.23.16-.44.35-.62.57-.18.22-.4.4-.65.56v-.07s-.04.05 0 .09c.04.03.04.08 0 .15-.04 0-.09.03-.14.1-.05.07-.09.13-.14.19a.7.7 0 0 1-.16.14c-.06.03-.11.03-.15-.02-.02.03-.01.06.03.1-.2.25-.41.52-.62.81-.2.29-.4.51-.58.67-.04 0-.06 0-.03.02s.03.04.03.08c-.25.32-.51.73-.79 1.22s-.51.9-.69 1.22c-.02 0-.06.06-.1.19s-.09.21-.14.26c-.05.02-.06.02-.03 0 .02-.02.01.02-.04.14-.07.11-.16.26-.29.45-.13.18-.25.33-.36.44-.11.14-.23.26-.34.36s-.23.22-.34.36c-.07.16-.14.33-.22.52-.08.18-.19.35-.32.51-.07.11-.17.27-.31.48s-.18.42-.14.65c-.18-.03-.39-.05-.62-.07-.23-.02-.42 0-.58.07-.03-.05-.05-.12-.07-.22s-.06-.21-.1-.33c-.04.02-.08.06-.1.1-.02.04-.06.06-.1.03 0-.11-.05-.17-.14-.17s-.1-.05-.03-.14c-.11.03-.19-.02-.24-.12-.04-.1-.1-.13-.17-.08-.05-.11-.08-.2-.09-.24a.982.982 0 0 1-.02-.21c-.07-.04-.11-.06-.14-.03s-.08.03-.17.03c0-.18-.03-.28-.09-.31-.06-.02-.11-.08-.15-.17v.14c-.09-.04-.15-.13-.17-.24s0-.21.07-.27Z" style="fill:#fb0742"></path><path d="M132.64 121.47s-.04-.03-.05-.03c-.01 0-.03-.01-.05-.03.09.14.22.15.4.03.17-.11.32-.17.46-.17 0 .05-.01.08-.03.09s-.03.03-.03.05c.04.07.09.08.12.03s.07-.04.12 0c.02.07 0 .11-.05.14-.06.02-.08.01-.08-.03-.05.02-.07.05-.07.08 0 .04-.02.05-.07.05.02.09.02.18 0 .27.09 0 .18-.01.27-.03-.02.09-.03.21-.03.34-.12.07-.2.14-.26.22-.06.08-.14.16-.26.26-.04.02-.07.02-.07-.02s-.03-.05-.07-.05v.14c-.11-.02-.18 0-.19.05-.01.06-.04.12-.09.19.07 0 .11-.02.14-.05s.07-.07.14-.12c0 .05.02.08.07.09.04.01.07.04.07.08-.07 0-.11.01-.14.04s-.07.03-.14.03c0 .02 0 .04-.02.05-.01.01-.02.04-.02.09-.07-.02-.1 0-.1.05s-.01.11-.04.15c-.18 0-.32.04-.43.14s-.23.13-.39.1c-.05.09-.12.14-.22.14s-.18.06-.22.17c-.05.03-.08.03-.09 0a.055.055 0 0 0-.05-.03c-.07.11-.16.18-.28.21s-.2.07-.27.14h.03a.58.58 0 0 1-.2.31c-.09.07-.17.07-.24 0-.05.09-.11.16-.19.22s-.14.12-.19.19c.05.02.11 0 .19-.07s.14-.06.19.03c-.11.11-.25.21-.41.27-.16.07-.32.13-.48.17 0 .09.01.12.03.08.02-.03.04-.03.04.02-.05.05-.09.08-.14.09-.05.01-.07.08-.07.19-.23-.05-.33.04-.31.27-.04.02-.08 0-.1-.07-.32.25-.67.47-1.05.65s-.74.39-1.08.62c-.25 0-.48.13-.69.38-.34.11-.67.26-.98.43-.31.17-.61.35-.91.53 0 .05.01.06.03.04s.05-.04.07-.04c-.25.21-.53.37-.84.48-.31.11-.59.28-.84.48-.3.03-.57.09-.82.21s-.5.2-.75.24c-.05.02-.11.03-.19.02s-.17 0-.26.02c-.18.05-.44.06-.77.04a7.48 7.48 0 0 1-.84-.1c-.04-.02-.1-.05-.15-.09-.06-.03-.12-.08-.19-.12a.16.16 0 0 0-.08.03c-.04.03-.06.01-.09-.03-.05-.02-.09-.07-.14-.14a.453.453 0 0 0-.21-.17c-.11-.07-.23-.14-.34-.22s-.23-.14-.34-.19c0-.04-.01-.07-.03-.09-.02-.01-.03-.04-.03-.08-.07 0-.1-.01-.1-.04-.02-.04-.03-.08-.02-.1.01-.03.02-.05.02-.07-.05-.02-.06-.02-.05.02s0 .04-.02.02c-.18-.25-.34-.52-.48-.81-.14-.28-.3-.53-.48-.74-.04-.34-.16-.61-.34-.79-.02 0-.02.02.02.05.03.03.03.05-.02.05-.23-.34-.34-.8-.32-1.36.01-.56.11-1.07.29-1.53.07-.09.13-.19.17-.31.04-.11.13-.2.24-.24.25-.64.57-1.18.96-1.63.39-.45.77-.87 1.13-1.29.07-.09.14-.17.22-.24.08-.07.16-.16.26-.27.07-.09.17-.2.31-.31.11-.11.23-.23.36-.34.13-.11.26-.23.39-.34.23-.18.42-.37.57-.57.15-.2.34-.35.57-.46 0-.04 0-.07.02-.07.01 0 .02-.02.02-.07.16-.07.3-.16.43-.26s.25-.25.36-.43c.18.02.32-.03.4-.17.08-.14.18-.24.29-.31.09-.04.18-.08.26-.1.08-.02.16-.07.22-.14.09-.09.17-.16.24-.21.34-.23.69-.44 1.03-.63s.71-.38 1.1-.57c.25-.11.51-.25.79-.41.27-.16.57-.29.89-.38.07 0 .1-.03.1-.07.04.02.1.02.15-.02.06-.03.11-.06.16-.09.18-.07.37-.13.56-.19.2-.06.39-.11.57-.16.18 0 .4 0 .64.02.24.01.45.08.63.19.02.07.02.1 0 .1h-.07c.09.07.2.14.31.21.11.07.19.18.24.34.04.05.11.09.21.14.07.2.16.32.27.34-.05.03-.06.04-.03.05.02.01.03.03.03.05.09.07.15.15.17.22.02.08.06.18.1.29.05.11.1.2.17.27s.13.16.17.27c.04.07.07.15.07.22s.02.14.07.19c0 .11-.01.19-.03.24.09.04.14.11.15.19.01.08 0 .16-.02.24-.02.08-.04.17-.05.26-.01.09 0 .18.05.28 0 .04-.02.08-.05.12-.04.03-.04.09-.02.15-.18.18-.34.39-.48.63-.14.24-.29.45-.45.64-.05.02-.08.04-.09.07-.01.03-.04.05-.09.07-.09.11-.18.22-.26.31-.08.09-.18.18-.29.28-.05.04-.1.08-.16.1-.06.02-.11.08-.15.17-.04.05-.1.1-.17.15-.07.06-.13.11-.17.16-.11.04-.25.1-.39.15-.15.06-.26.14-.33.26-.37.21-.72.42-1.06.65s-.71.43-1.1.62c-.11.04-.22.07-.31.09-.09.01-.17.06-.24.15-.11 0-.22.04-.31.12s-.21.13-.34.15c-.07 0-.11.03-.14.1l-.1-.03c-.23.16-.46.28-.7.36s-.49.15-.74.22c-.09.02-.14.01-.14-.04a.94.94 0 0 0-.26.1c-.06.05-.15.06-.26.03-.04.05-.09.08-.14.1-.18 0-.35.03-.51.07s-.33.04-.51 0c-.05 0-.07.01-.07.03s-.02.05-.07.07c-.11-.05-.23-.07-.34-.07s-.2-.06-.24-.17c-.05 0-.09 0-.14.02-.04.01-.1 0-.17-.05-.18.18-.37.38-.55.58-.18.21-.34.45-.48.72-.02 0-.03 0-.03-.02s-.01-.02-.03-.02c-.02.09-.06.15-.12.19-.06.03-.09.13-.09.29-.14.07-.22.2-.24.38a.73.73 0 0 1-.21.45c.25 0 .52-.03.81-.1.28-.07.56-.11.81-.14.04-.02.07-.05.07-.09 0-.03.02-.06.07-.08.16.02.28 0 .38-.05.09-.06.21-.09.34-.09.02 0 .06-.04.1-.14.11.03.25 0 .41-.07.16-.07.3-.14.41-.21.25 0 .5-.06.74-.19s.49-.21.74-.26c.11-.14.27-.2.46-.2s.33-.08.39-.24c.18-.04.35-.08.52-.12.16-.03.32-.11.48-.22.02 0 .03.01.03.03s.02.02.07 0v-.07c.14-.09.3-.15.48-.17.18-.02.33-.11.44-.27.32 0 .61-.08.86-.24h.03s.03 0 .03.02.01.02.03.02c.03 0 .04-.01.05-.03s.04-.05.09-.07c.32-.09.64-.21.96-.36.32-.15.67-.33 1.06-.53.04.04.09.05.14.02.04-.04.1-.03.17.02.18-.11.37-.18.55-.21.18-.02.38-.07.58-.14.14-.04.27-.1.41-.17.14-.07.28-.1.45-.1.18 0 .35-.06.51-.17s.33-.19.52-.24c.09 0 .19 0 .29-.02s.19-.02.26-.02c0 .07-.03.1-.09.1s-.08.03-.08.1c-.14-.05-.25-.02-.34.08a.31.31 0 0 1-.34.09c-.02.05-.05.07-.07.07s-.03.02-.03.07Zm-9.06-1.37c.07-.11.16-.13.27-.05.11.08.21.08.28-.02-.03.09-.03.14 0 .14.02 0 .05-.02.08-.05.04-.03.07-.07.1-.1.04-.03.06-.05.09-.05.02-.03.05-.03.09-.02.03.01.06.02.08.02.14.02.24-.05.31-.21s.16-.23.27-.21c.09-.11.19-.17.29-.17s.19-.07.26-.21c.14 0 .31-.04.51-.14s.47-.28.79-.55c.04-.09.14-.26.27-.51s.24-.4.31-.45c-.05-.04-.11-.06-.19-.03s-.16.06-.24.1l-.24.12c-.08.03-.13.04-.15.02-.05.04-.15.13-.31.26s-.26.19-.31.19c-.16.02-.29.11-.4.26s-.22.2-.36.15c-.04.09-.1.17-.17.24-.07.07-.15.08-.24.03l-.14.14s-.11.07-.21.07c-.02 0-.03.02-.02.05.01.04 0 .05-.02.05-.07-.02-.12 0-.16.05-.03.06-.07.09-.12.09 0-.02-.01-.03-.03-.03v.07c-.14.11-.28.21-.43.29-.15.08-.28.21-.39.39h-.07v.1s.07-.01.08-.03.04-.02.09 0ZM148.8 111.14s.09 0 .12-.08c.04-.08.09-.08.16.02.04-.02.06-.06.05-.1-.01-.04 0-.08.05-.1.07-.04.11-.05.12-.02.01.03.04.06.08.09.05 0 .06-.02.05-.07-.01-.04 0-.07.05-.07.07 0 .11.03.12.08.01.06.03.1.05.12.04-.04.07-.09.07-.15s.03-.07.1-.05c.04.04.07.11.07.2.3.11.45.33.46.64.01.31-.04.56-.15.77.02.05.04.08.07.1.02.02.03.06.03.1-.07.44-.13.87-.19 1.3-.06.44-.21.8-.46 1.1 0 .05.01.08.03.1s.02.06 0 .1c-.02.11-.05.22-.09.33-.03.1-.05.22-.05.36-.09.14-.16.28-.19.44-.03.16-.09.32-.15.48-.05.18-.11.34-.21.48s-.15.3-.17.48c-.03.05-.03.09-.02.12.01.04.02.08.02.12-.05.25-.13.49-.26.72-.13.23-.16.49-.12.79.59-.73 1.24-1.4 1.92-1.99a8.31 8.31 0 0 0 1.75-2.13c.05 0 .07 0 .07.02s.01.02.03.02c.09-.18.18-.36.26-.53.08-.17.22-.3.43-.39.11-.18.2-.36.26-.53.06-.17.14-.35.26-.53.18-.04.32-.15.4-.33a.56.56 0 0 1 .43-.32c.39.07.76.1 1.12.1s.77.03 1.25.07c.04-.02.08-.04.1-.07l.1-.1c.02 0 .06.08.1.24.11 0 .21.02.29.05s.19.04.33.02c0 .05 0 .08.02.09s.02.04.02.09c.09-.02.17-.02.24 0 .07.02.13.05.19.08.06.04.11.07.17.1.06.04.13.05.22.05.04.07.09.14.14.22.04.08.13.13.24.15.04.18.14.34.27.46.14.13.21.3.21.53.02.07 0 .1-.07.1.09.21.13.44.1.69-.02.25.04.45.17.58-.07-.02-.11-.02-.14 0s-.06.02-.1 0c.02.25 0 .48-.07.68-.07.21-.06.46.04.76.2-.21.39-.49.56-.84.17-.35.36-.67.57-.94 0-.05-.02-.07-.05-.07-.04 0-.06-.02-.09-.07 0-.07.03-.13.1-.19s.13-.05.17.02c.21-.3.4-.58.57-.84s.35-.55.53-.87c.07-.04.14-.11.21-.21.07-.09.09-.18.07-.27.25-.11.41-.34.48-.69.62-.73 1.2-1.49 1.73-2.26.54-.78 1.12-1.52 1.73-2.23-.02 0-.03-.04-.03-.14.43-.64.91-1.22 1.44-1.75s1.04-1.09 1.54-1.68c.04.03.07.03.07 0 0-.02.02-.02.07 0 .14-.2.32-.41.55-.62s.45-.41.65-.62c-.02.25-.11.42-.27.51-.16.09-.25.24-.28.45.16 0 .27-.07.33-.22s.13-.27.22-.36c.11-.09.22-.16.31-.21.09-.04.19-.1.31-.17.25-.21.47-.41.65-.62.18-.21.4-.4.65-.58.02 0 .03-.02.03-.07.18-.07.32-.17.41-.31.09-.14.24-.22.45-.24.11.18.12.34.02.46s-.2.27-.29.43c0 .09.04.13.1.12.07-.01.1.03.1.12-.18-.02-.32.05-.39.22-.08.17-.09.35-.02.53-.05.2-.14.33-.28.38.11.02.26.03.45.03s.33.06.45.17c.11-.04.24-.09.38-.14 0 .05.02.08.05.09.04.01.06.04.09.09-.09.09-.15.19-.19.29-.03.1-.08.19-.15.26.02.28-.04.57-.21.88-.16.31-.25.6-.27.87-.04.02-.09.06-.12.1s-.08.08-.12.1c-.09.27-.21.52-.34.74s-.28.44-.45.67c-.04.18-.11.35-.19.5-.08.15-.16.29-.24.43-.08.14-.17.28-.26.41-.09.14-.15.31-.17.51-.16.16-.29.34-.39.53-.1.19-.22.38-.36.56 0 .05.02.06.07.05.05-.01.06.02.04.08-.09.05-.16.1-.19.17s-.1.13-.19.17c-.05.21-.14.38-.28.52s-.26.3-.38.48c-.11.2-.22.41-.33.62-.1.21-.2.42-.29.65-.21.07-.33.23-.38.48-.07.03-.14.07-.21.14-.37.71-.75 1.39-1.15 2.06-.4.66-.8 1.33-1.2 1.99-.4.66-.79 1.34-1.18 2.02-.39.68-.74 1.39-1.06 2.13-.3.39-.54.8-.72 1.22-.18.42-.4.83-.65 1.22.07.11.09.2.07.24-.05.02-.08.02-.09 0s-.05-.02-.12 0c-.16.39-.34.75-.53 1.1-.19.34-.42.68-.67.99-.11.51-.34.96-.67 1.36s-.69.74-1.08 1.01c-.39.05-.74.09-1.06.14-.32.05-.58-.06-.79-.31a1.08 1.08 0 0 0-.36 0c-.1.02-.21.04-.32.07-.14-.25-.37-.41-.69-.48-.32-.07-.55-.19-.69-.38-.32-.02-.57-.11-.74-.27s-.32-.35-.43-.58c-.04 0-.07.03-.08.09-.01.06-.05.07-.12.05-.05-.02-.06-.09-.04-.19.02-.1.02-.18 0-.22a.354.354 0 0 0-.12-.1c-.03-.02-.07-.04-.12-.07-.07-.25-.12-.58-.15-.98s-.09-.76-.15-1.08c.11-.37.14-.77.07-1.2-.07-.44-.04-.85.07-1.23-.34.27-.61.58-.79.92-.18.16-.35.32-.51.48-.16.16-.3.37-.41.62-.07 0-.11.02-.12.07-.01.05-.05.07-.12.07-.53.75-1.1 1.46-1.72 2.13-.62.66-1.23 1.34-1.85 2.02-.18.18-.33.35-.45.51-.11.16-.26.3-.45.41-.09.07-.17.14-.24.22s-.16.16-.27.22c-.02.04-.02.07.02.07s.04.02.02.07c-.07 0-.11 0-.14.02s-.06 0-.1-.02c-.14.11-.31.23-.51.34-.21.11-.42.21-.64.27-.22.07-.44.1-.67.1s-.44-.06-.62-.17c0-.05.01-.08.03-.1s.03-.06.03-.1c-.07-.02-.1 0-.09.07.01.07-.02.09-.08.07 0-.04 0-.06-.02-.05-.01.01-.02 0-.02-.02-.04-.03-.06-.07-.03-.14.02-.07.08-.12.17-.14-.05-.16-.17-.25-.36-.26-.2-.01-.35 0-.46.05-.14.02-.23 0-.28-.09-.04-.08-.16-.1-.34-.05l-.12-.21a.353.353 0 0 0-.15-.17c-.04.02-.04.06.02.1.06.05.06.08.02.1-.16-.02-.25-.11-.27-.26s-.13-.22-.31-.22c-.3-.27-.41-.62-.34-1.03-.07-.02-.1-.04-.1-.07s-.03-.05-.1-.07c.04-.14.06-.25.03-.34-.02-.09 0-.17.07-.24a.416.416 0 0 0-.1-.2c-.04-.05-.07-.1-.07-.17s.01-.13.04-.17c.04-.41.11-.86.2-1.34.09-.48.2-.9.31-1.27v-.22c0-.08.02-.15.07-.22.18-.52.32-1.06.43-1.61.1-.55.27-1.04.5-1.48 0-.11 0-.2.02-.26.01-.06 0-.13-.02-.22.14-.18.25-.42.33-.72.08-.3.14-.62.19-.96.04-.34.08-.69.12-1.05.03-.35.09-.68.19-.98.14-.43.27-.88.4-1.34.13-.46.26-.89.39-1.3-.02-.04-.06-.06-.1-.03s-.07-.01-.07-.1c.18-.07.29-.22.33-.45s.08-.42.12-.58c.18-.23.3-.54.36-.94.06-.4.2-.73.43-.98-.07-.07-.09-.14-.07-.21.16-.09.22-.23.19-.41-.03-.18 0-.33.12-.45 0-.07-.03-.1-.1-.1 0-.07.08-.1.24-.1.04-.07.07-.16.09-.27.01-.11.03-.23.05-.34.18-.02.33-.05.45-.09l.45-.12c.02.14-.02.21-.12.21s-.18.05-.22.14c.04.05.09.08.14.09.04.01.09.04.14.09.07-.05.14-.09.21-.14.07-.05.15-.06.24-.04-.02.07-.06.11-.12.12-.06.01-.1.04-.12.09 0 .05 0 .08.02.09s0 .04-.02.08c.07.05.11.04.14-.03.02-.07.07-.1.14-.1.09.07.16.11.22.12.06.01.14.02.26.02.04.07.06.13.03.17s-.01.09.04.14c.11-.02.19-.03.24-.03.04 0 .09-.02.14-.07.09.05.16.07.21.07.04 0 .09.02.14.07-.03.05-.05.08-.09.09s-.04.04-.02.09c.04.02.09.01.14-.04.04-.04.11-.04.21 0 .02.05.04.08.05.1.01.03.03.06.05.1.04 0 .07-.02.07-.05 0-.04.02-.06.07-.09.07.02.13.05.17.09.05.03.11.05.21.05.02.02.03.07.02.14-.01.07-.04.11-.09.14Zm-4.97 19.7s-.06-.05-.05-.02c.01.03-.02.04-.09.02v.07s.09 0 .14-.07Zm.34.31c-.02-.11-.08-.15-.19-.1-.1.04-.18.09-.22.14.11.02.19.02.22 0 .03-.03.1-.04.19-.04Zm5.87-5.45c.09 0 .14-.03.15-.09s0-.11-.05-.15c-.14.04-.17.13-.1.24Zm3.36-11.84c0 .07-.02.14-.07.21-.04.07-.04.13 0 .17 0-.07.02-.14.07-.2.04-.07.04-.13 0-.17Zm4.36 15.64s-.04-.03-.04-.07h-.2v.1c.07 0 .11.01.14.03.02.02.06 0 .1-.07Zm.72-15.44s-.01-.08-.04-.09-.04-.04-.07-.08c0 .14.03.19.1.17Zm.89 14.89c-.07-.02-.11 0-.12.07-.01.07-.02.11-.02.14.02-.05.05-.08.09-.09.03-.01.05-.05.05-.12Zm6.35-11.08c-.09.02-.14.07-.15.14-.01.07-.04.14-.09.21.07-.04.11-.1.14-.17.03-.07.06-.13.1-.17Zm.68-9.98s-.06.08-.1.1c-.04.02-.07.07-.07.14.07 0 .13-.03.17-.09.04-.06.04-.11 0-.15Zm1.07-1.69c-.09.07-.2.16-.33.27s-.18.21-.15.28c.07-.09.15-.18.24-.26.09-.08.17-.18.24-.29Zm4.7-3.43s-.09.05-.14.14c.05.05.08.05.09 0 .01-.04.03-.09.05-.14ZM167.68 129.3s-.01.11.03.21c-.14 0-.22.03-.24.1-.02.07-.04.11-.07.14-.03.14-.07.27-.14.41-.07.14-.13.23-.19.27-.06.05-.1.02-.12-.07-.02-.09 0-.28.07-.55-.04-.04-.08-.05-.1-.02-.03.03-.04.04-.04.02.07.09.04.16-.1.21.03.32 0 .52-.05.62-.06.09-.11.11-.17.05-.06-.06-.1-.17-.12-.33-.03-.16.01-.33.1-.52-.04 0-.06 0-.05.02.01.01 0 .03-.02.05-.02 0-.05-.01-.07-.03-.02-.03-.01-.06.04-.1-.07.11-.2.25-.38.41-.18.16-.25.26-.2.31 0 .04-.03.06-.09.05a.225.225 0 0 1-.12-.05c0 .27-.01.42-.03.43-.02.01-.05-.02-.09-.09a.569.569 0 0 0-.12-.17c-.04-.04-.08 0-.1.14a.507.507 0 0 1-.09-.16c-.01-.06-.06-.08-.15-.08.11.04.1.14-.03.27.04-.25.04-.42-.02-.52-.06-.09.02-.2.22-.34a.205.205 0 0 1-.05-.17c.01-.07.03-.13.05-.17 0-.14.03-.26.07-.38.05-.11.08-.24.1-.38 0-.23.07-.48.21-.75.02-.23.06-.45.12-.67.06-.22.13-.42.22-.6-.11-.07-.08-.13.1-.17-.07-.04-.08-.09-.05-.12s.02-.05-.05-.05c.14-.09.19-.2.17-.31.04 0 .07-.02.07-.07 0-.04-.03-.09-.07-.14.21-.07.23-.18.07-.34.14-.04.2-.11.19-.2-.01-.09 0-.16.05-.21.04-.14.11-.31.19-.51.08-.21.12-.4.12-.58.04-.05.06-.09.05-.12-.01-.04 0-.09.05-.16-.04-.16 0-.32.14-.5.14-.17.16-.31.07-.43.07-.07.14-.11.2-.14-.14-.04-.16-.09-.08-.14.08-.04.12-.1.12-.17 0-.04 0-.09-.02-.14a.23.23 0 0 1 .02-.14c.04-.05.09-.1.14-.16.04-.06.06-.11.03-.15.05-.02.08-.04.09-.07.01-.02.03-.03.05-.03-.04-.11-.03-.22.05-.31s.1-.17.05-.24c.02-.07.06-.12.1-.17.04-.04.06-.09.03-.14l-.1-.07s.02-.04.07-.05.09-.03.14-.05c.02-.04.02-.09 0-.15a.407.407 0 0 1 0-.22c.05-.16.1-.26.17-.31 0-.05-.03-.07-.07-.07.11-.14.19-.31.22-.53s.11-.42.22-.6c-.09-.09-.09-.18.02-.28.1-.09.15-.19.15-.31.05-.05.08-.09.09-.12.01-.04.03-.06.05-.09.07-.14.13-.27.19-.39.06-.13.11-.25.15-.36.05-.05.05-.06 0-.04-.04.03-.07.01-.07-.03.18-.09.3-.19.34-.29.04-.1.11-.18.2-.22.14-.02.23-.06.29-.12.06-.06.13-.11.22-.16.25-.07.5-.11.74-.12.24-.01.44-.07.6-.19.5-.04.91-.09 1.22-.14.31-.05.7-.07 1.18-.07.07 0 .11.02.14.07.09-.02.18-.04.28-.04.09.03.16.06.22.12s.12.08.19.05c.14.16.19.32.17.46s-.07.3-.14.46c-.09.25-.19.51-.29.77s-.26.52-.46.77c-.05.14-.09.27-.12.41s-.14.27-.33.41c.05.03.06.04.05.04-.01 0 .02.02.08.07-.18.25-.32.53-.41.84-.09.31-.25.59-.48.84v.1c-.14.23-.26.51-.38.84-.11.33-.23.67-.36 1.01s-.25.68-.38.99c-.13.32-.27.59-.43.82.02.05.02.08-.02.1-.04.02-.03.07.02.14-.32.5-.63 1-.94 1.48s-.51.98-.6 1.51c-.11.05-.19.1-.22.17s-.13.13-.29.17c-.03-.04-.06-.09-.1-.14-.3.04-.45.15-.45.33s-.02.32-.07.46c-.07 0-.09.02-.07.07.02.05 0 .05-.07 0 .09.07.13.13.1.19-.02.06-.06.1-.12.14s-.11.06-.15.09c-.05.02-.05.06 0 .1-.07.05-.11.03-.14-.07-.03-.09-.07-.13-.14-.1.02-.02.03-.05.02-.09-.01-.03 0-.05.05-.05a.232.232 0 0 1-.15-.14c-.03-.07-.11-.1-.22-.1Zm-.56.24s-.09.02-.14.07c-.04.05-.01.07.1.07.02-.02.03-.07.03-.14Zm.59-.41s-.06.01-.03.04.02.04 0 .07c.11 0 .13-.03.03-.1Zm.21.06s-.01-.03-.03-.03l-.14.14.2-.07s-.03-.01-.03-.03Zm3.73-18.01s-.06-.07-.1-.07c-.04 0-.04-.02 0-.07.07-.02.15-.03.24-.02.09.01.16 0 .2-.05.11 0 .18-.03.21-.09.02-.06.06-.11.1-.15.09 0 .18-.02.27-.07.09-.09.23-.17.41-.24.18-.07.37-.08.56-.05.2.03.43.05.7.05.11.05.22.08.31.09.09.01.23.03.41.05.07.09.18.15.33.19s.27.11.36.22h.07l.07-.07c0 .07.01.13.03.17.21.09.36.23.46.43.1.19.25.34.43.43.02.21.05.44.09.69.03.25-.13.47-.5.65-.07.03-.12.07-.14.14-.32.02-.54.08-.65.17-.57 0-.8.14-.69.41-.11.07-.2.15-.26.24s-.11.2-.15.31c-.11.02-.22.06-.31.12s-.23.11-.41.15c-.05 0-.06-.01-.05-.03s-.02-.04-.09-.07c-.57.12-1.13.16-1.66.14-.54-.02-.98-.1-1.32-.24l-.1-.1s-.09-.06-.14-.04c-.04.03-.09.01-.14-.03 0-.07-.03-.14-.08-.22-.06-.08-.08-.15-.05-.22 0-.07.01-.13.03-.17s.04-.1.04-.17c-.05-.11-.04-.28.03-.5.07-.22.15-.38.24-.5.02-.02.04-.07.07-.14.02-.07.06-.13.1-.17.14-.21.28-.4.43-.58.15-.18.3-.37.46-.55.02 0 .04 0 .07-.02.03-.01.06-.02.1-.02ZM182.84 105c.09-.09.19-.23.29-.41.1-.18.21-.36.32-.55s.25-.35.4-.51c.15-.16.3-.28.46-.34-.03.02 0 .02.05 0s.13-.05.21-.07c.08-.02.15-.04.22-.05.07-.01.1 0 .1.05-.05.05-.06.06-.04.05s.05-.03.09-.05.07-.04.1-.05.04 0 .02.02h.39c.08 0 .15 0 .21.02.06.01.12.02.19.03.07.01.19.02.38.02.07 0 .14.01.22.04.08.02.15.01.22-.04.11.05.22.07.31.07s.17.02.24.07c.09-.05.18-.05.27-.02.09.04.17.04.24.02 0 .04.04.06.1.05.07-.01.1 0 .1.05.07.03.11.06.12.1.01.05.06.05.15 0 .03.05.05.08.07.1l.1.1c.09.05.15.14.17.29a3.121 3.121 0 0 1-.01 1.07c-.03.17-.06.29-.08.36a.61.61 0 0 1-.16.12c-.06.04-.11.1-.15.19-.02.27-.09.54-.21.79s-.2.5-.24.75a.52.52 0 0 0-.21.21c-.02.07-.06.15-.1.24-.05.11-.1.21-.17.29-.07.08-.1.15-.1.22 0 .05 0 .08.02.09s.02.03.02.05c-.03.02-.06.06-.1.1a.22.22 0 0 0-.07.17c0 .14-.03.25-.09.34-.06.09-.12.2-.19.31v.21c-.16.09-.24.22-.24.38s-.09.26-.28.31c.03.07.02.12-.02.14-.03.02-.03.04.02.07-.25.25-.44.51-.58.79-.14.27-.32.52-.55.75.09.05.11.09.05.12s-.04.08.05.12c-.05.02-.11.01-.21-.03-.18.52-.43 1.02-.74 1.49s-.52.93-.63 1.39c.04.05.05.08.02.1-.04.02-.02.04.05.07-.27.34-.5.72-.67 1.12-.17.4-.35.81-.53 1.22.11.05.13.08.05.1-.08.02-.1.06-.05.1-.07-.05-.11-.08-.14-.1-.39.66-.66 1.29-.82 1.89s-.32 1.16-.48 1.68c-.05 0-.08.03-.09.09-.01.06-.05.07-.12.05.05.02.05.06 0 .1-.04.04-.03.06.04.03-.18.32-.32.63-.4.93-.08.3-.21.59-.39.89-.02.03-.02.04.02.04s.05.02.05.07c-.12.18-.2.37-.24.57-.05.2-.16.41-.34.63 0 .05 0 .14.02.28s-.08.25-.26.34c-.05-.05-.06-.1-.04-.16.02-.06-.02-.12-.14-.19-.09.07-.13.13-.1.17.02.05.01.07-.03.07-.04.2-.13.43-.26.67s-.2.49-.22.74c-.11.18-.19.36-.22.53s-.08.35-.12.53c-.04 0-.06.02-.05.05.01.03.03.05.05.05-.11.14-.16.28-.14.41s0 .28-.07.45c0 .04 0 .09-.02.15-.01.06-.05.09-.12.09-.11-.05-.16-.11-.14-.21s.06-.17.1-.24c-.11.09-.23.19-.36.31s-.14.21-.05.28c-.27.11-.42.25-.43.41s-.05.31-.12.45c-.05-.02-.08-.02-.1 0s-.06.04-.1.07c-.02.11-.09.22-.19.33l-.29.29c-.07 0-.13 0-.19-.02-.06-.01-.11-.02-.16-.02-.09.02-.15.06-.17.1-.02.05-.09.05-.21 0-.11.11-.14.21-.07.28.07.07.05.12-.07.17.04-.02.07-.02.07 0s.04-.01.1-.1c-.04.07-.06.13-.05.17.01.04.02.09.03.15.01.06.01.1 0 .14s-.06.06-.15.09a.433.433 0 0 1-.17-.28c-.09.11-.14.18-.14.21s-.01.06-.03.1c.02.18.01.27-.03.26-.05-.01-.05.08 0 .26-.16.02-.23.05-.22.09s.02.08.02.12c-.09.04-.14.04-.15-.02-.01-.06-.08-.1-.19-.12-.09-.14-.12-.22-.09-.26.04-.04.06-.15.09-.33a8.61 8.61 0 0 1-.03-1.75c.04-.55.13-1.1.24-1.65.11-.55.26-1.11.43-1.68.17-.57.35-1.18.53-1.82.04-.39.14-.77.29-1.15.15-.38.26-.76.33-1.15 0-.14.03-.27.09-.4.06-.12.12-.27.19-.43a.44.44 0 0 1-.03-.39c.04-.15.09-.28.14-.4a.744.744 0 0 1 .05-.51c.08-.16.13-.34.15-.55l.1-.05c.02-.01.06 0 .1.02.07-.37.17-.69.31-.96s.23-.56.28-.86c0-.05.01-.1.03-.17.16-.34.3-.69.41-1.04s.29-.7.52-1.05c.04-.32.14-.64.29-.96s.29-.66.43-1.03c.02-.04.06-.1.1-.17.04-.07.06-.11.03-.14l-.03-.03c.02-.09.06-.17.1-.24.05-.07.08-.13.1-.17.02-.02.04-.06.04-.1 0-.02-.01-.03-.04-.03.16-.32.33-.64.5-.94.17-.31.29-.62.36-.94.16-.37.32-.73.5-1.1.17-.37.34-.71.5-1.03-.09-.11-.1-.22-.03-.31s.13-.19.17-.31c.09-.16.19-.34.29-.55.1-.21.21-.38.33-.51.05-.05.1-.14.16-.29.06-.15.07-.26.05-.32 0-.16-.02-.26-.07-.31.05-.18.16-.33.34-.45.18-.11.29-.26.31-.44l-.07-.07Zm-8.24 26.84s.03-.08.02-.1-.02-.06-.02-.1c-.02.05-.04.06-.05.04-.01-.03-.03-.04-.05-.04-.04.14-.01.21.1.21ZM181.4 121.95c.14 0 .25-.04.33-.12l.29-.29c.14-.14.25-.24.34-.31.21-.18.42-.38.65-.6.23-.22.47-.42.72-.6.11-.09.23-.18.36-.26s.25-.18.36-.29c.11-.09.23-.16.34-.22.11-.06.22-.13.31-.22.05-.05.09-.1.14-.16.05-.06.1-.11.17-.15.16-.09.3-.18.43-.26s.27-.18.43-.29c.16-.07.32-.15.46-.24.15-.09.28-.22.39-.38.25-.02.49-.11.7-.27s.44-.3.67-.41c.07-.05.14-.08.21-.09.07-.01.12-.04.17-.09.21-.11.43-.21.67-.29s.49-.18.74-.29c.09.03.2.02.32-.02s.23-.07.33-.12c.66-.14 1.37-.25 2.13-.34.75-.09 1.43-.16 2.02-.21.02 0 .03.03.03.07 0 .05.02.06.07.03.04 0 .04-.02 0-.05-.05-.03-.05-.06 0-.09.07 0 .11-.01.14-.03.11.07.21.16.27.27.07.11.16.2.28.24.04.05.04.07 0 .07-.05 0-.07.01-.07.03.04.05.1.06.15.03.06-.02.11-.05.16-.08.04-.04.09-.06.14-.09.04-.02.09-.01.14.03.14-.11.21-.29.21-.53s.06-.44.17-.6c-.02-.18 0-.33.05-.45.06-.11.07-.24.05-.38.02 0 .03 0 .03-.02s.02-.02.07-.02c.11-.41.21-.83.29-1.25.08-.42.2-.82.36-1.18 0-.09-.01-.15-.03-.17.04.02.07.01.07-.04 0-.04.02-.07.07-.07 0-.09.03-.21.09-.34.06-.14.12-.25.19-.34v-.17c.25-.51.46-1.03.63-1.58.17-.55.39-1.06.67-1.54.27-.73.62-1.4 1.04-2 .42-.61.83-1.24 1.22-1.9.09-.05.16-.1.2-.17.05-.07.11-.13.21-.17 0-.05 0-.07-.02-.07s0-.02.02-.07c.14-.14.28-.27.45-.4.16-.13.3-.27.41-.43.14-.07.27-.15.39-.24.13-.09.25-.2.36-.31.09.05.21.07.36.07s.22.08.22.24c.07 0 .13-.02.17-.07a.45.45 0 0 1 .14-.1c.04 0 .09.02.14.05.04.03.09.03.14-.02.09.05.14.18.16.41.01.23-.08.34-.26.34 0 .09-.01.15-.03.17s-.03.08-.03.17c.09 0 .14-.02.15-.05.01-.03.06-.04.15-.02.05-.14.1-.17.17-.1 0 .07-.01.12-.03.16-.03.03-.06.07-.1.12.04.16.09.33.14.51.04.18.09.35.14.51-.02.02-.01.11.03.27h-.07c.04.12.05.22.02.33s-.05.2-.05.29c-.04.34-.08.7-.12 1.06-.03.37-.11.71-.22 1.03-.12.46-.28.89-.5 1.3-.22.41-.39.85-.53 1.3-.14.23-.24.47-.31.72s-.15.5-.24.75c-.14.32-.28.63-.43.91-.15.29-.25.61-.29.98-.09.05-.14.12-.15.22s-.04.21-.09.33c-.16.3-.28.58-.38.86-.02.07-.03.14-.02.21.01.07 0 .14-.02.21-.05.14-.11.27-.21.41s-.15.27-.17.41c-.09.12-.16.27-.21.45-.05.18-.09.37-.14.55-.02.04-.05.1-.07.17-.02.07-.04.13-.07.17-.03.07-.04.14-.04.2s-.01.14-.03.21c-.02.18-.06.35-.1.52-.04.16-.08.32-.1.48v.24c0 .07-.03.13-.1.17-.02.37-.1.67-.24.91-.14.24-.26.51-.38.8-.04 0-.07.01-.07.04s-.03.03-.07.03c-.04.07-.08.15-.09.24s-.03.18-.05.27c-.09.25-.18.51-.27.77-.09.26-.16.53-.21.81-.02.23-.03.45-.03.67s-.04.42-.1.6c-.05-.02-.07-.03-.07-.02s-.02.03-.07.05c-.03.03-.04.05-.04.07s-.02.03-.07.03c-.05.32-.1.63-.17.93-.07.3-.13.61-.17.93 0 .04-.02.07-.05.07-.03 0-.05.03-.05.07-.04.34-.11.66-.19.96-.08.3-.14.57-.19.82 0 .05-.02.09-.07.14-.07.16-.11.33-.14.5-.02.17-.06.35-.1.53 0 .11-.02.21-.07.27-.05.07-.09.15-.14.24a.33.33 0 0 0 0 .24c.02.09-.03.14-.14.14h-.07c-.02-.09-.03-.18-.03-.26s-.04-.14-.1-.19c-.07.07-.09.15-.05.26.04.1.04.21.02.32-.02.07-.04.16-.05.26-.01.1 0 .21.05.32a.63.63 0 0 0-.19.41c-.01.16 0 .31.05.45-.09.02-.14.09-.15.22l-.03.4c-.01.14-.03.26-.05.38s-.1.17-.24.17c.09-.11.09-.24 0-.38-.07.04-.09.13-.05.24.03.11.04.23.02.34-.05.02-.09.02-.12 0s-.08-.03-.12-.03c-.02-.11-.02-.23 0-.34s.02-.24 0-.38c-.05.02-.07.07-.07.14s-.04.1-.14.1c-.02-.28 0-.56.07-.84.07-.29.09-.56.07-.81-.11.02-.18.06-.2.1-.03.04-.07.09-.14.14-.04.46-.04.88 0 1.27.05.39.04.81-.03 1.27-.11.07-.22.06-.31-.03a1.08 1.08 0 0 0-.28-.21c-.07.07-.12.17-.15.29s-.06.25-.07.38-.03.24-.07.34a.3.3 0 0 1-.19.19.43.43 0 0 1 .07-.1c.02-.02.02-.06 0-.1-.02-.05-.05-.07-.07-.07s-.03-.01-.03-.03c0-.44 0-.82-.02-1.17s-.05-.72-.12-1.13c-.05-.14-.06-.31-.05-.51s-.02-.38-.08-.51c0-.59.03-1.15.1-1.66s.09-1.04.07-1.56c-.07.07-.13.06-.17-.04-.05.39-.08.75-.09 1.06-.01.32-.06.63-.15.93-.09.02-.13-.01-.1-.1.02-.09-.03-.11-.14-.07-.03-.23-.01-.45.03-.65.04-.21.09-.4.14-.58 0-.09 0-.18-.02-.26-.01-.08 0-.14.02-.19.04-.18.1-.37.17-.57.07-.2.06-.38-.03-.57.11-.27.15-.55.12-.84-.03-.28 0-.58.09-.87-.05 0-.1.02-.17.07s-.11.1-.14.17c0-.02-.03-.04-.1-.04-.25.18-.49.36-.7.53-.22.17-.45.34-.7.5v.14c-.18.11-.34.24-.48.38s-.3.23-.48.28c-.05 0-.06.02-.04.05s.01.06-.03.09c-.27.09-.54.2-.81.33s-.53.26-.81.39c-.62.32-1.21.59-1.78.82-.11.07-.24.13-.38.17-.14.05-.27.1-.41.17v.03l-.03.03s-.08-.02-.17-.07c-.04 0-.07.01-.07.03s-.01.03-.04.03c-.25.05-.54.09-.86.14-.32.05-.62.09-.89.14-.32-.03-.65-.05-1-.07s-.64-.09-.89-.21c-.44-.2-.8-.49-1.1-.84-.3-.35-.61-.71-.93-1.08-.09.05-.18.07-.28.07a4.9 4.9 0 0 1-.24-.89c-.04-.3-.02-.62.07-.96-.02-.02-.05-.03-.09-.02a.31.31 0 0 1-.08.02c.07-.09.08-.19.03-.31s-.09-.2-.14-.24c.3-.76.51-1.6.65-2.54Zm6.76 2.27.14-.14c.04-.04.08-.02.1.07.21-.09.41-.18.62-.26.21-.08.41-.14.62-.19.11-.14.25-.21.4-.22.15-.01.29-.04.43-.09.07 0 .14-.02.21-.07a.67.67 0 0 1 .21-.1c.04-.04.08-.06.12-.05.03.01.07 0 .12-.02.02-.02.03-.04.03-.05s.02-.03.07-.05c.11-.04.21-.07.29-.08s.16-.05.26-.12c.04.02.06.02.03-.02-.02-.04-.01-.05.04-.05.27-.02.51-.08.7-.17.19-.09.38-.2.56-.31.11-.04.21-.08.29-.1.08-.02.19-.04.33-.07.07-.02.12-.05.15-.07s.07-.06.12-.1c.18-.11.34-.19.46-.22.13-.03.27-.09.43-.19.02-.11.04-.26.04-.45s.06-.3.17-.34c0-.37.07-.73.21-1.1s.15-.7.03-.99c-.07-.02-.11-.02-.12.02-.01.03-.05.05-.12.05-.02 0-.02-.01 0-.03s.01-.02-.03 0c-.18.07-.35.11-.52.12-.16.01-.3.1-.41.26-.02 0-.04 0-.05-.02a.076.076 0 0 0-.05-.02c-.04.04-.11.08-.19.12-.08.03-.15.07-.19.12-.64.3-1.25.62-1.82.98-.57.35-1.17.69-1.78 1.01 0 .05-.07.12-.21.21a.47.47 0 0 1-.22.22c-.1.06-.19.14-.26.26-.05 0-.08.01-.1.04-.02.02-.06.03-.1.03-.09.09-.15.17-.17.24-.05 0-.08 0-.09.02s-.04.02-.09.02c-.25.25-.5.49-.74.72s-.49.46-.74.69c-.05.18-.15.33-.33.43-.17.1-.3.23-.39.39v.03c.25-.02.5-.07.74-.15s.51-.14.81-.19Zm7.14-3.57c-.02.14-.03.23-.02.29.01.06 0 .14-.02.26.07-.04.12-.13.15-.26s0-.22-.12-.29Zm.1-.1s.01-.08.03-.1c.02-.03 0-.04-.07-.04 0 .09.01.14.04.14Zm.1-.58s.01.08-.04.12a.18.18 0 0 0-.07.15c.07.02.11-.01.14-.1s.01-.15-.03-.17Zm1.13 10.84s.06-.08.03-.1c-.02-.03-.02-.04 0-.04-.04 0-.07.02-.07.07 0 .04.01.07.03.07ZM204.35 129.92a.99.99 0 0 1 .55-.27c.04 0 .09.01.12.03s.08.03.12.03c.09-.02.17-.07.24-.15.07-.08.16-.14.27-.19.05-.02.08-.02.1.02.02.03.06.05.1.05.04-.02.07-.05.07-.09 0-.03.02-.06.07-.08.07-.05.15-.06.24-.05s.17 0 .24-.05c.05 0 .09-.02.12-.07.03-.04.08-.06.12-.03.05-.04.05-.08.02-.09-.03-.01-.05-.04-.05-.09.09-.04.17-.08.24-.1.07-.03.16-.04.27-.04.23-.16.52-.26.88-.29s.63-.16.84-.36c.37.04.73 0 1.08-.14.35-.14.71-.25 1.08-.34.46-.11.94-.22 1.44-.33s.99-.2 1.47-.29c.46-.09.9-.2 1.32-.31.42-.11.84-.22 1.25-.31.18-.34.35-.72.51-1.13.16-.41.26-.82.31-1.24.07 0 .11-.02.12-.07.01-.04.04-.08.08-.1.14-.48.33-.93.57-1.34.24-.41.45-.82.64-1.24l.72-1.44c.32-.55.64-1.08.96-1.58.32-.5.64-1.04.96-1.61.11-.18.22-.34.32-.48.1-.14.19-.31.26-.52.14-.09.25-.19.32-.31.08-.11.12-.29.12-.52.14.05.22 0 .24-.12s.01-.21-.03-.26c.09-.04.16-.06.21-.03 0-.07-.02-.11-.07-.14-.04-.02-.07-.07-.07-.14.07.02.1.01.1-.04 0-.04.04-.06.1-.03.16-.34.34-.65.53-.93.19-.27.36-.59.5-.96-.07-.02-.14-.02-.22 0s-.14.09-.19.21c-.14-.04-.28-.06-.43-.03s-.3.05-.46.08c-.16.04-.31.06-.45.07s-.27-.02-.41-.09a2 2 0 0 0-.67.17c-.19.09-.38.09-.57 0-.34.18-.66.26-.96.22-.3-.03-.58.02-.86.16a1.44 1.44 0 0 0-.51.02c-.16.03-.32.08-.48.14-.16.06-.32.09-.48.1a.868.868 0 0 1-.45-.09c-.46.21-.92.35-1.39.43s-.92.2-1.35.36c-.02-.04-.04-.08-.07-.1-.02-.02-.04-.06-.07-.1-.07-.02-.11-.01-.14.03a.24.24 0 0 1-.1.1.702.702 0 0 0-.55.02c-.18.08-.38.1-.58.05-.09.09-.2.15-.32.19-.13.04-.25.06-.36.09-.05-.07-.07-.16-.07-.29s.02-.25.07-.36c.14.09.23.11.29.07.06-.04.18-.07.36-.07.02-.07.02-.12 0-.16-.02-.03-.01-.08.03-.15-.16-.04-.34-.06-.53-.03-.2.02-.38.04-.57.07-.18.03-.37.04-.55.04s-.36-.06-.52-.17c-.09.07-.18.11-.26.14-.08.03-.19.06-.33.1-.07-.09-.1-.22-.1-.38s-.06-.22-.17-.17c0-.18.02-.3.05-.34.04-.05.02-.15-.05-.31.09-.11.2-.19.31-.24.11-.04.22-.09.32-.12s.2-.08.29-.14a.76.76 0 0 0 .24-.26c.04-.02.07-.02.09 0 .01.02.05.03.12.03.8-.48 1.74-.89 2.83-1.22s2.14-.63 3.18-.91c.25-.07.48-.12.69-.15.2-.03.47-.08.79-.12.05-.04.13-.08.24-.1s.2-.02.24 0c.07.02.11.01.12-.03.01-.05.04-.08.09-.1.16.02.27 0 .34-.05.07-.06.16-.06.27-.02.11-.11.25-.19.4-.24.15-.04.3-.09.46-.14 1.1-.16 2.16-.37 3.18-.62s2.1-.47 3.24-.65c-.11-.11-.11-.22 0-.31s.24-.14.38-.14c.02.02.04.06.05.12.01.06.04.1.09.12.14-.11.29-.2.46-.24.17-.05.32-.09.46-.14.07.07.14.11.21.12.07.01.14.04.21.08.04-.04.1-.07.15-.07.06 0 .11-.01.15-.04a.8.8 0 0 0 .5.04c.15-.05.31-.09.5-.14.27-.07.54-.1.81-.09.26.01.54-.05.84-.19.02 0 .03-.03.03-.1.18.05.36.06.53.04.17-.02.37 0 .6.07.05-.02.08-.03.1-.03s.06-.03.1-.1c.48.07.98.1 1.49.09.51-.01 1.03.06 1.56.22.02 0 .06-.02.1-.07.34.11.66.24.96.38.3.14.62.23.96.28.23.25.5.41.82.48.07.18.15.35.24.5.09.15.25.25.48.29.02.09 0 .14-.05.14s-.1.03-.12.07c.09.21.14.42.16.65.01.23.05.41.12.55-.21.18-.42.38-.64.58s-.45.38-.7.51a1.35 1.35 0 0 1-.24-.08.831.831 0 0 1-.17-.12c-1.3.04-2.6.1-3.88.15-1.28.06-2.55.16-3.81.33-.11.18-.23.37-.34.55-.12.18-.22.39-.31.62-.27.21-.49.48-.63.82-.15.34-.35.64-.6.89 0 .02.01.04.03.05s.03.04.03.09c-.41.32-.69.73-.82 1.23-.07-.02-.1 0-.1.05s-.03.07-.1.05c-.12.3-.26.57-.43.81-.17.24-.33.5-.46.77 0 .05.02.08.07.1.04.03.06.07.03.14h-.21c-.3.32-.52.69-.67 1.12-.15.42-.37.78-.67 1.08-.5 1.03-1.02 2.02-1.54 2.99-.53.96-1.09 1.89-1.68 2.78.41-.04.87-.12 1.39-.22.51-.1 1.04-.19 1.59-.27.55-.08 1.09-.13 1.63-.15.54-.02 1.04.01 1.52.1.09 0 .15-.02.17-.07.02-.04.08-.06.17-.03.07.04.13.11.19.19s.15.11.29.09c0 .05 0 .08-.02.09s-.03.04-.05.09c.32.11.61.23.86.34.25.12.46.32.62.62-.07.02-.13 0-.17-.07-.05-.07-.09-.07-.14 0-.05 0-.06.02-.05.05.01.04 0 .06-.05.09.16.21.35.36.56.46s.4.27.53.5c-.05.07-.06.14-.05.21s-.02.15-.08.24c.32.07.5.21.55.41-.11.05-.22.04-.32-.03a.968.968 0 0 0-.33-.14c-.09.11-.15.21-.17.27-.02.07-.07.16-.14.28-.18-.05-.32-.02-.43.07-.1.09-.19.21-.26.34-.14.02-.23.03-.28.02-.04-.01-.14 0-.27.05-.07.02-.11.02-.14-.02-.02-.04-.06-.06-.1-.09-.46.02-.91.08-1.35.17-.45.09-.89.13-1.32.1-.11 0-.21-.02-.29-.07a.34.34 0 0 0-.26-.04c-.07 0-.13.01-.19.04-.06.02-.12.04-.19.07-.25.05-.52.08-.79.09s-.54.04-.79.09c-.48.09-.96.19-1.44.31s-.95.18-1.4.21c-.09 0-.18-.01-.28-.03a.33.33 0 0 0-.24 0c-.21.02-.41.07-.62.14-.21.07-.44.13-.69.17-.18.04-.37.07-.57.07s-.36.04-.5.14c-.34.02-.66.07-.94.15-.28.08-.6.15-.94.22-.09-.09-.15-.14-.17-.14-.48.11-.85.16-1.11.14-.27-.02-.63.02-1.08.14.04-.07.11-.13.19-.19s.15-.08.22-.05c-.04-.14-.21-.19-.5-.15-.29.03-.45.12-.5.26-.11-.07-.29-.09-.52-.05-.23.03-.43.03-.62-.02-.25.16-.48.22-.69.17-.2-.05-.43.01-.68.17-.18-.07-.4-.11-.65-.12s-.46 0-.62.05v-.21c.18-.02.37-.06.57-.12.19-.06.37-.14.53-.26.23.11.44.11.64-.02.19-.13.42-.18.67-.16.18-.11.38-.19.58-.22.21-.04.44-.04.69-.02.02-.02.03-.05.03-.08 0-.04.01-.06.03-.09.18.09.36.08.53-.03.17-.11.35-.2.53-.24-.41.04-.87.11-1.37.2-.5.09-.97.21-1.41.34-.14-.04-.37-.06-.69-.03s-.63.03-.93.03c-.2.02-.4.07-.58.14-.18.07-.35.08-.52.04-.02-.16-.05-.26-.08-.29-.04-.03-.06-.12-.09-.26-.18-.04-.34-.03-.46.03-.13.07-.26.13-.39.17-.09.02-.17.02-.22 0a.308.308 0 0 0-.19 0c-.07.02-.12.05-.15.09-.03.03-.08.06-.12.08-.11.05-.27.08-.48.1s-.4.06-.58.1c-.27.04-.58.09-.91.12-.33.03-.61.02-.84-.05v-.07Zm10.92-.97c-.23 0-.39.06-.48.17.11-.04.21-.07.29-.08s.14-.04.19-.09Z" style="fill:#fb0742"></path><path d="M232.35 121.95c.14 0 .25-.04.33-.12l.29-.29c.14-.14.25-.24.34-.31.21-.18.42-.38.65-.6.23-.22.47-.42.72-.6.11-.09.23-.18.36-.26s.25-.18.36-.29c.11-.09.23-.16.34-.22.11-.06.22-.13.31-.22.05-.05.09-.1.14-.16.05-.06.1-.11.17-.15.16-.09.3-.18.43-.26s.27-.18.43-.29c.16-.07.32-.15.46-.24.15-.09.28-.22.39-.38.25-.02.49-.11.7-.27s.44-.3.67-.41c.07-.05.14-.08.21-.09.07-.01.12-.04.17-.09.21-.11.43-.21.67-.29s.49-.18.74-.29c.09.03.2.02.32-.02s.23-.07.33-.12c.66-.14 1.37-.25 2.13-.34.75-.09 1.43-.16 2.02-.21.02 0 .03.03.03.07 0 .05.02.06.07.03.04 0 .04-.02 0-.05-.05-.03-.05-.06 0-.09.07 0 .11-.01.14-.03.11.07.21.16.27.27.07.11.16.2.28.24.04.05.04.07 0 .07-.05 0-.07.01-.07.03.04.05.1.06.15.03.06-.02.11-.05.16-.08.04-.04.09-.06.14-.09.04-.02.09-.01.14.03.14-.11.21-.29.21-.53s.06-.44.17-.6c-.02-.18 0-.33.05-.45.06-.11.07-.24.05-.38.02 0 .03 0 .03-.02s.02-.02.07-.02c.11-.41.21-.83.29-1.25.08-.42.2-.82.36-1.18 0-.09-.01-.15-.03-.17.04.02.07.01.07-.04 0-.04.02-.07.07-.07 0-.09.03-.21.09-.34.06-.14.12-.25.19-.34v-.17c.25-.51.46-1.03.63-1.58.17-.55.39-1.06.67-1.54.27-.73.62-1.4 1.04-2 .42-.61.83-1.24 1.22-1.9.09-.05.16-.1.2-.17.05-.07.11-.13.21-.17 0-.05 0-.07-.02-.07s0-.02.02-.07c.14-.14.28-.27.45-.4.16-.13.3-.27.41-.43.14-.07.27-.15.39-.24.13-.09.25-.2.36-.31.09.05.21.07.36.07s.22.08.22.24c.07 0 .13-.02.17-.07a.45.45 0 0 1 .14-.1c.04 0 .09.02.14.05.04.03.09.03.14-.02.09.05.14.18.16.41.01.23-.08.34-.26.34 0 .09-.01.15-.03.17s-.03.08-.03.17c.09 0 .14-.02.15-.05.01-.03.06-.04.15-.02.05-.14.1-.17.17-.1 0 .07-.01.12-.03.16-.03.03-.06.07-.1.12.04.16.09.33.14.51.04.18.09.35.14.51-.02.02-.01.11.03.27h-.07c.04.12.05.22.02.33s-.05.2-.05.29c-.04.34-.08.7-.12 1.06-.03.37-.11.71-.22 1.03-.12.46-.28.89-.5 1.3-.22.41-.39.85-.53 1.3-.14.23-.24.47-.31.72s-.15.5-.24.75c-.14.32-.28.63-.43.91-.15.29-.25.61-.29.98-.09.05-.14.12-.15.22s-.04.21-.09.33c-.16.3-.28.58-.38.86-.02.07-.03.14-.02.21.01.07 0 .14-.02.21-.05.14-.11.27-.21.41s-.15.27-.17.41c-.09.12-.16.27-.21.45-.05.18-.09.37-.14.55-.02.04-.05.1-.07.17-.02.07-.04.13-.07.17-.03.07-.04.14-.04.2s-.01.14-.03.21c-.02.18-.06.35-.1.52-.04.16-.08.32-.1.48v.24c0 .07-.03.13-.1.17-.02.37-.1.67-.24.91-.14.24-.26.51-.38.8-.04 0-.07.01-.07.04s-.03.03-.07.03c-.04.07-.08.15-.09.24s-.03.18-.05.27c-.09.25-.18.51-.27.77-.09.26-.16.53-.21.81-.02.23-.03.45-.03.67s-.04.42-.1.6c-.05-.02-.07-.03-.07-.02s-.02.03-.07.05c-.03.03-.04.05-.04.07s-.02.03-.07.03c-.05.32-.1.63-.17.93-.07.3-.13.61-.17.93 0 .04-.02.07-.05.07-.03 0-.05.03-.05.07-.04.34-.11.66-.19.96-.08.3-.14.57-.19.82 0 .05-.02.09-.07.14-.07.16-.11.33-.14.5-.02.17-.06.35-.1.53 0 .11-.02.21-.07.27-.05.07-.09.15-.14.24a.33.33 0 0 0 0 .24c.02.09-.03.14-.14.14h-.07c-.02-.09-.03-.18-.03-.26s-.04-.14-.1-.19c-.07.07-.09.15-.05.26.04.1.04.21.02.32-.02.07-.04.16-.05.26-.01.1 0 .21.05.32a.63.63 0 0 0-.19.41c-.01.16 0 .31.05.45-.09.02-.14.09-.15.22l-.03.4c-.01.14-.03.26-.05.38s-.1.17-.24.17c.09-.11.09-.24 0-.38-.07.04-.09.13-.05.24.03.11.04.23.02.34-.05.02-.09.02-.12 0s-.08-.03-.12-.03c-.02-.11-.02-.23 0-.34s.02-.24 0-.38c-.05.02-.07.07-.07.14s-.04.1-.14.1c-.02-.28 0-.56.07-.84.07-.29.09-.56.07-.81-.11.02-.18.06-.2.1-.03.04-.07.09-.14.14-.04.46-.04.88 0 1.27.05.39.04.81-.03 1.27-.11.07-.22.06-.31-.03a1.08 1.08 0 0 0-.28-.21c-.07.07-.12.17-.15.29s-.06.25-.07.38-.03.24-.07.34a.3.3 0 0 1-.19.19.43.43 0 0 1 .07-.1c.02-.02.02-.06 0-.1-.02-.05-.05-.07-.07-.07s-.03-.01-.03-.03c0-.44 0-.82-.02-1.17s-.05-.72-.12-1.13c-.05-.14-.06-.31-.05-.51s-.02-.38-.08-.51c0-.59.03-1.15.1-1.66s.09-1.04.07-1.56c-.07.07-.13.06-.17-.04-.05.39-.08.75-.09 1.06-.01.32-.06.63-.15.93-.09.02-.13-.01-.1-.1.02-.09-.03-.11-.14-.07-.03-.23-.01-.45.03-.65.04-.21.09-.4.14-.58 0-.09 0-.18-.02-.26-.01-.08 0-.14.02-.19.04-.18.1-.37.17-.57.07-.2.06-.38-.03-.57.11-.27.15-.55.12-.84-.03-.28 0-.58.09-.87-.05 0-.1.02-.17.07s-.11.1-.14.17c0-.02-.03-.04-.1-.04-.25.18-.49.36-.7.53-.22.17-.45.34-.7.5v.14c-.18.11-.34.24-.48.38s-.3.23-.48.28c-.05 0-.06.02-.04.05s.01.06-.03.09c-.27.09-.54.2-.81.33s-.53.26-.81.39c-.62.32-1.21.59-1.78.82-.11.07-.24.13-.38.17-.14.05-.27.1-.41.17v.03l-.03.03s-.08-.02-.17-.07c-.04 0-.07.01-.07.03s-.01.03-.04.03c-.25.05-.54.09-.86.14-.32.05-.62.09-.89.14-.32-.03-.65-.05-1-.07s-.64-.09-.89-.21c-.44-.2-.8-.49-1.1-.84-.3-.35-.61-.71-.93-1.08-.09.05-.18.07-.28.07a4.9 4.9 0 0 1-.24-.89c-.04-.3-.02-.62.07-.96-.02-.02-.05-.03-.09-.02a.31.31 0 0 1-.08.02c.07-.09.08-.19.03-.31s-.09-.2-.14-.24c.3-.76.51-1.6.65-2.54Zm6.77 2.27.14-.14c.04-.04.08-.02.1.07.21-.09.41-.18.62-.26.21-.08.41-.14.62-.19.11-.14.25-.21.4-.22.15-.01.29-.04.43-.09.07 0 .14-.02.21-.07a.67.67 0 0 1 .21-.1c.04-.04.08-.06.12-.05.03.01.07 0 .12-.02.02-.02.03-.04.03-.05s.02-.03.07-.05c.11-.04.21-.07.29-.08s.16-.05.26-.12c.04.02.06.02.03-.02-.02-.04-.01-.05.04-.05.27-.02.51-.08.7-.17.19-.09.38-.2.56-.31.11-.04.21-.08.29-.1.08-.02.19-.04.33-.07.07-.02.12-.05.15-.07s.07-.06.12-.1c.18-.11.34-.19.46-.22.13-.03.27-.09.43-.19.02-.11.04-.26.04-.45s.06-.3.17-.34c0-.37.07-.73.21-1.1s.15-.7.03-.99c-.07-.02-.11-.02-.12.02-.01.03-.05.05-.12.05-.02 0-.02-.01 0-.03s.01-.02-.03 0c-.18.07-.35.11-.52.12-.16.01-.3.1-.41.26-.02 0-.04 0-.05-.02a.076.076 0 0 0-.05-.02c-.04.04-.11.08-.19.12-.08.03-.15.07-.19.12-.64.3-1.25.62-1.82.98-.57.35-1.17.69-1.78 1.01 0 .05-.07.12-.21.21a.47.47 0 0 1-.22.22c-.1.06-.19.14-.26.26-.05 0-.08.01-.1.04-.02.02-.06.03-.1.03-.09.09-.15.17-.17.24-.05 0-.08 0-.09.02s-.04.02-.09.02c-.25.25-.5.49-.74.72s-.49.46-.74.69c-.05.18-.15.33-.33.43-.17.1-.3.23-.39.39v.03c.25-.02.5-.07.74-.15s.51-.14.81-.19Zm7.13-3.57c-.02.14-.03.23-.02.29.01.06 0 .14-.02.26.07-.04.12-.13.15-.26s0-.22-.12-.29Zm.11-.1s.01-.08.03-.1c.02-.03 0-.04-.07-.04 0 .09.01.14.04.14Zm.1-.58s.01.08-.04.12a.18.18 0 0 0-.07.15c.07.02.11-.01.14-.1s.01-.15-.03-.17Zm1.13 10.84s.06-.08.03-.1c-.02-.03-.02-.04 0-.04-.04 0-.07.02-.07.07 0 .04.01.07.03.07ZM267.39 121.47s-.04-.03-.05-.03c-.01 0-.03-.01-.05-.03.09.14.22.15.4.03.17-.11.32-.17.46-.17 0 .05-.01.08-.03.09s-.03.03-.03.05c.04.07.09.08.12.03s.07-.04.12 0c.02.07 0 .11-.05.14-.06.02-.08.01-.08-.03-.05.02-.07.05-.07.08 0 .04-.02.05-.07.05.02.09.02.18 0 .27.09 0 .18-.01.27-.03-.02.09-.03.21-.03.34-.12.07-.2.14-.26.22-.06.08-.14.16-.26.26-.04.02-.07.02-.07-.02s-.03-.05-.07-.05v.14c-.11-.02-.18 0-.19.05-.01.06-.04.12-.09.19.07 0 .11-.02.14-.05s.07-.07.14-.12c0 .05.02.08.07.09.04.01.07.04.07.08-.07 0-.11.01-.14.04s-.07.03-.14.03c0 .02 0 .04-.02.05-.01.01-.02.04-.02.09-.07-.02-.1 0-.1.05s-.01.11-.04.15c-.18 0-.32.04-.43.14s-.23.13-.39.1c-.05.09-.12.14-.22.14s-.18.06-.22.17c-.05.03-.08.03-.09 0a.055.055 0 0 0-.05-.03c-.07.11-.16.18-.28.21s-.2.07-.27.14h.03a.58.58 0 0 1-.2.31c-.09.07-.17.07-.24 0-.05.09-.11.16-.19.22s-.14.12-.19.19c.05.02.11 0 .19-.07s.14-.06.19.03c-.11.11-.25.21-.41.27-.16.07-.32.13-.48.17 0 .09.01.12.03.08.02-.03.04-.03.04.02-.05.05-.09.08-.14.09-.05.01-.07.08-.07.19-.23-.05-.33.04-.31.27-.04.02-.08 0-.1-.07-.32.25-.67.47-1.05.65s-.74.39-1.08.62c-.25 0-.48.13-.69.38-.34.11-.67.26-.98.43-.31.17-.61.35-.91.53 0 .05.01.06.03.04s.05-.04.07-.04c-.25.21-.53.37-.84.48-.31.11-.59.28-.84.48-.3.03-.57.09-.82.21s-.5.2-.75.24c-.05.02-.11.03-.19.02s-.17 0-.26.02c-.18.05-.44.06-.77.04a7.48 7.48 0 0 1-.84-.1c-.04-.02-.1-.05-.15-.09-.06-.03-.12-.08-.19-.12a.16.16 0 0 0-.08.03c-.04.03-.06.01-.09-.03-.05-.02-.09-.07-.14-.14a.453.453 0 0 0-.21-.17c-.11-.07-.23-.14-.34-.22s-.23-.14-.34-.19c0-.04-.01-.07-.03-.09-.02-.01-.03-.04-.03-.08-.07 0-.1-.01-.1-.04-.02-.04-.03-.08-.02-.1.01-.03.02-.05.02-.07-.05-.02-.06-.02-.05.02s0 .04-.02.02c-.18-.25-.34-.52-.48-.81-.14-.28-.3-.53-.48-.74-.04-.34-.16-.61-.34-.79-.02 0-.02.02.02.05.03.03.03.05-.02.05-.23-.34-.34-.8-.32-1.36.01-.56.11-1.07.29-1.53.07-.09.13-.19.17-.31.04-.11.13-.2.24-.24.25-.64.57-1.18.96-1.63.39-.45.77-.87 1.13-1.29.07-.09.14-.17.22-.24.08-.07.16-.16.26-.27.07-.09.17-.2.31-.31.11-.11.23-.23.36-.34.13-.11.26-.23.39-.34.23-.18.42-.37.57-.57.15-.2.34-.35.57-.46 0-.04 0-.07.02-.07.01 0 .02-.02.02-.07.16-.07.3-.16.43-.26s.25-.25.36-.43c.18.02.32-.03.4-.17.08-.14.18-.24.29-.31.09-.04.18-.08.26-.1.08-.02.16-.07.22-.14.09-.09.17-.16.24-.21.34-.23.69-.44 1.03-.63s.71-.38 1.1-.57c.25-.11.51-.25.79-.41.27-.16.57-.29.89-.38.07 0 .1-.03.1-.07.04.02.1.02.15-.02.06-.03.11-.06.16-.09.18-.07.37-.13.56-.19.2-.06.39-.11.57-.16.18 0 .4 0 .64.02.24.01.45.08.63.19.02.07.02.1 0 .1h-.07c.09.07.2.14.31.21.11.07.19.18.24.34.04.05.11.09.21.14.07.2.16.32.27.34-.05.03-.06.04-.03.05.02.01.03.03.03.05.09.07.15.15.17.22.02.08.06.18.1.29.05.11.1.2.17.27s.13.16.17.27c.04.07.07.15.07.22s.02.14.07.19c0 .11-.01.19-.03.24.09.04.14.11.15.19.01.08 0 .16-.02.24-.02.08-.04.17-.05.26-.01.09 0 .18.05.28 0 .04-.02.08-.05.12-.04.03-.04.09-.02.15-.18.18-.34.39-.48.63-.14.24-.29.45-.45.64-.05.02-.08.04-.09.07-.01.03-.04.05-.09.07-.09.11-.18.22-.26.31-.08.09-.18.18-.29.28-.05.04-.1.08-.16.1-.06.02-.11.08-.15.17-.04.05-.1.1-.17.15-.07.06-.13.11-.17.16-.11.04-.25.1-.39.15-.15.06-.26.14-.33.26-.37.21-.72.42-1.06.65s-.71.43-1.1.62c-.11.04-.22.07-.31.09-.09.01-.17.06-.24.15-.11 0-.22.04-.31.12s-.21.13-.34.15c-.07 0-.11.03-.14.1l-.1-.03c-.23.16-.46.28-.7.36s-.49.15-.74.22c-.09.02-.14.01-.14-.04a.94.94 0 0 0-.26.1c-.06.05-.15.06-.26.03-.04.05-.09.08-.14.1-.18 0-.35.03-.51.07s-.33.04-.51 0c-.05 0-.07.01-.07.03s-.02.05-.07.07c-.11-.05-.23-.07-.34-.07s-.2-.06-.24-.17c-.05 0-.09 0-.14.02-.04.01-.1 0-.17-.05-.18.18-.37.38-.55.58-.18.21-.34.45-.48.72-.02 0-.03 0-.03-.02s-.01-.02-.03-.02c-.02.09-.06.15-.12.19-.06.03-.09.13-.09.29-.14.07-.22.2-.24.38a.73.73 0 0 1-.21.45c.25 0 .52-.03.81-.1.28-.07.56-.11.81-.14.04-.02.07-.05.07-.09 0-.03.02-.06.07-.08.16.02.28 0 .38-.05.09-.06.21-.09.34-.09.02 0 .06-.04.1-.14.11.03.25 0 .41-.07.16-.07.3-.14.41-.21.25 0 .5-.06.74-.19s.49-.21.74-.26c.11-.14.27-.2.46-.2s.33-.08.39-.24c.18-.04.35-.08.52-.12.16-.03.32-.11.48-.22.02 0 .03.01.03.03s.02.02.07 0v-.07c.14-.09.3-.15.48-.17.18-.02.33-.11.44-.27.32 0 .61-.08.86-.24h.03s.03 0 .03.02.01.02.03.02c.03 0 .04-.01.05-.03s.04-.05.09-.07c.32-.09.64-.21.96-.36.32-.15.67-.33 1.06-.53.04.04.09.05.14.02.04-.04.1-.03.17.02.18-.11.37-.18.55-.21.18-.02.38-.07.58-.14.14-.04.27-.1.41-.17.14-.07.28-.1.45-.1.18 0 .35-.06.51-.17s.33-.19.52-.24c.09 0 .19 0 .29-.02s.19-.02.26-.02c0 .07-.03.1-.09.1s-.08.03-.08.1c-.14-.05-.25-.02-.34.08a.31.31 0 0 1-.34.09c-.02.05-.05.07-.07.07s-.03.02-.03.07Zm-9.06-1.37c.07-.11.16-.13.27-.05.11.08.21.08.28-.02-.03.09-.03.14 0 .14.02 0 .05-.02.08-.05.04-.03.07-.07.1-.1.04-.03.06-.05.09-.05.02-.03.05-.03.09-.02.03.01.06.02.08.02.14.02.24-.05.31-.21s.16-.23.27-.21c.09-.11.19-.17.29-.17s.19-.07.26-.21c.14 0 .31-.04.51-.14s.47-.28.79-.55c.04-.09.14-.26.27-.51s.24-.4.31-.45c-.05-.04-.11-.06-.19-.03s-.16.06-.24.1l-.24.12c-.08.03-.13.04-.15.02-.05.04-.15.13-.31.26s-.26.19-.31.19c-.16.02-.29.11-.4.26s-.22.2-.36.15c-.04.09-.1.17-.17.24-.07.07-.15.08-.24.03l-.14.14s-.11.07-.21.07c-.02 0-.03.02-.02.05.01.04 0 .05-.02.05-.07-.02-.12 0-.16.05-.03.06-.07.09-.12.09 0-.02-.01-.03-.03-.03v.07c-.14.11-.28.21-.43.29-.15.08-.28.21-.39.39h-.07v.1s.07-.01.08-.03.04-.02.09 0Z" style="fill:#fb0742"></path><path d="M267.97 120.77c.14-.13.23-.31.27-.56h.1c.02-.07 0-.09-.07-.07-.07.02-.09 0-.07-.07.25-.3.54-.57.86-.82.32-.25.59-.56.82-.92.05-.02.07-.02.07.02s.01.03.03-.02c.14-.16.29-.29.46-.4.17-.1.32-.28.43-.53h.2c.16-.18.33-.32.52-.41.18-.09.34-.2.48-.34.25-.02.46-.13.63-.31.17-.18.4-.27.7-.27.04.02.07.02.07-.02s.01-.06.03-.09c.25-.05.55-.09.89-.12s.7-.1 1.06-.19h.12s.05.01.12.04h.58c.18 0 .37.04.57.14.19.09.37.14.53.14.05 0 .08-.02.09-.05.01-.03.03-.05.05-.05.21.04.39.16.55.34.16.18.34.26.55.24.18-.46.36-.91.53-1.36.17-.44.38-.84.64-1.18h.14c.04-.07.08-.13.12-.17.03-.04.06-.1.08-.17.18-.05.36-.17.53-.38.17-.2.37-.28.6-.24 0 .05-.02.07-.05.07-.03 0-.06.02-.08.07.09.09.19.1.31.03.09.04.2.11.33.19s.26.08.39-.02c0 .07.01.12.04.16.02.03.06.07.1.12.11-.07.22-.05.31.07s.21.1.34-.03c.09.09.18.18.26.27.08.09.18.15.29.17.14.34.3.67.48.98.18.31.31.68.38 1.11.02.16.02.3-.02.43s-.04.27-.02.43c0 .07-.01.12-.04.14l-.07.07c.04.14.03.28-.04.43-.07.15-.1.31-.1.5-.12.25-.22.53-.31.84s-.17.63-.24.98c0 .05-.03.07-.1.07-.14.66-.3 1.32-.5 1.97-.2.65-.41 1.29-.63 1.9-.03.05-.05.11-.09.21s-.05.16-.05.21c-.02.07-.03.14-.02.21.01.07 0 .11-.02.14-.04.14-.11.27-.19.39-.08.13-.11.29-.09.5-.23.64-.41 1.3-.55 1.99s-.3 1.39-.48 2.09c-.09.23-.2.45-.31.67-.12.22-.22.43-.31.63a.66.66 0 0 0-.38.33.66.66 0 0 1-.38.33c.04-.11.02-.17-.09-.17s-.2-.01-.29-.03c.16 0 .22-.1.17-.31a.776.776 0 0 1-.19-.36c-.03-.15-.11-.17-.22-.05-.04.02-.07.02-.08-.02-.01-.03-.03-.06-.05-.09-.04.02-.05.05-.02.09s.03.07-.02.12c-.16-.07-.31-.22-.45-.45s-.31-.33-.51-.31c-.02 0-.03-.03-.02-.07s0-.07-.02-.07c-.05.05-.05.07-.02.07.03 0 .03.02-.02.07-.07.04-.11.02-.12-.09s-.03-.2-.05-.29c-.05-.04-.07-.04-.07 0 0 .05-.01.05-.03 0-.11-.66-.22-1.32-.33-1.97-.1-.65-.13-1.35-.08-2.11-.05-.07-.08-.08-.1-.03-.03.04-.06.1-.1.17-.16.16-.38.32-.65.48-.27.16-.49.33-.65.52-.05.07-.11.15-.19.24s-.18.16-.29.2c-.02.05-.03.09-.03.12 0 .04-.01.06-.04.09-.66.34-1.28.75-1.85 1.24-.57.48-1.23.85-1.96 1.1-.02.04-.04.09-.05.14-.01.04-.03.1-.05.17-.18-.02-.39 0-.63.05-.24.06-.45.11-.63.15.04.04.13.07.24.07.02.18-.02.27-.14.27s-.2.06-.24.17c-.16-.07-.3-.11-.41-.14a2 2 0 0 0-.45-.5c-.16-.13-.32-.24-.48-.34-.16-.1-.32-.21-.5-.31-.17-.1-.34-.23-.5-.4v-.17s-.07-.05-.14 0c-.3-.48-.57-1.04-.81-1.68-.24-.64-.39-1.33-.46-2.06-.02-.09-.02-.14 0-.15s.05-.03.07-.05c-.05-.34-.05-.64-.02-.88.03-.24.09-.5.19-.77.02-.07.06-.14.12-.21.06-.07.11-.14.16-.21.02-.11.07-.22.14-.31.04-.11.08-.18.12-.21.03-.02.07-.04.12-.07.14-.18.26-.37.38-.57.11-.2.24-.35.38-.46h.14c.09-.16.21-.3.34-.43Zm1.82 5.03s-.08.06-.12.1c-.03.05-.03.07.02.07 0-.04.02-.06.07-.05.04.01.06-.03.03-.12Zm.45-.38c.07.05.11.06.14.04.09-.07.19-.13.29-.19.1-.06.23-.11.39-.15.11-.18.26-.32.45-.4.18-.08.34-.19.48-.32.41-.21.8-.42 1.17-.65.37-.23.73-.46 1.08-.69.35-.23.71-.44 1.06-.65s.73-.39 1.11-.55c.07-.16.16-.27.29-.32.13-.06.28-.13.46-.22.07-.39.14-.77.22-1.13s.14-.72.19-1.06c-.14.05-.26.1-.38.17-.11.07-.23.15-.34.24-.03 0-.03.02-.02.05.01.03 0 .06-.02.09-.27.07-.53.22-.77.45s-.49.38-.74.44c-.14.11-.27.23-.4.34s-.28.21-.46.28c-.12.16-.23.3-.34.41s-.27.2-.45.24c-.59.48-1.16 1.02-1.68 1.61-.53.59-1.06 1.14-1.61 1.64-.04.14-.12.24-.22.31s-.19.16-.26.27c.09-.04.16-.07.21-.08.04-.01.09-.06.14-.16ZM294.81 111.14s.08.04.1-.02c.02-.06.07-.07.14-.05 0 .02-.01.06-.03.1.04 0 .08-.01.1-.04.02-.02.06-.04.1-.07.04.04.04.08 0 .1-.05.02-.05.06 0 .1 0 .04-.03.07-.09.07s-.06.02-.02.07c.04.02.09 0 .14-.07.04-.07.09-.09.14-.07 0 .09-.01.16-.03.2.14-.04.23-.13.27-.24s.13-.17.24-.17c.02.04.04.09.07.12a.9.9 0 0 0 .1.12c.02-.02.06-.03.12-.03s.12-.01.19-.04c.09.05.15.04.19-.03.03-.07.08-.1.15-.1.04.02.03.09-.03.21.04.02.08.02.12-.02.03-.03.06-.08.08-.12.07.11.17.21.31.29.14.08.26.18.38.29.02 0 .03-.02.02-.05-.01-.03 0-.05.05-.05.04.18.09.28.14.31.07.25.15.46.24.62.09.16.14.34.14.55-.02.09-.04.18-.05.28-.01.09-.03.16-.05.2-.07.28-.13.53-.17.76-.05.23-.03.44.03.65.09.3.13.61.1.93-.05 0-.07 0-.07.02s-.01.02-.03.02c0 .3-.05.57-.15.82s-.21.5-.33.75c-.11.3-.2.59-.26.88-.06.28-.15.56-.29.84 0 .04 0 .07-.02.07s0 .03.02.07c-.07.04-.1.12-.1.22s-.04.18-.1.22c-.05 0-.09-.02-.14-.07-.18.05-.32.15-.41.31-.09.16-.23.26-.41.31.02-.07.02-.08-.02-.05s-.05.03-.05-.02c-.04-.02-.07-.02-.07.02s-.01.05-.03.05c-.09 0-.14-.04-.14-.14-.04.05-.07.05-.07.02 0-.03-.02-.03-.07.02-.05.03-.06.01-.05-.03.01-.04 0-.08-.05-.1-.11.05-.21.02-.29-.07a.385.385 0 0 0-.29-.14c-.09-.11-.22-.18-.38-.21s-.29-.1-.38-.24c-.05-.11-.1-.2-.15-.26-.06-.06-.11-.12-.16-.19-.02-.18-.07-.3-.14-.34-.07-.04-.1-.14-.1-.27-.11-.07-.19-.14-.22-.22-.03-.08-.07-.18-.12-.29.05-.07.06-.16.04-.28a.688.688 0 0 0-.1-.24c.07-.14.09-.27.07-.41-.16.04-.31.1-.46.15-.15.06-.31.11-.5.15-.34.25-.69.48-1.03.69-.34.21-.64.47-.89.79-.02 0-.03 0-.03-.02s-.01-.02-.03-.02c-.23.25-.44.5-.64.74-.19.24-.4.46-.63.67.02.07.02.11 0 .14.39.3.97.48 1.75.55.04.02.09.03.15.02.06-.01.12-.02.19-.02.09.02.21.05.36.09.15.03.3.05.46.05.23.02.46.04.7.05s.47.04.7.08c.25.05.52.09.81.12.28.04.57.08.84.12.04 0 .08-.02.1-.05s.04-.05.07-.05c.05.03.09.05.14.07.04.02.09.03.14.03.11.05.24.06.38.04s.26-.06.38-.1c.39-.05.64.02.75.2.16-.02.32-.02.48 0 .16.03.32.05.48.07.05.02.1.02.16 0s.11-.02.15 0c.07.02.13.06.17.12.04.06.11.1.2.12.02.02.05.03.07.02s.03 0 .03.02c.18.09.34.17.46.24.13.07.25.15.36.24.04.14.11.22.21.26.09.03.15.09.17.19 0 .02 0 .02.02-.02s.03-.03.05.02c-.09.21-.08.48.03.82.02.05.06.09.1.14v.14c0 .07.02.11.07.14-.02.18-.06.34-.12.48-.06.14-.11.28-.15.44-.07 0-.13.01-.17.04-.05.02-.11.03-.21.03-.16.21-.35.35-.58.45-.23.09-.44.23-.62.41-.27.09-.46.16-.55.21-.62.21-1.23.42-1.83.65s-1.24.42-1.9.58c-.05 0-.06.02-.05.07.01.04 0 .07-.05.07-.07 0-.1-.02-.1-.07-.34.18-.68.31-1.01.38-.33.07-.68.17-1.05.31-.02 0-.03.03-.03.07-.78.21-1.53.47-2.26.79-.25.09-.47.18-.67.27s-.42.14-.67.14c0 .02 0 .04-.02.05s-.02.04-.02.08a.66.66 0 0 1-.24-.03c-.25.04-.49.1-.7.15-.22.06-.42.12-.6.19a.95.95 0 0 0-.21.09c-.07.03-.14.07-.2.12-.18.04-.36.06-.53.05a.655.655 0 0 0-.46.15c-.25-.02-.5 0-.75.05-.25.06-.54.07-.86.05 0-.11.02-.19.07-.22a.13.13 0 0 0 .07-.12c.04.05.1.06.17.05.07-.01.11-.04.14-.09.04-.04.06-.09.03-.12s-.03-.08-.03-.12c-.07 0-.15 0-.24.02a.34.34 0 0 0-.21.09c-.05.02-.09.06-.14.12-.05.06-.1.07-.17.05 0-.04.02-.1.05-.15.03-.06.07-.11.12-.15h-.04v-.07s-.08.02-.1 0c-.03-.02-.05-.01-.07.03-.04-.02-.06-.05-.03-.08.02-.04.02-.06 0-.09-.07.02-.09.05-.07.09.02.03.03.07.03.12-.11.04-.18.04-.2-.02-.02-.06-.06-.06-.1-.02-.05-.09-.03-.18.05-.26.08-.08.09-.16.02-.26-.04.02-.08.05-.12.07-.03.02-.07.02-.12 0a.487.487 0 0 1 .02-.29c.04-.1.03-.2-.02-.29.05-.05.09-.1.14-.15.05-.06.09-.09.14-.09-.02-.16.02-.26.12-.31.1-.04.14-.13.12-.24.11-.04.2-.09.26-.12s.14-.04.26-.02c.34-.18.66-.31.96-.38.3-.07.61-.18.93-.34-.02-.07-.05-.08-.07-.03-.02.04-.04.06-.07.03.37-.25.78-.46 1.23-.62s.86-.37 1.2-.62c.04.02.08.02.09 0s.03-.01.05.03c.21-.11.43-.21.67-.27.24-.07.43-.2.57-.38.04 0 .09-.02.15-.05.06-.03.11-.05.15-.05.3-.21.62-.39.98-.55s.69-.34 1.01-.55c-.05-.04-.09-.07-.14-.07-.02 0-.05 0-.07.02s-.04.02-.07.02c-.09-.04-.2-.06-.33-.05s-.25.02-.36.02c-.11-.02-.23-.05-.36-.09s-.25-.07-.36-.12c-.11-.04-.22-.06-.33-.05s-.21 0-.33-.05a.798.798 0 0 0-.41-.17c-.16-.02-.3-.06-.41-.1-.16-.27-.37-.46-.63-.55a.937.937 0 0 1-.57-.55c-.34-.11-.55-.31-.63-.58-.08-.28-.2-.54-.36-.79-.05 0-.06.03-.03.09.02.06.01.1-.04.12-.09-.18-.11-.42-.07-.72.04-.3.08-.54.1-.72.04-.11.07-.22.07-.33s.05-.2.14-.29c-.11-.11-.19-.18-.24-.21-.02-.11-.01-.2.04-.24.04-.04.11-.1.2-.17.11-.16.2-.37.24-.62.16-.11.29-.26.38-.43.09-.17.19-.33.31-.46 0 .02.01.03.03.03.23-.18.46-.38.7-.58s.47-.41.7-.62c.16-.04.31-.14.45-.27.25-.18.48-.38.69-.6s.43-.4.69-.53c.02-.04.06-.07.12-.09.06-.01.08-.06.08-.15.23-.04.44-.15.64-.31.19-.16.44-.28.74-.34.02 0 .07-.06.14-.17.32-.04.63-.15.94-.33.31-.17.62-.2.94-.08.02-.11.03-.2.02-.26-.01-.06-.02-.16-.02-.29.04-.04.09-.04.14 0 .09-.14.2-.26.33-.36s.22-.26.29-.46c.09 0 .15-.03.17-.1a.29.29 0 0 1 .14-.17l-.07.07Zm-12.01 17.74c.03-.07.01-.1-.03-.1s-.07.02-.07.07c.03.02.06.03.1.03Zm2.6-2.09c-.09 0-.14.04-.14.14.09 0 .14-.04.14-.14ZM304.93 116.4c.04-.11.13-.2.24-.24.11-.05.22-.1.31-.17.05-.02.09-.06.14-.1.05-.04.09-.09.14-.14.12-.04.22-.08.33-.1s.18-.1.22-.24c0 .05.03.06.09.05.06-.01.08.02.08.08.18-.09.39-.17.62-.24.23-.07.46-.14.68-.2.03-.05.07-.1.14-.17.23-.04.42-.11.58-.19.16-.08.34-.14.55-.19.02 0 .03-.03.03-.1.48-.02.93-.13 1.34-.31 0-.07.03-.11.08-.14.06-.02.11-.04.16-.07.04-.02.09-.05.14-.09.04-.03.07-.1.07-.19.05.02.08.03.1.02l.1-.05c-.11 0-.22 0-.33-.02s-.18-.06-.22-.15c-.25.02-.49.05-.72.09-.23.03-.46.11-.68.22-.05-.14-.1-.2-.17-.2-.02.02-.03.05-.02.08.01.04 0 .08-.02.12-.48.21-.96.36-1.44.46s-.96.26-1.44.46c-.02-.11 0-.17.05-.17.06 0 .09-.05.09-.14-.07.02-.11.07-.14.14-.02.07-.08.08-.17.03.09-.18.23-.33.43-.43.2-.1.42-.19.67-.26.02-.07.03-.18.03-.34.37-.25.74-.44 1.13-.56.39-.13.79-.25 1.2-.36.05-.05.07-.09.07-.12 0-.04.02-.06.07-.09.11 0 .17.02.17.07.11-.07.21-.15.29-.26.08-.1.16-.21.22-.33-.04-.07-.11-.08-.19-.05s-.16.05-.22.05c-.07-.04-.15-.09-.26-.12s-.21-.02-.33.05c0-.05.02-.09.05-.12.04-.03.04-.08.02-.15.87-.18 1.61-.42 2.23-.69s1.29-.51 2.02-.69c.05-.02.07-.02.07 0s.01.04.03.07c0-.05.01-.08.03-.09s.05-.04.07-.09a5.44 5.44 0 0 0 1.73-.35c.56-.21 1.14-.31 1.73-.31.04-.03.08-.06.09-.1.01-.05.04-.09.08-.14.07 0 .11.02.14.05.02.03.06.04.1.02.55-.18 1.13-.3 1.75-.36s1.2-.25 1.75-.57c.11.04.22.06.31.03.09-.02.2-.04.31-.07a.09.09 0 0 0 .03-.07c.94-.18 1.92-.38 2.93-.59 1.02-.21 1.96-.31 2.83-.31.04-.02.08-.05.1-.09.02-.03.06-.07.1-.12.14.07.29.1.45.1.28-.02.56-.04.84-.05.29-.01.59-.02.91-.02.37 0 .74-.03 1.11-.07s.75-.04 1.12 0c.14.04.31.06.51.03s.4-.01.58.04c.11-.11.22-.15.31-.1.09.04.2.11.31.21.07 0 .15-.03.24-.07.25.11.46.27.63.47.17.2.36.36.57.5 0 .07.02.11.07.14.04.02.06.07.03.14.07.02.13.07.17.14.05.07.09.14.14.22.04.08.09.16.14.24.04.08.11.13.2.15-.04.05-.04.1 0 .16.05.06.08.12.1.19-.04.14-.09.21-.14.21a.806.806 0 0 1-.12-.14c-.03-.05-.08-.09-.12-.14-.04.03-.09.05-.12.09-.03.04-.1.08-.19.12 0 .05.02.07.07.07s.07.03.07.07c-.09.09-.1.18-.04.28.07.09.05.17-.07.24.21.21.3.46.27.76-.04-.03-.1-.04-.17-.04 0 .07.02.12.05.14s.05.06.05.1c0 .18-.08.29-.24.31 0 .07.02.1.05.1s.03.03-.02.07c-.11 0-.18-.01-.21-.03-.21.14-.43.21-.67.21s-.47.02-.7.07c-.44.07-.9.15-1.39.23s-1 .13-1.53.16c-.27 0-.56 0-.84.02s-.56 0-.81-.05c-.04.05-.13.07-.26.07h-.33s-.03.01-.03.03-.01.03-.03.03c-.64.05-1.23.12-1.77.21s-1.1.16-1.7.21c-.03.02-.04.05-.04.09 0 .03-.02.06-.07.08-.05-.04-.08-.06-.1-.05s-.03 0-.03-.05c-.18.37-.37.7-.55 1-.18.3-.37.65-.55 1.06-.3.41-.58.82-.84 1.22s-.54.8-.84 1.18c-.11.27-.23.52-.36.75s-.25.48-.36.76c-.11.09-.19.21-.22.36s-.11.28-.22.39c-.07.07-.13.12-.19.15-.06.04-.11.09-.15.16-.07.09-.19.3-.36.62-.17.32-.36.67-.57 1.04-.21.38-.4.73-.58 1.06-.18.33-.31.56-.38.67-.05.09-.13.28-.26.57-.13.28-.27.59-.43.91-.16.32-.32.63-.46.91-.15.29-.25.46-.29.53-.05 0-.07 0-.07-.02 0-.01-.02 0-.07.02-.39.5-.72 1.09-1 1.75-.11.14-.22.29-.32.46-.1.17-.21.35-.33.53-.11.14-.23.25-.36.34-.13.09-.25.23-.36.41-.05.09-.09.19-.14.31-.05.11-.09.22-.14.31-.07.14-.15.25-.26.34s-.21.19-.32.31c-.05.07-.09.13-.12.19a.18.18 0 0 1-.16.09c0 .07-.02.14-.07.21-.05.07-.06.14-.04.2l-.07.07s-.07.02-.07-.02-.02-.06-.07-.09c-.05.14-.08.28-.1.45-.02.16-.07.33-.14.51-.14.04-.28.04-.41-.02-.14-.06-.3-.05-.48.02.04-.18.02-.33-.07-.43-.09-.1-.1-.22-.04-.36-.04 0-.07.03-.08.07-.01.04-.04.06-.09.03-.11-.07-.21-.13-.27-.17-.07-.05-.16-.03-.28.03-.16-.14-.3-.29-.41-.46a.731.731 0 0 0-.48-.32c0-.07-.01-.12-.04-.14-.02-.02-.02-.07 0-.14-.2-.02-.34-.11-.41-.26s-.1-.31-.09-.48.05-.35.12-.53c.07-.18.15-.34.24-.48.02-.05.02-.07 0-.07s-.04-.03-.07-.1c.25-.62.52-1.2.82-1.75.3-.55.57-1.11.82-1.68 0-.02.04-.14.12-.36.08-.22.17-.46.27-.72.1-.26.2-.5.29-.72s.14-.35.14-.39c.11-.09.27-.31.46-.65.2-.34.4-.72.6-1.13.21-.41.4-.8.58-1.17.18-.37.31-.62.38-.75-.02-.14.04-.29.17-.45s.23-.33.27-.51c.02-.05.03-.09.02-.12-.01-.04 0-.08.02-.12.11-.25.27-.49.45-.72.18-.23.34-.47.48-.72.11-.18.2-.35.26-.5.06-.15.15-.28.26-.39v-.14c.09-.09.16-.2.22-.33s.12-.23.19-.33c.04-.04.04-.07 0-.07s-.07-.02-.07-.07c.05-.11.1-.19.16-.24.06-.04.11-.11.15-.2-.04-.05-.08-.06-.1-.05s-.07.02-.14.02v-.17c-.57.02-1.17.08-1.78.15-.62.08-1.25.18-1.89.29-.04 0-.07-.04-.07-.1-.18.04-.34.07-.46.08-.13.01-.29.03-.5.05-.21.02-.41.08-.6.17-.2.09-.4.16-.6.21h-.28c-.21.07-.39.12-.57.15-.17.04-.35.12-.53.26a.999.999 0 0 0-.65.15c-.21.13-.4.16-.58.12-.07.02-.11.06-.12.12-.01.06-.03.11-.05.15-.07 0-.15-.02-.24-.07-.16.07-.34.13-.55.19-.21.06-.42.06-.65.02-.09.07-.21.11-.34.14-.14.03-.26.05-.38.07-.27.05-.51.07-.7.07s-.42-.02-.67-.07c.02-.04.02-.07 0-.09-.03-.01-.03-.04 0-.08Zm5.69-3.19s.02.07-.02.07-.05.03-.05.07c.04 0 .08-.02.12-.05.03-.03.02-.06-.05-.08Zm.59 14.27c-.02-.07-.04-.07-.07 0-.03.07-.05.13-.07.17.04.02.07 0 .07-.07s.02-.1.07-.1Zm2.6 3.43s-.01-.07.03-.07c.05 0 .05-.02 0-.07-.04 0-.07.02-.08.07-.01.04 0 .07.05.07Zm.31-.24s-.06.07-.1.07c-.05 0-.06.02-.03.07.04 0 .08-.01.12-.04.03-.02.04-.06.02-.1Zm7.55-12.66c0 .11-.03.2-.09.26s-.07.12-.05.19c.02-.07.06-.14.12-.22.06-.08.06-.15.02-.22ZM328.53 123.88s.07-.02.07-.05.02-.03.07.02c.09-.23.18-.45.28-.65.09-.21.19-.4.31-.58-.04-.05-.07-.06-.07-.04 0 .03-.02.03-.07 0-.02-.16 0-.3.07-.41.07-.11.09-.23.07-.34.09-.09.15-.19.17-.31.02-.11.07-.23.14-.34h.03l.07-.07s.03-.08.02-.1 0-.06.02-.1c.04-.11.1-.23.15-.34.06-.11.12-.23.19-.34.04-.11.1-.23.15-.34.06-.11.11-.23.16-.34.02-.05.06-.11.1-.19.05-.08.08-.16.1-.26.02-.02.04-.02.04 0s.01.03.03.03c.02-.14.08-.25.17-.34.09-.09.16-.19.21-.31.02-.02.03-.04.02-.07-.01-.02 0-.06.02-.1a.53.53 0 0 1 .1-.12c.04-.03.08-.08.1-.15.04-.11.09-.22.14-.31.05-.09.1-.2.17-.31.09-.11.18-.23.27-.36l.27-.39c.09-.18.17-.32.24-.41.05-.04.09-.1.14-.17.05-.07.08-.13.1-.17.09-.11.17-.26.24-.43.07-.17.16-.32.28-.43.02-.04.06-.08.1-.1.05-.02.08-.06.1-.1.11-.18.22-.37.31-.55.09-.18.21-.34.34-.48.11-.21.24-.4.38-.58.14-.18.27-.37.41-.55.14-.18.28-.37.41-.55.14-.18.28-.37.45-.55.04-.07.11-.14.19-.21.08-.07.14-.14.19-.21.04-.07.09-.14.14-.22.04-.08.1-.16.17-.22a.83.83 0 0 1 .24-.22.63.63 0 0 0 .21-.22c.04-.04.08-.09.09-.14s.03-.09.05-.14c.05-.05.09-.1.12-.16.04-.06.08-.11.12-.15v-.07c.09-.11.2-.23.33-.36l.36-.36v-.1c.04-.07.11-.13.19-.19a.38.38 0 0 0 .15-.26c.02.04.03.06.03.03s.01-.03.04-.03c.02-.04.04-.09.05-.12s.05-.06.12-.09c.04-.11.1-.21.17-.27s.14-.15.21-.24c.07-.16.15-.29.26-.39l.33-.33c.04-.18.13-.32.26-.4.13-.08.21-.2.26-.36.05 0 .07-.02.07-.07s.02-.04.07 0c.07-.16.16-.29.28-.39.11-.1.23-.22.34-.36.02.04.04.06.05.03s.04-.03.09-.03c.3-.3.65-.49 1.06-.58.09.07.22.11.39.12s.22.11.15.29c.05-.02.07-.02.07.02s.01.05.03.05c.25 0 .45-.07.58-.21.04.02.09.04.14.07.05.02.09.03.14.03.05.04.06.08.04.1-.03.02-.03.06 0 .1.07.02.11.02.12-.02.01-.03.04-.05.08-.05.11.14.21.27.28.41.07.14.07.29 0 .45.07.07.11.15.14.24.02.09.07.15.14.17-.09.09-.11.2-.07.34.05.14.03.24-.07.31 0 .11 0 .24.02.38s-.04.27-.15.38c.04.07.07.16.07.28-.04 0-.07-.01-.07-.04 0-.02-.03-.03-.07-.03-.16.09-.27.25-.34.48-.25.18-.43.41-.53.69s-.25.51-.43.72c-.09.23-.2.42-.33.58s-.25.33-.36.51c.03.05.03.08.02.09-.01.01-.02.04-.02.09-.04 0-.07.01-.07.03s-.02.02-.07 0l-.1.1c-.02.02-.03.07-.03.14-.21.27-.4.57-.6.89-.2.32-.4.62-.63.89-.28.32-.54.65-.81.98s-.53.66-.81.98c0 .05 0 .08-.02.09s-.02.04-.02.09c-.11.14-.24.26-.38.36s-.24.26-.31.46c-.32.32-.58.67-.79 1.06-.21.39-.45.78-.72 1.16.18-.04.27-.09.27-.14.02.03.06.04.1.04.25-.09.51-.17.79-.22.28-.06.54-.14.79-.26.04 0 .06-.01.05-.04s0-.04.02-.07c.04-.02.07-.02.08 0s.04.03.09.03c.32-.14.62-.25.91-.33.28-.08.61-.15.98-.22.02-.04.04-.07.05-.08s.03-.04.05-.09c.16.04.33.06.51.05.18-.01.37 0 .55.05.07 0 .14.01.2.03.07.02.14.03.21.03.21.03.42.05.63.07s.41.06.57.1c.09.02.18.07.26.14s.16.14.22.21c.02 0 .03.01.02.03s0 .03.02.03c.11.11.23.19.34.22s.22.11.31.22c.09.09.16.21.22.34.06.14.11.26.15.38l.1.1c-.02.11 0 .21.05.27.06.07.11.13.16.17.02.04.02.06-.02.05-.04-.01-.05 0-.05.05.02.25 0 .48-.05.69-.06.21-.13.41-.22.62-.05.12-.1.24-.17.36-.07.13-.13.24-.17.33-.11.16-.21.3-.27.41-.07.11-.15.22-.24.31-.05.18-.12.33-.22.43s-.19.21-.26.33c-.03.07-.03.13 0 .17-.39.37-.71.79-.96 1.27s-.46.99-.62 1.54c-.02.02-.06.03-.1.03-.14.39-.31.75-.51 1.1s-.31.74-.31 1.2v.04s-.03.03-.07.03c-.07.27-.04.51.09.7.13.19.14.42.05.67.04 0 .07.02.07.05 0 .03.02.03.07-.02-.07.14-.06.26.04.38 0 .04-.03.08-.07.1-.05.02-.06.08-.03.17-.07 0-.12-.02-.16-.07-.03-.05-.08-.06-.15-.04 0 .05.02.08.07.1.04.02.06.07.03.14a.62.62 0 0 1-.29-.1c-.13-.07-.21-.01-.26.17-.25-.09-.47-.19-.67-.29-.2-.1-.35-.26-.46-.46-.05 0-.09 0-.12.02-.03.01-.08 0-.12-.02-.23-.23-.41-.49-.55-.79-.14-.3-.27-.6-.39-.91-.13-.31-.25-.61-.36-.91-.11-.3-.27-.57-.48-.82.11-.44.15-.92.1-1.46-.05-.54-.01-.98.1-1.32-.05-.04-.09-.06-.12-.05-.04.01-.08 0-.12-.02 0-.11.06-.2.19-.24.13-.05.16-.15.12-.31-.32.09-.67.19-1.05.29-.38.1-.73.23-1.04.39-.23.04-.44.13-.62.24-.18.11-.38.21-.58.27-.12.05-.24.09-.36.12-.13.04-.25.08-.36.12-.23.11-.44.21-.65.28-.11.04-.23.07-.34.07s-.22.02-.31.07c-.09.04-.19.19-.29.43s-.18.42-.22.53c-.11.23-.25.44-.39.63-.15.2-.25.42-.29.67-.02 0-.03 0-.03.02s-.02.02-.07.02c-.09.34-.22.66-.4.94-.17.28-.35.56-.53.81-.11-.11-.11-.2 0-.26s.17-.15.17-.26c0-.04-.01-.05-.03-.02-.02.04-.06.04-.1.02-.02-.02-.03-.08-.03-.17-.11.18-.23.38-.34.58s-.17.42-.17.65c-.04.07-.1.14-.17.21l-.17.17c-.09.03-.18.01-.28-.03-.04.02-.08.06-.1.1-.02.04-.04.09-.07.14-.07 0-.13-.01-.17-.03-.04-.02-.09-.05-.14-.07-.07 0-.1.04-.1.1-.04-.02-.08-.03-.12-.02-.03.01-.04 0-.02-.05-.07 0-.09.02-.07.07.02.05 0 .09-.07.14a.79.79 0 0 1-.09-.26c-.01-.1-.03-.21-.05-.33-.04-.02-.08-.02-.1.02-.02.03-.06.03-.1-.02-.04.03-.05.05-.02.07s.03.03-.02.03a.35.35 0 0 1-.24-.03c.02-.21-.01-.38-.1-.51s-.08-.29.03-.45c0-.92.16-1.81.48-2.68.05-.09.1-.2.16-.33s.11-.25.15-.36.08-.24.09-.38c.01-.14.04-.27.08-.38.07-.14.14-.27.21-.39.07-.13.13-.26.17-.39.02-.07.01-.13-.04-.17Zm.86-1.75s-.04.1-.07.15-.03.11-.03.15c.02-.04.05-.1.08-.15.04-.06.04-.11.02-.15Zm12.66-17.09s.02-.06.05-.05.04 0 .02-.05c-.04 0-.1 0-.15-.02-.06-.01-.11 0-.15.05.04.02.08.04.12.05.03.01.07.02.12.02Z" style="fill:#fb0742"></path><path d="M342.16 128.58s-.04 0-.07-.07a.888.888 0 0 1-.04-.26v-.31c0-.1.01-.19.04-.26.04-.16.11-.27.19-.34s.15-.15.19-.24c.02-.07.04-.16.07-.27.03-.11.01-.17-.03-.17.11-.18.22-.39.31-.62.09-.23.17-.38.24-.44.23-.48.45-1.07.67-1.77.22-.7.44-1.28.67-1.73.18-.37.35-.74.51-1.11.16-.38.3-.77.41-1.18.11-.04.19-.21.24-.48.04-.27.16-.48.34-.62.25-.87.54-1.69.86-2.45a14 14 0 0 0 .75-2.38c.11 0 .2.04.24.1 0-.14.06-.22.19-.24s.22-.01.29.03c.09.09.08.14-.03.14 0 .04.03.06.09.05.06-.01.07.03.05.12.04-.02.09-.04.14-.05.05-.01.07-.05.07-.12.07.11.15.16.24.14s.16.03.21.17c.04-.02.05-.04.02-.05-.04-.01-.04-.04-.02-.09.14.04.28.13.43.24s.32.2.5.24c.16.25.26.5.31.74.04.24.15.45.31.64-.05.23-.1.46-.16.7-.06.24-.12.49-.19.74.02.09.05.08.08-.04.04-.11.06-.13.09-.03.14-.18.31-.34.51-.46.21-.13.42-.28.65-.46-.05-.09.01-.18.17-.27.16-.09.26-.18.31-.27.14-.18.27-.4.41-.64.14-.24.28-.45.41-.63l.31-.31c.09-.09.17-.18.24-.27.11-.09.21-.2.29-.33s.18-.19.29-.19c-.04-.11 0-.22.12-.31.13-.09.23-.17.33-.24.02.07.02.11 0 .12s-.03.06-.03.15c.02.05.06.04.12-.02s.09-.11.09-.15c.07.09.14.14.2.14s.09.09.07.28c.09.02.16.01.21-.04.04-.04.03-.02-.04.07.05 0 .1-.02.16-.07.06-.04.08-.01.08.1.05-.02.08-.02.1 0s.06.01.1-.03c.04.18.14.28.27.31.14.03.21.09.21.21.11-.02.18-.04.21-.05s.06 0 .1.05c-.03.09.01.18.1.26.09.08.07.11-.07.09.04.05.08.08.1.09s.01.04-.03.08c.02-.04.06-.06.1-.05.05.01.08 0 .1-.05.02.04.06.07.12.08.06.01.1.04.12.09-.04.23.05.37.28.41 0 .07-.04.13-.1.19-.07.06-.07.12 0 .19.02-.02.04-.05.05-.09s.03-.06.05-.09c.02 0 .03.1.02.29-.01.19-.05.35-.12.46.04 0 .07.04.08.12.01.08 0 .14-.05.19.04 0 .08-.01.1-.03 0 .11-.08.32-.22.6s-.25.53-.29.74c-.09.09-.18.23-.28.43-.09.19-.13.35-.1.46-.02 0-.03-.01-.03-.04-.14.28-.25.58-.34.91s-.23.62-.41.87c-.02.02-.04-.01-.04-.1-.07.03-.08.08-.05.16s.06.12.09.12c-.05.04-.06.12-.05.22.01.1-.03.13-.12.08.07.11.07.2 0 .26s-.08.13-.03.22c-.04-.04-.09-.04-.12 0-.03.05-.06.06-.09.04-.14.25-.18.56-.14.92-.09-.04-.15-.04-.17 0-.03.05-.07.05-.14 0 .04.09.04.15 0 .16a.23.23 0 0 1-.14-.02c0 .02.01.03.04.03.02.07 0 .08-.05.03-.06-.04-.1-.03-.12.03v-.1c-.16.07-.31.05-.44-.05-.14-.1-.22-.1-.24.02-.05-.09-.07-.24-.07-.45-.11.14-.19.16-.22.07s-.11-.11-.22-.07a.925.925 0 0 0-.14-.22 1.07 1.07 0 0 0-.14-.16c0 .07-.03.1-.1.1-.07-.23-.14-.37-.22-.41-.08-.05-.18-.2-.29-.45-.23.16-.44.35-.62.57-.18.22-.4.4-.65.56v-.07s-.04.05 0 .09c.04.03.04.08 0 .15-.04 0-.09.03-.14.1-.05.07-.09.13-.14.19a.7.7 0 0 1-.16.14c-.06.03-.11.03-.15-.02-.02.03-.01.06.03.1-.2.25-.41.52-.62.81-.2.29-.4.51-.58.67-.04 0-.06 0-.03.02s.03.04.03.08c-.25.32-.51.73-.79 1.22s-.51.9-.69 1.22c-.02 0-.06.06-.1.19s-.09.21-.14.26c-.05.02-.06.02-.03 0 .02-.02.01.02-.04.14-.07.11-.16.26-.29.45-.13.18-.25.33-.36.44-.11.14-.23.26-.34.36s-.23.22-.34.36c-.07.16-.14.33-.22.52-.08.18-.19.35-.32.51-.07.11-.17.27-.31.48s-.18.42-.14.65c-.18-.03-.39-.05-.62-.07-.23-.02-.42 0-.58.07-.03-.05-.05-.12-.07-.22s-.06-.21-.1-.33c-.04.02-.08.06-.1.1-.02.04-.06.06-.1.03 0-.11-.05-.17-.14-.17s-.1-.05-.03-.14c-.11.03-.19-.02-.24-.12-.04-.1-.1-.13-.17-.08-.05-.11-.08-.2-.09-.24a.982.982 0 0 1-.02-.21c-.07-.04-.11-.06-.14-.03s-.08.03-.17.03c0-.18-.03-.28-.09-.31-.06-.02-.11-.08-.15-.17v.14c-.09-.04-.15-.13-.17-.24s0-.21.07-.27ZM357.05 129.3s-.01.11.03.21c-.14 0-.22.03-.24.1-.02.07-.04.11-.07.14-.03.14-.07.27-.14.41-.07.14-.13.23-.19.27-.06.05-.1.02-.12-.07-.02-.09 0-.28.07-.55-.04-.04-.08-.05-.1-.02-.03.03-.04.04-.04.02.07.09.04.16-.1.21.03.32 0 .52-.05.62-.06.09-.11.11-.17.05-.06-.06-.1-.17-.12-.33-.03-.16.01-.33.1-.52-.04 0-.06 0-.05.02.01.01 0 .03-.02.05-.02 0-.05-.01-.07-.03-.02-.03-.01-.06.04-.1-.07.11-.2.25-.38.41-.18.16-.25.26-.2.31 0 .04-.03.06-.09.05a.225.225 0 0 1-.12-.05c0 .27-.01.42-.03.43-.02.01-.05-.02-.09-.09a.569.569 0 0 0-.12-.17c-.04-.04-.08 0-.1.14a.507.507 0 0 1-.09-.16c-.01-.06-.06-.08-.15-.08.11.04.1.14-.03.27.04-.25.04-.42-.02-.52-.06-.09.02-.2.22-.34a.205.205 0 0 1-.05-.17c.01-.07.03-.13.05-.17 0-.14.03-.26.07-.38.05-.11.08-.24.1-.38 0-.23.07-.48.21-.75.02-.23.06-.45.12-.67.06-.22.13-.42.22-.6-.11-.07-.08-.13.1-.17-.07-.04-.08-.09-.05-.12s.02-.05-.05-.05c.14-.09.19-.2.17-.31.04 0 .07-.02.07-.07 0-.04-.03-.09-.07-.14.21-.07.23-.18.07-.34.14-.04.2-.11.19-.2-.01-.09 0-.16.05-.21.04-.14.11-.31.19-.51.08-.21.12-.4.12-.58.04-.05.06-.09.05-.12-.01-.04 0-.09.05-.16-.04-.16 0-.32.14-.5.14-.17.16-.31.07-.43.07-.07.14-.11.2-.14-.14-.04-.16-.09-.08-.14.08-.04.12-.1.12-.17 0-.04 0-.09-.02-.14a.23.23 0 0 1 .02-.14c.04-.05.09-.1.14-.16.04-.06.06-.11.03-.15.05-.02.08-.04.09-.07.01-.02.03-.03.05-.03-.04-.11-.03-.22.05-.31s.1-.17.05-.24c.02-.07.06-.12.1-.17.04-.04.06-.09.03-.14l-.1-.07s.02-.04.07-.05.09-.03.14-.05c.02-.04.02-.09 0-.15a.407.407 0 0 1 0-.22c.05-.16.1-.26.17-.31 0-.05-.03-.07-.07-.07.11-.14.19-.31.22-.53s.11-.42.22-.6c-.09-.09-.09-.18.02-.28.1-.09.15-.19.15-.31.05-.05.08-.09.09-.12.01-.04.03-.06.05-.09.07-.14.13-.27.19-.39.06-.13.11-.25.15-.36.05-.05.05-.06 0-.04-.04.03-.07.01-.07-.03.18-.09.3-.19.34-.29.04-.1.11-.18.2-.22.14-.02.23-.06.29-.12.06-.06.13-.11.22-.16.25-.07.5-.11.74-.12.24-.01.44-.07.6-.19.5-.04.91-.09 1.22-.14.31-.05.7-.07 1.18-.07.07 0 .11.02.14.07.09-.02.18-.04.28-.04.09.03.16.06.22.12s.12.08.19.05c.14.16.19.32.17.46s-.07.3-.14.46c-.09.25-.19.51-.29.77s-.26.52-.46.77c-.05.14-.09.27-.12.41s-.14.27-.33.41c.05.03.06.04.05.04-.01 0 .02.02.08.07-.18.25-.32.53-.41.84-.09.31-.25.59-.48.84v.1c-.14.23-.26.51-.38.84-.11.33-.23.67-.36 1.01s-.25.68-.38.99c-.13.32-.27.59-.43.82.02.05.02.08-.02.1-.04.02-.03.07.02.14-.32.5-.63 1-.94 1.48s-.51.98-.6 1.51c-.11.05-.19.1-.22.17s-.13.13-.29.17c-.03-.04-.06-.09-.1-.14-.3.04-.45.15-.45.33s-.02.32-.07.46c-.07 0-.09.02-.07.07.02.05 0 .05-.07 0 .09.07.13.13.1.19-.02.06-.06.1-.12.14s-.11.06-.15.09c-.05.02-.05.06 0 .1-.07.05-.11.03-.14-.07-.03-.09-.07-.13-.14-.1.02-.02.03-.05.02-.09-.01-.03 0-.05.05-.05a.232.232 0 0 1-.15-.14c-.03-.07-.11-.1-.22-.1Zm-.55.24s-.09.02-.14.07c-.04.05-.01.07.1.07.02-.02.03-.07.03-.14Zm.58-.41s-.06.01-.03.04.02.04 0 .07c.11 0 .13-.03.03-.1Zm.21.06s-.01-.03-.03-.03l-.14.14.2-.07s-.03-.01-.03-.03Zm3.74-18.01s-.06-.07-.1-.07c-.04 0-.04-.02 0-.07.07-.02.15-.03.24-.02.09.01.16 0 .2-.05.11 0 .18-.03.21-.09.02-.06.06-.11.1-.15.09 0 .18-.02.27-.07.09-.09.23-.17.41-.24.18-.07.37-.08.56-.05.2.03.43.05.7.05.11.05.22.08.31.09.09.01.23.03.41.05.07.09.18.15.33.19s.27.11.36.22h.07l.07-.07c0 .07.01.13.03.17.21.09.36.23.46.43.1.19.25.34.43.43.02.21.05.44.09.69.03.25-.13.47-.5.65-.07.03-.12.07-.14.14-.32.02-.54.08-.65.17-.57 0-.8.14-.69.41-.11.07-.2.15-.26.24s-.11.2-.15.31c-.11.02-.22.06-.31.12s-.23.11-.41.15c-.05 0-.06-.01-.05-.03s-.02-.04-.09-.07c-.57.12-1.13.16-1.66.14-.54-.02-.98-.1-1.32-.24l-.1-.1s-.09-.06-.14-.04c-.04.03-.09.01-.14-.03 0-.07-.03-.14-.08-.22-.06-.08-.08-.15-.05-.22 0-.07.01-.13.03-.17s.04-.1.04-.17c-.05-.11-.04-.28.03-.5.07-.22.15-.38.24-.5.02-.02.04-.07.07-.14.02-.07.06-.13.1-.17.14-.21.28-.4.43-.58.15-.18.3-.37.46-.55.02 0 .04 0 .07-.02.03-.01.06-.02.1-.02ZM382.85 113.17s.08.05.1 0c.02-.04.06-.06.1-.03.04 0 .07.02.08.05.01.03 0 .06-.02.08.04 0 .08 0 .1-.02s.06 0 .1.02c0 .11-.02.19-.07.22-.04.04-.09.08-.14.12.02.05.04.04.05-.02.01-.06.04-.06.08-.02.02.04.02.09-.02.12s-.09.04-.15.02c-.05.05-.08.08-.09.1s-.05.04-.12.07c-.18.43-.46.78-.84 1.04-.38.27-.68.6-.91 1.01-.02-.05-.04-.05-.05-.02-.01.03-.04.05-.09.05-.23.34-.47.66-.74.94-.26.29-.53.59-.81.91-.09.11-.18.21-.27.29s-.17.19-.24.33c-.09.04-.16.11-.21.21-.04.09-.13.16-.24.2-.11.11-.22.24-.31.38s-.22.25-.38.34c-.27.25-.53.52-.77.81-.24.29-.5.56-.77.81-.02.07-.04.1-.07.1s-.01.02.03.07c-.04-.02-.08-.02-.1.02-.02.04-.06.06-.1.09-.09.18-.21.33-.36.45-.15.11-.26.26-.32.45-.18.11-.33.26-.43.44-.1.18-.26.33-.46.45-.25.39-.53.77-.84 1.13-.31.37-.61.72-.91 1.06v.14c-.6.52-1.14 1.1-1.63 1.73-.49.63-.96 1.29-1.39 1.97-.18.11-.3.27-.36.46s-.18.35-.36.46c0 .04-.02.07-.05.08-.04.01-.05.04-.05.09-.11.04-.24.04-.38 0s-.23 0-.27.14c-.05.05-.11.02-.21-.07-.04.04-.08.07-.1.07-.07-.04-.16-.1-.29-.15a.355.355 0 0 0-.36.02.855.855 0 0 0-.19-.19c-.08-.06-.16-.06-.26-.02-.11-.14-.24-.24-.38-.31s-.23-.2-.27-.38c-.14.02-.22-.03-.24-.14-.03-.11-.06-.2-.1-.27-.05-.02-.07-.02-.07.02s-.02.05-.07.05c-.07-.16-.16-.23-.27-.21 0-.04 0-.07.02-.07s.02-.01.02-.03c-.16-.04-.27-.15-.34-.33-.07-.17-.16-.32-.28-.46h.1s-.02-.07-.05-.07c-.04 0-.06-.02-.09-.07v-.14c.07-.04.1-.11.09-.21-.01-.09-.04-.16-.09-.2.02-.39.06-.74.1-1.05.04-.31.08-.62.1-.94.02-.04.02-.1 0-.15a.406.406 0 0 1-.04-.19c.03-.04.05-.08.07-.1.02-.02.03-.06.03-.1.02-.11.04-.25.04-.41s.02-.32.07-.48c.04-.23.04-.41 0-.55.11-.52.21-1.1.29-1.71.08-.62.18-1.23.29-1.85.04-.18.08-.37.1-.55.02-.18.06-.37.1-.55.04-.09.07-.15.07-.17v-.21c.02-.18.06-.36.12-.53.06-.17.11-.35.16-.53 0-.04-.01-.09-.04-.14s0-.09.07-.14c0-.05 0-.08-.02-.09s-.02-.04-.02-.09c.07-.04.1-.08.1-.12v-.19c.11-.02.2-.11.27-.28.02 0 .05 0 .09-.02.03-.01.06 0 .08.02.02-.04.02-.07 0-.07s-.02-.02 0-.07c.07.05.14.05.22.02.08-.03.15-.03.22.02.02-.03.04-.04.07-.05.02-.01.06-.04.1-.09.11.09.25.14.41.14s.27.06.34.17c.09-.04.15-.07.17-.07.05.05.1.09.17.12.07.04.14.08.2.12.41.03.73.17.96.43s.46.52.69.77c-.04.04-.04.11 0 .2.05.09.08.18.1.28 0 .07-.02.16-.05.27-.04.11-.04.21-.02.27 0 .05.01.08.03.09s.03.03.03.05c-.04.09-.09.18-.14.26-.05.08-.09.18-.14.29 0 .41-.03.74-.09.99s-.13.56-.22.93c.09.09.11.18.07.27.11 0 .19-.08.24-.24.04-.16.15-.22.31-.17.3-.25.56-.51.79-.79.23-.27.5-.51.82-.72a.23.23 0 0 0 .03-.09c0-.01.01-.04.03-.08.21-.11.37-.29.48-.52.11-.23.3-.4.55-.51.02-.09.11-.17.27-.24v-.07c.18-.14.37-.28.55-.41s.33-.31.45-.51c.11-.07.22-.13.33-.19.1-.06.18-.16.22-.33.09 0 .14-.04.14-.14.09 0 .14.01.14.04.04-.05.06-.1.05-.16-.01-.06.02-.07.09-.05.07.04.08.13.03.24s-.1.2-.17.24c.14.09.25.09.34-.02.09-.1.19-.18.31-.22-.07 0-.1-.04-.1-.14.07-.21.2-.35.38-.43.18-.08.33-.21.45-.39.02 0 .03 0 .02.02s0 .02.05.02c.25-.11.48-.26.69-.43.2-.17.41-.34.62-.5v-.1c.11.05.23-.02.34-.19.11-.17.23-.29.34-.36.02-.02.07-.03.14-.03.11-.05.2-.11.27-.21s.16-.15.27-.17c.11-.2.28-.34.48-.41.21-.07.38-.2.52-.38.11.04.19.02.24-.09.04-.1.14-.13.27-.09-.05.09-.1.16-.17.19s-.13.09-.17.15c.11.02.23 0 .34-.07a.91.91 0 0 0 .27-.24c.02 0 .04.02.04.07.09-.04.15-.07.17-.07.02-.05.02-.08 0-.1s-.02-.05 0-.07c.11-.02.19-.04.22-.05s.07-.04.12-.09c0 .07.03.1.09.09.06-.01.11.02.15.08-.11.03-.19.07-.22.14s-.07.14-.1.22c-.03.08-.08.16-.12.22-.04.07-.11.1-.21.1.02.11.02.2 0 .26s-.04.11-.07.16c.18-.02.34-.1.48-.22s.31-.21.51-.26c.02-.05.02-.08-.02-.09s-.05-.04-.05-.09c.04-.02.09-.03.14-.02.04.01.09 0 .14-.02.02.04.02.07-.02.07s-.04.03-.02.07c.09-.04.16-.09.22-.14a.64.64 0 0 1 .22-.1l.1.1s-.1.07-.17.07Zm-12.9 8.58v-.14c-.07 0-.1.04-.1.1 0 .02.01.03.03.03h.07Z" style="fill:#fb0742"></path><path d="M392.05 121.47s-.04-.03-.05-.03c-.01 0-.03-.01-.05-.03.09.14.22.15.4.03.17-.11.32-.17.46-.17 0 .05-.01.08-.03.09s-.03.03-.03.05c.04.07.09.08.12.03s.07-.04.12 0c.02.07 0 .11-.05.14-.06.02-.08.01-.08-.03-.05.02-.07.05-.07.08 0 .04-.02.05-.07.05.02.09.02.18 0 .27.09 0 .18-.01.27-.03-.02.09-.03.21-.03.34-.12.07-.2.14-.26.22-.06.08-.14.16-.26.26-.04.02-.07.02-.07-.02s-.03-.05-.07-.05v.14c-.11-.02-.18 0-.19.05-.01.06-.04.12-.09.19.07 0 .11-.02.14-.05s.07-.07.14-.12c0 .05.02.08.07.09.04.01.07.04.07.08-.07 0-.11.01-.14.04s-.07.03-.14.03c0 .02 0 .04-.02.05-.01.01-.02.04-.02.09-.07-.02-.1 0-.1.05s-.01.11-.04.15c-.18 0-.32.04-.43.14s-.23.13-.39.1c-.05.09-.12.14-.22.14s-.18.06-.22.17c-.05.03-.08.03-.09 0a.055.055 0 0 0-.05-.03c-.07.11-.16.18-.28.21s-.2.07-.27.14h.03a.58.58 0 0 1-.2.31c-.09.07-.17.07-.24 0-.05.09-.11.16-.19.22s-.14.12-.19.19c.05.02.11 0 .19-.07s.14-.06.19.03c-.11.11-.25.21-.41.27-.16.07-.32.13-.48.17 0 .09.01.12.03.08.02-.03.04-.03.04.02-.05.05-.09.08-.14.09-.05.01-.07.08-.07.19-.23-.05-.33.04-.31.27-.04.02-.08 0-.1-.07-.32.25-.67.47-1.05.65s-.74.39-1.08.62c-.25 0-.48.13-.69.38-.34.11-.67.26-.98.43-.31.17-.61.35-.91.53 0 .05.01.06.03.04s.05-.04.07-.04c-.25.21-.53.37-.84.48-.31.11-.59.28-.84.48-.3.03-.57.09-.82.21s-.5.2-.75.24c-.05.02-.11.03-.19.02s-.17 0-.26.02c-.18.05-.44.06-.77.04a7.48 7.48 0 0 1-.84-.1c-.04-.02-.1-.05-.15-.09-.06-.03-.12-.08-.19-.12a.16.16 0 0 0-.08.03c-.04.03-.06.01-.09-.03-.05-.02-.09-.07-.14-.14a.453.453 0 0 0-.21-.17c-.11-.07-.23-.14-.34-.22s-.23-.14-.34-.19c0-.04-.01-.07-.03-.09-.02-.01-.03-.04-.03-.08-.07 0-.1-.01-.1-.04-.02-.04-.03-.08-.02-.1.01-.03.02-.05.02-.07-.05-.02-.06-.02-.05.02s0 .04-.02.02c-.18-.25-.34-.52-.48-.81-.14-.28-.3-.53-.48-.74-.04-.34-.16-.61-.34-.79-.02 0-.02.02.02.05.03.03.03.05-.02.05-.23-.34-.34-.8-.32-1.36.01-.56.11-1.07.29-1.53.07-.09.13-.19.17-.31.04-.11.13-.2.24-.24.25-.64.57-1.18.96-1.63.39-.45.77-.87 1.13-1.29.07-.09.14-.17.22-.24.08-.07.16-.16.26-.27.07-.09.17-.2.31-.31.11-.11.23-.23.36-.34.13-.11.26-.23.39-.34.23-.18.42-.37.57-.57.15-.2.34-.35.57-.46 0-.04 0-.07.02-.07.01 0 .02-.02.02-.07.16-.07.3-.16.43-.26s.25-.25.36-.43c.18.02.32-.03.4-.17.08-.14.18-.24.29-.31.09-.04.18-.08.26-.1.08-.02.16-.07.22-.14.09-.09.17-.16.24-.21.34-.23.69-.44 1.03-.63s.71-.38 1.1-.57c.25-.11.51-.25.79-.41.27-.16.57-.29.89-.38.07 0 .1-.03.1-.07.04.02.1.02.15-.02.06-.03.11-.06.16-.09.18-.07.37-.13.56-.19.2-.06.39-.11.57-.16.18 0 .4 0 .64.02.24.01.45.08.63.19.02.07.02.1 0 .1h-.07c.09.07.2.14.31.21.11.07.19.18.24.34.04.05.11.09.21.14.07.2.16.32.27.34-.05.03-.06.04-.03.05.02.01.03.03.03.05.09.07.15.15.17.22.02.08.06.18.1.29.05.11.1.2.17.27s.13.16.17.27c.04.07.07.15.07.22s.02.14.07.19c0 .11-.01.19-.03.24.09.04.14.11.15.19.01.08 0 .16-.02.24-.02.08-.04.17-.05.26-.01.09 0 .18.05.28 0 .04-.02.08-.05.12-.04.03-.04.09-.02.15-.18.18-.34.39-.48.63-.14.24-.29.45-.45.64-.05.02-.08.04-.09.07-.01.03-.04.05-.09.07-.09.11-.18.22-.26.31-.08.09-.18.18-.29.28-.05.04-.1.08-.16.1-.06.02-.11.08-.15.17-.04.05-.1.1-.17.15-.07.06-.13.11-.17.16-.11.04-.25.1-.39.15-.15.06-.26.14-.33.26-.37.21-.72.42-1.06.65s-.71.43-1.1.62c-.11.04-.22.07-.31.09-.09.01-.17.06-.24.15-.11 0-.22.04-.31.12s-.21.13-.34.15c-.07 0-.11.03-.14.1l-.1-.03c-.23.16-.46.28-.7.36s-.49.15-.74.22c-.09.02-.14.01-.14-.04a.94.94 0 0 0-.26.1c-.06.05-.15.06-.26.03-.04.05-.09.08-.14.1-.18 0-.35.03-.51.07s-.33.04-.51 0c-.05 0-.07.01-.07.03s-.02.05-.07.07c-.11-.05-.23-.07-.34-.07s-.2-.06-.24-.17c-.05 0-.09 0-.14.02-.04.01-.1 0-.17-.05-.18.18-.37.38-.55.58-.18.21-.34.45-.48.72-.02 0-.03 0-.03-.02s-.01-.02-.03-.02c-.02.09-.06.15-.12.19-.06.03-.09.13-.09.29-.14.07-.22.2-.24.38a.73.73 0 0 1-.21.45c.25 0 .52-.03.81-.1.28-.07.56-.11.81-.14.04-.02.07-.05.07-.09 0-.03.02-.06.07-.08.16.02.28 0 .38-.05.09-.06.21-.09.34-.09.02 0 .06-.04.1-.14.11.03.25 0 .41-.07.16-.07.3-.14.41-.21.25 0 .5-.06.74-.19s.49-.21.74-.26c.11-.14.27-.2.46-.2s.33-.08.39-.24c.18-.04.35-.08.52-.12.16-.03.32-.11.48-.22.02 0 .03.01.03.03s.02.02.07 0v-.07c.14-.09.3-.15.48-.17.18-.02.33-.11.44-.27.32 0 .61-.08.86-.24h.03s.03 0 .03.02.01.02.03.02c.03 0 .04-.01.05-.03s.04-.05.09-.07c.32-.09.64-.21.96-.36.32-.15.67-.33 1.06-.53.04.04.09.05.14.02.04-.04.1-.03.17.02.18-.11.37-.18.55-.21.18-.02.38-.07.58-.14.14-.04.27-.1.41-.17.14-.07.28-.1.45-.1.18 0 .35-.06.51-.17s.33-.19.52-.24c.09 0 .19 0 .29-.02s.19-.02.26-.02c0 .07-.03.1-.09.1s-.08.03-.08.1c-.14-.05-.25-.02-.34.08a.31.31 0 0 1-.34.09c-.02.05-.05.07-.07.07s-.03.02-.03.07Zm-9.06-1.37c.07-.11.16-.13.27-.05.11.08.21.08.28-.02-.03.09-.03.14 0 .14.02 0 .05-.02.08-.05.04-.03.07-.07.1-.1.04-.03.06-.05.09-.05.02-.03.05-.03.09-.02.03.01.06.02.08.02.14.02.24-.05.31-.21s.16-.23.27-.21c.09-.11.19-.17.29-.17s.19-.07.26-.21c.14 0 .31-.04.51-.14s.47-.28.79-.55c.04-.09.14-.26.27-.51s.24-.4.31-.45c-.05-.04-.11-.06-.19-.03s-.16.06-.24.1l-.24.12c-.08.03-.13.04-.15.02-.05.04-.15.13-.31.26s-.26.19-.31.19c-.16.02-.29.11-.4.26s-.22.2-.36.15c-.04.09-.1.17-.17.24-.07.07-.15.08-.24.03l-.14.14s-.11.07-.21.07c-.02 0-.03.02-.02.05.01.04 0 .05-.02.05-.07-.02-.12 0-.16.05-.03.06-.07.09-.12.09 0-.02-.01-.03-.03-.03v.07c-.14.11-.28.21-.43.29-.15.08-.28.21-.39.39h-.07v.1s.07-.01.08-.03.04-.02.09 0Z" style="fill:#fb0742"></path></svg>