<svg version="1.1" id="Layer_1" xmlns="http://www.w3.org/2000/svg" xmlns:xlink="http://www.w3.org/1999/xlink" x="0px" y="0px"
	 width="100%" viewBox="0 0 679 119" enable-background="new 0 0 679 119" xml:space="preserve">
<path fill="none" opacity="1.000000" stroke="none" 
	d="
M668.758911,1.292823 
	C672.665649,1.000000 677.757935,-0.430100 679.595276,1.402730 
	C681.428101,3.231032 679.999817,8.329309 679.999817,11.993962 
	C680.000061,46.817738 679.958801,81.641647 680.075806,116.465034 
	C680.085449,119.347725 679.618103,120.089706 676.536560,120.088379 
	C452.598083,119.991463 228.659576,119.991745 4.721078,120.082649 
	C1.529287,120.083946 0.914766,119.278839 0.924401,116.222870 
	C1.041026,79.233391 1.063030,42.243134 0.899947,5.254005 
	C0.884095,1.658631 1.625820,0.900832 5.244152,0.902615 
	C225.516968,1.011192 445.789825,1.000000 666.531372,1.000000 
	C667.789001,1.748870 667.965454,2.675344 667.704956,4.058243 
	C666.187988,7.777162 662.865173,9.470470 660.485718,12.466957 
	C659.091248,13.594743 658.418030,14.787044 657.785889,16.434542 
	C656.027893,17.807878 654.844299,19.347481 652.841309,20.359509 
	C651.067139,20.492384 649.598511,20.680159 648.268921,19.998440 
	C645.797607,18.731312 644.770447,20.110130 643.864258,22.459061 
	C635.609863,29.784933 628.409180,37.697758 620.556396,45.440445 
	C619.160950,46.544304 618.461670,47.701805 617.874329,49.352875 
	C615.212891,51.667217 612.904785,53.863262 610.504272,56.454552 
	C609.146240,57.551865 608.464478,58.692707 607.891479,60.317673 
	C606.341125,61.792610 604.761292,62.736866 603.444458,64.483894 
	C602.062500,65.619080 601.406128,66.823067 600.765625,68.478539 
	C599.326599,69.675369 598.409912,70.936935 596.711426,71.842545 
	C592.358948,72.963081 588.549805,74.352455 584.946716,76.337677 
	C583.248718,77.273285 581.391296,78.236382 579.307739,76.159309 
	C578.217773,73.124367 579.735229,70.982460 580.875854,68.832893 
	C586.296204,58.618267 589.689270,47.774895 591.190430,36.327003 
	C591.689209,32.523224 591.765625,28.727350 590.690979,24.988251 
	C589.529785,20.947636 587.168091,18.303415 582.356201,18.180119 
	C581.403748,18.416286 580.614014,17.898323 580.214722,18.903582 
	C582.304260,20.899578 586.084961,18.480640 587.433777,22.414803 
	C587.591125,23.248783 587.693237,23.726322 587.920898,24.561954 
	C588.519897,25.924553 588.246643,26.930960 587.947754,28.304609 
	C587.524597,29.628178 587.209229,30.584761 587.241211,31.993767 
	C587.198730,32.890633 587.038025,33.371334 586.629395,34.166378 
	C582.005310,48.594574 576.802429,62.342777 568.059631,74.891975 
	C565.737915,77.385246 563.466675,79.434174 560.919678,81.740921 
	C557.035583,82.874687 554.001648,85.229691 549.799927,85.411758 
	C544.698486,84.009277 542.613281,80.317657 541.261292,76.077530 
	C538.564453,67.619865 537.611877,58.890003 537.541565,50.056763 
	C537.479370,42.247654 537.013550,34.485836 535.278076,26.462887 
	C534.904053,25.666697 534.653381,25.246719 534.109802,24.615648 
	C533.709961,24.216972 533.556885,24.057625 533.195862,23.662899 
	C529.829346,21.519001 530.129089,25.756329 527.996948,26.334833 
	C526.816406,27.578785 525.204041,27.525711 524.111328,28.931587 
	C517.606323,36.694801 514.751831,46.011402 510.646484,54.653564 
	C507.948273,60.333546 505.562927,66.181908 503.194855,72.021988 
	C502.197845,74.480782 500.769318,76.297455 497.702148,76.230690 
	C495.046265,76.172882 493.046967,77.899605 491.016907,79.338104 
	C477.564056,88.870728 462.743591,95.544296 447.075592,100.466934 
	C444.845093,101.167725 442.599518,101.820732 440.278961,102.075409 
	C438.425476,102.278831 436.524658,102.226425 435.471069,100.268539 
	C434.388519,98.256805 435.544067,96.788033 436.806183,95.373795 
	C443.516266,87.855110 451.593933,81.959366 459.758514,76.193878 
	C470.525848,68.590401 481.681427,61.634785 493.872498,56.473400 
	C495.501099,55.783901 497.873474,55.058643 496.933136,52.742085 
	C496.062622,50.597591 493.755646,51.340153 492.052795,51.902645 
	C483.186157,54.831528 474.107269,56.989727 465.120300,59.481426 
	C462.702606,60.151764 460.259521,60.631039 457.787781,60.984291 
	C456.044983,61.233368 454.392120,60.992268 453.466675,59.253414 
	C452.532776,57.498650 453.364471,56.087700 454.499542,54.727539 
	C457.190948,51.502403 460.570190,49.044830 463.714294,46.321800 
	C468.884949,41.843620 474.361328,37.761475 480.089020,34.045311 
	C485.992615,30.215057 490.272766,32.349869 491.141174,39.396969 
	C498.867188,28.065937 508.402954,18.581802 520.046021,10.858079 
	C518.731445,10.547925 517.865845,10.813581 517.237976,11.285075 
	C507.387482,18.682533 494.816315,20.284290 484.511841,26.851248 
	C474.230530,33.403450 464.338287,40.397484 455.078857,48.315231 
	C453.035797,50.062260 451.093109,51.850796 449.706451,54.173664 
	C446.912628,58.853699 448.087219,62.974331 452.889893,65.362541 
	C457.802277,67.805298 458.075867,69.544189 453.634125,73.065392 
	C447.109680,78.237648 440.328033,83.090340 434.657593,89.260071 
	C433.643555,90.363411 432.520844,91.371399 431.640472,92.591194 
	C429.245453,95.909637 429.032776,99.362175 431.174194,102.870407 
	C433.199951,106.189270 436.364716,106.922379 439.881287,106.227524 
	C448.125183,104.598579 455.679962,101.016327 463.239349,97.542763 
	C473.723145,92.725410 483.451355,86.626945 492.534058,79.507919 
	C494.278748,78.140411 496.069214,76.629890 498.295837,78.426544 
	C500.391602,80.117577 498.937134,81.963921 498.352692,83.849297 
	C496.666016,89.290535 492.782440,94.170540 494.201935,100.644821 
	C494.902252,101.488701 495.145416,102.308853 496.189819,102.730156 
	C496.654236,102.801147 496.846222,102.807114 497.330383,102.767792 
	C501.251892,101.006836 502.397247,97.338402 504.035492,94.189056 
	C511.843719,79.178474 518.462891,63.624317 524.931030,47.999092 
	C526.140259,45.077900 526.326477,41.334469 530.374268,39.817871 
	C531.650635,39.881351 532.359131,40.286121 533.141846,41.328125 
	C535.593079,47.246376 533.531799,53.241112 535.317871,59.234917 
	C535.586670,60.140293 535.667175,60.663147 535.805420,61.548771 
	C536.238098,63.030502 536.103943,64.263252 536.854004,65.639648 
	C537.290833,66.574013 537.421448,67.243347 537.727539,68.208527 
	C537.963562,69.150253 537.918396,69.800476 538.244751,70.697121 
	C538.587158,71.544922 538.689697,72.140938 538.937805,73.007309 
	C539.089478,74.074463 539.215515,74.835312 539.888611,75.725800 
	C540.487427,76.888283 540.840332,77.829582 541.330627,79.063332 
	C543.311279,83.028587 546.320374,85.732300 549.470215,88.135300 
	C553.193054,90.975449 557.440796,91.049034 561.778503,89.251183 
	C565.673645,87.636787 568.711182,84.719803 572.625366,82.573135 
	C573.694214,82.509811 574.409363,82.508484 575.482788,82.519989 
	C576.078674,82.536118 576.316467,82.546326 576.909180,82.596069 
	C577.934509,82.868141 578.563477,83.182228 579.418091,83.801727 
	C580.249207,84.425804 580.833069,84.798683 581.756470,85.303917 
	C586.277405,87.147720 582.781738,90.191772 583.464844,92.850983 
	C585.883118,98.911919 587.668823,99.438774 591.904907,95.063705 
	C594.693970,92.183044 598.742798,90.089561 599.036743,84.972603 
	C599.106018,83.580009 599.456177,82.639755 600.164856,81.410843 
	C605.999023,72.675262 615.260742,71.435860 623.957642,69.122322 
	C625.507080,68.710136 626.875793,69.308037 628.062622,70.981262 
	C628.381409,76.496658 624.887695,80.865143 625.187134,86.413002 
	C625.508301,87.569801 625.480652,88.345779 625.181519,89.476608 
	C624.770447,90.757050 624.642761,91.691193 625.007202,92.999527 
	C624.672791,95.883354 624.049072,98.423912 625.719849,101.117828 
	C626.357239,101.937202 626.646545,102.555031 626.956848,103.527405 
	C627.276367,105.569359 627.678345,107.216614 629.303101,108.635742 
	C629.926086,109.057083 630.300903,109.272888 630.977112,109.625595 
	C635.539917,111.034874 637.967957,108.947739 639.366211,104.980423 
	C637.452942,102.529579 636.926697,104.732590 635.730591,105.834244 
	C635.197083,106.145958 634.959290,106.236458 634.333862,106.383041 
	C632.846008,106.491104 631.753845,106.484230 630.389771,105.726807 
	C628.160278,102.973480 628.480591,100.119446 628.922913,97.361526 
	C630.448059,87.850464 633.499634,78.785378 636.989014,69.828934 
	C638.664185,65.529160 642.030090,65.708794 646.046692,65.656021 
	C646.547058,65.543320 646.639099,65.141388 646.616333,64.923981 
	C646.468323,63.671474 645.625793,63.298492 644.575562,62.650826 
	C641.283203,59.813278 642.758728,57.050415 644.097473,54.323776 
	C650.697144,40.881828 658.327209,28.010725 665.913574,15.118173 
	C667.730469,12.030472 669.273560,8.967836 668.161865,4.882580 
	C668.100769,3.515441 667.966248,2.506701 668.758911,1.292823 
z"/>
<path fill="#ED1A46" opacity="1.000000" stroke="none" 
	d="
M666.208496,4.281226 
	C666.483459,3.107544 667.084351,2.254938 667.342590,1.201166 
	C667.444458,1.000000 667.888916,1.000000 668.666687,1.000000 
	C667.773560,2.188226 669.367310,2.522815 669.756470,3.622983 
	C668.901184,5.119553 667.768860,5.140944 666.208496,4.281226 
z"/>
<path fill="#ED1A46" opacity="1.000000" stroke="none" 
	d="
M665.580566,4.095907 
	C666.936157,3.972599 667.989685,3.985066 669.438354,3.999107 
	C672.442566,6.381435 672.342529,8.890760 670.647034,11.862769 
	C662.200317,26.668478 653.161194,41.148872 645.837463,56.573761 
	C645.323364,57.656448 642.869019,59.025105 645.896057,60.597050 
	C646.901306,62.216152 648.264221,62.873646 649.862793,63.755463 
	C651.258911,65.589073 651.929382,67.370422 651.511658,69.689583 
	C650.256226,69.011078 649.079834,70.055588 647.626343,69.303726 
	C641.438110,66.866776 640.680481,67.282661 638.717163,72.570862 
	C634.927307,82.778587 631.078430,92.953270 631.061768,104.506981 
	C632.120789,106.503227 633.231567,106.404045 634.289673,104.816544 
	C634.170105,104.494911 634.249390,104.249702 634.371948,104.210037 
	C637.047791,104.053963 639.286194,101.647858 642.446289,103.453827 
	C640.630920,111.300415 636.328613,114.055038 629.334106,112.012466 
	C628.816650,111.721115 628.656860,111.608887 628.331909,111.254868 
	C627.191956,108.925056 624.603271,108.111542 623.944946,105.390900 
	C623.949890,104.471298 623.852112,103.931458 623.334106,103.226822 
	C621.031494,100.176964 622.354797,96.923042 622.098267,93.437164 
	C622.738098,92.305695 623.244446,91.588493 622.946899,90.285172 
	C622.931213,89.217682 622.980164,88.474953 623.097900,87.366058 
	C625.067383,82.327148 627.255920,77.741982 627.360046,72.290794 
	C623.992493,69.368813 621.482971,72.700386 618.734802,73.178177 
	C612.336975,74.290504 606.288208,76.639748 602.177124,82.623749 
	C602.249634,83.585297 602.605469,84.136192 602.854004,85.062149 
	C600.296936,92.633377 593.645752,96.391594 588.668640,101.521301 
	C586.428040,103.830574 581.661682,99.556770 581.098694,94.387299 
	C582.241760,92.703438 583.044312,91.233765 583.566467,89.654716 
	C584.149109,87.892830 584.346436,86.193893 581.280090,86.654068 
	C580.259521,86.895554 579.519043,86.957771 578.409302,87.068604 
	C577.325439,86.751686 577.001221,86.027565 576.339722,85.227188 
	C576.166626,85.000069 576.021973,84.567169 575.990112,84.341194 
	C575.266235,83.111412 574.425842,82.892570 573.223145,83.873642 
	C569.742920,88.716187 564.845947,91.321533 559.770691,92.764519 
	C554.718872,94.200851 549.646484,92.716820 545.941406,88.433617 
	C543.692566,85.833847 540.616699,83.987488 538.984131,80.460724 
	C538.390686,79.284798 538.144043,78.282265 537.350464,77.237793 
	C536.775879,76.234550 536.385193,75.469009 535.943726,74.376282 
	C535.949890,73.471298 535.852112,72.931458 535.334106,72.226830 
	C534.803833,71.331100 534.441040,70.662125 534.122498,69.607758 
	C534.722107,68.749229 534.796753,68.173195 534.348389,67.262115 
	C533.528625,65.993614 532.730469,65.042397 533.099182,63.355659 
	C533.539734,62.541374 533.721436,62.042873 533.329041,61.228855 
	C530.701538,55.106449 532.581665,48.939487 532.098145,42.461998 
	C532.466003,40.397968 531.580566,40.317986 530.219849,40.867378 
	C527.110657,50.616863 522.951294,59.642536 518.897400,68.674881 
	C513.290161,81.168243 508.085114,93.894272 500.362152,105.343323 
	C499.389923,106.784615 498.805817,108.274712 496.351013,107.900589 
	C495.816620,107.721092 495.656830,107.608841 495.331848,107.254684 
	C494.569458,104.889618 491.496277,105.271103 491.121399,102.587036 
	C493.935822,94.226753 496.885468,86.304100 499.825684,78.397758 
	C502.245270,71.891357 505.735382,65.747055 508.413605,59.290581 
	C512.745789,48.846695 517.638916,38.673035 522.917114,28.328445 
	C523.029236,25.949211 524.315674,24.854195 526.381470,24.122845 
	C528.287964,25.257141 529.435608,24.861750 530.355286,23.311241 
	C531.291260,21.733210 532.682312,21.199247 534.783813,21.819851 
	C535.110474,21.953979 535.576111,22.021181 535.799866,22.093924 
	C536.183350,22.278893 536.343140,22.391117 536.668091,22.745146 
	C540.277222,29.475311 539.482422,36.708847 539.803406,43.564339 
	C540.323425,54.670677 540.548157,65.710335 543.973389,76.421463 
	C544.972534,79.546043 546.602173,81.992111 549.874756,83.583679 
	C554.283936,85.747528 557.171570,83.799538 559.767456,80.190651 
	C561.735046,77.997330 563.512573,76.109131 565.587769,74.089256 
	C568.206482,73.076706 569.761353,71.480980 571.142090,69.369301 
	C578.110229,58.711926 582.793579,47.180210 584.959351,34.306004 
	C584.930176,33.522446 584.978149,33.084438 585.096375,32.323166 
	C585.738098,31.305704 586.244507,30.588511 585.946899,29.285164 
	C585.931396,27.901443 585.980530,26.842485 586.098145,25.391541 
	C586.539734,24.541372 586.721436,24.042873 586.329041,23.228857 
	C584.043274,20.971262 581.439880,22.302103 579.072449,22.045616 
	C577.208252,21.843651 575.312012,22.048473 575.112427,18.989346 
	C577.440247,18.482805 578.914429,16.994322 580.728638,15.399338 
	C588.397156,14.787990 593.734558,20.189676 594.001282,28.299112 
	C594.339783,38.588184 591.892395,48.349545 588.556885,57.974361 
	C586.526611,63.832966 583.367432,69.135651 580.421570,74.867310 
	C579.490234,77.394882 581.314636,77.923988 582.557556,77.228737 
	C586.825623,74.841232 592.053345,74.305145 595.765564,70.198288 
	C596.746887,68.986107 597.536316,68.086678 598.605591,67.072418 
	C599.893372,66.175156 601.503418,66.174576 601.900513,64.291031 
	C601.933289,61.605186 604.085266,60.760040 605.583618,59.093056 
	C606.893372,58.175117 608.503418,58.174622 608.900513,56.291023 
	C609.753235,52.338463 613.249756,50.890408 615.583191,48.093521 
	C616.893372,47.175117 618.503418,47.174622 618.900513,45.291023 
	C618.876221,42.811687 620.671753,41.877827 621.909058,40.626476 
	C628.334167,34.128735 634.817993,27.689070 641.583374,21.093361 
	C644.792358,18.690775 648.148987,19.241179 651.703003,19.158028 
	C653.074768,17.657841 654.191589,16.430687 655.596924,15.080546 
	C656.893372,14.175118 658.503418,14.174618 658.900513,12.291017 
	C659.752563,8.339355 663.248169,6.891819 665.580566,4.095907 
z"/>
<path fill="#ED1A46" opacity="1.000000" stroke="none" 
	d="
M388.646118,72.842361 
	C397.088593,63.335461 403.128326,52.642677 409.393890,42.112972 
	C414.235504,33.976276 418.680420,25.572783 424.586121,18.148787 
	C425.812531,16.607096 427.034912,12.831289 430.103516,14.833014 
	C432.836517,16.615808 435.851227,18.115503 434.583374,23.273762 
	C430.033813,41.783691 423.784729,59.824802 419.758514,78.470490 
	C417.456390,89.131927 415.783112,99.745033 417.830505,110.661354 
	C418.442657,113.925201 415.959534,113.144669 414.297638,112.647896 
	C409.684967,111.269066 407.330505,106.295837 406.952911,99.022346 
	C406.110474,82.795479 410.329315,67.525879 415.288208,52.364658 
	C415.824066,50.726315 416.393524,49.098957 416.968842,47.403320 
	C414.804962,46.876625 414.533203,48.213627 413.888977,49.374058 
	C407.858704,60.236866 401.293488,70.758507 393.744690,80.648277 
	C390.553223,84.829437 386.523193,86.046349 382.099274,84.027641 
	C377.259033,81.818954 374.819092,77.437363 376.322937,72.542725 
	C377.093414,70.034866 376.913910,67.755692 376.788147,64.815102 
	C373.785004,66.385361 372.836945,69.162231 371.463257,71.282768 
	C366.123840,79.525185 360.197083,87.327438 354.293182,95.149139 
	C350.327850,100.402557 346.012024,102.041878 341.704620,100.251778 
	C335.166351,97.534554 333.553619,94.318260 335.298981,87.360977 
	C338.878235,73.093147 346.209320,60.478031 352.947205,47.615902 
	C355.309082,43.107262 358.104523,38.825745 360.048004,33.623226 
	C354.813416,36.172649 349.435577,38.468414 344.375092,41.326122 
	C334.850647,46.704659 325.053070,51.631969 316.082428,57.962856 
	C314.182281,59.303844 312.388397,60.471523 311.926208,63.110832 
	C311.338898,66.464432 309.561554,65.511627 307.957642,63.754974 
	C304.894501,60.400131 305.399323,56.502792 309.513916,51.987671 
	C313.999390,47.065571 319.644989,43.589317 325.335541,40.405445 
	C338.576324,32.997189 351.815643,25.451241 366.721558,21.729694 
	C369.785614,20.964699 372.739624,19.646654 376.215912,20.505047 
	C379.225647,21.248238 380.457886,23.579805 380.608093,25.632776 
	C380.770172,27.847712 377.707092,27.785299 376.064026,27.860424 
	C373.881714,27.960207 374.244781,29.000374 373.622467,30.473825 
	C372.049683,34.197659 369.348236,37.425953 367.524628,41.066013 
	C360.058319,55.969410 352.082275,70.639328 346.279816,86.323753 
	C346.132233,86.722672 346.261200,87.223907 346.261200,89.147644 
	C349.846405,84.809853 352.853546,81.549454 355.436096,77.981728 
	C366.926453,62.108097 378.356964,46.188457 388.005768,29.083714 
	C388.841461,27.602217 389.785614,25.206730 391.877899,26.614874 
	C394.318512,28.257446 398.210724,29.145847 396.598236,33.968586 
	C392.622955,45.858208 389.390503,57.975456 386.408966,70.154877 
	C385.677765,73.141884 385.740631,73.246536 388.646118,72.842361 
z"/>
<path fill="#ED1A46" opacity="1.000000" stroke="none" 
	d="
M139.993057,74.037933 
	C139.715790,76.599022 136.208755,79.242958 139.155334,80.686996 
	C142.707520,82.427826 142.269882,77.959320 143.267487,76.190315 
	C148.405075,67.079979 153.920563,58.207447 159.940735,49.671917 
	C163.193497,45.060104 165.958542,45.133595 168.435791,48.838406 
	C169.693558,50.719402 166.613647,52.250629 168.664810,53.871956 
	C170.833160,53.920933 171.553223,51.541275 173.408401,50.741234 
	C175.512238,49.833969 177.469162,46.182663 179.608429,48.634468 
	C181.752029,51.091240 185.721069,53.344563 183.523239,58.352707 
	C182.294373,61.152885 181.268768,65.382607 186.703766,66.428970 
	C187.920929,66.663300 188.289429,68.154442 187.825531,69.356903 
	C187.266327,70.806412 185.970596,71.146408 184.524246,70.975746 
	C180.881058,70.545891 179.239532,67.673973 178.080734,64.889862 
	C176.086227,60.097881 174.171051,60.698120 171.317505,64.119850 
	C166.782791,69.557495 161.999084,74.786880 157.355667,80.134720 
	C154.735428,83.152443 151.607040,87.083588 148.315521,87.379364 
	C144.442734,87.727371 139.552689,88.355423 135.939880,86.119400 
	C132.512527,83.998161 129.426651,80.851257 129.905212,75.993332 
	C129.928421,75.757736 129.589096,75.486420 129.226929,74.945427 
	C125.615265,77.706787 122.139984,80.618279 118.413544,83.161804 
	C109.768684,89.062439 108.230820,88.897522 101.763069,81.114433 
	C100.322289,79.380661 99.976494,78.925613 97.831833,80.475319 
	C92.397408,84.402229 86.459801,87.411903 79.521591,88.040298 
	C70.389793,88.867355 59.950874,78.702148 64.989792,67.921471 
	C69.772194,57.689617 76.607918,49.463680 87.771973,45.614029 
	C91.964737,44.168262 95.044411,45.423016 97.960991,48.409286 
	C100.768585,51.283974 101.681915,54.281879 100.386086,58.248573 
	C97.849792,66.012466 92.743179,70.942955 85.087624,73.505890 
	C83.747650,73.954491 82.585602,74.043434 81.250587,73.676277 
	C75.114059,71.988617 75.107742,72.011574 73.597633,78.585625 
	C84.780396,80.013718 100.039169,72.083641 105.973312,62.505493 
	C111.126495,54.187862 117.435783,46.978355 127.730644,44.521290 
	C130.425690,43.878063 132.574921,44.112850 134.759628,45.370949 
	C136.687393,46.481098 138.059174,47.913815 140.952637,47.226681 
	C144.213989,46.452179 148.044006,53.766724 146.556870,57.840694 
	C144.605423,63.186604 142.254639,68.386742 139.993057,74.037933 
z"/>
<path fill="#ED1A46" opacity="1.000000" stroke="none" 
	d="
M522.570068,28.107128 
	C525.025940,28.984833 523.975769,30.332458 523.255310,31.646692 
	C511.244934,53.555672 502.029358,76.683937 493.359436,100.053581 
	C493.096802,100.761444 492.315552,101.276909 491.471405,102.043610 
	C491.519318,95.390045 494.571899,89.400063 496.932495,83.192696 
	C497.409363,81.938744 498.873596,80.704559 497.114044,78.883049 
	C490.400360,84.497993 483.279236,89.603188 475.609009,93.938072 
	C464.776794,100.059952 453.509888,105.170044 441.578186,108.674988 
	C434.968079,110.616714 431.151855,108.835266 428.053436,103.161919 
	C425.638062,98.739296 426.649811,93.695229 431.128662,89.432053 
	C435.078461,85.672432 438.499176,81.395676 443.099182,78.252609 
	C447.379028,75.328285 451.226074,71.770569 455.450470,68.339966 
	C445.791016,67.397675 442.339752,60.350559 447.767975,52.718281 
	C453.668610,44.421745 462.254150,39.019188 470.365479,33.250290 
	C479.664337,26.636795 488.964203,19.677013 500.333038,17.023138 
	C507.250488,15.408364 511.986603,10.065246 518.460449,7.805301 
	C523.314941,6.110649 525.797485,6.967478 526.688965,11.151399 
	C527.028809,12.746741 526.017212,13.963885 525.339539,13.765205 
	C518.539673,11.771482 515.195068,17.426853 511.224121,20.592020 
	C505.435547,25.206007 500.341553,30.780663 495.794525,36.733593 
	C493.484772,39.757515 492.471222,42.935089 495.161163,46.389408 
	C490.269623,47.190228 487.434082,44.011204 488.079285,38.905716 
	C488.212036,37.855293 490.177338,36.383537 487.530334,36.060894 
	C486.021057,35.876926 485.727631,33.091190 483.175995,34.860191 
	C472.945221,41.953079 462.968475,49.293800 453.511841,59.056820 
	C461.298553,58.460781 467.525208,56.083191 473.891144,54.482281 
	C480.669281,52.777702 487.302307,50.497646 494.003510,48.484856 
	C498.010712,47.281239 501.311768,49.261257 501.940460,53.316803 
	C502.269775,55.440910 501.260040,56.278008 499.143524,57.140560 
	C476.430664,66.396637 456.393768,79.803093 438.726013,96.783195 
	C437.912201,97.565338 437.163055,98.414787 436.117126,99.512848 
	C439.576508,100.710579 442.313416,99.300575 444.935638,98.478439 
	C462.154114,93.080086 478.591736,86.055138 492.880554,74.703461 
	C493.992706,73.819923 495.544373,72.470673 496.842133,73.144379 
	C501.941772,75.791641 501.854675,71.140030 502.894348,68.804497 
	C508.988983,55.113121 514.011108,40.918385 522.570068,28.107128 
z"/>
<path fill="#ED1A46" opacity="1.000000" stroke="none" 
	d="
M260.104553,76.053543 
	C262.771484,76.300972 263.513641,74.772476 264.493103,73.088806 
	C268.920807,65.477722 273.461304,57.929565 278.119537,50.457489 
	C279.099915,48.884903 279.637909,45.816830 282.712646,47.402596 
	C285.169678,48.669785 285.399109,51.000935 284.787689,53.444210 
	C284.603119,54.181713 283.711517,54.780766 284.630096,55.901764 
	C288.728302,54.811382 291.457062,51.304996 295.052551,49.246387 
	C297.227325,48.001225 298.907013,47.282707 300.713257,49.262955 
	C302.351410,51.058872 304.536377,52.064827 303.293152,55.816669 
	C300.724030,63.569721 295.882385,70.356750 294.095245,78.819885 
	C300.374084,78.711189 304.520020,74.600250 309.035950,71.393394 
	C310.937927,70.042786 312.917755,66.882851 314.993286,68.896996 
	C317.705078,71.528580 314.510132,73.866318 312.665192,75.784355 
	C309.352539,79.228241 305.396027,81.858673 301.289551,84.275856 
	C297.650818,86.417694 293.871521,87.216751 290.226898,84.676781 
	C285.861786,81.634712 285.269592,77.140358 286.322998,72.276176 
	C286.755035,70.281181 288.495392,68.571404 287.702240,66.300644 
	C285.914307,65.770660 285.298645,67.261581 284.426605,68.118752 
	C279.676849,72.787613 274.981720,77.512161 270.275757,82.225456 
	C268.408722,84.095367 266.736664,86.633942 263.838623,83.467842 
	C262.915039,82.458817 261.985321,83.493431 261.213562,83.974625 
	C258.131744,85.896111 254.773804,86.089828 251.250061,86.041771 
	C241.593918,85.910095 236.691284,77.489708 240.758224,68.533699 
	C243.419830,62.672455 247.189041,57.835590 251.904831,53.653706 
	C253.870499,51.910576 255.989014,49.472748 258.975342,52.044231 
	C262.140259,54.769520 262.055786,57.287033 259.126740,60.546288 
	C254.875214,65.277145 251.562546,70.744240 248.758682,76.522156 
	C247.561096,78.990028 248.768539,79.396255 250.409882,78.894768 
	C253.502991,77.949722 256.996613,78.280777 260.104553,76.053543 
z"/>
<path fill="#ED1A46" opacity="1.000000" stroke="none" 
	d="
M60.993797,46.019566 
	C67.842773,51.370224 67.820999,51.362335 65.063347,58.972836 
	C59.217541,75.105904 50.389870,89.519295 39.600182,102.755890 
	C34.311684,109.243729 24.783941,109.762619 17.960281,104.579926 
	C15.045592,102.366165 12.310483,100.131378 10.446181,96.953079 
	C9.944197,96.097282 8.116191,95.422333 9.687657,94.249977 
	C10.734462,93.469032 11.920119,94.226112 12.694217,95.213890 
	C14.607506,97.655312 17.523937,98.522369 20.032162,100.049919 
	C22.788000,101.728256 25.131021,100.953384 27.232737,99.169998 
	C30.721970,96.209267 33.615917,92.706665 36.211147,88.372116 
	C32.592628,87.582047 28.925774,88.672470 26.242365,85.691833 
	C20.933533,79.794945 20.570000,76.299507 23.944365,68.432365 
	C26.978569,61.358292 30.596689,54.607361 35.621780,48.645027 
	C37.449055,46.476944 38.734978,43.825912 41.981422,46.055725 
	C45.633793,48.564331 45.983784,51.466789 43.132202,54.931637 
	C37.665009,61.574623 34.986889,69.707741 31.084135,77.184807 
	C30.902636,77.532516 31.188131,78.123985 31.344463,79.222748 
	C42.236874,72.895813 50.763466,64.880493 55.994377,53.604290 
	C57.245255,50.907784 57.573605,47.639397 60.993797,46.019566 
z"/>
<path fill="#ED1A46" opacity="1.000000" stroke="none" 
	d="
M202.008698,76.027534 
	C206.518875,82.259094 206.071655,84.726807 199.527023,87.712616 
	C196.008514,89.317841 192.408890,90.782890 188.376678,91.091255 
	C185.033020,91.346954 183.893707,89.060768 183.208054,86.950966 
	C182.395798,84.451477 185.266159,84.437195 186.714554,83.769279 
	C190.096863,82.209572 193.693619,81.099190 196.901398,78.644905 
	C193.490479,75.148880 190.543472,71.276810 189.178253,66.822144 
	C186.943420,59.530056 190.008545,53.419868 197.492096,48.210392 
	C198.156357,47.747978 198.834320,47.136108 199.582977,46.990910 
	C205.327316,45.876789 209.109070,42.111996 212.789032,37.920815 
	C214.122940,36.401592 216.531464,34.583447 218.693893,37.265110 
	C220.301315,39.258507 222.005554,41.005505 219.653442,44.112377 
	C216.926849,47.713905 215.041382,51.986046 213.022690,56.081379 
	C210.335983,61.531876 210.215195,64.034363 211.805557,69.483551 
	C207.459229,69.962975 205.543640,67.879662 203.204590,60.000576 
	C200.447739,61.264687 199.359756,63.772266 197.886215,66.139458 
	C195.531189,69.922745 199.069489,70.986412 200.517410,73.069801 
	C201.075516,73.872871 201.464874,74.793236 202.008698,76.027534 
z"/>
<path fill="#ED1A46" opacity="1.000000" stroke="none" 
	d="
M274.751343,35.747391 
	C271.626617,38.731064 269.306702,41.901333 267.337738,45.308861 
	C266.290833,47.120636 265.013397,49.053230 267.398041,50.994297 
	C268.188965,51.638084 268.403992,52.915321 267.498260,53.624287 
	C266.426422,54.463299 265.446716,53.762222 264.456390,52.976406 
	C258.338226,48.121708 259.137451,41.216488 263.924591,33.712467 
	C265.145386,31.798828 266.982300,30.155857 268.837891,28.802197 
	C270.911469,27.289478 273.283997,25.578220 275.779419,28.363253 
	C278.175476,31.037401 278.135284,33.428421 274.751343,35.747391 
z"/>
<path fill="#ED1A46" opacity="1.000000" stroke="none" 
	d="
M584.559937,34.167892 
	C586.713257,34.630104 586.129639,35.941463 585.839905,37.270370 
	C583.187744,49.436756 578.653320,60.799397 571.589783,71.110451 
	C570.368164,72.893700 568.867432,73.997391 566.265686,73.948212 
	C575.517822,62.393177 580.754456,48.790737 584.559937,34.167892 
z"/>
<path fill="#ED1A46" opacity="1.000000" stroke="none" 
	d="
M595.621582,70.048859 
	C596.031128,72.092232 595.205383,73.634224 593.016418,74.484558 
	C589.794312,75.736214 586.715271,77.393234 583.438477,78.455818 
	C580.366028,79.452118 579.154541,78.268761 579.850220,75.170311 
	C581.079895,76.631821 582.130310,75.853828 583.351746,75.306160 
	C587.297729,73.536842 591.303101,71.900032 595.621582,70.048859 
z"/>
<path fill="#ED1A46" opacity="1.000000" stroke="none" 
	d="
M627.087158,72.381004 
	C628.251770,72.641479 629.006348,73.605881 628.636719,74.838989 
	C627.395264,78.980225 626.710205,83.367317 623.448120,86.899689 
	C623.325439,81.951332 625.477661,77.440544 627.087158,72.381004 
z"/>
<path fill="#ED1A46" opacity="1.000000" stroke="none" 
	d="
M559.632812,80.039894 
	C558.851990,85.561943 554.067261,87.836082 550.133789,84.197983 
	C553.442383,83.437317 556.429810,81.952705 559.632812,80.039894 
z"/>
<path fill="#ED1A46" opacity="1.000000" stroke="none" 
	d="
M534.963501,21.642311 
	C532.284058,22.264429 531.060852,27.185667 527.009766,24.425730 
	C528.363403,24.327831 529.037476,23.271566 529.485840,22.014919 
	C530.826233,18.258543 532.655273,18.561140 534.963501,21.642311 
z"/>
<path fill="#ED1A46" opacity="1.000000" stroke="none" 
	d="
M581.360474,86.914597 
	C583.129089,84.309547 584.465637,85.188896 584.788940,87.963943 
	C585.070679,90.381989 584.212952,92.546646 581.488525,93.873779 
	C580.485718,92.058578 581.725525,90.586212 582.488647,89.055351 
	C583.054749,87.919487 583.054321,87.286369 581.360474,86.914597 
z"/>
<path fill="#ED1A46" opacity="1.000000" stroke="none" 
	d="
M651.592163,18.922419 
	C649.418701,22.027958 645.740540,20.091234 642.288696,20.959969 
	C644.372253,17.360596 647.288818,15.773120 651.592163,18.922419 
z"/>
<path fill="#ED1A46" opacity="1.000000" stroke="none" 
	d="
M642.901062,103.468102 
	C640.355103,104.018082 637.949890,105.096680 634.943481,104.298050 
	C635.561523,102.428513 637.451172,101.892975 639.091980,100.959961 
	C641.723694,99.463501 642.978149,100.129753 642.901062,103.468102 
z"/>
<path fill="#ED1A46" opacity="1.000000" stroke="none" 
	d="
M580.644348,15.106499 
	C580.350525,17.798389 578.805054,19.141130 575.577271,18.576309 
	C576.422974,16.679380 578.197998,15.629173 580.644348,15.106499 
z"/>
<path fill="#ED1A46" opacity="1.000000" stroke="none" 
	d="
M647.013245,69.315765 
	C648.180908,69.211327 649.195190,69.421974 650.697632,69.809204 
	C650.089905,71.169426 649.472351,73.347923 647.329346,72.604828 
	C645.997742,72.143112 645.505981,70.865578 647.013245,69.315765 
z"/>
<path fill="#ED1A46" opacity="1.000000" stroke="none" 
	d="
M633.904297,104.670212 
	C634.422180,105.578194 634.820740,106.874893 633.402832,107.293243 
	C632.050598,107.692215 630.880249,107.225365 631.013184,105.196609 
	C631.949341,104.914375 632.793945,104.879944 633.904297,104.670212 
z"/>
<path fill="#ED1A46" opacity="1.000000" stroke="none" 
	d="
M530.361694,41.074417 
	C530.289246,40.046036 530.243835,38.444225 531.836914,38.794025 
	C533.366821,39.129959 533.865173,40.327793 532.391846,41.853378 
	C531.896606,41.330276 531.392639,41.022385 530.361694,41.074417 
z"/>
<path fill="#ED1A46" opacity="1.000000" stroke="none" 
	d="
M618.597778,45.079536 
	C620.550415,47.157188 620.343628,47.426533 616.237976,47.951355 
	C616.694641,47.038082 617.503723,46.118587 618.597778,45.079536 
z"/>
<path fill="#ED1A46" opacity="1.000000" stroke="none" 
	d="
M608.597778,56.079529 
	C610.550415,58.157185 610.343628,58.426529 606.237976,58.951355 
	C606.694641,58.038074 607.503723,57.118580 608.597778,56.079529 
z"/>
<path fill="#ED1A46" opacity="1.000000" stroke="none" 
	d="
M601.597778,64.079529 
	C603.550476,66.157204 603.343628,66.426529 599.237976,66.951355 
	C599.694641,66.038078 600.503723,65.118584 601.597778,64.079529 
z"/>
<path fill="#ED1A46" opacity="1.000000" stroke="none" 
	d="
M658.597778,12.079523 
	C660.550537,14.157254 660.343750,14.426541 656.237976,14.951344 
	C656.694641,14.038060 657.503723,13.118568 658.597778,12.079523 
z"/>
<path fill="#ED1A46" opacity="1.000000" stroke="none" 
	d="
M650.056274,63.604939 
	C648.388916,63.856770 646.878845,63.409321 646.145325,61.217209 
	C647.636353,61.213127 649.204651,61.584778 650.056274,63.604939 
z"/>
<path fill="#ED1A46" opacity="1.000000" stroke="none" 
	d="
M622.582703,90.130165 
	C624.931213,91.052689 624.341370,91.969887 622.429688,92.908363 
	C622.205444,92.099892 622.244324,91.199905 622.582703,90.130165 
z"/>
<path fill="#ED1A46" opacity="1.000000" stroke="none" 
	d="
M585.582764,29.130154 
	C587.931335,30.052734 587.341003,30.969896 585.429688,31.908373 
	C585.205505,31.099903 585.244385,30.199905 585.582764,29.130154 
z"/>
<path fill="#ED1A46" opacity="1.000000" stroke="none" 
	d="
M573.405029,84.068069 
	C573.709778,82.737892 574.478088,81.892471 575.844116,83.861206 
	C575.228149,84.083855 574.498169,84.052490 573.405029,84.068069 
z"/>
<path fill="#ED1A46" opacity="1.000000" stroke="none" 
	d="
M603.127197,85.212860 
	C602.571045,84.751183 602.265259,84.117966 602.032104,83.216797 
	C603.505371,83.052498 604.756531,83.247032 603.127197,85.212860 
z"/>
<path fill="#ED1A46" opacity="1.000000" stroke="none" 
	d="
M537.104736,77.327095 
	C538.165161,77.531303 538.757446,78.344337 538.921875,79.796753 
	C537.975525,79.562042 537.067261,78.951973 537.104736,77.327095 
z"/>
<path fill="#ED1A46" opacity="1.000000" stroke="none" 
	d="
M576.102539,85.294937 
	C576.716125,85.525856 577.265625,86.051636 577.927612,86.847321 
	C576.213257,88.127678 576.318481,86.606300 576.102539,85.294937 
z"/>
<path fill="#ED1A46" opacity="1.000000" stroke="none" 
	d="
M535.103455,72.302490 
	C535.870789,72.334801 536.459045,72.734619 535.997681,73.857254 
	C535.199036,73.809593 535.028625,73.261002 535.103455,72.302490 
z"/>
<path fill="#ED1A46" opacity="1.000000" stroke="none" 
	d="
M534.098755,67.273811 
	C534.948730,67.507751 535.320740,68.096252 534.355042,69.066833 
	C534.121460,68.664093 534.076111,68.105812 534.098755,67.273811 
z"/>
<path fill="#ED1A46" opacity="1.000000" stroke="none" 
	d="
M533.100708,61.331146 
	C533.998047,61.454304 534.551636,61.966412 533.354492,62.901779 
	C533.122681,62.553780 533.078735,62.108006 533.100708,61.331146 
z"/>
<path fill="#ED1A46" opacity="1.000000" stroke="none" 
	d="
M623.103455,103.302490 
	C623.870789,103.334801 624.459045,103.734619 623.997681,104.857254 
	C623.199036,104.809593 623.028625,104.261002 623.103455,103.302490 
z"/>
<path fill="#ED1A46" opacity="1.000000" stroke="none" 
	d="
M586.100708,23.331150 
	C586.998108,23.454300 587.551575,23.966433 586.354492,24.901775 
	C586.122681,24.553778 586.078735,24.108004 586.100708,23.331150 
z"/>
<path fill="#ED1A46" opacity="1.000000" stroke="none" 
	d="
M536.856323,22.736317 
	C536.636047,22.822445 536.450134,22.645922 536.149658,22.312019 
	C536.308838,22.273001 536.594116,22.379343 536.856323,22.736317 
z"/>
<path fill="#ED1A46" opacity="1.000000" stroke="none" 
	d="
M495.143616,107.263474 
	C495.363953,107.177383 495.549835,107.353973 495.850342,107.687950 
	C495.691132,107.726944 495.405884,107.620552 495.143616,107.263474 
z"/>
<path fill="#ED1A46" opacity="1.000000" stroke="none" 
	d="
M628.143677,111.263695 
	C628.364014,111.177505 628.549927,111.354019 628.850342,111.687981 
	C628.691162,111.726997 628.405884,111.620659 628.143677,111.263695 
z"/>
<path  opacity="1.000000" stroke="none" 
	d="
M637.284302,49.322044 
	C636.421875,50.951347 635.497864,52.199951 635.159851,53.590954 
	C633.296265,61.260464 627.509949,62.705673 619.887695,62.890854 
	C626.472656,54.818554 632.830627,47.438011 640.814087,39.788494 
	C640.613220,44.216473 638.440369,46.383251 637.284302,49.322044 
z"/>
<path  opacity="1.000000" stroke="none" 
	d="
M120.722061,60.777573 
	C124.789581,56.784405 128.240845,52.476349 135.343552,51.787342 
	C127.717789,60.751755 121.611244,69.735199 111.076675,75.709152 
	C113.064827,69.182343 117.379898,65.511162 120.722061,60.777573 
z"/>
<path  opacity="1.000000" stroke="none" 
	d="
M87.193176,63.308441 
	C85.686272,64.902634 84.306122,65.806236 82.726883,64.142120 
	C80.988823,62.310646 83.116585,61.569782 83.951828,60.599766 
	C86.304375,57.867596 89.028320,55.575932 92.863861,53.671402 
	C92.261292,57.974590 90.072067,60.629776 87.193176,63.308441 
z"/>
</svg>