<svg xmlns="http://www.w3.org/2000/svg" viewBox="90.34 89.58 260.72 56.45"><path d="M92.67 142.93c0 .09-.02.2-.07.35-.04.15-.12.25-.24.31 0 .06 0 .11.02.15s0 .07-.07.07c-.06.06-.06.08 0 .06s.09 0 .09.06c-.44.15-.71.42-.83.83s-.31.77-.57 1.09c-.12-.03-.14-.08-.07-.15.07-.07.08-.14.02-.2-.15.06-.23.13-.26.22s-.07.19-.13.31c-.15-.06-.17-.15-.09-.28.09-.13.07-.24-.04-.33 0-.03.04-.05.11-.06s.11-.05.11-.11l-.04-.04s-.06 0-.09-.02-.06-.02-.09-.02c.06-.03.13-.09.22-.18-.09-.23-.04-.46.13-.67.17-.22.25-.46.22-.72.2-.23.33-.49.37-.76.04-.28.15-.52.33-.72 0-.17.04-.29.13-.35h-.18c-.06-.09-.06-.15-.02-.2.04-.04.07-.11.07-.2-.2.12-.31.31-.31.59s-.12.49-.35.64c0 .23-.02.47-.06.7-.04.23-.18.42-.42.57-.15-.06-.22-.16-.22-.31.2.03.28-.05.22-.24s0-.3.17-.33c0-.06-.01-.09-.04-.09s-.03-.02 0-.05c.06-.06.09-.11.11-.15.02-.04.04-.08.07-.11.06-.06.05-.1-.02-.13s-.11-.07-.11-.13c.18.06.27-.02.28-.24.02-.22.05-.38.11-.5.15 0 .22-.02.22-.06 0-.05-.01-.1-.04-.16.06-.15.09-.28.11-.41.02-.13.05-.27.11-.42 0-.03-.02-.04-.07-.02-.04.01-.07 0-.07-.02 0-.12.01-.21.04-.26.03-.06.03-.15 0-.26-.03-.03-.07-.04-.13-.02s-.12 0-.17-.02c0-.09-.03-.13-.09-.13.15-.41.32-.76.52-1.07.2-.31.42-.62.66-.94 0-.06-.03-.13-.09-.22.15-.2.27-.41.37-.63.1-.22.2-.44.28-.67.09-.23.19-.44.31-.63s.22-.4.31-.64c.32-.84.75-1.69 1.29-2.55.54-.86 1.06-1.71 1.55-2.55.32-.5.59-1.02.81-1.57.22-.55.44-1.09.68-1.62.15-.15.25-.29.33-.46.07-.16.18-.31.33-.46-.12 0-.17-.01-.17-.04 0-.09.04-.17.13-.26s.16-.13.22-.13c.09-.18.2-.35.33-.53.13-.17.18-.36.16-.57-.06 0-.09.03-.07.09.01.06.02.1.02.13-.09-.06-.15-.11-.2-.15-.04-.05-.02-.1.06-.15-.32-.12-.67-.15-1.04-.09-.38.06-.64-.03-.79-.26-.06.06-.11.07-.15.02-.04-.05-.12-.02-.24.06-.29-.15-.63-.26-1.01-.35-.38-.09-.61-.28-.7-.57-.18-.03-.28-.12-.31-.28s-.1-.28-.22-.37c0-.15 0-.31-.02-.5-.01-.19 0-.36.02-.5.09-.06.13-.1.13-.13s.03-.04.09-.04c-.03-.03-.06-.03-.09 0 .06-.12.1-.24.11-.37.01-.13.05-.22.11-.28 0-.21.05-.43.15-.68.1-.25.17-.47.2-.67 0-.09-.01-.19-.04-.31.26-.26.41-.6.44-1.01.23-.23.38-.49.44-.76s.15-.56.26-.85c.06-.23.16-.44.28-.63.13-.19.24-.4.33-.63.03-.06.04-.13.02-.22a.317.317 0 0 1 .02-.22c.09-.15.19-.29.31-.44s.16-.29.13-.44c.15-.09.22-.19.24-.31.01-.11.05-.25.11-.39.18-.2.31-.44.42-.72s.21-.55.33-.83c.12-.28.25-.54.39-.79s.33-.47.57-.67c-.09-.12-.09-.17 0-.17 0-.06-.01-.1-.04-.11-.04-.01-.02-.04.04-.06.09-.09.19-.12.33-.09.13.03.21-.01.24-.13 0-.06-.06-.08-.16-.06s-.15 0-.15-.07c.09 0 .16 0 .23-.02.08-.01.16-.02.24-.02.03.03.04.1.04.22.15.06.26.05.35-.04.09-.09.18-.13.26-.13.12.09.18.17.18.26.06.06.2.08.41.06.22-.01.37-.06.46-.15.03.12.09.17.19.15.11-.01.21 0 .33.02.03.11.08.19.15.22s.13.07.2.13c.06 0 .1-.02.13-.07.03-.04.09-.05.18-.02.06.09.09.17.09.26s.07.13.22.13c0 .23 0 .44-.02.63s0 .34.02.46c.06 0 .07 0 .04-.02s-.01-.02.04-.02c.06.15.02.31-.11.48-.13.17-.21.35-.24.52.03.15-.01.28-.13.39 0 .03.05.04.13.04 0 .06 0 .09-.02.09s-.02.03-.02.09h-.13c-.06.44-.17.86-.35 1.27-.17.41-.36.81-.57 1.22 0 .09.04.15.13.17h-.13s-.04-.01-.04-.04c-.06.38-.16.72-.31 1.03-.14.31-.28.62-.39.94.06.06.09.06.11 0 .01-.06.05-.07.11-.05v.22c.09 0 .18-.04.28-.11.11-.07.17-.14.2-.2 0-.06.06-.09.18-.09.11-.09.22-.18.33-.28.1-.1.24-.18.41-.24.06-.23.18-.37.37-.42.19-.04.31-.18.38-.42.11.03.18 0 .19-.09.01-.09.05-.17.11-.26.2-.03.32-.09.35-.2s.14-.18.35-.24a.86.86 0 0 1-.31.42c-.15.1-.22.21-.22.33.11 0 .2-.04.24-.11.04-.07.15-.13.33-.2 0-.03 0-.05-.02-.06s-.02-.04-.02-.07c.06 0 .09-.02.09-.06 0-.05.03-.07.09-.07 0-.03 0-.04-.02-.04s-.02-.03-.02-.09c.15 0 .23-.06.26-.17.03-.11.13-.19.31-.22v-.22c.06 0 .1-.03.13-.09s.09-.07.17-.04c.21-.23.37-.46.5-.68.13-.22.31-.43.55-.63 0-.03 0-.04-.02-.04s-.03-.03-.03-.09c.06-.06.11-.1.16-.13s.08-.07.11-.13c.32-.17.55-.4.68-.7.13-.29.36-.54.67-.74 0-.15.05-.27.15-.37.11-.1.23-.18.38-.24v-.26c.14-.12.25-.25.33-.39a.79.79 0 0 1 .37-.35c.26-.32.48-.62.67-.9s.41-.57.67-.9c0-.03.01-.05.04-.06s.01-.05-.04-.11c.23-.17.43-.39.59-.65.16-.26.34-.51.55-.74.11-.06.26-.17.43-.35-.06-.29.04-.5.26-.61l.7-.35c0-.06 0-.09.02-.09s0-.03-.02-.09c.17 0 .28-.04.33-.11.04-.07.13-.11.28-.11.06.06.04.09-.04.11-.09.02-.11.05-.05.11.12 0 .2-.01.24-.04s.11-.04.2-.04l.09.09c.06.06.07.1.04.11s-.04.05-.04.11.03.08.09.06c.06-.01.11 0 .13.06.06-.06.07-.13.04-.22s-.01-.1.04-.04c.03.06.04.1.02.13s-.02.09-.02.17c.11.06.27.09.46.09s.31.03.37.09c.09 0 .13-.06.13-.17h.22c.06.03.07.05.04.06s-.04.05-.04.11c.29 0 .56.04.81.11.24.07.48.15.72.24 0 .03 0 .05-.02.07s-.02.05-.02.11c.06 0 .09-.01.11-.04s.05-.01.11.04c.06.15.11.28.17.39s.16.19.31.22c.06.26.05.49-.02.68s-.11.4-.11.63c-.12.32-.29.6-.53.85-.23.25-.36.56-.39.94-.21.26-.43.54-.65.85-.23.31-.43.62-.57.94-.35.47-.67.92-.94 1.35-.28.43-.6.84-.99 1.22.03.09.04.14.02.15s-.02.04-.02.06c-.09.06-.2.14-.35.24-.14.1-.25.22-.31.37-.06.06-.11.13-.15.22-.04.09-.07.16-.07.22-.03.03-.06.05-.11.06-.04.02-.08.04-.11.07-.41.47-.79.94-1.14 1.44-.35.5-.76.98-1.22 1.44 0 .06-.02.11-.06.15s-.05.1-.02.15c-.03.03-.11.04-.22.04-.03.06-.04.1-.04.13-.03.09-.03.16 0 .22-.06-.03-.09-.02-.11.02-.01.04-.06.06-.15.06 0 .29-.18.48-.53.57-.09.23-.21.44-.37.63s-.33.4-.5.63c-.09.23-.26.44-.5.63-.25.19-.4.43-.46.72-.03.03-.08.04-.15.04-.08 0-.14.03-.2.09.03.06.04.15.04.26-.14.15-.29.29-.43.44-.15.15-.25.33-.31.56-.06.03-.1.05-.11.07s-.06.02-.15.02c.03.23-.06.41-.28.52-.22.12-.33.28-.33.48-.18.09-.28.23-.31.43-.15.03-.28.19-.39.48-.06.06-.09.08-.09.06s-.01 0-.04.02v.17c-.38.17-.65.44-.81.81-.16.36-.43.66-.8.9-.09.38-.3.73-.63 1.07-.33.33-.58.7-.72 1.11-.23.03-.32.16-.26.39-.06 0-.11.03-.15.09-.04.06-.04.09.02.09-.14.15-.28.27-.39.37-.12.1-.18.23-.18.37-.14.09-.24.19-.28.31-.04.11-.09.25-.15.39-.5.35-.83.8-1.01 1.35-.06 0-.09.01-.09.05 0 .03-.04.04-.13.04-.06.23-.2.49-.42.76-.22.28-.38.58-.5.9-.15.03-.23.12-.24.26-.01.14-.1.25-.24.31.06.03.07.07.04.13-.03.06-.07.09-.13.09a6.83 6.83 0 0 1-.85 1.44c-.33.43-.63.9-.9 1.4-.06.03-.09.08-.11.15-.02.07-.05.14-.11.2h-.04l.04-.04c-.15.11-.27.28-.37.48-.1.2-.18.42-.24.65-.38.23-.65.57-.83 1.01-.17.44-.39.81-.65 1.13-.15.26-.38.41-.7.44 0 .06-.03.09-.09.09 0 .03.03.06.09.09s.06.07 0 .13c.06.03.05.05-.02.05s-.11.01-.11.04Zm-.3-3.01v.09s.03.05 0 .06-.04.05-.04.11c.06 0 .09-.04.09-.11s-.01-.12-.04-.15Zm1.7-5.85-.11.11c-.04.04-.07.08-.07.11 0-.03.05-.06.15-.09s.11-.07.02-.13Zm1.4-2.48c-.26.35-.5.73-.72 1.13-.22.41-.44.82-.68 1.23.35-.35.62-.73.81-1.14s.39-.81.59-1.22Zm.61-8.12c-.15-.03-.24-.08-.28-.15-.04-.07-.14-.11-.28-.11.06.09.15.15.28.2.13.04.23.06.28.06Zm.57 6.07c-.15.06-.22.14-.22.26.06-.06.11-.1.15-.13.05-.03.07-.07.07-.13Zm2.53-2.89c-.09-.03-.13-.02-.13.02 0 .05-.02.08-.05.11.12 0 .17-.04.17-.13Zm4.45-10.47c0 .06-.03.11-.09.15-.06.04-.05.08.04.11-.03-.06-.01-.11.04-.15s.06-.08 0-.11Z" style="fill:#fb0742"></path><path d="M131.65 116.31s-.05-.04-.06-.04c-.02 0-.04-.01-.07-.05.12.18.28.19.5.05.22-.15.41-.22.59-.22 0 .06-.01.1-.04.11s-.04.04-.04.06c.06.09.11.1.15.05.04-.06.09-.06.15 0 .03.09 0 .15-.07.17-.07.03-.11.01-.11-.04-.06.03-.09.06-.09.11s-.03.07-.09.07c.03.11.03.23 0 .35.11 0 .23-.01.35-.04-.03.12-.04.26-.04.44-.15.09-.26.18-.33.28-.07.1-.18.21-.33.33-.06.03-.09.02-.09-.02s-.03-.06-.09-.06v.17c-.15-.03-.22 0-.24.07-.02.07-.05.15-.11.24.09 0 .15-.02.17-.06.03-.05.09-.1.17-.15 0 .06.03.09.09.11.06.02.09.05.09.11-.09 0-.15.01-.17.04-.03.03-.09.05-.17.05 0 .03 0 .05-.02.06s-.02.05-.02.11c-.09-.03-.13 0-.13.06 0 .07-.01.14-.05.2-.23 0-.41.06-.54.17s-.3.16-.5.13c-.06.11-.15.17-.28.17s-.23.07-.28.22c-.06.03-.1.03-.11 0-.01-.03-.04-.04-.06-.04-.09.15-.21.23-.35.26s-.26.09-.35.17h.04c-.06.17-.15.31-.26.39-.12.09-.22.09-.31 0-.06.12-.14.21-.24.28-.1.07-.18.15-.24.24.06.03.14 0 .24-.09.1-.09.18-.07.24.05-.15.15-.32.26-.53.35-.2.09-.41.16-.61.22 0 .12.01.15.04.11s.05-.04.05.02c-.06.06-.12.1-.17.11-.06.01-.09.1-.09.24-.29-.06-.42.06-.39.35-.06.03-.1 0-.13-.09-.41.32-.85.6-1.33.83-.48.23-.94.49-1.37.78-.32 0-.61.16-.87.48-.44.15-.85.33-1.24.55-.39.22-.78.44-1.16.67 0 .06.01.07.04.04.03-.03.06-.04.09-.04-.32.26-.68.47-1.07.61-.39.15-.75.35-1.07.61-.38.03-.73.12-1.05.26s-.64.25-.96.31c-.06.03-.14.04-.24.02s-.21 0-.33.02c-.23.06-.56.07-.98.05-.42-.03-.78-.07-1.07-.13-.06-.03-.12-.07-.2-.11-.07-.04-.15-.1-.24-.15-.03 0-.06.01-.11.04s-.08.01-.11-.04a.459.459 0 0 1-.17-.17.71.71 0 0 0-.26-.22c-.15-.09-.29-.18-.44-.28-.15-.1-.29-.18-.44-.24 0-.06-.01-.1-.04-.11s-.04-.05-.04-.11c-.09 0-.13-.01-.13-.04-.03-.06-.04-.1-.02-.13.01-.03.02-.06.02-.09-.06-.03-.08-.02-.07.02s0 .05-.02.02a6.21 6.21 0 0 1-.61-1.03 4.23 4.23 0 0 0-.61-.94c-.06-.44-.2-.77-.44-1.01-.03 0-.02.02.02.07.04.04.04.06-.02.06-.29-.44-.43-1.01-.41-1.72s.14-1.36.37-1.94c.09-.12.16-.25.22-.39s.16-.25.31-.31c.32-.81.72-1.5 1.22-2.07.49-.57.97-1.12 1.44-1.64.09-.12.18-.22.28-.31s.21-.2.33-.35c.09-.12.22-.25.39-.39.15-.15.3-.29.46-.44s.33-.29.5-.44c.29-.23.53-.47.72-.72.19-.25.43-.44.72-.59 0-.06 0-.09.02-.09.01 0 .02-.03.02-.09.2-.09.38-.2.54-.33.16-.13.31-.31.46-.54.23.03.4-.05.5-.22.1-.17.22-.31.37-.39.12-.06.23-.1.33-.13s.2-.09.28-.17c.12-.12.22-.2.31-.26.44-.29.87-.56 1.31-.81.44-.25.9-.49 1.4-.72.32-.15.65-.32 1.01-.53.35-.2.72-.36 1.13-.48.09 0 .13-.03.13-.09.06.03.12.02.2-.02.07-.05.14-.08.2-.11.23-.09.47-.17.72-.24.25-.07.49-.14.72-.2.23 0 .5 0 .81.02s.57.1.81.24c.03.09.03.13 0 .13h-.09c.12.09.25.17.39.26.15.09.25.23.31.44a.9.9 0 0 0 .26.17c.09.26.2.41.35.44-.06.03-.07.05-.04.07.03.01.04.04.04.06.12.09.19.18.22.28s.07.22.13.37.13.26.22.35.16.2.22.35c.06.09.09.18.09.28s.03.18.09.24c0 .15-.01.25-.04.31.12.06.18.14.2.24s0 .2-.02.31-.05.21-.06.33c-.02.12 0 .23.06.35 0 .06-.02.11-.06.15-.05.04-.05.11-.02.2-.23.23-.44.5-.61.81-.18.31-.37.58-.57.81-.06.03-.1.06-.11.09s-.05.06-.11.09c-.11.15-.22.28-.33.39-.1.12-.22.23-.37.35-.06.06-.12.1-.2.13-.07.03-.14.1-.2.22-.06.06-.13.12-.22.2-.09.07-.16.14-.22.2-.15.06-.31.12-.5.2-.19.07-.33.18-.42.33-.47.26-.92.54-1.35.83-.44.29-.9.55-1.4.79-.15.06-.28.09-.39.11-.11.01-.22.08-.31.2-.15 0-.27.05-.39.15-.12.1-.26.17-.44.2-.09 0-.15.04-.17.13l-.13-.05a3.2 3.2 0 0 1-.9.46c-.31.1-.62.2-.94.28-.12.03-.17.02-.17-.04-.15.03-.26.07-.33.13s-.18.07-.33.04c-.06.06-.11.1-.17.13-.23 0-.45.03-.65.09s-.42.06-.65 0c-.06 0-.09.01-.09.04s-.03.06-.09.09c-.15-.06-.29-.09-.43-.09s-.25-.07-.31-.22c-.06 0-.12.01-.18.02s-.13 0-.22-.07c-.23.23-.47.48-.7.74-.23.26-.44.57-.61.92-.03 0-.04 0-.04-.02s-.01-.02-.04-.02c-.03.12-.08.2-.15.24-.07.05-.11.17-.11.37-.17.09-.28.25-.31.48-.03.23-.12.42-.26.57.32 0 .66-.04 1.03-.13s.71-.15 1.03-.17c.06-.03.09-.07.09-.11s.03-.08.09-.11c.2.03.36 0 .48-.06s.26-.11.44-.11c.03 0 .07-.06.13-.17.15.03.32 0 .52-.09.21-.09.38-.17.53-.26.32 0 .63-.08.94-.24s.62-.27.94-.33c.15-.17.34-.26.59-.26s.42-.1.5-.31c.23-.06.45-.11.66-.15.2-.04.4-.14.61-.28.03 0 .04.02.04.05s.03.03.09 0v-.09c.17-.12.38-.19.61-.22.23-.03.42-.15.56-.35.41 0 .77-.1 1.09-.31h.04s.04 0 .04.02.01.02.04.02.05-.01.07-.05c.01-.03.05-.06.11-.09.4-.12.81-.27 1.22-.46.4-.19.86-.42 1.35-.68.06.06.11.07.17.02.06-.04.13-.04.22.02.23-.15.47-.23.7-.26.23-.03.48-.09.74-.17.17-.06.35-.13.52-.22.17-.09.36-.13.57-.13.23 0 .45-.07.65-.22s.42-.25.66-.31c.11 0 .24 0 .37-.02s.24-.02.33-.02c0 .09-.04.13-.11.13s-.11.05-.11.13a.386.386 0 0 0-.44.11c-.12.13-.26.17-.44.11-.03.06-.06.09-.09.09s-.04.03-.04.09Zm-11.52-1.75c.09-.14.2-.17.35-.06s.26.1.35-.02c-.03.12-.03.17 0 .17s.06-.02.11-.06l.13-.13s.08-.07.11-.07c.03-.03.06-.04.11-.02.04.01.08.02.11.02.18.03.31-.06.39-.26.09-.21.2-.29.35-.26.12-.15.24-.22.37-.22s.24-.09.33-.26c.17 0 .39-.06.65-.18.26-.11.6-.35 1.01-.7.06-.12.17-.33.35-.65s.31-.51.39-.57c-.06-.06-.14-.07-.24-.04-.1.03-.2.07-.31.13-.1.06-.2.11-.31.15-.1.05-.17.05-.2.02-.06.06-.19.17-.39.33s-.33.24-.39.24c-.21.03-.37.14-.5.33s-.28.26-.46.2c-.06.12-.13.22-.22.31s-.19.1-.31.04l-.17.17c-.06.06-.15.09-.26.09-.03 0-.04.02-.02.06s0 .07-.02.07c-.09-.03-.15 0-.2.06-.04.07-.09.11-.15.11 0-.03-.01-.04-.04-.04v.09c-.17.15-.36.27-.55.37-.19.1-.36.27-.5.5h-.09v.13c.06 0 .09-.01.11-.05.01-.03.05-.03.11 0Z" style="fill:#fb0742"></path><path d="M132.39 115.41c.17-.16.29-.4.35-.72h.13c.03-.09 0-.11-.09-.09-.09.03-.12 0-.09-.09.32-.38.69-.73 1.09-1.05.41-.32.76-.71 1.05-1.18.06-.03.09-.02.09.02s.01.04.04-.02c.17-.2.37-.37.59-.5s.4-.36.55-.67h.26c.21-.23.42-.41.66-.53.23-.11.44-.26.61-.44.32-.03.59-.16.81-.39.22-.23.52-.35.9-.35.06.03.09.02.09-.02s.01-.08.04-.11c.32-.06.7-.11 1.13-.15.44-.05.89-.12 1.35-.24h.15s.07.01.15.04h.74c.23 0 .47.06.72.17.25.12.47.18.67.18.06 0 .1-.02.11-.07s.04-.06.06-.06c.26.06.5.2.7.44.2.23.44.33.7.31.23-.58.46-1.16.67-1.73.22-.57.49-1.07.81-1.51h.17c.06-.09.11-.16.15-.22.04-.06.08-.13.11-.22.23-.06.46-.22.68-.48.22-.26.47-.36.76-.31 0 .06-.02.09-.07.09-.04 0-.08.03-.11.09.11.12.25.13.39.05.12.06.26.14.42.24.16.1.33.1.5-.02 0 .09.01.15.05.2.03.05.07.1.13.15.14-.09.27-.06.39.09s.26.13.44-.04c.12.12.22.23.33.35s.23.19.37.22c.17.44.38.85.61 1.25.23.39.39.86.48 1.42.03.2.02.39-.02.55-.05.16-.05.34-.02.54 0 .09-.02.15-.05.17l-.09.09c.06.17.04.36-.05.55-.09.19-.13.4-.13.63-.15.32-.28.67-.39 1.07-.12.39-.22.81-.31 1.24 0 .06-.04.09-.13.09-.17.84-.39 1.68-.63 2.51-.25.83-.52 1.64-.81 2.42-.03.06-.07.15-.11.26s-.07.2-.07.26c-.03.09-.04.17-.02.26.01.09 0 .15-.02.17-.06.18-.14.34-.24.5-.1.16-.14.37-.11.63-.29.81-.53 1.66-.7 2.53-.17.87-.38 1.76-.61 2.66-.12.29-.25.58-.39.85a8.5 8.5 0 0 0-.39.81c-.23.09-.39.22-.48.42-.09.19-.25.33-.48.42.06-.15.02-.22-.11-.22s-.26-.02-.37-.05c.21 0 .28-.13.22-.39a.887.887 0 0 1-.24-.46c-.04-.19-.14-.21-.28-.06-.06.03-.09.02-.11-.02a.298.298 0 0 0-.07-.11c-.06.03-.06.06-.02.11.04.04.04.09-.02.15-.2-.09-.39-.28-.57-.57s-.39-.42-.65-.39c-.03 0-.04-.03-.02-.09.01-.06 0-.09-.02-.09-.06.06-.07.09-.02.09.04 0 .04.03-.02.09-.09.06-.14.02-.15-.11s-.04-.26-.06-.37c-.06-.06-.09-.06-.09 0s-.01.06-.04 0c-.15-.84-.28-1.68-.42-2.51-.13-.83-.17-1.73-.11-2.69-.06-.09-.1-.1-.13-.04-.03.06-.07.13-.13.22-.21.2-.48.41-.83.61-.35.21-.63.42-.83.65-.06.09-.14.19-.24.31-.1.12-.22.21-.37.26-.03.06-.04.11-.04.15s-.02.08-.05.11c-.84.44-1.63.96-2.35 1.57-.73.61-1.56 1.08-2.49 1.4-.03.06-.05.12-.06.18-.01.06-.04.13-.07.22-.23-.03-.5 0-.81.07-.31.07-.58.13-.81.2.06.06.16.09.31.09.03.23-.03.35-.17.35s-.25.07-.31.22c-.21-.09-.38-.15-.53-.17a2.5 2.5 0 0 0-.57-.63c-.2-.16-.4-.31-.61-.44-.2-.13-.41-.26-.63-.39-.22-.13-.43-.3-.63-.5v-.22c-.03-.06-.09-.06-.17 0-.38-.61-.72-1.32-1.03-2.14-.31-.81-.5-1.69-.59-2.62-.03-.11-.03-.18 0-.2s.06-.04.09-.07c-.06-.43-.07-.81-.02-1.11.04-.31.12-.63.24-.98.03-.09.08-.18.15-.26.07-.09.14-.17.2-.26.03-.15.09-.28.17-.39.06-.15.11-.23.15-.26.04-.03.09-.06.15-.09.17-.23.33-.47.48-.72.15-.25.31-.44.48-.59h.17c.12-.21.26-.39.44-.55Zm2.31 6.4c-.06.03-.11.07-.15.13-.04.06-.04.09.02.09 0-.06.03-.08.09-.07s.07-.04.04-.15Zm.57-.48c.09.06.15.07.17.04.12-.09.24-.17.37-.24.13-.07.3-.14.5-.2.15-.23.33-.4.57-.5.23-.1.44-.24.61-.42.52-.26 1.02-.54 1.48-.83.47-.29.92-.58 1.37-.87s.9-.57 1.35-.83c.45-.26.92-.49 1.42-.7.09-.2.21-.34.37-.42.16-.07.36-.17.59-.28.09-.49.18-.97.28-1.44s.18-.92.24-1.35c-.17.06-.33.13-.48.22-.15.09-.29.19-.44.31-.03 0-.04.02-.02.06.01.04 0 .08-.02.11-.35.09-.67.28-.98.56-.31.29-.62.48-.94.57-.17.15-.34.29-.5.44s-.36.26-.59.35c-.15.21-.29.38-.44.53s-.34.25-.57.31c-.76.61-1.47 1.29-2.14 2.05-.67.76-1.35 1.46-2.05 2.1-.06.17-.15.31-.28.39-.13.09-.24.2-.33.35.12-.06.2-.09.26-.11.06-.01.12-.08.17-.2ZM151.55 125.35s-.06 0-.09-.09-.05-.2-.05-.33v-.39c0-.13.02-.24.05-.33.06-.2.14-.35.24-.44.1-.09.18-.19.24-.31.03-.09.06-.2.09-.35.03-.15.02-.22-.04-.22.15-.23.28-.49.39-.78s.22-.48.31-.57c.29-.61.58-1.36.85-2.24.28-.89.56-1.62.85-2.21.23-.47.45-.94.65-1.42.21-.48.38-.98.53-1.51.15-.06.25-.26.31-.61s.2-.61.44-.78c.32-1.11.68-2.15 1.09-3.12.41-.97.73-1.99.96-3.03.15 0 .25.04.31.13 0-.17.08-.28.24-.31s.28-.01.37.04c.12.12.1.17-.04.17 0 .06.04.08.11.07.07-.01.09.04.06.15.06-.03.12-.05.17-.07.06-.01.09-.06.09-.15.09.15.19.21.31.17.12-.03.2.05.26.22.06-.03.06-.05.02-.07-.05-.01-.05-.05-.02-.11.17.06.36.16.54.31s.4.25.63.31c.21.32.33.63.39.94.06.31.19.58.39.81-.06.29-.12.59-.2.9-.07.31-.15.62-.24.94.03.12.06.1.11-.04.05-.15.08-.16.11-.04.17-.23.39-.43.65-.59.26-.16.54-.36.83-.59-.06-.12.01-.23.22-.35.21-.12.33-.23.39-.35.17-.23.35-.5.52-.81.18-.31.35-.58.53-.81l.39-.39c.12-.11.22-.23.31-.35.14-.12.27-.26.37-.42s.22-.24.37-.24c-.06-.15 0-.28.15-.39s.3-.22.42-.31c.03.09.03.14 0 .15s-.04.08-.04.2c.03.06.08.05.15-.02s.11-.14.11-.2c.09.12.17.17.26.17s.12.12.09.35c.12.03.2.01.26-.04.06-.06.04-.03-.05.09.06 0 .12-.03.2-.09.07-.06.11-.01.11.13.06-.03.1-.03.13 0s.07.01.13-.04c.06.23.17.36.35.39.18.03.26.12.26.26.15-.03.23-.05.26-.07.03-.01.07.01.13.07-.03.12.01.22.13.33.11.1.09.14-.09.11.06.06.1.09.13.11.03.02.01.05-.04.11.03-.06.07-.08.13-.06.06.01.1 0 .13-.07.03.06.08.1.15.11.07.01.12.05.15.11-.06.29.06.47.35.52 0 .09-.05.17-.13.24-.09.07-.09.15 0 .24.03-.03.05-.06.06-.11.01-.05.04-.08.07-.11.03 0 .04.12.02.37-.01.25-.07.44-.15.59.06 0 .09.05.11.15.01.1 0 .18-.06.24.06 0 .1-.01.13-.04 0 .15-.1.4-.28.76-.19.36-.31.67-.37.94-.12.12-.23.3-.35.54-.12.25-.16.44-.13.59-.03 0-.04-.01-.04-.04-.17.35-.32.74-.44 1.16-.12.42-.29.79-.52 1.11-.03.03-.05-.01-.05-.13-.09.03-.11.1-.06.2.04.1.08.15.11.15-.06.06-.08.15-.07.28s-.04.17-.15.11c.09.15.09.26 0 .33s-.1.17-.04.28c-.06-.06-.11-.06-.15 0-.04.06-.08.07-.11.04-.17.32-.23.71-.17 1.18-.12-.06-.19-.06-.22 0s-.09.06-.17 0c.06.12.06.18 0 .2a.23.23 0 0 1-.18-.02c0 .03.01.05.05.05.03.09 0 .1-.07.04-.07-.06-.12-.04-.15.04v-.13c-.2.09-.39.07-.56-.06-.18-.13-.28-.12-.31.02-.06-.12-.09-.31-.09-.57-.15.17-.24.21-.28.09s-.14-.15-.28-.09c-.06-.11-.12-.21-.17-.28-.06-.07-.12-.13-.17-.2 0 .09-.04.13-.13.13-.09-.29-.18-.47-.28-.53-.1-.06-.22-.25-.37-.56-.29.2-.55.44-.78.72-.23.28-.51.52-.83.72v-.09c-.06.03-.06.06 0 .11s.06.11 0 .2c-.06 0-.12.04-.17.13-.06.09-.12.17-.17.24-.06.07-.12.13-.2.17-.07.05-.14.04-.2-.02-.03.03-.01.07.04.13-.26.32-.52.66-.78 1.03-.26.36-.51.65-.74.85-.06 0-.07 0-.04.02.03.01.04.05.04.11-.32.41-.65.92-1 1.55s-.64 1.14-.87 1.55c-.03 0-.07.08-.13.24s-.12.27-.17.33c-.06.03-.07.03-.04 0 .03-.03.01.03-.05.18-.09.15-.21.33-.37.56a4.2 4.2 0 0 1-.46.57c-.15.17-.29.33-.44.46s-.29.28-.44.46l-.28.65c-.1.23-.24.45-.41.66-.09.15-.22.35-.39.61s-.23.54-.17.83c-.23-.03-.5-.06-.78-.09-.29-.03-.54 0-.74.09-.03-.06-.06-.15-.09-.28-.03-.13-.07-.27-.13-.41-.06.03-.1.07-.13.13s-.07.07-.13.04c0-.15-.06-.22-.18-.22s-.13-.06-.04-.17c-.15.03-.25-.02-.31-.15s-.13-.17-.22-.11c-.06-.15-.1-.25-.11-.31-.01-.06-.02-.15-.02-.26-.09-.06-.15-.07-.17-.05-.03.03-.1.05-.22.05 0-.23-.04-.37-.11-.39-.07-.03-.13-.1-.2-.22v.17c-.11-.06-.19-.16-.22-.31s0-.26.09-.35ZM181.01 103.17c.06.06.1.05.13-.02s.09-.09.17-.06c0 .03-.01.07-.04.13.06 0 .1-.01.13-.05.03-.03.07-.06.13-.09.06.06.06.1 0 .13s-.06.07 0 .13c0 .06-.04.09-.11.09s-.08.03-.02.09c.06.03.11 0 .17-.09.06-.09.12-.12.17-.09 0 .12-.01.21-.04.26.17-.06.29-.16.35-.31s.16-.22.31-.22c.03.06.06.11.09.15.03.04.07.09.13.15.03-.03.08-.05.15-.05s.15-.01.24-.04c.12.06.2.04.24-.04.04-.09.11-.13.2-.13.06.03.04.12-.04.26.06.03.11.02.15-.02.04-.05.08-.1.11-.15.09.15.22.27.39.37s.33.23.48.37c.03 0 .04-.02.02-.06s0-.06.07-.06c.06.23.11.36.17.39.09.32.19.58.31.78.12.21.17.44.17.7-.03.12-.05.23-.06.35-.02.12-.04.21-.07.26-.09.35-.16.67-.22.96-.06.29-.04.57.04.83.12.38.16.77.13 1.18-.06 0-.09 0-.09.02s-.01.02-.04.02c0 .38-.06.73-.2 1.05s-.27.64-.42.96c-.15.38-.26.75-.33 1.11-.07.37-.2.72-.37 1.07 0 .06 0 .09-.02.09s0 .03.02.09c-.09.06-.13.15-.13.28s-.05.22-.13.28c-.06 0-.12-.03-.17-.09-.23.06-.41.19-.53.39-.12.21-.29.34-.52.39.03-.09.02-.11-.02-.06-.05.04-.07.04-.07-.02-.06-.03-.09-.02-.09.02s-.01.06-.04.06c-.12 0-.17-.06-.17-.17-.06.06-.09.06-.09.02s-.03-.04-.09.02c-.06.03-.08.01-.07-.04.02-.06 0-.1-.06-.13-.15.06-.27.03-.37-.09a.496.496 0 0 0-.37-.17.718.718 0 0 0-.48-.26.655.655 0 0 1-.48-.31c-.06-.15-.12-.26-.2-.33-.07-.07-.14-.15-.2-.24-.03-.23-.09-.38-.17-.44s-.13-.17-.13-.35c-.15-.09-.24-.18-.28-.28-.04-.1-.09-.23-.15-.37.06-.09.07-.2.05-.35-.03-.15-.07-.25-.13-.31.09-.17.11-.35.09-.53-.2.06-.4.12-.59.2-.19.07-.4.14-.63.2-.44.32-.87.61-1.31.87-.44.26-.82.6-1.14 1-.03 0-.04 0-.04-.02 0-.01-.01-.02-.04-.02-.29.32-.56.63-.81.94-.25.31-.52.59-.81.85.03.09.03.15 0 .17.49.38 1.24.61 2.23.7.06.03.12.04.2.02.07-.01.15-.02.24-.02.12.03.27.06.46.11s.39.07.59.07c.29.03.59.05.9.06.31.02.6.05.9.11.32.06.66.11 1.03.15.36.04.72.1 1.07.15.06 0 .1-.02.13-.06.03-.05.06-.07.09-.07l.18.09c.06.03.11.04.17.04.15.06.31.07.48.04.17-.03.33-.07.48-.13.49-.06.81.03.96.26.21-.03.41-.03.61 0l.61.09c.06.03.12.03.2 0 .07-.03.14-.03.2 0 .09.03.16.08.22.15.06.07.14.12.26.15.03.03.06.04.09.02s.04 0 .04.02c.23.12.43.22.59.31.16.09.31.19.46.31.06.17.15.28.26.33.11.05.19.12.22.24 0 .03 0 .02.02-.02.01-.05.04-.04.07.02-.12.26-.1.61.04 1.05.03.06.07.12.13.17v.17c0 .09.03.15.09.17-.03.23-.08.44-.15.61-.07.17-.13.37-.2.57-.09 0-.16.01-.22.04a.6.6 0 0 1-.26.05c-.2.26-.45.45-.74.56-.29.12-.55.29-.78.53-.35.12-.58.2-.7.26-.78.26-1.56.54-2.33.83s-1.58.54-2.42.74c-.06 0-.08.03-.06.09.01.06-.01.09-.07.09-.09 0-.13-.03-.13-.09a5.1 5.1 0 0 1-1.29.48c-.42.09-.87.22-1.33.39-.03 0-.04.03-.04.09-.99.26-1.95.6-2.88 1-.32.12-.6.23-.85.35s-.53.17-.85.17c0 .03 0 .05-.02.06-.01.02-.02.05-.02.11-.15 0-.25-.01-.31-.04-.32.06-.62.12-.9.2s-.53.15-.76.24c-.09.03-.17.06-.26.11s-.17.1-.26.15c-.23.06-.46.08-.68.07a.818.818 0 0 0-.59.2c-.32-.03-.64 0-.96.07-.32.07-.68.09-1.09.06 0-.15.03-.24.09-.28.06-.04.09-.1.09-.15.06.06.13.08.22.07.09-.02.15-.05.18-.11.06-.06.07-.11.04-.15a.282.282 0 0 1-.04-.15c-.09 0-.19 0-.31.02-.12.01-.21.05-.26.11-.06.03-.12.08-.17.15-.06.07-.13.09-.22.06 0-.06.02-.12.07-.2.04-.07.09-.14.15-.2h-.05v-.09c-.06.03-.1.03-.13 0s-.06-.01-.09.04c-.06-.03-.07-.06-.04-.11.03-.04.03-.08 0-.11-.09.03-.12.06-.09.11s.04.1.04.15c-.15.06-.23.05-.26-.02s-.07-.08-.13-.02c-.06-.12-.04-.22.06-.33.1-.1.11-.21.02-.33-.06.03-.11.06-.15.09-.04.03-.09.03-.15 0a.676.676 0 0 1 .02-.37c.05-.13.04-.26-.02-.37.06-.06.12-.12.17-.2.06-.07.12-.11.18-.11-.03-.21.02-.34.15-.39s.18-.16.15-.31c.15-.06.25-.11.33-.15.07-.04.18-.05.33-.02.44-.23.84-.39 1.22-.48.38-.09.77-.23 1.18-.44-.03-.09-.06-.1-.09-.05-.03.06-.06.07-.09.05.47-.32.99-.58 1.57-.78.58-.21 1.09-.47 1.53-.79.06.03.1.03.11 0 .01-.03.04-.01.06.05.26-.15.55-.26.85-.35.31-.09.54-.25.72-.48.06 0 .12-.02.2-.06.07-.05.14-.07.2-.07.38-.26.79-.49 1.24-.7.45-.21.88-.44 1.29-.7-.06-.06-.12-.09-.17-.09-.03 0-.06 0-.09.02s-.06.02-.09.02a.811.811 0 0 0-.42-.07c-.16.02-.31.02-.46.02-.15-.03-.3-.07-.46-.11s-.31-.1-.46-.15a.908.908 0 0 0-.42-.07c-.13.02-.27 0-.42-.06-.15-.12-.32-.19-.52-.22-.21-.03-.38-.07-.53-.13-.2-.35-.47-.58-.81-.7s-.58-.35-.72-.7c-.44-.14-.7-.39-.81-.74-.1-.35-.26-.69-.46-1.01-.06 0-.07.04-.04.11.03.07.01.12-.05.15-.11-.23-.15-.54-.09-.92s.1-.69.13-.92c.06-.15.09-.28.09-.42s.06-.26.17-.37c-.15-.15-.25-.23-.31-.26-.03-.15-.01-.25.05-.31.06-.06.15-.13.26-.22.15-.2.25-.47.31-.78.21-.15.37-.33.48-.55.11-.22.25-.41.39-.59 0 .03.01.05.04.05.29-.23.59-.48.9-.74s.6-.53.9-.78c.21-.06.39-.17.57-.35.32-.23.61-.49.87-.76s.55-.5.87-.67c.03-.06.08-.1.15-.11.07-.01.11-.08.11-.2.29-.06.56-.19.81-.39s.56-.35.94-.44c.03 0 .09-.07.17-.22.41-.06.81-.2 1.2-.42.39-.22.79-.25 1.2-.11a.78.78 0 0 0 .02-.33c-.01-.07-.02-.2-.02-.37.06-.06.11-.06.17 0 .12-.17.26-.33.42-.46s.28-.33.37-.59c.12 0 .19-.04.22-.13s.09-.16.17-.22l-.09.09Zm-15.27 22.57c.03-.09.02-.13-.04-.13s-.09.03-.09.09c.03.03.07.04.13.04Zm3.31-2.66c-.12 0-.17.06-.17.17.12 0 .17-.06.17-.17ZM199.26 126.26c-.03.06-.01.15.04.26-.17 0-.28.05-.31.13-.03.09-.06.15-.09.17-.03.17-.09.35-.18.53-.09.17-.17.29-.24.35-.07.06-.12.03-.15-.09s0-.35.09-.7c-.06-.06-.1-.07-.13-.02-.03.04-.05.05-.05.02.09.12.05.2-.13.26.03.4 0 .67-.06.78-.07.11-.15.14-.22.06-.07-.07-.12-.21-.15-.41-.03-.21.01-.42.13-.66-.06 0-.08 0-.06.02s0 .04-.02.07c-.03 0-.06-.01-.09-.05-.03-.03-.01-.07.05-.13-.09.15-.25.32-.48.52-.23.2-.32.33-.26.39 0 .06-.04.08-.11.06a.356.356 0 0 1-.15-.06c0 .35-.01.53-.04.54s-.07-.02-.11-.11c-.04-.09-.1-.16-.15-.22s-.1 0-.13.17a.397.397 0 0 1-.11-.2c-.01-.07-.08-.11-.2-.11.15.06.13.17-.04.35.06-.32.05-.54-.02-.66s.02-.26.28-.44c-.06-.06-.08-.13-.06-.22.01-.09.04-.16.06-.22 0-.17.03-.33.09-.48.06-.15.1-.31.13-.48 0-.29.09-.61.26-.96.03-.29.08-.58.15-.85.07-.28.17-.53.28-.76-.15-.09-.1-.16.13-.22-.09-.06-.11-.11-.06-.15.04-.05.02-.07-.06-.07.17-.11.25-.25.22-.39.06 0 .09-.03.09-.09s-.03-.12-.09-.17c.26-.09.29-.23.09-.44.17-.06.25-.15.24-.26-.01-.11 0-.2.07-.26.06-.18.13-.39.24-.66.1-.26.15-.51.15-.74.06-.06.08-.11.07-.15-.02-.04 0-.11.06-.2-.06-.2 0-.42.17-.63.17-.22.2-.4.09-.55.09-.09.17-.15.26-.17-.17-.06-.21-.11-.11-.17.1-.06.15-.13.15-.22 0-.06 0-.12-.02-.18s0-.11.02-.17c.06-.06.11-.12.17-.2.06-.07.07-.14.04-.2.06-.03.1-.06.11-.09s.04-.04.06-.04c-.06-.15-.04-.28.07-.39.1-.11.12-.22.06-.31.03-.09.07-.16.13-.22s.07-.12.04-.17l-.13-.09s.03-.05.09-.06.12-.04.17-.07c.03-.06.03-.12 0-.2s-.03-.17 0-.28c.06-.2.13-.33.22-.39 0-.06-.03-.09-.09-.09.15-.17.24-.4.28-.68.04-.27.14-.53.28-.76-.12-.11-.11-.23.02-.35s.2-.25.2-.39c.06-.06.1-.11.11-.15.01-.04.04-.08.06-.11.09-.17.17-.34.24-.5.07-.16.14-.31.2-.46.06-.06.06-.07 0-.04-.06.03-.09.01-.09-.04.23-.12.38-.24.44-.37s.15-.22.26-.28c.18-.03.3-.08.37-.15s.17-.13.28-.2c.32-.09.63-.14.94-.15s.56-.09.76-.24c.64-.06 1.16-.12 1.55-.18.39-.06.9-.09 1.51-.09.09 0 .15.03.17.09.12-.03.23-.04.35-.04.11.03.21.08.28.15.07.07.15.1.24.07.17.2.25.4.22.59-.03.19-.09.39-.17.59-.12.32-.24.65-.37.98s-.33.66-.59.98c-.06.17-.11.35-.15.53s-.18.35-.42.52c.06.03.08.05.07.05-.02 0 .02.03.11.09-.23.32-.4.68-.52 1.07s-.32.75-.61 1.07v.13c-.17.29-.33.65-.48 1.07s-.3.85-.46 1.29-.32.86-.48 1.26-.34.76-.54 1.05c.03.06.02.1-.02.13-.05.03-.04.09.02.17-.41.64-.81 1.26-1.2 1.88s-.65 1.25-.76 1.92c-.15.06-.24.13-.28.22-.04.09-.17.16-.37.22a.515.515 0 0 0-.13-.17c-.38.06-.57.2-.57.41s-.03.42-.09.59c-.09 0-.11.03-.09.09s0 .06-.09 0c.12.09.16.17.13.24-.03.07-.08.13-.15.18-.07.04-.14.08-.2.11s-.06.07 0 .13c-.09.06-.15.03-.17-.09-.03-.12-.09-.16-.17-.13.03-.03.04-.07.02-.11-.02-.04 0-.06.06-.06a.351.351 0 0 1-.2-.18c-.04-.09-.14-.13-.28-.13Zm-.7.31c-.06 0-.11.03-.17.09-.06.06-.01.09.13.09.03-.03.04-.09.04-.17Zm.74-.53c-.06 0-.07.01-.04.04.03.03.03.06 0 .09.15 0 .16-.04.04-.13Zm.26.09s-.01-.05-.04-.05l-.17.18.26-.09s-.04-.01-.04-.04Zm4.76-22.91c-.03-.06-.07-.09-.13-.09s-.06-.03 0-.09c.09-.03.19-.04.31-.02.11.01.2 0 .26-.06.15 0 .23-.04.26-.11s.07-.14.13-.2c.11 0 .23-.03.35-.09.12-.11.29-.22.53-.31.23-.09.47-.11.72-.06.25.04.55.06.9.06.15.06.28.1.39.11.11.01.29.04.52.06.09.12.23.2.42.24s.34.14.46.28h.09l.09-.09c0 .09.01.16.04.22.26.12.46.3.59.54.13.25.31.43.55.55.03.26.06.55.11.87.04.32-.17.6-.63.83-.09.03-.15.09-.18.17-.4.03-.68.1-.83.22-.73 0-1.02.17-.87.52-.15.09-.26.19-.33.31s-.14.25-.2.39c-.15.03-.28.08-.39.15-.12.07-.29.14-.52.2-.06 0-.08-.01-.07-.04s-.02-.06-.11-.09c-.72.15-1.43.21-2.11.17-.69-.03-1.25-.13-1.68-.31l-.13-.13c-.06-.06-.12-.07-.18-.04-.06.03-.11.01-.17-.04 0-.09-.04-.18-.11-.28-.07-.1-.1-.2-.07-.28 0-.09.01-.16.04-.22s.05-.13.05-.22c-.06-.15-.05-.36.04-.63s.19-.49.31-.63c.03-.03.06-.09.09-.17.03-.09.07-.16.13-.22.18-.26.36-.51.55-.74.19-.23.39-.47.59-.7.03 0 .06 0 .09-.02.03-.01.07-.02.13-.02ZM205.98 122.29c.23-.78.47-1.56.7-2.31s.45-1.56.65-2.4c.09-.17.15-.38.2-.63.04-.25.13-.44.28-.59 0-.09 0-.17.02-.24.01-.07 0-.15-.02-.24.23-.23.4-.53.5-.9.1-.36.2-.75.28-1.15.2-.26.36-.58.46-.94.1-.36.21-.73.33-1.11.15-.23.25-.47.31-.72s.15-.5.26-.76c.03-.06.05-.15.06-.26.01-.11.05-.2.11-.26.15-.32.32-.62.52-.9s.31-.62.31-1.03c.12-.03.19-.12.22-.26.03-.15.07-.25.13-.31-.03-.03-.05-.06-.05-.09s0-.06-.02-.09 0-.07.02-.13c.12.06.23.1.33.13s.23-.01.37-.13c.03.12.11.17.26.17a2.6 2.6 0 0 1 1 .02c.35.07.61.25.78.54.06 0 .09-.03.09-.09.06.03.08.07.06.13-.01.06 0 .1.02.13 0 .15.05.26.15.35.1.09.18.22.24.39.03.17.06.4.09.68s.07.54.13.81c0 .06.03.12.09.17.03.12.03.26 0 .44s-.01.29.04.35c0 .23-.03.51-.09.83-.06.32-.03.54.09.65-.11.29-.21.55-.28.76-.07.22-.14.46-.2.72.23-.15.43-.36.59-.63s.36-.53.59-.76c.06-.06.15-.14.28-.24.13-.1.22-.22.28-.37.17-.17.33-.37.48-.59.15-.22.29-.4.44-.55.03-.06.06-.09.11-.09.04 0 .06-.01.06-.05.26-.26.49-.58.67-.96.19-.38.44-.64.76-.78l.09-.09c.03-.03.03-.09 0-.17.2-.09.39-.22.55-.39.16-.18.32-.37.48-.57s.32-.39.48-.55.36-.27.59-.33c.17-.06.33-.09.46-.09s.3-.03.5-.09c.2.15.42.2.66.15.23-.04.42.05.56.28.06.06.1.05.11-.02.01-.07.05-.08.11-.02.17.09.33.21.48.35s.32.29.52.44c.09-.06.23-.06.44 0 .15.32.33.57.57.76.23.19.39.49.48.9.06.06.1.14.11.24.01.1.05.17.11.2.03.06.02.09-.02.09s-.06.03-.06.09c.15.4.2.79.17 1.15-.03.37-.1.75-.22 1.16l.13.13c.03.03.04.09.04.17-.03.03-.1.04-.22.04-.06.58-.16 1.07-.31 1.46-.15.39-.25.87-.31 1.42-.06.06-.1.16-.13.31a.95.95 0 0 1-.13.35c-.03.06-.03.09 0 .09s.04.04.04.13c-.12.15-.19.38-.22.7-.03.32-.1.6-.22.83-.09.61-.22 1.21-.42 1.81-.19.6-.36 1.2-.5 1.81v.52c0 .18-.03.35-.09.53-.03.15-.07.27-.13.37-.06.1-.1.23-.13.37-.06.15-.09.26-.09.33s-.01.13-.04.17-.07.1-.11.17c-.04.07-.11.18-.2.33.03.09.04.15.02.2-.01.04-.02.11-.02.2-.09 0-.15-.06-.17-.17-.06.06-.07.16-.05.31s.05.25.05.31c-.09.15-.16.15-.22.02s-.15-.15-.26-.06c-.09.06-.15.17-.18.33s-.09.24-.17.24c0 .35-.06.63-.2.85-.13.22-.21.53-.24.94-.17.03-.41 0-.72-.11-.31-.1-.55-.08-.72.07-.23-.58-.43-1.08-.59-1.51s-.28-1.01-.37-1.77c-.03-.29-.02-.63.02-1 .04-.38.1-.76.17-1.16.07-.39.13-.78.17-1.18.04-.39.06-.76.06-1.11-.09-.38-.13-.8-.13-1.27s-.05-.93-.13-1.4c-.09 0-.23 0-.42.02-.19.02-.3.05-.33.11-.17.21-.34.39-.5.55s-.31.34-.46.54c-.06.12-.11.17-.17.17-.09.09-.17.18-.26.26s-.18.15-.26.17c-.35.5-.68.94-.98 1.33-.31.39-.66.79-1.07 1.2-.17.09-.33.23-.48.42s-.29.41-.44.65c-.15.25-.28.49-.42.72-.13.23-.28.41-.46.52-.11.09-.23.18-.35.28-.12.1-.2.24-.26.42-.06 0-.09.01-.11.04-.02.03-.05.01-.11-.04-.17.32-.49.64-.94.96-.45.32-.78.64-.98.96-.09 0-.16-.02-.22-.05-.06.03-.12.16-.17.39-.06.23-.12.38-.17.44-.15-.12-.24-.12-.28-.02-.05.1-.14.12-.28.06a.613.613 0 0 0-.48.02c-.15.07-.29.08-.44.02-.15.03-.24.1-.28.2-.04.1-.07.22-.07.37-.15.03-.28.07-.41.13-.13.06-.23.19-.28.39-.21 0-.33-.16-.39-.48.12.18.17.16.17-.04 0-.06-.03-.12-.09-.17-.15.06-.2.2-.15.42.04.22 0 .37-.15.46-.06-.12-.09-.29-.09-.53-.15.03-.31.13-.48.31-.17 0-.28-.05-.33-.15s-.12-.15-.24-.15c-.06-.12-.09-.27-.09-.46s0-.39.02-.61c.01-.22.02-.44.02-.65s-.01-.42-.04-.59c.09-.55.17-1.17.26-1.85.09-.69.2-1.28.35-1.77.03.03.06.04.09.04ZM251.55 104.61c.03.09.02.14-.02.15s-.08.05-.11.11c.47.44.86.85 1.18 1.23.12.32.2.65.26.98.06.33.17.65.35.94-.03.35-.06.65-.09.9s0 .52.09.81c-.06.38-.15.76-.26 1.14-.12.38-.15.74-.09 1.09-.17.03-.26.15-.24.37.01.22 0 .4-.06.54.29-.06.52-.2.7-.44.17-.23.36-.44.56-.61.15-.23.33-.44.57-.61a26.65 26.65 0 0 1 1.31-1.56l.46-.46c.16-.16.27-.36.33-.59.52-.49.98-1.03 1.37-1.62.39-.58.88-1.08 1.46-1.48.14-.35.34-.66.59-.92.25-.26.52-.51.81-.74.09-.38.25-.68.5-.9.25-.22.49-.44.72-.68.29-.67.7-1.21 1.22-1.61a6.6 6.6 0 0 0 1.35-1.44c.2-.06.35-.16.44-.31.09-.15.22-.23.39-.26.03-.15.1-.3.2-.46.1-.16.25-.27.46-.33.06-.17.15-.31.28-.42.13-.1.22-.22.28-.37.06 0 .1-.02.11-.07.01-.04.07-.05.15-.02.32-.49.71-.87 1.18-1.13s.86-.6 1.18-1.01c.23-.11.48-.19.74-.22s.47-.07.61-.13c.4 0 .77-.07 1.09-.22.29.09.59.18.9.26.31.09.57.19.81.31.09.09.17.18.26.28.09.1.2.18.35.24.06.23.15.36.26.37.11.01.22.1.31.24.2.32.28.68.24 1.09-.04.41.05.74.28 1.01-.15.29-.23.61-.26.96s-.07.67-.13.96c-.15.23-.29.5-.44.78-.15.29-.21.6-.17.92-.44.87-.87 1.76-1.29 2.66s-.82 1.82-1.2 2.75c-.15.23-.3.47-.46.7-.16.23-.27.49-.33.78h-.13c-.06.41-.2.75-.42 1.03-.22.28-.37.62-.46 1.02-.06.03-.09.07-.11.13-.02.06-.05.09-.11.09-.06.47-.21.89-.46 1.26-.25.38-.44.82-.59 1.31-.23.38-.42.82-.57 1.33-.15.51-.36.94-.65 1.29-.09.32-.2.62-.33.9l-.39.83c-.13.28-.26.55-.39.83s-.23.59-.28.94c-.23.23-.42.55-.57.94-.15.39-.25.75-.31 1.07-.06.09-.12.17-.17.24l-.17.2c-.03.38-.15.69-.37.94s-.37.52-.46.81c-.03.03-.04.08-.02.15s.02.14.02.2c-.09.32-.23.6-.44.85-.2.25-.38.53-.52.85-.26.7-.58 1.32-.96 1.88-.38.55-.71 1.16-1.01 1.83-.15 0-.23.05-.26.13s-.12.13-.26.13c-.09-.09-.11-.15-.06-.2s.06-.13.06-.24c-.03 0-.08 0-.15-.02a.402.402 0 0 1-.2-.11c-.06.09-.14.17-.24.24-.1.07-.2.14-.28.2-.15 0-.21-.04-.17-.13a.75.75 0 0 1-.33.31c-.13.06-.2.19-.2.39-.32.09-.44.31-.35.65-.12.12-.28.17-.48.17-.09-.09-.12-.22-.09-.39-.09-.12-.23-.18-.44-.18-.09-.03-.13 0-.13.07s-.03.11-.09.11-.1-.04-.11-.11c-.01-.07-.06-.1-.15-.07-.06-.47-.02-.81.11-1.05.13-.23.18-.54.15-.92.03-.09.06-.12.11-.09s.08.01.11-.05c0-.09-.03-.12-.09-.11-.06.01-.07 0-.05-.07.06-.64.17-1.24.33-1.79s.21-1.1.15-1.66c-.03-.15 0-.32.07-.53.07-.2.11-.42.11-.65 0-1.02.16-1.91.48-2.66.03-.06.04-.11.02-.17-.01-.06-.02-.12-.02-.17.03-.12.06-.28.09-.48.03-.21.01-.33-.04-.39.32-.73.52-1.47.59-2.23.07-.76.24-1.5.5-2.22-.44.58-.89 1.21-1.35 1.9-.47.69-1 1.29-1.61 1.81.03.06.03.1 0 .13s-.05.07-.05.13c-.23.23-.49.47-.78.7-.29.23-.44.54-.44.92-.23.11-.45.28-.65.5-.2.22-.33.46-.39.72-.15-.09-.26-.04-.35.15-.09.19-.17.34-.26.46-.11.15-.31.33-.56.54-.26.22-.5.42-.7.59-.06.23-.1.37-.13.39-.17.2-.35.33-.52.39-.17.06-.32.19-.44.39-.32.12-.65.2-.98.26-.33.06-.63.16-.9.31-.23.06-.43.04-.59-.05-.16-.09-.36-.16-.59-.22-.21-.09-.32-.15-.35-.17s-.11-.15-.26-.35l-.44-.44a2.14 2.14 0 0 1-.39-.53c-.32.06-.56.07-.72.02-.16-.04-.33-.11-.5-.2-.06-.38-.15-.7-.26-.98-.11-.28-.25-.6-.39-.98-.09-.03-.17 0-.24.09-.07.09-.15.1-.24.04-.03-.12-.05-.28-.07-.48s-.03-.42-.04-.63c-.01-.22-.04-.43-.09-.64a.912.912 0 0 0-.24-.48c-.03-.58.02-1.1.15-1.55s.25-.95.37-1.51c-.67.55-1.33 1.19-1.99 1.92s-1.33 1.38-2.03 1.96c-.17.29-.37.56-.59.81-.22.25-.47.46-.76.63-.15.23-.3.44-.46.63-.16.19-.39.36-.68.5-.03.09-.07.15-.13.17-.06.03-.1.1-.13.22-.21-.09-.37-.05-.48.11-.11.16-.2.34-.26.55-.41.06-.71.22-.92.5-.21.28-.51.46-.92.55-.06.03-.1.08-.11.15-.01.07-.1.09-.24.06-.09.03-.11 0-.09-.06.03-.07.03-.14 0-.2-.23.06-.47.1-.72.13s-.44.06-.59.09c-.12-.03-.17-.12-.17-.26-.26.09-.52.07-.76-.04s-.46-.28-.63-.48c.09-.32.1-.61.04-.87-.06-.26.04-.47.31-.61 0-.06.02-.1.06-.13.05-.03.05-.09.02-.17.43-.41.78-.92 1.02-1.55.25-.63.59-1.14 1.03-1.55 0-.09.01-.15.04-.17.03-.03.02-.07-.04-.13.21-.32.43-.65.68-.98.25-.33.49-.62.72-.85.06-.06.12-.14.2-.24.07-.1.12-.21.15-.33.03-.06.06-.09.11-.09s.1-.01.15-.04c.26-.32.53-.6.81-.85.27-.25.52-.53.72-.85.21-.06.37-.17.48-.33.11-.16.26-.28.44-.37.61-.73 1.22-1.43 1.83-2.1s1.2-1.37 1.79-2.1c.5-.64 1.04-1.23 1.64-1.77.6-.54 1.17-1.1 1.73-1.68.06-.06.08-.09.06-.11s0-.04.02-.07c.15-.09.25-.16.31-.22s.16-.12.31-.17c.06-.29.2-.5.44-.61.23-.12.42-.29.57-.53.67-.32 1.29-.47 1.88-.44s1.3.06 2.14.09Zm-17.85 20.34c0-.15-.06-.22-.18-.22.03.06.04.1.02.13s-.02.07-.02.13c.06.03.09.03.09 0s.03-.04.09-.04Zm9.6-7.68c-.06.06-.13.12-.22.17-.09.06-.13.13-.13.22a.56.56 0 0 0 .24-.17c.07-.09.11-.16.11-.22Zm17.41 11.74c-.03-.09-.01-.13.04-.13s.09-.03.09-.09a.418.418 0 0 1-.15-.11c-.05-.05-.12-.04-.24.02v.13c.06.06.11.09.15.09s.08.03.11.09ZM296.89 120.19c-.09 0-.13-.03-.13-.09s-.03-.07-.09-.04c-.44.2-.86.42-1.26.65-.41.23-.83.44-1.27.61-.06.06-.09.12-.11.17-.02.06-.05.1-.11.13-1.02.32-2.03.71-3.03 1.16-1.01.45-1.97.9-2.9 1.33-.38.21-.8.37-1.25.48-.45.11-.88.25-1.29.39s-.83.29-1.26.44c-.44.15-.89.32-1.35.53-.06 0-.1.03-.13.09s-.07.09-.13.09c-.09.03-.17.04-.26.02-.09-.01-.17 0-.26.02-.11.06-.24.12-.37.17-.13.06-.26.09-.37.09-.06.03-.15.16-.26.39-.23 0-.42.04-.57.11s-.29.15-.44.24c-.58.09-1.13.19-1.66.31-.52.11-1.05.19-1.57.22-.23-.15-.47-.2-.7-.15-.23.04-.44-.04-.61-.24-.32 0-.6-.05-.83-.13-.23-.09-.45-.18-.66-.28-.2-.1-.4-.21-.59-.33-.19-.12-.4-.21-.64-.26a.77.77 0 0 0-.28-.5.437.437 0 0 1-.15-.5c-.06-.09-.12-.17-.18-.24-.06-.07-.15-.07-.26.02a8.84 8.84 0 0 0-.61-.94c-.23-.31-.44-.65-.61-1.03 0-.12.02-.2.06-.24.04-.04.08-.09.11-.15a1.21 1.21 0 0 0-.22-.37c-.09-.1-.13-.26-.13-.46-.26-.29-.46-.72-.59-1.29-.13-.56-.11-1.05.06-1.46.03-.23.07-.47.13-.7.06-.23.15-.41.26-.52.26-.79.56-1.59.92-2.42.35-.83.72-1.59 1.13-2.29-.12-.06-.17-.12-.17-.2s.02-.15.06-.22a.88.88 0 0 0 .11-.24c.03-.09.03-.16 0-.22.17 0 .35-.06.53-.17.06-.06.11-.15.15-.28.04-.13.11-.26.2-.37.2-.35.42-.74.63-1.15.22-.42.44-.82.67-1.2.18-.32.36-.66.55-1.03s.39-.72.59-1.07c.12-.23.21-.42.28-.55.07-.13.09-.34.06-.63-.03-.06-.09-.08-.2-.06s-.15-.04-.15-.15c-.06.03-.09.07-.09.13s-.03.11-.09.17c-.17-.12-.32-.19-.44-.22s-.29-.09-.53-.17c-.03-.2-.01-.45.05-.74.23-.17.43-.38.59-.61.16-.23.33-.47.5-.7.78-.38 1.49-.78 2.12-1.2.63-.42 1.37-.68 2.25-.76.35-.23.69-.39 1.03-.48.33-.09.7-.22 1.11-.39.17.03.36.01.54-.04.19-.06.38-.12.57-.2.19-.07.39-.15.61-.22.22-.07.46-.11.72-.11.06.03.1.01.11-.04.01-.06.05-.1.11-.13.06 0 .1.03.11.09.01.06.07.07.15.04.99-.32 1.91-.53 2.75-.63.85-.1 1.67-.28 2.49-.55.11 0 .23.03.35.09.35-.15.76-.23 1.22-.26s.9-.15 1.31-.35c.4.09.79.07 1.15-.05.37-.11.71-.15 1.03-.09.2-.06.32-.16.35-.31 1.23-.15 2.45-.34 3.67-.59 1.22-.25 2.42-.37 3.58-.37.17 0 .37.02.59.07.22.04.42.05.59.02.06 0 .13-.02.22-.07.09-.04.18-.08.26-.11.26-.06.6-.04 1.01.06.4.1.86.11 1.35.02-.03.12-.02.19.02.22s.06.1.06.22c-.06.06-.14.08-.24.07-.1-.01-.2-.02-.28-.02-.06.06-.1.13-.11.24s-.06.17-.15.2c.06.06.1.1.13.11s.06.05.09.11c.09-.06.18-.1.28-.13.1-.03.18-.01.24.04-.06.15-.15.23-.26.26s-.2.12-.26.26c-.09 0-.13-.06-.13-.17-.09.09-.16.15-.22.2-.06.04-.16.06-.31.06V99c.06.06.11.08.15.06.05-.01.1 0 .15.02-.06.15-.17.26-.35.33-.17.07-.33.1-.48.07-.06.03-.09.08-.09.15s-.03.14-.09.2c-.26.06-.48.1-.64.11s-.36.02-.59.02c.03.09.05.15.06.2.01.05 0 .1-.06.15-.12-.11-.21-.17-.26-.17-.26.23-.53.43-.81.59-.28.16-.62.3-1.03.42-.09.03-.19.04-.31.04s-.25.01-.39.04c-.29.09-.59.21-.9.35s-.62.25-.94.31c-.49.09-1.04.22-1.64.41-.6.19-1.13.4-1.59.64-1.08.35-2.28.67-3.62.98s-2.62.62-3.84.94c-.23.06-.52.12-.85.17-.33.06-.58.15-.72.26-.2.15-.35.37-.44.65-.09.29-.13.58-.13.87-.09-.03-.14-.01-.15.04-.01.06-.06.07-.15.05-.23.47-.47.92-.7 1.37-.23.45-.48.88-.74 1.29.32.06.66.07 1.03.02.36-.04.75-.12 1.15-.24.12.06.21.07.28.04.07-.03.14-.01.2.04.64-.14 1.25-.27 1.84-.37.58-.1 1.2-.17 1.88-.2.52-.03.99-.1 1.4-.22.41-.11.87-.22 1.4-.31.5-.09.9-.16 1.22-.22.18-.03.31-.03.42 0s.23.03.37 0c.2 0 .41-.03.63-.09.22-.06.44-.11.67-.17.41-.03.76-.04 1.07-.02s.56-.11.76-.37c.58.06 1.15.02 1.7-.11s1.16-.17 1.83-.11c-.03.15-.15.22-.35.22 0 .15.09.21.26.18s.32-.03.44 0c0 .09-.01.15-.04.2-.03.04-.06.11-.09.2-.12.03-.2.03-.24 0a.374.374 0 0 0-.2-.04c-.03.12 0 .22.11.31s.14.22.11.39c-.15-.15-.31-.15-.48 0-.18.15-.34.2-.48.17-.03.06-.04.11-.02.15.01.04 0 .11-.02.2-.23 0-.39.06-.46.17-.07.12-.15.23-.24.35-.2.03-.41.12-.63.26-.22.15-.4.31-.54.48-.44.03-.85.15-1.25.37-.39.22-.83.37-1.33.46-.09.06-.16.12-.22.17l-.17.17c-.12-.09-.23-.11-.35-.06-.12.04-.22.12-.31.24a.701.701 0 0 0-.33-.02c-.13.01-.2.08-.2.2-.09-.06-.16-.06-.22-.02-.06.05-.12.04-.17-.02-.17.21-.46.35-.85.44-.39.09-.74.12-1.03.09-.09.11-.22.19-.39.22s-.36.05-.55.06c-.19.02-.37.05-.54.09-.18.04-.31.12-.39.24-.32.06-.63.1-.92.13-.29.03-.58.07-.87.13-.67.12-1.33.28-1.99.5-.65.22-1.32.37-1.99.46-.2.06-.39.07-.57.04s-.31.04-.39.22c-.41-.06-.87-.03-1.4.09-.52.12-.99.2-1.4.26-.49.81-.97 1.62-1.44 2.42-.47.8-.93 1.65-1.4 2.55.32-.03.71-.12 1.18-.28s.9-.31 1.31-.46c.23-.09.47-.15.72-.17.25-.03.43-.15.54-.35.06-.03.09-.02.09.02 0 .05.03.07.09.07.44-.23.91-.4 1.42-.5.51-.1 1.01-.22 1.51-.37.15-.06.29-.13.44-.22.14-.09.29-.15.43-.18.06-.03.12-.02.18.02s.13.05.22.02c.2-.06.39-.13.57-.22.17-.09.39-.13.65-.13.06 0 .12 0 .17-.02.06-.01.12-.02.17-.02.64-.15 1.3-.3 1.99-.46.69-.16 1.42-.24 2.21-.24.06 0 .09.04.09.13h1.11c.42 0 .83.02 1.24.07s.78.1 1.14.17c.35.07.63.18.83.33.03.12.02.18-.02.2-.04.02-.1.05-.15.11.06.21.16.38.31.53s.29.29.44.43c0 .09-.02.17-.07.24-.04.07-.05.14-.02.2.03.09.09.11.17.07.09-.05.15 0 .18.11-.18.32-.39.52-.66.61-.26.09-.51.29-.74.61Zm-9.38-15.32s-.06-.04-.17-.02c-.12.02-.15.07-.09.15.06 0 .11 0 .17-.02.06-.01.09-.05.09-.11ZM328.75 109.11c.17-.23.32-.39.44-.48.06.15.04.26-.05.35s-.17.16-.26.22c0 .09-.01.15-.02.17s0 .09.02.17c-.18.06-.31.15-.39.28s-.17.26-.24.39c-.07.13-.15.26-.24.37-.09.12-.21.22-.35.31.06.03.06.07.02.13-.05.06-.05.12-.02.17-.61.76-1.12 1.64-1.53 2.64-.4 1-.84 1.93-1.31 2.77-.06.06-.12.14-.2.24-.07.1-.09.2-.06.28-.12.12-.2.27-.26.46s-.12.36-.17.5c-.23.41-.44.9-.63 1.48s-.46 1.08-.81 1.48c-.06.35-.19.69-.39 1.03s-.39.66-.57.98c-.15.29-.28.56-.41.83-.13.26-.28.51-.46.74-.09.32-.18.63-.26.92-.09.29-.09.6 0 .92-.06.06-.13.1-.22.11-.09.01-.1.09-.04.24-.17-.06-.31-.06-.42 0-.1.06-.19.13-.26.22s-.15.17-.24.26a.46.46 0 0 1-.35.13c-.06.09-.12.16-.2.22-.07.06-.12.11-.15.17a.901.901 0 0 1-.56-.52c-.15.09-.27.07-.37-.05s-.22-.2-.37-.26c-.5.06-.87-.04-1.14-.28-.26-.25-.49-.52-.7-.81-.09.03-.16.03-.22 0-.32-.32-.55-.71-.7-1.18s-.35-.89-.61-1.27c0-.26-.03-.57-.09-.92s-.13-.68-.22-1.01c-.03-.06-.05-.11-.07-.15a.397.397 0 0 0-.11-.15c.06-.11.06-.29 0-.54-.06-.25-.11-.47-.17-.68-.12-.38-.22-.76-.33-1.15-.1-.39-.18-.78-.24-1.16-.06-.23-.1-.47-.11-.7-.01-.23-.1-.44-.24-.61 0-.5-.08-.96-.24-1.4s-.31-.9-.46-1.4c-.5.47-.95.95-1.35 1.46-.41.51-.82 1.02-1.24 1.55l-1.27 1.57c-.42.53-.88 1.02-1.37 1.48-.15.26-.33.5-.57.7-.23.2-.45.42-.65.65-.15.2-.3.39-.46.57l-.46.52c-.29.67-.65 1.31-1.09 1.92 0 .15-.07.27-.2.37-.13.1-.28.2-.44.28-.16.09-.32.17-.48.26s-.25.19-.28.31c-.15 0-.32-.05-.53-.15s-.38-.12-.52-.06c-.17 0-.31.03-.39.09-.09 0-.16-.07-.22-.22a.55.55 0 0 0-.07.09c-.01.03-.05.05-.11.05a.426.426 0 0 0-.28-.11c-.13-.01-.27-.02-.42-.02 0-.17-.01-.33-.04-.46a.691.691 0 0 1 .04-.42c0-.06-.01-.07-.04-.04-.03.03-.07.04-.13.04-.06-.06-.08-.11-.07-.15s0-.1-.06-.15c-.03-.06-.04-.06-.02 0 .01.06 0 .1-.02.13-.26-.2-.39-.51-.37-.92s0-.73-.02-.96c-.06-.11-.12-.19-.2-.22a.521.521 0 0 1-.2-.17c.06-.29.12-.47.18-.53.2-.67.43-1.28.7-1.83.26-.55.53-1.1.78-1.66.41-.81.89-1.56 1.44-2.25.55-.68 1-1.45 1.35-2.29.38-.35.71-.74 1-1.18.29-.44.6-.86.92-1.27 0-.06.06-.09.18-.09.14-.23.29-.46.46-.68.16-.22.31-.44.46-.67.38-.35.67-.78.87-1.31.21-.52.48-.99.83-1.4 0-.03 0-.05-.02-.07-.01-.01 0-.06.02-.15h.17a.41.41 0 0 1-.06-.31c.01-.11-.04-.17-.15-.17.03-.15.04-.31.04-.48s-.06-.32-.17-.44c0-.17.02-.31.06-.42.04-.1.08-.21.11-.33.29.12.52.11.7-.02.18-.13.41-.18.7-.15 0-.09-.03-.12-.09-.11-.06.02-.07-.02-.05-.11.09 0 .13-.06.13-.17.17.06.3.09.37.09s.18.03.33.09c.15 0 .22-.06.22-.17.17.11.4.24.68.37a20.398 20.398 0 0 1 1.68.92c.26.16.45.31.56.46.06-.03.09-.06.09-.09s.04-.03.13 0c.15.18.28.34.42.5.13.16.25.34.37.54.03.03.1.05.22.05 0 .26.09.47.26.61s.29.33.35.56c.35.41.59.9.72 1.46s.34 1.1.63 1.59c.03.06.03.09 0 .11-.03.02-.04.05-.04.11.35.44.62.93.81 1.48.19.55.36 1.1.5 1.66.38-.44.72-.92 1.03-1.44.31-.52.62-1.02.94-1.48 0-.06-.01-.09-.05-.09-.03 0-.03-.03 0-.09.12 0 .19-.01.22-.04 1.42-2.12 2.92-4.14 4.47-6.05 1.56-1.9 3.02-3.92 4.39-6.05.15-.06.24-.13.28-.22.05-.09.14-.16.28-.22-.03-.06-.03-.1 0-.13s.04-.07.04-.13c.12-.12.23-.23.35-.33.11-.1.19-.26.22-.46.12 0 .19-.03.22-.09s.09-.1.17-.13c.09-.32.25-.58.5-.76s.4-.44.46-.76c.15-.09.26-.17.35-.26.09-.09.19-.17.31-.26.03-.06.05-.16.05-.31.87-.87 1.75-1.74 2.64-2.6.89-.86 1.88-1.63 2.99-2.33.06 0 .09.03.09.09v.17c.03-.06.1-.09.22-.09.06.03.09.09.09.17.15-.03.26-.04.33-.02.07.01.17.04.28.07 0 .2-.06.31-.2.33s-.22.08-.28.2c.06.06.13.06.22.02.09-.04.17-.05.26-.02.03.2-.04.38-.2.52-.16.15-.21.29-.15.44-.17.15-.25.31-.22.48.03.17.04.35.04.52.09.06.15.04.2-.04.05-.09.1-.16.15-.22.09.09.1.15.05.17-.06.03-.1.07-.13.13-.12.23-.21.48-.26.74s-.16.51-.31.74c-.06-.03-.09-.01-.09.04 0 .06-.03.09-.09.09 0 .12.06.17.17.15s.2 0 .26.06c0 .15-.08.28-.24.39s-.28.25-.37.39c-.06.06-.1.14-.11.24-.01.1-.05.18-.11.24-.09.15-.22.3-.39.46s-.19.37-.05.63c.12.03.19 0 .22-.09s.07-.1.13-.04c-.06.41-.24.76-.55 1.07s-.58.65-.81 1.03c-.06 0-.1.04-.13.11s-.07.11-.13.11c.06.26.04.47-.06.61-.1.15-.14.29-.11.44-.06-.03-.1-.02-.13.02-.03.05-.07.08-.13.11.03.23-.01.39-.13.46-.12.07-.17.23-.17.46-.2.12-.35.26-.44.44-.09.17-.19.33-.31.48-.06.09-.04.12.07.09.1-.03.12 0 .06.09-.76 1.11-1.56 2.24-2.42 3.41s-1.64 2.35-2.33 3.58Zm-29.98 12.57c.03-.06.06-.09.09-.09s.05-.01.05-.05c-.03 0-.05-.06-.05-.17-.09-.03-.14 0-.17.09s0 .16.09.22Z" style="fill:#fb0742"></path><path d="M320.68 131.02c-.17.06-.36.01-.54-.13-.19-.15-.42-.25-.68-.31-.06 0-.1.05-.13.13-.03.09-.07.09-.13 0 .06-.15.05-.32-.04-.52a.83.83 0 0 0-.09.39c-.15 0-.28-.09-.39-.26 0-.06 0-.11.02-.15.01-.05.1-.05.24-.02v-.35s.04.01.04-.04c0-.06.03-.07.09-.05-.03-.03-.04-.07-.02-.13s0-.1-.06-.13c-.03.03-.03.07 0 .11s.03.09 0 .15a.704.704 0 0 0-.17-.19c-.09-.07-.16-.1-.22-.07v-.66c-.11-.15-.26-.27-.44-.37-.17-.1-.19-.31-.04-.63.12-.03.23-.1.35-.22.12-.12.16-.26.13-.44h.35c.32-.4.63-.8.94-1.18.31-.38.63-.77.98-1.18-.58 0-1.18.04-1.81.13-.63.09-1.14.04-1.55-.13-.09.09-.21.13-.37.13s-.3.07-.42.22c-.06-.09-.12-.12-.17-.09-.06.03-.12 0-.17-.09.06-.23.17-.36.33-.37.16-.02.3-.07.42-.15-.06 0-.11 0-.15-.02-.05-.01-.12-.05-.24-.11-.09.11-.2.2-.33.24-.13.05-.23.12-.28.24-.15-.15-.3-.18-.46-.11-.16.07-.27.15-.33.24 0-.06-.02-.09-.07-.09-.04 0-.06-.03-.06-.09 0-.09.04-.15.11-.18s.08-.07.02-.13c0-.15.03-.18.09-.09s.13.12.22.09c0-.06-.01-.12-.05-.18l-.13-.26c-.23.06-.42.07-.57.04s-.32.01-.53.13a1.21 1.21 0 0 1-.04-.2v-.24c.15.03.26-.07.35-.31l.05.04s0 .05.02.07.02.04.02.06c.35-.26.7-.45 1.05-.57.35-.11.7-.25 1.05-.39.15-.09.33-.14.54-.15.22-.01.36-.1.42-.24.06.06.14.06.24 0 .1-.06.18-.04.24.04.03-.06.06-.1.09-.13s.07-.09.13-.18c.23.09.45.05.65-.11s.44-.23.7-.2c.09 0 .13-.06.13-.17.15-.03.31-.04.48-.02s.31-.09.39-.33c-.17-.12-.31-.12-.41-.02-.1.1-.21.15-.33.15.03-.12.12-.23.26-.33.15-.1.31-.18.48-.24.21-.15.44-.24.7-.28s.55-.06.87-.06c.06 0 .09-.02.11-.07.02-.04.04-.09.07-.15.44-.11.81-.24 1.13-.37.32-.13.77-.27 1.35-.42.03 0 .05-.03.05-.09s.03-.1.09-.13c.09.03.15.05.17.06.03.01.07 0 .13-.02.06-.2.19-.33.39-.39s.32-.2.35-.44c.17 0 .29-.09.35-.26s.16-.25.31-.22c.41-.76.88-1.42 1.42-1.99.54-.57 1.01-1.18 1.42-1.85.17-.12.26-.26.26-.44.03 0 .05 0 .06.02s.05.02.11.02c.06-.32.21-.56.46-.72.25-.16.4-.44.46-.85.41-.35.76-.77 1.07-1.26.31-.5.68-.92 1.11-1.27.09-.29.2-.54.33-.74.13-.2.27-.4.43-.59.16-.19.31-.39.46-.59.15-.21.26-.44.35-.7.35-.32.63-.7.85-1.13.22-.44.5-.82.85-1.14.09-.26.21-.49.37-.67.16-.19.3-.42.42-.68.41-.41.76-.84 1.05-1.31.29-.46.64-.86 1.05-1.18.03-.06.06-.1.11-.13.04-.03.05-.09.02-.17.52-.5.94-1.05 1.26-1.66.55-.64 1.08-1.24 1.59-1.79s.97-1.15 1.37-1.79c.15 0 .25-.06.33-.2.07-.13.14-.24.2-.33.23-.09.41-.22.53-.39.11-.17.26-.33.44-.48.09.09.17.09.24 0 .07-.09.17-.15.28-.17.03.09 0 .18-.09.28-.09.1-.17.18-.26.24.2.06.45.1.74.11.29.01.57.04.85.09.28.04.54.11.78.22.25.1.44.26.59.46-.03.09-.04.17-.04.24s-.04.09-.13.06c.09.06.17.17.26.33s.17.21.26.15c.11.09.2.19.24.31.05.12.14.22.28.31-.06.12-.05.24.02.37s.17.22.28.28c-.03.38-.03.73 0 1.07.03.33.05.67.07 1 .01.33 0 .66-.05.98-.04.32-.14.65-.28 1 0 .23-.01.42-.04.55s-.06.26-.11.39c-.04.13-.09.27-.13.42-.05.15-.07.35-.07.61-.2.58-.37 1.22-.5 1.92s-.31 1.32-.55 1.88c.06.26.04.55-.04.85-.09.31-.21.58-.35.81 0 .5-.07.96-.2 1.4-.13.44-.22.89-.28 1.35-.03 0-.05.04-.06.11-.01.07-.05.1-.11.07 0 .06.02.09.07.09.04 0 .06.03.06.09-.2.58-.35 1.11-.44 1.59-.09.48-.16 1.01-.22 1.59.09.15.19.2.31.15.11-.05.23-.07.35-.07.17.06.33.13.48.22.15.09.32.13.53.13.11 0 .22-.02.31-.07.09-.04.17-.02.26.07.06.06.09.07.09.04s.03-.04.09-.04c.26.23.58.45.96.65s.68.48.92.83c-.06.06-.07.14-.04.24.03.1.06.18.09.24v.17c0 .06-.01.09-.04.09.03.06.06.13.09.22s.11.16.26.22c0 .06-.03.11-.09.15-.06.04-.12.1-.17.15.06.17.09.28.11.33.01.05.04.12.07.24-.12 0-.15.06-.11.2s0 .21-.11.24v.39c-.03.06-.04.11-.04.15 0 .05-.03.11-.09.2-.4.17-.83.3-1.26.37-.44.07-.89.15-1.35.22-.47.07-.94.15-1.44.24s-1.01.22-1.53.39c-.03.06-.06.11-.09.15-.03.04-.03.11 0 .2h-.31c-.06.09-.1.17-.11.26-.01.09-.06.17-.15.26-.03.55-.16 1.15-.39 1.79-.23.64-.48 1.21-.74 1.7-.12-.18-.13-.42-.05-.72.09-.31.05-.52-.13-.63-.09.23-.14.46-.15.67-.02.22-.02.44-.02.68h-.09c-.06 0-.07-.01-.04-.05.03-.03.03-.09 0-.17-.18.12-.22.32-.13.61-.12.06-.19.13-.22.22s-.05.18-.06.28a.91.91 0 0 1-.09.31.33.33 0 0 1-.24.2c0-.09 0-.18-.02-.28-.02-.1-.07-.15-.15-.15.09-.12.09-.22 0-.31-.15.06-.25.15-.31.28-.06.13-.11.28-.15.44-.05.16-.1.31-.15.44a.93.93 0 0 1-.26.33c-.06-.12-.09-.28-.09-.48v-.53c-.09.06-.12.17-.09.35.03.18 0 .28-.09.31-.06.03-.1.01-.11-.04s-.05-.09-.11-.09a.75.75 0 0 0-.15.2c-.05.07-.07.17-.07.28-.12.06-.19.06-.22.02a.156.156 0 0 0-.13-.07c0-.15 0-.27.02-.37s.02-.21.02-.33c0-.03 0-.04-.02-.02-.01.01-.02 0-.02-.02.03-.84.05-1.62.06-2.33s.05-1.43.11-2.16c-.67.03-1.48.07-2.44.13s-1.78.15-2.44.26c-.09.03-.14.07-.15.13-.01.06-.05.12-.11.17-.06-.03-.07-.07-.04-.13.03-.06.01-.09-.05-.09 0 .06-.04.05-.13-.02s-.13-.04-.13.11c-.58-.03-1.15.02-1.7.15s-1.12.22-1.7.28c-.17.06-.36.08-.56.07a.607.607 0 0 0-.53.24c-.15-.03-.24-.05-.28-.06a.605.605 0 0 0-.15-.02c-1.1 1.17-2.15 2.34-3.14 3.53-.99 1.19-2.05 2.3-3.19 3.32-.11-.03-.24 0-.37.07s-.24.15-.33.24c-.15-.06-.31-.02-.48.11s-.38.14-.61.02c-.18.06-.28.13-.31.22-.15-.09-.3-.12-.46-.09s-.27.01-.33-.04c.06-.03.1-.04.13-.04s.07-.02.13-.05Zm19.08-15.19c0-.15.05-.23.15-.24s.2-.09.28-.24c.06.11.14.15.24.09.1-.06.18-.09.24-.09.09-1.48.23-2.87.44-4.15.2-1.28.38-2.59.52-3.93-.58.73-1.1 1.51-1.55 2.34-.45.83-.98 1.58-1.59 2.25-.44.9-.93 1.73-1.48 2.49-.55.76-1.11 1.51-1.66 2.27v.22c.76-.23 1.48-.38 2.18-.46.7-.07 1.44-.25 2.23-.54Z" style="fill:#fb0742"></path></svg>